<svg width="26" height="23" viewBox="0 0 26 23" fill="none" xmlns="http://www.w3.org/2000/svg">
<path fill-rule="evenodd" clip-rule="evenodd" d="M20.6357 2.63243H21.1812C21.8675 2.63243 22.5286 2.81427 23.1086 3.15404C23.674 3.48527 24.1464 3.95761 24.4776 4.52304C24.8174 5.10307 24.9992 5.76414 24.9992 6.45049C24.9849 8.28323 24.9849 10.4659 24.9992 13.0024C25.009 14.7352 24.9284 16.5519 24.7575 18.4527C24.5896 20.3217 23.0883 21.7915 21.2162 21.92C17.6449 22.1651 14.9166 22.2877 13.0275 22.2877C11.1366 22.2877 8.39311 22.1649 4.7928 21.9193C2.91733 21.7915 1.41401 20.3175 1.2492 18.4449C1.0831 16.5575 1 14.7444 1 13.0055V6.45049C1 5.76414 1.18184 5.10307 1.52161 4.52304C1.85284 3.95761 2.32518 3.48527 2.89061 3.15404C3.47064 2.81427 4.13171 2.63243 4.81806 2.63243H5.36349V2.08699C5.36349 1.18328 6.0961 0.450684 6.99981 0.450684C7.90351 0.450684 8.63612 1.18328 8.63612 2.08699V2.63243H17.3631V2.08699C17.3631 1.18328 18.0957 0.450684 18.9994 0.450684C19.9031 0.450684 20.6357 1.18328 20.6357 2.08699V2.63243ZM18.9994 1.54155C18.6982 1.54155 18.454 1.78575 18.454 2.08698V3.17786C18.454 3.47909 18.6982 3.72329 18.9994 3.72329C19.3007 3.72329 19.5449 3.47909 19.5449 3.17786V2.08698C19.5449 1.78575 19.3007 1.54155 18.9994 1.54155ZM6.99981 1.54186C6.69858 1.54186 6.45438 1.78606 6.45438 2.08729V3.17817C6.45438 3.4794 6.69858 3.7236 6.99981 3.7236C7.30105 3.7236 7.54525 3.4794 7.54525 3.17817V2.08729C7.54525 1.78606 7.30105 1.54186 6.99981 1.54186ZM18.9994 4.81517C19.7119 4.81517 20.318 4.35983 20.5426 3.72429H21.1812C21.6724 3.72429 22.1433 3.85384 22.5572 4.0963C22.9615 4.33309 23.2995 4.67118 23.5363 5.07541C23.7784 5.48871 23.908 5.95892 23.9083 6.44935C23.8941 8.28273 23.8941 10.4694 23.9084 13.0096C23.9179 14.7068 23.8388 16.489 23.671 18.356C23.5511 19.691 22.4787 20.7409 21.1415 20.8327C17.5929 21.0762 14.8869 21.1978 13.0275 21.1978C11.1662 21.1978 8.44473 21.076 4.86702 20.832C3.5274 20.7406 2.45359 19.6878 2.33587 18.3502C2.17251 16.494 2.09087 14.7127 2.09087 13.0065V6.45148C2.09087 5.96028 2.22042 5.48931 2.46288 5.07541C2.69967 4.67118 3.03776 4.33309 3.44199 4.0963C3.85589 3.85384 4.32686 3.72429 4.81806 3.72429H5.4566C5.68123 4.35983 6.28734 4.81517 6.9998 4.81517C7.71226 4.81517 8.31837 4.35983 8.543 3.72429H17.4562C17.6808 4.35983 18.287 4.81517 18.9994 4.81517ZM20.0903 6.99512H5.90892C5.00521 6.99512 4.27261 7.72772 4.27261 8.63143V17.3584C4.27261 18.2621 5.00521 18.9947 5.90892 18.9947H20.0903C20.994 18.9947 21.7266 18.2621 21.7266 17.3584V8.63143C21.7266 7.72772 20.994 6.99512 20.0903 6.99512ZM5.36349 8.63186C5.36349 8.33063 5.6077 8.08643 5.90893 8.08643H9.72697V12.4501H5.36349V8.63186ZM10.8178 12.4501V8.08643H15.1813V12.4501H10.8178ZM16.2722 12.4501V8.08643H20.0903C20.3915 8.08643 20.6357 8.33063 20.6357 8.63186L20.6357 12.4501H16.2722ZM16.2722 13.541H20.6357L20.6357 17.3589C20.6357 17.6601 20.3915 17.9043 20.0903 17.9043H16.2722V13.541ZM15.1813 13.541V17.9043H10.8178V13.541H15.1813ZM9.72697 13.541V17.9043H5.90893C5.6077 17.9043 5.36349 17.6601 5.36349 17.3589V13.541H9.72697Z" fill="#9997B1"/>
<path d="M20.6357 2.63243H20.3857V2.88243H20.6357V2.63243ZM23.1086 3.15404L22.9822 3.36976V3.36976L23.1086 3.15404ZM24.4776 4.52304L24.6933 4.39668V4.39668L24.4776 4.52304ZM24.9992 6.45049L25.2492 6.45244V6.45049H24.9992ZM24.9992 13.0024L25.2492 13.001V13.001L24.9992 13.0024ZM24.7575 18.4527L25.0065 18.4751V18.4751L24.7575 18.4527ZM21.2162 21.92L21.1991 21.6706L21.2162 21.92ZM4.7928 21.9193L4.77579 22.1688H4.77579L4.7928 21.9193ZM1.2492 18.4449L1.49824 18.4229L1.2492 18.4449ZM1.52161 4.52304L1.3059 4.39668H1.3059L1.52161 4.52304ZM2.89061 3.15404L3.01698 3.36976L2.89061 3.15404ZM5.36349 2.63243V2.88243H5.61349V2.63243H5.36349ZM8.63612 2.63243H8.38612V2.88243H8.63612V2.63243ZM17.3631 2.63243V2.88243H17.6131V2.63243H17.3631ZM20.5426 3.72429V3.47429H20.3658L20.3069 3.64098L20.5426 3.72429ZM22.5572 4.0963L22.4309 4.31201L22.4309 4.31201L22.5572 4.0963ZM23.5363 5.07541L23.7521 4.94905V4.94905L23.5363 5.07541ZM23.9083 6.44935L24.1583 6.4513L24.1583 6.44916L23.9083 6.44935ZM23.9084 13.0096L23.6584 13.011L23.9084 13.0096ZM23.671 18.356L23.92 18.3784L23.671 18.356ZM21.1415 20.8327L21.1244 20.5833L21.1415 20.8327ZM4.86702 20.832L4.88402 20.5826H4.88402L4.86702 20.832ZM2.33587 18.3502L2.58491 18.3283L2.33587 18.3502ZM2.46288 5.07541L2.67859 5.20177H2.67859L2.46288 5.07541ZM3.44199 4.0963L3.56835 4.31201V4.31201L3.44199 4.0963ZM5.4566 3.72429L5.69231 3.64098L5.6334 3.47429H5.4566V3.72429ZM8.543 3.72429V3.47429H8.36621L8.30729 3.64098L8.543 3.72429ZM17.4562 3.72429L17.6919 3.64098L17.633 3.47429H17.4562V3.72429ZM9.72697 8.08643H9.97697V7.83643H9.72697V8.08643ZM9.72697 12.4501V12.7001H9.97697V12.4501H9.72697ZM5.36349 12.4501H5.11349V12.7001H5.36349V12.4501ZM10.8178 8.08643V7.83643H10.5678V8.08643H10.8178ZM10.8178 12.4501H10.5678V12.7001H10.8178V12.4501ZM15.1813 8.08643H15.4313V7.83643H15.1813V8.08643ZM15.1813 12.4501V12.7001H15.4313V12.4501H15.1813ZM16.2722 8.08643V7.83643H16.0222V8.08643H16.2722ZM16.2722 12.4501H16.0222V12.7001H16.2722V12.4501ZM20.6357 8.63186L20.8857 8.63186V8.63186H20.6357ZM20.6357 12.4501V12.7001H20.8857V12.4501L20.6357 12.4501ZM20.6357 13.541L20.8857 13.541V13.291H20.6357V13.541ZM16.2722 13.541V13.291H16.0222V13.541H16.2722ZM20.6357 17.3589H20.8857H20.6357ZM16.2722 17.9043H16.0222V18.1543H16.2722V17.9043ZM15.1813 17.9043V18.1543H15.4313V17.9043H15.1813ZM15.1813 13.541H15.4313V13.291H15.1813V13.541ZM10.8178 17.9043H10.5678V18.1543H10.8178V17.9043ZM10.8178 13.541V13.291H10.5678V13.541H10.8178ZM9.72697 17.9043V18.1543H9.97697V17.9043H9.72697ZM9.72697 13.541H9.97697V13.291H9.72697V13.541ZM5.36349 13.541V13.291H5.11349V13.541H5.36349ZM21.1812 2.38243H20.6357V2.88243H21.1812V2.38243ZM23.235 2.93833C22.6167 2.57618 21.9121 2.38243 21.1812 2.38243V2.88243C21.823 2.88243 22.4404 3.05237 22.9822 3.36976L23.235 2.93833ZM24.6933 4.39668C24.3405 3.7943 23.8373 3.29119 23.235 2.93833L22.9822 3.36976C23.5107 3.67934 23.9523 4.12092 24.2619 4.64941L24.6933 4.39668ZM25.2492 6.45049C25.2492 5.71959 25.0555 5.01491 24.6933 4.39668L24.2619 4.64941C24.5793 5.19122 24.7492 5.8087 24.7492 6.45049H25.2492ZM25.2492 13.001C25.2349 10.4652 25.2349 8.28372 25.2492 6.45244L24.7492 6.44854C24.7349 8.28273 24.7349 10.4665 24.7492 13.0038L25.2492 13.001ZM25.0065 18.4751C25.178 16.5672 25.259 14.7425 25.2492 13.001L24.7492 13.0038C24.7589 14.7279 24.6787 16.5367 24.5085 18.4303L25.0065 18.4751ZM21.2333 22.1694C23.228 22.0326 24.8276 20.4664 25.0065 18.4751L24.5085 18.4303C24.3516 20.1769 22.9486 21.5505 21.1991 21.6706L21.2333 22.1694ZM13.0275 22.5377C14.9253 22.5377 17.6604 22.4146 21.2333 22.1694L21.1991 21.6706C17.6294 21.9156 14.9079 22.0377 13.0275 22.0377V22.5377ZM4.77579 22.1688C8.37766 22.4144 11.128 22.5377 13.0275 22.5377V22.0377C11.1453 22.0377 8.40857 21.9153 4.80981 21.6699L4.77579 22.1688ZM1.00017 18.4668C1.17576 20.462 2.77752 22.0325 4.77579 22.1688L4.80981 21.6699C3.05715 21.5504 1.65226 20.1729 1.49824 18.4229L1.00017 18.4668ZM0.75 13.0055C0.75 14.7523 0.833476 16.5728 1.00017 18.4668L1.49824 18.4229C1.33272 16.5422 1.25 14.7364 1.25 13.0055H0.75ZM0.75 6.45049V13.0055H1.25V6.45049H0.75ZM1.3059 4.39668C0.943746 5.01491 0.75 5.71959 0.75 6.45049H1.25C1.25 5.8087 1.41994 5.19122 1.73733 4.64941L1.3059 4.39668ZM2.76425 2.93833C2.16187 3.29119 1.65876 3.7943 1.3059 4.39668L1.73733 4.64941C2.04691 4.12092 2.48848 3.67934 3.01698 3.36976L2.76425 2.93833ZM4.81806 2.38243C4.08716 2.38243 3.38248 2.57618 2.76425 2.93833L3.01698 3.36976C3.55879 3.05237 4.17627 2.88243 4.81806 2.88243V2.38243ZM5.36349 2.38243H4.81806V2.88243H5.36349V2.38243ZM5.11349 2.08699V2.63243H5.61349V2.08699H5.11349ZM6.99981 0.200684C5.95802 0.200684 5.11349 1.04521 5.11349 2.08699H5.61349C5.61349 1.32136 6.23417 0.700684 6.99981 0.700684V0.200684ZM8.88612 2.08699C8.88612 1.04521 8.04159 0.200684 6.99981 0.200684V0.700684C7.76544 0.700684 8.38612 1.32136 8.38612 2.08699H8.88612ZM8.88612 2.63243V2.08699H8.38612V2.63243H8.88612ZM17.3631 2.38243H8.63612V2.88243H17.3631V2.38243ZM17.1131 2.08699V2.63243H17.6131V2.08699H17.1131ZM18.9994 0.200684C17.9576 0.200684 17.1131 1.04521 17.1131 2.08699H17.6131C17.6131 1.32136 18.2338 0.700684 18.9994 0.700684V0.200684ZM20.8857 2.08699C20.8857 1.04521 20.0412 0.200684 18.9994 0.200684V0.700684C19.7651 0.700684 20.3857 1.32136 20.3857 2.08699H20.8857ZM20.8857 2.63243V2.08699H20.3857V2.63243H20.8857ZM18.704 2.08698C18.704 1.92382 18.8363 1.79155 18.9994 1.79155V1.29155C18.5601 1.29155 18.204 1.64768 18.204 2.08698H18.704ZM18.704 3.17786V2.08698H18.204V3.17786H18.704ZM18.9994 3.47329C18.8363 3.47329 18.704 3.34102 18.704 3.17786H18.204C18.204 3.61717 18.5601 3.97329 18.9994 3.97329V3.47329ZM19.2949 3.17786C19.2949 3.34102 19.1626 3.47329 18.9994 3.47329V3.97329C19.4387 3.97329 19.7949 3.61717 19.7949 3.17786H19.2949ZM19.2949 2.08698V3.17786H19.7949V2.08698H19.2949ZM18.9994 1.79155C19.1626 1.79155 19.2949 1.92382 19.2949 2.08698H19.7949C19.7949 1.64768 19.4387 1.29155 18.9994 1.29155V1.79155ZM6.70438 2.08729C6.70438 1.92413 6.83665 1.79186 6.99981 1.79186V1.29186C6.56051 1.29186 6.20438 1.64799 6.20438 2.08729H6.70438ZM6.70438 3.17817V2.08729H6.20438V3.17817H6.70438ZM6.99981 3.4736C6.83665 3.4736 6.70438 3.34133 6.70438 3.17817H6.20438C6.20438 3.61747 6.56051 3.9736 6.99981 3.9736V3.4736ZM7.29525 3.17817C7.29525 3.34133 7.16298 3.4736 6.99981 3.4736V3.9736C7.43912 3.9736 7.79525 3.61747 7.79525 3.17817H7.29525ZM7.29525 2.08729V3.17817H7.79525V2.08729H7.29525ZM6.99981 1.79186C7.16298 1.79186 7.29525 1.92413 7.29525 2.08729H7.79525C7.79525 1.64799 7.43912 1.29186 6.99981 1.29186V1.79186ZM20.3069 3.64098C20.1165 4.17976 19.6026 4.56517 18.9994 4.56517V5.06517C19.8211 5.06517 20.5195 4.5399 20.7783 3.8076L20.3069 3.64098ZM21.1812 3.47429H20.5426V3.97429H21.1812V3.47429ZM22.6836 3.88058C22.2314 3.61571 21.7168 3.47429 21.1812 3.47429V3.97429C21.6279 3.97429 22.0552 4.09197 22.4309 4.31201L22.6836 3.88058ZM23.7521 4.94905C23.4936 4.50788 23.1248 4.13902 22.6836 3.88058L22.4309 4.31201C22.7981 4.52716 23.1055 4.83449 23.3206 5.20177L23.7521 4.94905ZM24.1583 6.44916C24.1579 5.9143 24.0165 5.40056 23.7521 4.94905L23.3206 5.20177C23.5403 5.57687 23.658 6.00353 23.6583 6.44954L24.1583 6.44916ZM24.1584 13.0081C24.1441 10.4687 24.1441 8.28322 24.1583 6.4513L23.6584 6.4474C23.6441 8.28223 23.6441 10.4701 23.6584 13.011L24.1584 13.0081ZM23.92 18.3784C24.0885 16.5042 24.1679 14.7141 24.1584 13.0081L23.6584 13.011C23.6679 14.6995 23.5892 16.4737 23.422 18.3336L23.92 18.3784ZM21.1586 21.0821C22.6184 20.9819 23.7891 19.8358 23.92 18.3784L23.422 18.3336C23.3131 19.5463 22.339 20.4999 21.1244 20.5833L21.1586 21.0821ZM13.0275 21.4478C14.8956 21.4478 17.6084 21.3257 21.1586 21.0821L21.1244 20.5833C17.5774 20.8267 14.8782 20.9478 13.0275 20.9478V21.4478ZM4.85001 21.0814C8.42924 21.3255 11.1575 21.4478 13.0275 21.4478V20.9478C11.1749 20.9478 8.46021 20.8264 4.88402 20.5826L4.85001 21.0814ZM2.08684 18.3721C2.21535 19.8323 3.38758 20.9817 4.85001 21.0814L4.88402 20.5826C3.66721 20.4996 2.69184 19.5432 2.58491 18.3283L2.08684 18.3721ZM1.84087 13.0065C1.84087 14.7207 1.92289 16.5093 2.08684 18.3721L2.58491 18.3283C2.42213 16.4787 2.34087 14.7048 2.34087 13.0065H1.84087ZM1.84087 6.45148V13.0065H2.34087V6.45148H1.84087ZM2.24716 4.94905C1.98229 5.40122 1.84087 5.91579 1.84087 6.45148H2.34087C2.34087 6.00477 2.45855 5.57741 2.67859 5.20177L2.24716 4.94905ZM3.31563 3.88058C2.87445 4.13902 2.5056 4.50787 2.24716 4.94905L2.67859 5.20177C2.89374 4.83449 3.20107 4.52716 3.56835 4.31201L3.31563 3.88058ZM4.81806 3.47429C4.28237 3.47429 3.7678 3.61571 3.31563 3.88058L3.56835 4.31201C3.94399 4.09197 4.37135 3.97429 4.81806 3.97429V3.47429ZM5.4566 3.47429H4.81806V3.97429H5.4566V3.47429ZM6.9998 4.56517C6.39658 4.56517 5.88274 4.17976 5.69231 3.64098L5.22089 3.8076C5.47972 4.5399 6.1781 5.06517 6.9998 5.06517V4.56517ZM8.30729 3.64098C8.11686 4.17976 7.60302 4.56517 6.9998 4.56517V5.06517C7.8215 5.06517 8.51988 4.5399 8.77871 3.8076L8.30729 3.64098ZM17.4562 3.47429H8.543V3.97429H17.4562V3.47429ZM18.9994 4.56517C18.3962 4.56517 17.8824 4.17976 17.6919 3.64098L17.2205 3.8076C17.4793 4.5399 18.1777 5.06517 18.9994 5.06517V4.56517ZM5.90892 7.24512H20.0903V6.74512H5.90892V7.24512ZM4.52261 8.63143C4.52261 7.86579 5.14329 7.24512 5.90892 7.24512V6.74512C4.86714 6.74512 4.02261 7.58965 4.02261 8.63143H4.52261ZM4.52261 17.3584V8.63143H4.02261V17.3584H4.52261ZM5.90892 18.7447C5.14329 18.7447 4.52261 18.1241 4.52261 17.3584H4.02261C4.02261 18.4002 4.86714 19.2447 5.90892 19.2447V18.7447ZM20.0903 18.7447H5.90892V19.2447H20.0903V18.7447ZM21.4766 17.3584C21.4766 18.1241 20.8559 18.7447 20.0903 18.7447V19.2447C21.1321 19.2447 21.9766 18.4002 21.9766 17.3584H21.4766ZM21.4766 8.63143V17.3584H21.9766V8.63143H21.4766ZM20.0903 7.24512C20.8559 7.24512 21.4766 7.86579 21.4766 8.63143H21.9766C21.9766 7.58965 21.1321 6.74512 20.0903 6.74512V7.24512ZM5.90893 7.83643C5.46962 7.83643 5.11349 8.19255 5.11349 8.63186H5.61349C5.61349 8.4687 5.74577 8.33643 5.90893 8.33643V7.83643ZM9.72697 7.83643H5.90893V8.33643H9.72697V7.83643ZM9.97697 12.4501V8.08643H9.47697V12.4501H9.97697ZM5.36349 12.7001H9.72697V12.2001H5.36349V12.7001ZM5.11349 8.63186V12.4501H5.61349V8.63186H5.11349ZM10.5678 8.08643V12.4501H11.0678V8.08643H10.5678ZM15.1813 7.83643H10.8178V8.33643H15.1813V7.83643ZM15.4313 12.4501V8.08643H14.9313V12.4501H15.4313ZM10.8178 12.7001H15.1813V12.2001H10.8178V12.7001ZM16.0222 8.08643V12.4501H16.5222V8.08643H16.0222ZM20.0903 7.83643H16.2722V8.33643H20.0903V7.83643ZM20.8857 8.63186C20.8857 8.19255 20.5296 7.83643 20.0903 7.83643V8.33643C20.2535 8.33643 20.3857 8.4687 20.3857 8.63186H20.8857ZM20.8857 12.4501L20.8857 8.63186L20.3857 8.63186L20.3857 12.4501L20.8857 12.4501ZM16.2722 12.7001H20.6357V12.2001H16.2722V12.7001ZM20.6357 13.291H16.2722V13.791H20.6357V13.291ZM20.8857 17.3589L20.8857 13.541L20.3857 13.541L20.3857 17.3589H20.8857ZM20.0903 18.1543C20.5296 18.1543 20.8857 17.7982 20.8857 17.3589H20.3857C20.3857 17.522 20.2535 17.6543 20.0903 17.6543V18.1543ZM16.2722 18.1543H20.0903V17.6543H16.2722V18.1543ZM16.0222 13.541V17.9043H16.5222V13.541H16.0222ZM15.4313 17.9043V13.541H14.9313V17.9043H15.4313ZM10.8178 18.1543H15.1813V17.6543H10.8178V18.1543ZM10.5678 13.541V17.9043H11.0678V13.541H10.5678ZM15.1813 13.291H10.8178V13.791H15.1813V13.291ZM9.97697 17.9043V13.541H9.47697V17.9043H9.97697ZM5.90893 18.1543H9.72697V17.6543H5.90893V18.1543ZM5.11349 17.3589C5.11349 17.7982 5.46962 18.1543 5.90893 18.1543V17.6543C5.74577 17.6543 5.61349 17.522 5.61349 17.3589H5.11349ZM5.11349 13.541V17.3589H5.61349V13.541H5.11349ZM9.72697 13.291H5.36349V13.791H9.72697V13.291Z" fill="#9997B1"/>
</svg>
