<svg width="22" height="22" viewBox="0 0 22 22" fill="none" xmlns="http://www.w3.org/2000/svg">
<path fill-rule="evenodd" clip-rule="evenodd" d="M18.5237 1.33946C16.5415 1.11301 14.0307 1.00028 10.9883 1.00028L9.12146 1C8.08587 1.00023 7.24661 1.83988 7.24684 2.8754L7.24769 4.12567C7.24793 5.16074 8.08731 5.99994 9.12267 5.99994L19.1344 6.00022C20.1699 6.00022 21.0094 5.16077 21.0094 4.12525C21.0094 2.69982 19.9399 1.50124 18.5237 1.33946ZM5.97312 2.7818C5.76999 1.7664 4.78218 1.10791 3.76678 1.31104L3.69982 1.32443C2.50666 1.56312 1.57269 2.49354 1.32946 3.68578L1.31636 3.74996C1.2912 3.8733 1.27852 3.99887 1.27852 4.12476C1.27852 5.16028 2.11798 5.99973 3.1535 5.99973H4.13457C5.17009 5.99973 6.00955 5.16028 6.00955 4.12476V3.14959C6.00955 3.02609 5.99734 2.9029 5.97312 2.7818ZM2.54113 4.00001L2.55422 3.93583C2.69694 3.23628 3.24494 2.69037 3.94503 2.55032L4.01198 2.53692C4.35045 2.46922 4.67972 2.68871 4.74743 3.02718C4.7555 3.06754 4.75957 3.10861 4.75957 3.14977V4.12494C4.75957 4.47011 4.47975 4.74993 4.13458 4.74993H3.15351C2.80833 4.74993 2.52852 4.47011 2.52852 4.12494C2.52852 4.08298 2.53274 4.04112 2.54113 4.00001ZM9.13103 9.75042C8.78668 9.75042 8.5072 10.029 8.50604 10.3733L8.50187 11.6223C8.50186 11.9706 8.78168 12.2504 9.12685 12.2504H19.1344C19.4796 12.2504 19.7594 11.9706 19.7594 11.6254V10.3754C19.7594 10.0302 19.4796 9.75042 19.1344 9.75042H9.13103ZM19.1344 8.50042H9.13103C8.09796 8.50042 7.25952 9.33606 7.25607 10.3691L7.25188 11.6243C7.25188 12.6609 8.09133 13.5004 9.12685 13.5004H19.1344C20.1699 13.5004 21.0094 12.6609 21.0094 11.6254V10.3754C21.0094 9.33988 20.1699 8.50042 19.1344 8.50042ZM2.25612 10.3733L2.25194 11.6223C2.25194 11.9706 2.53176 12.2504 2.87693 12.2504H4.13457C4.47975 12.2504 4.75957 11.9706 4.75957 11.6254V10.3754C4.75957 10.0302 4.47975 9.75042 4.13457 9.75042H2.88111C2.53675 9.75042 2.25727 10.029 2.25612 10.3733ZM6.00955 10.3754C6.00955 9.33988 5.1701 8.50042 4.13458 8.50042H2.88111C1.84804 8.50042 1.0096 9.33606 1.00614 10.3691L1.00195 11.6243C1.00195 12.6609 1.84141 13.5004 2.87693 13.5004H4.13458C5.1701 13.5004 6.00955 12.6609 6.00955 11.6254V10.3754ZM3.03384 17.2617C2.69511 17.3281 2.47433 17.6565 2.54072 17.9952L2.61947 18.397C2.71692 18.8943 3.10493 19.2835 3.60187 19.3825L4.01245 19.4643C4.05267 19.4723 4.09357 19.4764 4.13458 19.4764C4.47975 19.4764 4.75957 19.1966 4.75957 18.8514V17.875C4.75957 17.5299 4.47975 17.25 4.13458 17.25H3.15405C3.1137 17.25 3.07344 17.2539 3.03384 17.2617ZM6.00955 17.8754C6.00955 16.8399 5.17009 16.0004 4.13457 16.0004H3.15404C3.03299 16.0004 2.91222 16.0122 2.79343 16.0354C1.77724 16.2346 1.11491 17.2198 1.31407 18.236L1.39282 18.6378C1.58773 19.6323 2.36373 20.4108 3.35761 20.6088L3.76819 20.6906C3.88884 20.7146 4.01156 20.7268 4.13457 20.7268C5.17009 20.7268 6.00955 19.8873 6.00955 18.8518V17.8754ZM8.49682 2.8743L8.49767 4.12457C8.49775 4.46969 8.77754 4.74942 9.12268 4.74942L19.1344 4.74971C19.4796 4.74971 19.7594 4.46989 19.7594 4.12471C19.7594 3.33474 19.1667 2.67049 18.3818 2.58083C16.4526 2.36043 13.987 2.24974 10.9883 2.24974H9.12181C8.76934 2.25675 8.49674 2.53386 8.49682 2.8743ZM10.9883 19.75C13.987 19.75 16.4526 19.6393 18.3818 19.4189C19.1667 19.3292 19.7594 18.665 19.7594 17.875C19.7594 17.5299 19.4796 17.25 19.1344 17.25L9.12266 17.2503C8.77754 17.2503 8.49775 17.53 8.49767 17.8755L8.49682 19.1252C8.49674 19.4659 8.76935 19.743 9.10833 19.7501L10.9883 19.75ZM7.24769 17.8753L7.24684 19.125C7.24661 20.1608 8.08587 21.0004 9.14083 21.0004H10.9883C14.0307 21.0004 16.5415 20.8876 18.5237 20.6612C19.9399 20.4994 21.0094 19.3008 21.0094 17.8754C21.0094 16.8399 20.1699 16.0004 19.1344 16.0004L9.12265 16.0007C8.08731 16.0007 7.24793 16.8399 7.24769 17.8753Z" fill="#9997B1"/>
<path d="M10.9883 1.00028L10.9882 1.25028H10.9883V1.00028ZM18.5237 1.33946L18.4953 1.58784L18.4953 1.58784L18.5237 1.33946ZM9.12146 1L9.1215 0.75L9.12141 0.75L9.12146 1ZM7.24684 2.8754L6.99684 2.87546V2.87557L7.24684 2.8754ZM7.24769 4.12567L7.49769 4.12561V4.1255L7.24769 4.12567ZM9.12267 5.99994L9.12268 5.74994H9.12267V5.99994ZM19.1344 6.00022L19.1344 6.25022H19.1344V6.00022ZM3.76678 1.31104L3.81582 1.55618H3.81582L3.76678 1.31104ZM5.97312 2.7818L5.72798 2.83084V2.83084L5.97312 2.7818ZM3.69982 1.32443L3.65078 1.07929L3.65078 1.07929L3.69982 1.32443ZM1.32946 3.68578L1.57441 3.73575L1.32946 3.68578ZM1.31636 3.74996L1.07141 3.69998L1.07141 3.69998L1.31636 3.74996ZM2.55422 3.93583L2.79918 3.9858V3.9858L2.55422 3.93583ZM2.54113 4.00001L2.29618 3.95003L2.29618 3.95003L2.54113 4.00001ZM3.94503 2.55032L3.99407 2.79546H3.99407L3.94503 2.55032ZM4.01198 2.53692L3.96294 2.29178H3.96294L4.01198 2.53692ZM4.74743 3.02718L4.50229 3.07622L4.50229 3.07622L4.74743 3.02718ZM8.50604 10.3733L8.75604 10.3742L8.50604 10.3733ZM8.50187 11.6223L8.25187 11.6214V11.6223L8.50187 11.6223ZM7.25607 10.3691L7.00607 10.3683V10.3683L7.25607 10.3691ZM7.25188 11.6243L7.00188 11.6235V11.6243H7.25188ZM2.25194 11.6223L2.00194 11.6214V11.6223L2.25194 11.6223ZM2.25612 10.3733L2.50612 10.3742L2.25612 10.3733ZM1.00614 10.3691L0.756146 10.3683V10.3683L1.00614 10.3691ZM1.00195 11.6243L0.751953 11.6235V11.6243H1.00195ZM2.54072 17.9952L2.78605 17.9471L2.54072 17.9952ZM3.03384 17.2617L2.98577 17.0164L2.98576 17.0164L3.03384 17.2617ZM2.61947 18.397L2.37414 18.4451L2.61947 18.397ZM3.60187 19.3825L3.55302 19.6277H3.55302L3.60187 19.3825ZM4.01245 19.4643L3.9636 19.7095L3.96361 19.7095L4.01245 19.4643ZM2.79343 16.0354L2.74535 15.7901H2.74535L2.79343 16.0354ZM1.31407 18.236L1.06874 18.2841H1.06874L1.31407 18.236ZM1.39282 18.6378L1.63815 18.5898L1.39282 18.6378ZM3.35761 20.6088L3.40646 20.3636L3.35761 20.6088ZM3.76819 20.6906L3.81705 20.4454H3.81704L3.76819 20.6906ZM8.49767 4.12457L8.74767 4.12452V4.1244L8.49767 4.12457ZM8.49682 2.8743L8.24682 2.87436V2.87447L8.49682 2.8743ZM9.12268 4.74942L9.12269 4.49942H9.12268V4.74942ZM19.1344 4.74971L19.1344 4.99971H19.1344V4.74971ZM18.3818 2.58083L18.3534 2.82922L18.3535 2.82922L18.3818 2.58083ZM9.12181 2.24974V1.99969L9.11684 1.99979L9.12181 2.24974ZM18.3818 19.4189L18.3535 19.1705H18.3535L18.3818 19.4189ZM10.9883 19.75V19.5H10.9883L10.9883 19.75ZM19.1344 17.25V17H19.1344L19.1344 17.25ZM9.12266 17.2503V17.5003H9.12267L9.12266 17.2503ZM8.49767 17.8755L8.74767 17.8756V17.8755L8.49767 17.8755ZM8.49682 19.1252L8.24682 19.125V19.1251L8.49682 19.1252ZM9.10833 19.7501L9.10307 20.0001H9.10835L9.10833 19.7501ZM7.24684 19.125L6.99684 19.1248V19.1249L7.24684 19.125ZM7.24769 17.8753L7.49769 17.8754V17.8753L7.24769 17.8753ZM9.14083 21.0004V20.7504H9.14082L9.14083 21.0004ZM18.5237 20.6612L18.4953 20.4128H18.4953L18.5237 20.6612ZM19.1344 16.0004V15.7504H19.1344L19.1344 16.0004ZM9.12265 16.0007V16.2507H9.12266L9.12265 16.0007ZM10.9883 1.25028C14.0257 1.25028 16.5261 1.36287 18.4953 1.58784L18.5521 1.09107C16.5569 0.863144 14.0358 0.750284 10.9883 0.750284V1.25028ZM9.12143 1.25L10.9882 1.25028L10.9883 0.750284L9.1215 0.75L9.12143 1.25ZM7.49684 2.87535C7.49664 1.9779 8.22399 1.2502 9.12152 1.25L9.12141 0.75C7.94775 0.750266 6.99657 1.70186 6.99684 2.87546L7.49684 2.87535ZM7.49769 4.1255L7.49684 2.87523L6.99684 2.87557L6.99769 4.12584L7.49769 4.1255ZM9.12267 5.74994C8.22534 5.74994 7.4979 5.02261 7.49769 4.12561L6.99769 4.12573C6.99796 5.29887 7.94929 6.24994 9.12267 6.24994V5.74994ZM19.1344 5.75022L9.12268 5.74994L9.12266 6.24994L19.1344 6.25022L19.1344 5.75022ZM20.7594 4.12525C20.7594 5.02269 20.0318 5.75022 19.1344 5.75022V6.25022C20.308 6.25022 21.2594 5.29884 21.2594 4.12525H20.7594ZM18.4953 1.58784C19.7853 1.7352 20.7594 2.82691 20.7594 4.12525H21.2594C21.2594 2.57273 20.0946 1.26728 18.5521 1.09107L18.4953 1.58784ZM3.81582 1.55618C4.69583 1.38014 5.55193 1.95082 5.72798 2.83084L6.21826 2.73276C5.98805 1.58197 4.86853 0.835687 3.71774 1.0659L3.81582 1.55618ZM3.74886 1.56958L3.81582 1.55618L3.71774 1.0659L3.65078 1.07929L3.74886 1.56958ZM1.57441 3.73575C1.79754 2.64205 2.65432 1.78853 3.74886 1.56958L3.65078 1.07929C2.35901 1.3377 1.34784 2.34502 1.0845 3.6358L1.57441 3.73575ZM1.56132 3.79993L1.57441 3.73575L1.0845 3.6358L1.07141 3.69998L1.56132 3.79993ZM1.52852 4.12476C1.52852 4.01566 1.53951 3.90683 1.56132 3.79993L1.07141 3.69998C1.04289 3.83978 1.02852 3.98208 1.02852 4.12476H1.52852ZM3.1535 5.74973C2.25605 5.74973 1.52852 5.02221 1.52852 4.12476H1.02852C1.02852 5.29835 1.9799 6.24973 3.1535 6.24973V5.74973ZM4.13457 5.74973H3.1535V6.24973H4.13457V5.74973ZM5.75955 4.12476C5.75955 5.02221 5.03202 5.74973 4.13457 5.74973V6.24973C5.30816 6.24973 6.25955 5.29835 6.25955 4.12476H5.75955ZM5.75955 3.14959V4.12476H6.25955V3.14959H5.75955ZM5.72798 2.83084C5.74897 2.93579 5.75955 3.04256 5.75955 3.14959H6.25955C6.25955 3.00963 6.24572 2.87 6.21826 2.73276L5.72798 2.83084ZM2.30927 3.88585L2.29618 3.95003L2.78608 4.04998L2.79918 3.9858L2.30927 3.88585ZM3.89599 2.30517C3.09729 2.46495 2.47209 3.08777 2.30927 3.88585L2.79918 3.9858C2.92179 3.3848 3.3926 2.91578 3.99407 2.79546L3.89599 2.30517ZM3.96294 2.29178L3.89599 2.30517L3.99407 2.79546L4.06102 2.78207L3.96294 2.29178ZM4.99257 2.97814C4.89778 2.50428 4.4368 2.19699 3.96294 2.29178L4.06102 2.78207C4.2641 2.74144 4.46166 2.87314 4.50229 3.07622L4.99257 2.97814ZM5.00957 3.14977C5.00957 3.09214 5.00388 3.03465 4.99257 2.97814L4.50229 3.07622C4.50713 3.10044 4.50957 3.12507 4.50957 3.14977H5.00957ZM5.00957 4.12494V3.14977H4.50957V4.12494H5.00957ZM4.13458 4.99993C4.61782 4.99993 5.00957 4.60819 5.00957 4.12494H4.50957C4.50957 4.33204 4.34168 4.49993 4.13458 4.49993V4.99993ZM3.15351 4.99993H4.13458V4.49993H3.15351V4.99993ZM2.27852 4.12494C2.27852 4.60819 2.67026 4.99993 3.15351 4.99993V4.49993C2.94641 4.49993 2.77852 4.33204 2.77852 4.12494H2.27852ZM2.29618 3.95003C2.28443 4.0076 2.27852 4.06619 2.27852 4.12494H2.77852C2.77852 4.09976 2.78105 4.07465 2.78608 4.04998L2.29618 3.95003ZM8.75604 10.3742C8.75673 10.1676 8.92442 10.0004 9.13103 10.0004V9.50042C8.64893 9.50042 8.25766 9.89039 8.25605 10.3725L8.75604 10.3742ZM8.75186 11.6231L8.75604 10.3742L8.25605 10.3725L8.25187 11.6214L8.75186 11.6231ZM9.12685 12.0004C8.92056 12.0004 8.75186 11.8333 8.75187 11.6223L8.25187 11.6223C8.25186 12.1078 8.64279 12.5004 9.12685 12.5004V12.0004ZM19.1344 12.0004H9.12685V12.5004H19.1344V12.0004ZM19.5094 11.6254C19.5094 11.8325 19.3415 12.0004 19.1344 12.0004V12.5004C19.6176 12.5004 20.0094 12.1086 20.0094 11.6254H19.5094ZM19.5094 10.3754V11.6254H20.0094V10.3754H19.5094ZM19.1344 10.0004C19.3415 10.0004 19.5094 10.1683 19.5094 10.3754H20.0094C20.0094 9.89217 19.6176 9.50042 19.1344 9.50042V10.0004ZM9.13103 10.0004H19.1344V9.50042H9.13103V10.0004ZM9.13103 8.75042H19.1344V8.25042H9.13103V8.75042ZM7.50607 10.37C7.50906 9.47464 8.23571 8.75042 9.13103 8.75042V8.25042C7.96022 8.25042 7.00999 9.19748 7.00607 10.3683L7.50607 10.37ZM7.50188 11.6252L7.50607 10.37L7.00607 10.3683L7.00188 11.6235L7.50188 11.6252ZM9.12685 13.2504C8.22949 13.2504 7.50188 12.5229 7.50188 11.6243H7.00188C7.00188 12.7989 7.95317 13.7504 9.12685 13.7504V13.2504ZM19.1344 13.2504H9.12685V13.7504H19.1344V13.2504ZM20.7594 11.6254C20.7594 12.5228 20.0318 13.2504 19.1344 13.2504V13.7504C20.308 13.7504 21.2594 12.799 21.2594 11.6254H20.7594ZM20.7594 10.3754V11.6254H21.2594V10.3754H20.7594ZM19.1344 8.75042C20.0318 8.75042 20.7594 9.47795 20.7594 10.3754H21.2594C21.2594 9.20181 20.308 8.25042 19.1344 8.25042V8.75042ZM2.50194 11.6231L2.50612 10.3742L2.00612 10.3725L2.00194 11.6214L2.50194 11.6231ZM2.87693 12.0004C2.67064 12.0004 2.50194 11.8333 2.50194 11.6223L2.00194 11.6223C2.00193 12.1078 2.39287 12.5004 2.87693 12.5004V12.0004ZM4.13457 12.0004H2.87693V12.5004H4.13457V12.0004ZM4.50957 11.6254C4.50957 11.8325 4.34168 12.0004 4.13457 12.0004V12.5004C4.61782 12.5004 5.00957 12.1086 5.00957 11.6254H4.50957ZM4.50957 10.3754V11.6254H5.00957V10.3754H4.50957ZM4.13457 10.0004C4.34168 10.0004 4.50957 10.1683 4.50957 10.3754H5.00957C5.00957 9.89217 4.61782 9.50042 4.13457 9.50042V10.0004ZM2.88111 10.0004H4.13457V9.50042H2.88111V10.0004ZM2.50612 10.3742C2.50681 10.1676 2.6745 10.0004 2.88111 10.0004V9.50042C2.39901 9.50042 2.00774 9.89039 2.00612 10.3725L2.50612 10.3742ZM4.13458 8.75042C5.03203 8.75042 5.75955 9.47795 5.75955 10.3754H6.25955C6.25955 9.20181 5.30817 8.25042 4.13458 8.25042V8.75042ZM2.88111 8.75042H4.13458V8.25042H2.88111V8.75042ZM1.25614 10.37C1.25914 9.47464 1.98578 8.75042 2.88111 8.75042V8.25042C1.71029 8.25042 0.760062 9.19748 0.756146 10.3683L1.25614 10.37ZM1.25195 11.6252L1.25614 10.37L0.756146 10.3683L0.751955 11.6235L1.25195 11.6252ZM2.87693 13.2504C1.97957 13.2504 1.25195 12.5229 1.25195 11.6243H0.751953C0.751953 12.7989 1.70325 13.7504 2.87693 13.7504V13.2504ZM4.13458 13.2504H2.87693V13.7504H4.13458V13.2504ZM5.75955 11.6254C5.75955 12.5228 5.03203 13.2504 4.13458 13.2504V13.7504C5.30817 13.7504 6.25955 12.799 6.25955 11.6254H5.75955ZM5.75955 10.3754V11.6254H6.25955V10.3754H5.75955ZM2.78605 17.9471C2.74622 17.7439 2.87869 17.5469 3.08192 17.507L2.98576 17.0164C2.51154 17.1093 2.20245 17.5691 2.29539 18.0433L2.78605 17.9471ZM2.8648 18.349L2.78605 17.9471L2.29539 18.0433L2.37414 18.4451L2.8648 18.349ZM3.65072 19.1373C3.25317 19.0581 2.94277 18.7468 2.8648 18.349L2.37414 18.4451C2.49108 19.0418 2.95669 19.5089 3.55302 19.6277L3.65072 19.1373ZM4.0613 19.2192L3.65072 19.1373L3.55302 19.6277L3.9636 19.7095L4.0613 19.2192ZM4.13458 19.2264C4.10998 19.2264 4.08543 19.224 4.06129 19.2192L3.96361 19.7095C4.0199 19.7207 4.07717 19.7264 4.13458 19.7264V19.2264ZM4.50957 18.8514C4.50957 19.0585 4.34168 19.2264 4.13458 19.2264V19.7264C4.61782 19.7264 5.00957 19.3346 5.00957 18.8514H4.50957ZM4.50957 17.875V18.8514H5.00957V17.875H4.50957ZM4.13458 17.5C4.34168 17.5 4.50957 17.6679 4.50957 17.875H5.00957C5.00957 17.3918 4.61782 17 4.13458 17V17.5ZM3.15405 17.5H4.13458V17H3.15405V17.5ZM3.08192 17.507C3.10568 17.5024 3.12984 17.5 3.15405 17.5V17C3.09755 17 3.0412 17.0055 2.98577 17.0164L3.08192 17.507ZM4.13457 16.2504C5.03202 16.2504 5.75955 16.978 5.75955 17.8754H6.25955C6.25955 16.7018 5.30816 15.7504 4.13457 15.7504V16.2504ZM3.15404 16.2504H4.13457V15.7504H3.15404V16.2504ZM2.84151 16.2808C2.94447 16.2606 3.04913 16.2504 3.15404 16.2504V15.7504C3.01685 15.7504 2.87998 15.7637 2.74535 15.7901L2.84151 16.2808ZM1.5594 18.1879C1.3868 17.3072 1.96082 16.4534 2.84151 16.2808L2.74535 15.7901C1.59367 16.0158 0.843022 17.1324 1.06874 18.2841L1.5594 18.1879ZM1.63815 18.5898L1.5594 18.1879L1.06874 18.2841L1.14749 18.6859L1.63815 18.5898ZM3.40646 20.3636C2.51197 20.1854 1.81357 19.4848 1.63815 18.5898L1.14749 18.6859C1.36188 19.7799 2.21549 20.6362 3.30876 20.854L3.40646 20.3636ZM3.81704 20.4454L3.40646 20.3636L3.30876 20.854L3.71934 20.9358L3.81704 20.4454ZM4.13457 20.4768C4.02796 20.4768 3.9216 20.4663 3.81705 20.4454L3.71934 20.9358C3.85607 20.963 3.99515 20.9768 4.13457 20.9768V20.4768ZM5.75955 18.8518C5.75955 19.7492 5.03202 20.4768 4.13457 20.4768V20.9768C5.30816 20.9768 6.25955 20.0254 6.25955 18.8518H5.75955ZM5.75955 17.8754V18.8518H6.25955V17.8754H5.75955ZM8.74767 4.1244L8.74682 2.87413L8.24682 2.87447L8.24767 4.12474L8.74767 4.1244ZM9.12268 4.49942C8.91559 4.49942 8.74772 4.33158 8.74767 4.12452L8.24767 4.12463C8.24778 4.6078 8.6395 4.99942 9.12268 4.99942V4.49942ZM19.1344 4.49971L9.12269 4.49942L9.12267 4.99942L19.1344 4.99971L19.1344 4.49971ZM19.5094 4.12471C19.5094 4.33182 19.3415 4.49971 19.1344 4.49971V4.99971C19.6176 4.99971 20.0094 4.60796 20.0094 4.12471H19.5094ZM18.3535 2.82922C19.012 2.90445 19.5094 3.46184 19.5094 4.12471H20.0094C20.0094 3.20765 19.3213 2.43653 18.4102 2.33245L18.3535 2.82922ZM10.9883 2.49974C13.982 2.49974 16.4372 2.6103 18.3534 2.82922L18.4102 2.33245C16.4679 2.11056 13.992 1.99974 10.9883 1.99974V2.49974ZM9.12181 2.49974H10.9883V1.99974H9.12181V2.49974ZM8.74682 2.87425C8.74677 2.67358 8.90679 2.50407 9.12679 2.49969L9.11684 1.99979C8.63189 2.00944 8.24671 2.39413 8.24682 2.87436L8.74682 2.87425ZM18.3535 19.1705C16.4372 19.3894 13.982 19.5 10.9883 19.5V20C13.992 20 16.4679 19.8892 18.4102 19.6673L18.3535 19.1705ZM19.5094 17.875C19.5094 18.5379 19.012 19.0953 18.3535 19.1705L18.4102 19.6673C19.3213 19.5632 20.0094 18.7921 20.0094 17.875H19.5094ZM19.1344 17.5C19.3415 17.5 19.5094 17.6679 19.5094 17.875H20.0094C20.0094 17.3918 19.6176 17 19.1344 17V17.5ZM9.12267 17.5003L19.1344 17.5L19.1344 17L9.12265 17.0003L9.12267 17.5003ZM8.74767 17.8755C8.74772 17.6681 8.91567 17.5003 9.12266 17.5003V17.0003C8.63942 17.0003 8.24778 17.392 8.24767 17.8754L8.74767 17.8755ZM8.74682 19.1253L8.74767 17.8756L8.24767 17.8753L8.24682 19.125L8.74682 19.1253ZM9.1136 19.5002C8.91036 19.4959 8.74677 19.3296 8.74682 19.1252L8.24682 19.1251C8.24671 19.6021 8.62835 19.9901 9.10307 20.0001L9.1136 19.5002ZM10.9883 19.5L9.10831 19.5001L9.10835 20.0001L10.9883 20L10.9883 19.5ZM7.49684 19.1251L7.49769 17.8754L6.99769 17.8751L6.99684 19.1248L7.49684 19.1251ZM9.14082 20.7504C8.22234 20.7504 7.49664 20.0211 7.49684 19.125L6.99684 19.1249C6.99657 20.3004 7.94941 21.2504 9.14084 21.2504L9.14082 20.7504ZM10.9883 20.7504H9.14083V21.2504H10.9883V20.7504ZM18.4953 20.4128C16.5261 20.6378 14.0257 20.7504 10.9883 20.7504V21.2504C14.0358 21.2504 16.5569 21.1375 18.5521 20.9096L18.4953 20.4128ZM20.7594 17.8754C20.7594 19.1737 19.7853 20.2655 18.4953 20.4128L18.5521 20.9096C20.0946 20.7334 21.2594 19.4279 21.2594 17.8754H20.7594ZM19.1344 16.2504C20.0318 16.2504 20.7594 16.978 20.7594 17.8754H21.2594C21.2594 16.7018 20.308 15.7504 19.1344 15.7504V16.2504ZM9.12266 16.2507L19.1344 16.2504L19.1344 15.7504L9.12264 15.7507L9.12266 16.2507ZM7.49769 17.8753C7.4979 16.978 8.22536 16.2507 9.12265 16.2507V15.7507C7.94926 15.7507 6.99796 16.7018 6.99769 17.8752L7.49769 17.8753Z" fill="#9997B1"/>
</svg>
