<svg width="154" height="30" viewBox="0 0 154 30" fill="none" xmlns="http://www.w3.org/2000/svg">
<path d="M14.999 10.9874C16.7958 10.9456 18.3837 12.0739 18.9269 13.7035C19.1776 14.4557 19.8462 14.9989 20.6401 14.9989H20.8073C22.0191 14.9989 22.8966 13.7871 22.5205 12.6589C21.4341 9.27419 18.0912 6.89238 14.2469 7.31025C10.695 7.72811 7.85358 10.5696 7.43572 14.1214C7.01786 17.9239 9.3161 21.225 12.659 22.3532C13.829 22.7293 15.0408 21.8936 15.0408 20.64V20.4729C15.0408 19.6789 14.5394 19.0103 13.7872 18.7596C12.1993 18.1746 11.0711 16.6285 11.1547 14.8735C11.1965 12.7842 12.9515 11.071 14.999 10.9874Z" fill="#05D2DD"/>
<path d="M28.1202 18.6343C27.0756 18.6343 26.2398 19.47 26.2398 20.5147V23.0636V24.4425C26.2398 25.4036 25.4459 26.1976 24.4848 26.1976H20.5151C19.4705 26.1976 18.6348 27.0333 18.6348 28.0779C18.6348 29.1226 19.4705 29.9583 20.5151 29.9583H24.6937C27.6188 29.9583 30.0006 27.5765 30.0006 24.6515V23.0636V20.5147C30.0006 19.5118 29.1649 18.6343 28.1202 18.6343Z" fill="#8F68FC"/>
<path d="M14.9988 26.2393C8.35481 26.2393 3.04798 20.4728 3.80013 13.7034C4.38514 8.56374 8.52196 4.38514 13.7034 3.80013C20.4728 3.04798 26.2393 8.31303 26.2393 14.957V14.9988C26.2393 16.0434 27.075 16.8792 28.1196 16.8792C29.1643 16.8792 30 16.0434 30 14.9988C30 6.34908 22.6874 -0.587407 13.9124 0.0393846C6.55801 0.540817 0.540817 6.51622 0.0393846 13.9124C-0.587407 22.6874 6.34908 29.9582 14.9988 30C16.0434 30 16.8792 29.1643 16.8792 28.1196C16.8792 27.075 16.0434 26.2393 14.9988 26.2393Z" fill="#05D2DD"/>
<path d="M49.3729 24.3952C48.1471 24.3952 47.0471 24.2067 46.0729 23.8295C45.0986 23.4524 44.2736 22.9024 43.5979 22.1795C42.9221 21.441 42.4036 20.5452 42.0421 19.4924C41.6807 18.4395 41.5 17.2295 41.5 15.8624C41.5 14.4952 41.7043 13.2852 42.1129 12.2324C42.5371 11.1795 43.1107 10.2917 43.8336 9.56882C44.5564 8.83024 45.405 8.27239 46.3793 7.89524C47.3536 7.5181 48.3986 7.32953 49.5143 7.32953C50.19 7.32953 50.8029 7.38453 51.3529 7.49453C51.9029 7.58882 52.3821 7.69882 52.7907 7.82453C53.1993 7.95024 53.5371 8.08382 53.8043 8.22524C54.0714 8.36667 54.26 8.46881 54.37 8.53167L53.4979 10.9595C53.1207 10.7238 52.5786 10.5038 51.8714 10.2995C51.18 10.0795 50.4257 9.96953 49.6086 9.96953C48.9014 9.96953 48.2414 10.0952 47.6286 10.3467C47.0157 10.5824 46.4814 10.9438 46.0257 11.431C45.5857 11.9181 45.24 12.531 44.9886 13.2695C44.7371 14.0081 44.6114 14.8645 44.6114 15.8388C44.6114 16.7031 44.7057 17.4967 44.8943 18.2195C45.0986 18.9424 45.405 19.571 45.8136 20.1052C46.2221 20.6238 46.7407 21.0324 47.3693 21.331C47.9979 21.6138 48.7521 21.7552 49.6321 21.7552C50.685 21.7552 51.5414 21.6531 52.2014 21.4488C52.8614 21.2288 53.3721 21.0245 53.7336 20.836L54.535 23.2638C54.3464 23.3895 54.0871 23.5152 53.7571 23.641C53.4429 23.7667 53.0657 23.8924 52.6257 24.0181C52.1857 24.1281 51.6907 24.2145 51.1407 24.2774C50.5907 24.356 50.0014 24.3952 49.3729 24.3952Z" fill="#3A3768"/>
<path d="M67.8529 17.866C67.8529 18.8402 67.7114 19.7281 67.4286 20.5295C67.1457 21.331 66.745 22.0145 66.2264 22.5802C65.7079 23.146 65.0793 23.586 64.3407 23.9002C63.6179 24.2145 62.8164 24.3717 61.9364 24.3717C61.0564 24.3717 60.255 24.2145 59.5321 23.9002C58.8093 23.586 58.1886 23.146 57.67 22.5802C57.1514 22.0145 56.7429 21.331 56.4443 20.5295C56.1614 19.7281 56.02 18.8402 56.02 17.866C56.02 16.8917 56.1614 16.0117 56.4443 15.226C56.7429 14.4245 57.1514 13.741 57.67 13.1752C58.2043 12.6095 58.8329 12.1774 59.5557 11.8788C60.2786 11.5645 61.0721 11.4074 61.9364 11.4074C62.8007 11.4074 63.5943 11.5645 64.3171 11.8788C65.0557 12.1774 65.6843 12.6095 66.2029 13.1752C66.7214 13.741 67.1221 14.4245 67.405 15.226C67.7036 16.0117 67.8529 16.8917 67.8529 17.866ZM64.93 17.866C64.93 16.6402 64.6629 15.6738 64.1286 14.9667C63.61 14.2438 62.8793 13.8824 61.9364 13.8824C60.9936 13.8824 60.255 14.2438 59.7207 14.9667C59.2021 15.6738 58.9429 16.6402 58.9429 17.866C58.9429 19.1074 59.2021 20.0895 59.7207 20.8124C60.255 21.5352 60.9936 21.8967 61.9364 21.8967C62.8793 21.8967 63.61 21.5352 64.1286 20.8124C64.6629 20.0895 64.93 19.1074 64.93 17.866Z" fill="#3A3768"/>
<path d="M78.1926 24.3952C76.9669 24.3952 75.8669 24.2067 74.8926 23.8295C73.9183 23.4524 73.0933 22.9024 72.4176 22.1795C71.7419 21.441 71.2233 20.5452 70.8619 19.4924C70.5005 18.4395 70.3198 17.2295 70.3198 15.8624C70.3198 14.4952 70.524 13.2852 70.9326 12.2324C71.3569 11.1795 71.9305 10.2917 72.6533 9.56882C73.3762 8.83024 74.2248 8.27239 75.199 7.89524C76.1733 7.5181 77.2183 7.32953 78.334 7.32953C79.0098 7.32953 79.6226 7.38453 80.1726 7.49453C80.7226 7.58882 81.2019 7.69882 81.6105 7.82453C82.019 7.95024 82.3569 8.08382 82.624 8.22524C82.8912 8.36667 83.0798 8.46881 83.1898 8.53167L82.3176 10.9595C81.9405 10.7238 81.3983 10.5038 80.6912 10.2995C79.9998 10.0795 79.2455 9.96953 78.4283 9.96953C77.7212 9.96953 77.0612 10.0952 76.4483 10.3467C75.8355 10.5824 75.3012 10.9438 74.8455 11.431C74.4055 11.9181 74.0598 12.531 73.8083 13.2695C73.5569 14.0081 73.4312 14.8645 73.4312 15.8388C73.4312 16.7031 73.5255 17.4967 73.714 18.2195C73.9183 18.9424 74.2248 19.571 74.6333 20.1052C75.0419 20.6238 75.5605 21.0324 76.189 21.331C76.8176 21.6138 77.5719 21.7552 78.4519 21.7552C79.5048 21.7552 80.3612 21.6531 81.0212 21.4488C81.6812 21.2288 82.1919 21.0245 82.5533 20.836L83.3548 23.2638C83.1662 23.3895 82.9069 23.5152 82.5769 23.641C82.2626 23.7667 81.8855 23.8924 81.4455 24.0181C81.0055 24.1281 80.5105 24.2145 79.9605 24.2774C79.4105 24.356 78.8212 24.3952 78.1926 24.3952Z" fill="#3A3768"/>
<path d="M90.1597 22.0381C91.0397 22.0381 91.7076 21.991 92.1633 21.8967V18.7381C92.0061 18.691 91.7783 18.6438 91.4797 18.5967C91.1811 18.5495 90.8511 18.526 90.4897 18.526C90.1754 18.526 89.8533 18.5495 89.5233 18.5967C89.209 18.6438 88.9183 18.7302 88.6511 18.856C88.3997 18.9817 88.1954 19.1624 88.0383 19.3981C87.8811 19.6181 87.8026 19.901 87.8026 20.2467C87.8026 20.9224 88.0147 21.3938 88.439 21.661C88.8633 21.9124 89.4369 22.0381 90.1597 22.0381ZM89.924 11.4074C90.8669 11.4074 91.6604 11.5252 92.3047 11.761C92.949 11.9967 93.4597 12.3267 93.8369 12.751C94.2297 13.1752 94.5047 13.6938 94.6619 14.3067C94.8347 14.9038 94.9211 15.5638 94.9211 16.2867V23.7588C94.4811 23.8531 93.8133 23.9631 92.9176 24.0888C92.0376 24.2302 91.0397 24.301 89.924 24.301C89.1854 24.301 88.5097 24.2302 87.8969 24.0888C87.284 23.9474 86.7576 23.7195 86.3176 23.4052C85.8933 23.091 85.5554 22.6824 85.304 22.1795C85.0683 21.6767 84.9504 21.056 84.9504 20.3174C84.9504 19.6102 85.084 19.0131 85.3511 18.526C85.634 18.0388 86.0111 17.646 86.4826 17.3474C86.954 17.0331 87.4961 16.8131 88.109 16.6874C88.7376 16.546 89.3897 16.4752 90.0654 16.4752C90.3797 16.4752 90.7097 16.4988 91.0554 16.546C91.4011 16.5774 91.7704 16.6402 92.1633 16.7345V16.2631C92.1633 15.9331 92.124 15.6188 92.0454 15.3202C91.9669 15.0217 91.8254 14.7624 91.6211 14.5424C91.4326 14.3067 91.1733 14.126 90.8433 14.0002C90.529 13.8745 90.1283 13.8117 89.6411 13.8117C88.9811 13.8117 88.3761 13.8588 87.8261 13.9531C87.2761 14.0474 86.8283 14.1574 86.4826 14.2831L86.129 11.9731C86.4904 11.8474 87.0169 11.7217 87.7083 11.596C88.3997 11.4702 89.1383 11.4074 89.924 11.4074Z" fill="#3A3768"/>
<path d="M106.593 17.8424C106.593 16.6324 106.35 15.6738 105.863 14.9667C105.391 14.2595 104.637 13.906 103.6 13.906C103.128 13.906 102.68 13.9767 102.256 14.1181C101.848 14.2595 101.518 14.4167 101.266 14.5895V21.6845C101.47 21.7317 101.73 21.7788 102.044 21.826C102.374 21.8574 102.767 21.8731 103.223 21.8731C104.275 21.8731 105.1 21.5195 105.698 20.8124C106.295 20.0895 106.593 19.0995 106.593 17.8424ZM109.516 17.8895C109.516 18.8795 109.367 19.7752 109.068 20.5767C108.785 21.3624 108.369 22.0381 107.819 22.6038C107.285 23.1695 106.633 23.6017 105.863 23.9002C105.093 24.1988 104.22 24.3481 103.246 24.3481C102.303 24.3481 101.4 24.2774 100.535 24.136C99.6868 23.9945 98.9797 23.8374 98.414 23.6645V6.22167L101.266 5.75024V12.1381C101.596 11.9652 101.997 11.8081 102.468 11.6667C102.955 11.5252 103.49 11.4545 104.071 11.4545C104.935 11.4545 105.705 11.6117 106.381 11.926C107.073 12.2245 107.646 12.6567 108.102 13.2224C108.558 13.7881 108.903 14.4717 109.139 15.2731C109.39 16.0588 109.516 16.931 109.516 17.8895Z" fill="#3A3768"/>
<path d="M115.331 24.0417H112.479V11.7138H115.331V24.0417ZM115.638 8.10739C115.638 8.64167 115.465 9.06596 115.119 9.38024C114.773 9.69453 114.365 9.85167 113.893 9.85167C113.406 9.85167 112.99 9.69453 112.644 9.38024C112.298 9.06596 112.126 8.64167 112.126 8.10739C112.126 7.55739 112.298 7.12524 112.644 6.81096C112.99 6.49667 113.406 6.33953 113.893 6.33953C114.365 6.33953 114.773 6.49667 115.119 6.81096C115.465 7.12524 115.638 7.55739 115.638 8.10739Z" fill="#3A3768"/>
<path d="M118.97 12.1145C119.52 11.9574 120.235 11.8081 121.115 11.6667C121.995 11.5252 122.969 11.4545 124.038 11.4545C125.043 11.4545 125.884 11.596 126.56 11.8788C127.236 12.146 127.77 12.531 128.163 13.0338C128.571 13.521 128.854 14.1181 129.011 14.8252C129.184 15.5167 129.271 16.2788 129.271 17.1117V24.0417H126.418V17.5595C126.418 16.8995 126.371 16.3417 126.277 15.886C126.198 15.4145 126.057 15.0374 125.853 14.7545C125.664 14.456 125.397 14.2438 125.051 14.1181C124.721 13.9767 124.313 13.906 123.826 13.906C123.464 13.906 123.087 13.9295 122.694 13.9767C122.301 14.0238 122.011 14.0631 121.822 14.0945V24.0417H118.97V12.1145Z" fill="#3A3768"/>
<path d="M132.075 17.9367C132.075 16.8524 132.232 15.9017 132.546 15.0845C132.876 14.2674 133.308 13.5917 133.843 13.0574C134.377 12.5074 134.99 12.0988 135.681 11.8317C136.373 11.5488 137.08 11.4074 137.803 11.4074C139.5 11.4074 140.82 11.9338 141.763 12.9867C142.721 14.0395 143.2 15.611 143.2 17.701C143.2 17.8581 143.193 18.0388 143.177 18.2431C143.177 18.4317 143.169 18.6045 143.153 18.7617H135.021C135.1 19.7517 135.445 20.5217 136.058 21.0717C136.687 21.606 137.59 21.8731 138.769 21.8731C139.46 21.8731 140.089 21.8102 140.655 21.6845C141.236 21.5588 141.692 21.4252 142.022 21.2838L142.399 23.6174C142.242 23.696 142.022 23.7824 141.739 23.8767C141.472 23.9552 141.158 24.026 140.796 24.0888C140.45 24.1674 140.073 24.2302 139.665 24.2774C139.256 24.3245 138.84 24.3481 138.415 24.3481C137.331 24.3481 136.388 24.191 135.587 23.8767C134.785 23.5467 134.125 23.0988 133.607 22.5331C133.088 21.9517 132.703 21.276 132.452 20.506C132.2 19.7202 132.075 18.8638 132.075 17.9367ZM140.348 16.6638C140.348 16.271 140.293 15.9017 140.183 15.556C140.073 15.1945 139.908 14.8881 139.688 14.6367C139.484 14.3695 139.225 14.1652 138.91 14.0238C138.612 13.8667 138.25 13.7881 137.826 13.7881C137.386 13.7881 137.001 13.8745 136.671 14.0474C136.341 14.2045 136.058 14.4167 135.823 14.6838C135.603 14.951 135.43 15.2574 135.304 15.6031C135.178 15.9488 135.092 16.3024 135.045 16.6638H140.348Z" fill="#3A3768"/>
<path d="M146.083 8.46096L148.935 7.98953V11.7138H153.319V14.0945H148.935V19.1152C148.935 20.1052 149.092 20.8124 149.407 21.2367C149.721 21.661 150.255 21.8731 151.009 21.8731C151.528 21.8731 151.984 21.8181 152.376 21.7081C152.785 21.5981 153.107 21.496 153.343 21.4017L153.814 23.6645C153.484 23.806 153.052 23.9474 152.518 24.0888C151.984 24.246 151.355 24.3245 150.632 24.3245C149.752 24.3245 149.014 24.2067 148.416 23.971C147.835 23.7352 147.371 23.3974 147.026 22.9574C146.68 22.5017 146.436 21.9595 146.295 21.331C146.154 20.6867 146.083 19.956 146.083 19.1388V8.46096Z" fill="#3A3768"/>
</svg>
