<svg width="19" height="25" viewBox="0 0 19 25" fill="none" xmlns="http://www.w3.org/2000/svg">
<path fill-rule="evenodd" clip-rule="evenodd" d="M1.19141 9.7619C1.19141 14.8192 6.4997 24 9.95331 24C13.4069 24 18.7152 14.8192 18.7152 9.7619C18.7152 4.92284 14.7924 1 9.95331 1C5.11424 1 1.19141 4.92284 1.19141 9.7619ZM17.62 9.76229C17.62 14.2946 12.6414 22.9051 9.95331 22.9051C7.2652 22.9051 2.28664 14.2946 2.28664 9.76229C2.28664 5.5281 5.71913 2.09562 9.95331 2.09562C14.1875 2.09562 17.62 5.5281 17.62 9.76229ZM9.95333 13.0476C8.13868 13.0476 6.66762 11.5766 6.66762 9.76193C6.66762 7.94728 8.13868 6.47621 9.95333 6.47621C11.768 6.47621 13.239 7.94728 13.239 9.76193C13.239 11.5766 11.768 13.0476 9.95333 13.0476ZM12.1438 9.76184C12.1438 10.9716 11.1631 11.9523 9.95333 11.9523C8.74357 11.9523 7.76286 10.9716 7.76286 9.76184C7.76286 8.55207 8.74357 7.57136 9.95333 7.57136C11.1631 7.57136 12.1438 8.55207 12.1438 9.76184Z" fill="#3A3768"/>
<path d="M9.95331 23.75C9.19089 23.75 8.27265 23.2353 7.29999 22.3057C6.33757 21.386 5.36345 20.0999 4.49155 18.6487C2.74277 15.7379 1.44141 12.2248 1.44141 9.7619H0.941406C0.941406 12.3563 2.29419 15.9622 4.06296 18.9062C4.94983 20.3823 5.95033 21.7075 6.95454 22.6672C7.94853 23.6171 8.98893 24.25 9.95331 24.25V23.75ZM18.4652 9.7619C18.4652 12.2248 17.1639 15.7379 15.4151 18.6487C14.5432 20.0999 13.569 21.386 12.6066 22.3057C11.634 23.2353 10.7157 23.75 9.95331 23.75V24.25C10.9177 24.25 11.9581 23.6171 12.9521 22.6672C13.9563 21.7075 14.9568 20.3823 15.8437 18.9062C17.6124 15.9622 18.9652 12.3563 18.9652 9.7619H18.4652ZM9.95331 1.25C14.6543 1.25 18.4652 5.06091 18.4652 9.7619H18.9652C18.9652 4.78477 14.9304 0.75 9.95331 0.75V1.25ZM1.44141 9.7619C1.44141 5.06091 5.25232 1.25 9.95331 1.25V0.75C4.97617 0.75 0.941406 4.78477 0.941406 9.7619H1.44141ZM9.95331 23.1551C10.3538 23.1551 10.772 22.996 11.1864 22.7387C11.6031 22.4799 12.0341 22.1106 12.4654 21.6623C13.3282 20.7654 14.214 19.5297 15.0108 18.159C16.5988 15.4272 17.87 12.0949 17.87 9.76229H17.37C17.37 11.962 16.1519 15.2011 14.5785 17.9077C13.7947 19.2562 12.9318 20.4563 12.1051 21.3156C11.6917 21.7453 11.2927 22.0841 10.9226 22.3139C10.5502 22.5452 10.2248 22.6551 9.95331 22.6551V23.1551ZM2.03664 9.76229C2.03664 12.0949 3.30785 15.4272 4.8958 18.159C5.69258 19.5297 6.57838 20.7654 7.44118 21.6623C7.87249 22.1106 8.30353 22.4799 8.72021 22.7387C9.13457 22.996 9.55277 23.1551 9.95331 23.1551V22.6551C9.68182 22.6551 9.35641 22.5452 8.98399 22.3139C8.61389 22.0841 8.21495 21.7453 7.80151 21.3156C6.9748 20.4563 6.11194 19.2562 5.32807 17.9077C3.75472 15.2011 2.53664 11.962 2.53664 9.76229H2.03664ZM9.95331 1.84562C5.58106 1.84562 2.03664 5.39003 2.03664 9.76229H2.53664C2.53664 5.66618 5.8572 2.34562 9.95331 2.34562V1.84562ZM17.87 9.76229C17.87 5.39003 14.3256 1.84562 9.95331 1.84562V2.34562C14.0494 2.34562 17.37 5.66618 17.37 9.76229H17.87ZM6.41762 9.76193C6.41762 11.7146 8.00061 13.2976 9.95333 13.2976V12.7976C8.27675 12.7976 6.91762 11.4385 6.91762 9.76193H6.41762ZM9.95333 6.22621C8.00061 6.22621 6.41762 7.80921 6.41762 9.76193H6.91762C6.91762 8.08535 8.27675 6.72621 9.95333 6.72621V6.22621ZM13.489 9.76193C13.489 7.80921 11.9061 6.22621 9.95333 6.22621V6.72621C11.6299 6.72621 12.989 8.08535 12.989 9.76193H13.489ZM9.95333 13.2976C11.9061 13.2976 13.489 11.7146 13.489 9.76193H12.989C12.989 11.4385 11.6299 12.7976 9.95333 12.7976V13.2976ZM9.95333 12.2023C11.3012 12.2023 12.3938 11.1097 12.3938 9.76184H11.8938C11.8938 10.8335 11.025 11.7023 9.95333 11.7023V12.2023ZM7.51286 9.76184C7.51286 11.1097 8.60549 12.2023 9.95333 12.2023V11.7023C8.88164 11.7023 8.01286 10.8335 8.01286 9.76184H7.51286ZM9.95333 7.32136C8.60549 7.32136 7.51286 8.414 7.51286 9.76184H8.01286C8.01286 8.69014 8.88164 7.82136 9.95333 7.82136V7.32136ZM12.3938 9.76184C12.3938 8.414 11.3012 7.32136 9.95333 7.32136V7.82136C11.025 7.82136 11.8938 8.69014 11.8938 9.76184H12.3938Z" fill="#3A3768"/>
</svg>
