<svg width="46" height="46" viewBox="0 0 46 46" fill="none" xmlns="http://www.w3.org/2000/svg">
<rect width="46" height="46" rx="23" fill="#4D7CFE"/>
<mask id="mask0" mask-type="alpha" maskUnits="userSpaceOnUse" x="0" y="0" width="46" height="46">
<rect width="46" height="46" rx="23" fill="white"/>
</mask>
<g mask="url(#mask0)">
<rect x="-0.669922" y="-4" width="47.5631" height="54" rx="23" fill="#292984"/>
</g>
<path d="M22.0335 29.18C20.9775 29.18 20.0775 29.012 19.3335 28.676C18.6015 28.34 18.0495 27.92 17.6775 27.416C17.3175 26.9 17.1255 26.372 17.1015 25.832C17.1015 25.724 17.1375 25.64 17.2095 25.58C17.2935 25.508 17.3895 25.472 17.4975 25.472H19.1175C19.3815 25.472 19.5555 25.592 19.6395 25.832C19.9035 26.696 20.7075 27.128 22.0515 27.128C22.7835 27.128 23.3595 26.96 23.7795 26.624C24.1995 26.276 24.4095 25.784 24.4095 25.148C24.4095 23.948 23.6595 23.348 22.1595 23.348H20.3055C20.1735 23.348 20.0655 23.306 19.9815 23.222C19.8975 23.138 19.8555 23.036 19.8555 22.916V22.16C19.8555 21.968 19.9395 21.788 20.1075 21.62L23.3295 18.47H18.1815C18.0615 18.47 17.9595 18.428 17.8755 18.344C17.7915 18.26 17.7495 18.158 17.7495 18.038V16.85C17.7495 16.718 17.7855 16.61 17.8575 16.526C17.9415 16.442 18.0495 16.4 18.1815 16.4H25.9035C26.0355 16.4 26.1435 16.442 26.2275 16.526C26.3115 16.61 26.3535 16.718 26.3535 16.85V17.93C26.3535 18.11 26.2755 18.278 26.1195 18.434L23.0055 21.638L23.2215 21.656C24.3735 21.752 25.2855 22.1 25.9575 22.7C26.6415 23.3 26.9835 24.158 26.9835 25.274C26.9835 26.066 26.7675 26.756 26.3355 27.344C25.9155 27.932 25.3275 28.388 24.5715 28.712C23.8275 29.024 22.9815 29.18 22.0335 29.18Z" fill="white"/>
</svg>
