<svg width="46" height="46" viewBox="0 0 46 46" fill="none" xmlns="http://www.w3.org/2000/svg">
<rect width="46" height="46" rx="23" fill="#4D7CFE"/>
<mask id="mask0" mask-type="alpha" maskUnits="userSpaceOnUse" x="0" y="0" width="46" height="46">
<rect width="46" height="46" rx="23" fill="white"/>
</mask>
<g mask="url(#mask0)">
<rect x="-0.669922" y="-4" width="47.5631" height="54" rx="23" fill="#E8E8EB"/>
</g>
<path d="M22.0314 28.198C21.0354 28.198 20.1774 28.03 19.4574 27.694C18.7494 27.358 18.2034 26.914 17.8194 26.362C17.4474 25.81 17.2494 25.216 17.2254 24.58V24.544C17.2254 24.448 17.2614 24.37 17.3334 24.31C17.4054 24.25 17.4954 24.22 17.6034 24.22H19.2774C19.5534 24.22 19.7334 24.34 19.8174 24.58C19.9854 25.108 20.2614 25.498 20.6454 25.75C21.0414 26.002 21.5034 26.128 22.0314 26.128C22.7034 26.128 23.2614 25.924 23.7054 25.516C24.1614 25.108 24.3894 24.538 24.3894 23.806C24.3894 23.158 24.1614 22.63 23.7054 22.222C23.2614 21.814 22.7034 21.61 22.0314 21.61C21.6714 21.61 21.3774 21.658 21.1494 21.754C20.9214 21.85 20.6994 21.982 20.4834 22.15C20.3394 22.258 20.2254 22.336 20.1414 22.384C20.0694 22.42 19.9794 22.438 19.8714 22.438H18.2154C18.1074 22.438 18.0114 22.402 17.9274 22.33C17.8554 22.246 17.8194 22.15 17.8194 22.042L18.4494 15.886C18.4614 15.742 18.5094 15.628 18.5934 15.544C18.6894 15.448 18.8094 15.4 18.9534 15.4H25.7214C25.8414 15.4 25.9434 15.442 26.0274 15.526C26.1114 15.61 26.1534 15.712 26.1534 15.832V17.038C26.1534 17.158 26.1114 17.26 26.0274 17.344C25.9434 17.428 25.8414 17.47 25.7214 17.47H20.5194L20.2314 20.404C20.8194 19.996 21.6054 19.792 22.5894 19.792C23.3694 19.792 24.0894 19.96 24.7494 20.296C25.4214 20.62 25.9554 21.094 26.3514 21.718C26.7474 22.33 26.9454 23.044 26.9454 23.86C26.9454 24.736 26.7414 25.504 26.3334 26.164C25.9254 26.812 25.3494 27.316 24.6054 27.676C23.8734 28.024 23.0154 28.198 22.0314 28.198Z" fill="#9997B1"/>
</svg>
