<svg width="46" height="46" viewBox="0 0 46 46" fill="none" xmlns="http://www.w3.org/2000/svg">
<rect width="46" height="46" rx="23" fill="#4D7CFE"/>
<mask id="mask0" mask-type="alpha" maskUnits="userSpaceOnUse" x="0" y="0" width="46" height="46">
<rect width="46" height="46" rx="23" fill="white"/>
</mask>
<g mask="url(#mask0)">
<rect x="-0.669922" y="-4" width="47.5631" height="54" rx="23" fill="#292984"/>
</g>
<path d="M22.0324 29.198C21.0364 29.198 20.1784 29.03 19.4584 28.694C18.7504 28.358 18.2044 27.914 17.8204 27.362C17.4484 26.81 17.2504 26.216 17.2264 25.58V25.544C17.2264 25.448 17.2624 25.37 17.3344 25.31C17.4064 25.25 17.4964 25.22 17.6044 25.22H19.2784C19.5544 25.22 19.7344 25.34 19.8184 25.58C19.9864 26.108 20.2624 26.498 20.6464 26.75C21.0424 27.002 21.5044 27.128 22.0324 27.128C22.7044 27.128 23.2624 26.924 23.7064 26.516C24.1624 26.108 24.3904 25.538 24.3904 24.806C24.3904 24.158 24.1624 23.63 23.7064 23.222C23.2624 22.814 22.7044 22.61 22.0324 22.61C21.6724 22.61 21.3784 22.658 21.1504 22.754C20.9224 22.85 20.7004 22.982 20.4844 23.15C20.3404 23.258 20.2264 23.336 20.1424 23.384C20.0704 23.42 19.9804 23.438 19.8724 23.438H18.2164C18.1084 23.438 18.0124 23.402 17.9284 23.33C17.8564 23.246 17.8204 23.15 17.8204 23.042L18.4504 16.886C18.4624 16.742 18.5104 16.628 18.5944 16.544C18.6904 16.448 18.8104 16.4 18.9544 16.4H25.7224C25.8424 16.4 25.9444 16.442 26.0284 16.526C26.1124 16.61 26.1544 16.712 26.1544 16.832V18.038C26.1544 18.158 26.1124 18.26 26.0284 18.344C25.9444 18.428 25.8424 18.47 25.7224 18.47H20.5204L20.2324 21.404C20.8204 20.996 21.6064 20.792 22.5904 20.792C23.3704 20.792 24.0904 20.96 24.7504 21.296C25.4224 21.62 25.9564 22.094 26.3524 22.718C26.7484 23.33 26.9464 24.044 26.9464 24.86C26.9464 25.736 26.7424 26.504 26.3344 27.164C25.9264 27.812 25.3504 28.316 24.6064 28.676C23.8744 29.024 23.0164 29.198 22.0324 29.198Z" fill="white"/>
</svg>
