<svg width="46" height="46" viewBox="0 0 46 46" fill="none" xmlns="http://www.w3.org/2000/svg">
<rect width="46" height="46" rx="23" fill="#4D7CFE"/>
<mask id="mask0" mask-type="alpha" maskUnits="userSpaceOnUse" x="0" y="0" width="46" height="46">
<rect width="46" height="46" rx="23" fill="white"/>
</mask>
<g mask="url(#mask0)">
<rect x="-0.669922" y="-4" width="47.5631" height="54" rx="23" fill="#292984"/>
</g>
<path d="M23.3444 29C23.2244 29 23.1224 28.958 23.0384 28.874C22.9544 28.79 22.9124 28.688 22.9124 28.568V26.264H17.2064C17.0864 26.264 16.9844 26.222 16.9004 26.138C16.8164 26.054 16.7744 25.952 16.7744 25.832V24.608C16.7744 24.416 16.8404 24.236 16.9724 24.068L22.2824 16.706C22.3424 16.61 22.4324 16.538 22.5524 16.49C22.6724 16.43 22.8044 16.4 22.9484 16.4H24.9104C25.0424 16.4 25.1444 16.442 25.2164 16.526C25.3004 16.598 25.3424 16.7 25.3424 16.832V24.14H26.9444C27.0764 24.14 27.1844 24.182 27.2684 24.266C27.3524 24.338 27.3944 24.44 27.3944 24.572V25.832C27.3944 25.952 27.3524 26.054 27.2684 26.138C27.1844 26.222 27.0824 26.264 26.9624 26.264H25.3424V28.568C25.3424 28.688 25.3004 28.79 25.2164 28.874C25.1444 28.958 25.0424 29 24.9104 29H23.3444ZM22.9664 24.212V19.01L19.2764 24.212H22.9664Z" fill="white"/>
</svg>
