<svg width="46" height="46" viewBox="0 0 46 46" fill="none" xmlns="http://www.w3.org/2000/svg">
<rect width="46" height="46" rx="23" fill="#4D7CFE"/>
<mask id="mask0" mask-type="alpha" maskUnits="userSpaceOnUse" x="0" y="0" width="46" height="46">
<rect width="46" height="46" rx="23" fill="white"/>
</mask>
<g mask="url(#mask0)">
<rect x="-0.669922" y="-4" width="47.5631" height="54" rx="23" fill="#292984"/>
</g>
<path d="M17.7742 29C17.6542 29 17.5522 28.958 17.4682 28.874C17.3842 28.79 17.3422 28.688 17.3422 28.568V27.65C17.3422 27.326 17.4922 27.044 17.7922 26.804L20.6362 23.978C21.8722 23.006 22.7302 22.25 23.2102 21.71C23.7022 21.158 23.9482 20.618 23.9482 20.09C23.9482 19.526 23.7922 19.082 23.4802 18.758C23.1802 18.434 22.7242 18.272 22.1122 18.272C21.5122 18.272 21.0382 18.452 20.6902 18.812C20.3422 19.16 20.1262 19.616 20.0422 20.18C20.0062 20.324 19.9402 20.432 19.8442 20.504C19.7482 20.564 19.6402 20.594 19.5202 20.594H17.9182C17.8102 20.594 17.7202 20.558 17.6482 20.486C17.5762 20.414 17.5402 20.33 17.5402 20.234C17.5642 19.526 17.7562 18.866 18.1162 18.254C18.4762 17.63 18.9982 17.132 19.6822 16.76C20.3662 16.376 21.1702 16.184 22.0942 16.184C23.0542 16.184 23.8642 16.352 24.5242 16.688C25.1962 17.012 25.7002 17.462 26.0362 18.038C26.3722 18.614 26.5402 19.268 26.5402 20C26.5402 20.804 26.3122 21.53 25.8562 22.178C25.4122 22.826 24.7282 23.522 23.8042 24.266L21.2482 26.858H26.3782C26.5102 26.858 26.6122 26.9 26.6842 26.984C26.7682 27.056 26.8102 27.158 26.8102 27.29V28.568C26.8102 28.688 26.7682 28.79 26.6842 28.874C26.6122 28.958 26.5102 29 26.3782 29H17.7742Z" fill="white"/>
</svg>
