<svg width="46" height="46" viewBox="0 0 46 46" fill="none" xmlns="http://www.w3.org/2000/svg">
<rect width="46" height="46" rx="23" fill="#4D7CFE"/>
<mask id="mask0" mask-type="alpha" maskUnits="userSpaceOnUse" x="0" y="0" width="46" height="46">
<rect width="46" height="46" rx="23" fill="white"/>
</mask>
<g mask="url(#mask0)">
<rect x="-0.669922" y="-4" width="47.5631" height="54" rx="23" fill="#E8E8EB"/>
</g>
<path d="M22.0335 28.18C20.9775 28.18 20.0775 28.012 19.3335 27.676C18.6015 27.34 18.0495 26.92 17.6775 26.416C17.3175 25.9 17.1255 25.372 17.1015 24.832C17.1015 24.724 17.1375 24.64 17.2095 24.58C17.2935 24.508 17.3895 24.472 17.4975 24.472H19.1175C19.3815 24.472 19.5555 24.592 19.6395 24.832C19.9035 25.696 20.7075 26.128 22.0515 26.128C22.7835 26.128 23.3595 25.96 23.7795 25.624C24.1995 25.276 24.4095 24.784 24.4095 24.148C24.4095 22.948 23.6595 22.348 22.1595 22.348H20.3055C20.1735 22.348 20.0655 22.306 19.9815 22.222C19.8975 22.138 19.8555 22.036 19.8555 21.916V21.16C19.8555 20.968 19.9395 20.788 20.1075 20.62L23.3295 17.47H18.1815C18.0615 17.47 17.9595 17.428 17.8755 17.344C17.7915 17.26 17.7495 17.158 17.7495 17.038V15.85C17.7495 15.718 17.7855 15.61 17.8575 15.526C17.9415 15.442 18.0495 15.4 18.1815 15.4H25.9035C26.0355 15.4 26.1435 15.442 26.2275 15.526C26.3115 15.61 26.3535 15.718 26.3535 15.85V16.93C26.3535 17.11 26.2755 17.278 26.1195 17.434L23.0055 20.638L23.2215 20.656C24.3735 20.752 25.2855 21.1 25.9575 21.7C26.6415 22.3 26.9835 23.158 26.9835 24.274C26.9835 25.066 26.7675 25.756 26.3355 26.344C25.9155 26.932 25.3275 27.388 24.5715 27.712C23.8275 28.024 22.9815 28.18 22.0335 28.18Z" fill="#9997B1"/>
</svg>
