<svg width="46" height="46" viewBox="0 0 46 46" fill="none" xmlns="http://www.w3.org/2000/svg">
<rect width="46" height="46" rx="23" fill="#4D7CFE"/>
<mask id="mask0" mask-type="alpha" maskUnits="userSpaceOnUse" x="0" y="0" width="46" height="46">
<rect width="46" height="46" rx="23" fill="white"/>
</mask>
<g mask="url(#mask0)">
<rect x="-0.669922" y="-4" width="47.5631" height="54" rx="23" fill="#E8E8EB"/>
</g>
<path d="M23.3434 28C23.2234 28 23.1214 27.958 23.0374 27.874C22.9534 27.79 22.9114 27.688 22.9114 27.568V25.264H17.2054C17.0854 25.264 16.9834 25.222 16.8994 25.138C16.8154 25.054 16.7734 24.952 16.7734 24.832V23.608C16.7734 23.416 16.8394 23.236 16.9714 23.068L22.2814 15.706C22.3414 15.61 22.4314 15.538 22.5514 15.49C22.6714 15.43 22.8034 15.4 22.9474 15.4H24.9094C25.0414 15.4 25.1434 15.442 25.2154 15.526C25.2994 15.598 25.3414 15.7 25.3414 15.832V23.14H26.9434C27.0754 23.14 27.1834 23.182 27.2674 23.266C27.3514 23.338 27.3934 23.44 27.3934 23.572V24.832C27.3934 24.952 27.3514 25.054 27.2674 25.138C27.1834 25.222 27.0814 25.264 26.9614 25.264H25.3414V27.568C25.3414 27.688 25.2994 27.79 25.2154 27.874C25.1434 27.958 25.0414 28 24.9094 28H23.3434ZM22.9654 23.212V18.01L19.2754 23.212H22.9654Z" fill="#9997B1"/>
</svg>
