<svg width="46" height="46" viewBox="0 0 46 46" fill="none" xmlns="http://www.w3.org/2000/svg">
<rect width="46" height="46" rx="23" fill="#4D7CFE"/>
<mask id="mask0" mask-type="alpha" maskUnits="userSpaceOnUse" x="0" y="0" width="46" height="46">
<rect width="46" height="46" rx="23" fill="white"/>
</mask>
<g mask="url(#mask0)">
<rect x="-0.669922" y="-4" width="47.5631" height="54" rx="23" fill="#E8E8EB"/>
</g>
<path d="M17.7742 28C17.6542 28 17.5522 27.958 17.4682 27.874C17.3842 27.79 17.3422 27.688 17.3422 27.568V26.65C17.3422 26.326 17.4922 26.044 17.7922 25.804L20.6362 22.978C21.8722 22.006 22.7302 21.25 23.2102 20.71C23.7022 20.158 23.9482 19.618 23.9482 19.09C23.9482 18.526 23.7922 18.082 23.4802 17.758C23.1802 17.434 22.7242 17.272 22.1122 17.272C21.5122 17.272 21.0382 17.452 20.6902 17.812C20.3422 18.16 20.1262 18.616 20.0422 19.18C20.0062 19.324 19.9402 19.432 19.8442 19.504C19.7482 19.564 19.6402 19.594 19.5202 19.594H17.9182C17.8102 19.594 17.7202 19.558 17.6482 19.486C17.5762 19.414 17.5402 19.33 17.5402 19.234C17.5642 18.526 17.7562 17.866 18.1162 17.254C18.4762 16.63 18.9982 16.132 19.6822 15.76C20.3662 15.376 21.1702 15.184 22.0942 15.184C23.0542 15.184 23.8642 15.352 24.5242 15.688C25.1962 16.012 25.7002 16.462 26.0362 17.038C26.3722 17.614 26.5402 18.268 26.5402 19C26.5402 19.804 26.3122 20.53 25.8562 21.178C25.4122 21.826 24.7282 22.522 23.8042 23.266L21.2482 25.858H26.3782C26.5102 25.858 26.6122 25.9 26.6842 25.984C26.7682 26.056 26.8102 26.158 26.8102 26.29V27.568C26.8102 27.688 26.7682 27.79 26.6842 27.874C26.6122 27.958 26.5102 28 26.3782 28H17.7742Z" fill="#9997B1"/>
</svg>
