<svg width="46" height="46" viewBox="0 0 46 46" fill="none" xmlns="http://www.w3.org/2000/svg">
<rect width="46" height="46" rx="23" fill="#4D7CFE"/>
<mask id="mask0" mask-type="alpha" maskUnits="userSpaceOnUse" x="0" y="0" width="46" height="46">
<rect width="46" height="46" rx="23" fill="white"/>
</mask>
<g mask="url(#mask0)">
<rect x="-0.669922" y="-4" width="47.5631" height="54" rx="23" fill="#292984"/>
</g>
<path d="M22.9245 28C22.8045 28 22.7025 27.958 22.6185 27.874C22.5345 27.79 22.4925 27.688 22.4925 27.568V18.244L19.7565 20.35C19.6845 20.41 19.6005 20.44 19.5045 20.44C19.3605 20.44 19.2405 20.374 19.1445 20.242L18.3885 19.27C18.3285 19.174 18.2985 19.084 18.2985 19C18.2985 18.856 18.3645 18.736 18.4965 18.64L22.5285 15.526C22.6365 15.442 22.7865 15.4 22.9785 15.4H24.5625C24.6945 15.4 24.7965 15.442 24.8685 15.526C24.9525 15.598 24.9945 15.7 24.9945 15.832V27.568C24.9945 27.688 24.9525 27.79 24.8685 27.874C24.7965 27.958 24.6945 28 24.5625 28H22.9245Z" fill="white"/>
</svg>
