<svg width="220" height="179" viewBox="0 0 220 179" fill="none" xmlns="http://www.w3.org/2000/svg">
<path opacity="0.1" d="M178.339 168.383C193.875 168.383 206.471 166.216 206.471 163.544C206.471 160.871 193.875 158.704 178.339 158.704C162.802 158.704 150.207 160.871 150.207 163.544C150.207 166.216 162.802 168.383 178.339 168.383Z" fill="#5E20E5"/>
<path opacity="0.1" d="M93.1612 161.757C116.163 161.757 134.81 160.438 134.81 158.811C134.81 157.184 116.163 155.865 93.1612 155.865C70.1591 155.865 51.5122 157.184 51.5122 158.811C51.5122 160.438 70.1591 161.757 93.1612 161.757Z" fill="#4D7CFE"/>
<path opacity="0.1" d="M68.0658 7.57462C75.5248 0.927348 87.2338 -0.426245 97.8827 0.103833C131.353 1.76033 161.565 17.9253 187.7 36.2012C197.166 42.8272 206.475 49.9478 212.616 59.0608C225.118 77.6088 221.41 103.313 204.026 118.583C198.11 123.79 190.942 127.768 183.58 131.301C170.494 137.583 156.366 142.626 141.52 144.06C130.927 145.085 120.203 144.252 109.672 142.825C80.2529 138.835 51.3755 130.011 27.1764 114.915C16.5607 108.289 6.55308 100.064 2.17757 89.3581C-2.19794 78.6524 0.603901 65.0739 11.4421 58.7343C15.9383 56.1123 21.2864 54.9291 26.5351 53.8168C34.2591 52.1793 42.1086 50.5654 49.08 47.2382C56.2834 43.7974 64.8025 37.1501 63.3827 29.5445C61.8445 21.378 60.6163 14.2124 68.0658 7.57462Z" fill="#5E20E5"/>
<g opacity="0.1">
<path opacity="0.1" d="M96.2321 137.991C97.1408 139.536 98.5654 140.533 100.17 140.533C102.91 140.533 105.139 137.629 105.139 134.044C105.139 130.459 102.903 127.579 100.17 127.579C98.8801 127.579 97.704 128.223 96.8214 129.28C96.4866 129.685 96.2029 130.129 95.9765 130.603L95.9292 130.885C95.9292 130.885 94.8714 131.789 93.4303 130.958V109.94H72.9087C72.7427 109.722 72.6332 109.467 72.5898 109.197C72.5464 108.927 72.5706 108.65 72.6602 108.392C72.8135 107.912 73.1444 107.508 73.5855 107.263C75.1307 106.354 76.1294 104.93 76.1294 103.325C76.1294 100.585 73.2234 98.356 69.6406 98.356C66.0579 98.356 63.1519 100.578 63.1519 103.325C63.1519 104.615 63.798 105.794 64.8557 106.676C65.26 107.01 65.7035 107.293 66.1762 107.519L66.2046 107.566C66.5149 107.866 66.7208 108.258 66.7919 108.684C66.8631 109.11 66.7957 109.548 66.5998 109.932H57.3447V148.855C57.3447 151.303 58.3171 153.651 60.0478 155.381C61.7786 157.112 64.1261 158.084 66.5738 158.084H93.4374V137.43C93.6563 137.222 93.9285 137.079 94.2238 137.017C94.5191 136.954 94.826 136.974 95.1104 137.075C95.5876 137.226 95.9889 137.554 96.2321 137.991Z" fill="black"/>
<path opacity="0.1" d="M61.6936 109.121H64.9072C64.1259 108.52 63.4916 107.75 63.0525 106.868C62.6134 105.986 62.3809 105.016 62.3728 104.031C62.3728 100.341 65.5911 97.3525 69.5596 97.3525C73.5281 97.3525 76.7488 100.341 76.7488 104.031C76.7407 105.016 76.5082 105.986 76.0691 106.868C75.6299 107.75 74.9956 108.52 74.2143 109.121H93.477V88.3838C93.6972 88.178 93.9694 88.0362 94.2642 87.9737C94.559 87.9111 94.8653 87.9302 95.1501 88.0288C95.6317 88.1809 96.0367 88.5121 96.2812 88.9541C97.1876 90.4993 98.6121 91.4956 100.219 91.4956C102.959 91.4956 105.188 88.592 105.188 85.0092C105.188 81.4265 102.969 78.5205 100.219 78.5205C98.9269 78.5205 97.7508 79.1665 96.8681 80.222C96.5344 80.6274 96.2507 81.0715 96.0233 81.5448L95.9783 81.5732C95.6611 81.9044 95.2407 82.1178 94.7861 82.1784C94.3316 82.2391 93.8699 82.1433 93.477 81.9069V60.8931H73.7198C73.5538 60.6757 73.4443 60.4205 73.4009 60.1505C73.3575 59.8804 73.3817 59.6038 73.4713 59.3454C73.6235 58.8644 73.9548 58.4603 74.3966 58.2166C75.9418 57.3103 76.9381 55.8833 76.9381 54.2789C76.9381 51.5386 74.0345 49.3094 70.4517 49.3094C66.869 49.3094 63.963 51.5315 63.963 54.2789C63.963 55.571 64.6091 56.7471 65.6645 57.6298C66.0699 57.9635 66.514 58.2471 66.9873 58.4746L67.0157 58.5195C67.326 58.8198 67.5319 59.2117 67.603 59.6377C67.6742 60.0636 67.6068 60.5011 67.4109 60.886H61.6936V59.8211H65.9153C65.1356 59.2217 64.5024 58.4528 64.0637 57.5725C63.625 56.6923 63.3923 55.7238 63.3832 54.7404C63.3832 51.0511 66.6016 48.0599 70.5724 48.0599C74.5433 48.0599 77.7593 51.0511 77.7593 54.7404C77.7498 55.726 77.5158 56.6965 77.075 57.5781C76.6342 58.4597 75.9982 59.2292 75.2153 59.8282H93.4604V38.838C93.68 38.6304 93.9526 38.4875 94.2482 38.4248C94.5438 38.3622 94.851 38.3824 95.1359 38.483C95.6165 38.6359 96.0205 38.967 96.2647 39.4083C97.171 40.9536 98.598 41.9498 100.202 41.9498C102.943 41.9498 105.172 39.0462 105.172 35.4611C105.172 31.876 102.952 28.9748 100.202 28.9748C98.9103 28.9748 97.7342 29.6184 96.8515 30.6762C96.5168 31.0809 96.2331 31.5252 96.0067 31.9991L95.9618 32.2807C95.9618 32.2807 94.904 33.1846 93.4604 32.354V12.7766H66.6087C64.161 12.7766 61.8135 13.749 60.0828 15.4797C58.352 17.2105 57.3796 19.558 57.3796 22.0057V31.9967H57.24C57.0963 31.9967 56.9585 32.0538 56.8568 32.1554C56.7552 32.257 56.6981 32.3949 56.6981 32.5386V37.2714C56.6987 37.415 56.756 37.5524 56.8575 37.6539C56.959 37.7554 57.0965 37.8127 57.24 37.8133H57.3796V42.6456H57.1974C57.0535 42.6456 56.9154 42.7026 56.8134 42.8042C56.7114 42.9057 56.6538 43.0435 56.6531 43.1875V52.2248C56.6538 52.3688 56.7114 52.5066 56.8134 52.6082C56.9154 52.7097 57.0535 52.7668 57.1974 52.7668H57.3796V56.3164H57.2306C57.0868 56.3164 56.949 56.3735 56.8474 56.4751C56.7457 56.5767 56.6886 56.7146 56.6886 56.8583V59.769H56.5703V65.9028C56.57 65.974 56.5838 66.0446 56.6109 66.1105C56.6381 66.1764 56.678 66.2363 56.7283 66.2866C56.7787 66.337 56.8386 66.3769 56.9045 66.4041C56.9704 66.4312 57.041 66.445 57.1122 66.4447H57.2731V109.121H61.6936Z" fill="black"/>
<path opacity="0.1" d="M131.912 46.2922C131.912 46.1482 131.855 46.0101 131.754 45.9081C131.652 45.8061 131.514 45.7485 131.37 45.7479H131.044V45.1539H130.866V21.5489C130.867 20.3834 130.637 19.2293 130.192 18.1526C129.746 17.0758 129.092 16.0974 128.268 15.2733C127.444 14.4492 126.465 13.7955 125.389 13.3497C124.312 12.9038 123.158 12.6745 121.992 12.6748H95.3701V30.6596C95.9782 29.8526 96.7643 29.1968 97.6673 28.7432C98.5703 28.2897 99.5658 28.0506 100.576 28.0447C104.294 28.0447 107.309 31.2654 107.309 35.2363C107.309 39.2071 104.294 42.4278 100.576 42.4278C99.5657 42.4222 98.5701 42.1834 97.6671 41.7298C96.764 41.2762 95.978 40.6202 95.3701 39.8129V59.7689H116.905C116.124 59.167 115.491 58.3955 115.053 57.5129C114.615 56.6302 114.383 55.6595 114.375 54.674C114.375 50.9801 117.586 47.9865 121.55 47.9865C123.312 47.9767 125.02 48.5922 126.37 49.7235C127.112 50.3158 127.71 51.0674 128.121 51.9226C128.533 52.7777 128.746 53.7145 128.746 54.6634C128.746 55.6123 128.533 56.5491 128.121 57.4042C127.71 58.2594 127.112 59.011 126.37 59.6033V59.7618H131.044V59.7453H131.912V46.2922Z" fill="black"/>
<path opacity="0.1" d="M124.763 108.058V105.692C124.861 105.549 124.95 105.402 125.031 105.249C125.347 104.672 125.515 104.026 125.518 103.368C125.517 102.929 125.442 102.494 125.296 102.08C125.166 101.712 124.987 101.363 124.763 101.044C123.672 99.475 121.516 98.4054 119.032 98.4054C115.447 98.4054 112.543 100.627 112.543 103.375C112.543 104.667 113.189 105.843 114.244 106.726C114.65 107.059 115.094 107.343 115.567 107.571L115.596 107.616C115.906 107.916 116.111 108.308 116.182 108.734C116.253 109.16 116.186 109.597 115.991 109.982H95.1143V129.387C95.7138 128.584 96.4908 127.932 97.3846 127.48C98.2784 127.029 99.2646 126.79 100.266 126.784C103.955 126.784 106.944 130.002 106.944 133.97C106.944 137.939 103.955 141.16 100.266 141.16C99.2646 141.153 98.2784 140.914 97.3846 140.463C96.4908 140.011 95.7138 139.359 95.1143 138.556V154.22H119.07C120.577 154.22 122.023 153.622 123.091 152.557C124.158 151.493 124.759 150.048 124.763 148.54V109.989V148.514C124.763 150.024 124.163 151.473 123.096 152.54C122.028 153.608 120.58 154.208 119.07 154.208H95.1143V157.994H119.962C122.409 157.994 124.757 157.022 126.488 155.291C128.218 153.56 129.191 151.213 129.191 148.765V109.989V108.971H124.763V108.058Z" fill="black"/>
</g>
<path d="M67.7003 153.34C66.1902 153.34 64.742 152.74 63.6743 151.672C62.6065 150.604 62.0067 149.156 62.0067 147.646V108.993H57.5791V147.909C57.5791 150.356 58.5514 152.704 60.2822 154.435C62.013 156.165 64.3604 157.138 66.8081 157.138H93.6717V153.351L67.7003 153.34Z" fill="#3A3768"/>
<path d="M95.3289 136.129C95.8103 136.28 96.2146 136.612 96.4577 137.054C97.3664 138.599 98.791 139.595 100.395 139.595C103.136 139.595 105.365 136.692 105.365 133.107C105.365 129.521 103.138 126.632 100.405 126.632C99.1152 126.632 97.9391 127.276 97.0564 128.334C96.7217 128.738 96.4379 129.183 96.2116 129.656L96.1642 129.938C96.1642 129.938 95.1064 130.842 93.6653 130.011V108.993H73.1437C72.9777 108.775 72.8682 108.52 72.8248 108.25C72.7815 107.98 72.8057 107.704 72.8952 107.445C73.0485 106.965 73.3795 106.561 73.8205 106.316C75.3658 105.408 76.3644 103.983 76.3644 102.379C76.3644 99.6383 73.4584 97.4092 69.8757 97.4092C66.2929 97.4092 63.3869 99.6312 63.3869 102.379C63.3869 103.668 64.033 104.847 65.0908 105.73C65.4951 106.063 65.9385 106.346 66.4112 106.572L66.4396 106.619C66.75 106.92 66.9558 107.311 67.0269 107.737C67.0981 108.163 67.0307 108.601 66.8348 108.986H62.0073V147.646C62.0073 149.156 62.6072 150.604 63.6749 151.672C64.7427 152.74 66.1909 153.34 67.7009 153.34H93.6724V136.484C93.8898 136.279 94.1591 136.137 94.4511 136.075C94.7431 136.012 95.0467 136.031 95.3289 136.129Z" fill="#5E20E5"/>
<path d="M57.5017 58.8032H56.7988V59.9486H57.5017V58.8032Z" fill="#3A3768"/>
<path d="M61.9291 58.8032H58.0884V59.9486H61.9291V58.8032Z" fill="#3A3768"/>
<path d="M58.0883 58.8032H57.5015V59.9486H58.0883V58.8032Z" fill="#3A3768"/>
<path d="M57.3405 65.4792H57.5014V59.9465H56.7915V64.9373C56.7912 65.0092 56.8052 65.0804 56.8328 65.1467C56.8603 65.2131 56.9009 65.2733 56.952 65.3237C57.0032 65.3742 57.0639 65.414 57.1306 65.4407C57.1973 65.4674 57.2687 65.4805 57.3405 65.4792Z" fill="#3A3768"/>
<path d="M61.929 59.9465H58.0883V64.9373C58.0883 65.0087 58.0742 65.0793 58.0469 65.1452C58.0195 65.2111 57.9794 65.271 57.9288 65.3213C57.8782 65.3717 57.8182 65.4116 57.7522 65.4387C57.6861 65.4657 57.6154 65.4795 57.5441 65.4792H57.5015V108.174H61.929V59.9465Z" fill="#3A3768"/>
<path d="M57.5015 65.4792H57.5441C57.6154 65.4795 57.6861 65.4657 57.7522 65.4387C57.8182 65.4116 57.8782 65.3717 57.9288 65.3213C57.9794 65.271 58.0195 65.2111 58.0469 65.1452C58.0742 65.0793 58.0883 65.0087 58.0883 64.9373V59.9465H57.5015V65.4792Z" fill="#3A3768"/>
<path d="M62.6089 103.074C62.6089 99.3852 65.8272 96.3964 69.7957 96.3964C73.7642 96.3964 76.9849 99.3852 76.9849 103.074C76.9782 104.061 76.7464 105.034 76.3072 105.917C75.868 106.801 75.233 107.573 74.4504 108.174H93.7131V87.4371C93.9333 87.2314 94.2055 87.0896 94.5003 87.027C94.7951 86.9645 95.1014 86.9835 95.3861 87.0822C95.8678 87.2343 96.2727 87.5655 96.5173 88.0074C97.4236 89.5527 98.8482 90.549 100.455 90.549C103.195 90.549 105.424 87.6454 105.424 84.0626C105.424 80.4799 103.205 77.5739 100.455 77.5739C99.1629 77.5739 97.9868 78.2199 97.1042 79.2753C96.7705 79.6808 96.4868 80.1249 96.2594 80.5982L96.2144 80.6266C95.8972 80.9577 95.4768 81.1712 95.0222 81.2318C94.5677 81.2924 94.106 81.1967 93.7131 80.9602V59.9464H73.9558C73.7899 59.729 73.6803 59.4739 73.637 59.2038C73.5936 58.9338 73.6178 58.6572 73.7074 58.3988C73.8596 57.9178 74.1908 57.5136 74.6326 57.27C76.1779 56.3637 77.1742 54.9367 77.1742 53.3323C77.1742 50.592 74.2706 48.3628 70.6878 48.3628C67.1051 48.3628 64.1991 50.5849 64.1991 53.3323C64.1991 54.6243 64.8451 55.8005 65.9005 56.6831C66.306 57.0168 66.7501 57.3005 67.2234 57.5279L67.2518 57.5729C67.5621 57.8732 67.768 58.2651 67.8391 58.691C67.9102 59.117 67.8429 59.5545 67.647 59.9393H61.9297V108.174H65.1433C64.3607 107.573 63.7257 106.801 63.2865 105.917C62.8473 105.034 62.6155 104.061 62.6089 103.074Z" fill="#5E20E5"/>
<path d="M58.207 55.8146C58.207 55.7433 58.1929 55.6726 58.1655 55.6067C58.1381 55.5408 58.098 55.4809 58.0474 55.4306C57.9969 55.3802 57.9368 55.3404 57.8708 55.3133C57.8048 55.2862 57.7341 55.2724 57.6627 55.2727H57.6201V58.8034H58.207V55.8146Z" fill="#3A3768"/>
<path d="M57.5987 31.0454H57.4804C57.4092 31.0454 57.3388 31.0594 57.273 31.0867C57.2073 31.1139 57.1475 31.1538 57.0972 31.2041C57.0469 31.2545 57.007 31.3142 56.9797 31.3799C56.9525 31.4457 56.9385 31.5162 56.9385 31.5873V36.3202C56.9391 36.4637 56.9964 36.6012 57.0979 36.7027C57.1994 36.8042 57.3369 36.8614 57.4804 36.8621H57.62V31.0478L57.5987 31.0454Z" fill="#3A3768"/>
<path d="M57.4378 41.6895C57.2939 41.6895 57.1558 41.7465 57.0538 41.848C56.9518 41.9496 56.8942 42.0874 56.8936 42.2314V51.2687C56.8942 51.4127 56.9518 51.5505 57.0538 51.6521C57.1558 51.7536 57.2939 51.8106 57.4378 51.8106H57.62V41.6895H57.4378Z" fill="#3A3768"/>
<path d="M57.6196 55.3508H57.4657C57.322 55.3508 57.1842 55.4079 57.0826 55.5095C56.9809 55.6112 56.9238 55.749 56.9238 55.8927V58.8815H57.6338L57.6196 55.3508Z" fill="#3A3768"/>
<path d="M57.62 21.0565V31.0475C57.7598 31.0524 57.8922 31.1115 57.9893 31.2121C58.0864 31.3128 58.1407 31.4472 58.1406 31.5871V36.3199C58.1401 36.4596 58.0856 36.5937 57.9886 36.6943C57.8916 36.7948 57.7596 36.854 57.62 36.8595V41.6917H57.7028C57.774 41.6917 57.8444 41.7057 57.9102 41.7329C57.9759 41.7602 58.0357 41.8001 58.086 41.8504C58.1363 41.9007 58.1762 41.9605 58.2035 42.0262C58.2307 42.092 58.2447 42.1624 58.2447 42.2336V51.271C58.2447 51.4147 58.1876 51.5525 58.086 51.6542C57.9843 51.7558 57.8465 51.8129 57.7028 51.8129H57.6152V55.3625H57.6578C57.8018 55.3625 57.9399 55.4195 58.0419 55.5211C58.1439 55.6227 58.2015 55.7605 58.2021 55.9044V58.8814H62.0428V21.3263C62.0428 19.8167 62.6423 18.3688 63.7096 17.3011C64.7768 16.2334 66.2244 15.6333 67.7341 15.6327H75.4509V16.6218C75.4509 17.8651 75.9448 19.0575 76.824 19.9367C77.7031 20.8158 78.8955 21.3097 80.1388 21.3097H93.715V18.2144H87.4653C87.2236 18.2132 86.9921 18.117 86.8207 17.9465C86.6494 17.7761 86.5519 17.545 86.5495 17.3034V17.1046C86.5501 16.8619 86.6468 16.6293 86.8184 16.4577C86.99 16.2861 87.2226 16.1894 87.4653 16.1888H93.7032V11.8298H66.8443C64.3978 11.8311 62.0519 12.8037 60.3223 14.5338C58.5926 16.2639 57.6206 18.61 57.62 21.0565Z" fill="#3A3768"/>
<path d="M58.1407 36.3178V31.585C58.1408 31.4451 58.0866 31.3106 57.9895 31.21C57.8923 31.1093 57.7599 31.0503 57.6201 31.0454V36.855C57.7593 36.8495 57.891 36.7906 57.988 36.6906C58.0849 36.5906 58.1396 36.4571 58.1407 36.3178Z" fill="#3A3768"/>
<path d="M58.2496 51.2687V42.2314C58.2496 42.1602 58.2356 42.0897 58.2083 42.024C58.1811 41.9582 58.1412 41.8985 58.0909 41.8482C58.0405 41.7979 57.9808 41.7579 57.9151 41.7307C57.8493 41.7035 57.7788 41.6895 57.7077 41.6895H57.6201V51.8106H57.7029C57.7745 51.8113 57.8455 51.7977 57.9118 51.7708C57.9781 51.7438 58.0384 51.704 58.0892 51.6536C58.14 51.6032 58.1804 51.5433 58.2079 51.4772C58.2354 51.4111 58.2496 51.3403 58.2496 51.2687Z" fill="#3A3768"/>
<path d="M63.6192 53.7937C63.6192 50.1045 66.8375 47.1133 70.8084 47.1133C74.7792 47.1133 77.9952 50.1045 77.9952 53.7937C77.9857 54.7794 77.7517 55.7499 77.3109 56.6315C76.8701 57.5131 76.2341 58.2826 75.4513 58.8815H93.6964V37.8914C93.916 37.6838 94.1886 37.5408 94.4842 37.4782C94.7798 37.4156 95.0869 37.4357 95.3718 37.5364C95.8525 37.6893 96.2564 38.0204 96.5006 38.4617C97.4069 40.007 98.8339 41.0032 100.438 41.0032C103.179 41.0032 105.408 38.0996 105.408 34.5145C105.408 30.9294 103.188 28.0281 100.438 28.0281C99.1462 28.0281 97.9701 28.6718 97.0875 29.7296C96.7527 30.1343 96.469 30.5785 96.2426 31.0524L96.1977 31.334C96.1977 31.334 95.1399 32.238 93.6964 31.4074V21.3028H80.1273C78.8861 21.2996 77.6967 20.8044 76.8201 19.9256C75.9435 19.0467 75.4513 17.8562 75.4513 16.6149V15.6257H67.7391C66.991 15.626 66.2503 15.7738 65.5593 16.0605C64.8684 16.3472 64.2407 16.7673 63.7121 17.2967C63.1836 17.8261 62.7646 18.4545 62.479 19.146C62.1934 19.8374 62.0469 20.5783 62.0479 21.3264V58.8815H66.1512C65.3706 58.2814 64.7368 57.5114 64.2981 56.6298C63.8594 55.7483 63.6272 54.7784 63.6192 53.7937Z" fill="#5E20E5"/>
<path d="M87.4656 16.1816C87.2229 16.1823 86.9903 16.279 86.8187 16.4506C86.6471 16.6222 86.5504 16.8548 86.5498 17.0974V17.3033C86.5504 17.5462 86.647 17.7791 86.8186 17.9511C86.9901 18.123 87.2227 18.2202 87.4656 18.2215H93.7035V16.1887L87.4656 16.1816Z" fill="#E6E8EC"/>
<path d="M129.683 44.7728V58.8199H131.28V44.2073H130.416C130.012 44.2073 129.683 44.4605 129.683 44.7728Z" fill="#3A3768"/>
<path d="M97.4991 11.7283H95.606V15.9878H97.4991V11.7283Z" fill="#3A3768"/>
<path d="M97.4991 18.1174H95.606V21.1938H97.4991V18.1174Z" fill="#3A3768"/>
<path d="M97.4991 15.9878H95.606V18.1176H97.4991V15.9878Z" fill="#E6E8EC"/>
<path d="M131.606 44.8013H131.161V58.8034H132.148V45.3455C132.148 45.2016 132.091 45.0635 131.989 44.9615C131.888 44.8595 131.75 44.8019 131.606 44.8013Z" fill="#3A3768"/>
<path d="M97.497 15.9878C98.001 16.1014 98.4435 17.0196 98.4435 17.0196V17.2184C98.4435 17.2184 97.9986 18.1342 97.497 18.1176V21.194H108.191C109.434 21.1933 110.627 20.6989 111.506 19.8194C112.385 18.9399 112.879 17.7472 112.879 16.5037V15.5145H120.925C122.432 15.5177 123.876 16.1187 124.941 17.1856C126.006 18.2526 126.604 19.6984 126.604 21.2058V48.777C127.345 49.3693 127.944 50.1209 128.355 50.976C128.766 51.8312 128.98 52.7679 128.98 53.7169C128.98 54.6658 128.766 55.6025 128.355 56.4577C127.944 57.3128 127.345 58.0644 126.604 58.6568V58.8153H129.917V44.9268C129.917 44.9176 129.919 44.9085 129.922 44.9C129.926 44.8915 129.931 44.8838 129.938 44.8774C129.944 44.871 129.952 44.866 129.961 44.8627C129.97 44.8594 129.979 44.8578 129.988 44.8582H131.1V20.6023C131.1 19.4369 130.871 18.2828 130.425 17.206C129.979 16.1292 129.326 15.1508 128.502 14.3267C127.678 13.5026 126.699 12.849 125.622 12.4031C124.546 11.9573 123.392 11.728 122.226 11.7283H97.2627V15.9878H97.497ZM101.08 15.9665C101.308 15.9665 101.53 16.0341 101.72 16.1608C101.91 16.2874 102.057 16.4674 102.144 16.678C102.232 16.8885 102.255 17.1203 102.21 17.3438C102.166 17.5674 102.056 17.7727 101.895 17.9339C101.733 18.0951 101.528 18.2048 101.305 18.2493C101.081 18.2937 100.849 18.2709 100.639 18.1837C100.428 18.0965 100.248 17.9488 100.122 17.7592C99.9949 17.5697 99.9273 17.3469 99.9273 17.119C99.9273 16.8133 100.049 16.5202 100.265 16.3041C100.481 16.0879 100.774 15.9665 101.08 15.9665Z" fill="#3A3768"/>
<path d="M100.8 27.0957C104.518 27.0957 107.532 30.3164 107.532 34.2872C107.532 38.2581 104.518 41.4788 100.8 41.4788C99.7893 41.4732 98.7937 41.2343 97.8907 40.7808C96.9877 40.3272 96.2016 39.6712 95.5938 38.8639V58.8199H117.128C116.348 58.218 115.715 57.4465 115.276 56.5638C114.838 55.6812 114.606 54.7104 114.598 53.725C114.598 50.031 117.81 47.0375 121.773 47.0375C123.54 47.0255 125.252 47.642 126.606 48.7768V21.2056C126.606 19.6983 126.008 18.2525 124.943 17.1855C123.878 16.1185 122.434 15.5175 120.926 15.5144H112.88V16.5036C112.88 17.7471 112.387 18.9397 111.508 19.8192C110.628 20.6988 109.436 21.1932 108.193 21.1938H95.6056V29.7129C96.2122 28.907 96.9964 28.2517 97.8972 27.7978C98.798 27.344 99.7912 27.1037 100.8 27.0957Z" fill="#5E20E5"/>
<path d="M97.4964 18.1176C97.7395 18.1179 97.9733 18.0247 98.1495 17.8573C98.3258 17.6899 98.4308 17.4611 98.443 17.2183V17.0196C98.4155 16.7692 98.3089 16.5342 98.1387 16.3486C97.9685 16.1631 97.7434 16.0367 97.4964 15.9878H97.2598V18.1176H97.4964Z" fill="#E6E8EC"/>
<path d="M101.264 18.2514C101.892 18.1494 102.319 17.5574 102.217 16.9291C102.115 16.3009 101.523 15.8743 100.894 15.9762C100.266 16.0782 99.8395 16.6702 99.9415 17.2984C100.043 17.9267 100.635 18.3533 101.264 18.2514Z" fill="#E6E8EC"/>
<path d="M125 107.112V104.745C125.49 104.07 125.754 103.256 125.754 102.421C125.754 101.587 125.49 100.773 125 100.098V107.112Z" fill="#3A3768"/>
<path d="M129.427 108.025H124.999V109.042H129.427V108.025Z" fill="#3A3768"/>
<path d="M123.212 106.364C122.771 106.608 122.44 107.012 122.287 107.492C122.197 107.751 122.173 108.028 122.216 108.299C122.26 108.569 122.369 108.825 122.536 109.042H124.999V108.025H124.053C124.396 107.75 124.713 107.445 124.999 107.111V104.745C124.528 105.408 123.918 105.96 123.212 106.364Z" fill="#4D7CFE"/>
<path d="M124.047 108.025H124.994V107.111C124.707 107.445 124.39 107.75 124.047 108.025Z" fill="#4D7CFE"/>
<path d="M125.754 102.426C125.749 101.592 125.485 100.78 125 100.102V104.748C125.484 104.07 125.748 103.259 125.754 102.426Z" fill="#3A3768"/>
<path d="M129.427 109.043V147.831C129.427 150.278 128.455 152.626 126.724 154.357C124.993 156.087 122.646 157.06 120.198 157.06H95.3506V153.273H119.306C120.816 153.273 122.264 152.674 123.332 151.606C124.4 150.538 124.999 149.09 124.999 147.58V109.043H129.427Z" fill="#3A3768"/>
<path d="M122.288 107.493C122.44 107.012 122.771 106.608 123.213 106.364C123.919 105.961 124.528 105.409 124.999 104.747V100.102C123.909 98.5333 121.753 97.4636 119.268 97.4636C115.683 97.4636 112.779 99.6857 112.779 102.433C112.779 103.725 113.425 104.901 114.481 105.784C114.886 106.118 115.33 106.401 115.804 106.629L115.832 106.674C116.142 106.974 116.348 107.366 116.419 107.792C116.49 108.218 116.423 108.655 116.227 109.04H95.3506V128.445C95.9501 127.643 96.7272 126.99 97.6209 126.539C98.5147 126.087 99.5009 125.849 100.502 125.842C104.192 125.842 107.18 129.06 107.18 133.029C107.18 136.997 104.192 140.218 100.502 140.218C99.5009 140.211 98.5147 139.972 97.6209 139.521C96.7272 139.069 95.9501 138.417 95.3506 137.615V153.278H119.306C120.813 153.278 122.259 152.68 123.327 151.615C124.394 150.551 124.996 149.106 124.999 147.599V109.043H122.543C122.376 108.825 122.265 108.57 122.22 108.3C122.175 108.029 122.199 107.752 122.288 107.493Z" fill="#5E20E5"/>
<path d="M167.311 48.7297C168.631 48.1357 169.608 47.1347 169.942 45.8521C169.982 45.6965 170.012 45.5384 170.032 45.3788C170.091 45.2311 170.141 45.0802 170.183 44.9268C170.517 43.6395 170.15 42.3072 169.279 41.1689L167.55 47.7949L167.311 48.7297Z" fill="url(#paint0_linear)"/>
<path d="M207.241 46.2424C206.972 44.6592 201.974 41.2303 201.974 41.2303C201.974 41.2303 199.766 40.0471 198.597 38.6793C197.849 37.8084 197.615 37.8179 197.544 37.9362C197.495 37.9053 197.44 37.8866 197.383 37.8818C197.336 37.8487 197.291 37.8179 197.248 37.7824C197.255 37.7156 197.241 37.6483 197.207 37.5901C197.173 37.5319 197.122 37.4857 197.061 37.4582C197.004 37.4251 196.948 37.3825 196.891 37.3422C196.512 36.7057 196.377 35.8041 196.332 35.0184C196.275 34.0269 195.149 34.2754 194.763 34.3866C194.498 33.8896 194.24 33.3738 193.997 32.8579C194.104 32.6904 194.194 32.5119 194.264 32.3254C194.96 30.8133 194.808 29.0787 195.111 27.479C195.329 26.3218 195.783 25.1126 195.693 23.9862C195.693 23.9601 195.693 23.9317 195.693 23.9033C195.693 23.9033 195.693 23.9152 195.693 23.9199C195.669 23.6377 195.604 23.3605 195.502 23.0964C195.301 22.59 194.95 22.1498 194.792 21.6269C194.539 20.8625 194.699 20.0201 194.489 19.2462C194.226 18.2665 193.398 17.5093 192.461 17.0762C191.524 16.6432 190.48 16.4941 189.453 16.3663C186.886 16.0445 184.157 15.8528 181.814 16.9319C181.599 17.0591 181.354 17.1254 181.104 17.1236C180.873 17.0597 180.654 16.9582 180.456 16.823C179.826 16.5107 179.036 16.7094 178.473 17.1259C177.91 17.5424 177.526 18.1435 177.155 18.7256C176.783 19.3078 176.376 19.9088 175.794 20.2898C175.11 20.7465 174.206 20.9004 173.664 21.5156C173.423 21.8073 173.27 22.1621 173.224 22.5379C173.224 22.5379 173.224 22.5261 173.224 22.5214C173.222 22.5663 173.222 22.6113 173.224 22.6562C173.224 22.6917 173.224 22.7296 173.224 22.7651C173.224 22.8006 173.224 22.8243 173.224 22.8527C173.224 22.9544 173.224 23.0538 173.224 23.1532C173.3 23.7313 173.454 24.2965 173.681 24.8334C173.79 25.234 174.004 25.5983 174.301 25.8888C175.124 26.5585 176.431 25.9266 177.425 26.3005C177.512 26.3313 177.595 26.3715 177.678 26.4094C177.678 26.4472 177.652 26.4851 177.64 26.5253C177.427 27.2484 177.32 27.9984 177.32 28.7521C177.32 33.1963 181.01 36.798 185.56 36.798C185.731 36.798 185.899 36.798 186.067 36.779C186.09 36.8666 186.116 36.9565 186.138 37.0417C186.391 38.0237 186.471 39.0423 186.374 40.0518L186.325 39.6116C186.214 39.5587 186.099 39.5152 185.982 39.4815C185.652 39.3719 185.306 39.319 184.959 39.3253C183.84 39.3111 182.155 39.7607 180.357 41.9426C180.357 41.9426 178.061 43.2181 177.387 43.5257C177.331 43.5591 177.288 43.6087 177.261 43.6677C177.261 43.6677 174.192 48.3035 173.875 50.0665C173.558 51.8295 173.165 53.8528 173.165 53.8528C173.165 53.8528 172.398 56.1387 171.904 57.1516C171.409 58.1644 170.957 59.1299 170.915 59.57C170.872 60.0102 171.094 60.9757 170.148 61.591C169.201 62.2062 168.965 63.8769 168.965 63.8769C168.965 63.8769 168.491 64.3218 167.822 64.885H167.798L170.271 55.4028L170.713 55.514C170.819 55.5403 170.93 55.5355 171.034 55.5002C171.137 55.465 171.228 55.4008 171.296 55.3152C171.341 55.2573 171.374 55.1903 171.393 55.1188L171.892 53.1973L172.093 52.4329L172.133 52.2767L172.424 51.1621L171.44 50.9255L170.287 50.6392L167.031 49.818L167.315 48.7295L167.552 47.8066L169.04 42.094L169.277 41.1735C168.33 39.9477 166.823 38.9514 164.97 38.49C161.397 37.6026 157.937 39.0461 157.241 41.713C157.2 41.8686 157.169 42.0267 157.149 42.1863C157.089 42.3326 157.039 42.4828 157 42.6359C156.879 43.0991 156.847 43.5808 156.905 44.0558C156.915 44.1331 156.927 44.212 156.941 44.2924C157.083 45.0292 157.393 45.7233 157.847 46.3204C158.167 46.7471 158.538 47.1326 158.952 47.4682L158.969 47.5202C159.145 47.8073 159.251 48.1314 159.279 48.4668C159.279 48.5141 159.279 48.5638 159.279 48.6135C159.199 48.7563 159.104 48.8896 158.995 49.0111L137.162 43.5849L136.926 44.5054L132.008 63.4013C132.649 62.9085 133.369 62.5284 134.138 62.2772C134.44 62.1773 134.748 62.0982 135.061 62.0406L135.172 62.0217C136.052 61.8787 136.952 61.9157 137.818 62.1305C140.577 62.8168 142.484 65.1666 142.839 67.9306C142.885 68.2797 142.905 68.6317 142.899 68.9837C142.892 69.4327 142.844 69.8802 142.757 70.3207C141.573 73.9129 137.938 76.0829 134.408 75.205C133.418 74.9554 132.5 74.4806 131.724 73.8177C130.948 73.1548 130.336 72.3216 129.935 71.3832L129.699 72.3061L124.625 91.6989L143.961 96.5075L144.169 95.5775H144.2C143.627 94.8682 143.212 94.0452 142.982 93.1631C142.752 92.2809 142.712 91.36 142.865 90.4613C142.865 90.4305 142.884 90.4021 142.896 90.3714C142.92 90.3027 142.946 90.2365 142.972 90.1702C143.104 89.8465 143.263 89.5339 143.445 89.2355C143.54 89.0817 143.639 88.9326 143.746 88.7882C143.812 88.6983 143.881 88.6107 143.952 88.5256C144.292 88.1133 144.681 87.7431 145.109 87.4228L145.246 87.3234C145.402 87.2122 145.563 87.1057 145.719 87.0063C145.816 86.9495 145.916 86.8927 146.015 86.8407C147.16 86.2357 148.44 85.9304 149.735 85.9533C150.357 85.9616 150.977 86.041 151.581 86.1899C153.447 86.6381 155.076 87.7707 156.146 89.3633C156.287 89.5768 156.417 89.798 156.534 90.0259C156.882 90.7019 157.109 91.4341 157.204 92.1888C157.277 92.7912 157.262 93.4013 157.156 93.9991C156.696 95.3225 155.817 96.4599 154.653 97.2387L154.416 98.1285H154.442L154.406 98.1545L154.17 99.0419L158.586 100.14L164.84 76.2273C166.527 76.0309 167.391 75.2807 167.391 75.1719C167.391 75.063 169.419 73.9389 170.543 73.6313C171.102 73.4799 171.748 73.371 172.261 73.2621C171.655 76.2699 171.078 79.1782 171.13 79.3486C171.146 79.4148 171.255 79.3107 171.421 79.0835C171.405 79.1709 171.398 79.2597 171.4 79.3486C171.4 79.3935 171.464 79.3604 171.546 79.2681L171.535 79.3249C171.535 79.3249 168.023 86.1189 167.748 86.8975C167.474 87.676 167.815 89.6685 168.896 90.3288C169.106 90.4613 169.293 90.6267 169.45 90.8186L169.322 91.0718C168.92 91.8882 168.562 92.797 168.626 93.3625C168.711 94.0783 168.543 94.8013 168.153 95.4071C168.153 95.4071 165.112 104.804 165.181 107.509C165.249 110.214 164.099 116.149 164.099 116.149C164.099 116.149 162.85 119.973 163.593 121.061C164.336 122.15 165.181 126.899 165.181 126.899C165.181 126.899 165.756 127.988 165.72 128.911C165.685 129.834 166.262 131.514 166.262 131.514L168.155 138.339C168.155 138.339 167.952 140.154 168.662 141.439C169.372 142.724 169.303 142.329 168.965 144.572C168.626 146.815 169.372 148.891 170.586 149.541C171.059 149.797 171.083 150.187 170.936 150.568C170.626 150.448 170.368 151.089 170.214 151.607L170.058 151.756L170.162 151.782C170.096 152.019 170.058 152.218 170.058 152.218C170.058 152.218 166.885 154.856 166.681 155.812C166.478 156.768 164.248 157.263 164.248 157.263C164.248 157.263 160.871 158.186 159.989 158.647C159.736 158.762 159.518 158.94 159.354 159.165C159.191 159.389 159.088 159.652 159.056 159.928C159.017 160.362 159.059 160.8 159.179 161.22C159.516 162.571 164.244 162.703 166.515 162.341C168.787 161.979 173.47 160.659 173.47 160.659C173.47 160.659 178.402 160.186 179.86 159.603C181.317 159.021 180.163 157.493 180.163 157.493C180.163 157.493 180.163 157.443 180.163 157.351C180.198 156.799 180.3 154.8 179.95 154.274C179.687 153.867 179.694 152.854 179.732 152.211C180.719 150.436 178.601 145.111 178.601 145.111C178.601 145.111 179.005 139.905 178.736 139.143C178.466 138.381 177.316 131.921 177.316 131.921C177.316 131.921 176.606 128.987 176.878 128.492C177.15 127.997 176.708 126.578 176.708 126.578C176.708 126.578 175.55 124.999 175.654 124.502C175.759 124.005 175.316 123.118 175.316 123.118C175.316 123.118 178.762 117.973 178.456 117.017C178.151 116.061 178.594 114.511 178.594 114.511C178.594 114.511 179.027 113.782 179.54 112.909C180.179 111.84 180.96 110.559 181.216 110.159C181.547 109.651 182.344 107.485 182.789 106.238C182.979 105.708 183.106 105.344 183.106 105.344C183.106 105.344 183.646 115.046 184.119 116.028C184.592 117.01 185.302 124.834 185.302 124.834C185.565 125.528 185.68 126.269 185.641 127.011C185.575 128.229 186.722 133.54 186.722 133.54C186.722 133.54 187.229 137.297 186.89 138.287C186.552 139.276 186.824 146.569 186.824 146.569C186.824 146.569 184.966 147.989 184.493 149.075C184.02 150.161 184.559 153.131 184.559 153.131L184.777 153.233C184.603 153.645 184.474 154.075 184.391 154.516C184.325 155.143 183.31 157.98 183.412 158.375C183.513 158.77 182.974 159.991 182.905 160.616C182.837 161.241 181.994 162.166 181.926 162.498C181.819 162.794 181.695 163.084 181.554 163.366C181.37 163.799 181.224 164.247 181.116 164.705C180.778 166.092 184.796 166.322 184.796 166.322C190.74 167.41 191.822 162.959 191.822 162.959C191.822 162.959 192.565 159.002 192.835 158.699C192.868 158.643 192.889 158.581 192.896 158.516C192.904 158.451 192.898 158.386 192.88 158.323C192.725 157.65 192.434 157.016 192.023 156.461C191.834 156.241 191.822 155.675 191.853 155.169C192.025 155.152 192.195 155.12 192.361 155.074C194.759 154.383 193.781 150.391 193.781 150.391C193.781 150.391 195.402 147.755 195.402 146.732C195.402 145.71 195.977 142.577 195.977 142.577C198.038 138.883 197.227 129.914 197.565 129.188C197.904 128.461 196.855 125.759 196.01 124.538C195.166 123.317 195.504 120.02 196.01 119.064C196.517 118.108 195.504 114.805 195.504 114.805C195.504 114.805 196.484 108.415 196.451 107.417C196.417 106.418 197.295 103.493 197.295 103.493C197.295 103.493 198.173 101.976 197.97 101.515C197.766 101.053 198.644 99.8583 198.41 99.3377C198.176 98.8171 198.611 97.1938 199.051 96.2377C199.276 95.7479 199.555 94.399 199.761 93.1992C199.785 93.0667 199.809 92.9342 199.83 92.804C200.814 93.4264 201.723 93.8902 202.045 93.7648C202.648 93.5282 201.687 90.4518 201.03 88.535C201.143 88.4498 201.191 88.3859 201.143 88.3575C200.739 88.0925 201.188 86.9046 201.188 86.9046C203.576 85.4989 202.764 84.4435 202 83.8282C201.236 83.2129 201.73 81.4618 201.503 80.7519C201.276 80.0419 201.775 76.8402 202.18 74.5093C202.264 74.0028 202.26 73.4857 202.168 72.9805C202.601 72.3203 203.048 71.6293 203.441 70.9904C204.79 68.792 207.672 58.3277 207.672 58.3277L207.653 58.2732C207.935 57.7171 208.145 57.2651 208.259 56.9646C209.132 54.6928 207.511 47.8302 207.241 46.2424ZM186.256 40.2174L186.318 40.1891C186.318 40.2056 186.318 40.2222 186.318 40.2388L186.256 40.2174ZM173.153 152.469C173.006 152.47 172.86 152.441 172.725 152.383L173.153 152.469Z" fill="url(#paint1_linear)"/>
<path d="M148.135 76.2013C150.083 76.9397 154.61 77.0201 156.621 77.0201C157.232 77.0201 157.611 77.0201 157.611 77.0201L158.9 74.3934L157.611 72.2044C157.611 72.2044 156.427 71.8779 154.856 71.5939C152.537 71.1774 149.364 70.8508 147.852 71.7879C145.315 73.3569 145.599 75.2382 148.135 76.2013Z" fill="#FEC2BE"/>
<path opacity="0.1" d="M156.619 77.0202C157.229 77.0202 157.608 77.0202 157.608 77.0202L158.898 74.3935L157.61 72.2045C157.61 72.2045 156.427 71.878 154.856 71.594C156.131 72.5311 159.198 74.5709 156.619 77.0202Z" fill="black"/>
<path d="M177.981 44.7824L177.413 44.1245C177.413 44.1245 174.481 48.7627 174.174 50.5138C173.866 52.265 173.464 54.2765 173.464 54.2765C173.464 54.2765 172.721 56.553 172.238 57.5587C171.755 58.5644 171.32 59.5275 171.277 59.9653C171.234 60.4031 171.452 61.3663 170.532 61.9792C169.611 62.5921 169.396 64.2557 169.396 64.2557C169.396 64.2557 166.069 67.4929 164.317 67.5686C162.566 67.6444 157.535 68.5318 157.71 69.4074C157.885 70.2829 155.611 70.8059 154.691 71.026C153.77 71.2461 160.607 73.8657 156.617 77.2402C156.617 77.2402 159.154 77.7655 159.417 78.3761C159.679 78.9866 162.349 78.0282 162.349 78.0282C162.349 78.0282 162.919 76.6699 164.888 76.5823C166.857 76.4948 167.862 75.6192 167.862 75.4891C167.862 75.3589 169.831 74.2632 170.939 73.958C172.046 73.6527 173.475 73.5202 173.52 73.2126C173.565 72.9049 180.085 44.7705 180.085 44.7705L177.981 44.7824Z" fill="#4C4981"/>
<path opacity="0.05" d="M177.981 44.7824L177.413 44.1245C177.413 44.1245 174.481 48.7627 174.174 50.5138C173.866 52.265 173.464 54.2765 173.464 54.2765C173.464 54.2765 172.721 56.553 172.238 57.5587C171.755 58.5644 171.32 59.5275 171.277 59.9653C171.234 60.4031 171.452 61.3663 170.532 61.9792C169.611 62.5921 169.396 64.2557 169.396 64.2557C169.396 64.2557 166.069 67.4929 164.317 67.5686C162.566 67.6444 157.535 68.5318 157.71 69.4074C157.885 70.2829 155.611 70.8059 154.691 71.026C153.77 71.2461 160.607 73.8657 156.617 77.2402C156.617 77.2402 159.154 77.7655 159.417 78.3761C159.679 78.9866 162.349 78.0282 162.349 78.0282C162.349 78.0282 162.919 76.6699 164.888 76.5823C166.857 76.4948 167.862 75.6192 167.862 75.4891C167.862 75.3589 169.831 74.2632 170.939 73.958C172.046 73.6527 173.475 73.5202 173.52 73.2126C173.565 72.9049 180.085 44.7705 180.085 44.7705L177.981 44.7824Z" fill="black"/>
<path d="M184.796 166.215C190.572 167.299 191.623 162.867 191.623 162.867C191.623 162.867 192.345 158.929 192.608 158.633C192.64 158.577 192.661 158.515 192.669 158.451C192.677 158.386 192.671 158.321 192.652 158.259C192.501 157.592 192.218 156.961 191.82 156.404C191.46 155.978 191.753 154.205 191.753 154.205L185.059 152.499C185.059 152.499 184.467 153.843 184.403 154.468C184.339 155.093 183.352 157.914 183.457 158.309C183.561 158.704 183.031 159.916 182.964 160.54C182.898 161.165 182.079 162.083 182.018 162.41C181.915 162.706 181.794 162.995 181.656 163.276C181.478 163.708 181.336 164.153 181.23 164.608C180.891 165.985 184.796 166.215 184.796 166.215Z" fill="#CA8496"/>
<path opacity="0.1" d="M184.796 166.215C190.573 167.299 191.623 162.867 191.623 162.867C191.623 162.867 192.345 158.929 192.608 158.633C192.64 158.577 192.661 158.515 192.669 158.451C192.677 158.387 192.671 158.321 192.653 158.259L191.261 162.244C191.261 162.244 190.114 164.639 185.847 164.279C183.419 164.074 182.224 163.624 181.644 163.274C181.466 163.706 181.324 164.151 181.218 164.606C180.892 165.986 184.796 166.215 184.796 166.215Z" fill="black"/>
<path opacity="0.1" d="M189.292 159.98C189.292 159.98 187.849 160.013 187.75 158.832L189.292 159.98Z" fill="black"/>
<path d="M144.387 95.5684L145.303 95.8026L145.102 96.7326L144.252 96.5173L144.387 95.5684Z" fill="#4D7CFE"/>
<path opacity="0.1" d="M144.387 95.5684L145.303 95.8026L145.102 96.7326L144.252 96.5173L144.387 95.5684Z" fill="black"/>
<path d="M171.567 52.2675L171.285 53.3774L172.241 53.6208L172.523 52.5109L171.567 52.2675Z" fill="#3A3768"/>
<path d="M167.274 51.1732L166.991 52.2832L170.163 53.0905L170.445 51.9805L167.274 51.1732Z" fill="#3A3768"/>
<path d="M170.444 51.9833L170.161 53.0933L171.283 53.3787L171.565 52.2687L170.444 51.9833Z" fill="#3A3768"/>
<path d="M167.323 51.0296C167.247 51.0651 167.174 51.1029 167.1 51.1337L167.285 51.181L167.001 52.2909L165.598 51.9335C165.491 51.6819 165.449 51.4078 165.474 51.1357C165.499 50.8636 165.591 50.6019 165.742 50.3741C166.009 49.9429 166.433 49.6324 166.925 49.508C167.226 49.4216 167.519 49.3124 167.803 49.1814L167.323 51.0296Z" fill="#4D7CFE"/>
<path d="M170.671 55.8219L171.099 55.9331C171.168 55.9509 171.24 55.9548 171.311 55.9446C171.382 55.9345 171.45 55.9104 171.511 55.8739C171.572 55.8374 171.626 55.7892 171.668 55.7319C171.711 55.6747 171.742 55.6095 171.759 55.5403L172.237 53.6282L171.291 53.3916L170.671 55.8219Z" fill="#3A3768"/>
<path d="M170.344 46.3183C170.018 47.5962 169.069 48.5924 167.786 49.1817L169.466 42.5793C170.318 43.7129 170.676 45.0404 170.344 46.3183Z" fill="#3A3768"/>
<path d="M170.074 55.6703C169.936 55.6346 169.817 55.5453 169.743 55.422C169.67 55.2987 169.649 55.1514 169.684 55.0124L170.171 53.098L167 52.291L157.329 90.2815C158.032 91.6504 158.211 93.2292 157.831 94.7206C157.452 96.2121 156.54 97.5133 155.268 98.3794L155.043 99.2645L159.333 100.365L170.671 55.8312L170.074 55.6703Z" fill="#3A3768"/>
<path d="M169.684 55.0123C169.649 55.1513 169.67 55.2986 169.743 55.4219C169.817 55.5452 169.936 55.6345 170.075 55.6702L170.671 55.8216L171.291 53.3842L170.172 53.0979L169.684 55.0123Z" fill="#3A3768"/>
<path d="M165.739 50.3743C166.008 49.9445 166.432 49.6344 166.922 49.5082C167.222 49.4211 167.515 49.312 167.798 49.1816L169.481 42.5793C168.427 41.2414 166.952 40.3004 165.294 39.91C161.823 39.0249 158.458 40.4613 157.783 43.1165C157.464 44.3683 157.8 45.6675 158.607 46.7844C158.916 47.2079 159.276 47.5918 159.679 47.9274L159.695 47.9795C159.923 48.3483 160.027 48.7807 159.99 49.2128C159.953 49.6449 159.779 50.0538 159.492 50.379L138.275 44.9765L133.487 63.7848C134.264 63.1559 135.175 62.7148 136.15 62.4956C137.124 62.2764 138.137 62.2851 139.108 62.5211C142.683 63.4322 144.787 67.2894 143.807 71.1349C142.828 74.9803 139.145 77.3633 135.57 76.4641C134.601 76.2087 133.704 75.7325 132.95 75.0728C132.196 74.413 131.605 73.5876 131.223 72.6612L126.308 91.9617L145.102 96.7443C144.492 95.9705 144.067 95.0678 143.859 94.105C143.65 93.1422 143.664 92.1445 143.9 91.1879C144.811 87.6146 148.666 85.5085 152.513 86.4882C153.541 86.7397 154.502 87.2084 155.332 87.8628C156.163 88.5171 156.844 89.3419 157.329 90.2816L167.001 52.2911L165.612 51.9337C165.503 51.6834 165.457 51.41 165.48 51.138C165.502 50.8659 165.591 50.6036 165.739 50.3743Z" fill="#4D7CFE"/>
<path d="M167.282 51.1812L167.323 51.0298C167.249 51.0653 167.176 51.1031 167.1 51.1363L167.282 51.1812Z" fill="#4D7CFE"/>
<g opacity="0.1">
<path opacity="0.1" d="M171.573 52.2745L170.453 51.9882L167.285 51.1812L167.325 51.0298L167.798 49.1816C167.514 49.3126 167.221 49.4218 166.92 49.5082C166.428 49.6326 166.004 49.9431 165.737 50.3743C165.667 50.4934 165.609 50.6185 165.562 50.7482C165.608 50.6185 165.666 50.4934 165.735 50.3743C166.003 49.9445 166.427 49.6344 166.918 49.5082C167.217 49.4211 167.51 49.312 167.793 49.1816L169.476 42.5793C168.423 41.2414 166.947 40.3004 165.29 39.91C161.818 39.0249 158.453 40.4613 157.779 43.1165C157.459 44.3683 157.795 45.6675 158.602 46.7844C158.911 47.2079 159.271 47.5918 159.674 47.9274L159.691 47.9794C159.919 48.3483 160.022 48.7807 159.985 49.2128C159.949 49.6449 159.774 50.0538 159.487 50.379L138.27 44.9765L133.483 63.7848C134.26 63.1552 135.171 62.7136 136.147 62.4945C137.123 62.2753 138.136 62.2844 139.108 62.5211C142.683 63.4322 144.787 67.2894 143.807 71.1349C142.828 74.9803 139.145 77.3633 135.57 76.4641C134.601 76.2087 133.704 75.7325 132.95 75.0728C132.196 74.413 131.605 73.5876 131.223 72.6612L126.308 91.9617L145.102 96.7443C144.492 95.9704 144.067 95.0678 143.859 94.105C143.65 93.1422 143.664 92.1445 143.9 91.1879C144.811 87.6146 148.666 85.5085 152.513 86.4882C153.541 86.7397 154.502 87.2084 155.332 87.8628C156.163 88.5171 156.844 89.3419 157.329 90.2816C158.032 91.6505 158.211 93.2292 157.831 94.7207C157.452 96.2121 156.54 97.5134 155.268 98.3795L155.043 99.2645L159.333 100.365L170.671 55.8312L171.099 55.9425C171.168 55.9602 171.24 55.9641 171.311 55.9539C171.382 55.9438 171.45 55.9198 171.511 55.8833C171.572 55.8468 171.626 55.7985 171.669 55.7412C171.711 55.684 171.742 55.6189 171.759 55.5496L172.237 53.6281L172.519 52.5182L171.573 52.2745ZM167.209 51.0913C167.173 51.1079 167.138 51.1268 167.102 51.141L167.209 51.0913ZM165.6 51.9408L167.003 52.2982L165.6 51.9408Z" fill="black"/>
<path opacity="0.1" d="M170.344 46.318C170.668 45.0402 170.311 43.715 169.466 42.5791L167.786 49.1814C169.076 48.5922 170.025 47.5935 170.344 46.318Z" fill="black"/>
</g>
<path d="M171.799 51.3524L171.517 52.4624L172.473 52.7058L172.755 51.5958L171.799 51.3524Z" fill="#3A3768"/>
<path d="M167.506 50.2582L167.223 51.3682L170.395 52.1754L170.677 51.0655L167.506 50.2582Z" fill="#3A3768"/>
<path d="M170.676 51.0636L170.394 52.1736L171.515 52.459L171.797 51.349L170.676 51.0636Z" fill="#3A3768"/>
<path d="M167.556 50.1116L167.334 50.2181L167.516 50.263L167.235 51.38L165.831 51.0227C165.723 50.7714 165.68 50.4972 165.705 50.2249C165.729 49.9526 165.822 49.6908 165.973 49.4632C166.242 49.0329 166.665 48.7227 167.157 48.5971C167.456 48.5107 167.749 48.4015 168.032 48.2705L167.556 50.1116Z" fill="#4D7CFE"/>
<path d="M170.903 54.9058L171.334 55.0147C171.403 55.0335 171.476 55.0382 171.547 55.0286C171.619 55.0189 171.688 54.9951 171.75 54.9585C171.812 54.9219 171.866 54.8733 171.909 54.8155C171.952 54.7577 171.984 54.6919 172.001 54.6219L172.488 52.7098L171.542 52.4731L170.903 54.9058Z" fill="#3A3768"/>
<path d="M170.582 45.4024C170.257 46.6779 169.308 47.6742 168.023 48.2634L169.706 41.6611C170.553 42.7946 170.91 44.1222 170.582 45.4024Z" fill="#3A3768"/>
<path d="M170.309 54.7546C170.24 54.737 170.176 54.7059 170.119 54.6631C170.062 54.6204 170.014 54.5668 169.977 54.5055C169.941 54.4442 169.917 54.3763 169.907 54.3058C169.897 54.2352 169.901 54.1634 169.919 54.0944L170.392 52.1823L167.235 51.3801L157.566 89.3659C158.271 90.7341 158.45 92.313 158.071 93.8045C157.691 95.2959 156.778 96.5968 155.505 97.4614L155.28 98.3465L159.573 99.4398L170.908 54.9061L170.309 54.7546Z" fill="#3A3768"/>
<path d="M169.919 54.0942C169.901 54.1632 169.897 54.235 169.907 54.3055C169.917 54.3761 169.941 54.444 169.977 54.5053C170.013 54.5666 170.061 54.6202 170.118 54.6629C170.175 54.7057 170.24 54.7368 170.309 54.7544L170.903 54.9059L171.528 52.4661L170.406 52.1821L169.919 54.0942Z" fill="#3A3768"/>
<path d="M165.974 49.4561C166.242 49.0258 166.666 48.7156 167.157 48.59C167.457 48.5036 167.749 48.3944 168.032 48.2634L169.713 41.6611C168.66 40.3236 167.185 39.3825 165.529 38.9918C162.055 38.1091 158.692 39.5432 158.015 42.2007C157.698 43.4501 158.032 44.7493 158.841 45.8662C159.15 46.2905 159.51 46.6752 159.913 47.0116L159.93 47.0613C160.157 47.4304 160.26 47.8627 160.223 48.2946C160.187 48.7265 160.013 49.1353 159.726 49.4608L138.507 44.0607L133.712 62.8666C134.49 62.2361 135.403 61.7941 136.38 61.5753C137.357 61.3565 138.372 61.3667 139.344 61.6053C142.918 62.514 145.024 66.3713 144.044 70.2191C143.064 74.0669 139.38 76.4451 135.795 75.5364C134.827 75.2794 133.932 74.8022 133.179 74.1421C132.426 73.4821 131.836 72.657 131.455 71.7312L126.542 91.0317L145.334 95.8167C144.725 95.0426 144.3 94.1399 144.092 93.1771C143.884 92.2143 143.898 91.2167 144.134 90.2603C145.043 86.6846 148.9 84.5809 152.748 85.5606C153.777 85.8121 154.74 86.2821 155.571 86.9386C156.402 87.5952 157.083 88.423 157.566 89.3658L167.235 51.38L165.832 51.0227C165.724 50.7702 165.68 50.4949 165.705 50.2215C165.73 49.948 165.822 49.685 165.974 49.4561Z" fill="#5E20E5"/>
<path d="M167.516 50.2654L167.554 50.1116C167.481 50.1471 167.407 50.1849 167.334 50.2181L167.516 50.2654Z" fill="#4D7CFE"/>
<path d="M164.191 121.19C164.901 122.271 165.734 126.999 165.734 126.999C165.734 126.999 166.293 128.081 166.26 129.001C166.227 129.922 166.785 131.604 166.785 131.604L168.624 138.398C168.624 138.398 168.425 140.204 169.116 141.474C169.807 142.745 169.738 142.36 169.412 144.591C169.085 146.823 169.805 148.891 170.985 149.561C172.166 150.23 170.46 151.759 170.46 151.759C170.46 151.759 178.009 153.794 179.585 152.547C181.161 151.3 178.764 145.128 178.764 145.128C178.764 145.128 179.159 139.943 178.896 139.189C178.634 138.434 177.517 132.002 177.517 132.002C177.517 132.002 176.828 129.079 177.091 128.587C177.354 128.095 176.928 126.694 176.928 126.694C176.928 126.694 175.811 125.118 175.91 124.626C176.009 124.133 175.581 123.248 175.581 123.248C175.581 123.248 178.922 118.113 178.627 117.15C178.331 116.187 178.757 114.656 178.757 114.656L179.689 113.061C180.312 111.996 181.064 110.72 181.317 110.323C181.639 109.817 182.415 107.663 182.848 106.421L183.156 105.531C183.156 105.531 183.681 115.181 184.14 116.166C184.6 117.15 185.288 124.921 185.288 124.921C185.543 125.613 185.655 126.35 185.617 127.087C185.551 128.301 186.668 133.585 186.668 133.585C186.668 133.585 187.16 137.326 186.831 138.318C186.502 139.309 186.765 146.558 186.765 146.558C186.765 146.558 184.959 147.977 184.5 149.052C184.041 150.126 184.566 153.075 184.566 153.075C184.566 153.075 189.817 155.701 192.139 155.013C194.46 154.324 193.516 150.351 193.516 150.351C193.516 150.351 195.092 147.727 195.092 146.709C195.092 145.691 195.665 142.584 195.665 142.584C197.667 138.909 196.879 129.983 197.208 129.261C197.537 128.54 196.517 125.847 195.698 124.633C194.879 123.419 195.206 120.136 195.698 119.19C196.19 118.243 195.192 114.952 195.192 114.952C195.192 114.952 196.138 108.584 196.11 107.599C196.081 106.615 196.931 103.695 196.931 103.695C196.931 103.695 197.783 102.185 197.586 101.723C197.39 101.262 198.242 100.083 198.012 99.5581C197.783 99.0327 198.211 97.4283 198.637 96.4817C198.855 95.9942 199.127 94.6501 199.347 93.4598C199.548 92.3263 199.697 91.33 199.697 91.33L194.281 86.964L180.759 83.4143L175.673 81.7744L170.716 89.5836C170.365 90.1531 170.044 90.7399 169.753 91.3419C169.362 92.1535 169.014 93.0575 169.076 93.6207C169.158 94.3315 168.996 95.0493 168.617 95.6558C168.617 95.6558 165.661 105.008 165.727 107.701C165.794 110.394 164.677 116.298 164.677 116.298C164.677 116.298 163.463 120.103 164.191 121.19Z" fill="#3A3768"/>
<path d="M184.179 45.109C184.387 45.0238 198.664 39.1267 196.697 37.9553C195.53 37.2596 194.094 34.311 193.11 32.0037C192.423 30.3922 191.957 29.093 191.957 29.093C191.957 29.093 180.499 27.0579 184.6 34.0815C185.246 35.1589 185.733 36.3242 186.046 37.5412C187.215 42.3261 184.273 45.0214 184.179 45.109Z" fill="#FEC2BE"/>
<path opacity="0.1" d="M184.6 34.0815C185.246 35.1589 185.733 36.3242 186.046 37.5412C187.5 37.44 188.898 36.9437 190.09 36.1059C191.283 35.268 192.224 34.1205 192.811 32.787C192.925 32.5316 193.025 32.2701 193.11 32.0037C192.423 30.3922 191.957 29.093 191.957 29.093C191.957 29.093 180.499 27.0579 184.6 34.0815Z" fill="black"/>
<path d="M177.477 29.2893C177.478 31.3153 178.247 33.2658 179.629 34.7473C181.011 36.2288 182.903 37.1312 184.924 37.2725C186.945 37.4138 188.945 36.7835 190.52 35.5087C192.095 34.2339 193.127 32.4094 193.41 30.4032C193.693 28.3969 193.204 26.3581 192.043 24.6978C190.881 23.0376 189.134 21.8794 187.152 21.4568C185.171 21.0343 183.103 21.3787 181.365 22.4208C179.628 23.4628 178.35 25.1249 177.789 27.0719C177.582 27.7928 177.477 28.5392 177.477 29.2893Z" fill="#FEC2BE"/>
<path opacity="0.1" d="M169.753 91.3396C170.591 92.1015 170.912 93.5522 170.912 93.5522C170.912 93.5522 174.853 96.2428 174.59 94.5366C174.327 92.8304 176.625 85.937 176.625 85.937L176.362 95.3246C176.362 95.3246 188.964 94.733 189.884 93.8148C190.805 92.8967 196.186 91.136 196.186 91.136C196.186 91.136 197.842 92.4589 199.347 93.4622C199.549 92.3287 199.698 91.3325 199.698 91.3325L194.281 86.9664L180.759 83.4168L175.674 81.7769L170.716 89.586C170.366 90.154 170.044 90.7392 169.753 91.3396Z" fill="black"/>
<path d="M169.339 90.5984C170.389 91.2539 170.782 93.0264 170.782 93.0264C170.782 93.0264 174.72 95.717 174.457 94.0108C174.194 92.3046 176.492 85.4113 176.492 85.4113L176.23 94.7988C176.23 94.7988 188.833 94.212 189.749 93.2891C190.665 92.3662 196.051 90.5984 196.051 90.5984C196.051 90.5984 200.713 94.3398 201.565 94.0108C202.416 93.6819 200.055 87.3162 200.055 87.3162L197.629 50.0333C197.629 50.0333 198.285 38.9395 197.3 38.5443C197.148 38.4829 197.008 38.3956 196.886 38.2864C196.238 37.7042 196.044 36.521 195.987 35.5271C195.923 34.3439 194.347 34.9355 194.347 34.9355L195.265 36.1187L187.132 41.0645L187.061 41.1071C186.744 40.9403 186.418 40.7925 186.083 40.6646C185.373 40.3877 184.406 40.1274 183.778 40.3854C183.428 40.5636 183.131 40.8314 182.917 41.1616C182.453 41.8587 182.081 42.6127 181.81 43.4049L178.863 48.391C178.863 48.391 177.354 55.0169 177.354 55.2844C177.354 55.5518 176.895 61.5861 176.369 62.2416C175.844 62.8971 175.319 66.1794 175.515 67.1638C175.711 68.1482 175.186 71.8256 175.186 71.8256C173.021 73.5981 171.906 79.6348 171.906 79.6348C171.906 79.6348 168.484 86.4028 168.215 87.1837C167.945 87.9646 168.288 89.9524 169.339 90.5984Z" fill="white"/>
<path opacity="0.1" d="M187.132 41.3252C187.929 42.5084 190.234 44.1649 190.234 44.1649L196.886 38.5446C196.238 37.9625 196.044 36.7793 195.987 35.783C195.923 34.5998 194.347 35.1938 194.347 35.1938L194.539 35.4304C194.63 35.5484 194.696 35.6843 194.731 35.8293C194.766 35.9743 194.77 36.1251 194.743 36.2718C194.716 36.4186 194.659 36.558 194.574 36.6809C194.489 36.8038 194.38 36.9075 194.252 36.9851L187.132 41.3252Z" fill="black"/>
<path d="M187.132 41.0623C187.929 42.2455 190.234 43.902 190.234 43.902L196.886 38.2817C196.238 37.6996 196.044 36.5164 195.987 35.5225C195.923 34.3393 194.347 34.9309 194.347 34.9309L194.539 35.1675C194.63 35.2853 194.696 35.421 194.731 35.5658C194.766 35.7106 194.77 35.8613 194.743 36.0078C194.716 36.1544 194.659 36.2936 194.574 36.4163C194.489 36.539 194.38 36.6425 194.252 36.7199L187.132 41.0623Z" fill="white"/>
<path opacity="0.1" d="M184.056 41.9475C184.915 42.9745 186.133 44.1412 186.077 43.5567C186.02 42.9721 186.803 41.6824 187.302 41.105C186.522 40.8579 185.682 40.8812 184.917 41.1713C184.566 41.3488 184.269 41.6167 184.056 41.9475Z" fill="black"/>
<path d="M183.925 41.5524C184.784 42.5818 186.001 43.746 185.944 43.1639C185.887 42.5818 186.59 41.6328 187.089 41.0554C186.379 40.7785 185.414 40.5182 184.784 40.7786C184.434 40.9553 184.138 41.2225 183.925 41.5524Z" fill="white"/>
<path d="M186.076 47.0138C186.366 47.0138 186.601 46.7786 186.601 46.4885C186.601 46.1983 186.366 45.9631 186.076 45.9631C185.786 45.9631 185.551 46.1983 185.551 46.4885C185.551 46.7786 185.786 47.0138 186.076 47.0138Z" fill="#FF718D"/>
<path d="M182.094 61.1913C182.384 61.1913 182.619 60.9561 182.619 60.666C182.619 60.3758 182.384 60.1406 182.094 60.1406C181.804 60.1406 181.568 60.3758 181.568 60.666C181.568 60.9561 181.804 61.1913 182.094 61.1913Z" fill="#FF718D"/>
<path d="M177.588 75.5458C177.878 75.5458 178.113 75.3106 178.113 75.0205C178.113 74.7303 177.878 74.4951 177.588 74.4951C177.298 74.4951 177.062 74.7303 177.062 75.0205C177.062 75.3106 177.298 75.5458 177.588 75.5458Z" fill="#FF718D"/>
<path d="M177.455 91.1667C177.745 91.1667 177.98 90.9315 177.98 90.6413C177.98 90.3512 177.745 90.116 177.455 90.116C177.165 90.116 176.93 90.3512 176.93 90.6413C176.93 90.9315 177.165 91.1667 177.455 91.1667Z" fill="#FF718D"/>
<path d="M183.757 53.7087C184.047 53.7087 184.283 53.4734 184.283 53.1833C184.283 52.8932 184.047 52.658 183.757 52.658C183.467 52.658 183.232 52.8932 183.232 53.1833C183.232 53.4734 183.467 53.7087 183.757 53.7087Z" fill="#FF718D"/>
<path d="M180.212 68.2809C180.502 68.2809 180.738 68.0457 180.738 67.7556C180.738 67.4654 180.502 67.2302 180.212 67.2302C179.922 67.2302 179.687 67.4654 179.687 67.7556C179.687 68.0457 179.922 68.2809 180.212 68.2809Z" fill="#FF718D"/>
<path d="M176.755 82.5907C177.045 82.5907 177.28 82.3555 177.28 82.0654C177.28 81.7752 177.045 81.54 176.755 81.54C176.465 81.54 176.229 81.7752 176.229 82.0654C176.229 82.3555 176.465 82.5907 176.755 82.5907Z" fill="#FF718D"/>
<path d="M177.543 92.9176C177.834 92.9176 178.069 92.6824 178.069 92.3923C178.069 92.1021 177.834 91.8669 177.543 91.8669C177.253 91.8669 177.018 92.1021 177.018 92.3923C177.018 92.6824 177.253 92.9176 177.543 92.9176Z" fill="#FF718D"/>
<path opacity="0.1" d="M196.886 38.6013C196.886 38.6013 196.799 37.8133 197.935 39.1717C199.07 40.53 201.217 41.7085 201.217 41.7085C201.217 41.7085 206.075 45.1232 206.338 46.6969C206.6 48.2705 208.174 55.1 207.343 57.3742C206.513 59.6483 200.161 70.548 200.161 70.548C200.161 70.548 201.818 72.5193 201.432 74.8384C201.046 77.1574 200.557 80.3521 200.774 81.0526C200.992 81.753 200.512 83.5018 201.248 84.1147C201.984 84.7276 202.779 85.7712 200.46 87.1769C200.46 87.1769 200.022 88.3601 200.415 88.6228C200.807 88.8854 194.596 91.5973 192.132 90.1538C189.669 88.7103 185.269 77.1574 185.175 74.5757C185.08 71.9939 186.531 63.4535 187.319 61.4468C188.107 59.44 190.471 51.6001 191.477 49.8513C192.482 48.1025 196.886 38.6013 196.886 38.6013Z" fill="black"/>
<path d="M197.146 38.6013C197.146 38.6013 197.059 37.8133 198.197 39.1717C199.335 40.53 201.479 41.7085 201.479 41.7085C201.479 41.7085 206.337 45.1232 206.6 46.6969C206.863 48.2705 208.436 55.1 207.606 57.3742C206.775 59.6483 200.428 70.548 200.428 70.548C200.428 70.548 202.085 72.5193 201.699 74.8384C201.314 77.1574 200.824 80.3521 201.041 81.0526C201.259 81.753 200.779 83.5018 201.515 84.1147C202.251 84.7276 203.046 85.7712 200.727 87.1769C200.727 87.1769 200.289 88.3601 200.682 88.6228C201.074 88.8854 194.863 91.5973 192.399 90.1538C189.936 88.7103 185.537 77.1574 185.442 74.5757C185.347 71.9939 186.798 63.4535 187.586 61.4468C188.374 59.44 190.738 51.6001 191.744 49.8513C192.749 48.1025 197.146 38.6013 197.146 38.6013Z" fill="#4C4981"/>
<path opacity="0.1" d="M198.897 46.0508C198.897 46.0508 195.135 50.2086 195.265 52.9655C195.265 52.9655 195.222 48.5 198.897 46.0508Z" fill="black"/>
<path opacity="0.1" d="M193.692 52.8779C193.692 53.0081 191.153 62.4596 191.285 63.6428C191.418 64.826 190.54 68.3236 190.54 68.3236L189.356 68.0183C189.356 68.0183 190.275 63.16 190.45 61.3663C190.625 59.5725 193.692 52.8779 193.692 52.8779Z" fill="black"/>
<path opacity="0.1" d="M192.684 79.834C192.771 79.9641 198.68 86.6587 197.017 87.1415C195.353 87.6242 192.684 79.834 192.684 79.834Z" fill="black"/>
<path opacity="0.1" d="M197.542 78.1206C197.672 78.2082 199.908 82.9339 200.166 81.6702C200.424 80.4066 198.242 85.1276 197.892 81.6276L197.542 78.1206Z" fill="black"/>
<path opacity="0.1" d="M186.199 40.0993C186.199 40.0993 183.76 38.6108 180.695 42.4184C180.695 42.4184 178.464 43.6868 177.808 43.9945C177.153 44.3021 176.407 52.4402 176.407 52.4402C176.407 52.4402 174.964 55.9401 175.357 57.954C175.749 59.9678 174.221 66.8801 174.221 66.8801C174.221 66.8801 171.679 79.3038 171.764 79.6588C171.849 80.0137 174.346 75.7637 174.303 73.6623C174.261 71.5609 176.402 64.9988 176.71 64.6036C177.018 64.2084 179.117 52.9656 179.117 52.9656C179.117 52.9656 180.823 48.1949 181.916 46.6188C183.01 45.0428 184.368 42.0682 184.936 41.5428C185.345 41.189 185.801 40.8943 186.292 40.6673L186.199 40.0993Z" fill="black"/>
<path d="M186.23 40.0993C186.23 40.0993 183.495 38.6108 180.433 42.4184C180.433 42.4184 178.199 43.6868 177.543 43.9945C176.888 44.3021 176.142 52.4402 176.142 52.4402C176.142 52.4402 174.699 55.9401 175.092 57.954C175.484 59.9678 173.956 66.8801 173.956 66.8801C173.956 66.8801 171.417 79.3086 171.504 79.6588C171.592 80.009 174.086 75.7637 174.043 73.6623C174.001 71.5609 176.142 64.9988 176.45 64.6036C176.758 64.2084 178.864 52.9656 178.864 52.9656C178.864 52.9656 180.57 48.1949 181.663 46.6188C182.756 45.0428 184.115 42.0682 184.683 41.5428C185.251 41.0175 186.301 40.6673 186.301 40.6673L186.23 40.0993Z" fill="#4C4981"/>
<path d="M174.218 67.448C174.218 67.448 169.011 64.0357 166.494 65.7206C163.976 67.4054 159.868 69.7908 163.912 71.5183C167.956 73.2458 173.56 72.9145 173.56 72.9145L174.218 67.448Z" fill="#FEC2BE"/>
<path opacity="0.1" d="M177.839 100.379C178.616 102.035 179.259 110.408 179.69 113.061C180.312 111.996 181.065 110.72 181.318 110.323C181.64 109.816 182.416 107.663 182.849 106.42C182.355 105.218 180.989 101.773 180.989 100.504C180.989 98.9614 178.495 97.0256 178.495 97.0256C178.495 97.0256 176.921 98.41 177.839 100.379Z" fill="black"/>
<path opacity="0.1" d="M194.577 126.076C194.577 126.076 188.8 123.615 187.094 125.366C185.388 127.117 194.577 126.076 194.577 126.076Z" fill="black"/>
<path opacity="0.1" d="M191.328 127.06C191.328 127.06 197.17 130.343 195.168 130.892C193.166 131.441 191.328 127.06 191.328 127.06Z" fill="black"/>
<path opacity="0.1" d="M173.868 124.207C173.868 124.207 176.362 124.37 175.411 124.862C174.459 125.354 173.868 124.207 173.868 124.207Z" fill="black"/>
<path opacity="0.1" d="M170.749 124.961C170.782 125.125 178.002 127.456 176.592 128.511C175.181 129.566 170.749 124.961 170.749 124.961Z" fill="black"/>
<path opacity="0.1" d="M193.722 145.048C192.641 144.882 186.602 142.092 188.964 144.101C191.325 146.11 193.722 145.048 193.722 145.048Z" fill="black"/>
<path opacity="0.1" d="M190.736 147.246C190.736 147.246 190.21 149.281 188.209 149.019C186.207 148.756 190.736 147.246 190.736 147.246Z" fill="black"/>
<path opacity="0.1" d="M192.411 151.38C192.049 151.283 187.749 149.314 187.652 150.233C187.555 151.151 191.753 152.76 192.082 152.268C192.271 152.008 192.384 151.701 192.411 151.38Z" fill="black"/>
<path opacity="0.1" d="M178.494 149.018C177.969 148.985 173.052 147.409 172.062 148.82L178.494 149.018Z" fill="black"/>
<path opacity="0.1" d="M174.031 149.937C174.031 149.937 173.177 149.182 172.325 149.575C171.473 149.968 174.031 149.937 174.031 149.937Z" fill="black"/>
<path opacity="0.1" d="M184.928 158.077C184.873 158.356 184.738 158.613 184.54 158.816C184.342 159.02 184.089 159.162 183.812 159.225L184.928 158.077Z" fill="black"/>
<path d="M159.885 161.16C160.214 162.507 164.809 162.637 167.008 162.277C169.206 161.918 173.769 160.602 173.769 160.602C173.769 160.602 178.561 160.143 179.971 159.554C181.381 158.964 180.267 157.452 180.267 157.452C180.267 157.452 180.267 157.4 180.267 157.31C180.3 156.761 180.399 154.771 180.061 154.234C179.668 153.609 179.898 151.574 179.898 151.574C179.898 151.574 173.104 152.887 172.971 152.265C172.839 151.643 171.788 150.755 171.298 150.559C170.808 150.362 170.444 152.199 170.444 152.199C170.444 152.199 167.368 154.826 167.162 155.777C166.956 156.728 164.795 157.22 164.795 157.22C164.795 157.22 161.513 158.139 160.659 158.598C160.411 158.714 160.197 158.893 160.039 159.116C159.88 159.34 159.783 159.601 159.755 159.873C159.719 160.307 159.763 160.743 159.885 161.16Z" fill="#CA8496"/>
<path opacity="0.1" d="M159.885 161.161C160.214 162.507 164.809 162.637 167.008 162.278C169.206 161.918 173.769 160.602 173.769 160.602C173.769 160.602 178.561 160.143 179.971 159.554C181.381 158.965 180.267 157.452 180.267 157.452C180.267 157.452 180.267 157.4 180.267 157.31L173.404 158.832C173.404 158.832 170.023 160.276 167.857 160.276C165.964 160.276 161.728 161.049 159.764 159.876C159.725 160.308 159.766 160.743 159.885 161.161Z" fill="black"/>
<path opacity="0.1" d="M169.173 155.976C169.173 155.976 169.502 158.141 170.816 158.863L169.173 155.976Z" fill="black"/>
<path opacity="0.1" d="M177.789 27.0721C177.914 27.1382 178.045 27.1928 178.18 27.2354C178.795 27.401 179.396 26.9846 179.942 26.6533C180.489 26.322 181.244 26.0759 181.717 26.5065C182.335 27.0674 181.888 28.2648 182.524 28.8067C182.927 29.1498 183.565 29.0315 184.013 29.3131C184.46 29.5947 184.595 30.2124 184.708 30.7448C184.822 31.2772 185.049 31.8854 185.57 32.0416C186.09 32.1978 186.576 31.8547 187.089 31.8736C187.196 31.8736 187.326 31.8902 187.392 31.8144C187.439 31.7451 187.457 31.6601 187.442 31.5778C187.378 30.9418 187.435 30.2994 187.61 29.6846C187.82 29.0788 188.32 28.5322 188.944 28.4352C189.865 28.2932 190.639 29.1001 191.181 29.855C191.75 30.6544 192.269 31.4891 192.733 32.354C192.762 32.41 192.788 32.4676 192.811 32.5267C193.256 31.5225 193.489 30.4375 193.496 29.3393C193.504 28.2411 193.285 27.1531 192.854 26.1429C192.423 25.1328 191.789 24.222 190.991 23.4674C190.194 22.7127 189.249 22.1302 188.216 21.7561C187.184 21.3819 186.085 21.2242 184.989 21.2927C183.893 21.3611 182.823 21.6543 181.845 22.154C180.867 22.6537 180.002 23.3492 179.305 24.1973C178.607 25.0455 178.091 26.028 177.789 27.0839V27.0721Z" fill="black"/>
<path d="M191.181 29.7225C190.639 28.9606 189.865 28.156 188.942 28.3027C188.311 28.3997 187.823 28.9464 187.61 29.5498C187.435 30.1645 187.379 30.8071 187.445 31.4429C187.458 31.5256 187.439 31.6101 187.392 31.6796C187.319 31.7577 187.196 31.7458 187.09 31.7411C186.576 31.7222 186.065 32.0558 185.57 31.9091C185.076 31.7624 184.823 31.1448 184.709 30.6123C184.595 30.0799 184.472 29.4717 184.013 29.1806C183.554 28.8896 182.927 29.0173 182.525 28.6718C181.888 28.1323 182.338 26.9325 181.718 26.3717C181.245 25.9434 180.49 26.1895 179.943 26.5208C179.396 26.8521 178.795 27.2662 178.178 27.1005C177.969 27.0438 177.782 26.9254 177.579 26.8473C176.606 26.4758 175.345 27.1053 174.545 26.438C174.255 26.1476 174.046 25.7861 173.939 25.3896C173.72 24.8535 173.571 24.2911 173.497 23.7166C173.426 23.1358 173.586 22.5505 173.942 22.0861C174.462 21.4732 175.343 21.3194 176.008 20.8674C176.573 20.4793 176.954 19.8901 177.328 19.3103C177.702 18.7305 178.064 18.1271 178.611 17.7177C179.157 17.3083 179.924 17.1048 180.535 17.4148C180.727 17.5491 180.941 17.6507 181.166 17.7153C181.413 17.7185 181.655 17.652 181.865 17.5236C184.141 16.4517 186.791 16.641 189.288 16.9604C190.287 17.0882 191.299 17.2373 192.211 17.6704C193.122 18.1034 193.926 18.8536 194.182 19.8285C194.385 20.6 194.229 21.4401 194.475 22.195C194.641 22.7108 194.982 23.1415 195.185 23.6598C195.718 25.0441 195.081 26.5634 194.811 28.0211C194.518 29.6137 194.664 31.3341 193.988 32.8439C193.855 33.1397 193.706 33.6579 193.372 33.4639C193.136 33.3195 192.885 32.4794 192.743 32.2168C192.276 31.3529 191.754 30.5197 191.181 29.7225Z" fill="#9A5E7F"/>
<path opacity="0.1" d="M205.604 55.3723L206.787 58.7421C206.787 58.7421 203.986 69.1543 202.672 71.3433C201.359 73.5322 199.435 76.3317 199.435 76.3317C199.435 76.3317 196.198 77.9527 192.433 77.2073C188.668 76.4619 177.68 74.4954 177.68 74.4954C177.68 74.4954 176.76 74.6705 176.28 73.97C175.799 73.2696 173.298 72.9146 173.298 72.9146C173.298 72.9146 170.411 68.7142 173.956 66.963C173.956 66.963 174.393 67.9262 176.275 67.2707C178.156 66.6152 178.724 67.7937 178.724 67.7937C178.724 67.7937 181.8 68.4066 183.495 68.1888C185.189 67.9711 189.446 67.8812 189.884 67.531C189.995 67.4337 190.14 67.3839 190.287 67.3923C190.435 67.4007 190.573 67.4667 190.672 67.5759C190.672 67.5759 191.72 67.1831 192.071 66.7879C192.421 66.3927 192.904 67.2257 192.904 67.2257C192.904 67.2257 193.517 66.8755 193.341 66.4377C193.166 65.9999 193.909 64.3387 193.909 64.3387C193.909 64.3387 194.26 63.243 194.042 62.3674C193.824 61.4919 195.135 58.3445 195.135 58.3445C195.152 57.8135 195.093 57.2828 194.96 56.7685C194.74 55.9828 196.617 54.4021 196.617 54.4021C196.617 54.4021 198.453 45.4736 202.348 48.4056C206.243 51.3376 205.604 55.3723 205.604 55.3723Z" fill="black"/>
<path d="M205.855 55.3723L207.038 58.7421C207.038 58.7421 204.236 69.1543 202.923 71.3433C201.609 73.5322 199.688 76.3317 199.688 76.3317C199.688 76.3317 196.45 77.9527 192.685 77.2073C188.92 76.4619 177.938 74.4954 177.938 74.4954C177.938 74.4954 177.02 74.6705 176.539 73.97C176.059 73.2696 173.56 72.9146 173.56 72.9146C173.56 72.9146 170.673 68.7142 174.218 66.963C174.218 66.963 174.656 67.9262 176.537 67.2707C178.418 66.6152 178.986 67.7937 178.986 67.7937C178.986 67.7937 182.063 68.4066 183.757 68.1888C185.451 67.9711 189.708 67.8812 190.146 67.531C190.257 67.4337 190.402 67.3839 190.549 67.3923C190.697 67.4007 190.835 67.4667 190.934 67.5759C190.934 67.5759 191.983 67.1831 192.333 66.7879C192.683 66.3927 193.166 67.2257 193.166 67.2257C193.166 67.2257 193.779 66.8755 193.604 66.4377C193.428 65.9999 194.172 64.3387 194.172 64.3387C194.172 64.3387 194.522 63.243 194.302 62.3674C194.082 61.4919 195.397 58.3445 195.397 58.3445C195.414 57.8135 195.355 57.2828 195.222 56.7685C195.002 55.9828 196.879 54.4021 196.879 54.4021C196.879 54.4021 198.715 45.4736 202.61 48.4056C206.505 51.3376 205.855 55.3723 205.855 55.3723Z" fill="#4C4981"/>
<path opacity="0.1" d="M177.413 69.4617C177.456 69.7693 178.419 70.9927 178.069 71.2128C177.718 71.4329 177.15 71.3004 177.676 72.0008C178.201 72.7013 178.149 73.7496 177.806 73.6195C177.463 73.4893 176.888 71.9133 176.888 71.3004C176.888 70.6875 177.413 69.4617 177.413 69.4617Z" fill="black"/>
<path opacity="0.1" d="M190.409 68.7612C190.409 68.7612 190.672 71.8257 192.825 72.7013C194.979 73.5769 190.409 68.7612 190.409 68.7612Z" fill="black"/>
<path opacity="0.1" d="M194.873 67.7083C195.003 67.7532 197.935 69.3293 196.624 70.2474C195.313 71.1656 194.873 67.7083 194.873 67.7083Z" fill="black"/>
<path opacity="0.1" d="M195.048 65.5239C195.048 65.5239 199.336 66.3995 197.888 67.1426C196.439 67.8856 195.048 65.5239 195.048 65.5239Z" fill="black"/>
<g opacity="0.1">
<path opacity="0.1" d="M187.619 28.7995C187.832 28.1961 188.329 27.6494 188.952 27.5524C189.875 27.4104 190.648 28.2173 191.19 28.9722C191.76 29.7716 192.278 30.6063 192.743 31.4712C192.885 31.7338 193.126 32.5716 193.372 32.7159C193.706 32.9123 193.845 32.3941 193.987 32.0983C194.664 30.5932 194.517 28.8681 194.811 27.2755C194.984 26.3455 195.303 25.3824 195.374 24.4595C195.476 25.6048 195.026 26.8093 194.811 27.9736C194.517 29.5662 194.664 31.2866 193.987 32.7987C193.855 33.0945 193.706 33.6128 193.372 33.4164C193.135 33.272 192.885 32.4343 192.743 32.1716C192.278 31.3067 191.76 30.4721 191.19 29.6727C190.648 28.9131 189.875 28.1061 188.952 28.2528C188.32 28.3499 187.832 28.8965 187.619 29.4999C187.514 29.8179 187.455 30.1495 187.444 30.4844C187.397 29.9167 187.457 29.3454 187.619 28.7995Z" fill="black"/>
<path opacity="0.1" d="M173.939 24.6395C174.045 25.0369 174.254 25.3993 174.545 25.6902C175.345 26.3576 176.606 25.7281 177.579 26.0996C177.782 26.1754 177.969 26.296 178.177 26.3528C178.795 26.5161 179.398 26.102 179.943 25.7707C180.487 25.4394 181.247 25.1957 181.717 25.624C182.337 26.1848 181.888 27.3822 182.524 27.9241C182.927 28.2673 183.566 28.1608 184.013 28.4329C184.46 28.7051 184.595 29.3298 184.709 29.8528C184.822 30.3758 185.047 30.9934 185.57 31.1496C186.093 31.3058 186.576 30.965 187.089 30.9839C187.196 30.9839 187.326 31.0005 187.392 30.9224C187.408 30.9025 187.42 30.8801 187.428 30.8561C187.428 31.0336 187.428 31.2087 187.444 31.3838C187.457 31.4665 187.438 31.5509 187.392 31.6205C187.319 31.6962 187.196 31.6844 187.089 31.6797C186.576 31.6631 186.065 31.9944 185.57 31.8477C185.075 31.701 184.822 31.0857 184.709 30.5509C184.595 30.0161 184.472 29.4103 184.013 29.131C183.554 28.8518 182.927 28.9654 182.524 28.6222C181.888 28.0803 182.337 26.8805 181.717 26.3221C181.244 25.8914 180.489 26.1375 179.943 26.4688C179.396 26.8001 178.795 27.2142 178.177 27.0509C177.969 26.9941 177.782 26.8734 177.579 26.7977C176.606 26.4262 175.345 27.0557 174.545 26.3883C174.254 26.0971 174.046 25.7348 173.939 25.3376C173.72 24.8023 173.571 24.2407 173.496 23.6669C173.48 23.4714 173.485 23.2746 173.511 23.0801C173.593 23.6146 173.737 24.1379 173.939 24.6395Z" fill="black"/>
</g>
<path d="M23.6122 156.979C23.6122 156.979 13.607 156.376 14.7855 163.385C14.7855 163.385 14.5488 164.625 15.6752 165.188C15.6752 165.188 15.6918 164.668 16.7023 164.843C17.061 164.903 17.4255 164.921 17.7884 164.897C18.2789 164.863 18.7449 164.671 19.116 164.348C19.116 164.348 21.9297 163.186 23.023 158.588C23.023 158.588 23.8323 157.587 23.7992 157.33L22.1119 158.039C22.1119 158.039 22.6893 159.258 22.2349 160.271C22.2349 160.271 22.1805 158.084 21.8563 158.141C21.7901 158.141 20.9784 158.562 20.9784 158.562C20.9784 158.562 21.9723 160.692 21.215 162.228C21.215 162.228 21.499 159.613 20.6613 158.716L19.4781 159.41C19.4781 159.41 20.6376 161.601 19.852 163.39C19.852 163.39 20.0531 160.647 19.2272 159.58L18.1505 160.42C18.1505 160.42 19.2414 162.578 18.5765 164.062C18.5765 164.062 18.4889 160.87 17.9186 160.628C17.9186 160.628 16.972 161.459 16.8324 161.812C16.8324 161.812 17.5778 163.38 17.114 164.209C17.114 164.209 16.83 162.079 16.5981 162.079C16.5981 162.079 15.6516 163.487 15.5616 164.445C15.5616 164.445 15.6019 163.009 16.371 161.935C15.8296 162.037 15.3302 162.296 14.9345 162.68C14.9345 162.68 15.0789 161.684 16.6029 161.596C16.6029 161.596 17.3791 160.527 17.5849 160.463C17.5849 160.463 16.0704 160.335 15.1523 160.742C15.1523 160.742 15.9616 159.795 17.8642 160.231L18.9267 159.362C18.9267 159.362 16.9318 159.09 16.087 159.391C16.087 159.391 17.0596 158.56 19.213 159.166L20.3702 158.473C20.3702 158.473 18.6711 158.106 17.6583 158.236C17.6583 158.236 18.7255 157.661 20.711 158.286L21.5369 157.914C21.5369 157.914 20.2921 157.677 19.9277 157.63C19.5633 157.583 19.542 157.49 19.542 157.49C20.3312 157.359 21.1414 157.449 21.8824 157.751C21.8824 157.751 23.6406 157.088 23.6122 156.979Z" fill="#4D7CFE"/>
<path opacity="0.1" d="M16.7214 166.996C20.6318 166.996 23.8018 166.46 23.8018 165.799C23.8018 165.138 20.6318 164.601 16.7214 164.601C12.8111 164.601 9.64111 165.138 9.64111 165.799C9.64111 166.46 12.8111 166.996 16.7214 166.996Z" fill="#4D7CFE"/>
<path d="M42.7946 138.505C42.7946 138.505 37.1531 138.164 37.8251 142.118C37.7912 142.319 37.8214 142.525 37.9115 142.707C38.0016 142.889 38.1469 143.039 38.3268 143.133C38.3268 143.133 38.3268 142.84 38.9066 142.939C39.1091 142.972 39.3147 142.983 39.5195 142.97C39.7955 142.949 40.0576 142.841 40.2673 142.66C40.2673 142.66 41.8481 142.014 42.4728 139.411C42.4728 139.411 42.9295 138.845 42.9106 138.701L41.964 139.106C41.964 139.106 42.2882 139.794 42.0326 140.365C42.0326 140.365 42.0019 139.132 41.8197 139.16C41.7818 139.16 41.3251 139.397 41.3251 139.397C41.3251 139.397 41.8836 140.58 41.4623 141.463C41.4623 141.463 41.6209 139.988 41.15 139.482L40.4755 139.884C40.4755 139.884 41.1287 141.12 40.6861 142.128C40.6861 142.128 40.7997 140.58 40.3335 139.979L39.7277 140.452C39.7277 140.452 40.3406 141.671 39.9644 142.506C39.9644 142.506 39.9147 140.705 39.5929 140.571C39.363 140.765 39.1573 140.987 38.98 141.231C38.98 141.231 39.4012 142.116 39.1409 142.582C39.1409 142.582 38.9799 141.382 38.8498 141.378C38.8498 141.378 38.3197 142.17 38.2653 142.717C38.2898 142.212 38.4465 141.722 38.7196 141.297C38.4148 141.356 38.1337 141.503 37.9103 141.718C37.9103 141.718 37.9932 141.155 38.8569 141.108C38.8569 141.108 39.2923 140.504 39.4106 140.469C39.4106 140.469 38.5564 140.395 38.0381 140.625C38.0381 140.625 38.4948 140.095 39.5668 140.336L40.1655 139.846C40.1655 139.846 39.0415 139.693 38.5658 139.863C38.5658 139.863 39.1148 139.39 40.3288 139.735L40.9796 139.347C40.478 139.236 39.964 139.191 39.4509 139.215C39.4509 139.215 40.0543 138.888 41.1713 139.241L41.6445 139.032C41.6445 139.032 40.9346 138.893 40.7382 138.871C40.5418 138.85 40.5205 138.793 40.5205 138.793C40.9658 138.719 41.4228 138.77 41.841 138.94C41.841 138.94 42.8207 138.566 42.7946 138.505Z" fill="#4D7CFE"/>
<path opacity="0.1" d="M38.9179 144.151C41.1227 144.151 42.9101 143.849 42.9101 143.476C42.9101 143.104 41.1227 142.802 38.9179 142.802C36.7131 142.802 34.9258 143.104 34.9258 143.476C34.9258 143.849 36.7131 144.151 38.9179 144.151Z" fill="#4D7CFE"/>
<path d="M9.51089 141.936C9.51089 141.936 2.70033 141.524 3.51201 146.297C3.4708 146.539 3.50721 146.788 3.61601 147.008C3.72482 147.228 3.90046 147.409 4.11782 147.523C4.11782 147.523 4.11781 147.168 4.81591 147.286C5.06051 147.328 5.30917 147.34 5.5566 147.322C5.89074 147.3 6.20834 147.168 6.46057 146.948C6.46057 146.948 8.37501 146.157 9.12043 143.029C9.12043 143.029 9.66944 142.348 9.64814 142.172L8.4815 142.665C8.4815 142.665 8.87196 143.493 8.56432 144.182C8.56432 144.182 8.52646 142.695 8.30638 142.731C8.26142 142.731 7.71004 143.017 7.71004 143.017C7.71004 143.017 8.38447 144.461 7.87569 145.511C7.87569 145.511 8.06737 143.732 7.49706 143.121L6.69011 143.595C6.69011 143.595 7.47813 145.086 6.94332 146.302C6.94332 146.302 7.08058 144.435 6.51973 143.699L5.78614 144.271C5.78614 144.271 6.52683 145.741 6.07485 146.751C6.07485 146.751 6.01569 144.577 5.62759 144.413C5.62759 144.413 4.98629 144.979 4.8869 145.211C4.8869 145.211 5.39568 146.278 5.08095 146.841C5.08095 146.841 4.8869 145.393 4.72835 145.386C4.72835 145.386 4.08942 146.347 4.01843 147.005C4.0501 146.397 4.24018 145.808 4.5698 145.296C4.20063 145.365 3.85993 145.541 3.5901 145.803C3.5901 145.803 3.68949 145.123 4.72835 145.064C4.72835 145.064 5.25607 144.338 5.39568 144.293C5.39568 144.293 4.36629 144.205 3.73919 144.482C3.73919 144.482 4.29056 143.843 5.585 144.134L6.30912 143.543C6.30912 143.543 4.95079 143.358 4.37575 143.564C4.37575 143.564 5.03835 142.996 6.50553 143.41L7.29355 142.937C7.29355 142.937 6.13637 142.686 5.44774 142.776C5.44774 142.776 6.17424 142.383 7.52546 142.809L8.08867 142.556C8.08867 142.556 7.24149 142.39 6.99302 142.364C6.74454 142.338 6.73035 142.269 6.73035 142.269C7.26716 142.178 7.81873 142.239 8.32295 142.445C8.32295 142.445 9.53219 142.014 9.51089 141.936Z" fill="#4D7CFE"/>
<path opacity="0.1" d="M4.8204 148.753C7.48263 148.753 9.6408 148.389 9.6408 147.939C9.6408 147.49 7.48263 147.125 4.8204 147.125C2.15817 147.125 0 147.49 0 147.939C0 148.389 2.15817 148.753 4.8204 148.753Z" fill="#4D7CFE"/>
<path opacity="0.1" d="M143.812 178.774C147.723 178.774 150.893 178.238 150.893 177.577C150.893 176.915 147.723 176.379 143.812 176.379C139.902 176.379 136.732 176.915 136.732 177.577C136.732 178.238 139.902 178.774 143.812 178.774Z" fill="#4D7CFE"/>
<path d="M139.058 172.015C139.058 172.015 143.098 171.89 144.314 171.024C145.53 170.158 150.526 169.131 150.829 170.513C151.132 171.895 156.899 177.425 152.338 177.463C147.778 177.501 141.744 176.753 140.528 176.012C139.311 175.272 139.058 172.015 139.058 172.015Z" fill="#A8A8A8"/>
<path opacity="0.2" d="M152.419 176.978C147.859 177.016 141.825 176.268 140.611 175.529C139.686 174.964 139.316 172.943 139.191 172.011H139.056C139.056 172.011 139.312 175.267 140.526 176.008C141.74 176.748 147.776 177.494 152.337 177.458C153.652 177.458 154.107 176.985 154.083 176.275C153.903 176.708 153.399 176.971 152.419 176.978Z" fill="black"/>
<defs>
<linearGradient id="paint0_linear" x1="168.808" y1="48.7297" x2="168.808" y2="41.1737" gradientUnits="userSpaceOnUse">
<stop stop-color="#808080" stop-opacity="0.25"/>
<stop offset="0.54" stop-color="#808080" stop-opacity="0.12"/>
<stop offset="1" stop-color="#808080" stop-opacity="0.1"/>
</linearGradient>
<linearGradient id="paint1_linear" x1="70514" y1="121438" x2="70514" y2="25872.3" gradientUnits="userSpaceOnUse">
<stop stop-color="#808080" stop-opacity="0.25"/>
<stop offset="0.54" stop-color="#808080" stop-opacity="0.12"/>
<stop offset="1" stop-color="#808080" stop-opacity="0.1"/>
</linearGradient>
</defs>
</svg>
