<svg width="24" height="24" viewBox="0 0 24 24" fill="none" xmlns="http://www.w3.org/2000/svg">
<path fill-rule="evenodd" clip-rule="evenodd" d="M3 3C2.44772 3 2 3.44772 2 4V11C2 11.5523 2.44772 12 3 12H21C21.5523 12 22 11.5523 22 11V4C22 3.44772 21.5523 3 21 3H3ZM5 8C4.44772 8 4 8.44772 4 9C4 9.55229 4.44772 10 5 10H19C19.5523 10 20 9.55229 20 9C20 8.44772 19.5523 8 19 8H5Z" fill="#3A3768"/>
<path opacity="0.3" fill-rule="evenodd" clip-rule="evenodd" d="M6.70901 15.7057L5.29187 14.2944C3.46506 16.1288 3.47122 19.0968 5.30562 20.9236C5.4627 21.0801 5.63068 21.2252 5.8083 21.3578L6.40204 21.8013L7.59884 20.1989L7.0051 19.7554C6.90327 19.6794 6.80696 19.5962 6.71689 19.5065C5.66516 18.4591 5.66163 16.7574 6.70901 15.7057ZM17.2919 14.2944L18.709 15.7057C17.6616 16.7574 17.6652 18.4591 18.7169 19.5065C18.807 19.5962 18.9033 19.6794 19.0051 19.7554L19.5988 20.1989L18.402 21.8013L17.8083 21.3578C17.6307 21.2252 17.4627 21.0801 17.3056 20.9236C15.4712 19.0968 15.4651 16.1288 17.2919 14.2944ZM11.2919 15.2944L12.709 16.7057C11.6616 17.7574 11.6652 19.4591 12.7169 20.5065C12.807 20.5962 12.9033 20.6794 13.0051 20.7554L13.5988 21.1989L12.402 22.8013L11.8083 22.3578C11.6307 22.2252 11.4627 22.0801 11.3056 21.9236C9.47122 20.0968 9.46506 17.1288 11.2919 15.2944Z" fill="#504F92"/>
</svg>
