<svg width="40" height="40" viewBox="0 0 40 40" fill="none" xmlns="http://www.w3.org/2000/svg">
<path fill-rule="evenodd" clip-rule="evenodd" d="M1.81818 20C1.81818 30.0415 9.95846 38.1818 20 38.1818C30.0415 38.1818 38.1818 30.0415 38.1818 20C38.1818 9.95846 30.0415 1.81818 20 1.81818C9.95846 1.81818 1.81818 9.95846 1.81818 20ZM20 0C8.95431 0 0 8.95431 0 20C0 31.0457 8.95431 40 20 40C31.0457 40 40 31.0457 40 20C40 8.95431 31.0457 0 20 0Z" fill="#9997B1"/>
<path d="M27.2828 19.9997L19.9959 27.2866L12.709 19.9997L14.03 18.7213L19.101 23.7923V12.7128H20.8908V23.7923L26.0044 18.7213L27.2828 19.9997Z" fill="#9997B1"/>
</svg>
