<svg width="920" height="46" viewBox="0 0 920 46" fill="none" xmlns="http://www.w3.org/2000/svg">
<path d="M68.8308 20.344C69.0828 20.344 69.2868 20.428 69.4428 20.596C69.6108 20.764 69.6948 20.962 69.6948 21.19C69.6948 21.43 69.6108 21.628 69.4428 21.784C69.2868 21.928 69.0828 22 68.8308 22H62.5668C62.3268 22 62.1228 21.916 61.9548 21.748C61.7868 21.58 61.7028 21.376 61.7028 21.136V10.264C61.7028 10.024 61.7868 9.82 61.9548 9.652C62.1228 9.484 62.3268 9.4 62.5668 9.4H68.8308C69.0828 9.4 69.2868 9.478 69.4428 9.634C69.6108 9.79 69.6948 9.994 69.6948 10.246C69.6948 10.486 69.6108 10.684 69.4428 10.84C69.2868 10.984 69.0828 11.056 68.8308 11.056H63.4848V14.728H68.0208C68.2728 14.728 68.4768 14.806 68.6328 14.962C68.8008 15.118 68.8848 15.316 68.8848 15.556C68.8848 15.808 68.8008 16.006 68.6328 16.15C68.4768 16.294 68.2728 16.366 68.0208 16.366H63.4848V20.344H68.8308ZM65.8248 8.662C65.6448 8.662 65.5008 8.62 65.3928 8.536C65.2968 8.44 65.2488 8.314 65.2488 8.158C65.2488 8.002 65.3208 7.864 65.4648 7.744L67.0488 6.412C67.3008 6.208 67.5408 6.106 67.7688 6.106C67.9728 6.106 68.1528 6.178 68.3088 6.322C68.4768 6.466 68.5608 6.64 68.5608 6.844C68.5608 7 68.5128 7.15 68.4168 7.294C68.3208 7.438 68.1888 7.552 68.0208 7.636L66.2388 8.554C66.0948 8.626 65.9568 8.662 65.8248 8.662ZM74.5084 14.242V19.606C74.5084 20.206 74.7784 20.506 75.3184 20.506C75.4024 20.506 75.5164 20.488 75.6604 20.452C75.8044 20.404 75.9184 20.38 76.0024 20.38C76.1584 20.38 76.2904 20.446 76.3984 20.578C76.5064 20.71 76.5604 20.878 76.5604 21.082C76.5604 21.334 76.4164 21.55 76.1284 21.73C75.8404 21.91 75.5164 22 75.1564 22C74.7604 22 74.3944 21.958 74.0584 21.874C73.7344 21.79 73.4404 21.58 73.1764 21.244C72.9244 20.896 72.7984 20.374 72.7984 19.678V14.242H71.7544C71.5264 14.242 71.3344 14.17 71.1784 14.026C71.0344 13.87 70.9624 13.678 70.9624 13.45C70.9624 13.222 71.0344 13.036 71.1784 12.892C71.3344 12.748 71.5264 12.676 71.7544 12.676H72.7984V11.164C72.7984 10.924 72.8764 10.72 73.0324 10.552C73.2004 10.384 73.4104 10.3 73.6624 10.3C73.9024 10.3 74.1004 10.384 74.2564 10.552C74.4244 10.72 74.5084 10.924 74.5084 11.164V12.676H76.0024C76.2304 12.676 76.4164 12.754 76.5604 12.91C76.7164 13.054 76.7944 13.24 76.7944 13.468C76.7944 13.696 76.7164 13.882 76.5604 14.026C76.4164 14.17 76.2304 14.242 76.0024 14.242H74.5084ZM86.6403 12.442C86.8923 12.442 87.0963 12.526 87.2523 12.694C87.4203 12.85 87.5043 13.06 87.5043 13.324V21.136C87.5043 21.376 87.4203 21.58 87.2523 21.748C87.0963 21.916 86.8923 22 86.6403 22C86.3883 22 86.1843 21.922 86.0283 21.766C85.8723 21.598 85.7943 21.388 85.7943 21.136V20.668C85.4823 21.088 85.0563 21.448 84.5163 21.748C83.9763 22.036 83.3943 22.18 82.7703 22.18C81.9543 22.18 81.2103 21.97 80.5383 21.55C79.8783 21.13 79.3563 20.548 78.9723 19.804C78.6003 19.048 78.4143 18.202 78.4143 17.266C78.4143 16.33 78.6003 15.49 78.9723 14.746C79.3563 13.99 79.8783 13.402 80.5383 12.982C81.1983 12.562 81.9243 12.352 82.7163 12.352C83.3523 12.352 83.9403 12.484 84.4803 12.748C85.0323 13.012 85.4703 13.348 85.7943 13.756V13.324C85.7943 13.072 85.8723 12.862 86.0283 12.694C86.1843 12.526 86.3883 12.442 86.6403 12.442ZM82.9683 20.596C83.5323 20.596 84.0303 20.452 84.4623 20.164C84.9063 19.876 85.2483 19.48 85.4883 18.976C85.7403 18.472 85.8663 17.902 85.8663 17.266C85.8663 16.642 85.7403 16.078 85.4883 15.574C85.2483 15.07 84.9063 14.674 84.4623 14.386C84.0303 14.086 83.5323 13.936 82.9683 13.936C82.4043 13.936 81.9003 14.08 81.4563 14.368C81.0243 14.656 80.6823 15.052 80.4303 15.556C80.1903 16.06 80.0703 16.63 80.0703 17.266C80.0703 17.902 80.1903 18.472 80.4303 18.976C80.6823 19.48 81.0243 19.876 81.4563 20.164C81.9003 20.452 82.4043 20.596 82.9683 20.596ZM94.9809 12.406C95.7969 12.406 96.5349 12.616 97.1949 13.036C97.8549 13.444 98.3709 14.02 98.7429 14.764C99.1269 15.508 99.3189 16.348 99.3189 17.284C99.3189 18.22 99.1269 19.06 98.7429 19.804C98.3709 20.536 97.8549 21.112 97.1949 21.532C96.5349 21.952 95.8089 22.162 95.0169 22.162C94.3929 22.162 93.8109 22.024 93.2709 21.748C92.7309 21.472 92.2929 21.136 91.9569 20.74V24.736C91.9569 24.976 91.8729 25.18 91.7049 25.348C91.5489 25.516 91.3449 25.6 91.0929 25.6C90.8529 25.6 90.6489 25.516 90.4809 25.348C90.3249 25.192 90.2469 24.988 90.2469 24.736V13.414C90.2469 13.162 90.3249 12.952 90.4809 12.784C90.6369 12.616 90.8409 12.532 91.0929 12.532C91.3449 12.532 91.5489 12.616 91.7049 12.784C91.8729 12.952 91.9569 13.162 91.9569 13.414V13.936C92.2449 13.516 92.6649 13.156 93.2169 12.856C93.7689 12.556 94.3569 12.406 94.9809 12.406ZM94.7829 20.578C95.3349 20.578 95.8329 20.434 96.2769 20.146C96.7209 19.858 97.0629 19.468 97.3029 18.976C97.5549 18.472 97.6809 17.908 97.6809 17.284C97.6809 16.66 97.5549 16.102 97.3029 15.61C97.0629 15.106 96.7209 14.71 96.2769 14.422C95.8329 14.134 95.3349 13.99 94.7829 13.99C94.2189 13.99 93.7149 14.134 93.2709 14.422C92.8269 14.698 92.4789 15.088 92.2269 15.592C91.9869 16.096 91.8669 16.66 91.8669 17.284C91.8669 17.908 91.9869 18.472 92.2269 18.976C92.4789 19.48 92.8269 19.876 93.2709 20.164C93.7149 20.44 94.2189 20.578 94.7829 20.578ZM109.784 16.924C109.772 17.14 109.682 17.326 109.514 17.482C109.346 17.626 109.148 17.698 108.92 17.698H102.584C102.668 18.574 102.998 19.276 103.574 19.804C104.162 20.332 104.876 20.596 105.716 20.596C106.292 20.596 106.76 20.512 107.12 20.344C107.48 20.176 107.798 19.96 108.074 19.696C108.254 19.588 108.428 19.534 108.596 19.534C108.8 19.534 108.968 19.606 109.1 19.75C109.244 19.894 109.316 20.062 109.316 20.254C109.316 20.506 109.196 20.734 108.956 20.938C108.608 21.286 108.146 21.58 107.57 21.82C106.994 22.06 106.406 22.18 105.806 22.18C104.834 22.18 103.976 21.976 103.232 21.568C102.5 21.16 101.93 20.59 101.522 19.858C101.126 19.126 100.928 18.298 100.928 17.374C100.928 16.366 101.132 15.484 101.54 14.728C101.96 13.96 102.506 13.372 103.178 12.964C103.862 12.556 104.594 12.352 105.374 12.352C106.142 12.352 106.862 12.55 107.534 12.946C108.206 13.342 108.746 13.888 109.154 14.584C109.562 15.28 109.772 16.06 109.784 16.924ZM105.374 13.936C104.702 13.936 104.12 14.128 103.628 14.512C103.136 14.884 102.812 15.466 102.656 16.258H107.966V16.114C107.906 15.478 107.618 14.956 107.102 14.548C106.598 14.14 106.022 13.936 105.374 13.936ZM119.897 9.4C120.137 9.412 120.329 9.502 120.473 9.67C120.629 9.826 120.707 10.024 120.707 10.264V21.136C120.707 21.376 120.617 21.58 120.437 21.748C120.257 21.916 120.035 22 119.771 22C119.507 22 119.291 21.916 119.123 21.748C118.955 21.58 118.871 21.376 118.871 21.136V11.776L117.287 12.73C117.155 12.814 117.005 12.856 116.837 12.856C116.597 12.856 116.393 12.766 116.225 12.586C116.057 12.394 115.973 12.19 115.973 11.974C115.973 11.83 116.015 11.692 116.099 11.56C116.183 11.428 116.291 11.32 116.423 11.236L119.267 9.526C119.435 9.442 119.645 9.4 119.897 9.4ZM129.62 14.764C129.332 14.764 129.11 14.686 128.954 14.53C128.81 14.374 128.738 14.146 128.738 13.846V13.522C128.738 13.222 128.81 12.994 128.954 12.838C129.11 12.682 129.332 12.604 129.62 12.604H129.818C130.106 12.604 130.322 12.682 130.466 12.838C130.622 12.994 130.7 13.222 130.7 13.522V13.846C130.7 14.146 130.622 14.374 130.466 14.53C130.322 14.686 130.106 14.764 129.818 14.764H129.62ZM129.62 22C129.332 22 129.11 21.922 128.954 21.766C128.81 21.598 128.738 21.37 128.738 21.082V20.74C128.738 20.452 128.81 20.23 128.954 20.074C129.11 19.906 129.332 19.822 129.62 19.822H129.818C130.106 19.822 130.322 19.906 130.466 20.074C130.622 20.23 130.7 20.452 130.7 20.74V21.082C130.7 21.37 130.622 21.598 130.466 21.766C130.322 21.922 130.106 22 129.818 22H129.62ZM143.784 9.4C144.42 9.4 145.008 9.574 145.548 9.922C146.088 10.258 146.514 10.72 146.826 11.308C147.15 11.896 147.312 12.544 147.312 13.252C147.312 13.96 147.15 14.614 146.826 15.214C146.514 15.814 146.088 16.288 145.548 16.636C145.008 16.984 144.42 17.158 143.784 17.158H140.4V21.136C140.4 21.376 140.322 21.58 140.166 21.748C140.01 21.916 139.812 22 139.572 22C139.32 22 139.116 21.922 138.96 21.766C138.816 21.598 138.744 21.388 138.744 21.136V10.264C138.744 10.024 138.828 9.82 138.996 9.652C139.164 9.484 139.368 9.4 139.608 9.4H143.784ZM143.784 15.52C144.108 15.52 144.408 15.418 144.684 15.214C144.96 14.998 145.176 14.716 145.332 14.368C145.5 14.02 145.584 13.648 145.584 13.252C145.584 12.64 145.404 12.124 145.044 11.704C144.696 11.272 144.276 11.056 143.784 11.056H140.4V15.52H143.784ZM154.219 12.352C154.531 12.352 154.801 12.436 155.029 12.604C155.257 12.76 155.371 12.958 155.371 13.198C155.371 13.486 155.293 13.708 155.137 13.864C154.993 14.008 154.813 14.08 154.597 14.08C154.489 14.08 154.327 14.044 154.111 13.972C153.859 13.888 153.661 13.846 153.517 13.846C153.145 13.846 152.779 13.978 152.419 14.242C152.071 14.494 151.783 14.848 151.555 15.304C151.339 15.748 151.231 16.246 151.231 16.798V21.136C151.231 21.376 151.147 21.58 150.979 21.748C150.823 21.916 150.619 22 150.367 22C150.115 22 149.911 21.922 149.755 21.766C149.599 21.598 149.521 21.388 149.521 21.136V13.432C149.521 13.192 149.599 12.988 149.755 12.82C149.923 12.652 150.127 12.568 150.367 12.568C150.619 12.568 150.823 12.652 150.979 12.82C151.147 12.988 151.231 13.192 151.231 13.432V14.35C151.495 13.762 151.891 13.288 152.419 12.928C152.947 12.556 153.547 12.364 154.219 12.352ZM165.68 17.284C165.68 18.22 165.47 19.06 165.05 19.804C164.63 20.548 164.054 21.13 163.322 21.55C162.602 21.97 161.804 22.18 160.928 22.18C160.052 22.18 159.248 21.97 158.516 21.55C157.796 21.13 157.226 20.548 156.806 19.804C156.386 19.06 156.176 18.22 156.176 17.284C156.176 16.348 156.386 15.502 156.806 14.746C157.226 13.99 157.796 13.402 158.516 12.982C159.248 12.562 160.052 12.352 160.928 12.352C161.804 12.352 162.602 12.562 163.322 12.982C164.054 13.402 164.63 13.99 165.05 14.746C165.47 15.502 165.68 16.348 165.68 17.284ZM163.97 17.284C163.97 16.636 163.832 16.06 163.556 15.556C163.292 15.04 162.926 14.644 162.458 14.368C162.002 14.08 161.492 13.936 160.928 13.936C160.364 13.936 159.848 14.08 159.38 14.368C158.924 14.644 158.558 15.04 158.282 15.556C158.018 16.06 157.886 16.636 157.886 17.284C157.886 17.92 158.018 18.49 158.282 18.994C158.558 19.498 158.924 19.894 159.38 20.182C159.848 20.458 160.364 20.596 160.928 20.596C161.492 20.596 162.002 20.458 162.458 20.182C162.926 19.894 163.292 19.498 163.556 18.994C163.832 18.49 163.97 17.92 163.97 17.284ZM171.9 10.228C171.504 10.228 171.21 10.348 171.018 10.588C170.838 10.828 170.748 11.122 170.748 11.47V12.73H172.53C172.77 12.73 172.962 12.808 173.106 12.964C173.262 13.108 173.34 13.294 173.34 13.522C173.34 13.75 173.262 13.936 173.106 14.08C172.962 14.224 172.77 14.296 172.53 14.296H170.748V21.136C170.748 21.376 170.664 21.58 170.496 21.748C170.34 21.916 170.136 22 169.884 22C169.644 22 169.44 21.916 169.272 21.748C169.116 21.58 169.038 21.376 169.038 21.136V14.296H167.922C167.694 14.296 167.502 14.224 167.346 14.08C167.19 13.936 167.112 13.75 167.112 13.522C167.112 13.294 167.19 13.108 167.346 12.964C167.502 12.808 167.694 12.73 167.922 12.73H169.038V11.47C169.038 10.63 169.308 9.964 169.848 9.472C170.388 8.968 171.15 8.716 172.134 8.716C172.542 8.716 172.902 8.794 173.214 8.95C173.526 9.094 173.682 9.316 173.682 9.616C173.682 9.844 173.61 10.036 173.466 10.192C173.334 10.336 173.172 10.408 172.98 10.408C172.932 10.408 172.8 10.384 172.584 10.336C172.32 10.264 172.092 10.228 171.9 10.228ZM183.362 16.924C183.35 17.14 183.26 17.326 183.092 17.482C182.924 17.626 182.726 17.698 182.498 17.698H176.162C176.246 18.574 176.576 19.276 177.152 19.804C177.74 20.332 178.454 20.596 179.294 20.596C179.87 20.596 180.338 20.512 180.698 20.344C181.058 20.176 181.376 19.96 181.652 19.696C181.832 19.588 182.006 19.534 182.174 19.534C182.378 19.534 182.546 19.606 182.678 19.75C182.822 19.894 182.894 20.062 182.894 20.254C182.894 20.506 182.774 20.734 182.534 20.938C182.186 21.286 181.724 21.58 181.148 21.82C180.572 22.06 179.984 22.18 179.384 22.18C178.412 22.18 177.554 21.976 176.81 21.568C176.078 21.16 175.508 20.59 175.1 19.858C174.704 19.126 174.506 18.298 174.506 17.374C174.506 16.366 174.71 15.484 175.118 14.728C175.538 13.96 176.084 13.372 176.756 12.964C177.44 12.556 178.172 12.352 178.952 12.352C179.72 12.352 180.44 12.55 181.112 12.946C181.784 13.342 182.324 13.888 182.732 14.584C183.14 15.28 183.35 16.06 183.362 16.924ZM178.952 13.936C178.28 13.936 177.698 14.128 177.206 14.512C176.714 14.884 176.39 15.466 176.234 16.258H181.544V16.114C181.484 15.478 181.196 14.956 180.68 14.548C180.176 14.14 179.6 13.936 178.952 13.936ZM185.007 20.524C184.899 20.356 184.845 20.194 184.845 20.038C184.845 19.798 184.971 19.594 185.223 19.426C185.343 19.342 185.481 19.3 185.637 19.3C185.853 19.3 186.051 19.39 186.231 19.57C186.591 19.978 186.975 20.284 187.383 20.488C187.803 20.692 188.301 20.794 188.877 20.794C189.333 20.782 189.735 20.68 190.083 20.488C190.431 20.284 190.605 19.96 190.605 19.516C190.605 19.108 190.425 18.796 190.065 18.58C189.717 18.364 189.201 18.166 188.517 17.986C187.845 17.806 187.287 17.62 186.843 17.428C186.399 17.224 186.021 16.936 185.709 16.564C185.409 16.18 185.259 15.682 185.259 15.07C185.259 14.53 185.409 14.056 185.709 13.648C186.021 13.24 186.429 12.922 186.933 12.694C187.449 12.466 188.007 12.352 188.607 12.352C189.183 12.352 189.753 12.46 190.317 12.676C190.893 12.892 191.361 13.222 191.721 13.666C191.865 13.834 191.937 14.008 191.937 14.188C191.937 14.38 191.841 14.566 191.649 14.746C191.529 14.854 191.379 14.908 191.199 14.908C190.983 14.908 190.809 14.836 190.677 14.692C190.425 14.404 190.113 14.182 189.741 14.026C189.381 13.87 188.979 13.792 188.535 13.792C188.079 13.792 187.689 13.888 187.365 14.08C187.053 14.26 186.897 14.572 186.897 15.016C186.909 15.436 187.089 15.748 187.437 15.952C187.797 16.156 188.343 16.354 189.075 16.546C189.711 16.714 190.239 16.894 190.659 17.086C191.079 17.278 191.433 17.566 191.721 17.95C192.009 18.322 192.153 18.814 192.153 19.426C192.153 19.99 191.991 20.482 191.667 20.902C191.343 21.31 190.917 21.628 190.389 21.856C189.873 22.072 189.321 22.18 188.733 22.18C187.977 22.18 187.275 22.048 186.627 21.784C185.991 21.52 185.451 21.1 185.007 20.524ZM193.785 20.524C193.677 20.356 193.623 20.194 193.623 20.038C193.623 19.798 193.749 19.594 194.001 19.426C194.121 19.342 194.259 19.3 194.415 19.3C194.631 19.3 194.829 19.39 195.009 19.57C195.369 19.978 195.753 20.284 196.161 20.488C196.581 20.692 197.079 20.794 197.655 20.794C198.111 20.782 198.513 20.68 198.861 20.488C199.209 20.284 199.383 19.96 199.383 19.516C199.383 19.108 199.203 18.796 198.843 18.58C198.495 18.364 197.979 18.166 197.295 17.986C196.623 17.806 196.065 17.62 195.621 17.428C195.177 17.224 194.799 16.936 194.487 16.564C194.187 16.18 194.037 15.682 194.037 15.07C194.037 14.53 194.187 14.056 194.487 13.648C194.799 13.24 195.207 12.922 195.711 12.694C196.227 12.466 196.785 12.352 197.385 12.352C197.961 12.352 198.531 12.46 199.095 12.676C199.671 12.892 200.139 13.222 200.499 13.666C200.643 13.834 200.715 14.008 200.715 14.188C200.715 14.38 200.619 14.566 200.427 14.746C200.307 14.854 200.157 14.908 199.977 14.908C199.761 14.908 199.587 14.836 199.455 14.692C199.203 14.404 198.891 14.182 198.519 14.026C198.159 13.87 197.757 13.792 197.313 13.792C196.857 13.792 196.467 13.888 196.143 14.08C195.831 14.26 195.675 14.572 195.675 15.016C195.687 15.436 195.867 15.748 196.215 15.952C196.575 16.156 197.121 16.354 197.853 16.546C198.489 16.714 199.017 16.894 199.437 17.086C199.857 17.278 200.211 17.566 200.499 17.95C200.787 18.322 200.931 18.814 200.931 19.426C200.931 19.99 200.769 20.482 200.445 20.902C200.121 21.31 199.695 21.628 199.167 21.856C198.651 22.072 198.099 22.18 197.511 22.18C196.755 22.18 196.053 22.048 195.405 21.784C194.769 21.52 194.229 21.1 193.785 20.524ZM204.724 21.136C204.724 21.376 204.64 21.58 204.472 21.748C204.316 21.916 204.112 22 203.86 22C203.62 22 203.416 21.916 203.248 21.748C203.092 21.58 203.014 21.376 203.014 21.136V13.342C203.014 13.102 203.092 12.898 203.248 12.73C203.416 12.562 203.62 12.478 203.86 12.478C204.112 12.478 204.316 12.562 204.472 12.73C204.64 12.898 204.724 13.102 204.724 13.342V21.136ZM203.86 11.29C203.512 11.29 203.26 11.23 203.104 11.11C202.96 10.978 202.888 10.774 202.888 10.498V10.21C202.888 9.922 202.966 9.718 203.122 9.598C203.29 9.478 203.542 9.418 203.878 9.418C204.214 9.418 204.454 9.484 204.598 9.616C204.754 9.736 204.832 9.934 204.832 10.21V10.498C204.832 10.786 204.754 10.99 204.598 11.11C204.442 11.23 204.196 11.29 203.86 11.29ZM216.31 17.284C216.31 18.22 216.1 19.06 215.68 19.804C215.26 20.548 214.684 21.13 213.952 21.55C213.232 21.97 212.434 22.18 211.558 22.18C210.682 22.18 209.878 21.97 209.146 21.55C208.426 21.13 207.856 20.548 207.436 19.804C207.016 19.06 206.806 18.22 206.806 17.284C206.806 16.348 207.016 15.502 207.436 14.746C207.856 13.99 208.426 13.402 209.146 12.982C209.878 12.562 210.682 12.352 211.558 12.352C212.434 12.352 213.232 12.562 213.952 12.982C214.684 13.402 215.26 13.99 215.68 14.746C216.1 15.502 216.31 16.348 216.31 17.284ZM214.6 17.284C214.6 16.636 214.462 16.06 214.186 15.556C213.922 15.04 213.556 14.644 213.088 14.368C212.632 14.08 212.122 13.936 211.558 13.936C210.994 13.936 210.478 14.08 210.01 14.368C209.554 14.644 209.188 15.04 208.912 15.556C208.648 16.06 208.516 16.636 208.516 17.284C208.516 17.92 208.648 18.49 208.912 18.994C209.188 19.498 209.554 19.894 210.01 20.182C210.478 20.458 210.994 20.596 211.558 20.596C212.122 20.596 212.632 20.458 213.088 20.182C213.556 19.894 213.922 19.498 214.186 18.994C214.462 18.49 214.6 17.92 214.6 17.284ZM223.304 12.352C225.464 12.352 226.544 13.648 226.544 16.24V21.136C226.544 21.376 226.46 21.58 226.292 21.748C226.136 21.916 225.932 22 225.68 22C225.44 22 225.236 21.916 225.068 21.748C224.912 21.58 224.834 21.376 224.834 21.136V16.258C224.834 15.55 224.672 14.986 224.348 14.566C224.024 14.146 223.496 13.936 222.764 13.936C222.284 13.936 221.846 14.044 221.45 14.26C221.066 14.464 220.76 14.746 220.532 15.106C220.316 15.454 220.208 15.838 220.208 16.258V21.136C220.208 21.376 220.124 21.58 219.956 21.748C219.8 21.916 219.596 22 219.344 22C219.092 22 218.888 21.922 218.732 21.766C218.576 21.598 218.498 21.388 218.498 21.136V13.432C218.498 13.192 218.576 12.988 218.732 12.82C218.9 12.652 219.104 12.568 219.344 12.568C219.596 12.568 219.8 12.652 219.956 12.82C220.124 12.988 220.208 13.192 220.208 13.432V14.062C220.52 13.582 220.952 13.18 221.504 12.856C222.068 12.52 222.668 12.352 223.304 12.352ZM228.757 20.524C228.649 20.356 228.595 20.194 228.595 20.038C228.595 19.798 228.721 19.594 228.973 19.426C229.093 19.342 229.231 19.3 229.387 19.3C229.603 19.3 229.801 19.39 229.981 19.57C230.341 19.978 230.725 20.284 231.133 20.488C231.553 20.692 232.051 20.794 232.627 20.794C233.083 20.782 233.485 20.68 233.833 20.488C234.181 20.284 234.355 19.96 234.355 19.516C234.355 19.108 234.175 18.796 233.815 18.58C233.467 18.364 232.951 18.166 232.267 17.986C231.595 17.806 231.037 17.62 230.593 17.428C230.149 17.224 229.771 16.936 229.459 16.564C229.159 16.18 229.009 15.682 229.009 15.07C229.009 14.53 229.159 14.056 229.459 13.648C229.771 13.24 230.179 12.922 230.683 12.694C231.199 12.466 231.757 12.352 232.357 12.352C232.933 12.352 233.503 12.46 234.067 12.676C234.643 12.892 235.111 13.222 235.471 13.666C235.615 13.834 235.687 14.008 235.687 14.188C235.687 14.38 235.591 14.566 235.399 14.746C235.279 14.854 235.129 14.908 234.949 14.908C234.733 14.908 234.559 14.836 234.427 14.692C234.175 14.404 233.863 14.182 233.491 14.026C233.131 13.87 232.729 13.792 232.285 13.792C231.829 13.792 231.439 13.888 231.115 14.08C230.803 14.26 230.647 14.572 230.647 15.016C230.659 15.436 230.839 15.748 231.187 15.952C231.547 16.156 232.093 16.354 232.825 16.546C233.461 16.714 233.989 16.894 234.409 17.086C234.829 17.278 235.183 17.566 235.471 17.95C235.759 18.322 235.903 18.814 235.903 19.426C235.903 19.99 235.741 20.482 235.417 20.902C235.093 21.31 234.667 21.628 234.139 21.856C233.623 22.072 233.071 22.18 232.483 22.18C231.727 22.18 231.025 22.048 230.377 21.784C229.741 21.52 229.201 21.1 228.757 20.524ZM247.372 12.352C248.32 12.352 249.106 12.502 249.73 12.802C250.366 13.102 250.684 13.486 250.684 13.954C250.684 14.158 250.618 14.344 250.486 14.512C250.354 14.668 250.186 14.746 249.982 14.746C249.826 14.746 249.7 14.722 249.604 14.674C249.52 14.626 249.4 14.548 249.244 14.44C249.172 14.368 249.058 14.284 248.902 14.188C248.758 14.116 248.554 14.056 248.29 14.008C248.026 13.96 247.786 13.936 247.57 13.936C246.946 13.936 246.394 14.08 245.914 14.368C245.434 14.656 245.062 15.058 244.798 15.574C244.534 16.078 244.402 16.642 244.402 17.266C244.402 17.902 244.528 18.472 244.78 18.976C245.044 19.48 245.41 19.876 245.878 20.164C246.346 20.452 246.88 20.596 247.48 20.596C248.104 20.596 248.608 20.5 248.992 20.308C249.076 20.26 249.19 20.182 249.334 20.074C249.454 19.978 249.556 19.906 249.64 19.858C249.736 19.81 249.85 19.786 249.982 19.786C250.222 19.786 250.408 19.864 250.54 20.02C250.684 20.164 250.756 20.356 250.756 20.596C250.756 20.848 250.594 21.1 250.27 21.352C249.958 21.592 249.532 21.79 248.992 21.946C248.464 22.102 247.894 22.18 247.282 22.18C246.37 22.18 245.566 21.97 244.87 21.55C244.174 21.118 243.634 20.53 243.25 19.786C242.878 19.03 242.692 18.19 242.692 17.266C242.692 16.342 242.89 15.508 243.286 14.764C243.682 14.008 244.234 13.42 244.942 13C245.65 12.568 246.46 12.352 247.372 12.352ZM254.334 21.136C254.334 21.376 254.25 21.58 254.082 21.748C253.926 21.916 253.722 22 253.47 22C253.23 22 253.026 21.916 252.858 21.748C252.702 21.58 252.624 21.376 252.624 21.136V13.342C252.624 13.102 252.702 12.898 252.858 12.73C253.026 12.562 253.23 12.478 253.47 12.478C253.722 12.478 253.926 12.562 254.082 12.73C254.25 12.898 254.334 13.102 254.334 13.342V21.136ZM253.47 11.29C253.122 11.29 252.87 11.23 252.714 11.11C252.57 10.978 252.498 10.774 252.498 10.498V10.21C252.498 9.922 252.576 9.718 252.732 9.598C252.9 9.478 253.152 9.418 253.488 9.418C253.824 9.418 254.064 9.484 254.208 9.616C254.364 9.736 254.442 9.934 254.442 10.21V10.498C254.442 10.786 254.364 10.99 254.208 11.11C254.052 11.23 253.806 11.29 253.47 11.29ZM261.726 12.352C262.542 12.352 263.28 12.562 263.94 12.982C264.6 13.402 265.116 13.984 265.488 14.728C265.872 15.472 266.064 16.312 266.064 17.248C266.064 18.184 265.872 19.03 265.488 19.786C265.116 20.542 264.6 21.13 263.94 21.55C263.28 21.97 262.554 22.18 261.762 22.18C261.138 22.18 260.556 22.042 260.016 21.766C259.476 21.49 259.038 21.148 258.702 20.74V21.262C258.702 21.502 258.618 21.706 258.45 21.874C258.294 22.042 258.09 22.126 257.838 22.126C257.598 22.126 257.394 22.048 257.226 21.892C257.07 21.724 256.992 21.514 256.992 21.262V9.544C256.992 9.292 257.07 9.088 257.226 8.932C257.382 8.764 257.586 8.68 257.838 8.68C258.09 8.68 258.294 8.764 258.45 8.932C258.618 9.1 258.702 9.304 258.702 9.544V13.936C258.99 13.504 259.41 13.132 259.962 12.82C260.514 12.508 261.102 12.352 261.726 12.352ZM261.528 20.596C262.08 20.596 262.578 20.452 263.022 20.164C263.466 19.864 263.808 19.462 264.048 18.958C264.3 18.442 264.426 17.872 264.426 17.248C264.426 16.624 264.3 16.06 264.048 15.556C263.808 15.052 263.466 14.656 263.022 14.368C262.578 14.08 262.08 13.936 261.528 13.936C260.964 13.936 260.46 14.08 260.016 14.368C259.572 14.656 259.224 15.052 258.972 15.556C258.732 16.048 258.612 16.612 258.612 17.248C258.612 17.884 258.732 18.454 258.972 18.958C259.224 19.462 259.572 19.864 260.016 20.164C260.46 20.452 260.964 20.596 261.528 20.596ZM270.103 21.136C270.103 21.376 270.019 21.58 269.851 21.748C269.683 21.916 269.479 22 269.239 22C268.999 22 268.795 21.916 268.627 21.748C268.471 21.58 268.393 21.376 268.393 21.136V9.544C268.393 9.304 268.477 9.1 268.645 8.932C268.813 8.764 269.017 8.68 269.257 8.68C269.497 8.68 269.695 8.764 269.851 8.932C270.019 9.1 270.103 9.304 270.103 9.544V21.136ZM281.105 16.924C281.093 17.14 281.003 17.326 280.835 17.482C280.667 17.626 280.469 17.698 280.241 17.698H273.905C273.989 18.574 274.319 19.276 274.895 19.804C275.483 20.332 276.197 20.596 277.037 20.596C277.613 20.596 278.081 20.512 278.441 20.344C278.801 20.176 279.119 19.96 279.395 19.696C279.575 19.588 279.749 19.534 279.917 19.534C280.121 19.534 280.289 19.606 280.421 19.75C280.565 19.894 280.637 20.062 280.637 20.254C280.637 20.506 280.517 20.734 280.277 20.938C279.929 21.286 279.467 21.58 278.891 21.82C278.315 22.06 277.727 22.18 277.127 22.18C276.155 22.18 275.297 21.976 274.553 21.568C273.821 21.16 273.251 20.59 272.843 19.858C272.447 19.126 272.249 18.298 272.249 17.374C272.249 16.366 272.453 15.484 272.861 14.728C273.281 13.96 273.827 13.372 274.499 12.964C275.183 12.556 275.915 12.352 276.695 12.352C277.463 12.352 278.183 12.55 278.855 12.946C279.527 13.342 280.067 13.888 280.475 14.584C280.883 15.28 281.093 16.06 281.105 16.924ZM276.695 13.936C276.023 13.936 275.441 14.128 274.949 14.512C274.457 14.884 274.133 15.466 273.977 16.258H279.287V16.114C279.227 15.478 278.939 14.956 278.423 14.548C277.919 14.14 277.343 13.936 276.695 13.936ZM282.751 20.524C282.643 20.356 282.589 20.194 282.589 20.038C282.589 19.798 282.715 19.594 282.967 19.426C283.087 19.342 283.225 19.3 283.381 19.3C283.597 19.3 283.795 19.39 283.975 19.57C284.335 19.978 284.719 20.284 285.127 20.488C285.547 20.692 286.045 20.794 286.621 20.794C287.077 20.782 287.479 20.68 287.827 20.488C288.175 20.284 288.349 19.96 288.349 19.516C288.349 19.108 288.169 18.796 287.809 18.58C287.461 18.364 286.945 18.166 286.261 17.986C285.589 17.806 285.031 17.62 284.587 17.428C284.143 17.224 283.765 16.936 283.453 16.564C283.153 16.18 283.003 15.682 283.003 15.07C283.003 14.53 283.153 14.056 283.453 13.648C283.765 13.24 284.173 12.922 284.677 12.694C285.193 12.466 285.751 12.352 286.351 12.352C286.927 12.352 287.497 12.46 288.061 12.676C288.637 12.892 289.105 13.222 289.465 13.666C289.609 13.834 289.681 14.008 289.681 14.188C289.681 14.38 289.585 14.566 289.393 14.746C289.273 14.854 289.123 14.908 288.943 14.908C288.727 14.908 288.553 14.836 288.421 14.692C288.169 14.404 287.857 14.182 287.485 14.026C287.125 13.87 286.723 13.792 286.279 13.792C285.823 13.792 285.433 13.888 285.109 14.08C284.797 14.26 284.641 14.572 284.641 15.016C284.653 15.436 284.833 15.748 285.181 15.952C285.541 16.156 286.087 16.354 286.819 16.546C287.455 16.714 287.983 16.894 288.403 17.086C288.823 17.278 289.177 17.566 289.465 17.95C289.753 18.322 289.897 18.814 289.897 19.426C289.897 19.99 289.735 20.482 289.411 20.902C289.087 21.31 288.661 21.628 288.133 21.856C287.617 22.072 287.065 22.18 286.477 22.18C285.721 22.18 285.019 22.048 284.371 21.784C283.735 21.52 283.195 21.1 282.751 20.524Z" fill="#292984"/>
<path opacity="0.5" d="M64.082 30.2C64.5767 30.2 65.034 30.3353 65.454 30.606C65.874 30.8673 66.2053 31.2267 66.448 31.684C66.7 32.1413 66.826 32.6453 66.826 33.196C66.826 33.7467 66.7 34.2553 66.448 34.722C66.2053 35.1887 65.874 35.5573 65.454 35.828C65.034 36.0987 64.5767 36.234 64.082 36.234H61.45V39.328C61.45 39.5147 61.3893 39.6733 61.268 39.804C61.1467 39.9347 60.9927 40 60.806 40C60.61 40 60.4513 39.9393 60.33 39.818C60.218 39.6873 60.162 39.524 60.162 39.328V30.872C60.162 30.6853 60.2273 30.5267 60.358 30.396C60.4887 30.2653 60.6473 30.2 60.834 30.2H64.082ZM64.082 34.96C64.334 34.96 64.5673 34.8807 64.782 34.722C64.9967 34.554 65.1647 34.3347 65.286 34.064C65.4167 33.7933 65.482 33.504 65.482 33.196C65.482 32.72 65.342 32.3187 65.062 31.992C64.7913 31.656 64.4647 31.488 64.082 31.488H61.45V34.96H64.082ZM72.0425 32.496C72.2852 32.496 72.4952 32.5613 72.6725 32.692C72.8499 32.8133 72.9385 32.9673 72.9385 33.154C72.9385 33.378 72.8779 33.5507 72.7565 33.672C72.6445 33.784 72.5045 33.84 72.3365 33.84C72.2525 33.84 72.1265 33.812 71.9585 33.756C71.7625 33.6907 71.6085 33.658 71.4965 33.658C71.2072 33.658 70.9225 33.7607 70.6425 33.966C70.3719 34.162 70.1479 34.4373 69.9705 34.792C69.8025 35.1373 69.7185 35.5247 69.7185 35.954V39.328C69.7185 39.5147 69.6532 39.6733 69.5225 39.804C69.4012 39.9347 69.2425 40 69.0465 40C68.8505 40 68.6919 39.9393 68.5705 39.818C68.4492 39.6873 68.3885 39.524 68.3885 39.328V33.336C68.3885 33.1493 68.4492 32.9907 68.5705 32.86C68.7012 32.7293 68.8599 32.664 69.0465 32.664C69.2425 32.664 69.4012 32.7293 69.5225 32.86C69.6532 32.9907 69.7185 33.1493 69.7185 33.336V34.05C69.9239 33.5927 70.2319 33.224 70.6425 32.944C71.0532 32.6547 71.5199 32.5053 72.0425 32.496ZM80.8013 36.332C80.8013 37.06 80.6379 37.7133 80.3113 38.292C79.9846 38.8707 79.5366 39.3233 78.9673 39.65C78.4073 39.9767 77.7866 40.14 77.1053 40.14C76.4239 40.14 75.7986 39.9767 75.2293 39.65C74.6693 39.3233 74.2259 38.8707 73.8993 38.292C73.5726 37.7133 73.4093 37.06 73.4093 36.332C73.4093 35.604 73.5726 34.946 73.8993 34.358C74.2259 33.77 74.6693 33.3127 75.2293 32.986C75.7986 32.6593 76.4239 32.496 77.1053 32.496C77.7866 32.496 78.4073 32.6593 78.9673 32.986C79.5366 33.3127 79.9846 33.77 80.3113 34.358C80.6379 34.946 80.8013 35.604 80.8013 36.332ZM79.4713 36.332C79.4713 35.828 79.3639 35.38 79.1493 34.988C78.9439 34.5867 78.6593 34.2787 78.2953 34.064C77.9406 33.84 77.5439 33.728 77.1053 33.728C76.6666 33.728 76.2653 33.84 75.9013 34.064C75.5466 34.2787 75.2619 34.5867 75.0473 34.988C74.8419 35.38 74.7393 35.828 74.7393 36.332C74.7393 36.8267 74.8419 37.27 75.0473 37.662C75.2619 38.054 75.5466 38.362 75.9013 38.586C76.2653 38.8007 76.6666 38.908 77.1053 38.908C77.5439 38.908 77.9406 38.8007 78.2953 38.586C78.6593 38.362 78.9439 38.054 79.1493 37.662C79.3639 37.27 79.4713 36.8267 79.4713 36.332ZM85.4835 30.844C85.1755 30.844 84.9468 30.9373 84.7975 31.124C84.6575 31.3107 84.5875 31.5393 84.5875 31.81V32.79H85.9735C86.1602 32.79 86.3095 32.8507 86.4215 32.972C86.5428 33.084 86.6035 33.2287 86.6035 33.406C86.6035 33.5833 86.5428 33.728 86.4215 33.84C86.3095 33.952 86.1602 34.008 85.9735 34.008H84.5875V39.328C84.5875 39.5147 84.5222 39.6733 84.3915 39.804C84.2702 39.9347 84.1115 40 83.9155 40C83.7288 40 83.5702 39.9347 83.4395 39.804C83.3182 39.6733 83.2575 39.5147 83.2575 39.328V34.008H82.3895C82.2122 34.008 82.0628 33.952 81.9415 33.84C81.8202 33.728 81.7595 33.5833 81.7595 33.406C81.7595 33.2287 81.8202 33.084 81.9415 32.972C82.0628 32.8507 82.2122 32.79 82.3895 32.79H83.2575V31.81C83.2575 31.1567 83.4675 30.6387 83.8875 30.256C84.3075 29.864 84.9002 29.668 85.6655 29.668C85.9828 29.668 86.2628 29.7287 86.5055 29.85C86.7482 29.962 86.8695 30.1347 86.8695 30.368C86.8695 30.5453 86.8135 30.6947 86.7015 30.816C86.5988 30.928 86.4728 30.984 86.3235 30.984C86.2862 30.984 86.1835 30.9653 86.0155 30.928C85.8102 30.872 85.6328 30.844 85.4835 30.844ZM94.2426 36.052C94.2333 36.22 94.1633 36.3647 94.0326 36.486C93.9019 36.598 93.7479 36.654 93.5706 36.654H88.6426C88.7079 37.3353 88.9646 37.8813 89.4126 38.292C89.8699 38.7027 90.4253 38.908 91.0786 38.908C91.5266 38.908 91.8906 38.8427 92.1706 38.712C92.4506 38.5813 92.6979 38.4133 92.9126 38.208C93.0526 38.124 93.1879 38.082 93.3186 38.082C93.4773 38.082 93.6079 38.138 93.7106 38.25C93.8226 38.362 93.8786 38.4927 93.8786 38.642C93.8786 38.838 93.7853 39.0153 93.5986 39.174C93.3279 39.4447 92.9686 39.6733 92.5206 39.86C92.0726 40.0467 91.6153 40.14 91.1486 40.14C90.3926 40.14 89.7253 39.9813 89.1466 39.664C88.5773 39.3467 88.1339 38.9033 87.8166 38.334C87.5086 37.7647 87.3546 37.1207 87.3546 36.402C87.3546 35.618 87.5133 34.932 87.8306 34.344C88.1573 33.7467 88.5819 33.2893 89.1046 32.972C89.6366 32.6547 90.2059 32.496 90.8126 32.496C91.4099 32.496 91.9699 32.65 92.4926 32.958C93.0153 33.266 93.4353 33.6907 93.7526 34.232C94.0699 34.7733 94.2333 35.38 94.2426 36.052ZM90.8126 33.728C90.2899 33.728 89.8373 33.8773 89.4546 34.176C89.0719 34.4653 88.8199 34.918 88.6986 35.534H92.8286V35.422C92.7819 34.9273 92.5579 34.5213 92.1566 34.204C91.7646 33.8867 91.3166 33.728 90.8126 33.728ZM95.367 38.852C95.283 38.7213 95.241 38.5953 95.241 38.474C95.241 38.2873 95.339 38.1287 95.535 37.998C95.6283 37.9327 95.7356 37.9 95.857 37.9C96.025 37.9 96.179 37.97 96.319 38.11C96.599 38.4273 96.8976 38.6653 97.215 38.824C97.5416 38.9827 97.929 39.062 98.377 39.062C98.7316 39.0527 99.0443 38.9733 99.315 38.824C99.5856 38.6653 99.721 38.4133 99.721 38.068C99.721 37.7507 99.581 37.508 99.301 37.34C99.0303 37.172 98.629 37.018 98.097 36.878C97.5743 36.738 97.1403 36.5933 96.795 36.444C96.4496 36.2853 96.1556 36.0613 95.913 35.772C95.6796 35.4733 95.563 35.086 95.563 34.61C95.563 34.19 95.6796 33.8213 95.913 33.504C96.1556 33.1867 96.473 32.9393 96.865 32.762C97.2663 32.5847 97.7003 32.496 98.167 32.496C98.615 32.496 99.0583 32.58 99.497 32.748C99.945 32.916 100.309 33.1727 100.589 33.518C100.701 33.6487 100.757 33.784 100.757 33.924C100.757 34.0733 100.682 34.218 100.533 34.358C100.44 34.442 100.323 34.484 100.183 34.484C100.015 34.484 99.8796 34.428 99.777 34.316C99.581 34.092 99.3383 33.9193 99.049 33.798C98.769 33.6767 98.4563 33.616 98.111 33.616C97.7563 33.616 97.453 33.6907 97.201 33.84C96.9583 33.98 96.837 34.2227 96.837 34.568C96.8463 34.8947 96.9863 35.1373 97.257 35.296C97.537 35.4547 97.9616 35.6087 98.531 35.758C99.0256 35.8887 99.4363 36.0287 99.763 36.178C100.09 36.3273 100.365 36.5513 100.589 36.85C100.813 37.1393 100.925 37.522 100.925 37.998C100.925 38.4367 100.799 38.8193 100.547 39.146C100.295 39.4633 99.9636 39.7107 99.553 39.888C99.1516 40.056 98.7223 40.14 98.265 40.14C97.677 40.14 97.131 40.0373 96.627 39.832C96.1323 39.6267 95.7123 39.3 95.367 38.852ZM102.039 38.852C101.955 38.7213 101.913 38.5953 101.913 38.474C101.913 38.2873 102.011 38.1287 102.207 37.998C102.3 37.9327 102.408 37.9 102.529 37.9C102.697 37.9 102.851 37.97 102.991 38.11C103.271 38.4273 103.57 38.6653 103.887 38.824C104.214 38.9827 104.601 39.062 105.049 39.062C105.404 39.0527 105.716 38.9733 105.987 38.824C106.258 38.6653 106.393 38.4133 106.393 38.068C106.393 37.7507 106.253 37.508 105.973 37.34C105.702 37.172 105.301 37.018 104.769 36.878C104.246 36.738 103.812 36.5933 103.467 36.444C103.122 36.2853 102.828 36.0613 102.585 35.772C102.352 35.4733 102.235 35.086 102.235 34.61C102.235 34.19 102.352 33.8213 102.585 33.504C102.828 33.1867 103.145 32.9393 103.537 32.762C103.938 32.5847 104.372 32.496 104.839 32.496C105.287 32.496 105.73 32.58 106.169 32.748C106.617 32.916 106.981 33.1727 107.261 33.518C107.373 33.6487 107.429 33.784 107.429 33.924C107.429 34.0733 107.354 34.218 107.205 34.358C107.112 34.442 106.995 34.484 106.855 34.484C106.687 34.484 106.552 34.428 106.449 34.316C106.253 34.092 106.01 33.9193 105.721 33.798C105.441 33.6767 105.128 33.616 104.783 33.616C104.428 33.616 104.125 33.6907 103.873 33.84C103.63 33.98 103.509 34.2227 103.509 34.568C103.518 34.8947 103.658 35.1373 103.929 35.296C104.209 35.4547 104.634 35.6087 105.203 35.758C105.698 35.8887 106.108 36.0287 106.435 36.178C106.762 36.3273 107.037 36.5513 107.261 36.85C107.485 37.1393 107.597 37.522 107.597 37.998C107.597 38.4367 107.471 38.8193 107.219 39.146C106.967 39.4633 106.636 39.7107 106.225 39.888C105.824 40.056 105.394 40.14 104.937 40.14C104.349 40.14 103.803 40.0373 103.299 39.832C102.804 39.6267 102.384 39.3 102.039 38.852ZM110.391 39.328C110.391 39.5147 110.325 39.6733 110.195 39.804C110.073 39.9347 109.915 40 109.719 40C109.532 40 109.373 39.9347 109.243 39.804C109.121 39.6733 109.061 39.5147 109.061 39.328V33.266C109.061 33.0793 109.121 32.9207 109.243 32.79C109.373 32.6593 109.532 32.594 109.719 32.594C109.915 32.594 110.073 32.6593 110.195 32.79C110.325 32.9207 110.391 33.0793 110.391 33.266V39.328ZM109.719 31.67C109.448 31.67 109.252 31.6233 109.131 31.53C109.019 31.4273 108.963 31.2687 108.963 31.054V30.83C108.963 30.606 109.023 30.4473 109.145 30.354C109.275 30.2607 109.471 30.214 109.733 30.214C109.994 30.214 110.181 30.2653 110.293 30.368C110.414 30.4613 110.475 30.6153 110.475 30.83V31.054C110.475 31.278 110.414 31.4367 110.293 31.53C110.171 31.6233 109.98 31.67 109.719 31.67ZM119.247 36.332C119.247 37.06 119.083 37.7133 118.757 38.292C118.43 38.8707 117.982 39.3233 117.413 39.65C116.853 39.9767 116.232 40.14 115.551 40.14C114.869 40.14 114.244 39.9767 113.675 39.65C113.115 39.3233 112.671 38.8707 112.345 38.292C112.018 37.7133 111.855 37.06 111.855 36.332C111.855 35.604 112.018 34.946 112.345 34.358C112.671 33.77 113.115 33.3127 113.675 32.986C114.244 32.6593 114.869 32.496 115.551 32.496C116.232 32.496 116.853 32.6593 117.413 32.986C117.982 33.3127 118.43 33.77 118.757 34.358C119.083 34.946 119.247 35.604 119.247 36.332ZM117.917 36.332C117.917 35.828 117.809 35.38 117.595 34.988C117.389 34.5867 117.105 34.2787 116.741 34.064C116.386 33.84 115.989 33.728 115.551 33.728C115.112 33.728 114.711 33.84 114.347 34.064C113.992 34.2787 113.707 34.5867 113.493 34.988C113.287 35.38 113.185 35.828 113.185 36.332C113.185 36.8267 113.287 37.27 113.493 37.662C113.707 38.054 113.992 38.362 114.347 38.586C114.711 38.8007 115.112 38.908 115.551 38.908C115.989 38.908 116.386 38.8007 116.741 38.586C117.105 38.362 117.389 38.054 117.595 37.662C117.809 37.27 117.917 36.8267 117.917 36.332ZM124.531 32.496C126.211 32.496 127.051 33.504 127.051 35.52V39.328C127.051 39.5147 126.985 39.6733 126.855 39.804C126.733 39.9347 126.575 40 126.379 40C126.192 40 126.033 39.9347 125.903 39.804C125.781 39.6733 125.721 39.5147 125.721 39.328V35.534C125.721 34.9833 125.595 34.5447 125.343 34.218C125.091 33.8913 124.68 33.728 124.111 33.728C123.737 33.728 123.397 33.812 123.089 33.98C122.79 34.1387 122.552 34.358 122.375 34.638C122.207 34.9087 122.123 35.2073 122.123 35.534V39.328C122.123 39.5147 122.057 39.6733 121.927 39.804C121.805 39.9347 121.647 40 121.451 40C121.255 40 121.096 39.9393 120.975 39.818C120.853 39.6873 120.793 39.524 120.793 39.328V33.336C120.793 33.1493 120.853 32.9907 120.975 32.86C121.105 32.7293 121.264 32.664 121.451 32.664C121.647 32.664 121.805 32.7293 121.927 32.86C122.057 32.9907 122.123 33.1493 122.123 33.336V33.826C122.365 33.4527 122.701 33.14 123.131 32.888C123.569 32.6267 124.036 32.496 124.531 32.496ZM128.617 38.852C128.533 38.7213 128.491 38.5953 128.491 38.474C128.491 38.2873 128.589 38.1287 128.785 37.998C128.878 37.9327 128.986 37.9 129.107 37.9C129.275 37.9 129.429 37.97 129.569 38.11C129.849 38.4273 130.148 38.6653 130.465 38.824C130.792 38.9827 131.179 39.062 131.627 39.062C131.982 39.0527 132.294 38.9733 132.565 38.824C132.836 38.6653 132.971 38.4133 132.971 38.068C132.971 37.7507 132.831 37.508 132.551 37.34C132.28 37.172 131.879 37.018 131.347 36.878C130.824 36.738 130.39 36.5933 130.045 36.444C129.7 36.2853 129.406 36.0613 129.163 35.772C128.93 35.4733 128.813 35.086 128.813 34.61C128.813 34.19 128.93 33.8213 129.163 33.504C129.406 33.1867 129.723 32.9393 130.115 32.762C130.516 32.5847 130.95 32.496 131.417 32.496C131.865 32.496 132.308 32.58 132.747 32.748C133.195 32.916 133.559 33.1727 133.839 33.518C133.951 33.6487 134.007 33.784 134.007 33.924C134.007 34.0733 133.932 34.218 133.783 34.358C133.69 34.442 133.573 34.484 133.433 34.484C133.265 34.484 133.13 34.428 133.027 34.316C132.831 34.092 132.588 33.9193 132.299 33.798C132.019 33.6767 131.706 33.616 131.361 33.616C131.006 33.616 130.703 33.6907 130.451 33.84C130.208 33.98 130.087 34.2227 130.087 34.568C130.096 34.8947 130.236 35.1373 130.507 35.296C130.787 35.4547 131.212 35.6087 131.781 35.758C132.276 35.8887 132.686 36.0287 133.013 36.178C133.34 36.3273 133.615 36.5513 133.839 36.85C134.063 37.1393 134.175 37.522 134.175 37.998C134.175 38.4367 134.049 38.8193 133.797 39.146C133.545 39.4633 133.214 39.7107 132.803 39.888C132.402 40.056 131.972 40.14 131.515 40.14C130.927 40.14 130.381 40.0373 129.877 39.832C129.382 39.6267 128.962 39.3 128.617 38.852ZM145.542 32.566C145.738 32.566 145.896 32.6313 146.018 32.762C146.148 32.8833 146.214 33.0467 146.214 33.252V39.328C146.214 39.5147 146.148 39.6733 146.018 39.804C145.896 39.9347 145.738 40 145.542 40C145.346 40 145.187 39.9393 145.066 39.818C144.944 39.6873 144.884 39.524 144.884 39.328V38.964C144.641 39.2907 144.31 39.5707 143.89 39.804C143.47 40.028 143.017 40.14 142.532 40.14C141.897 40.14 141.318 39.9767 140.796 39.65C140.282 39.3233 139.876 38.8707 139.578 38.292C139.288 37.704 139.144 37.046 139.144 36.318C139.144 35.59 139.288 34.9367 139.578 34.358C139.876 33.77 140.282 33.3127 140.796 32.986C141.309 32.6593 141.874 32.496 142.49 32.496C142.984 32.496 143.442 32.5987 143.862 32.804C144.291 33.0093 144.632 33.2707 144.884 33.588V33.252C144.884 33.056 144.944 32.8927 145.066 32.762C145.187 32.6313 145.346 32.566 145.542 32.566ZM142.686 38.908C143.124 38.908 143.512 38.796 143.848 38.572C144.193 38.348 144.459 38.04 144.646 37.648C144.842 37.256 144.94 36.8127 144.94 36.318C144.94 35.8327 144.842 35.394 144.646 35.002C144.459 34.61 144.193 34.302 143.848 34.078C143.512 33.8447 143.124 33.728 142.686 33.728C142.247 33.728 141.855 33.84 141.51 34.064C141.174 34.288 140.908 34.596 140.712 34.988C140.525 35.38 140.432 35.8233 140.432 36.318C140.432 36.8127 140.525 37.256 140.712 37.648C140.908 38.04 141.174 38.348 141.51 38.572C141.855 38.796 142.247 38.908 142.686 38.908ZM142.798 32.09C142.723 32.09 142.611 32.0527 142.462 31.978L141.188 31.11C140.936 30.97 140.81 30.7787 140.81 30.536C140.81 30.368 140.87 30.2327 140.992 30.13C141.122 30.018 141.262 29.962 141.412 29.962C141.617 29.962 141.813 30.0553 142 30.242L143.092 31.376C143.194 31.4787 143.246 31.586 143.246 31.698C143.246 31.8193 143.204 31.9173 143.12 31.992C143.036 32.0573 142.928 32.09 142.798 32.09ZM158.514 36.052C158.505 36.22 158.435 36.3647 158.304 36.486C158.173 36.598 158.019 36.654 157.842 36.654H152.914C152.979 37.3353 153.236 37.8813 153.684 38.292C154.141 38.7027 154.697 38.908 155.35 38.908C155.798 38.908 156.162 38.8427 156.442 38.712C156.722 38.5813 156.969 38.4133 157.184 38.208C157.324 38.124 157.459 38.082 157.59 38.082C157.749 38.082 157.879 38.138 157.982 38.25C158.094 38.362 158.15 38.4927 158.15 38.642C158.15 38.838 158.057 39.0153 157.87 39.174C157.599 39.4447 157.24 39.6733 156.792 39.86C156.344 40.0467 155.887 40.14 155.42 40.14C154.664 40.14 153.997 39.9813 153.418 39.664C152.849 39.3467 152.405 38.9033 152.088 38.334C151.78 37.7647 151.626 37.1207 151.626 36.402C151.626 35.618 151.785 34.932 152.102 34.344C152.429 33.7467 152.853 33.2893 153.376 32.972C153.908 32.6547 154.477 32.496 155.084 32.496C155.681 32.496 156.241 32.65 156.764 32.958C157.287 33.266 157.707 33.6907 158.024 34.232C158.341 34.7733 158.505 35.38 158.514 36.052ZM155.084 33.728C154.561 33.728 154.109 33.8773 153.726 34.176C153.343 34.4653 153.091 34.918 152.97 35.534H157.1V35.422C157.053 34.9273 156.829 34.5213 156.428 34.204C156.036 33.8867 155.588 33.728 155.084 33.728ZM165.351 38.964C165.454 39.076 165.505 39.2067 165.505 39.356C165.505 39.5427 165.435 39.706 165.295 39.846C165.155 39.9767 165.001 40.042 164.833 40.042C164.619 40.042 164.437 39.944 164.287 39.748L162.411 37.382L160.563 39.748C160.498 39.8413 160.419 39.9113 160.325 39.958C160.232 40.0047 160.134 40.028 160.031 40.028C159.873 40.028 159.723 39.972 159.583 39.86C159.453 39.7387 159.387 39.5987 159.387 39.44C159.387 39.272 159.439 39.132 159.541 39.02L161.641 36.402L159.485 33.686C159.392 33.5647 159.345 33.434 159.345 33.294C159.345 33.1073 159.411 32.9487 159.541 32.818C159.681 32.6873 159.84 32.622 160.017 32.622C160.241 32.622 160.423 32.7153 160.563 32.902L162.481 35.324L164.287 32.916C164.427 32.72 164.605 32.622 164.819 32.622C164.997 32.622 165.146 32.6827 165.267 32.804C165.389 32.916 165.449 33.0513 165.449 33.21C165.449 33.3873 165.398 33.532 165.295 33.644L163.223 36.262L165.351 38.964ZM169.95 32.496C170.687 32.496 171.298 32.6127 171.784 32.846C172.278 33.0793 172.526 33.378 172.526 33.742C172.526 33.9007 172.474 34.0453 172.372 34.176C172.269 34.2973 172.138 34.358 171.98 34.358C171.858 34.358 171.76 34.3393 171.686 34.302C171.62 34.2647 171.527 34.204 171.406 34.12C171.35 34.064 171.261 33.9987 171.14 33.924C171.028 33.868 170.869 33.8213 170.664 33.784C170.458 33.7467 170.272 33.728 170.104 33.728C169.618 33.728 169.189 33.84 168.816 34.064C168.442 34.288 168.153 34.6007 167.948 35.002C167.742 35.394 167.64 35.8327 167.64 36.318C167.64 36.8127 167.738 37.256 167.934 37.648C168.139 38.04 168.424 38.348 168.788 38.572C169.152 38.796 169.567 38.908 170.034 38.908C170.519 38.908 170.911 38.8333 171.21 38.684C171.275 38.6467 171.364 38.586 171.476 38.502C171.569 38.4273 171.648 38.3713 171.714 38.334C171.788 38.2967 171.877 38.278 171.98 38.278C172.166 38.278 172.311 38.3387 172.414 38.46C172.526 38.572 172.582 38.7213 172.582 38.908C172.582 39.104 172.456 39.3 172.204 39.496C171.961 39.6827 171.63 39.8367 171.21 39.958C170.799 40.0793 170.356 40.14 169.88 40.14C169.17 40.14 168.545 39.9767 168.004 39.65C167.462 39.314 167.042 38.8567 166.744 38.278C166.454 37.69 166.31 37.0367 166.31 36.318C166.31 35.5993 166.464 34.9507 166.772 34.372C167.08 33.784 167.509 33.3267 168.06 33C168.61 32.664 169.24 32.496 169.95 32.496ZM180.389 36.052C180.38 36.22 180.31 36.3647 180.179 36.486C180.048 36.598 179.894 36.654 179.717 36.654H174.789C174.854 37.3353 175.111 37.8813 175.559 38.292C176.016 38.7027 176.572 38.908 177.225 38.908C177.673 38.908 178.037 38.8427 178.317 38.712C178.597 38.5813 178.844 38.4133 179.059 38.208C179.199 38.124 179.334 38.082 179.465 38.082C179.624 38.082 179.754 38.138 179.857 38.25C179.969 38.362 180.025 38.4927 180.025 38.642C180.025 38.838 179.932 39.0153 179.745 39.174C179.474 39.4447 179.115 39.6733 178.667 39.86C178.219 40.0467 177.762 40.14 177.295 40.14C176.539 40.14 175.872 39.9813 175.293 39.664C174.724 39.3467 174.28 38.9033 173.963 38.334C173.655 37.7647 173.501 37.1207 173.501 36.402C173.501 35.618 173.66 34.932 173.977 34.344C174.304 33.7467 174.728 33.2893 175.251 32.972C175.783 32.6547 176.352 32.496 176.959 32.496C177.556 32.496 178.116 32.65 178.639 32.958C179.162 33.266 179.582 33.6907 179.899 34.232C180.216 34.7733 180.38 35.38 180.389 36.052ZM176.959 33.728C176.436 33.728 175.984 33.8773 175.601 34.176C175.218 34.4653 174.966 34.918 174.845 35.534H178.975V35.422C178.928 34.9273 178.704 34.5213 178.303 34.204C177.911 33.8867 177.463 33.728 176.959 33.728ZM185.587 32.496C185.83 32.496 186.04 32.5613 186.217 32.692C186.395 32.8133 186.483 32.9673 186.483 33.154C186.483 33.378 186.423 33.5507 186.301 33.672C186.189 33.784 186.049 33.84 185.881 33.84C185.797 33.84 185.671 33.812 185.503 33.756C185.307 33.6907 185.153 33.658 185.041 33.658C184.752 33.658 184.467 33.7607 184.187 33.966C183.917 34.162 183.693 34.4373 183.515 34.792C183.347 35.1373 183.263 35.5247 183.263 35.954V39.328C183.263 39.5147 183.198 39.6733 183.067 39.804C182.946 39.9347 182.787 40 182.591 40C182.395 40 182.237 39.9393 182.115 39.818C181.994 39.6873 181.933 39.524 181.933 39.328V33.336C181.933 33.1493 181.994 32.9907 182.115 32.86C182.246 32.7293 182.405 32.664 182.591 32.664C182.787 32.664 182.946 32.7293 183.067 32.86C183.198 32.9907 183.263 33.1493 183.263 33.336V34.05C183.469 33.5927 183.777 33.224 184.187 32.944C184.598 32.6547 185.065 32.5053 185.587 32.496ZM190.594 32.496C191.332 32.496 191.943 32.6127 192.428 32.846C192.923 33.0793 193.17 33.378 193.17 33.742C193.17 33.9007 193.119 34.0453 193.016 34.176C192.914 34.2973 192.783 34.358 192.624 34.358C192.503 34.358 192.405 34.3393 192.33 34.302C192.265 34.2647 192.172 34.204 192.05 34.12C191.994 34.064 191.906 33.9987 191.784 33.924C191.672 33.868 191.514 33.8213 191.308 33.784C191.103 33.7467 190.916 33.728 190.748 33.728C190.263 33.728 189.834 33.84 189.46 34.064C189.087 34.288 188.798 34.6007 188.592 35.002C188.387 35.394 188.284 35.8327 188.284 36.318C188.284 36.8127 188.382 37.256 188.578 37.648C188.784 38.04 189.068 38.348 189.432 38.572C189.796 38.796 190.212 38.908 190.678 38.908C191.164 38.908 191.556 38.8333 191.854 38.684C191.92 38.6467 192.008 38.586 192.12 38.502C192.214 38.4273 192.293 38.3713 192.358 38.334C192.433 38.2967 192.522 38.278 192.624 38.278C192.811 38.278 192.956 38.3387 193.058 38.46C193.17 38.572 193.226 38.7213 193.226 38.908C193.226 39.104 193.1 39.3 192.848 39.496C192.606 39.6827 192.274 39.8367 191.854 39.958C191.444 40.0793 191 40.14 190.524 40.14C189.815 40.14 189.19 39.9767 188.648 39.65C188.107 39.314 187.687 38.8567 187.388 38.278C187.099 37.69 186.954 37.0367 186.954 36.318C186.954 35.5993 187.108 34.9507 187.416 34.372C187.724 33.784 188.154 33.3267 188.704 33C189.255 32.664 189.885 32.496 190.594 32.496ZM201.034 36.052C201.024 36.22 200.954 36.3647 200.824 36.486C200.693 36.598 200.539 36.654 200.362 36.654H195.434C195.499 37.3353 195.756 37.8813 196.204 38.292C196.661 38.7027 197.216 38.908 197.87 38.908C198.318 38.908 198.682 38.8427 198.962 38.712C199.242 38.5813 199.489 38.4133 199.704 38.208C199.844 38.124 199.979 38.082 200.11 38.082C200.268 38.082 200.399 38.138 200.502 38.25C200.614 38.362 200.67 38.4927 200.67 38.642C200.67 38.838 200.576 39.0153 200.39 39.174C200.119 39.4447 199.76 39.6733 199.312 39.86C198.864 40.0467 198.406 40.14 197.94 40.14C197.184 40.14 196.516 39.9813 195.938 39.664C195.368 39.3467 194.925 38.9033 194.608 38.334C194.3 37.7647 194.146 37.1207 194.146 36.402C194.146 35.618 194.304 34.932 194.622 34.344C194.948 33.7467 195.373 33.2893 195.896 32.972C196.428 32.6547 196.997 32.496 197.604 32.496C198.201 32.496 198.761 32.65 199.284 32.958C199.806 33.266 200.226 33.6907 200.544 34.232C200.861 34.7733 201.024 35.38 201.034 36.052ZM197.604 33.728C197.081 33.728 196.628 33.8773 196.246 34.176C195.863 34.4653 195.611 34.918 195.49 35.534H199.62V35.422C199.573 34.9273 199.349 34.5213 198.948 34.204C198.556 33.8867 198.108 33.728 197.604 33.728ZM206.232 32.496C206.475 32.496 206.685 32.5613 206.862 32.692C207.039 32.8133 207.128 32.9673 207.128 33.154C207.128 33.378 207.067 33.5507 206.946 33.672C206.834 33.784 206.694 33.84 206.526 33.84C206.442 33.84 206.316 33.812 206.148 33.756C205.952 33.6907 205.798 33.658 205.686 33.658C205.397 33.658 205.112 33.7607 204.832 33.966C204.561 34.162 204.337 34.4373 204.16 34.792C203.992 35.1373 203.908 35.5247 203.908 35.954V39.328C203.908 39.5147 203.843 39.6733 203.712 39.804C203.591 39.9347 203.432 40 203.236 40C203.04 40 202.881 39.9393 202.76 39.818C202.639 39.6873 202.578 39.524 202.578 39.328V33.336C202.578 33.1493 202.639 32.9907 202.76 32.86C202.891 32.7293 203.049 32.664 203.236 32.664C203.432 32.664 203.591 32.7293 203.712 32.86C203.843 32.9907 203.908 33.1493 203.908 33.336V34.05C204.113 33.5927 204.421 33.224 204.832 32.944C205.243 32.6547 205.709 32.5053 206.232 32.496ZM218.194 32.566C218.39 32.566 218.549 32.6313 218.67 32.762C218.801 32.8833 218.866 33.0467 218.866 33.252V39.328C218.866 39.5147 218.801 39.6733 218.67 39.804C218.549 39.9347 218.39 40 218.194 40C217.998 40 217.839 39.9393 217.718 39.818C217.597 39.6873 217.536 39.524 217.536 39.328V38.964C217.293 39.2907 216.962 39.5707 216.542 39.804C216.122 40.028 215.669 40.14 215.184 40.14C214.549 40.14 213.971 39.9767 213.448 39.65C212.935 39.3233 212.529 38.8707 212.23 38.292C211.941 37.704 211.796 37.046 211.796 36.318C211.796 35.59 211.941 34.9367 212.23 34.358C212.529 33.77 212.935 33.3127 213.448 32.986C213.961 32.6593 214.526 32.496 215.142 32.496C215.637 32.496 216.094 32.5987 216.514 32.804C216.943 33.0093 217.284 33.2707 217.536 33.588V33.252C217.536 33.056 217.597 32.8927 217.718 32.762C217.839 32.6313 217.998 32.566 218.194 32.566ZM215.338 38.908C215.777 38.908 216.164 38.796 216.5 38.572C216.845 38.348 217.111 38.04 217.298 37.648C217.494 37.256 217.592 36.8127 217.592 36.318C217.592 35.8327 217.494 35.394 217.298 35.002C217.111 34.61 216.845 34.302 216.5 34.078C216.164 33.8447 215.777 33.728 215.338 33.728C214.899 33.728 214.507 33.84 214.162 34.064C213.826 34.288 213.56 34.596 213.364 34.988C213.177 35.38 213.084 35.8233 213.084 36.318C213.084 36.8127 213.177 37.256 213.364 37.648C213.56 38.04 213.826 38.348 214.162 38.572C214.507 38.796 214.899 38.908 215.338 38.908ZM226.167 32.664C226.363 32.664 226.522 32.7293 226.643 32.86C226.774 32.9907 226.839 33.1493 226.839 33.336V37.06C226.839 38.0307 226.568 38.7867 226.027 39.328C225.495 39.86 224.739 40.126 223.759 40.126C222.788 40.126 222.037 39.86 221.505 39.328C220.973 38.7867 220.707 38.0307 220.707 37.06V33.336C220.707 33.1493 220.768 32.9907 220.889 32.86C221.02 32.7293 221.178 32.664 221.365 32.664C221.561 32.664 221.72 32.7293 221.841 32.86C221.972 32.9907 222.037 33.1493 222.037 33.336V37.06C222.037 38.2827 222.611 38.894 223.759 38.894C224.328 38.894 224.762 38.74 225.061 38.432C225.36 38.124 225.509 37.6667 225.509 37.06V33.336C225.509 33.1493 225.57 32.9907 225.691 32.86C225.822 32.7293 225.98 32.664 226.167 32.664ZM232.291 38.852C232.207 38.7213 232.165 38.5953 232.165 38.474C232.165 38.2873 232.263 38.1287 232.459 37.998C232.552 37.9327 232.659 37.9 232.781 37.9C232.949 37.9 233.103 37.97 233.243 38.11C233.523 38.4273 233.821 38.6653 234.139 38.824C234.465 38.9827 234.853 39.062 235.301 39.062C235.655 39.0527 235.968 38.9733 236.239 38.824C236.509 38.6653 236.645 38.4133 236.645 38.068C236.645 37.7507 236.505 37.508 236.225 37.34C235.954 37.172 235.553 37.018 235.021 36.878C234.498 36.738 234.064 36.5933 233.719 36.444C233.373 36.2853 233.079 36.0613 232.837 35.772C232.603 35.4733 232.487 35.086 232.487 34.61C232.487 34.19 232.603 33.8213 232.837 33.504C233.079 33.1867 233.397 32.9393 233.789 32.762C234.19 32.5847 234.624 32.496 235.091 32.496C235.539 32.496 235.982 32.58 236.421 32.748C236.869 32.916 237.233 33.1727 237.513 33.518C237.625 33.6487 237.681 33.784 237.681 33.924C237.681 34.0733 237.606 34.218 237.457 34.358C237.363 34.442 237.247 34.484 237.107 34.484C236.939 34.484 236.803 34.428 236.701 34.316C236.505 34.092 236.262 33.9193 235.973 33.798C235.693 33.6767 235.38 33.616 235.035 33.616C234.68 33.616 234.377 33.6907 234.125 33.84C233.882 33.98 233.761 34.2227 233.761 34.568C233.77 34.8947 233.91 35.1373 234.181 35.296C234.461 35.4547 234.885 35.6087 235.455 35.758C235.949 35.8887 236.36 36.0287 236.687 36.178C237.013 36.3273 237.289 36.5513 237.513 36.85C237.737 37.1393 237.849 37.522 237.849 37.998C237.849 38.4367 237.723 38.8193 237.471 39.146C237.219 39.4633 236.887 39.7107 236.477 39.888C236.075 40.056 235.646 40.14 235.189 40.14C234.601 40.14 234.055 40.0373 233.551 39.832C233.056 39.6267 232.636 39.3 232.291 38.852ZM245.823 36.052C245.813 36.22 245.743 36.3647 245.613 36.486C245.482 36.598 245.328 36.654 245.151 36.654H240.223C240.288 37.3353 240.545 37.8813 240.993 38.292C241.45 38.7027 242.005 38.908 242.659 38.908C243.107 38.908 243.471 38.8427 243.751 38.712C244.031 38.5813 244.278 38.4133 244.493 38.208C244.633 38.124 244.768 38.082 244.899 38.082C245.057 38.082 245.188 38.138 245.291 38.25C245.403 38.362 245.459 38.4927 245.459 38.642C245.459 38.838 245.365 39.0153 245.179 39.174C244.908 39.4447 244.549 39.6733 244.101 39.86C243.653 40.0467 243.195 40.14 242.729 40.14C241.973 40.14 241.305 39.9813 240.727 39.664C240.157 39.3467 239.714 38.9033 239.397 38.334C239.089 37.7647 238.935 37.1207 238.935 36.402C238.935 35.618 239.093 34.932 239.411 34.344C239.737 33.7467 240.162 33.2893 240.685 32.972C241.217 32.6547 241.786 32.496 242.393 32.496C242.99 32.496 243.55 32.65 244.073 32.958C244.595 33.266 245.015 33.6907 245.333 34.232C245.65 34.7733 245.813 35.38 245.823 36.052ZM242.393 33.728C241.87 33.728 241.417 33.8773 241.035 34.176C240.652 34.4653 240.4 34.918 240.279 35.534H244.409V35.422C244.362 34.9273 244.138 34.5213 243.737 34.204C243.345 33.8867 242.897 33.728 242.393 33.728ZM248.627 39.328C248.627 39.5147 248.562 39.6733 248.431 39.804C248.31 39.9347 248.151 40 247.955 40C247.768 40 247.61 39.9347 247.479 39.804C247.358 39.6733 247.297 39.5147 247.297 39.328V33.266C247.297 33.0793 247.358 32.9207 247.479 32.79C247.61 32.6593 247.768 32.594 247.955 32.594C248.151 32.594 248.31 32.6593 248.431 32.79C248.562 32.9207 248.627 33.0793 248.627 33.266V39.328ZM247.955 31.67C247.684 31.67 247.488 31.6233 247.367 31.53C247.255 31.4273 247.199 31.2687 247.199 31.054V30.83C247.199 30.606 247.26 30.4473 247.381 30.354C247.512 30.2607 247.708 30.214 247.969 30.214C248.23 30.214 248.417 30.2653 248.529 30.368C248.65 30.4613 248.711 30.6153 248.711 30.83V31.054C248.711 31.278 248.65 31.4367 248.529 31.53C248.408 31.6233 248.216 31.67 247.955 31.67ZM254.277 32.496C255.957 32.496 256.797 33.504 256.797 35.52V39.328C256.797 39.5147 256.732 39.6733 256.601 39.804C256.48 39.9347 256.321 40 256.125 40C255.938 40 255.78 39.9347 255.649 39.804C255.528 39.6733 255.467 39.5147 255.467 39.328V35.534C255.467 34.9833 255.341 34.5447 255.089 34.218C254.837 33.8913 254.426 33.728 253.857 33.728C253.484 33.728 253.143 33.812 252.835 33.98C252.536 34.1387 252.298 34.358 252.121 34.638C251.953 34.9087 251.869 35.2073 251.869 35.534V39.328C251.869 39.5147 251.804 39.6733 251.673 39.804C251.552 39.9347 251.393 40 251.197 40C251.001 40 250.842 39.9393 250.721 39.818C250.6 39.6873 250.539 39.524 250.539 39.328V33.336C250.539 33.1493 250.6 32.9907 250.721 32.86C250.852 32.7293 251.01 32.664 251.197 32.664C251.393 32.664 251.552 32.7293 251.673 32.86C251.804 32.9907 251.869 33.1493 251.869 33.336V33.826C252.112 33.4527 252.448 33.14 252.877 32.888C253.316 32.6267 253.782 32.496 254.277 32.496ZM268.616 29.64C268.812 29.64 268.971 29.7053 269.092 29.836C269.223 29.9573 269.288 30.116 269.288 30.312V39.328C269.288 39.5147 269.223 39.6733 269.092 39.804C268.971 39.9347 268.812 40 268.616 40C268.42 40 268.261 39.9393 268.14 39.818C268.019 39.6873 267.958 39.524 267.958 39.328V38.936C267.725 39.272 267.393 39.5567 266.964 39.79C266.544 40.0233 266.091 40.14 265.606 40.14C264.971 40.14 264.397 39.9767 263.884 39.65C263.371 39.3233 262.965 38.8707 262.666 38.292C262.367 37.704 262.218 37.046 262.218 36.318C262.218 35.59 262.363 34.9367 262.652 34.358C262.951 33.77 263.357 33.3127 263.87 32.986C264.383 32.6593 264.948 32.496 265.564 32.496C266.059 32.496 266.516 32.5987 266.936 32.804C267.356 33.0093 267.697 33.2753 267.958 33.602V30.312C267.958 30.116 268.019 29.9573 268.14 29.836C268.261 29.7053 268.42 29.64 268.616 29.64ZM265.76 38.908C266.199 38.908 266.586 38.796 266.922 38.572C267.267 38.348 267.533 38.04 267.72 37.648C267.916 37.256 268.014 36.8127 268.014 36.318C268.014 35.8327 267.916 35.394 267.72 35.002C267.533 34.6007 267.267 34.288 266.922 34.064C266.586 33.84 266.199 33.728 265.76 33.728C265.321 33.728 264.929 33.84 264.584 34.064C264.248 34.288 263.982 34.6007 263.786 35.002C263.599 35.394 263.506 35.8327 263.506 36.318C263.506 36.8127 263.599 37.256 263.786 37.648C263.982 38.04 264.248 38.348 264.584 38.572C264.929 38.796 265.321 38.908 265.76 38.908ZM276.944 32.664C277.14 32.664 277.299 32.7293 277.42 32.86C277.551 32.9907 277.616 33.1493 277.616 33.336V37.06C277.616 38.0307 277.346 38.7867 276.804 39.328C276.272 39.86 275.516 40.126 274.536 40.126C273.566 40.126 272.814 39.86 272.282 39.328C271.75 38.7867 271.484 38.0307 271.484 37.06V33.336C271.484 33.1493 271.545 32.9907 271.666 32.86C271.797 32.7293 271.956 32.664 272.142 32.664C272.338 32.664 272.497 32.7293 272.618 32.86C272.749 32.9907 272.814 33.1493 272.814 33.336V37.06C272.814 38.2827 273.388 38.894 274.536 38.894C275.106 38.894 275.54 38.74 275.838 38.432C276.137 38.124 276.286 37.6667 276.286 37.06V33.336C276.286 33.1493 276.347 32.9907 276.468 32.86C276.599 32.7293 276.758 32.664 276.944 32.664ZM286.68 32.496C287.417 32.496 288.029 32.6127 288.514 32.846C289.009 33.0793 289.256 33.378 289.256 33.742C289.256 33.9007 289.205 34.0453 289.102 34.176C288.999 34.2973 288.869 34.358 288.71 34.358C288.589 34.358 288.491 34.3393 288.416 34.302C288.351 34.2647 288.257 34.204 288.136 34.12C288.08 34.064 287.991 33.9987 287.87 33.924C287.758 33.868 287.599 33.8213 287.394 33.784C287.189 33.7467 287.002 33.728 286.834 33.728C286.349 33.728 285.919 33.84 285.546 34.064C285.173 34.288 284.883 34.6007 284.678 35.002C284.473 35.394 284.37 35.8327 284.37 36.318C284.37 36.8127 284.468 37.256 284.664 37.648C284.869 38.04 285.154 38.348 285.518 38.572C285.882 38.796 286.297 38.908 286.764 38.908C287.249 38.908 287.641 38.8333 287.94 38.684C288.005 38.6467 288.094 38.586 288.206 38.502C288.299 38.4273 288.379 38.3713 288.444 38.334C288.519 38.2967 288.607 38.278 288.71 38.278C288.897 38.278 289.041 38.3387 289.144 38.46C289.256 38.572 289.312 38.7213 289.312 38.908C289.312 39.104 289.186 39.3 288.934 39.496C288.691 39.6827 288.36 39.8367 287.94 39.958C287.529 40.0793 287.086 40.14 286.61 40.14C285.901 40.14 285.275 39.9767 284.734 39.65C284.193 39.314 283.773 38.8567 283.474 38.278C283.185 37.69 283.04 37.0367 283.04 36.318C283.04 35.5993 283.194 34.9507 283.502 34.372C283.81 33.784 284.239 33.3267 284.79 33C285.341 32.664 285.971 32.496 286.68 32.496ZM296.63 32.566C296.826 32.566 296.984 32.6313 297.106 32.762C297.236 32.8833 297.302 33.0467 297.302 33.252V39.328C297.302 39.5147 297.236 39.6733 297.106 39.804C296.984 39.9347 296.826 40 296.63 40C296.434 40 296.275 39.9393 296.154 39.818C296.032 39.6873 295.972 39.524 295.972 39.328V38.964C295.729 39.2907 295.398 39.5707 294.978 39.804C294.558 40.028 294.105 40.14 293.62 40.14C292.985 40.14 292.406 39.9767 291.884 39.65C291.37 39.3233 290.964 38.8707 290.666 38.292C290.376 37.704 290.232 37.046 290.232 36.318C290.232 35.59 290.376 34.9367 290.666 34.358C290.964 33.77 291.37 33.3127 291.884 32.986C292.397 32.6593 292.962 32.496 293.578 32.496C294.072 32.496 294.53 32.5987 294.95 32.804C295.379 33.0093 295.72 33.2707 295.972 33.588V33.252C295.972 33.056 296.032 32.8927 296.154 32.762C296.275 32.6313 296.434 32.566 296.63 32.566ZM293.774 38.908C294.212 38.908 294.6 38.796 294.936 38.572C295.281 38.348 295.547 38.04 295.734 37.648C295.93 37.256 296.028 36.8127 296.028 36.318C296.028 35.8327 295.93 35.394 295.734 35.002C295.547 34.61 295.281 34.302 294.936 34.078C294.6 33.8447 294.212 33.728 293.774 33.728C293.335 33.728 292.943 33.84 292.598 34.064C292.262 34.288 291.996 34.596 291.8 34.988C291.613 35.38 291.52 35.8233 291.52 36.318C291.52 36.8127 291.613 37.256 291.8 37.648C291.996 38.04 292.262 38.348 292.598 38.572C292.943 38.796 293.335 38.908 293.774 38.908ZM302.961 32.496C303.596 32.496 304.17 32.6593 304.683 32.986C305.196 33.3127 305.598 33.7653 305.887 34.344C306.186 34.9227 306.335 35.576 306.335 36.304C306.335 37.032 306.186 37.69 305.887 38.278C305.598 38.866 305.196 39.3233 304.683 39.65C304.17 39.9767 303.605 40.14 302.989 40.14C302.504 40.14 302.051 40.0327 301.631 39.818C301.211 39.6033 300.87 39.3373 300.609 39.02V39.426C300.609 39.6127 300.544 39.7713 300.413 39.902C300.292 40.0327 300.133 40.098 299.937 40.098C299.75 40.098 299.592 40.0373 299.461 39.916C299.34 39.7853 299.279 39.622 299.279 39.426V30.312C299.279 30.116 299.34 29.9573 299.461 29.836C299.582 29.7053 299.741 29.64 299.937 29.64C300.133 29.64 300.292 29.7053 300.413 29.836C300.544 29.9667 300.609 30.1253 300.609 30.312V33.728C300.833 33.392 301.16 33.1027 301.589 32.86C302.018 32.6173 302.476 32.496 302.961 32.496ZM302.807 38.908C303.236 38.908 303.624 38.796 303.969 38.572C304.314 38.3387 304.58 38.026 304.767 37.634C304.963 37.2327 305.061 36.7893 305.061 36.304C305.061 35.8187 304.963 35.38 304.767 34.988C304.58 34.596 304.314 34.288 303.969 34.064C303.624 33.84 303.236 33.728 302.807 33.728C302.368 33.728 301.976 33.84 301.631 34.064C301.286 34.288 301.015 34.596 300.819 34.988C300.632 35.3707 300.539 35.8093 300.539 36.304C300.539 36.7987 300.632 37.242 300.819 37.634C301.015 38.026 301.286 38.3387 301.631 38.572C301.976 38.796 302.368 38.908 302.807 38.908ZM309.139 39.328C309.139 39.5147 309.073 39.6733 308.943 39.804C308.821 39.9347 308.663 40 308.467 40C308.28 40 308.121 39.9347 307.991 39.804C307.869 39.6733 307.809 39.5147 307.809 39.328V33.266C307.809 33.0793 307.869 32.9207 307.991 32.79C308.121 32.6593 308.28 32.594 308.467 32.594C308.663 32.594 308.821 32.6593 308.943 32.79C309.073 32.9207 309.139 33.0793 309.139 33.266V39.328ZM308.467 31.67C308.196 31.67 308 31.6233 307.879 31.53C307.767 31.4273 307.711 31.2687 307.711 31.054V30.83C307.711 30.606 307.771 30.4473 307.893 30.354C308.023 30.2607 308.219 30.214 308.481 30.214C308.742 30.214 308.929 30.2653 309.041 30.368C309.162 30.4613 309.223 30.6153 309.223 30.83V31.054C309.223 31.278 309.162 31.4367 309.041 31.53C308.919 31.6233 308.728 31.67 308.467 31.67ZM314.789 32.496C316.469 32.496 317.309 33.504 317.309 35.52V39.328C317.309 39.5147 317.243 39.6733 317.113 39.804C316.991 39.9347 316.833 40 316.637 40C316.45 40 316.291 39.9347 316.161 39.804C316.039 39.6733 315.979 39.5147 315.979 39.328V35.534C315.979 34.9833 315.853 34.5447 315.601 34.218C315.349 33.8913 314.938 33.728 314.369 33.728C313.995 33.728 313.655 33.812 313.347 33.98C313.048 34.1387 312.81 34.358 312.633 34.638C312.465 34.9087 312.381 35.2073 312.381 35.534V39.328C312.381 39.5147 312.315 39.6733 312.185 39.804C312.063 39.9347 311.905 40 311.709 40C311.513 40 311.354 39.9393 311.233 39.818C311.111 39.6873 311.051 39.524 311.051 39.328V33.336C311.051 33.1493 311.111 32.9907 311.233 32.86C311.363 32.7293 311.522 32.664 311.709 32.664C311.905 32.664 312.063 32.7293 312.185 32.86C312.315 32.9907 312.381 33.1493 312.381 33.336V33.826C312.623 33.4527 312.959 33.14 313.389 32.888C313.827 32.6267 314.294 32.496 314.789 32.496ZM325.735 36.052C325.725 36.22 325.655 36.3647 325.525 36.486C325.394 36.598 325.24 36.654 325.063 36.654H320.135C320.2 37.3353 320.457 37.8813 320.905 38.292C321.362 38.7027 321.917 38.908 322.571 38.908C323.019 38.908 323.383 38.8427 323.663 38.712C323.943 38.5813 324.19 38.4133 324.405 38.208C324.545 38.124 324.68 38.082 324.811 38.082C324.969 38.082 325.1 38.138 325.203 38.25C325.315 38.362 325.371 38.4927 325.371 38.642C325.371 38.838 325.277 39.0153 325.091 39.174C324.82 39.4447 324.461 39.6733 324.013 39.86C323.565 40.0467 323.107 40.14 322.641 40.14C321.885 40.14 321.217 39.9813 320.639 39.664C320.069 39.3467 319.626 38.9033 319.309 38.334C319.001 37.7647 318.847 37.1207 318.847 36.402C318.847 35.618 319.005 34.932 319.323 34.344C319.649 33.7467 320.074 33.2893 320.597 32.972C321.129 32.6547 321.698 32.496 322.305 32.496C322.902 32.496 323.462 32.65 323.985 32.958C324.507 33.266 324.927 33.6907 325.245 34.232C325.562 34.7733 325.725 35.38 325.735 36.052ZM322.305 33.728C321.782 33.728 321.329 33.8773 320.947 34.176C320.564 34.4653 320.312 34.918 320.191 35.534H324.321V35.422C324.274 34.9273 324.05 34.5213 323.649 34.204C323.257 33.8867 322.809 33.728 322.305 33.728ZM329.267 33.966V38.138C329.267 38.6047 329.477 38.838 329.897 38.838C329.962 38.838 330.051 38.824 330.163 38.796C330.275 38.7587 330.364 38.74 330.429 38.74C330.55 38.74 330.653 38.7913 330.737 38.894C330.821 38.9967 330.863 39.1273 330.863 39.286C330.863 39.482 330.751 39.65 330.527 39.79C330.303 39.93 330.051 40 329.771 40C329.463 40 329.178 39.9673 328.917 39.902C328.665 39.8367 328.436 39.6733 328.231 39.412C328.035 39.1413 327.937 38.7353 327.937 38.194V33.966H327.125C326.948 33.966 326.798 33.91 326.677 33.798C326.565 33.6767 326.509 33.5273 326.509 33.35C326.509 33.1727 326.565 33.028 326.677 32.916C326.798 32.804 326.948 32.748 327.125 32.748H327.937V31.572C327.937 31.3853 327.998 31.2267 328.119 31.096C328.25 30.9653 328.413 30.9 328.609 30.9C328.796 30.9 328.95 30.9653 329.071 31.096C329.202 31.2267 329.267 31.3853 329.267 31.572V32.748H330.429C330.606 32.748 330.751 32.8087 330.863 32.93C330.984 33.042 331.045 33.1867 331.045 33.364C331.045 33.5413 330.984 33.686 330.863 33.798C330.751 33.91 330.606 33.966 330.429 33.966H329.267Z" fill="#3A3768"/>
<rect width="46" height="46" rx="23" fill="#4D7CFE"/>
<mask id="mask0" mask-type="alpha" maskUnits="userSpaceOnUse" x="0" y="0" width="46" height="46">
<rect width="46" height="46" rx="23" fill="white"/>
</mask>
<g mask="url(#mask0)">
<rect x="-0.669922" y="-4" width="47.5631" height="54" rx="23" fill="#292984"/>
</g>
<path d="M22.9245 28C22.8045 28 22.7025 27.958 22.6185 27.874C22.5345 27.79 22.4925 27.688 22.4925 27.568V18.244L19.7565 20.35C19.6845 20.41 19.6005 20.44 19.5045 20.44C19.3605 20.44 19.2405 20.374 19.1445 20.242L18.3885 19.27C18.3285 19.174 18.2985 19.084 18.2985 19C18.2985 18.856 18.3645 18.736 18.4965 18.64L22.5285 15.526C22.6365 15.442 22.7865 15.4 22.9785 15.4H24.5625C24.6945 15.4 24.7965 15.442 24.8685 15.526C24.9525 15.598 24.9945 15.7 24.9945 15.832V27.568C24.9945 27.688 24.9525 27.79 24.8685 27.874C24.7965 27.958 24.6945 28 24.5625 28H22.9245Z" fill="white"/>
<rect x="687" width="46" height="46" rx="23" fill="#4D7CFE"/>
<mask id="mask1" mask-type="alpha" maskUnits="userSpaceOnUse" x="687" y="0" width="46" height="46">
<rect x="687" width="46" height="46" rx="23" fill="white"/>
</mask>
<g mask="url(#mask1)">
<rect x="686.33" y="-4" width="47.5631" height="54" rx="23" fill="#E8E8EB"/>
</g>
<path d="M704.774 28C704.654 28 704.552 27.958 704.468 27.874C704.384 27.79 704.342 27.688 704.342 27.568V26.65C704.342 26.326 704.492 26.044 704.792 25.804L707.636 22.978C708.872 22.006 709.73 21.25 710.21 20.71C710.702 20.158 710.948 19.618 710.948 19.09C710.948 18.526 710.792 18.082 710.48 17.758C710.18 17.434 709.724 17.272 709.112 17.272C708.512 17.272 708.038 17.452 707.69 17.812C707.342 18.16 707.126 18.616 707.042 19.18C707.006 19.324 706.94 19.432 706.844 19.504C706.748 19.564 706.64 19.594 706.52 19.594H704.918C704.81 19.594 704.72 19.558 704.648 19.486C704.576 19.414 704.54 19.33 704.54 19.234C704.564 18.526 704.756 17.866 705.116 17.254C705.476 16.63 705.998 16.132 706.682 15.76C707.366 15.376 708.17 15.184 709.094 15.184C710.054 15.184 710.864 15.352 711.524 15.688C712.196 16.012 712.7 16.462 713.036 17.038C713.372 17.614 713.54 18.268 713.54 19C713.54 19.804 713.312 20.53 712.856 21.178C712.412 21.826 711.728 22.522 710.804 23.266L708.248 25.858H713.378C713.51 25.858 713.612 25.9 713.684 25.984C713.768 26.056 713.81 26.158 713.81 26.29V27.568C713.81 27.688 713.768 27.79 713.684 27.874C713.612 27.958 713.51 28 713.378 28H704.774Z" fill="#9997B1"/>
<rect x="749" width="46" height="46" rx="23" fill="#4D7CFE"/>
<mask id="mask2" mask-type="alpha" maskUnits="userSpaceOnUse" x="749" y="0" width="46" height="46">
<rect x="749" width="46" height="46" rx="23" fill="white"/>
</mask>
<g mask="url(#mask2)">
<rect x="748.33" y="-4" width="47.5631" height="54" rx="23" fill="#E8E8EB"/>
</g>
<path d="M771.034 28.18C769.978 28.18 769.078 28.012 768.334 27.676C767.602 27.34 767.05 26.92 766.678 26.416C766.318 25.9 766.126 25.372 766.102 24.832C766.102 24.724 766.138 24.64 766.21 24.58C766.294 24.508 766.39 24.472 766.498 24.472H768.118C768.382 24.472 768.556 24.592 768.64 24.832C768.904 25.696 769.708 26.128 771.052 26.128C771.784 26.128 772.36 25.96 772.78 25.624C773.2 25.276 773.41 24.784 773.41 24.148C773.41 22.948 772.66 22.348 771.16 22.348H769.306C769.174 22.348 769.066 22.306 768.982 22.222C768.898 22.138 768.856 22.036 768.856 21.916V21.16C768.856 20.968 768.94 20.788 769.108 20.62L772.33 17.47H767.182C767.062 17.47 766.96 17.428 766.876 17.344C766.792 17.26 766.75 17.158 766.75 17.038V15.85C766.75 15.718 766.786 15.61 766.858 15.526C766.942 15.442 767.05 15.4 767.182 15.4H774.904C775.036 15.4 775.144 15.442 775.228 15.526C775.312 15.61 775.354 15.718 775.354 15.85V16.93C775.354 17.11 775.276 17.278 775.12 17.434L772.006 20.638L772.222 20.656C773.374 20.752 774.286 21.1 774.958 21.7C775.642 22.3 775.984 23.158 775.984 24.274C775.984 25.066 775.768 25.756 775.336 26.344C774.916 26.932 774.328 27.388 773.572 27.712C772.828 28.024 771.982 28.18 771.034 28.18Z" fill="#9997B1"/>
<rect x="812" width="46" height="46" rx="23" fill="#4D7CFE"/>
<mask id="mask3" mask-type="alpha" maskUnits="userSpaceOnUse" x="812" y="0" width="46" height="46">
<rect x="812" width="46" height="46" rx="23" fill="white"/>
</mask>
<g mask="url(#mask3)">
<rect x="811.33" y="-4" width="47.5631" height="54" rx="23" fill="#E8E8EB"/>
</g>
<path d="M835.343 28C835.223 28 835.121 27.958 835.037 27.874C834.953 27.79 834.911 27.688 834.911 27.568V25.264H829.205C829.085 25.264 828.983 25.222 828.899 25.138C828.815 25.054 828.773 24.952 828.773 24.832V23.608C828.773 23.416 828.839 23.236 828.971 23.068L834.281 15.706C834.341 15.61 834.431 15.538 834.551 15.49C834.671 15.43 834.803 15.4 834.947 15.4H836.909C837.041 15.4 837.143 15.442 837.215 15.526C837.299 15.598 837.341 15.7 837.341 15.832V23.14H838.943C839.075 23.14 839.183 23.182 839.267 23.266C839.351 23.338 839.393 23.44 839.393 23.572V24.832C839.393 24.952 839.351 25.054 839.267 25.138C839.183 25.222 839.081 25.264 838.961 25.264H837.341V27.568C837.341 27.688 837.299 27.79 837.215 27.874C837.143 27.958 837.041 28 836.909 28H835.343ZM834.965 23.212V18.01L831.275 23.212H834.965Z" fill="#9997B1"/>
<rect x="874" width="46" height="46" rx="23" fill="#4D7CFE"/>
<mask id="mask4" mask-type="alpha" maskUnits="userSpaceOnUse" x="874" y="0" width="46" height="46">
<rect x="874" width="46" height="46" rx="23" fill="white"/>
</mask>
<g mask="url(#mask4)">
<rect x="873.33" y="-4" width="47.5631" height="54" rx="23" fill="#E8E8EB"/>
</g>
<path d="M896.031 28.198C895.035 28.198 894.177 28.03 893.457 27.694C892.749 27.358 892.203 26.914 891.819 26.362C891.447 25.81 891.249 25.216 891.225 24.58V24.544C891.225 24.448 891.261 24.37 891.333 24.31C891.405 24.25 891.495 24.22 891.603 24.22H893.277C893.553 24.22 893.733 24.34 893.817 24.58C893.985 25.108 894.261 25.498 894.645 25.75C895.041 26.002 895.503 26.128 896.031 26.128C896.703 26.128 897.261 25.924 897.705 25.516C898.161 25.108 898.389 24.538 898.389 23.806C898.389 23.158 898.161 22.63 897.705 22.222C897.261 21.814 896.703 21.61 896.031 21.61C895.671 21.61 895.377 21.658 895.149 21.754C894.921 21.85 894.699 21.982 894.483 22.15C894.339 22.258 894.225 22.336 894.141 22.384C894.069 22.42 893.979 22.438 893.871 22.438H892.215C892.107 22.438 892.011 22.402 891.927 22.33C891.855 22.246 891.819 22.15 891.819 22.042L892.449 15.886C892.461 15.742 892.509 15.628 892.593 15.544C892.689 15.448 892.809 15.4 892.953 15.4H899.721C899.841 15.4 899.943 15.442 900.027 15.526C900.111 15.61 900.153 15.712 900.153 15.832V17.038C900.153 17.158 900.111 17.26 900.027 17.344C899.943 17.428 899.841 17.47 899.721 17.47H894.519L894.231 20.404C894.819 19.996 895.605 19.792 896.589 19.792C897.369 19.792 898.089 19.96 898.749 20.296C899.421 20.62 899.955 21.094 900.351 21.718C900.747 22.33 900.945 23.044 900.945 23.86C900.945 24.736 900.741 25.504 900.333 26.164C899.925 26.812 899.349 27.316 898.605 27.676C897.873 28.024 897.015 28.198 896.031 28.198Z" fill="#9997B1"/>
</svg>
