<svg width="251" height="190" viewBox="0 0 251 190" fill="none" xmlns="http://www.w3.org/2000/svg">
<path d="M134.527 189.545C184.865 189.545 225.672 177.886 225.672 163.504C225.672 149.121 184.865 137.462 134.527 137.462C84.1882 137.462 43.3809 149.121 43.3809 163.504C43.3809 177.886 84.1882 189.545 134.527 189.545Z" fill="#F5F5F5"/>
<path d="M221.245 62.1992C221.245 62.1992 205.099 78.345 214.214 102.303C223.328 126.262 198.589 166.105 198.589 166.105C198.589 166.105 198.849 166.066 199.347 165.98C232.508 160.126 248.985 122.199 230.545 94.0247C223.698 83.5508 218.06 71.2617 221.245 62.1992Z" fill="#5E20E5"/>
<path d="M221.245 62.1992C221.245 62.1992 212.131 81.9909 221.245 98.1367C230.36 114.283 222.808 159.595 198.589 166.105" stroke="#BEC3FF" stroke-miterlimit="10"/>
<path d="M250 127.504C250 127.504 231.576 124.569 229.896 141.082C228.216 157.595 194.479 159.881 194.479 159.881C194.479 159.881 194.698 160.032 195.112 160.303C222.977 178.595 249.615 171.954 245.602 147.665C244.099 138.637 244.219 129.566 250 127.504Z" fill="#5E20E5"/>
<path opacity="0.2" d="M250 127.504C250 127.504 231.576 124.569 229.896 141.082C228.216 157.595 194.479 159.881 194.479 159.881C194.479 159.881 194.698 160.032 195.112 160.303C222.977 178.595 249.615 171.954 245.602 147.665C244.099 138.637 244.219 129.566 250 127.504Z" fill="#5E20E5"/>
<path d="M249.999 127.504C249.999 127.504 235.697 130.645 236.872 143.65C238.046 156.655 215.624 172.238 194.468 159.876" stroke="#BEC3FF" stroke-miterlimit="10"/>
<path opacity="0.2" d="M39.4274 0.0222359C37.3284 -0.0506807 35.1774 0.0222358 33.2086 0.75661C27.8519 2.754 25.3128 9.28785 26.1383 14.9467C26.9638 20.6056 30.3597 25.5196 33.8831 30.0222C37.4065 34.5248 41.2242 38.9701 43.1565 44.3451C44.1201 47.03 44.5706 50.0378 43.5914 52.7175C42.081 56.8503 37.5263 59.1602 33.1539 59.6394C28.7815 60.1185 24.3909 59.1836 20.0029 58.8581C18.1618 58.7279 16.2685 58.7123 14.5342 59.3165C12.6305 59.9753 11.0446 61.3191 9.58625 62.7201C3.89615 68.2149 -0.658534 75.7149 0.0784446 83.5899C0.911777 92.5169 8.34406 99.5742 16.4847 103.358C19.18 104.613 22.0316 105.629 24.4039 107.421C30.6539 112.145 32.0576 120.996 31.4352 128.811C30.8128 136.626 28.693 144.449 29.8727 152.197C31.2607 161.207 37.4039 169.345 45.6904 173.147C53.0732 176.533 62.3128 176.322 68.8675 171.533C72.0628 169.189 74.4794 165.957 76.581 162.605C79.753 157.549 82.3266 152.141 84.2502 146.491C85.1643 143.806 86.0237 140.918 88.1565 139.051C89.4586 137.902 91.1461 137.259 92.8153 136.759C97.8466 135.254 103.146 134.84 108.224 133.501C113.302 132.163 118.412 129.668 121.172 125.207C125.078 118.876 123.255 110.78 123.274 103.332C123.305 86.3633 133.459 71.1706 137.206 54.6342C138.43 49.2279 138.886 43.2462 136.151 38.4258C134.292 35.1368 131.159 32.793 127.865 30.9701C120.625 26.9493 112.396 25.1602 104.3 23.418C93.0471 21.0014 79.3831 20.6889 70.6617 12.8712C62.2919 5.37119 50.8414 0.0222359 39.4274 0.0222359Z" fill="#5E20E5"/>
<g opacity="0.5">
<path opacity="0.5" d="M80.245 65.7019C80.2444 61.6118 79.6039 57.5471 78.3466 53.655L75.2216 43.9649C75.2216 43.8035 75.2216 43.6446 75.2216 43.4858C75.3179 37.2748 70.4768 34.1759 68.6122 34.5118C66.7034 34.8556 61.4065 32.1993 61.4065 32.1993V32.2722C61.0433 31.8542 60.7158 31.4064 60.4273 30.9337C61.3425 30.2672 62.1152 29.4244 62.7 28.455C63.2848 27.4855 63.67 26.409 63.8328 25.2885C63.9955 24.1681 63.9327 23.0265 63.648 21.9307C63.3633 20.8349 62.8624 19.8071 62.1747 18.9077C62.7472 18.4775 63.1838 17.8917 63.4325 17.2202C63.8648 16.004 63.5341 14.616 62.831 13.5327C62.532 13.0804 62.1825 12.6637 61.7893 12.2905C61.1937 11.7004 60.5432 11.1685 59.8466 10.7019C58.1096 9.49882 56.2008 8.46496 54.1174 8.09778C53.7569 8.01266 53.3816 8.01266 53.0211 8.09778C52.7082 8.22404 52.4104 8.38475 52.1331 8.57694C50.706 9.38944 48.9299 9.03788 47.2841 8.95194C45.6383 8.866 43.6383 9.32694 43.1174 10.8712C42.956 11.3478 42.9664 11.8634 42.857 12.353C42.5966 13.5509 41.6721 14.4806 40.9586 15.478C40.245 16.4754 39.7112 17.8217 40.3049 18.9051C40.5081 19.2696 40.8258 19.6056 40.8258 20.0222C40.8258 20.3217 40.6487 20.59 40.5654 20.8764C40.3857 21.5275 40.7242 22.1785 41.245 22.6498C41.4695 22.8918 41.7337 23.0935 42.0263 23.2462C42.8518 23.6681 43.8023 23.7983 44.6435 24.1889C45.0633 24.3861 45.4485 24.6499 45.7841 24.9702C46.1952 25.4005 46.5165 25.9083 46.7293 26.464C46.9421 27.0198 47.0422 27.6123 47.0237 28.2071L47.1982 28.2254C47.1982 28.2774 47.1982 28.3269 47.1982 28.379C47.3805 28.3998 47.5732 28.4181 47.7633 28.4259C48.0367 28.8673 48.3496 29.2831 48.6982 29.6681C48.6391 29.8903 48.5723 30.116 48.4976 30.3452C47.8857 30.7696 42.8805 34.103 37.1878 33.3009C31.1122 32.4441 27.6383 59.0066 27.6383 59.0066C27.4131 60.5256 27.3034 62.0595 27.3102 63.5951C27.2841 67.5014 28.1044 72.6133 32.6747 71.8607L35.1044 71.0613V84.1993C35.1044 84.1993 35.4508 87.7982 34.2372 90.1889C33.0237 92.5795 38.0576 91.7305 38.0576 91.7305C38.0576 91.7305 38.2503 91.931 38.6044 92.2722L38.4924 92.5873L38.6409 92.7383C37.9788 95.0017 37.0861 97.1912 35.9768 99.2722L36.1201 99.3451C36.0289 99.5196 35.9768 99.6055 35.9768 99.6055C35.9768 99.6055 37.8466 100.561 40.4195 101.793C42.4872 108.783 47.0133 124.97 45.5237 128.053L45.5654 128.142C45.844 128.72 47.4013 132.129 47.0862 135.251C46.8023 138.043 50.6669 150.728 52.1096 155.335L51.4273 155.473L53.857 164.212L53.3362 169.868C53.3362 169.868 50.3857 177.751 57.3284 176.21C64.2711 174.668 62.3622 168.327 62.3622 168.327L62.5367 155.473C62.5367 155.473 61.8674 155.1 61.0419 154.743C60.4742 153.21 59.2372 149.585 59.2372 147.077C59.2372 143.822 56.9794 129.767 56.9794 129.767V129.738V129.684V129.668L56.9664 129.48V129.449C56.9664 129.275 56.9377 129.035 56.9169 128.744V128.728C56.6565 124.928 55.8752 112.02 56.4456 105.29C56.9471 104.948 57.4689 104.637 58.0081 104.358C59.6982 108.629 64.0549 120.168 63.7763 125.009C63.4299 130.999 63.6903 126.296 63.7763 125.53C63.8023 125.293 63.8206 125.579 63.8284 126.223C63.8284 126.34 63.8284 126.47 63.8284 126.608C63.8284 126.746 63.8284 126.9 63.8284 127.059C63.8284 127.217 63.8284 127.389 63.8284 127.579C63.8284 127.67 63.8284 127.762 63.8284 127.855C63.8284 128.043 63.8284 128.239 63.8284 128.444C63.8284 128.546 63.8284 128.651 63.8284 128.757C63.8284 129.277 63.8284 129.855 63.8101 130.457C63.8101 130.577 63.8101 130.698 63.8101 130.822C63.8101 131.189 63.8101 131.564 63.7919 131.944C63.7919 132.465 63.7711 132.97 63.7607 133.494C63.7346 134.665 63.7008 135.85 63.6591 136.96C63.6591 137.083 63.6548 137.205 63.6461 137.327C63.6374 137.57 63.6278 137.808 63.6174 138.04C63.607 138.273 63.5966 138.5 63.5862 138.723C63.5758 138.943 63.5645 139.158 63.5523 139.366C63.5393 139.611 63.5237 139.845 63.5107 140.069L62.5679 139.934L62.3674 142.1C62.0516 145.54 62.4961 149.008 63.6695 152.257C63.9924 153.147 64.2424 153.884 64.2971 154.147C64.4716 155.004 64.2971 161.178 64.2971 161.178C64.2971 161.178 65.3388 169.233 70.2008 167.689C72.3883 166.993 73.4507 164.879 73.9586 162.759C74.522 160.302 74.3119 157.73 73.357 155.397C72.6669 153.663 71.9612 151.23 72.4586 149.35C73.3257 146.095 73.3258 141.467 73.3258 141.467L72.7893 141.392C72.923 141.138 73.0438 140.877 73.1513 140.611C73.1513 140.611 72.9768 128.785 74.5393 127.244C75.3987 126.395 75.3205 124.355 75.0601 122.689C74.6881 120.277 74.6007 117.83 74.7997 115.397C74.9065 114.145 75.0601 113.053 75.2398 112.665C75.6981 111.759 76.1565 102.624 74.1278 98.2279L74.5445 98.0977L74.4794 97.7748L74.5445 97.754C74.8505 98.5707 75.1982 99.3712 75.5862 100.152C75.6887 100.233 75.8065 100.291 75.9325 100.324C81.5549 99.3373 81.7815 94.0899 81.469 91.2253C81.706 91.3399 81.8362 91.4128 81.8362 91.4128L82.357 83.8607C82.8908 82.655 83.0888 81.116 83.0757 79.4519C83.0992 73.504 80.245 65.7019 80.245 65.7019ZM74.0471 87.168C73.6617 83.879 73.1278 80.7826 73.1278 80.7826L70.5237 71.5274V68.1576L74.6539 83.5743L74.0471 87.168Z" fill="url(#paint0_linear)"/>
</g>
<path d="M62.3386 137.723L62.1459 139.84C61.8418 143.204 62.2727 146.594 63.4089 149.775C63.7188 150.647 63.961 151.366 64.0131 151.624C64.1797 152.462 64.0131 158.491 64.0131 158.491C64.0131 158.491 65.0183 166.363 69.7084 164.855C71.8178 164.178 72.8334 162.108 73.3334 160.038C73.8755 157.637 73.6719 155.127 72.75 152.845C72.0834 151.15 71.4011 148.767 71.8829 146.936C72.7214 143.754 72.7214 139.233 72.7214 139.233L62.3386 137.723Z" fill="#5A5773"/>
<path d="M57.3149 101.379C57.3149 101.379 63.8462 117.29 63.5103 123.15C63.1743 129.009 63.4269 124.405 63.5103 123.652C63.6587 122.311 63.5103 138.236 63.0076 140.059C63.0076 140.059 69.8748 145.082 72.5545 138.384C72.5545 138.384 72.3878 126.829 73.8931 125.322C74.7212 124.494 74.6404 122.499 74.3957 120.871C74.0343 118.517 73.947 116.128 74.1352 113.754C74.2368 112.53 74.3774 111.452 74.5597 111.085C75.0623 110.079 75.5649 98.6914 72.5493 95.5092L57.3149 101.379Z" fill="#605D82"/>
<path opacity="0.1" d="M63.8468 140.066C64.3494 138.225 64.4978 122.311 64.3494 123.66C64.266 124.413 64.0134 129.02 64.3494 123.158C64.6853 117.296 58.154 101.387 58.154 101.387L72.766 95.767C72.6983 95.681 72.628 95.6003 72.5577 95.5248L57.3181 101.387C57.3181 101.387 63.8494 117.298 63.5134 123.158C63.1775 129.017 63.4301 124.413 63.5134 123.66C63.6619 122.319 63.5134 138.243 63.0108 140.066C63.0108 140.066 65.753 142.072 68.4483 141.858C66.0499 141.678 63.8468 140.066 63.8468 140.066Z" fill="black"/>
<path d="M51.6199 152.962L53.9636 161.504L53.461 167.03C53.461 167.03 50.6147 174.733 57.3126 173.225C64.0105 171.717 62.1693 165.522 62.1693 165.522L62.336 152.962C62.336 152.962 59.6563 151.454 58.4844 151.624C57.3126 151.793 51.6199 152.962 51.6199 152.962Z" fill="#5A5773"/>
<path d="M40.0654 97.3607C40.0654 97.3607 47.7685 122.314 45.9274 126.165C45.9274 126.165 47.7685 129.85 47.4352 133.197C47.1019 136.543 52.7946 154.465 52.7946 154.465L61.1696 152.957C61.1696 152.957 59.1592 147.934 59.1592 144.751C59.1592 141.569 56.9821 127.824 56.9821 127.824C56.9821 127.824 55.1409 102.702 57.318 100.022L40.0654 97.3607Z" fill="#605D82"/>
<g opacity="0.1">
<path opacity="0.1" d="M56.6672 102.064C55.2792 107.751 56.813 128.681 56.813 128.681C56.813 128.681 58.9901 142.413 58.9901 145.608C58.9901 148.038 60.1594 151.538 60.714 153.059L61.1672 152.978C61.1672 152.978 59.1568 147.954 59.1568 144.772C59.1568 141.59 56.9797 127.845 56.9797 127.845C56.9797 127.845 55.5786 108.717 56.6672 102.064Z" fill="black"/>
<path opacity="0.1" d="M45.9272 126.165L45.9689 126.251C45.9819 126.165 45.995 126.074 46.0028 125.991C45.9806 126.05 45.9554 126.108 45.9272 126.165Z" fill="black"/>
<path opacity="0.1" d="M56.9378 100.845C57.0139 100.556 57.1418 100.284 57.3154 100.04L40.0654 97.3607C40.0654 97.3607 40.167 97.6862 40.3415 98.267L56.9378 100.845Z" fill="black"/>
</g>
<path d="M80.2576 88.3164C80.2576 88.3164 82.7706 97.6914 75.2342 99.0352C75.1119 99.0034 74.9976 98.9466 74.8983 98.8685C74.8983 98.8685 70.5441 90.3269 73.8931 86.9779L80.2576 88.3164Z" fill="#A1616A"/>
<path d="M49.4431 26.0222C49.4431 26.0222 49.9457 33.0535 44.4196 36.405C38.8936 39.7566 56.1384 48.9649 56.1384 48.9649L65.1826 34.5613C65.1826 34.5613 61.3337 35.0587 58.9899 28.366L49.4431 26.0222Z" fill="#A1616A"/>
<path opacity="0.1" d="M45.7578 36.9023C45.7578 36.9023 54.2995 54.6549 62.0026 37.9076L73.8932 96.8554C73.8932 96.8554 55.4687 102.551 55.3047 105.23C55.1406 107.91 36.7188 98.3658 36.7188 98.3658C36.7188 98.3658 40.737 90.9961 39.7344 86.4752C38.7318 81.9544 45.7578 36.9023 45.7578 36.9023Z" fill="black"/>
<path d="M45.7578 36.5664C45.7578 36.5664 54.2995 54.319 62.0026 37.5716L73.8932 96.5221C73.8932 96.5221 55.4687 102.217 55.3047 104.897C55.1406 107.577 36.7188 98.0299 36.7188 98.0299C36.7188 98.0299 40.737 90.6601 39.7344 86.1393C38.7318 81.6185 45.7578 36.5664 45.7578 36.5664Z" fill="#E1E7EF"/>
<path d="M54.1334 157.652C54.1334 157.652 51.9563 152.796 56.9798 152.796C62.0032 152.796 61.1673 157.15 61.1673 157.15L54.1334 157.652Z" fill="#5A5773"/>
<path d="M65.5211 145.09C65.5211 145.09 63.5107 139.897 68.5368 139.731C73.5628 139.564 71.0498 144.418 71.0498 144.418L65.5211 145.09Z" fill="#5A5773"/>
<path opacity="0.1" d="M61.25 32.793C61.25 32.793 66.3568 35.3971 68.2005 35.0534C70.0443 34.7096 74.8984 37.8997 74.5651 44.2643L77.5911 53.7591C78.8016 57.5662 79.4165 61.5376 79.414 65.5325C79.414 65.5325 83.7682 77.5898 81.4245 82.9492L80.9219 90.319C80.9219 90.319 77.0703 88.1419 73.0495 88.8111L74.0625 82.7929L69.5312 65.707L61.9948 47.4518L61.25 32.793Z" fill="black"/>
<path d="M61.25 32.4624C61.25 32.4624 66.3568 35.0666 68.2005 34.7228C70.0443 34.3791 74.8984 37.5692 74.5651 43.9337L77.5911 53.4285C78.8016 57.2357 79.4165 61.207 79.414 65.202C79.414 65.202 83.7682 77.2592 81.4245 82.6186L80.9219 89.9884C80.9219 89.9884 77.0703 87.8113 73.0495 88.4806L74.0547 82.4519L69.5312 65.3712L62.0026 47.116L61.25 32.4624Z" fill="#67647E"/>
<path opacity="0.1" d="M69.7083 52.8113V71.7357L72.2213 80.78C72.2213 80.78 73.8958 90.6602 73.3932 93.6758C72.8906 96.6914 64.8516 97.3607 62.6745 94.8477C60.4974 92.3347 61.6693 70.8894 61.6693 70.8894L61.25 39.4962L61.5859 38.491L69.7083 52.8113Z" fill="black"/>
<path d="M70.0526 51.9753V70.8997L72.5656 79.944C72.5656 79.944 74.2401 89.8242 73.7375 92.8398C73.2349 95.8554 65.1958 96.5247 63.0187 94.0117C60.8416 91.4987 62.0135 70.0534 62.0135 70.0534L61.5942 38.6523L70.0526 51.9753Z" fill="#67647E"/>
<path opacity="0.1" d="M36.2969 67.7175L41.6562 84.3842L39.1432 91.5013C39.1432 91.5013 51.0338 104.061 58.5703 98.0326C58.5703 98.0326 59.4088 72.4076 57.7318 66.379C56.0547 60.3503 48.0182 40.0769 48.0182 40.0769L46.3542 34.7253L37.4792 39.7488L36.2969 67.7175Z" fill="black"/>
<path d="M35.8776 66.8789V83.2851C35.8776 83.2851 36.2136 86.8033 35.0391 89.1471C33.8646 91.4908 38.724 90.6549 38.724 90.6549C38.724 90.6549 50.6146 103.215 58.151 97.1861C58.151 97.1861 58.9896 71.5612 57.3125 65.5325C55.6354 59.5039 47.599 39.2305 47.599 39.2305L45.9245 33.8711L37.0495 38.8945L35.8776 66.8789Z" fill="#67647E"/>
<path opacity="0.1" d="M48.8568 30.957C48.8568 30.957 43.7501 34.7253 37.8881 33.8867C32.0261 33.0482 28.6772 59.0091 28.6772 59.0091C28.6772 59.0091 26.5001 72.4075 33.5339 71.2356L49.1094 66.0429C49.1094 66.0429 45.7605 62.5247 46.2631 58.0039L38.724 61.0169L39.0626 46.6159L48.8568 30.957Z" fill="black"/>
<path opacity="0.1" d="M29.0102 58.6732C29.0102 58.6732 26.8331 72.0716 33.8669 70.8997L49.4424 65.707C49.4424 65.707 46.0935 62.1914 46.5961 57.668L39.0622 60.6836L29.0102 58.6732Z" fill="black"/>
<path d="M46.2268 59.4338C46.2268 59.4338 51.4534 52.5614 55.3023 55.8609C59.1513 59.1603 47.607 65.2072 47.607 65.2072L46.2268 59.4338Z" fill="#A1616A"/>
<path d="M48.8568 30.6211C48.8568 30.6211 43.7501 34.3893 37.8881 33.5508C32.0261 32.7122 28.6772 58.6732 28.6772 58.6732C28.6772 58.6732 26.5001 72.0716 33.5339 70.8997L49.1094 65.707C49.1094 65.707 45.7605 62.1888 46.2631 57.6679L38.724 60.6836L39.0626 46.2799L47.6042 39.2487L48.8568 30.6211Z" fill="#67647E"/>
<path opacity="0.1" d="M59.1566 28.6941L49.6097 26.3503C49.6097 26.3503 50.1071 26.9128 49.5264 29.1134C51.0628 30.8764 52.9508 33.2175 55.4717 33.2175C57.2757 33.2209 59.032 32.6388 60.4769 31.5587C59.9377 30.6527 59.4952 29.6925 59.1566 28.6941Z" fill="black"/>
<path d="M55.3049 32.8843C59.9303 32.8843 63.6799 29.1347 63.6799 24.5093C63.6799 19.8839 59.9303 16.1343 55.3049 16.1343C50.6795 16.1343 46.9299 19.8839 46.9299 24.5093C46.9299 29.1347 50.6795 32.8843 55.3049 32.8843Z" fill="#A1616A"/>
<path opacity="0.1" d="M58.4797 20.8737C60.4224 20.5429 62.5578 19.681 63.2088 17.8216C63.6255 16.6315 63.3078 15.2773 62.6281 14.2174C61.9484 13.1575 60.9484 12.3424 59.9172 11.6133C58.2427 10.4362 56.3963 9.42576 54.3807 9.07159C54.0332 8.9885 53.671 8.9885 53.3234 9.07159C53.0212 9.1953 52.7338 9.35253 52.4667 9.54034C51.0891 10.3346 49.3755 9.99086 47.7792 9.90753C46.1828 9.8242 44.2687 10.2747 43.7661 11.7825C43.6099 12.2487 43.6203 12.7513 43.5057 13.2304C43.2453 14.4023 42.3625 15.3138 41.6828 16.2903C41.0031 17.2669 40.4797 18.5872 41.0526 19.6393C41.2479 19.9961 41.5734 20.3242 41.5734 20.7304C41.5232 21.0192 41.4357 21.3002 41.313 21.5664C41.076 22.431 41.7661 23.3034 42.563 23.7148C43.3599 24.1263 44.2766 24.2539 45.0891 24.6367C45.8495 25.012 46.4862 25.5977 46.9234 26.3244C47.3606 27.051 47.5799 27.888 47.5552 28.7356C48.2948 28.8216 49.1568 28.8658 49.6568 28.3138C49.8807 28.0664 49.9901 27.7356 50.1932 27.4726C50.4536 27.1289 50.8599 26.9257 51.1932 26.6497C52.9458 25.2096 51.701 23.22 52.6932 21.6679C53.2141 20.8685 54.0422 21.1132 54.8807 21.1263C56.0856 21.1545 57.2905 21.0699 58.4797 20.8737Z" fill="black"/>
<path d="M58.3122 20.7072C60.2549 20.3764 62.3903 19.5145 63.0414 17.6551C63.458 16.465 63.1403 15.1108 62.4606 14.0509C61.7809 12.991 60.7809 12.1759 59.7497 11.4468C58.0752 10.2697 56.2289 9.25926 54.2132 8.90509C53.8657 8.822 53.5035 8.822 53.156 8.90509C52.8537 9.0288 52.5663 9.18603 52.2992 9.37384C50.9216 10.1681 49.208 9.82436 47.6117 9.74103C46.0153 9.6577 44.1013 10.1082 43.5987 11.616C43.4424 12.0822 43.4528 12.5848 43.3383 13.0639C43.0778 14.2358 42.195 15.1473 41.5153 16.1238C40.8357 17.1004 40.3122 18.4207 40.8851 19.4728C41.0804 19.8296 41.406 20.1577 41.406 20.5639C41.3557 20.8527 41.2682 21.1337 41.1455 21.3999C40.9086 22.2645 41.5987 23.1369 42.3955 23.5483C43.1924 23.9598 44.1091 24.0874 44.9216 24.4702C45.6852 24.8451 46.3246 25.432 46.7633 26.1608C47.2021 26.8896 47.4216 27.7293 47.3955 28.5796C48.1351 28.6655 48.9971 28.7098 49.4971 28.1577C49.7211 27.9103 49.8304 27.5796 50.0336 27.3165C50.294 26.9728 50.7002 26.7697 51.0336 26.4936C52.7862 25.0535 51.5414 23.0639 52.5336 21.5119C53.0544 20.7124 53.8825 20.9572 54.7211 20.9702C55.9237 20.9945 57.1259 20.9064 58.3122 20.7072Z" fill="#4A4347"/>
<path opacity="0.1" d="M68.4509 48.8765C68.4509 48.8765 70.2921 58.4233 69.4561 62.1082C68.9454 64.2519 69.0209 66.4934 69.6749 68.5978" fill="black"/>
<path opacity="0.1" d="M38.688 52.8945C38.688 52.8945 37.8859 59.2591 39.2218 60.5976L38.688 52.8945Z" fill="black"/>
<path d="M85.4512 131.329C85.5548 131.329 85.6541 131.288 85.7274 131.215C85.8006 131.142 85.8418 131.042 85.8418 130.939C85.8418 130.835 85.8006 130.736 85.7274 130.663C85.6541 130.589 85.5548 130.548 85.4512 130.548C85.3476 130.548 85.2482 130.589 85.175 130.663C85.1017 130.736 85.0605 130.835 85.0605 130.939C85.0605 131.042 85.1017 131.142 85.175 131.215C85.2482 131.288 85.3476 131.329 85.4512 131.329Z" fill="black"/>
<g opacity="0.5">
<path opacity="0.5" d="M205.73 85.8216V85.6054L134.678 30.9701C134.633 30.9369 134.578 30.9189 134.523 30.9189C134.467 30.9189 134.412 30.9369 134.368 30.9701L63.313 85.6054V170.293H63.4484V170.428H205.868V85.7408L205.73 85.8216Z" fill="url(#paint1_linear)"/>
</g>
<path d="M203.276 167.931H65.7764V86.1602L134.526 33.2957L203.276 86.1602V167.931Z" fill="white"/>
<path d="M198.329 163.085H70.7246V87.1993L134.527 38.1394L198.329 87.1993V163.085Z" fill="#E0E0E0"/>
<path d="M156.171 37.0056L78.333 57.4116L104.286 156.41L182.125 136.004L156.171 37.0056Z" fill="#5E20E5"/>
<path d="M175.151 52.0457H94.6826V154.389H175.151V52.0457Z" fill="#F5F5F5"/>
<path opacity="0.05" d="M66.4277 86.2904L135.178 127.176L66.4277 168.061V86.2904Z" fill="black"/>
<path d="M65.9062 86.2904L134.656 127.176L65.9062 168.061V86.2904Z" fill="white"/>
<path opacity="0.05" d="M202.886 86.2904L134.136 127.176L202.886 168.061V86.2904Z" fill="black"/>
<path d="M203.406 86.2904L134.656 127.176L203.406 168.061V86.2904Z" fill="white"/>
<path opacity="0.05" d="M65.9062 166.759L134.656 113.113L203.406 166.759H65.9062Z" fill="black"/>
<path d="M65.9062 168.061L134.656 114.415L203.406 168.061H65.9062Z" fill="white"/>
<path d="M79.8778 174.272C79.8778 174.272 76.4247 162.553 80.5262 153.923C82.269 150.316 82.7944 146.24 82.0236 142.309C81.6435 140.445 81.0934 138.621 80.3804 136.858" stroke="#535461" stroke-width="2" stroke-miterlimit="10"/>
<path d="M82.93 131.405C82.93 132.842 80.3258 137.007 80.3258 137.007C80.3258 137.007 77.7217 132.84 77.7217 131.405C77.7217 130.714 77.996 130.052 78.4844 129.564C78.9728 129.075 79.6352 128.801 80.3258 128.801C81.0165 128.801 81.6789 129.075 82.1673 129.564C82.6556 130.052 82.93 130.714 82.93 131.405Z" fill="#4D7CFE"/>
<path d="M87.2397 139.363C86.4584 140.569 82.0105 142.652 82.0105 142.652C82.0105 142.652 82.0912 137.741 82.8725 136.535C83.262 135.99 83.8467 135.616 84.505 135.49C85.1634 135.365 85.8447 135.499 86.4072 135.863C86.9697 136.227 87.3701 136.794 87.5252 137.446C87.6802 138.098 87.578 138.785 87.2397 139.363Z" fill="#4D7CFE"/>
<path d="M87.0417 152.96C85.7578 153.605 80.8672 153.16 80.8672 153.16C80.8672 153.16 83.4167 148.962 84.6979 148.316C85.0046 148.145 85.3428 148.037 85.6921 148C86.0415 147.962 86.3949 147.996 86.7309 148.099C87.0669 148.201 87.3787 148.371 87.6474 148.598C87.9161 148.824 88.1362 149.102 88.2945 149.416C88.4527 149.73 88.5459 150.072 88.5683 150.423C88.5907 150.774 88.5419 151.125 88.4249 151.456C88.3078 151.788 88.1249 152.092 87.8872 152.351C87.6495 152.61 87.3619 152.818 87.0417 152.962V152.96Z" fill="#4D7CFE"/>
<path d="M84.5828 163.217C83.4266 164.072 78.5308 164.457 78.5308 164.457C78.5308 164.457 80.3328 159.889 81.4891 159.035C82.0454 158.664 82.7232 158.521 83.3821 158.636C84.0409 158.751 84.6303 159.115 85.028 159.653C85.4257 160.19 85.6013 160.861 85.5185 161.524C85.4356 162.188 85.1006 162.794 84.5828 163.217Z" fill="#4D7CFE"/>
<path d="M76.5393 142.928C77.5809 143.928 82.37 144.967 82.37 144.967C82.37 144.967 81.1955 140.199 80.1643 139.199C79.6627 138.756 79.0096 138.523 78.3406 138.548C77.6716 138.574 77.0381 138.856 76.5717 139.336C76.1052 139.816 75.8416 140.458 75.8356 141.127C75.8295 141.796 76.0815 142.442 76.5393 142.931V142.928Z" fill="#4D7CFE"/>
<path d="M73.8156 154.962C75.0994 155.608 79.9901 155.163 79.9901 155.163C79.9901 155.163 77.4406 150.965 76.1593 150.319C75.5475 150.043 74.8526 150.013 74.2196 150.237C73.5866 150.46 73.0644 150.92 72.762 151.519C72.4596 152.119 72.4004 152.812 72.5967 153.454C72.793 154.096 73.2297 154.637 73.8156 154.965V154.962Z" fill="#4D7CFE"/>
<path d="M72.7732 167.019C73.9294 167.874 78.8252 168.259 78.8252 168.259C78.8252 168.259 77.0231 163.691 75.8669 162.837C75.5939 162.614 75.2784 162.449 74.9396 162.351C74.6008 162.253 74.2456 162.225 73.8957 162.269C73.5458 162.313 73.2084 162.427 72.904 162.605C72.5996 162.783 72.3345 163.021 72.1248 163.304C71.9151 163.588 71.7652 163.911 71.6841 164.254C71.603 164.597 71.5924 164.954 71.653 165.301C71.7137 165.648 71.8442 165.98 72.0367 166.275C72.2293 166.571 72.4798 166.824 72.7732 167.019Z" fill="#4D7CFE"/>
<path opacity="0.5" d="M131.662 56.7332H99.3701V59.3373H131.662V56.7332Z" fill="#4D7CFE"/>
<path opacity="0.5" d="M169.162 67.1499H99.3701V69.7541H169.162V67.1499Z" fill="#4D7CFE"/>
<path opacity="0.5" d="M169.162 73.9207H99.3701V76.5248H169.162V73.9207Z" fill="#4D7CFE"/>
<path opacity="0.4" d="M169.162 80.6914H99.3701V83.2956H169.162V80.6914Z" fill="#4D7CFE"/>
<path opacity="0.4" d="M169.162 87.4623H99.3701V90.0664H169.162V87.4623Z" fill="#4D7CFE"/>
<path opacity="0.3" d="M139.214 94.2332H99.3701V96.8373H139.214V94.2332Z" fill="#4D7CFE"/>
<path opacity="0.3" d="M153.797 101.004H99.3701V103.608H153.797V101.004Z" fill="#4D7CFE"/>
<defs>
<linearGradient id="paint0_linear" x1="27.3128" y1="92.2357" x2="83.0471" y2="92.2357" gradientUnits="userSpaceOnUse">
<stop stop-color="#808080" stop-opacity="0.25"/>
<stop offset="0.54" stop-color="#808080" stop-opacity="0.12"/>
<stop offset="1" stop-color="#808080" stop-opacity="0.1"/>
</linearGradient>
<linearGradient id="paint1_linear" x1="90846.3" y1="103345" x2="90846.3" y2="28602.4" gradientUnits="userSpaceOnUse">
<stop stop-color="#808080" stop-opacity="0.25"/>
<stop offset="0.54" stop-color="#808080" stop-opacity="0.12"/>
<stop offset="1" stop-color="#808080" stop-opacity="0.1"/>
</linearGradient>
</defs>
</svg>
