<svg width="30" height="30" viewBox="0 0 30 30" fill="none" xmlns="http://www.w3.org/2000/svg">
<rect width="30" height="30" rx="15" fill="#4D7CFE"/>
<mask id="mask0" mask-type="alpha" maskUnits="userSpaceOnUse" x="0" y="0" width="30" height="30">
<rect width="30" height="30" rx="15" fill="white"/>
</mask>
<g mask="url(#mask0)">
<rect x="-0.437012" y="-2.60864" width="31.0194" height="35.2174" rx="15.5097" fill="#292984"/>
</g>
<path d="M15.054 19C14.9607 19 14.8813 18.9673 14.816 18.902C14.7507 18.8367 14.718 18.7573 14.718 18.664V11.412L12.59 13.05C12.534 13.0967 12.4687 13.12 12.394 13.12C12.282 13.12 12.1887 13.0687 12.114 12.966L11.526 12.21C11.4793 12.1353 11.456 12.0653 11.456 12C11.456 11.888 11.5073 11.7947 11.61 11.72L14.746 9.298C14.83 9.23267 14.9467 9.2 15.096 9.2H16.328C16.4307 9.2 16.51 9.23267 16.566 9.298C16.6313 9.354 16.664 9.43333 16.664 9.536V18.664C16.664 18.7573 16.6313 18.8367 16.566 18.902C16.51 18.9673 16.4307 19 16.328 19H15.054Z" fill="white"/>
</svg>
