<svg width="10" height="14" viewBox="0 0 10 14" fill="none" xmlns="http://www.w3.org/2000/svg">
<path d="M5.03354 13.18C3.97754 13.18 3.07754 13.012 2.33354 12.676C1.60154 12.34 1.04954 11.92 0.67754 11.416C0.31754 10.9 0.12554 10.372 0.10154 9.832C0.10154 9.724 0.13754 9.64 0.20954 9.58C0.29354 9.508 0.38954 9.472 0.49754 9.472H2.11754C2.38154 9.472 2.55554 9.592 2.63954 9.832C2.90354 10.696 3.70754 11.128 5.05154 11.128C5.78354 11.128 6.35954 10.96 6.77954 10.624C7.19954 10.276 7.40954 9.784 7.40954 9.148C7.40954 7.948 6.65954 7.348 5.15954 7.348H3.30554C3.17354 7.348 3.06554 7.306 2.98154 7.222C2.89754 7.138 2.85554 7.036 2.85554 6.916V6.16C2.85554 5.968 2.93954 5.788 3.10754 5.62L6.32954 2.47H1.18154C1.06154 2.47 0.95954 2.428 0.87554 2.344C0.79154 2.26 0.74954 2.158 0.74954 2.038V0.85C0.74954 0.717999 0.78554 0.609999 0.85754 0.526C0.94154 0.441999 1.04954 0.399999 1.18154 0.399999H8.90354C9.03554 0.399999 9.14354 0.441999 9.22754 0.526C9.31154 0.609999 9.35354 0.717999 9.35354 0.85V1.93C9.35354 2.11 9.27554 2.278 9.11954 2.434L6.00554 5.638L6.22154 5.656C7.37354 5.752 8.28554 6.1 8.95754 6.7C9.64154 7.3 9.98354 8.158 9.98354 9.274C9.98354 10.066 9.76754 10.756 9.33554 11.344C8.91554 11.932 8.32754 12.388 7.57154 12.712C6.82754 13.024 5.98154 13.18 5.03354 13.18Z" fill="white"/>
</svg>
