<svg width="10" height="13" viewBox="0 0 10 13" fill="none" xmlns="http://www.w3.org/2000/svg">
<path d="M0.77422 13C0.65422 13 0.55222 12.958 0.46822 12.874C0.38422 12.79 0.34222 12.688 0.34222 12.568V11.65C0.34222 11.326 0.49222 11.044 0.79222 10.804L3.63622 7.978C4.87222 7.006 5.73022 6.25 6.21022 5.71C6.70222 5.158 6.94822 4.618 6.94822 4.09C6.94822 3.526 6.79222 3.082 6.48022 2.758C6.18022 2.434 5.72422 2.272 5.11222 2.272C4.51222 2.272 4.03822 2.452 3.69022 2.812C3.34222 3.16 3.12622 3.616 3.04222 4.18C3.00622 4.324 2.94022 4.432 2.84422 4.504C2.74822 4.564 2.64022 4.594 2.52022 4.594H0.91822C0.81022 4.594 0.72022 4.558 0.64822 4.486C0.57622 4.414 0.54022 4.33 0.54022 4.234C0.56422 3.526 0.75622 2.866 1.11622 2.254C1.47622 1.63 1.99822 1.132 2.68222 0.76C3.36622 0.376 4.17022 0.184 5.09422 0.184C6.05422 0.184 6.86422 0.352 7.52422 0.688C8.19622 1.012 8.70022 1.462 9.03622 2.038C9.37222 2.614 9.54022 3.268 9.54022 4C9.54022 4.804 9.31222 5.53 8.85622 6.178C8.41222 6.826 7.72822 7.522 6.80422 8.266L4.24822 10.858H9.37822C9.51022 10.858 9.61222 10.9 9.68422 10.984C9.76822 11.056 9.81022 11.158 9.81022 11.29V12.568C9.81022 12.688 9.76822 12.79 9.68422 12.874C9.61222 12.958 9.51022 13 9.37822 13H0.77422Z" fill="white"/>
</svg>
