<svg width="7" height="13" viewBox="0 0 7 13" fill="none" xmlns="http://www.w3.org/2000/svg">
<path d="M4.92447 13C4.80447 13 4.70247 12.958 4.61847 12.874C4.53447 12.79 4.49247 12.688 4.49247 12.568V3.244L1.75647 5.35C1.68447 5.41 1.60047 5.44 1.50447 5.44C1.36047 5.44 1.24047 5.374 1.14447 5.242L0.38847 4.27C0.32847 4.174 0.29847 4.084 0.29847 4C0.29847 3.856 0.36447 3.736 0.49647 3.64L4.52847 0.526C4.63647 0.441999 4.78647 0.399999 4.97847 0.399999H6.56247C6.69447 0.399999 6.79647 0.441999 6.86847 0.526C6.95247 0.597999 6.99447 0.699999 6.99447 0.831999V12.568C6.99447 12.688 6.95247 12.79 6.86847 12.874C6.79647 12.958 6.69447 13 6.56247 13H4.92447Z" fill="white"/>
</svg>
