<svg width="12" height="13" viewBox="0 0 12 13" fill="none" xmlns="http://www.w3.org/2000/svg">
<path d="M7.34437 13C7.22437 13 7.12237 12.958 7.03837 12.874C6.95437 12.79 6.91237 12.688 6.91237 12.568V10.264H1.20637C1.08637 10.264 0.984368 10.222 0.900368 10.138C0.816368 10.054 0.774368 9.952 0.774368 9.832V8.608C0.774368 8.416 0.840368 8.236 0.972368 8.068L6.28237 0.705999C6.34237 0.609999 6.43237 0.537999 6.55237 0.489999C6.67237 0.429999 6.80437 0.399999 6.94837 0.399999H8.91037C9.04237 0.399999 9.14437 0.441999 9.21637 0.526C9.30037 0.597999 9.34237 0.699999 9.34237 0.831999V8.14H10.9444C11.0764 8.14 11.1844 8.182 11.2684 8.266C11.3524 8.338 11.3944 8.44 11.3944 8.572V9.832C11.3944 9.952 11.3524 10.054 11.2684 10.138C11.1844 10.222 11.0824 10.264 10.9624 10.264H9.34237V12.568C9.34237 12.688 9.30037 12.79 9.21637 12.874C9.14437 12.958 9.04237 13 8.91037 13H7.34437ZM6.96637 8.212V3.01L3.27637 8.212H6.96637Z" fill="white"/>
</svg>
