<svg width="10" height="14" viewBox="0 0 10 14" fill="none" xmlns="http://www.w3.org/2000/svg">
<path d="M5.03241 13.198C4.03641 13.198 3.17841 13.03 2.45841 12.694C1.75041 12.358 1.20441 11.914 0.820407 11.362C0.448407 10.81 0.250407 10.216 0.226407 9.58V9.544C0.226407 9.448 0.262407 9.37 0.334407 9.31C0.406407 9.25 0.496407 9.22 0.604407 9.22H2.27841C2.55441 9.22 2.73441 9.34 2.81841 9.58C2.98641 10.108 3.26241 10.498 3.64641 10.75C4.04241 11.002 4.50441 11.128 5.03241 11.128C5.70441 11.128 6.26241 10.924 6.70641 10.516C7.16241 10.108 7.39041 9.538 7.39041 8.806C7.39041 8.158 7.16241 7.63 6.70641 7.222C6.26241 6.814 5.70441 6.61 5.03241 6.61C4.67241 6.61 4.37841 6.658 4.15041 6.754C3.92241 6.85 3.70041 6.982 3.48441 7.15C3.34041 7.258 3.22641 7.336 3.14241 7.384C3.07041 7.42 2.98041 7.438 2.87241 7.438H1.21641C1.10841 7.438 1.01241 7.402 0.928407 7.33C0.856407 7.246 0.820407 7.15 0.820407 7.042L1.45041 0.885999C1.46241 0.741999 1.51041 0.627999 1.59441 0.543999C1.69041 0.447999 1.81041 0.399999 1.95441 0.399999H8.72241C8.84241 0.399999 8.94441 0.441999 9.02841 0.526C9.11241 0.609999 9.15441 0.711999 9.15441 0.831999V2.038C9.15441 2.158 9.11241 2.26 9.02841 2.344C8.94441 2.428 8.84241 2.47 8.72241 2.47H3.52041L3.23241 5.404C3.82041 4.996 4.60641 4.792 5.59041 4.792C6.37041 4.792 7.09041 4.96 7.75041 5.296C8.42241 5.62 8.95641 6.094 9.35241 6.718C9.74841 7.33 9.94641 8.044 9.94641 8.86C9.94641 9.736 9.74241 10.504 9.33441 11.164C8.92641 11.812 8.35041 12.316 7.60641 12.676C6.87441 13.024 6.01641 13.198 5.03241 13.198Z" fill="white"/>
</svg>
