<svg width="270" height="19" viewBox="0 0 270 19" fill="none" xmlns="http://www.w3.org/2000/svg">
<path d="M0.5 9.5H268.726" stroke="#D8D7E1" stroke-linecap="square"/>
<rect x="111" y="1" width="48" height="18" fill="white"/>
<path opacity="0.2" d="M135.066 9.1C135.066 10.0427 134.861 10.8967 134.45 11.662C134.049 12.4273 133.489 13.034 132.77 13.482C132.051 13.9207 131.239 14.14 130.334 14.14C129.429 14.14 128.617 13.9207 127.898 13.482C127.179 13.034 126.615 12.4273 126.204 11.662C125.803 10.8967 125.602 10.0427 125.602 9.1C125.602 8.15733 125.803 7.30333 126.204 6.538C126.615 5.77267 127.179 5.17067 127.898 4.732C128.617 4.284 129.429 4.06 130.334 4.06C131.239 4.06 132.051 4.284 132.77 4.732C133.489 5.17067 134.049 5.77267 134.45 6.538C134.861 7.30333 135.066 8.15733 135.066 9.1ZM133.624 9.1C133.624 8.4 133.484 7.77 133.204 7.21C132.924 6.64067 132.532 6.19733 132.028 5.88C131.533 5.55333 130.969 5.39 130.334 5.39C129.699 5.39 129.13 5.54867 128.626 5.866C128.131 6.18333 127.744 6.62667 127.464 7.196C127.184 7.756 127.044 8.39067 127.044 9.1C127.044 9.8 127.184 10.4347 127.464 11.004C127.744 11.564 128.131 12.0073 128.626 12.334C129.13 12.6513 129.699 12.81 130.334 12.81C130.969 12.81 131.533 12.6513 132.028 12.334C132.532 12.0073 132.924 11.564 133.204 11.004C133.484 10.4347 133.624 9.8 133.624 9.1ZM143.77 4.186C143.966 4.186 144.12 4.25133 144.232 4.382C144.353 4.50333 144.414 4.662 144.414 4.858V10.234C144.414 10.9713 144.251 11.634 143.924 12.222C143.597 12.81 143.145 13.272 142.566 13.608C141.997 13.9347 141.353 14.098 140.634 14.098C139.906 14.098 139.253 13.9347 138.674 13.608C138.095 13.272 137.643 12.81 137.316 12.222C136.989 11.634 136.826 10.9713 136.826 10.234V4.858C136.826 4.662 136.891 4.50333 137.022 4.382C137.153 4.25133 137.321 4.186 137.526 4.186C137.703 4.186 137.857 4.25133 137.988 4.382C138.128 4.51267 138.198 4.67133 138.198 4.858V10.234C138.198 10.7193 138.31 11.158 138.534 11.55C138.758 11.9327 139.057 12.2313 139.43 12.446C139.803 12.6607 140.205 12.768 140.634 12.768C141.082 12.768 141.497 12.6607 141.88 12.446C142.263 12.2313 142.566 11.9327 142.79 11.55C143.023 11.158 143.14 10.7193 143.14 10.234V4.858C143.14 4.662 143.196 4.50333 143.308 4.382C143.42 4.25133 143.574 4.186 143.77 4.186Z" fill="#3A3768"/>
</svg>
