<svg width="20" height="20" viewBox="0 0 20 20" fill="none" xmlns="http://www.w3.org/2000/svg">
<g clip-path="url(#clip0)">
<path d="M19.8381 9.53667C16.8173 5.82188 13.5556 3.93591 10.1347 3.93591C8.77943 3.93591 7.40782 4.23799 6.05254 4.82991C4.98709 5.29936 3.9298 5.94843 2.91334 6.76078C1.19474 8.13648 0.182357 9.50809 0.141535 9.56524C-0.0544098 9.83467 -0.0462454 10.2021 0.161946 10.4633C3.17868 14.1822 6.44443 16.0641 9.86529 16.0641C11.2206 16.0641 12.5922 15.762 13.9475 15.1701C15.0129 14.7006 16.0702 14.0516 17.0867 13.2392C18.8053 11.8635 19.8177 10.4919 19.8585 10.4347C20.0544 10.1653 20.0463 9.79793 19.8381 9.53667ZM16.1355 12.1166C14.7149 13.2474 12.4779 14.5945 9.86529 14.5945C7.04451 14.5945 4.29312 13.0473 1.68052 9.99387C2.09282 9.50809 2.84802 8.69574 3.8604 7.88747C5.281 6.7567 7.51804 5.40958 10.1306 5.40958C12.9514 5.40958 15.7028 6.95673 18.3154 10.0102C17.9031 10.496 17.1479 11.3124 16.1355 12.1166Z" fill="#9997B1"/>
<path d="M12.7065 9.26733C12.3023 9.26733 11.9717 9.59799 11.9717 10.0021C11.9717 11.0921 11.0859 11.9779 9.99591 11.9779C8.90596 11.9779 8.02013 11.0921 8.02013 10.0021C8.02013 8.91218 8.90596 8.02635 9.99591 8.02635C10.4 8.02635 10.7307 7.69569 10.7307 7.29156C10.7307 6.88742 10.4 6.55676 9.99591 6.55676C8.09361 6.55676 6.55054 8.10391 6.55054 10.0021C6.55054 11.9003 8.09361 13.4475 9.99591 13.4475C11.8982 13.4475 13.4413 11.9003 13.4413 10.0021C13.4413 9.59799 13.1106 9.26733 12.7065 9.26733Z" fill="#9997B1"/>
</g>
<defs>
<clipPath id="clip0">
<rect width="20" height="20" fill="white"/>
</clipPath>
</defs>
</svg>
