<svg width="15" height="15" viewBox="0 0 15 15" fill="none" xmlns="http://www.w3.org/2000/svg">
<path d="M2.85523 8.3244C3.6059 9.07507 4.51743 9.4504 5.58981 9.4504C6.6622 9.4504 7.57373 9.07507 8.3244 8.3244C9.07507 7.57373 9.4504 6.6622 9.4504 5.58981C9.4504 4.51743 9.07507 3.6059 8.3244 2.85523C7.57373 2.10456 6.6622 1.72922 5.58981 1.72922C4.51743 1.72922 3.6059 2.10456 2.85523 2.85523C2.10456 3.6059 1.72922 4.51743 1.72922 5.58981C1.72922 6.6622 2.10456 7.57373 2.85523 8.3244ZM10.7373 9.4504L15 13.7131L13.7131 15L9.4504 10.7373V10.0536L9.20912 9.81233C8.19035 10.6971 6.98391 11.1394 5.58981 11.1394C4.03485 11.1394 2.70777 10.6032 1.60858 9.53083C0.536193 8.45844 0 7.14477 0 5.58981C0 4.03485 0.536193 2.72118 1.60858 1.64879C2.70777 0.549598 4.03485 0 5.58981 0C7.14477 0 8.45844 0.549598 9.53083 1.64879C10.6032 2.72118 11.1394 4.03485 11.1394 5.58981C11.1394 6.98391 10.6971 8.19035 9.81233 9.20912L10.0536 9.4504H10.7373Z" fill="#9997B1"/>
</svg>
