<svg width="311" height="20" viewBox="0 0 311 20" fill="none" xmlns="http://www.w3.org/2000/svg">
<path d="M7.622 14.344C7.874 14.344 8.078 14.428 8.234 14.596C8.402 14.764 8.486 14.962 8.486 15.19C8.486 15.43 8.402 15.628 8.234 15.784C8.078 15.928 7.874 16 7.622 16H1.358C1.118 16 0.914 15.916 0.746 15.748C0.578 15.58 0.494 15.376 0.494 15.136V4.264C0.494 4.024 0.578 3.82 0.746 3.652C0.914 3.484 1.118 3.4 1.358 3.4H7.622C7.874 3.4 8.078 3.478 8.234 3.634C8.402 3.79 8.486 3.994 8.486 4.246C8.486 4.486 8.402 4.684 8.234 4.84C8.078 4.984 7.874 5.056 7.622 5.056H2.276V8.728H6.812C7.064 8.728 7.268 8.806 7.424 8.962C7.592 9.118 7.676 9.316 7.676 9.556C7.676 9.808 7.592 10.006 7.424 10.15C7.268 10.294 7.064 10.366 6.812 10.366H2.276V14.344H7.622ZM4.616 2.662C4.436 2.662 4.292 2.62 4.184 2.536C4.088 2.44 4.04 2.314 4.04 2.158C4.04 2.002 4.112 1.864 4.256 1.744L5.84 0.411999C6.092 0.207999 6.332 0.106 6.56 0.106C6.764 0.106 6.944 0.177999 7.1 0.321999C7.268 0.465999 7.352 0.639999 7.352 0.843999C7.352 0.999999 7.304 1.15 7.208 1.294C7.112 1.438 6.98 1.552 6.812 1.636L5.03 2.554C4.886 2.626 4.748 2.662 4.616 2.662ZM13.2996 8.242V13.606C13.2996 14.206 13.5696 14.506 14.1096 14.506C14.1936 14.506 14.3076 14.488 14.4516 14.452C14.5956 14.404 14.7096 14.38 14.7936 14.38C14.9496 14.38 15.0816 14.446 15.1896 14.578C15.2976 14.71 15.3516 14.878 15.3516 15.082C15.3516 15.334 15.2076 15.55 14.9196 15.73C14.6316 15.91 14.3076 16 13.9476 16C13.5516 16 13.1856 15.958 12.8496 15.874C12.5256 15.79 12.2316 15.58 11.9676 15.244C11.7156 14.896 11.5896 14.374 11.5896 13.678V8.242H10.5456C10.3176 8.242 10.1256 8.17 9.96962 8.026C9.82562 7.87 9.75362 7.678 9.75362 7.45C9.75362 7.222 9.82562 7.036 9.96962 6.892C10.1256 6.748 10.3176 6.676 10.5456 6.676H11.5896V5.164C11.5896 4.924 11.6676 4.72 11.8236 4.552C11.9916 4.384 12.2016 4.3 12.4536 4.3C12.6936 4.3 12.8916 4.384 13.0476 4.552C13.2156 4.72 13.2996 4.924 13.2996 5.164V6.676H14.7936C15.0216 6.676 15.2076 6.754 15.3516 6.91C15.5076 7.054 15.5856 7.24 15.5856 7.468C15.5856 7.696 15.5076 7.882 15.3516 8.026C15.2076 8.17 15.0216 8.242 14.7936 8.242H13.2996ZM25.4315 6.442C25.6835 6.442 25.8875 6.526 26.0435 6.694C26.2115 6.85 26.2955 7.06 26.2955 7.324V15.136C26.2955 15.376 26.2115 15.58 26.0435 15.748C25.8875 15.916 25.6835 16 25.4315 16C25.1795 16 24.9755 15.922 24.8195 15.766C24.6635 15.598 24.5855 15.388 24.5855 15.136V14.668C24.2735 15.088 23.8475 15.448 23.3075 15.748C22.7675 16.036 22.1855 16.18 21.5615 16.18C20.7455 16.18 20.0015 15.97 19.3295 15.55C18.6695 15.13 18.1475 14.548 17.7635 13.804C17.3915 13.048 17.2055 12.202 17.2055 11.266C17.2055 10.33 17.3915 9.49 17.7635 8.746C18.1475 7.99 18.6695 7.402 19.3295 6.982C19.9895 6.562 20.7155 6.352 21.5075 6.352C22.1435 6.352 22.7315 6.484 23.2715 6.748C23.8235 7.012 24.2615 7.348 24.5855 7.756V7.324C24.5855 7.072 24.6635 6.862 24.8195 6.694C24.9755 6.526 25.1795 6.442 25.4315 6.442ZM21.7595 14.596C22.3235 14.596 22.8215 14.452 23.2535 14.164C23.6975 13.876 24.0395 13.48 24.2795 12.976C24.5315 12.472 24.6575 11.902 24.6575 11.266C24.6575 10.642 24.5315 10.078 24.2795 9.574C24.0395 9.07 23.6975 8.674 23.2535 8.386C22.8215 8.086 22.3235 7.936 21.7595 7.936C21.1955 7.936 20.6915 8.08 20.2475 8.368C19.8155 8.656 19.4735 9.052 19.2215 9.556C18.9815 10.06 18.8615 10.63 18.8615 11.266C18.8615 11.902 18.9815 12.472 19.2215 12.976C19.4735 13.48 19.8155 13.876 20.2475 14.164C20.6915 14.452 21.1955 14.596 21.7595 14.596ZM33.7722 6.406C34.5882 6.406 35.3262 6.616 35.9862 7.036C36.6462 7.444 37.1622 8.02 37.5342 8.764C37.9182 9.508 38.1102 10.348 38.1102 11.284C38.1102 12.22 37.9182 13.06 37.5342 13.804C37.1622 14.536 36.6462 15.112 35.9862 15.532C35.3262 15.952 34.6002 16.162 33.8082 16.162C33.1842 16.162 32.6022 16.024 32.0622 15.748C31.5222 15.472 31.0842 15.136 30.7482 14.74V18.736C30.7482 18.976 30.6642 19.18 30.4962 19.348C30.3402 19.516 30.1362 19.6 29.8842 19.6C29.6442 19.6 29.4402 19.516 29.2722 19.348C29.1162 19.192 29.0382 18.988 29.0382 18.736V7.414C29.0382 7.162 29.1162 6.952 29.2722 6.784C29.4282 6.616 29.6322 6.532 29.8842 6.532C30.1362 6.532 30.3402 6.616 30.4962 6.784C30.6642 6.952 30.7482 7.162 30.7482 7.414V7.936C31.0362 7.516 31.4562 7.156 32.0082 6.856C32.5602 6.556 33.1482 6.406 33.7722 6.406ZM33.5742 14.578C34.1262 14.578 34.6242 14.434 35.0682 14.146C35.5122 13.858 35.8542 13.468 36.0942 12.976C36.3462 12.472 36.4722 11.908 36.4722 11.284C36.4722 10.66 36.3462 10.102 36.0942 9.61C35.8542 9.106 35.5122 8.71 35.0682 8.422C34.6242 8.134 34.1262 7.99 33.5742 7.99C33.0102 7.99 32.5062 8.134 32.0622 8.422C31.6182 8.698 31.2702 9.088 31.0182 9.592C30.7782 10.096 30.6582 10.66 30.6582 11.284C30.6582 11.908 30.7782 12.472 31.0182 12.976C31.2702 13.48 31.6182 13.876 32.0622 14.164C32.5062 14.44 33.0102 14.578 33.5742 14.578ZM48.5748 10.924C48.5628 11.14 48.4728 11.326 48.3048 11.482C48.1368 11.626 47.9388 11.698 47.7108 11.698H41.3748C41.4588 12.574 41.7888 13.276 42.3648 13.804C42.9528 14.332 43.6668 14.596 44.5068 14.596C45.0828 14.596 45.5508 14.512 45.9108 14.344C46.2708 14.176 46.5888 13.96 46.8648 13.696C47.0448 13.588 47.2188 13.534 47.3868 13.534C47.5908 13.534 47.7588 13.606 47.8908 13.75C48.0348 13.894 48.1068 14.062 48.1068 14.254C48.1068 14.506 47.9868 14.734 47.7468 14.938C47.3988 15.286 46.9368 15.58 46.3608 15.82C45.7848 16.06 45.1968 16.18 44.5968 16.18C43.6248 16.18 42.7668 15.976 42.0228 15.568C41.2908 15.16 40.7208 14.59 40.3128 13.858C39.9168 13.126 39.7188 12.298 39.7188 11.374C39.7188 10.366 39.9228 9.484 40.3308 8.728C40.7508 7.96 41.2968 7.372 41.9688 6.964C42.6528 6.556 43.3848 6.352 44.1648 6.352C44.9328 6.352 45.6528 6.55 46.3248 6.946C46.9968 7.342 47.5368 7.888 47.9448 8.584C48.3528 9.28 48.5628 10.06 48.5748 10.924ZM44.1648 7.936C43.4928 7.936 42.9108 8.128 42.4188 8.512C41.9268 8.884 41.6028 9.466 41.4468 10.258H46.7568V10.114C46.6968 9.478 46.4088 8.956 45.8928 8.548C45.3888 8.14 44.8128 7.936 44.1648 7.936ZM59.4626 7.576C60.2426 7.576 60.9506 7.756 61.5866 8.116C62.2226 8.464 62.7206 8.956 63.0806 9.592C63.4406 10.216 63.6206 10.918 63.6206 11.698C63.6206 12.526 63.4046 13.276 62.9726 13.948C62.5526 14.62 61.9706 15.154 61.2266 15.55C60.4946 15.934 59.6906 16.126 58.8146 16.126C58.3226 16.126 57.8306 16.048 57.3386 15.892C56.8466 15.736 56.4326 15.52 56.0966 15.244C55.9766 15.148 55.8806 15.022 55.8086 14.866C55.7366 14.71 55.7006 14.554 55.7006 14.398C55.7006 14.218 55.7726 14.056 55.9166 13.912C56.0726 13.756 56.2706 13.678 56.5106 13.678C56.6666 13.678 56.8766 13.768 57.1406 13.948C57.6806 14.344 58.2326 14.542 58.7966 14.542C59.3726 14.542 59.8946 14.416 60.3626 14.164C60.8426 13.912 61.2206 13.57 61.4966 13.138C61.7726 12.706 61.9106 12.232 61.9106 11.716C61.9106 10.948 61.6586 10.33 61.1546 9.862C60.6506 9.394 60.0146 9.16 59.2466 9.16C58.9226 9.16 58.6346 9.202 58.3826 9.286C58.1426 9.37 57.8486 9.496 57.5006 9.664C57.3566 9.736 57.2126 9.802 57.0686 9.862C56.9366 9.91 56.8226 9.934 56.7266 9.934C56.3786 9.934 56.1206 9.832 55.9526 9.628C55.7846 9.424 55.7006 9.19 55.7006 8.926L55.7186 8.746L56.3666 4.084C56.4026 3.892 56.4986 3.73 56.6546 3.598C56.8226 3.466 57.0206 3.4 57.2486 3.4H62.5406C62.7686 3.4 62.9546 3.478 63.0986 3.634C63.2546 3.79 63.3326 3.982 63.3326 4.21C63.3326 4.438 63.2546 4.63 63.0986 4.786C62.9546 4.93 62.7686 5.002 62.5406 5.002H57.8426L57.3746 8.08C57.6386 7.936 57.9566 7.816 58.3286 7.72C58.7126 7.624 59.0906 7.576 59.4626 7.576ZM72.3137 8.764C72.0257 8.764 71.8037 8.686 71.6477 8.53C71.5037 8.374 71.4317 8.146 71.4317 7.846V7.522C71.4317 7.222 71.5037 6.994 71.6477 6.838C71.8037 6.682 72.0257 6.604 72.3137 6.604H72.5117C72.7997 6.604 73.0157 6.682 73.1597 6.838C73.3157 6.994 73.3937 7.222 73.3937 7.522V7.846C73.3937 8.146 73.3157 8.374 73.1597 8.53C73.0157 8.686 72.7997 8.764 72.5117 8.764H72.3137ZM72.3137 16C72.0257 16 71.8037 15.922 71.6477 15.766C71.5037 15.598 71.4317 15.37 71.4317 15.082V14.74C71.4317 14.452 71.5037 14.23 71.6477 14.074C71.8037 13.906 72.0257 13.822 72.3137 13.822H72.5117C72.7997 13.822 73.0157 13.906 73.1597 14.074C73.3157 14.23 73.3937 14.452 73.3937 14.74V15.082C73.3937 15.37 73.3157 15.598 73.1597 15.766C73.0157 15.922 72.7997 16 72.5117 16H72.3137ZM92.8854 9.7C92.8854 10.912 92.6214 12.01 92.0934 12.994C91.5774 13.978 90.8574 14.758 89.9334 15.334C89.0094 15.898 87.9654 16.18 86.8014 16.18C85.6374 16.18 84.5934 15.898 83.6694 15.334C82.7454 14.758 82.0194 13.978 81.4914 12.994C80.9754 12.01 80.7174 10.912 80.7174 9.7C80.7174 8.488 80.9754 7.39 81.4914 6.406C82.0194 5.422 82.7454 4.648 83.6694 4.084C84.5934 3.508 85.6374 3.22 86.8014 3.22C87.9654 3.22 89.0094 3.508 89.9334 4.084C90.8574 4.648 91.5774 5.422 92.0934 6.406C92.6214 7.39 92.8854 8.488 92.8854 9.7ZM91.0314 9.7C91.0314 8.8 90.8514 7.99 90.4914 7.27C90.1314 6.538 89.6274 5.968 88.9794 5.56C88.3434 5.14 87.6174 4.93 86.8014 4.93C85.9854 4.93 85.2534 5.134 84.6054 5.542C83.9694 5.95 83.4714 6.52 83.1114 7.252C82.7514 7.972 82.5714 8.788 82.5714 9.7C82.5714 10.6 82.7514 11.416 83.1114 12.148C83.4714 12.868 83.9694 13.438 84.6054 13.858C85.2534 14.266 85.9854 14.47 86.8014 14.47C87.6174 14.47 88.3434 14.266 88.9794 13.858C89.6274 13.438 90.1314 12.868 90.4914 12.148C90.8514 11.416 91.0314 10.6 91.0314 9.7ZM99.8303 6.352C100.142 6.352 100.412 6.436 100.64 6.604C100.868 6.76 100.982 6.958 100.982 7.198C100.982 7.486 100.904 7.708 100.748 7.864C100.604 8.008 100.424 8.08 100.208 8.08C100.1 8.08 99.9383 8.044 99.7223 7.972C99.4703 7.888 99.2723 7.846 99.1283 7.846C98.7563 7.846 98.3903 7.978 98.0303 8.242C97.6823 8.494 97.3943 8.848 97.1663 9.304C96.9503 9.748 96.8423 10.246 96.8423 10.798V15.136C96.8423 15.376 96.7583 15.58 96.5903 15.748C96.4343 15.916 96.2303 16 95.9783 16C95.7263 16 95.5223 15.922 95.3663 15.766C95.2103 15.598 95.1323 15.388 95.1323 15.136V7.432C95.1323 7.192 95.2103 6.988 95.3663 6.82C95.5343 6.652 95.7383 6.568 95.9783 6.568C96.2303 6.568 96.4343 6.652 96.5903 6.82C96.7583 6.988 96.8423 7.192 96.8423 7.432V8.35C97.1063 7.762 97.5023 7.288 98.0303 6.928C98.5583 6.556 99.1583 6.364 99.8303 6.352ZM110.388 6.442C110.64 6.442 110.844 6.526 111 6.694C111.168 6.85 111.252 7.06 111.252 7.324V15.244C111.252 16.216 111.042 17.026 110.622 17.674C110.214 18.334 109.656 18.82 108.948 19.132C108.24 19.444 107.442 19.6 106.554 19.6C106.074 19.6 105.51 19.516 104.862 19.348C104.226 19.18 103.818 19.006 103.638 18.826C103.266 18.634 103.08 18.394 103.08 18.106C103.08 18.034 103.104 17.938 103.152 17.818C103.284 17.518 103.506 17.368 103.818 17.368C103.974 17.368 104.142 17.404 104.322 17.476C105.282 17.848 106.032 18.034 106.572 18.034C107.532 18.034 108.264 17.8 108.768 17.332C109.284 16.876 109.542 16.246 109.542 15.442V14.47C109.29 14.938 108.864 15.34 108.264 15.676C107.676 16.012 107.052 16.18 106.392 16.18C105.564 16.18 104.808 15.97 104.124 15.55C103.44 15.13 102.9 14.548 102.504 13.804C102.12 13.048 101.928 12.202 101.928 11.266C101.928 10.33 102.12 9.49 102.504 8.746C102.9 7.99 103.434 7.402 104.106 6.982C104.79 6.562 105.54 6.352 106.356 6.352C107.016 6.352 107.628 6.502 108.192 6.802C108.768 7.102 109.218 7.468 109.542 7.9V7.324C109.542 7.072 109.62 6.862 109.776 6.694C109.932 6.526 110.136 6.442 110.388 6.442ZM106.59 14.596C107.178 14.596 107.7 14.458 108.156 14.182C108.612 13.894 108.966 13.498 109.218 12.994C109.482 12.478 109.614 11.902 109.614 11.266C109.614 10.63 109.482 10.06 109.218 9.556C108.966 9.052 108.612 8.656 108.156 8.368C107.7 8.08 107.178 7.936 106.59 7.936C106.014 7.936 105.498 8.08 105.042 8.368C104.586 8.656 104.226 9.058 103.962 9.574C103.71 10.078 103.584 10.642 103.584 11.266C103.584 11.89 103.71 12.46 103.962 12.976C104.226 13.48 104.586 13.876 105.042 14.164C105.498 14.452 106.014 14.596 106.59 14.596ZM121.551 6.442C121.803 6.442 122.007 6.526 122.163 6.694C122.331 6.85 122.415 7.06 122.415 7.324V15.136C122.415 15.376 122.331 15.58 122.163 15.748C122.007 15.916 121.803 16 121.551 16C121.299 16 121.095 15.922 120.939 15.766C120.783 15.598 120.705 15.388 120.705 15.136V14.668C120.393 15.088 119.967 15.448 119.427 15.748C118.887 16.036 118.305 16.18 117.681 16.18C116.865 16.18 116.121 15.97 115.449 15.55C114.789 15.13 114.267 14.548 113.883 13.804C113.511 13.048 113.325 12.202 113.325 11.266C113.325 10.33 113.511 9.49 113.883 8.746C114.267 7.99 114.789 7.402 115.449 6.982C116.109 6.562 116.835 6.352 117.627 6.352C118.263 6.352 118.851 6.484 119.391 6.748C119.943 7.012 120.381 7.348 120.705 7.756V7.324C120.705 7.072 120.783 6.862 120.939 6.694C121.095 6.526 121.299 6.442 121.551 6.442ZM117.879 14.596C118.443 14.596 118.941 14.452 119.373 14.164C119.817 13.876 120.159 13.48 120.399 12.976C120.651 12.472 120.777 11.902 120.777 11.266C120.777 10.642 120.651 10.078 120.399 9.574C120.159 9.07 119.817 8.674 119.373 8.386C118.941 8.086 118.443 7.936 117.879 7.936C117.315 7.936 116.811 8.08 116.367 8.368C115.935 8.656 115.593 9.052 115.341 9.556C115.101 10.06 114.981 10.63 114.981 11.266C114.981 11.902 115.101 12.472 115.341 12.976C115.593 13.48 115.935 13.876 116.367 14.164C116.811 14.452 117.315 14.596 117.879 14.596ZM129.964 6.352C132.124 6.352 133.204 7.648 133.204 10.24V15.136C133.204 15.376 133.12 15.58 132.952 15.748C132.796 15.916 132.592 16 132.34 16C132.1 16 131.896 15.916 131.728 15.748C131.572 15.58 131.494 15.376 131.494 15.136V10.258C131.494 9.55 131.332 8.986 131.008 8.566C130.684 8.146 130.156 7.936 129.424 7.936C128.944 7.936 128.506 8.044 128.11 8.26C127.726 8.464 127.42 8.746 127.192 9.106C126.976 9.454 126.868 9.838 126.868 10.258V15.136C126.868 15.376 126.784 15.58 126.616 15.748C126.46 15.916 126.256 16 126.004 16C125.752 16 125.548 15.922 125.392 15.766C125.236 15.598 125.158 15.388 125.158 15.136V7.432C125.158 7.192 125.236 6.988 125.392 6.82C125.56 6.652 125.764 6.568 126.004 6.568C126.256 6.568 126.46 6.652 126.616 6.82C126.784 6.988 126.868 7.192 126.868 7.432V8.062C127.18 7.582 127.612 7.18 128.164 6.856C128.728 6.52 129.328 6.352 129.964 6.352ZM137.578 15.136C137.578 15.376 137.494 15.58 137.326 15.748C137.17 15.916 136.966 16 136.714 16C136.474 16 136.27 15.916 136.102 15.748C135.946 15.58 135.868 15.376 135.868 15.136V7.342C135.868 7.102 135.946 6.898 136.102 6.73C136.27 6.562 136.474 6.478 136.714 6.478C136.966 6.478 137.17 6.562 137.326 6.73C137.494 6.898 137.578 7.102 137.578 7.342V15.136ZM136.714 5.29C136.366 5.29 136.114 5.23 135.958 5.11C135.814 4.978 135.742 4.774 135.742 4.498V4.21C135.742 3.922 135.82 3.718 135.976 3.598C136.144 3.478 136.396 3.418 136.732 3.418C137.068 3.418 137.308 3.484 137.452 3.616C137.608 3.736 137.686 3.934 137.686 4.21V4.498C137.686 4.786 137.608 4.99 137.452 5.11C137.296 5.23 137.05 5.29 136.714 5.29ZM139.696 14.524C139.588 14.356 139.534 14.194 139.534 14.038C139.534 13.798 139.66 13.594 139.912 13.426C140.032 13.342 140.17 13.3 140.326 13.3C140.542 13.3 140.74 13.39 140.92 13.57C141.28 13.978 141.664 14.284 142.072 14.488C142.492 14.692 142.99 14.794 143.566 14.794C144.022 14.782 144.424 14.68 144.772 14.488C145.12 14.284 145.294 13.96 145.294 13.516C145.294 13.108 145.114 12.796 144.754 12.58C144.406 12.364 143.89 12.166 143.206 11.986C142.534 11.806 141.976 11.62 141.532 11.428C141.088 11.224 140.71 10.936 140.398 10.564C140.098 10.18 139.948 9.682 139.948 9.07C139.948 8.53 140.098 8.056 140.398 7.648C140.71 7.24 141.118 6.922 141.622 6.694C142.138 6.466 142.696 6.352 143.296 6.352C143.872 6.352 144.442 6.46 145.006 6.676C145.582 6.892 146.05 7.222 146.41 7.666C146.554 7.834 146.626 8.008 146.626 8.188C146.626 8.38 146.53 8.566 146.338 8.746C146.218 8.854 146.068 8.908 145.888 8.908C145.672 8.908 145.498 8.836 145.366 8.692C145.114 8.404 144.802 8.182 144.43 8.026C144.07 7.87 143.668 7.792 143.224 7.792C142.768 7.792 142.378 7.888 142.054 8.08C141.742 8.26 141.586 8.572 141.586 9.016C141.598 9.436 141.778 9.748 142.126 9.952C142.486 10.156 143.032 10.354 143.764 10.546C144.4 10.714 144.928 10.894 145.348 11.086C145.768 11.278 146.122 11.566 146.41 11.95C146.698 12.322 146.842 12.814 146.842 13.426C146.842 13.99 146.68 14.482 146.356 14.902C146.032 15.31 145.606 15.628 145.078 15.856C144.562 16.072 144.01 16.18 143.422 16.18C142.666 16.18 141.964 16.048 141.316 15.784C140.68 15.52 140.14 15.1 139.696 14.524ZM157.294 10.924C157.282 11.14 157.192 11.326 157.024 11.482C156.856 11.626 156.658 11.698 156.43 11.698H150.094C150.178 12.574 150.508 13.276 151.084 13.804C151.672 14.332 152.386 14.596 153.226 14.596C153.802 14.596 154.27 14.512 154.63 14.344C154.99 14.176 155.308 13.96 155.584 13.696C155.764 13.588 155.938 13.534 156.106 13.534C156.31 13.534 156.478 13.606 156.61 13.75C156.754 13.894 156.826 14.062 156.826 14.254C156.826 14.506 156.706 14.734 156.466 14.938C156.118 15.286 155.656 15.58 155.08 15.82C154.504 16.06 153.916 16.18 153.316 16.18C152.344 16.18 151.486 15.976 150.742 15.568C150.01 15.16 149.44 14.59 149.032 13.858C148.636 13.126 148.438 12.298 148.438 11.374C148.438 10.366 148.642 9.484 149.05 8.728C149.47 7.96 150.016 7.372 150.688 6.964C151.372 6.556 152.104 6.352 152.884 6.352C153.652 6.352 154.372 6.55 155.044 6.946C155.716 7.342 156.256 7.888 156.664 8.584C157.072 9.28 157.282 10.06 157.294 10.924ZM152.884 7.936C152.212 7.936 151.63 8.128 151.138 8.512C150.646 8.884 150.322 9.466 150.166 10.258H155.476V10.114C155.416 9.478 155.128 8.956 154.612 8.548C154.108 8.14 153.532 7.936 152.884 7.936ZM165.456 14.416C165.684 14.416 165.876 14.494 166.032 14.65C166.188 14.794 166.266 14.98 166.266 15.208C166.266 15.436 166.188 15.628 166.032 15.784C165.876 15.928 165.684 16 165.456 16H159.642C159.414 16 159.222 15.916 159.066 15.748C158.922 15.58 158.85 15.406 158.85 15.226C158.862 15.07 158.886 14.944 158.922 14.848C158.958 14.74 159.024 14.62 159.12 14.488L163.836 8.188H159.93C159.702 8.188 159.51 8.11 159.354 7.954C159.198 7.798 159.12 7.606 159.12 7.378C159.12 7.15 159.192 6.964 159.336 6.82C159.492 6.676 159.69 6.604 159.93 6.604H165.456C165.684 6.604 165.87 6.688 166.014 6.856C166.17 7.024 166.242 7.228 166.23 7.468C166.218 7.588 166.194 7.696 166.158 7.792C166.134 7.876 166.074 7.972 165.978 8.08L161.226 14.416H165.456ZM180.755 6.478C180.983 6.478 181.175 6.556 181.331 6.712C181.487 6.856 181.565 7.03 181.565 7.234C181.565 7.342 181.523 7.492 181.439 7.684L178.019 15.46C177.947 15.616 177.845 15.742 177.713 15.838C177.581 15.934 177.437 15.988 177.281 16C177.089 16.024 176.909 15.988 176.741 15.892C176.585 15.796 176.465 15.652 176.381 15.46L172.961 7.684C172.901 7.504 172.871 7.354 172.871 7.234C172.871 7.042 172.949 6.868 173.105 6.712C173.261 6.556 173.465 6.478 173.717 6.478C173.897 6.478 174.059 6.526 174.203 6.622C174.347 6.706 174.461 6.838 174.545 7.018L177.263 13.336L179.981 7.018C180.149 6.658 180.407 6.478 180.755 6.478ZM192.457 11.284C192.457 12.22 192.247 13.06 191.827 13.804C191.407 14.548 190.831 15.13 190.099 15.55C189.379 15.97 188.581 16.18 187.705 16.18C186.829 16.18 186.025 15.97 185.293 15.55C184.573 15.13 184.003 14.548 183.583 13.804C183.163 13.06 182.953 12.22 182.953 11.284C182.953 10.348 183.163 9.502 183.583 8.746C184.003 7.99 184.573 7.402 185.293 6.982C186.025 6.562 186.829 6.352 187.705 6.352C188.581 6.352 189.379 6.562 190.099 6.982C190.831 7.402 191.407 7.99 191.827 8.746C192.247 9.502 192.457 10.348 192.457 11.284ZM190.747 11.284C190.747 10.636 190.609 10.06 190.333 9.556C190.069 9.04 189.703 8.644 189.235 8.368C188.779 8.08 188.269 7.936 187.705 7.936C187.141 7.936 186.625 8.08 186.157 8.368C185.701 8.644 185.335 9.04 185.059 9.556C184.795 10.06 184.663 10.636 184.663 11.284C184.663 11.92 184.795 12.49 185.059 12.994C185.335 13.498 185.701 13.894 186.157 14.182C186.625 14.458 187.141 14.596 187.705 14.596C188.269 14.596 188.779 14.458 189.235 14.182C189.703 13.894 190.069 13.498 190.333 12.994C190.609 12.49 190.747 11.92 190.747 11.284ZM197.201 8.242V13.606C197.201 14.206 197.471 14.506 198.011 14.506C198.095 14.506 198.209 14.488 198.353 14.452C198.497 14.404 198.611 14.38 198.695 14.38C198.851 14.38 198.983 14.446 199.091 14.578C199.199 14.71 199.253 14.878 199.253 15.082C199.253 15.334 199.109 15.55 198.821 15.73C198.533 15.91 198.209 16 197.849 16C197.453 16 197.087 15.958 196.751 15.874C196.427 15.79 196.133 15.58 195.869 15.244C195.617 14.896 195.491 14.374 195.491 13.678V8.242H194.447C194.219 8.242 194.027 8.17 193.871 8.026C193.727 7.87 193.655 7.678 193.655 7.45C193.655 7.222 193.727 7.036 193.871 6.892C194.027 6.748 194.219 6.676 194.447 6.676H195.491V5.164C195.491 4.924 195.569 4.72 195.725 4.552C195.893 4.384 196.103 4.3 196.355 4.3C196.595 4.3 196.793 4.384 196.949 4.552C197.117 4.72 197.201 4.924 197.201 5.164V6.676H198.695C198.923 6.676 199.109 6.754 199.253 6.91C199.409 7.054 199.487 7.24 199.487 7.468C199.487 7.696 199.409 7.882 199.253 8.026C199.109 8.17 198.923 8.242 198.695 8.242H197.201ZM206.381 6.352C206.693 6.352 206.963 6.436 207.191 6.604C207.419 6.76 207.533 6.958 207.533 7.198C207.533 7.486 207.455 7.708 207.299 7.864C207.155 8.008 206.975 8.08 206.759 8.08C206.651 8.08 206.489 8.044 206.273 7.972C206.021 7.888 205.823 7.846 205.679 7.846C205.307 7.846 204.941 7.978 204.581 8.242C204.233 8.494 203.945 8.848 203.717 9.304C203.501 9.748 203.393 10.246 203.393 10.798V15.136C203.393 15.376 203.309 15.58 203.141 15.748C202.985 15.916 202.781 16 202.529 16C202.277 16 202.073 15.922 201.917 15.766C201.761 15.598 201.683 15.388 201.683 15.136V7.432C201.683 7.192 201.761 6.988 201.917 6.82C202.085 6.652 202.289 6.568 202.529 6.568C202.781 6.568 202.985 6.652 203.141 6.82C203.309 6.988 203.393 7.192 203.393 7.432V8.35C203.657 7.762 204.053 7.288 204.581 6.928C205.109 6.556 205.709 6.364 206.381 6.352ZM217.194 10.924C217.182 11.14 217.092 11.326 216.924 11.482C216.756 11.626 216.558 11.698 216.33 11.698H209.994C210.078 12.574 210.408 13.276 210.984 13.804C211.572 14.332 212.286 14.596 213.126 14.596C213.702 14.596 214.17 14.512 214.53 14.344C214.89 14.176 215.208 13.96 215.484 13.696C215.664 13.588 215.838 13.534 216.006 13.534C216.21 13.534 216.378 13.606 216.51 13.75C216.654 13.894 216.726 14.062 216.726 14.254C216.726 14.506 216.606 14.734 216.366 14.938C216.018 15.286 215.556 15.58 214.98 15.82C214.404 16.06 213.816 16.18 213.216 16.18C212.244 16.18 211.386 15.976 210.642 15.568C209.91 15.16 209.34 14.59 208.932 13.858C208.536 13.126 208.338 12.298 208.338 11.374C208.338 10.366 208.542 9.484 208.95 8.728C209.37 7.96 209.916 7.372 210.588 6.964C211.272 6.556 212.004 6.352 212.784 6.352C213.552 6.352 214.272 6.55 214.944 6.946C215.616 7.342 216.156 7.888 216.564 8.584C216.972 9.28 217.182 10.06 217.194 10.924ZM212.784 7.936C212.112 7.936 211.53 8.128 211.038 8.512C210.546 8.884 210.222 9.466 210.066 10.258H215.376V10.114C215.316 9.478 215.028 8.956 214.512 8.548C214.008 8.14 213.432 7.936 212.784 7.936ZM228.676 6.352C229.624 6.352 230.41 6.502 231.034 6.802C231.67 7.102 231.988 7.486 231.988 7.954C231.988 8.158 231.922 8.344 231.79 8.512C231.658 8.668 231.49 8.746 231.286 8.746C231.13 8.746 231.004 8.722 230.908 8.674C230.824 8.626 230.704 8.548 230.548 8.44C230.476 8.368 230.362 8.284 230.206 8.188C230.062 8.116 229.858 8.056 229.594 8.008C229.33 7.96 229.09 7.936 228.874 7.936C228.25 7.936 227.698 8.08 227.218 8.368C226.738 8.656 226.366 9.058 226.102 9.574C225.838 10.078 225.706 10.642 225.706 11.266C225.706 11.902 225.832 12.472 226.084 12.976C226.348 13.48 226.714 13.876 227.182 14.164C227.65 14.452 228.184 14.596 228.784 14.596C229.408 14.596 229.912 14.5 230.296 14.308C230.38 14.26 230.494 14.182 230.638 14.074C230.758 13.978 230.86 13.906 230.944 13.858C231.04 13.81 231.154 13.786 231.286 13.786C231.526 13.786 231.712 13.864 231.844 14.02C231.988 14.164 232.06 14.356 232.06 14.596C232.06 14.848 231.898 15.1 231.574 15.352C231.262 15.592 230.836 15.79 230.296 15.946C229.768 16.102 229.198 16.18 228.586 16.18C227.674 16.18 226.87 15.97 226.174 15.55C225.478 15.118 224.938 14.53 224.554 13.786C224.182 13.03 223.996 12.19 223.996 11.266C223.996 10.342 224.194 9.508 224.59 8.764C224.986 8.008 225.538 7.42 226.246 7C226.954 6.568 227.764 6.352 228.676 6.352ZM241.668 6.442C241.92 6.442 242.124 6.526 242.28 6.694C242.448 6.85 242.532 7.06 242.532 7.324V15.136C242.532 15.376 242.448 15.58 242.28 15.748C242.124 15.916 241.92 16 241.668 16C241.416 16 241.212 15.922 241.056 15.766C240.9 15.598 240.822 15.388 240.822 15.136V14.668C240.51 15.088 240.084 15.448 239.544 15.748C239.004 16.036 238.422 16.18 237.798 16.18C236.982 16.18 236.238 15.97 235.566 15.55C234.906 15.13 234.384 14.548 234 13.804C233.628 13.048 233.442 12.202 233.442 11.266C233.442 10.33 233.628 9.49 234 8.746C234.384 7.99 234.906 7.402 235.566 6.982C236.226 6.562 236.952 6.352 237.744 6.352C238.38 6.352 238.968 6.484 239.508 6.748C240.06 7.012 240.498 7.348 240.822 7.756V7.324C240.822 7.072 240.9 6.862 241.056 6.694C241.212 6.526 241.416 6.442 241.668 6.442ZM237.996 14.596C238.56 14.596 239.058 14.452 239.49 14.164C239.934 13.876 240.276 13.48 240.516 12.976C240.768 12.472 240.894 11.902 240.894 11.266C240.894 10.642 240.768 10.078 240.516 9.574C240.276 9.07 239.934 8.674 239.49 8.386C239.058 8.086 238.56 7.936 237.996 7.936C237.432 7.936 236.928 8.08 236.484 8.368C236.052 8.656 235.71 9.052 235.458 9.556C235.218 10.06 235.098 10.63 235.098 11.266C235.098 11.902 235.218 12.472 235.458 12.976C235.71 13.48 236.052 13.876 236.484 14.164C236.928 14.452 237.432 14.596 237.996 14.596ZM247.128 15.136C247.128 15.376 247.044 15.58 246.876 15.748C246.708 15.916 246.504 16 246.264 16C246.024 16 245.82 15.916 245.652 15.748C245.496 15.58 245.418 15.376 245.418 15.136V3.544C245.418 3.304 245.502 3.1 245.67 2.932C245.838 2.764 246.042 2.68 246.282 2.68C246.522 2.68 246.72 2.764 246.876 2.932C247.044 3.1 247.128 3.304 247.128 3.544V15.136ZM258.131 10.924C258.119 11.14 258.029 11.326 257.861 11.482C257.693 11.626 257.495 11.698 257.267 11.698H250.931C251.015 12.574 251.345 13.276 251.921 13.804C252.509 14.332 253.223 14.596 254.063 14.596C254.639 14.596 255.107 14.512 255.467 14.344C255.827 14.176 256.145 13.96 256.421 13.696C256.601 13.588 256.775 13.534 256.943 13.534C257.147 13.534 257.315 13.606 257.447 13.75C257.591 13.894 257.663 14.062 257.663 14.254C257.663 14.506 257.543 14.734 257.303 14.938C256.955 15.286 256.493 15.58 255.917 15.82C255.341 16.06 254.753 16.18 254.153 16.18C253.181 16.18 252.323 15.976 251.579 15.568C250.847 15.16 250.277 14.59 249.869 13.858C249.473 13.126 249.275 12.298 249.275 11.374C249.275 10.366 249.479 9.484 249.887 8.728C250.307 7.96 250.853 7.372 251.525 6.964C252.209 6.556 252.941 6.352 253.721 6.352C254.489 6.352 255.209 6.55 255.881 6.946C256.553 7.342 257.093 7.888 257.501 8.584C257.909 9.28 258.119 10.06 258.131 10.924ZM253.721 7.936C253.049 7.936 252.467 8.128 251.975 8.512C251.483 8.884 251.159 9.466 251.003 10.258H256.313V10.114C256.253 9.478 255.965 8.956 255.449 8.548C254.945 8.14 254.369 7.936 253.721 7.936ZM265.123 6.352C267.283 6.352 268.363 7.648 268.363 10.24V15.136C268.363 15.376 268.279 15.58 268.111 15.748C267.955 15.916 267.751 16 267.499 16C267.259 16 267.055 15.916 266.887 15.748C266.731 15.58 266.653 15.376 266.653 15.136V10.258C266.653 9.55 266.491 8.986 266.167 8.566C265.843 8.146 265.315 7.936 264.583 7.936C264.103 7.936 263.665 8.044 263.269 8.26C262.885 8.464 262.579 8.746 262.351 9.106C262.135 9.454 262.027 9.838 262.027 10.258V15.136C262.027 15.376 261.943 15.58 261.775 15.748C261.619 15.916 261.415 16 261.163 16C260.911 16 260.707 15.922 260.551 15.766C260.395 15.598 260.317 15.388 260.317 15.136V7.432C260.317 7.192 260.395 6.988 260.551 6.82C260.719 6.652 260.923 6.568 261.163 6.568C261.415 6.568 261.619 6.652 261.775 6.82C261.943 6.988 262.027 7.192 262.027 7.432V8.062C262.339 7.582 262.771 7.18 263.323 6.856C263.887 6.52 264.487 6.352 265.123 6.352ZM278.767 2.68C279.019 2.68 279.223 2.764 279.379 2.932C279.547 3.088 279.631 3.292 279.631 3.544V15.136C279.631 15.376 279.547 15.58 279.379 15.748C279.223 15.916 279.019 16 278.767 16C278.515 16 278.311 15.922 278.155 15.766C277.999 15.598 277.921 15.388 277.921 15.136V14.632C277.621 15.064 277.195 15.43 276.643 15.73C276.103 16.03 275.521 16.18 274.897 16.18C274.081 16.18 273.343 15.97 272.683 15.55C272.023 15.13 271.501 14.548 271.117 13.804C270.733 13.048 270.541 12.202 270.541 11.266C270.541 10.33 270.727 9.49 271.099 8.746C271.483 7.99 272.005 7.402 272.665 6.982C273.325 6.562 274.051 6.352 274.843 6.352C275.479 6.352 276.067 6.484 276.607 6.748C277.147 7.012 277.585 7.354 277.921 7.774V3.544C277.921 3.292 277.999 3.088 278.155 2.932C278.311 2.764 278.515 2.68 278.767 2.68ZM275.095 14.596C275.659 14.596 276.157 14.452 276.589 14.164C277.033 13.876 277.375 13.48 277.615 12.976C277.867 12.472 277.993 11.902 277.993 11.266C277.993 10.642 277.867 10.078 277.615 9.574C277.375 9.058 277.033 8.656 276.589 8.368C276.157 8.08 275.659 7.936 275.095 7.936C274.531 7.936 274.027 8.08 273.583 8.368C273.151 8.656 272.809 9.058 272.557 9.574C272.317 10.078 272.197 10.642 272.197 11.266C272.197 11.902 272.317 12.472 272.557 12.976C272.809 13.48 273.151 13.876 273.583 14.164C274.027 14.452 274.531 14.596 275.095 14.596ZM287.071 6.352C287.383 6.352 287.653 6.436 287.881 6.604C288.109 6.76 288.223 6.958 288.223 7.198C288.223 7.486 288.145 7.708 287.989 7.864C287.845 8.008 287.665 8.08 287.449 8.08C287.341 8.08 287.179 8.044 286.963 7.972C286.711 7.888 286.513 7.846 286.369 7.846C285.997 7.846 285.631 7.978 285.271 8.242C284.923 8.494 284.635 8.848 284.407 9.304C284.191 9.748 284.083 10.246 284.083 10.798V15.136C284.083 15.376 283.999 15.58 283.831 15.748C283.675 15.916 283.471 16 283.219 16C282.967 16 282.763 15.922 282.607 15.766C282.451 15.598 282.373 15.388 282.373 15.136V7.432C282.373 7.192 282.451 6.988 282.607 6.82C282.775 6.652 282.979 6.568 283.219 6.568C283.471 6.568 283.675 6.652 283.831 6.82C283.999 6.988 284.083 7.192 284.083 7.432V8.35C284.347 7.762 284.743 7.288 285.271 6.928C285.799 6.556 286.399 6.364 287.071 6.352ZM291.629 15.136C291.629 15.376 291.545 15.58 291.377 15.748C291.221 15.916 291.017 16 290.765 16C290.525 16 290.321 15.916 290.153 15.748C289.997 15.58 289.919 15.376 289.919 15.136V7.342C289.919 7.102 289.997 6.898 290.153 6.73C290.321 6.562 290.525 6.478 290.765 6.478C291.017 6.478 291.221 6.562 291.377 6.73C291.545 6.898 291.629 7.102 291.629 7.342V15.136ZM290.765 5.29C290.417 5.29 290.165 5.23 290.009 5.11C289.865 4.978 289.793 4.774 289.793 4.498V4.21C289.793 3.922 289.871 3.718 290.027 3.598C290.195 3.478 290.447 3.418 290.783 3.418C291.119 3.418 291.359 3.484 291.503 3.616C291.659 3.736 291.737 3.934 291.737 4.21V4.498C291.737 4.786 291.659 4.99 291.503 5.11C291.347 5.23 291.101 5.29 290.765 5.29ZM302.567 10.924C302.555 11.14 302.465 11.326 302.297 11.482C302.129 11.626 301.931 11.698 301.703 11.698H295.367C295.451 12.574 295.781 13.276 296.357 13.804C296.945 14.332 297.659 14.596 298.499 14.596C299.075 14.596 299.543 14.512 299.903 14.344C300.263 14.176 300.581 13.96 300.857 13.696C301.037 13.588 301.211 13.534 301.379 13.534C301.583 13.534 301.751 13.606 301.883 13.75C302.027 13.894 302.099 14.062 302.099 14.254C302.099 14.506 301.979 14.734 301.739 14.938C301.391 15.286 300.929 15.58 300.353 15.82C299.777 16.06 299.189 16.18 298.589 16.18C297.617 16.18 296.759 15.976 296.015 15.568C295.283 15.16 294.713 14.59 294.305 13.858C293.909 13.126 293.711 12.298 293.711 11.374C293.711 10.366 293.915 9.484 294.323 8.728C294.743 7.96 295.289 7.372 295.961 6.964C296.645 6.556 297.377 6.352 298.157 6.352C298.925 6.352 299.645 6.55 300.317 6.946C300.989 7.342 301.529 7.888 301.937 8.584C302.345 9.28 302.555 10.06 302.567 10.924ZM298.157 7.936C297.485 7.936 296.903 8.128 296.411 8.512C295.919 8.884 295.595 9.466 295.439 10.258H300.749V10.114C300.689 9.478 300.401 8.956 299.885 8.548C299.381 8.14 298.805 7.936 298.157 7.936ZM309.451 6.352C309.763 6.352 310.033 6.436 310.261 6.604C310.489 6.76 310.603 6.958 310.603 7.198C310.603 7.486 310.525 7.708 310.369 7.864C310.225 8.008 310.045 8.08 309.829 8.08C309.721 8.08 309.559 8.044 309.343 7.972C309.091 7.888 308.893 7.846 308.749 7.846C308.377 7.846 308.011 7.978 307.651 8.242C307.303 8.494 307.015 8.848 306.787 9.304C306.571 9.748 306.463 10.246 306.463 10.798V15.136C306.463 15.376 306.379 15.58 306.211 15.748C306.055 15.916 305.851 16 305.599 16C305.347 16 305.143 15.922 304.987 15.766C304.831 15.598 304.753 15.388 304.753 15.136V7.432C304.753 7.192 304.831 6.988 304.987 6.82C305.155 6.652 305.359 6.568 305.599 6.568C305.851 6.568 306.055 6.652 306.211 6.82C306.379 6.988 306.463 7.192 306.463 7.432V8.35C306.727 7.762 307.123 7.288 307.651 6.928C308.179 6.556 308.779 6.364 309.451 6.352Z" fill="#292984"/>
</svg>
