<svg width="267" height="46" viewBox="0 0 267 46" fill="none" xmlns="http://www.w3.org/2000/svg">
<rect width="46" height="46" rx="23" fill="#4D7CFE"/>
<mask id="mask0" mask-type="alpha" maskUnits="userSpaceOnUse" x="0" y="0" width="46" height="46">
<rect width="46" height="46" rx="23" fill="white"/>
</mask>
<g mask="url(#mask0)">
<rect x="-0.669922" y="-4" width="47.5631" height="54" rx="23" fill="#292984"/>
</g>
<path d="M22.9245 29C22.8045 29 22.7025 28.958 22.6185 28.874C22.5345 28.79 22.4925 28.688 22.4925 28.568V19.244L19.7565 21.35C19.6845 21.41 19.6005 21.44 19.5045 21.44C19.3605 21.44 19.2405 21.374 19.1445 21.242L18.3885 20.27C18.3285 20.174 18.2985 20.084 18.2985 20C18.2985 19.856 18.3645 19.736 18.4965 19.64L22.5285 16.526C22.6365 16.442 22.7865 16.4 22.9785 16.4H24.5625C24.6945 16.4 24.7965 16.442 24.8685 16.526C24.9525 16.598 24.9945 16.7 24.9945 16.832V28.568C24.9945 28.688 24.9525 28.79 24.8685 28.874C24.7965 28.958 24.6945 29 24.5625 29H22.9245Z" fill="white"/>
<line x1="221" y1="24" x2="46" y2="24" stroke="url(#paint0_linear)" stroke-width="2"/>
<g opacity="0.5">
<rect x="221" width="46" height="46" rx="23" fill="#4D7CFE"/>
<mask id="mask1" mask-type="alpha" maskUnits="userSpaceOnUse" x="221" y="0" width="46" height="46">
<rect x="221" width="46" height="46" rx="23" fill="white"/>
</mask>
<g mask="url(#mask1)">
<rect x="220.33" y="-4" width="47.5631" height="54" rx="23" fill="#9997B1"/>
</g>
<path d="M238.774 29C238.654 29 238.552 28.958 238.468 28.874C238.384 28.79 238.342 28.688 238.342 28.568V27.65C238.342 27.326 238.492 27.044 238.792 26.804L241.636 23.978C242.872 23.006 243.73 22.25 244.21 21.71C244.702 21.158 244.948 20.618 244.948 20.09C244.948 19.526 244.792 19.082 244.48 18.758C244.18 18.434 243.724 18.272 243.112 18.272C242.512 18.272 242.038 18.452 241.69 18.812C241.342 19.16 241.126 19.616 241.042 20.18C241.006 20.324 240.94 20.432 240.844 20.504C240.748 20.564 240.64 20.594 240.52 20.594H238.918C238.81 20.594 238.72 20.558 238.648 20.486C238.576 20.414 238.54 20.33 238.54 20.234C238.564 19.526 238.756 18.866 239.116 18.254C239.476 17.63 239.998 17.132 240.682 16.76C241.366 16.376 242.17 16.184 243.094 16.184C244.054 16.184 244.864 16.352 245.524 16.688C246.196 17.012 246.7 17.462 247.036 18.038C247.372 18.614 247.54 19.268 247.54 20C247.54 20.804 247.312 21.53 246.856 22.178C246.412 22.826 245.728 23.522 244.804 24.266L242.248 26.858H247.378C247.51 26.858 247.612 26.9 247.684 26.984C247.768 27.056 247.81 27.158 247.81 27.29V28.568C247.81 28.688 247.768 28.79 247.684 28.874C247.612 28.958 247.51 29 247.378 29H238.774Z" fill="white"/>
</g>
<defs>
<linearGradient id="paint0_linear" x1="221" y1="23" x2="86.3966" y2="-51.2412" gradientUnits="userSpaceOnUse">
<stop stop-color="#8F68FC"/>
<stop offset="1" stop-color="#292984"/>
</linearGradient>
</defs>
</svg>
