<svg width="357" height="102" viewBox="0 0 357 102" fill="none" xmlns="http://www.w3.org/2000/svg">
<rect x="42" width="46" height="46" rx="23" fill="#4D7CFE"/>
<mask id="mask0" mask-type="alpha" maskUnits="userSpaceOnUse" x="42" y="0" width="46" height="46">
<rect x="42" width="46" height="46" rx="23" fill="white"/>
</mask>
<g mask="url(#mask0)">
<rect x="41.3301" y="-4" width="47.5631" height="54" rx="23" fill="#4D7CFE"/>
</g>
<path d="M64.9245 29C64.8045 29 64.7025 28.958 64.6185 28.874C64.5345 28.79 64.4925 28.688 64.4925 28.568V19.244L61.7565 21.35C61.6845 21.41 61.6005 21.44 61.5045 21.44C61.3605 21.44 61.2405 21.374 61.1445 21.242L60.3885 20.27C60.3285 20.174 60.2985 20.084 60.2985 20C60.2985 19.856 60.3645 19.736 60.4965 19.64L64.5285 16.526C64.6365 16.442 64.7865 16.4 64.9785 16.4H66.5625C66.6945 16.4 66.7965 16.442 66.8685 16.526C66.9525 16.598 66.9945 16.7 66.9945 16.832V28.568C66.9945 28.688 66.9525 28.79 66.8685 28.874C66.7965 28.958 66.6945 29 66.5625 29H64.9245Z" fill="white"/>
<line x1="88" y1="22" x2="263" y2="22" stroke="url(#paint0_linear)" stroke-width="2"/>
<rect x="42" width="46" height="46" rx="23" fill="#4D7CFE"/>
<mask id="mask1" mask-type="alpha" maskUnits="userSpaceOnUse" x="42" y="0" width="46" height="46">
<rect x="42" width="46" height="46" rx="23" fill="white"/>
</mask>
<g mask="url(#mask1)">
<rect x="41.3301" y="-4" width="47.5631" height="54" rx="23" fill="#292984"/>
</g>
<path d="M72.0796 19.2426L63.0085 28.3137L58.7658 24.0711" stroke="white" stroke-width="4" stroke-linecap="round" stroke-linejoin="round"/>
<rect x="263" width="46" height="46" rx="23" fill="#4D7CFE"/>
<mask id="mask2" mask-type="alpha" maskUnits="userSpaceOnUse" x="263" y="0" width="46" height="46">
<rect x="263" width="46" height="46" rx="23" fill="white"/>
</mask>
<g mask="url(#mask2)">
<rect x="262.33" y="-4" width="47.5631" height="54" rx="23" fill="#292984"/>
</g>
<path d="M280.774 29C280.654 29 280.552 28.958 280.468 28.874C280.384 28.79 280.342 28.688 280.342 28.568V27.65C280.342 27.326 280.492 27.044 280.792 26.804L283.636 23.978C284.872 23.006 285.73 22.25 286.21 21.71C286.702 21.158 286.948 20.618 286.948 20.09C286.948 19.526 286.792 19.082 286.48 18.758C286.18 18.434 285.724 18.272 285.112 18.272C284.512 18.272 284.038 18.452 283.69 18.812C283.342 19.16 283.126 19.616 283.042 20.18C283.006 20.324 282.94 20.432 282.844 20.504C282.748 20.564 282.64 20.594 282.52 20.594H280.918C280.81 20.594 280.72 20.558 280.648 20.486C280.576 20.414 280.54 20.33 280.54 20.234C280.564 19.526 280.756 18.866 281.116 18.254C281.476 17.63 281.998 17.132 282.682 16.76C283.366 16.376 284.17 16.184 285.094 16.184C286.054 16.184 286.864 16.352 287.524 16.688C288.196 17.012 288.7 17.462 289.036 18.038C289.372 18.614 289.54 19.268 289.54 20C289.54 20.804 289.312 21.53 288.856 22.178C288.412 22.826 287.728 23.522 286.804 24.266L284.248 26.858H289.378C289.51 26.858 289.612 26.9 289.684 26.984C289.768 27.056 289.81 27.158 289.81 27.29V28.568C289.81 28.688 289.768 28.79 289.684 28.874C289.612 28.958 289.51 29 289.378 29H280.774Z" fill="white"/>
<path d="M43.8357 78.056C43.9744 78.056 44.0864 78.104 44.1717 78.2C44.2677 78.296 44.3157 78.408 44.3157 78.536C44.3157 78.6747 44.2677 78.7867 44.1717 78.872C44.0864 78.9573 43.9744 79 43.8357 79H37.9637C37.825 79 37.7077 78.9573 37.6117 78.872C37.5264 78.776 37.4837 78.6587 37.4837 78.52V68.28C37.4837 68.1413 37.5264 68.0293 37.6117 67.944C37.7077 67.848 37.825 67.8 37.9637 67.8H43.8357C43.9744 67.8 44.0864 67.848 44.1717 67.944C44.2677 68.0293 44.3157 68.1413 44.3157 68.28C44.3157 68.4187 44.2677 68.5307 44.1717 68.616C44.0864 68.7013 43.9744 68.744 43.8357 68.744H38.4917V72.76H43.1157C43.2544 72.76 43.3664 72.808 43.4517 72.904C43.5477 72.9893 43.5957 73.1013 43.5957 73.24C43.5957 73.3787 43.5477 73.4907 43.4517 73.576C43.3664 73.6613 43.2544 73.704 43.1157 73.704H38.4917V78.056H43.8357ZM53.9134 67.8C54.0521 67.8 54.1641 67.8427 54.2494 67.928C54.3454 68.0133 54.3934 68.1253 54.3934 68.264C54.3934 68.4027 54.3454 68.5147 54.2494 68.6C54.1641 68.6747 54.0521 68.712 53.9134 68.712H50.6014V78.52C50.6014 78.6587 50.5534 78.776 50.4574 78.872C50.3614 78.9573 50.2441 79 50.1054 79C49.9561 79 49.8334 78.9573 49.7374 78.872C49.6521 78.776 49.6094 78.6587 49.6094 78.52V68.712H46.2974C46.1588 68.712 46.0414 68.6693 45.9454 68.584C45.8601 68.4987 45.8174 68.3867 45.8174 68.248C45.8174 68.12 45.8601 68.0133 45.9454 67.928C46.0414 67.8427 46.1588 67.8 46.2974 67.8H53.9134ZM64.1888 78.36C64.2101 78.4453 64.2208 78.5093 64.2208 78.552C64.2208 78.6907 64.1728 78.8027 64.0768 78.888C63.9808 78.9733 63.8688 79.016 63.7408 79.016C63.6341 79.016 63.5381 78.9893 63.4528 78.936C63.3781 78.872 63.3195 78.792 63.2768 78.696L62.0768 75.768H56.8768L55.6928 78.696C55.6075 78.9093 55.4635 79.016 55.2608 79.016C55.1115 79.016 54.9995 78.9787 54.9248 78.904C54.8501 78.8293 54.8075 78.728 54.7968 78.6V78.552C54.7968 78.488 54.8021 78.44 54.8128 78.408L59.0368 68.072C59.1221 67.8587 59.2821 67.752 59.5168 67.752C59.6235 67.752 59.7141 67.784 59.7888 67.848C59.8741 67.9013 59.9381 67.976 59.9808 68.072L64.1888 78.36ZM57.2448 74.824H61.6928L59.4528 69.352L57.2448 74.824ZM70.6682 67.8C71.2549 67.8 71.7829 67.9387 72.2522 68.216C72.7215 68.4827 73.0842 68.8613 73.3402 69.352C73.6069 69.832 73.7402 70.376 73.7402 70.984C73.7402 71.592 73.6069 72.1467 73.3402 72.648C73.0842 73.1493 72.7215 73.544 72.2522 73.832C71.7829 74.12 71.2549 74.264 70.6682 74.264H67.3562V78.52C67.3562 78.6587 67.3082 78.776 67.2122 78.872C67.1269 78.9573 67.0149 79 66.8762 79C66.7375 79 66.6202 78.9573 66.5242 78.872C66.4389 78.776 66.3962 78.6587 66.3962 78.52V68.28C66.3962 68.1413 66.4389 68.0293 66.5242 67.944C66.6202 67.848 66.7375 67.8 66.8762 67.8H70.6682ZM70.6682 73.336C71.2869 73.336 71.7882 73.112 72.1722 72.664C72.5562 72.216 72.7482 71.656 72.7482 70.984C72.7482 70.3227 72.5562 69.784 72.1722 69.368C71.7882 68.952 71.2869 68.744 70.6682 68.744H67.3562V73.336H70.6682ZM82.4794 78.056C82.6181 78.056 82.7301 78.104 82.8154 78.2C82.9114 78.296 82.9594 78.408 82.9594 78.536C82.9594 78.6747 82.9114 78.7867 82.8154 78.872C82.7301 78.9573 82.6181 79 82.4794 79H76.6074C76.4688 79 76.3514 78.9573 76.2554 78.872C76.1701 78.776 76.1274 78.6587 76.1274 78.52V68.28C76.1274 68.1413 76.1701 68.0293 76.2554 67.944C76.3514 67.848 76.4688 67.8 76.6074 67.8H82.4794C82.6181 67.8 82.7301 67.848 82.8154 67.944C82.9114 68.0293 82.9594 68.1413 82.9594 68.28C82.9594 68.4187 82.9114 68.5307 82.8154 68.616C82.7301 68.7013 82.6181 68.744 82.4794 68.744H77.1354V72.76H81.7594C81.8981 72.76 82.0101 72.808 82.0954 72.904C82.1914 72.9893 82.2394 73.1013 82.2394 73.24C82.2394 73.3787 82.1914 73.4907 82.0954 73.576C82.0101 73.6613 81.8981 73.704 81.7594 73.704H77.1354V78.056H82.4794ZM91.9162 67.8C92.0335 67.8107 92.1295 67.864 92.2042 67.96C92.2895 68.0453 92.3322 68.152 92.3322 68.28V78.52C92.3322 78.6587 92.2789 78.776 92.1722 78.872C92.0762 78.9573 91.9535 79 91.8042 79C91.6655 79 91.5482 78.9573 91.4522 78.872C91.3562 78.776 91.3082 78.6587 91.3082 78.52V69.16L89.3082 70.344C89.2335 70.3867 89.1589 70.408 89.0842 70.408C88.9455 70.408 88.8229 70.3547 88.7162 70.248C88.6202 70.1413 88.5722 70.024 88.5722 69.896C88.5722 69.8213 88.5935 69.7467 88.6362 69.672C88.6895 69.5973 88.7535 69.5387 88.8282 69.496L91.5322 67.864C91.6389 67.8 91.7669 67.7787 91.9162 67.8Z" fill="#3A3768"/>
<path d="M8.83457 89.186C8.9559 89.186 9.05857 89.228 9.14257 89.312C9.22657 89.3867 9.26857 89.4753 9.26857 89.578C9.26857 89.6433 9.25457 89.7133 9.22657 89.788L5.48857 98.72C5.45124 98.804 5.39524 98.874 5.32057 98.93C5.2459 98.9767 5.16657 99 5.08257 99C4.99857 99 4.91924 98.9767 4.84457 98.93C4.77924 98.8833 4.7279 98.818 4.69057 98.734L0.96657 89.816C0.93857 89.76 0.92457 89.6853 0.92457 89.592C0.92457 89.4707 0.96657 89.3727 1.05057 89.298C1.13457 89.2233 1.2279 89.186 1.33057 89.186C1.52657 89.186 1.66657 89.2887 1.75057 89.494L5.12457 97.558L8.44257 89.466C8.48924 89.382 8.54524 89.3167 8.61057 89.27C8.68524 89.214 8.7599 89.186 8.83457 89.186ZM16.571 95.01C16.571 95.122 16.529 95.22 16.445 95.304C16.361 95.3787 16.263 95.416 16.151 95.416H10.859C10.859 95.976 10.971 96.48 11.195 96.928C11.4283 97.3667 11.755 97.7167 12.175 97.978C12.6043 98.23 13.1083 98.356 13.687 98.356C14.135 98.356 14.5363 98.2627 14.891 98.076C15.2457 97.8893 15.5303 97.6513 15.745 97.362C15.8477 97.278 15.9457 97.236 16.039 97.236C16.1323 97.236 16.2163 97.2733 16.291 97.348C16.3657 97.4227 16.403 97.5067 16.403 97.6C16.403 97.7027 16.3563 97.8007 16.263 97.894C15.9643 98.258 15.5863 98.5567 15.129 98.79C14.681 99.0233 14.205 99.14 13.701 99.14C12.9823 99.14 12.3477 98.986 11.797 98.678C11.2463 98.37 10.817 97.9407 10.509 97.39C10.201 96.83 10.047 96.186 10.047 95.458C10.047 94.6927 10.1963 94.0253 10.495 93.456C10.803 92.8773 11.209 92.4387 11.713 92.14C12.217 91.832 12.7537 91.678 13.323 91.678C13.883 91.678 14.4057 91.8087 14.891 92.07C15.3857 92.3313 15.787 92.714 16.095 93.218C16.403 93.722 16.5617 94.3193 16.571 95.01ZM13.323 92.49C12.7817 92.49 12.2777 92.6767 11.811 93.05C11.3537 93.4233 11.0597 93.96 10.929 94.66H15.703V94.548C15.6563 94.128 15.5163 93.764 15.283 93.456C15.0497 93.1387 14.7557 92.9007 14.401 92.742C14.0557 92.574 13.6963 92.49 13.323 92.49ZM13.197 91.286C13.141 91.286 13.0897 91.2627 13.043 91.216C12.9963 91.16 12.973 91.0993 12.973 91.034C12.973 90.978 12.9963 90.9127 13.043 90.838L13.897 89.508C14.009 89.3027 14.1677 89.2 14.373 89.2C14.513 89.2 14.625 89.2373 14.709 89.312C14.793 89.3867 14.8303 89.494 14.821 89.634C14.821 89.7367 14.7743 89.844 14.681 89.956L13.631 91.062C13.4817 91.2113 13.337 91.286 13.197 91.286ZM21.6483 91.678C21.835 91.678 22.003 91.7153 22.1523 91.79C22.3016 91.8647 22.3763 91.9767 22.3763 92.126C22.3763 92.2567 22.339 92.364 22.2643 92.448C22.1896 92.5227 22.101 92.56 21.9983 92.56C21.9516 92.56 21.8583 92.5367 21.7183 92.49C21.5876 92.4433 21.4616 92.42 21.3403 92.42C20.995 92.42 20.6496 92.5553 20.3043 92.826C19.9683 93.0873 19.6883 93.428 19.4643 93.848C19.2496 94.268 19.1423 94.6927 19.1423 95.122V98.58C19.1423 98.7013 19.1003 98.804 19.0163 98.888C18.9416 98.9627 18.8436 99 18.7223 99C18.601 99 18.4983 98.9627 18.4143 98.888C18.3396 98.804 18.3023 98.7013 18.3023 98.58V92.308C18.3023 92.1867 18.3396 92.0887 18.4143 92.014C18.4983 91.93 18.601 91.888 18.7223 91.888C18.8436 91.888 18.9416 91.93 19.0163 92.014C19.1003 92.0887 19.1423 92.1867 19.1423 92.308V93.54C19.357 93.008 19.679 92.5693 20.1083 92.224C20.547 91.8693 21.0603 91.6873 21.6483 91.678ZM24.501 98.58C24.501 98.7013 24.459 98.804 24.375 98.888C24.3003 98.9627 24.2023 99 24.081 99C23.9597 99 23.857 98.9627 23.773 98.888C23.6983 98.804 23.661 98.7013 23.661 98.58V92.14C23.661 92.0187 23.6983 91.9207 23.773 91.846C23.857 91.762 23.9597 91.72 24.081 91.72C24.2023 91.72 24.3003 91.762 24.375 91.846C24.459 91.9207 24.501 92.0187 24.501 92.14V98.58ZM24.081 90.782C23.8943 90.782 23.7497 90.74 23.647 90.656C23.5443 90.5627 23.493 90.432 23.493 90.264V90.124C23.493 89.956 23.5443 89.83 23.647 89.746C23.759 89.6527 23.9083 89.606 24.095 89.606C24.4683 89.606 24.655 89.7787 24.655 90.124V90.264C24.655 90.432 24.6037 90.5627 24.501 90.656C24.4077 90.74 24.2677 90.782 24.081 90.782ZM29.1751 89.438C28.8765 89.438 28.6431 89.536 28.4751 89.732C28.3165 89.928 28.2371 90.1987 28.2371 90.544V91.986H29.8051C29.9078 91.986 29.9965 92.0233 30.0711 92.098C30.1551 92.1727 30.1971 92.266 30.1971 92.378C30.1971 92.49 30.1551 92.5833 30.0711 92.658C29.9965 92.7327 29.9078 92.77 29.8051 92.77H28.2371V98.58C28.2371 98.7013 28.1951 98.804 28.1111 98.888C28.0365 98.9627 27.9385 99 27.8171 99C27.6958 99 27.5931 98.9627 27.5091 98.888C27.4345 98.804 27.3971 98.7013 27.3971 98.58V92.77H26.3751C26.2631 92.77 26.1698 92.7327 26.0951 92.658C26.0205 92.574 25.9831 92.4807 25.9831 92.378C25.9831 92.2567 26.0205 92.1633 26.0951 92.098C26.1698 92.0233 26.2631 91.986 26.3751 91.986H27.3971V90.544C27.3971 89.956 27.5651 89.5033 27.9011 89.186C28.2465 88.8593 28.7038 88.696 29.2731 88.696C29.5345 88.696 29.7771 88.738 30.0011 88.822C30.2251 88.8967 30.3371 89.0227 30.3371 89.2C30.3371 89.312 30.2998 89.4053 30.2251 89.48C30.1505 89.5547 30.0665 89.592 29.9731 89.592C29.8891 89.592 29.7865 89.5687 29.6651 89.522C29.4598 89.466 29.2965 89.438 29.1751 89.438ZM32.4371 98.58C32.4371 98.7013 32.3951 98.804 32.3111 98.888C32.2365 98.9627 32.1385 99 32.0171 99C31.8958 99 31.7931 98.9627 31.7091 98.888C31.6345 98.804 31.5971 98.7013 31.5971 98.58V92.14C31.5971 92.0187 31.6345 91.9207 31.7091 91.846C31.7931 91.762 31.8958 91.72 32.0171 91.72C32.1385 91.72 32.2365 91.762 32.3111 91.846C32.3951 91.9207 32.4371 92.0187 32.4371 92.14V98.58ZM32.0171 90.782C31.8305 90.782 31.6858 90.74 31.5831 90.656C31.4805 90.5627 31.4291 90.432 31.4291 90.264V90.124C31.4291 89.956 31.4805 89.83 31.5831 89.746C31.6951 89.6527 31.8445 89.606 32.0311 89.606C32.4045 89.606 32.5911 89.7787 32.5911 90.124V90.264C32.5911 90.432 32.5398 90.5627 32.4371 90.656C32.3438 90.74 32.2038 90.782 32.0171 90.782ZM40.6745 95.01C40.6745 95.122 40.6325 95.22 40.5485 95.304C40.4645 95.3787 40.3665 95.416 40.2545 95.416H34.9625C34.9625 95.976 35.0745 96.48 35.2985 96.928C35.5318 97.3667 35.8585 97.7167 36.2785 97.978C36.7078 98.23 37.2118 98.356 37.7905 98.356C38.2385 98.356 38.6398 98.2627 38.9945 98.076C39.3492 97.8893 39.6338 97.6513 39.8485 97.362C39.9512 97.278 40.0492 97.236 40.1425 97.236C40.2358 97.236 40.3198 97.2733 40.3945 97.348C40.4692 97.4227 40.5065 97.5067 40.5065 97.6C40.5065 97.7027 40.4598 97.8007 40.3665 97.894C40.0678 98.258 39.6898 98.5567 39.2325 98.79C38.7845 99.0233 38.3085 99.14 37.8045 99.14C37.0858 99.14 36.4512 98.986 35.9005 98.678C35.3498 98.37 34.9205 97.9407 34.6125 97.39C34.3045 96.83 34.1505 96.186 34.1505 95.458C34.1505 94.6927 34.2998 94.0253 34.5985 93.456C34.9065 92.8773 35.3125 92.4387 35.8165 92.14C36.3205 91.832 36.8572 91.678 37.4265 91.678C37.9865 91.678 38.5092 91.8087 38.9945 92.07C39.4892 92.3313 39.8905 92.714 40.1985 93.218C40.5065 93.722 40.6652 94.3193 40.6745 95.01ZM37.4265 92.49C36.8852 92.49 36.3812 92.6767 35.9145 93.05C35.4572 93.4233 35.1632 93.96 35.0325 94.66H39.8065V94.548C39.7598 94.128 39.6198 93.764 39.3865 93.456C39.1532 93.1387 38.8592 92.9007 38.5045 92.742C38.1592 92.574 37.7998 92.49 37.4265 92.49ZM46.8858 98.216C47.0071 98.216 47.1051 98.2533 47.1798 98.328C47.2545 98.4027 47.2918 98.496 47.2918 98.608C47.2918 98.72 47.2545 98.8133 47.1798 98.888C47.1051 98.9627 47.0071 99 46.8858 99H42.3358C42.2145 99 42.1165 98.958 42.0418 98.874C41.9671 98.7807 41.9298 98.6873 41.9298 98.594C41.9298 98.4727 41.9718 98.3653 42.0558 98.272L46.1998 92.532H42.6858C42.5738 92.532 42.4758 92.4947 42.3918 92.42C42.3171 92.3453 42.2798 92.252 42.2798 92.14C42.2798 92.028 42.3171 91.9347 42.3918 91.86C42.4758 91.7853 42.5738 91.748 42.6858 91.748H46.9838C47.0958 91.748 47.1891 91.79 47.2638 91.874C47.3385 91.958 47.3758 92.056 47.3758 92.168C47.3758 92.2707 47.3385 92.3733 47.2638 92.476L43.1058 98.216H46.8858ZM58.3371 91.706C58.4305 91.706 58.5191 91.7387 58.6031 91.804C58.6871 91.8693 58.7291 91.9533 58.7291 92.056C58.7291 92.14 58.7105 92.2193 58.6731 92.294L55.9291 98.734C55.8918 98.8087 55.8358 98.874 55.7611 98.93C55.6958 98.9767 55.6258 99 55.5511 99C55.4578 99.0093 55.3738 98.9907 55.2991 98.944C55.2245 98.8973 55.1685 98.8273 55.1311 98.734L52.3731 92.294C52.3731 92.2753 52.3638 92.2473 52.3451 92.21C52.3358 92.1727 52.3311 92.1353 52.3311 92.098C52.3311 91.986 52.3685 91.8927 52.4431 91.818C52.5178 91.734 52.6251 91.692 52.7651 91.692C52.8491 91.692 52.9238 91.72 52.9891 91.776C53.0638 91.8227 53.1198 91.888 53.1571 91.972L55.5371 97.642L57.9311 91.972C57.9685 91.888 58.0198 91.8227 58.0851 91.776C58.1598 91.72 58.2438 91.6967 58.3371 91.706ZM66.8829 95.416C66.8829 96.116 66.7289 96.7507 66.4209 97.32C66.1129 97.8893 65.6883 98.3373 65.1469 98.664C64.6056 98.9813 64.0036 99.14 63.3409 99.14C62.6783 99.14 62.0763 98.9813 61.5349 98.664C60.9936 98.3373 60.5689 97.8893 60.2609 97.32C59.9529 96.7507 59.7989 96.116 59.7989 95.416C59.7989 94.716 59.9529 94.0813 60.2609 93.512C60.5689 92.9427 60.9936 92.4947 61.5349 92.168C62.0763 91.8413 62.6783 91.678 63.3409 91.678C64.0036 91.678 64.6056 91.8413 65.1469 92.168C65.6883 92.4947 66.1129 92.9427 66.4209 93.512C66.7289 94.0813 66.8829 94.716 66.8829 95.416ZM66.0429 95.416C66.0429 94.856 65.9263 94.352 65.6929 93.904C65.4596 93.456 65.1329 93.106 64.7129 92.854C64.3023 92.5927 63.8449 92.462 63.3409 92.462C62.8369 92.462 62.3796 92.5927 61.9689 92.854C61.5583 93.106 61.2316 93.456 60.9889 93.904C60.7556 94.352 60.6389 94.856 60.6389 95.416C60.6389 95.9667 60.7556 96.466 60.9889 96.914C61.2316 97.362 61.5583 97.7167 61.9689 97.978C62.3796 98.23 62.8369 98.356 63.3409 98.356C63.8449 98.356 64.3023 98.23 64.7129 97.978C65.1329 97.726 65.4596 97.376 65.6929 96.928C65.9263 96.48 66.0429 95.976 66.0429 95.416ZM70.0011 92.658V97.348C70.0011 97.7027 70.0665 97.9453 70.1971 98.076C70.3278 98.1973 70.5005 98.258 70.7151 98.258C70.7711 98.258 70.8411 98.2487 70.9251 98.23C71.0091 98.202 71.0745 98.188 71.1211 98.188C71.2051 98.188 71.2751 98.2253 71.3311 98.3C71.3965 98.3653 71.4291 98.4447 71.4291 98.538C71.4291 98.6687 71.3545 98.7807 71.2051 98.874C71.0558 98.958 70.8785 99 70.6731 99C70.4211 99 70.1971 98.9767 70.0011 98.93C69.8051 98.8833 69.6138 98.7433 69.4271 98.51C69.2498 98.2767 69.1611 97.9033 69.1611 97.39V92.658H68.1391C68.0271 92.658 67.9291 92.6207 67.8451 92.546C67.7705 92.4713 67.7331 92.378 67.7331 92.266C67.7331 92.154 67.7705 92.0607 67.8451 91.986C67.9291 91.9113 68.0271 91.874 68.1391 91.874H69.1611V90.32C69.1611 90.1987 69.1985 90.1007 69.2731 90.026C69.3571 89.942 69.4598 89.9 69.5811 89.9C69.7025 89.9 69.8005 89.942 69.8751 90.026C69.9591 90.1007 70.0011 90.1987 70.0011 90.32V91.874H71.4011C71.5038 91.874 71.5925 91.916 71.6671 92C71.7511 92.084 71.7931 92.1773 71.7931 92.28C71.7931 92.392 71.7558 92.4853 71.6811 92.56C71.6065 92.6253 71.5131 92.658 71.4011 92.658H70.0011ZM76.6913 91.678C76.8779 91.678 77.0459 91.7153 77.1953 91.79C77.3446 91.8647 77.4193 91.9767 77.4193 92.126C77.4193 92.2567 77.3819 92.364 77.3073 92.448C77.2326 92.5227 77.1439 92.56 77.0413 92.56C76.9946 92.56 76.9013 92.5367 76.7613 92.49C76.6306 92.4433 76.5046 92.42 76.3833 92.42C76.0379 92.42 75.6926 92.5553 75.3473 92.826C75.0113 93.0873 74.7313 93.428 74.5073 93.848C74.2926 94.268 74.1853 94.6927 74.1853 95.122V98.58C74.1853 98.7013 74.1433 98.804 74.0593 98.888C73.9846 98.9627 73.8866 99 73.7653 99C73.6439 99 73.5413 98.9627 73.4573 98.888C73.3826 98.804 73.3453 98.7013 73.3453 98.58V92.308C73.3453 92.1867 73.3826 92.0887 73.4573 92.014C73.5413 91.93 73.6439 91.888 73.7653 91.888C73.8866 91.888 73.9846 91.93 74.0593 92.014C74.1433 92.0887 74.1853 92.1867 74.1853 92.308V93.54C74.3999 93.008 74.7219 92.5693 75.1513 92.224C75.5899 91.8693 76.1033 91.6873 76.6913 91.678ZM84.4655 95.01C84.4655 95.122 84.4235 95.22 84.3395 95.304C84.2555 95.3787 84.1575 95.416 84.0455 95.416H78.7535C78.7535 95.976 78.8655 96.48 79.0895 96.928C79.3229 97.3667 79.6495 97.7167 80.0695 97.978C80.4989 98.23 81.0029 98.356 81.5815 98.356C82.0295 98.356 82.4309 98.2627 82.7855 98.076C83.1402 97.8893 83.4249 97.6513 83.6395 97.362C83.7422 97.278 83.8402 97.236 83.9335 97.236C84.0269 97.236 84.1109 97.2733 84.1855 97.348C84.2602 97.4227 84.2975 97.5067 84.2975 97.6C84.2975 97.7027 84.2509 97.8007 84.1575 97.894C83.8589 98.258 83.4809 98.5567 83.0235 98.79C82.5755 99.0233 82.0995 99.14 81.5955 99.14C80.8769 99.14 80.2422 98.986 79.6915 98.678C79.1409 98.37 78.7115 97.9407 78.4035 97.39C78.0955 96.83 77.9415 96.186 77.9415 95.458C77.9415 94.6927 78.0909 94.0253 78.3895 93.456C78.6975 92.8773 79.1035 92.4387 79.6075 92.14C80.1115 91.832 80.6482 91.678 81.2175 91.678C81.7775 91.678 82.3002 91.8087 82.7855 92.07C83.2802 92.3313 83.6815 92.714 83.9895 93.218C84.2975 93.722 84.4562 94.3193 84.4655 95.01ZM81.2175 92.49C80.6762 92.49 80.1722 92.6767 79.7055 93.05C79.2482 93.4233 78.9542 93.96 78.8235 94.66H83.5975V94.548C83.5509 94.128 83.4109 93.764 83.1775 93.456C82.9442 93.1387 82.6502 92.9007 82.2955 92.742C81.9502 92.574 81.5909 92.49 81.2175 92.49ZM96.0729 95.01C96.0729 95.122 96.0309 95.22 95.9469 95.304C95.8629 95.3787 95.7649 95.416 95.6529 95.416H90.3609C90.3609 95.976 90.4729 96.48 90.6969 96.928C90.9303 97.3667 91.2569 97.7167 91.6769 97.978C92.1063 98.23 92.6103 98.356 93.1889 98.356C93.6369 98.356 94.0383 98.2627 94.3929 98.076C94.7476 97.8893 95.0323 97.6513 95.2469 97.362C95.3496 97.278 95.4476 97.236 95.5409 97.236C95.6343 97.236 95.7183 97.2733 95.7929 97.348C95.8676 97.4227 95.9049 97.5067 95.9049 97.6C95.9049 97.7027 95.8583 97.8007 95.7649 97.894C95.4663 98.258 95.0883 98.5567 94.6309 98.79C94.1829 99.0233 93.7069 99.14 93.2029 99.14C92.4843 99.14 91.8496 98.986 91.2989 98.678C90.7483 98.37 90.3189 97.9407 90.0109 97.39C89.7029 96.83 89.5489 96.186 89.5489 95.458C89.5489 94.6927 89.6983 94.0253 89.9969 93.456C90.3049 92.8773 90.7109 92.4387 91.2149 92.14C91.7189 91.832 92.2556 91.678 92.8249 91.678C93.3849 91.678 93.9076 91.8087 94.3929 92.07C94.8876 92.3313 95.2889 92.714 95.5969 93.218C95.9049 93.722 96.0636 94.3193 96.0729 95.01ZM92.8249 92.49C92.2836 92.49 91.7796 92.6767 91.3129 93.05C90.8556 93.4233 90.5616 93.96 90.4309 94.66H95.2049V94.548C95.1583 94.128 95.0183 93.764 94.7849 93.456C94.5516 93.1387 94.2576 92.9007 93.9029 92.742C93.5576 92.574 93.1983 92.49 92.8249 92.49ZM97.9162 95.766C97.7949 95.766 97.6969 95.7287 97.6222 95.654C97.5476 95.57 97.5102 95.4673 97.5102 95.346C97.5102 95.2247 97.5476 95.1267 97.6222 95.052C97.6969 94.9773 97.7949 94.94 97.9162 94.94H100.94C101.062 94.94 101.16 94.982 101.234 95.066C101.318 95.15 101.36 95.2527 101.36 95.374C101.36 95.486 101.318 95.5793 101.234 95.654C101.16 95.7287 101.062 95.766 100.94 95.766H97.9162ZM111.379 91.79C112.219 91.79 112.835 92.0513 113.227 92.574C113.629 93.0873 113.829 93.7687 113.829 94.618V98.58C113.829 98.7013 113.787 98.804 113.703 98.888C113.629 98.9627 113.531 99 113.409 99C113.288 99 113.185 98.9627 113.101 98.888C113.027 98.804 112.989 98.7013 112.989 98.58V94.66C112.989 94.044 112.84 93.5447 112.541 93.162C112.252 92.77 111.799 92.574 111.183 92.574C110.791 92.574 110.418 92.6673 110.063 92.854C109.718 93.0407 109.438 93.2973 109.223 93.624C109.009 93.9413 108.901 94.2867 108.901 94.66V98.58C108.901 98.7013 108.859 98.804 108.775 98.888C108.701 98.9627 108.603 99 108.481 99C108.36 99 108.257 98.9627 108.173 98.888C108.099 98.804 108.061 98.7013 108.061 98.58V94.618C108.061 94.0113 107.921 93.5213 107.641 93.148C107.361 92.7653 106.923 92.574 106.325 92.574C105.943 92.574 105.579 92.6673 105.233 92.854C104.897 93.0407 104.622 93.2927 104.407 93.61C104.202 93.918 104.099 94.254 104.099 94.618V98.58C104.099 98.7013 104.057 98.804 103.973 98.888C103.899 98.9627 103.801 99 103.679 99C103.558 99 103.455 98.9627 103.371 98.888C103.297 98.804 103.259 98.7013 103.259 98.58V92.308C103.259 92.1867 103.297 92.0887 103.371 92.014C103.455 91.93 103.558 91.888 103.679 91.888C103.801 91.888 103.899 91.93 103.973 92.014C104.057 92.0887 104.099 92.1867 104.099 92.308V93.12C104.351 92.7373 104.692 92.42 105.121 92.168C105.551 91.916 106.003 91.79 106.479 91.79C107.021 91.79 107.487 91.9207 107.879 92.182C108.271 92.4433 108.551 92.826 108.719 93.33C108.915 92.9193 109.275 92.56 109.797 92.252C110.32 91.944 110.847 91.79 111.379 91.79ZM121.839 91.846C121.96 91.846 122.058 91.888 122.133 91.972C122.217 92.056 122.259 92.1587 122.259 92.28V98.58C122.259 98.7013 122.217 98.804 122.133 98.888C122.058 98.9627 121.96 99 121.839 99C121.718 99 121.615 98.9627 121.531 98.888C121.456 98.804 121.419 98.7013 121.419 98.58V97.642C121.186 98.062 120.836 98.4167 120.369 98.706C119.902 98.9953 119.394 99.14 118.843 99.14C118.218 99.14 117.653 98.9767 117.149 98.65C116.654 98.3233 116.262 97.8753 115.973 97.306C115.693 96.7367 115.553 96.0973 115.553 95.388C115.553 94.6787 115.698 94.044 115.987 93.484C116.276 92.9147 116.668 92.4713 117.163 92.154C117.667 91.8367 118.222 91.678 118.829 91.678C119.389 91.678 119.902 91.8133 120.369 92.084C120.836 92.3547 121.186 92.7093 121.419 93.148V92.28C121.419 92.1587 121.456 92.056 121.531 91.972C121.615 91.888 121.718 91.846 121.839 91.846ZM118.927 98.356C119.412 98.356 119.846 98.23 120.229 97.978C120.621 97.7167 120.924 97.362 121.139 96.914C121.363 96.4567 121.475 95.948 121.475 95.388C121.475 94.8467 121.363 94.352 121.139 93.904C120.924 93.456 120.621 93.106 120.229 92.854C119.846 92.5927 119.412 92.462 118.927 92.462C118.442 92.462 118.003 92.588 117.611 92.84C117.228 93.092 116.925 93.442 116.701 93.89C116.486 94.3287 116.379 94.828 116.379 95.388C116.379 95.948 116.486 96.4567 116.701 96.914C116.916 97.362 117.214 97.7167 117.597 97.978C117.989 98.23 118.432 98.356 118.927 98.356ZM125.263 98.58C125.263 98.7013 125.221 98.804 125.137 98.888C125.062 98.9627 124.964 99 124.843 99C124.721 99 124.619 98.9627 124.535 98.888C124.46 98.804 124.423 98.7013 124.423 98.58V92.14C124.423 92.0187 124.46 91.9207 124.535 91.846C124.619 91.762 124.721 91.72 124.843 91.72C124.964 91.72 125.062 91.762 125.137 91.846C125.221 91.9207 125.263 92.0187 125.263 92.14V98.58ZM124.843 90.782C124.656 90.782 124.511 90.74 124.409 90.656C124.306 90.5627 124.255 90.432 124.255 90.264V90.124C124.255 89.956 124.306 89.83 124.409 89.746C124.521 89.6527 124.67 89.606 124.857 89.606C125.23 89.606 125.417 89.7787 125.417 90.124V90.264C125.417 90.432 125.365 90.5627 125.263 90.656C125.169 90.74 125.029 90.782 124.843 90.782ZM128.369 98.58C128.369 98.7013 128.327 98.804 128.243 98.888C128.168 98.9627 128.07 99 127.949 99C127.828 99 127.725 98.9627 127.641 98.888C127.566 98.804 127.529 98.7013 127.529 98.58V89.06C127.529 88.9387 127.566 88.8407 127.641 88.766C127.725 88.682 127.828 88.64 127.949 88.64C128.07 88.64 128.168 88.682 128.243 88.766C128.327 88.8407 128.369 88.9387 128.369 89.06V98.58Z" fill="#9997B1"/>
<path d="M262.961 78.056C263.099 78.056 263.211 78.104 263.297 78.2C263.393 78.296 263.441 78.408 263.441 78.536C263.441 78.6747 263.393 78.7867 263.297 78.872C263.211 78.9573 263.099 79 262.961 79H257.089C256.95 79 256.833 78.9573 256.737 78.872C256.651 78.776 256.609 78.6587 256.609 78.52V68.28C256.609 68.1413 256.651 68.0293 256.737 67.944C256.833 67.848 256.95 67.8 257.089 67.8H262.961C263.099 67.8 263.211 67.848 263.297 67.944C263.393 68.0293 263.441 68.1413 263.441 68.28C263.441 68.4187 263.393 68.5307 263.297 68.616C263.211 68.7013 263.099 68.744 262.961 68.744H257.617V72.76H262.241C262.379 72.76 262.491 72.808 262.577 72.904C262.673 72.9893 262.721 73.1013 262.721 73.24C262.721 73.3787 262.673 73.4907 262.577 73.576C262.491 73.6613 262.379 73.704 262.241 73.704H257.617V78.056H262.961ZM273.038 67.8C273.177 67.8 273.289 67.8427 273.374 67.928C273.47 68.0133 273.518 68.1253 273.518 68.264C273.518 68.4027 273.47 68.5147 273.374 68.6C273.289 68.6747 273.177 68.712 273.038 68.712H269.726V78.52C269.726 78.6587 269.678 78.776 269.582 78.872C269.486 78.9573 269.369 79 269.23 79C269.081 79 268.958 78.9573 268.862 78.872C268.777 78.776 268.734 78.6587 268.734 78.52V68.712H265.422C265.284 68.712 265.166 68.6693 265.07 68.584C264.985 68.4987 264.942 68.3867 264.942 68.248C264.942 68.12 264.985 68.0133 265.07 67.928C265.166 67.8427 265.284 67.8 265.422 67.8H273.038ZM283.314 78.36C283.335 78.4453 283.346 78.5093 283.346 78.552C283.346 78.6907 283.298 78.8027 283.202 78.888C283.106 78.9733 282.994 79.016 282.866 79.016C282.759 79.016 282.663 78.9893 282.578 78.936C282.503 78.872 282.444 78.792 282.402 78.696L281.202 75.768H276.002L274.818 78.696C274.732 78.9093 274.588 79.016 274.386 79.016C274.236 79.016 274.124 78.9787 274.05 78.904C273.975 78.8293 273.932 78.728 273.922 78.6V78.552C273.922 78.488 273.927 78.44 273.938 78.408L278.162 68.072C278.247 67.8587 278.407 67.752 278.642 67.752C278.748 67.752 278.839 67.784 278.914 67.848C278.999 67.9013 279.063 67.976 279.106 68.072L283.314 78.36ZM276.37 74.824H280.818L278.578 69.352L276.37 74.824ZM289.793 67.8C290.38 67.8 290.908 67.9387 291.377 68.216C291.847 68.4827 292.209 68.8613 292.465 69.352C292.732 69.832 292.865 70.376 292.865 70.984C292.865 71.592 292.732 72.1467 292.465 72.648C292.209 73.1493 291.847 73.544 291.377 73.832C290.908 74.12 290.38 74.264 289.793 74.264H286.481V78.52C286.481 78.6587 286.433 78.776 286.337 78.872C286.252 78.9573 286.14 79 286.001 79C285.863 79 285.745 78.9573 285.649 78.872C285.564 78.776 285.521 78.6587 285.521 78.52V68.28C285.521 68.1413 285.564 68.0293 285.649 67.944C285.745 67.848 285.863 67.8 286.001 67.8H289.793ZM289.793 73.336C290.412 73.336 290.913 73.112 291.297 72.664C291.681 72.216 291.873 71.656 291.873 70.984C291.873 70.3227 291.681 69.784 291.297 69.368C290.913 68.952 290.412 68.744 289.793 68.744H286.481V73.336H289.793ZM301.604 78.056C301.743 78.056 301.855 78.104 301.94 78.2C302.036 78.296 302.084 78.408 302.084 78.536C302.084 78.6747 302.036 78.7867 301.94 78.872C301.855 78.9573 301.743 79 301.604 79H295.732C295.594 79 295.476 78.9573 295.38 78.872C295.295 78.776 295.252 78.6587 295.252 78.52V68.28C295.252 68.1413 295.295 68.0293 295.38 67.944C295.476 67.848 295.594 67.8 295.732 67.8H301.604C301.743 67.8 301.855 67.848 301.94 67.944C302.036 68.0293 302.084 68.1413 302.084 68.28C302.084 68.4187 302.036 68.5307 301.94 68.616C301.855 68.7013 301.743 68.744 301.604 68.744H296.26V72.76H300.884C301.023 72.76 301.135 72.808 301.22 72.904C301.316 72.9893 301.364 73.1013 301.364 73.24C301.364 73.3787 301.316 73.4907 301.22 73.576C301.135 73.6613 301.023 73.704 300.884 73.704H296.26V78.056H301.604ZM315.505 78.072C315.633 78.072 315.74 78.12 315.825 78.216C315.921 78.3013 315.969 78.408 315.969 78.536C315.969 78.6747 315.921 78.7867 315.825 78.872C315.74 78.9573 315.633 79 315.505 79H309.505C309.356 79 309.233 78.9573 309.137 78.872C309.041 78.7867 308.993 78.6693 308.993 78.52C308.993 78.4027 309.036 78.2907 309.121 78.184L312.817 74.104C313.415 73.464 313.857 72.8933 314.145 72.392C314.433 71.88 314.577 71.3787 314.577 70.888C314.577 70.1627 314.359 69.592 313.921 69.176C313.484 68.76 312.876 68.552 312.097 68.552C311.575 68.552 311.105 68.68 310.689 68.936C310.284 69.1813 309.98 69.56 309.777 70.072C309.66 70.264 309.521 70.36 309.361 70.36C309.244 70.36 309.132 70.3173 309.025 70.232C308.919 70.1467 308.865 70.0507 308.865 69.944C308.865 69.88 308.887 69.8053 308.929 69.72C308.972 69.6347 309.025 69.5493 309.089 69.464C309.367 68.888 309.783 68.44 310.337 68.12C310.892 67.8 311.5 67.64 312.161 67.64C313.239 67.64 314.081 67.9333 314.689 68.52C315.297 69.1067 315.601 69.8747 315.601 70.824C315.601 71.4107 315.441 72.0133 315.121 72.632C314.801 73.24 314.273 73.9493 313.537 74.76L310.593 78.072H315.505Z" fill="#3A3768"/>
<path d="M223.671 89.928C223.811 90.012 223.881 90.1287 223.881 90.278C223.881 90.362 223.849 90.4553 223.783 90.558C223.699 90.6607 223.592 90.712 223.461 90.712C223.387 90.712 223.312 90.6887 223.237 90.642C222.491 90.1473 221.674 89.9 220.787 89.9C220.031 89.9 219.345 90.0773 218.729 90.432C218.123 90.7867 217.642 91.286 217.287 91.93C216.942 92.5647 216.769 93.288 216.769 94.1C216.769 94.9307 216.947 95.668 217.301 96.312C217.656 96.9467 218.137 97.4413 218.743 97.796C219.359 98.1413 220.041 98.314 220.787 98.314C221.674 98.314 222.486 98.0713 223.223 97.586C223.298 97.5393 223.377 97.516 223.461 97.516C223.592 97.516 223.699 97.572 223.783 97.684C223.849 97.7587 223.881 97.8473 223.881 97.95C223.881 98.0993 223.816 98.2113 223.685 98.286C223.321 98.5287 222.873 98.734 222.341 98.902C221.809 99.0607 221.291 99.14 220.787 99.14C219.901 99.14 219.079 98.93 218.323 98.51C217.577 98.0807 216.979 97.4833 216.531 96.718C216.093 95.9527 215.873 95.08 215.873 94.1C215.873 93.1573 216.093 92.3033 216.531 91.538C216.97 90.7633 217.563 90.1613 218.309 89.732C219.056 89.2933 219.882 89.074 220.787 89.074C221.31 89.074 221.819 89.1487 222.313 89.298C222.817 89.4473 223.27 89.6573 223.671 89.928ZM232.062 95.416C232.062 96.116 231.908 96.7507 231.6 97.32C231.292 97.8893 230.867 98.3373 230.326 98.664C229.784 98.9813 229.182 99.14 228.52 99.14C227.857 99.14 227.255 98.9813 226.714 98.664C226.172 98.3373 225.748 97.8893 225.44 97.32C225.132 96.7507 224.978 96.116 224.978 95.416C224.978 94.716 225.132 94.0813 225.44 93.512C225.748 92.9427 226.172 92.4947 226.714 92.168C227.255 91.8413 227.857 91.678 228.52 91.678C229.182 91.678 229.784 91.8413 230.326 92.168C230.867 92.4947 231.292 92.9427 231.6 93.512C231.908 94.0813 232.062 94.716 232.062 95.416ZM231.222 95.416C231.222 94.856 231.105 94.352 230.872 93.904C230.638 93.456 230.312 93.106 229.892 92.854C229.481 92.5927 229.024 92.462 228.52 92.462C228.016 92.462 227.558 92.5927 227.148 92.854C226.737 93.106 226.41 93.456 226.168 93.904C225.934 94.352 225.818 94.856 225.818 95.416C225.818 95.9667 225.934 96.466 226.168 96.914C226.41 97.362 226.737 97.7167 227.148 97.978C227.558 98.23 228.016 98.356 228.52 98.356C229.024 98.356 229.481 98.23 229.892 97.978C230.312 97.726 230.638 97.376 230.872 96.928C231.105 96.48 231.222 95.976 231.222 95.416ZM241.9 91.79C242.74 91.79 243.356 92.0513 243.748 92.574C244.149 93.0873 244.35 93.7687 244.35 94.618V98.58C244.35 98.7013 244.308 98.804 244.224 98.888C244.149 98.9627 244.051 99 243.93 99C243.808 99 243.706 98.9627 243.622 98.888C243.547 98.804 243.51 98.7013 243.51 98.58V94.66C243.51 94.044 243.36 93.5447 243.062 93.162C242.772 92.77 242.32 92.574 241.704 92.574C241.312 92.574 240.938 92.6673 240.584 92.854C240.238 93.0407 239.958 93.2973 239.744 93.624C239.529 93.9413 239.422 94.2867 239.422 94.66V98.58C239.422 98.7013 239.38 98.804 239.296 98.888C239.221 98.9627 239.123 99 239.002 99C238.88 99 238.778 98.9627 238.694 98.888C238.619 98.804 238.582 98.7013 238.582 98.58V94.618C238.582 94.0113 238.442 93.5213 238.162 93.148C237.882 92.7653 237.443 92.574 236.846 92.574C236.463 92.574 236.099 92.6673 235.754 92.854C235.418 93.0407 235.142 93.2927 234.928 93.61C234.722 93.918 234.62 94.254 234.62 94.618V98.58C234.62 98.7013 234.578 98.804 234.494 98.888C234.419 98.9627 234.321 99 234.2 99C234.078 99 233.976 98.9627 233.892 98.888C233.817 98.804 233.78 98.7013 233.78 98.58V92.308C233.78 92.1867 233.817 92.0887 233.892 92.014C233.976 91.93 234.078 91.888 234.2 91.888C234.321 91.888 234.419 91.93 234.494 92.014C234.578 92.0887 234.62 92.1867 234.62 92.308V93.12C234.872 92.7373 235.212 92.42 235.642 92.168C236.071 91.916 236.524 91.79 237 91.79C237.541 91.79 238.008 91.9207 238.4 92.182C238.792 92.4433 239.072 92.826 239.24 93.33C239.436 92.9193 239.795 92.56 240.318 92.252C240.84 91.944 241.368 91.79 241.9 91.79ZM249.951 91.79C250.567 91.79 251.127 91.9487 251.631 92.266C252.135 92.574 252.527 93.008 252.807 93.568C253.097 94.1187 253.241 94.7393 253.241 95.43C253.241 96.13 253.097 96.76 252.807 97.32C252.527 97.8707 252.135 98.3047 251.631 98.622C251.137 98.9393 250.581 99.098 249.965 99.098C249.424 99.098 248.925 98.972 248.467 98.72C248.019 98.4587 247.66 98.1133 247.389 97.684V101.38C247.389 101.501 247.347 101.599 247.263 101.674C247.189 101.758 247.091 101.8 246.969 101.8C246.848 101.8 246.745 101.758 246.661 101.674C246.587 101.599 246.549 101.501 246.549 101.38V92.252C246.549 92.1307 246.587 92.028 246.661 91.944C246.745 91.86 246.848 91.818 246.969 91.818C247.091 91.818 247.189 91.86 247.263 91.944C247.347 92.028 247.389 92.1307 247.389 92.252V93.204C247.632 92.7653 247.982 92.42 248.439 92.168C248.897 91.916 249.401 91.79 249.951 91.79ZM249.881 98.314C250.367 98.314 250.801 98.1927 251.183 97.95C251.575 97.698 251.879 97.3527 252.093 96.914C252.317 96.4753 252.429 95.9807 252.429 95.43C252.429 94.8887 252.317 94.4033 252.093 93.974C251.879 93.5353 251.575 93.1947 251.183 92.952C250.801 92.7 250.367 92.574 249.881 92.574C249.387 92.574 248.943 92.6953 248.551 92.938C248.159 93.1807 247.856 93.5213 247.641 93.96C247.427 94.3893 247.319 94.8793 247.319 95.43C247.319 95.9807 247.427 96.4753 247.641 96.914C247.856 97.3527 248.159 97.698 248.551 97.95C248.943 98.1927 249.387 98.314 249.881 98.314ZM255.895 98.58C255.895 98.7013 255.853 98.804 255.769 98.888C255.695 98.9627 255.597 99 255.475 99C255.354 99 255.251 98.9627 255.167 98.888C255.093 98.804 255.055 98.7013 255.055 98.58V89.06C255.055 88.9387 255.093 88.8407 255.167 88.766C255.251 88.682 255.354 88.64 255.475 88.64C255.597 88.64 255.695 88.682 255.769 88.766C255.853 88.8407 255.895 88.9387 255.895 89.06V98.58ZM264.109 95.01C264.109 95.122 264.067 95.22 263.983 95.304C263.899 95.3787 263.801 95.416 263.689 95.416H258.397C258.397 95.976 258.509 96.48 258.733 96.928C258.966 97.3667 259.293 97.7167 259.713 97.978C260.142 98.23 260.646 98.356 261.225 98.356C261.673 98.356 262.074 98.2627 262.429 98.076C262.784 97.8893 263.068 97.6513 263.283 97.362C263.386 97.278 263.484 97.236 263.577 97.236C263.67 97.236 263.754 97.2733 263.829 97.348C263.904 97.4227 263.941 97.5067 263.941 97.6C263.941 97.7027 263.894 97.8007 263.801 97.894C263.502 98.258 263.124 98.5567 262.667 98.79C262.219 99.0233 261.743 99.14 261.239 99.14C260.52 99.14 259.886 98.986 259.335 98.678C258.784 98.37 258.355 97.9407 258.047 97.39C257.739 96.83 257.585 96.186 257.585 95.458C257.585 94.6927 257.734 94.0253 258.033 93.456C258.341 92.8773 258.747 92.4387 259.251 92.14C259.755 91.832 260.292 91.678 260.861 91.678C261.421 91.678 261.944 91.8087 262.429 92.07C262.924 92.3313 263.325 92.714 263.633 93.218C263.941 93.722 264.1 94.3193 264.109 95.01ZM260.861 92.49C260.32 92.49 259.816 92.6767 259.349 93.05C258.892 93.4233 258.598 93.96 258.467 94.66H263.241V94.548C263.194 94.128 263.054 93.764 262.821 93.456C262.588 93.1387 262.294 92.9007 261.939 92.742C261.594 92.574 261.234 92.49 260.861 92.49ZM260.735 91.286C260.679 91.286 260.628 91.2627 260.581 91.216C260.534 91.16 260.511 91.0993 260.511 91.034C260.511 90.978 260.534 90.9127 260.581 90.838L261.435 89.508C261.547 89.3027 261.706 89.2 261.911 89.2C262.051 89.2 262.163 89.2373 262.247 89.312C262.331 89.3867 262.368 89.494 262.359 89.634C262.359 89.7367 262.312 89.844 262.219 89.956L261.169 91.062C261.02 91.2113 260.875 91.286 260.735 91.286ZM267.24 92.658V97.348C267.24 97.7027 267.306 97.9453 267.436 98.076C267.567 98.1973 267.74 98.258 267.954 98.258C268.01 98.258 268.08 98.2487 268.164 98.23C268.248 98.202 268.314 98.188 268.36 98.188C268.444 98.188 268.514 98.2253 268.57 98.3C268.636 98.3653 268.668 98.4447 268.668 98.538C268.668 98.6687 268.594 98.7807 268.444 98.874C268.295 98.958 268.118 99 267.912 99C267.66 99 267.436 98.9767 267.24 98.93C267.044 98.8833 266.853 98.7433 266.666 98.51C266.489 98.2767 266.4 97.9033 266.4 97.39V92.658H265.378C265.266 92.658 265.168 92.6207 265.084 92.546C265.01 92.4713 264.972 92.378 264.972 92.266C264.972 92.154 265.01 92.0607 265.084 91.986C265.168 91.9113 265.266 91.874 265.378 91.874H266.4V90.32C266.4 90.1987 266.438 90.1007 266.512 90.026C266.596 89.942 266.699 89.9 266.82 89.9C266.942 89.9 267.04 89.942 267.114 90.026C267.198 90.1007 267.24 90.1987 267.24 90.32V91.874H268.64C268.743 91.874 268.832 91.916 268.906 92C268.99 92.084 269.032 92.1773 269.032 92.28C269.032 92.392 268.995 92.4853 268.92 92.56C268.846 92.6253 268.752 92.658 268.64 92.658H267.24ZM276.564 95.01C276.564 95.122 276.522 95.22 276.438 95.304C276.354 95.3787 276.256 95.416 276.144 95.416H270.852C270.852 95.976 270.964 96.48 271.188 96.928C271.421 97.3667 271.748 97.7167 272.168 97.978C272.597 98.23 273.101 98.356 273.68 98.356C274.128 98.356 274.529 98.2627 274.884 98.076C275.239 97.8893 275.523 97.6513 275.738 97.362C275.841 97.278 275.939 97.236 276.032 97.236C276.125 97.236 276.209 97.2733 276.284 97.348C276.359 97.4227 276.396 97.5067 276.396 97.6C276.396 97.7027 276.349 97.8007 276.256 97.894C275.957 98.258 275.579 98.5567 275.122 98.79C274.674 99.0233 274.198 99.14 273.694 99.14C272.975 99.14 272.341 98.986 271.79 98.678C271.239 98.37 270.81 97.9407 270.502 97.39C270.194 96.83 270.04 96.186 270.04 95.458C270.04 94.6927 270.189 94.0253 270.488 93.456C270.796 92.8773 271.202 92.4387 271.706 92.14C272.21 91.832 272.747 91.678 273.316 91.678C273.876 91.678 274.399 91.8087 274.884 92.07C275.379 92.3313 275.78 92.714 276.088 93.218C276.396 93.722 276.555 94.3193 276.564 95.01ZM273.316 92.49C272.775 92.49 272.271 92.6767 271.804 93.05C271.347 93.4233 271.053 93.96 270.922 94.66H275.696V94.548C275.649 94.128 275.509 93.764 275.276 93.456C275.043 93.1387 274.749 92.9007 274.394 92.742C274.049 92.574 273.689 92.49 273.316 92.49ZM282.775 98.216C282.897 98.216 282.995 98.2533 283.069 98.328C283.144 98.4027 283.181 98.496 283.181 98.608C283.181 98.72 283.144 98.8133 283.069 98.888C282.995 98.9627 282.897 99 282.775 99H278.225C278.104 99 278.006 98.958 277.931 98.874C277.857 98.7807 277.819 98.6873 277.819 98.594C277.819 98.4727 277.861 98.3653 277.945 98.272L282.089 92.532H278.575C278.463 92.532 278.365 92.4947 278.281 92.42C278.207 92.3453 278.169 92.252 278.169 92.14C278.169 92.028 278.207 91.9347 278.281 91.86C278.365 91.7853 278.463 91.748 278.575 91.748H282.873C282.985 91.748 283.079 91.79 283.153 91.874C283.228 91.958 283.265 92.056 283.265 92.168C283.265 92.2707 283.228 92.3733 283.153 92.476L278.995 98.216H282.775ZM294.227 91.706C294.32 91.706 294.409 91.7387 294.493 91.804C294.577 91.8693 294.619 91.9533 294.619 92.056C294.619 92.14 294.6 92.2193 294.563 92.294L291.819 98.734C291.781 98.8087 291.725 98.874 291.651 98.93C291.585 98.9767 291.515 99 291.441 99C291.347 99.0093 291.263 98.9907 291.189 98.944C291.114 98.8973 291.058 98.8273 291.021 98.734L288.263 92.294C288.263 92.2753 288.253 92.2473 288.235 92.21C288.225 92.1727 288.221 92.1353 288.221 92.098C288.221 91.986 288.258 91.8927 288.333 91.818C288.407 91.734 288.515 91.692 288.655 91.692C288.739 91.692 288.813 91.72 288.879 91.776C288.953 91.8227 289.009 91.888 289.047 91.972L291.427 97.642L293.821 91.972C293.858 91.888 293.909 91.8227 293.975 91.776C294.049 91.72 294.133 91.6967 294.227 91.706ZM302.773 95.416C302.773 96.116 302.619 96.7507 302.311 97.32C302.003 97.8893 301.578 98.3373 301.037 98.664C300.495 98.9813 299.893 99.14 299.231 99.14C298.568 99.14 297.966 98.9813 297.425 98.664C296.883 98.3373 296.459 97.8893 296.151 97.32C295.843 96.7507 295.689 96.116 295.689 95.416C295.689 94.716 295.843 94.0813 296.151 93.512C296.459 92.9427 296.883 92.4947 297.425 92.168C297.966 91.8413 298.568 91.678 299.231 91.678C299.893 91.678 300.495 91.8413 301.037 92.168C301.578 92.4947 302.003 92.9427 302.311 93.512C302.619 94.0813 302.773 94.716 302.773 95.416ZM301.933 95.416C301.933 94.856 301.816 94.352 301.583 93.904C301.349 93.456 301.023 93.106 300.603 92.854C300.192 92.5927 299.735 92.462 299.231 92.462C298.727 92.462 298.269 92.5927 297.859 92.854C297.448 93.106 297.121 93.456 296.879 93.904C296.645 94.352 296.529 94.856 296.529 95.416C296.529 95.9667 296.645 96.466 296.879 96.914C297.121 97.362 297.448 97.7167 297.859 97.978C298.269 98.23 298.727 98.356 299.231 98.356C299.735 98.356 300.192 98.23 300.603 97.978C301.023 97.726 301.349 97.376 301.583 96.928C301.816 96.48 301.933 95.976 301.933 95.416ZM305.891 92.658V97.348C305.891 97.7027 305.956 97.9453 306.087 98.076C306.217 98.1973 306.39 98.258 306.605 98.258C306.661 98.258 306.731 98.2487 306.815 98.23C306.899 98.202 306.964 98.188 307.011 98.188C307.095 98.188 307.165 98.2253 307.221 98.3C307.286 98.3653 307.319 98.4447 307.319 98.538C307.319 98.6687 307.244 98.7807 307.095 98.874C306.945 98.958 306.768 99 306.563 99C306.311 99 306.087 98.9767 305.891 98.93C305.695 98.8833 305.503 98.7433 305.317 98.51C305.139 98.2767 305.051 97.9033 305.051 97.39V92.658H304.029C303.917 92.658 303.819 92.6207 303.735 92.546C303.66 92.4713 303.623 92.378 303.623 92.266C303.623 92.154 303.66 92.0607 303.735 91.986C303.819 91.9113 303.917 91.874 304.029 91.874H305.051V90.32C305.051 90.1987 305.088 90.1007 305.163 90.026C305.247 89.942 305.349 89.9 305.471 89.9C305.592 89.9 305.69 89.942 305.765 90.026C305.849 90.1007 305.891 90.1987 305.891 90.32V91.874H307.291C307.393 91.874 307.482 91.916 307.557 92C307.641 92.084 307.683 92.1773 307.683 92.28C307.683 92.392 307.645 92.4853 307.571 92.56C307.496 92.6253 307.403 92.658 307.291 92.658H305.891ZM312.581 91.678C312.768 91.678 312.936 91.7153 313.085 91.79C313.234 91.8647 313.309 91.9767 313.309 92.126C313.309 92.2567 313.272 92.364 313.197 92.448C313.122 92.5227 313.034 92.56 312.931 92.56C312.884 92.56 312.791 92.5367 312.651 92.49C312.52 92.4433 312.394 92.42 312.273 92.42C311.928 92.42 311.582 92.5553 311.237 92.826C310.901 93.0873 310.621 93.428 310.397 93.848C310.182 94.268 310.075 94.6927 310.075 95.122V98.58C310.075 98.7013 310.033 98.804 309.949 98.888C309.874 98.9627 309.776 99 309.655 99C309.534 99 309.431 98.9627 309.347 98.888C309.272 98.804 309.235 98.7013 309.235 98.58V92.308C309.235 92.1867 309.272 92.0887 309.347 92.014C309.431 91.93 309.534 91.888 309.655 91.888C309.776 91.888 309.874 91.93 309.949 92.014C310.033 92.0887 310.075 92.1867 310.075 92.308V93.54C310.29 93.008 310.612 92.5693 311.041 92.224C311.48 91.8693 311.993 91.6873 312.581 91.678ZM320.355 95.01C320.355 95.122 320.313 95.22 320.229 95.304C320.145 95.3787 320.047 95.416 319.935 95.416H314.643C314.643 95.976 314.755 96.48 314.979 96.928C315.213 97.3667 315.539 97.7167 315.959 97.978C316.389 98.23 316.893 98.356 317.471 98.356C317.919 98.356 318.321 98.2627 318.675 98.076C319.03 97.8893 319.315 97.6513 319.529 97.362C319.632 97.278 319.73 97.236 319.823 97.236C319.917 97.236 320.001 97.2733 320.075 97.348C320.15 97.4227 320.187 97.5067 320.187 97.6C320.187 97.7027 320.141 97.8007 320.047 97.894C319.749 98.258 319.371 98.5567 318.913 98.79C318.465 99.0233 317.989 99.14 317.485 99.14C316.767 99.14 316.132 98.986 315.581 98.678C315.031 98.37 314.601 97.9407 314.293 97.39C313.985 96.83 313.831 96.186 313.831 95.458C313.831 94.6927 313.981 94.0253 314.279 93.456C314.587 92.8773 314.993 92.4387 315.497 92.14C316.001 91.832 316.538 91.678 317.107 91.678C317.667 91.678 318.19 91.8087 318.675 92.07C319.17 92.3313 319.571 92.714 319.879 93.218C320.187 93.722 320.346 94.3193 320.355 95.01ZM317.107 92.49C316.566 92.49 316.062 92.6767 315.595 93.05C315.138 93.4233 314.844 93.96 314.713 94.66H319.487V94.548C319.441 94.128 319.301 93.764 319.067 93.456C318.834 93.1387 318.54 92.9007 318.185 92.742C317.84 92.574 317.481 92.49 317.107 92.49ZM329.317 91.79C329.933 91.79 330.493 91.9487 330.997 92.266C331.501 92.574 331.893 93.008 332.173 93.568C332.462 94.1187 332.607 94.7393 332.607 95.43C332.607 96.13 332.462 96.76 332.173 97.32C331.893 97.8707 331.501 98.3047 330.997 98.622C330.502 98.9393 329.947 99.098 329.331 99.098C328.789 99.098 328.29 98.972 327.833 98.72C327.385 98.4587 327.025 98.1133 326.755 97.684V101.38C326.755 101.501 326.713 101.599 326.629 101.674C326.554 101.758 326.456 101.8 326.335 101.8C326.213 101.8 326.111 101.758 326.027 101.674C325.952 101.599 325.915 101.501 325.915 101.38V92.252C325.915 92.1307 325.952 92.028 326.027 91.944C326.111 91.86 326.213 91.818 326.335 91.818C326.456 91.818 326.554 91.86 326.629 91.944C326.713 92.028 326.755 92.1307 326.755 92.252V93.204C326.997 92.7653 327.347 92.42 327.805 92.168C328.262 91.916 328.766 91.79 329.317 91.79ZM329.247 98.314C329.732 98.314 330.166 98.1927 330.549 97.95C330.941 97.698 331.244 97.3527 331.459 96.914C331.683 96.4753 331.795 95.9807 331.795 95.43C331.795 94.8887 331.683 94.4033 331.459 93.974C331.244 93.5353 330.941 93.1947 330.549 92.952C330.166 92.7 329.732 92.574 329.247 92.574C328.752 92.574 328.309 92.6953 327.917 92.938C327.525 93.1807 327.221 93.5213 327.007 93.96C326.792 94.3893 326.685 94.8793 326.685 95.43C326.685 95.9807 326.792 96.4753 327.007 96.914C327.221 97.3527 327.525 97.698 327.917 97.95C328.309 98.1927 328.752 98.314 329.247 98.314ZM337.682 91.678C337.869 91.678 338.037 91.7153 338.186 91.79C338.336 91.8647 338.41 91.9767 338.41 92.126C338.41 92.2567 338.373 92.364 338.298 92.448C338.224 92.5227 338.135 92.56 338.032 92.56C337.986 92.56 337.892 92.5367 337.752 92.49C337.622 92.4433 337.496 92.42 337.374 92.42C337.029 92.42 336.684 92.5553 336.338 92.826C336.002 93.0873 335.722 93.428 335.498 93.848C335.284 94.268 335.176 94.6927 335.176 95.122V98.58C335.176 98.7013 335.134 98.804 335.05 98.888C334.976 98.9627 334.878 99 334.756 99C334.635 99 334.532 98.9627 334.448 98.888C334.374 98.804 334.336 98.7013 334.336 98.58V92.308C334.336 92.1867 334.374 92.0887 334.448 92.014C334.532 91.93 334.635 91.888 334.756 91.888C334.878 91.888 334.976 91.93 335.05 92.014C335.134 92.0887 335.176 92.1867 335.176 92.308V93.54C335.391 93.008 335.713 92.5693 336.142 92.224C336.581 91.8693 337.094 91.6873 337.682 91.678ZM346.017 95.416C346.017 96.116 345.863 96.7507 345.555 97.32C345.247 97.8893 344.822 98.3373 344.281 98.664C343.739 98.9813 343.137 99.14 342.475 99.14C341.812 99.14 341.21 98.9813 340.669 98.664C340.127 98.3373 339.703 97.8893 339.395 97.32C339.087 96.7507 338.933 96.116 338.933 95.416C338.933 94.716 339.087 94.0813 339.395 93.512C339.703 92.9427 340.127 92.4947 340.669 92.168C341.21 91.8413 341.812 91.678 342.475 91.678C343.137 91.678 343.739 91.8413 344.281 92.168C344.822 92.4947 345.247 92.9427 345.555 93.512C345.863 94.0813 346.017 94.716 346.017 95.416ZM345.177 95.416C345.177 94.856 345.06 94.352 344.827 93.904C344.593 93.456 344.267 93.106 343.847 92.854C343.436 92.5927 342.979 92.462 342.475 92.462C341.971 92.462 341.513 92.5927 341.103 92.854C340.692 93.106 340.365 93.456 340.123 93.904C339.889 94.352 339.773 94.856 339.773 95.416C339.773 95.9667 339.889 96.466 340.123 96.914C340.365 97.362 340.692 97.7167 341.103 97.978C341.513 98.23 341.971 98.356 342.475 98.356C342.979 98.356 343.436 98.23 343.847 97.978C344.267 97.726 344.593 97.376 344.827 96.928C345.06 96.48 345.177 95.976 345.177 95.416ZM350.227 89.438C349.928 89.438 349.695 89.536 349.527 89.732C349.368 89.928 349.289 90.1987 349.289 90.544V91.986H350.857C350.96 91.986 351.048 92.0233 351.123 92.098C351.207 92.1727 351.249 92.266 351.249 92.378C351.249 92.49 351.207 92.5833 351.123 92.658C351.048 92.7327 350.96 92.77 350.857 92.77H349.289V98.58C349.289 98.7013 349.247 98.804 349.163 98.888C349.088 98.9627 348.99 99 348.869 99C348.748 99 348.645 98.9627 348.561 98.888C348.486 98.804 348.449 98.7013 348.449 98.58V92.77H347.427C347.315 92.77 347.222 92.7327 347.147 92.658C347.072 92.574 347.035 92.4807 347.035 92.378C347.035 92.2567 347.072 92.1633 347.147 92.098C347.222 92.0233 347.315 91.986 347.427 91.986H348.449V90.544C348.449 89.956 348.617 89.5033 348.953 89.186C349.298 88.8593 349.756 88.696 350.325 88.696C350.586 88.696 350.829 88.738 351.053 88.822C351.277 88.8967 351.389 89.0227 351.389 89.2C351.389 89.312 351.352 89.4053 351.277 89.48C351.202 89.5547 351.118 89.592 351.025 89.592C350.941 89.592 350.838 89.5687 350.717 89.522C350.512 89.466 350.348 89.438 350.227 89.438ZM353.489 98.58C353.489 98.7013 353.447 98.804 353.363 98.888C353.288 98.9627 353.19 99 353.069 99C352.948 99 352.845 98.9627 352.761 98.888C352.686 98.804 352.649 98.7013 352.649 98.58V92.14C352.649 92.0187 352.686 91.9207 352.761 91.846C352.845 91.762 352.948 91.72 353.069 91.72C353.19 91.72 353.288 91.762 353.363 91.846C353.447 91.9207 353.489 92.0187 353.489 92.14V98.58ZM353.069 90.782C352.882 90.782 352.738 90.74 352.635 90.656C352.532 90.5627 352.481 90.432 352.481 90.264V90.124C352.481 89.956 352.532 89.83 352.635 89.746C352.747 89.6527 352.896 89.606 353.083 89.606C353.456 89.606 353.643 89.7787 353.643 90.124V90.264C353.643 90.432 353.592 90.5627 353.489 90.656C353.396 90.74 353.256 90.782 353.069 90.782ZM356.602 98.58C356.602 98.7013 356.56 98.804 356.476 98.888C356.402 98.9627 356.304 99 356.182 99C356.061 99 355.958 98.9627 355.874 98.888C355.8 98.804 355.762 98.7013 355.762 98.58V89.06C355.762 88.9387 355.8 88.8407 355.874 88.766C355.958 88.682 356.061 88.64 356.182 88.64C356.304 88.64 356.402 88.682 356.476 88.766C356.56 88.8407 356.602 88.9387 356.602 89.06V98.58Z" fill="#9997B1"/>
<defs>
<linearGradient id="paint0_linear" x1="88" y1="23" x2="222.603" y2="97.2412" gradientUnits="userSpaceOnUse">
<stop stop-color="#8F68FC"/>
<stop offset="1" stop-color="#292984"/>
</linearGradient>
</defs>
</svg>
