<svg width="153" height="14" viewBox="0 0 153 14" fill="none" xmlns="http://www.w3.org/2000/svg">
<path d="M1.548 10.314C1.548 10.51 1.478 10.6733 1.338 10.804C1.198 10.9347 1.03467 11 0.848 11C0.642667 11 0.474667 10.9347 0.344 10.804C0.222667 10.6733 0.162 10.51 0.162 10.314V1.872C0.162 1.68533 0.227333 1.52667 0.358 1.396C0.488667 1.26533 0.656667 1.2 0.862 1.2C1.04867 1.2 1.20733 1.26533 1.338 1.396C1.478 1.52667 1.548 1.68533 1.548 1.872V10.314ZM7.43708 3.496C9.11708 3.496 9.95708 4.504 9.95708 6.52V10.328C9.95708 10.5147 9.89174 10.6733 9.76108 10.804C9.63975 10.9347 9.48108 11 9.28508 11C9.09841 11 8.93975 10.9347 8.80908 10.804C8.68774 10.6733 8.62708 10.5147 8.62708 10.328V6.534C8.62708 5.98333 8.50108 5.54467 8.24908 5.218C7.99708 4.89133 7.58641 4.728 7.01708 4.728C6.64374 4.728 6.30308 4.812 5.99508 4.98C5.69641 5.13867 5.45841 5.358 5.28108 5.638C5.11308 5.90867 5.02908 6.20733 5.02908 6.534V10.328C5.02908 10.5147 4.96374 10.6733 4.83308 10.804C4.71174 10.9347 4.55308 11 4.35708 11C4.16108 11 4.00241 10.9393 3.88108 10.818C3.75974 10.6873 3.69908 10.524 3.69908 10.328V4.336C3.69908 4.14933 3.75974 3.99067 3.88108 3.86C4.01174 3.72933 4.17041 3.664 4.35708 3.664C4.55308 3.664 4.71174 3.72933 4.83308 3.86C4.96374 3.99067 5.02908 4.14933 5.02908 4.336V4.826C5.27174 4.45267 5.60774 4.14 6.03708 3.888C6.47575 3.62667 6.94241 3.496 7.43708 3.496ZM15.0792 1.844C14.7712 1.844 14.5426 1.93733 14.3932 2.124C14.2532 2.31067 14.1832 2.53933 14.1832 2.81V3.79H15.5692C15.7559 3.79 15.9052 3.85067 16.0172 3.972C16.1386 4.084 16.1992 4.22867 16.1992 4.406C16.1992 4.58333 16.1386 4.728 16.0172 4.84C15.9052 4.952 15.7559 5.008 15.5692 5.008H14.1832V10.328C14.1832 10.5147 14.1179 10.6733 13.9872 10.804C13.8659 10.9347 13.7072 11 13.5112 11C13.3246 11 13.1659 10.9347 13.0352 10.804C12.9139 10.6733 12.8532 10.5147 12.8532 10.328V5.008H11.9852C11.8079 5.008 11.6586 4.952 11.5372 4.84C11.4159 4.728 11.3552 4.58333 11.3552 4.406C11.3552 4.22867 11.4159 4.084 11.5372 3.972C11.6586 3.85067 11.8079 3.79 11.9852 3.79H12.8532V2.81C12.8532 2.15667 13.0632 1.63867 13.4832 1.256C13.9032 0.863999 14.4959 0.668 15.2612 0.668C15.5786 0.668 15.8586 0.728666 16.1012 0.85C16.3439 0.961999 16.4652 1.13467 16.4652 1.368C16.4652 1.54533 16.4092 1.69467 16.2972 1.816C16.1946 1.928 16.0686 1.984 15.9192 1.984C15.8819 1.984 15.7792 1.96533 15.6112 1.928C15.4059 1.872 15.2286 1.844 15.0792 1.844ZM24.3423 7.332C24.3423 8.06 24.179 8.71333 23.8523 9.292C23.5256 9.87067 23.0776 10.3233 22.5083 10.65C21.9483 10.9767 21.3276 11.14 20.6463 11.14C19.965 11.14 19.3396 10.9767 18.7703 10.65C18.2103 10.3233 17.767 9.87067 17.4403 9.292C17.1136 8.71333 16.9503 8.06 16.9503 7.332C16.9503 6.604 17.1136 5.946 17.4403 5.358C17.767 4.77 18.2103 4.31267 18.7703 3.986C19.3396 3.65933 19.965 3.496 20.6463 3.496C21.3276 3.496 21.9483 3.65933 22.5083 3.986C23.0776 4.31267 23.5256 4.77 23.8523 5.358C24.179 5.946 24.3423 6.604 24.3423 7.332ZM23.0123 7.332C23.0123 6.828 22.905 6.38 22.6903 5.988C22.485 5.58667 22.2003 5.27867 21.8363 5.064C21.4816 4.84 21.085 4.728 20.6463 4.728C20.2076 4.728 19.8063 4.84 19.4423 5.064C19.0876 5.27867 18.803 5.58667 18.5883 5.988C18.383 6.38 18.2803 6.828 18.2803 7.332C18.2803 7.82667 18.383 8.27 18.5883 8.662C18.803 9.054 19.0876 9.362 19.4423 9.586C19.8063 9.80067 20.2076 9.908 20.6463 9.908C21.085 9.908 21.4816 9.80067 21.8363 9.586C22.2003 9.362 22.485 9.054 22.6903 8.662C22.905 8.27 23.0123 7.82667 23.0123 7.332ZM29.5425 3.496C29.7852 3.496 29.9952 3.56133 30.1725 3.692C30.3499 3.81333 30.4385 3.96733 30.4385 4.154C30.4385 4.378 30.3779 4.55067 30.2565 4.672C30.1445 4.784 30.0045 4.84 29.8365 4.84C29.7525 4.84 29.6265 4.812 29.4585 4.756C29.2625 4.69067 29.1085 4.658 28.9965 4.658C28.7072 4.658 28.4225 4.76067 28.1425 4.966C27.8719 5.162 27.6479 5.43733 27.4705 5.792C27.3025 6.13733 27.2185 6.52467 27.2185 6.954V10.328C27.2185 10.5147 27.1532 10.6733 27.0225 10.804C26.9012 10.9347 26.7425 11 26.5465 11C26.3505 11 26.1919 10.9393 26.0705 10.818C25.9492 10.6873 25.8885 10.524 25.8885 10.328V4.336C25.8885 4.14933 25.9492 3.99067 26.0705 3.86C26.2012 3.72933 26.3599 3.664 26.5465 3.664C26.7425 3.664 26.9012 3.72933 27.0225 3.86C27.1532 3.99067 27.2185 4.14933 27.2185 4.336V5.05C27.4239 4.59267 27.7319 4.224 28.1425 3.944C28.5532 3.65467 29.0199 3.50533 29.5425 3.496ZM40.0857 3.538C41.7191 3.538 42.5357 4.55533 42.5357 6.59V10.328C42.5357 10.524 42.4751 10.6873 42.3537 10.818C42.2324 10.9393 42.0737 11 41.8777 11C41.6817 11 41.5184 10.9347 41.3877 10.804C41.2664 10.6733 41.2057 10.5147 41.2057 10.328V6.604C41.2057 5.38133 40.6924 4.77 39.6657 4.77C39.3017 4.77 38.9704 4.854 38.6717 5.022C38.3824 5.18067 38.1537 5.4 37.9857 5.68C37.8271 5.96 37.7477 6.268 37.7477 6.604V10.328C37.7477 10.5147 37.6824 10.6733 37.5517 10.804C37.4304 10.9347 37.2717 11 37.0757 11C36.8797 11 36.7211 10.9393 36.5997 10.818C36.4784 10.6873 36.4177 10.524 36.4177 10.328V6.59C36.4177 6.03933 36.3011 5.60067 36.0677 5.274C35.8344 4.938 35.4471 4.77 34.9057 4.77C34.3551 4.77 33.8977 4.94733 33.5337 5.302C33.1791 5.64733 33.0017 6.07667 33.0017 6.59V10.328C33.0017 10.5147 32.9364 10.6733 32.8057 10.804C32.6844 10.9347 32.5257 11 32.3297 11C32.1337 11 31.9751 10.9393 31.8537 10.818C31.7324 10.6873 31.6717 10.524 31.6717 10.328V4.336C31.6717 4.14933 31.7324 3.99067 31.8537 3.86C31.9844 3.72933 32.1431 3.664 32.3297 3.664C32.5257 3.664 32.6844 3.72933 32.8057 3.86C32.9364 3.99067 33.0017 4.14933 33.0017 4.336V4.826C33.2444 4.462 33.5664 4.15867 33.9677 3.916C34.3784 3.664 34.8217 3.538 35.2977 3.538C36.4551 3.538 37.2064 4.05133 37.5517 5.078C37.7571 4.686 38.0977 4.33133 38.5737 4.014C39.0497 3.69667 39.5537 3.538 40.0857 3.538ZM50.4733 3.566C50.6693 3.566 50.828 3.63133 50.9493 3.762C51.08 3.88333 51.1453 4.04667 51.1453 4.252V10.328C51.1453 10.5147 51.08 10.6733 50.9493 10.804C50.828 10.9347 50.6693 11 50.4733 11C50.2773 11 50.1186 10.9393 49.9973 10.818C49.876 10.6873 49.8153 10.524 49.8153 10.328V9.964C49.5726 10.2907 49.2413 10.5707 48.8213 10.804C48.4013 11.028 47.9486 11.14 47.4633 11.14C46.8286 11.14 46.25 10.9767 45.7273 10.65C45.214 10.3233 44.808 9.87067 44.5093 9.292C44.22 8.704 44.0753 8.046 44.0753 7.318C44.0753 6.59 44.22 5.93667 44.5093 5.358C44.808 4.77 45.214 4.31267 45.7273 3.986C46.2406 3.65933 46.8053 3.496 47.4213 3.496C47.916 3.496 48.3733 3.59867 48.7933 3.804C49.2226 4.00933 49.5633 4.27067 49.8153 4.588V4.252C49.8153 4.056 49.876 3.89267 49.9973 3.762C50.1186 3.63133 50.2773 3.566 50.4733 3.566ZM47.6173 9.908C48.056 9.908 48.4433 9.796 48.7793 9.572C49.1246 9.348 49.3906 9.04 49.5773 8.648C49.7733 8.256 49.8713 7.81267 49.8713 7.318C49.8713 6.83267 49.7733 6.394 49.5773 6.002C49.3906 5.61 49.1246 5.302 48.7793 5.078C48.4433 4.84467 48.056 4.728 47.6173 4.728C47.1786 4.728 46.7866 4.84 46.4413 5.064C46.1053 5.288 45.8393 5.596 45.6433 5.988C45.4566 6.38 45.3633 6.82333 45.3633 7.318C45.3633 7.81267 45.4566 8.256 45.6433 8.648C45.8393 9.04 46.1053 9.348 46.4413 9.572C46.7866 9.796 47.1786 9.908 47.6173 9.908ZM55.1109 4.966V9.138C55.1109 9.60467 55.3209 9.838 55.7409 9.838C55.8062 9.838 55.8949 9.824 56.0069 9.796C56.1189 9.75867 56.2076 9.74 56.2729 9.74C56.3942 9.74 56.4969 9.79133 56.5809 9.894C56.6649 9.99667 56.7069 10.1273 56.7069 10.286C56.7069 10.482 56.5949 10.65 56.3709 10.79C56.1469 10.93 55.8949 11 55.6149 11C55.3069 11 55.0222 10.9673 54.7609 10.902C54.5089 10.8367 54.2802 10.6733 54.0749 10.412C53.8789 10.1413 53.7809 9.73533 53.7809 9.194V4.966H52.9689C52.7916 4.966 52.6422 4.91 52.5209 4.798C52.4089 4.67667 52.3529 4.52733 52.3529 4.35C52.3529 4.17267 52.4089 4.028 52.5209 3.916C52.6422 3.804 52.7916 3.748 52.9689 3.748H53.7809V2.572C53.7809 2.38533 53.8416 2.22667 53.9629 2.096C54.0936 1.96533 54.2569 1.9 54.4529 1.9C54.6396 1.9 54.7936 1.96533 54.9149 2.096C55.0456 2.22667 55.1109 2.38533 55.1109 2.572V3.748H56.2729C56.4502 3.748 56.5949 3.80867 56.7069 3.93C56.8282 4.042 56.8889 4.18667 56.8889 4.364C56.8889 4.54133 56.8282 4.686 56.7069 4.798C56.5949 4.91 56.4502 4.966 56.2729 4.966H55.1109ZM59.7013 10.328C59.7013 10.5147 59.6359 10.6733 59.5053 10.804C59.3839 10.9347 59.2253 11 59.0293 11C58.8426 11 58.6839 10.9347 58.5533 10.804C58.4319 10.6733 58.3713 10.5147 58.3713 10.328V4.266C58.3713 4.07933 58.4319 3.92067 58.5533 3.79C58.6839 3.65933 58.8426 3.594 59.0293 3.594C59.2253 3.594 59.3839 3.65933 59.5053 3.79C59.6359 3.92067 59.7013 4.07933 59.7013 4.266V10.328ZM59.0293 2.67C58.7586 2.67 58.5626 2.62333 58.4413 2.53C58.3293 2.42733 58.2733 2.26867 58.2733 2.054V1.83C58.2733 1.606 58.3339 1.44733 58.4553 1.354C58.5859 1.26067 58.7819 1.214 59.0433 1.214C59.3046 1.214 59.4913 1.26533 59.6033 1.368C59.7246 1.46133 59.7853 1.61533 59.7853 1.83V2.054C59.7853 2.278 59.7246 2.43667 59.6033 2.53C59.4819 2.62333 59.2906 2.67 59.0293 2.67ZM68.5571 7.332C68.5571 8.06 68.3938 8.71333 68.0671 9.292C67.7405 9.87067 67.2925 10.3233 66.7231 10.65C66.1631 10.9767 65.5425 11.14 64.8611 11.14C64.1798 11.14 63.5545 10.9767 62.9851 10.65C62.4251 10.3233 61.9818 9.87067 61.6551 9.292C61.3285 8.71333 61.1651 8.06 61.1651 7.332C61.1651 6.604 61.3285 5.946 61.6551 5.358C61.9818 4.77 62.4251 4.31267 62.9851 3.986C63.5545 3.65933 64.1798 3.496 64.8611 3.496C65.5425 3.496 66.1631 3.65933 66.7231 3.986C67.2925 4.31267 67.7405 4.77 68.0671 5.358C68.3938 5.946 68.5571 6.604 68.5571 7.332ZM67.2271 7.332C67.2271 6.828 67.1198 6.38 66.9051 5.988C66.6998 5.58667 66.4151 5.27867 66.0511 5.064C65.6965 4.84 65.2998 4.728 64.8611 4.728C64.4225 4.728 64.0211 4.84 63.6571 5.064C63.3025 5.27867 63.0178 5.58667 62.8031 5.988C62.5978 6.38 62.4951 6.828 62.4951 7.332C62.4951 7.82667 62.5978 8.27 62.8031 8.662C63.0178 9.054 63.3025 9.362 63.6571 9.586C64.0211 9.80067 64.4225 9.908 64.8611 9.908C65.2998 9.908 65.6965 9.80067 66.0511 9.586C66.4151 9.362 66.6998 9.054 66.9051 8.662C67.1198 8.27 67.2271 7.82667 67.2271 7.332ZM73.8414 3.496C75.5214 3.496 76.3614 4.504 76.3614 6.52V10.328C76.3614 10.5147 76.296 10.6733 76.1654 10.804C76.044 10.9347 75.8854 11 75.6894 11C75.5027 11 75.344 10.9347 75.2134 10.804C75.092 10.6733 75.0314 10.5147 75.0314 10.328V6.534C75.0314 5.98333 74.9054 5.54467 74.6534 5.218C74.4014 4.89133 73.9907 4.728 73.4214 4.728C73.048 4.728 72.7074 4.812 72.3994 4.98C72.1007 5.13867 71.8627 5.358 71.6854 5.638C71.5174 5.90867 71.4334 6.20733 71.4334 6.534V10.328C71.4334 10.5147 71.368 10.6733 71.2374 10.804C71.116 10.9347 70.9574 11 70.7614 11C70.5654 11 70.4067 10.9393 70.2854 10.818C70.164 10.6873 70.1034 10.524 70.1034 10.328V4.336C70.1034 4.14933 70.164 3.99067 70.2854 3.86C70.416 3.72933 70.5747 3.664 70.7614 3.664C70.9574 3.664 71.116 3.72933 71.2374 3.86C71.368 3.99067 71.4334 4.14933 71.4334 4.336V4.826C71.676 4.45267 72.012 4.14 72.4414 3.888C72.88 3.62667 73.3467 3.496 73.8414 3.496ZM77.9275 9.852C77.8435 9.72133 77.8015 9.59533 77.8015 9.474C77.8015 9.28733 77.8995 9.12867 78.0955 8.998C78.1888 8.93267 78.2962 8.9 78.4175 8.9C78.5855 8.9 78.7395 8.97 78.8795 9.11C79.1595 9.42733 79.4582 9.66533 79.7755 9.824C80.1022 9.98267 80.4895 10.062 80.9375 10.062C81.2922 10.0527 81.6048 9.97333 81.8755 9.824C82.1462 9.66533 82.2815 9.41333 82.2815 9.068C82.2815 8.75067 82.1415 8.508 81.8615 8.34C81.5908 8.172 81.1895 8.018 80.6575 7.878C80.1348 7.738 79.7008 7.59333 79.3555 7.444C79.0102 7.28533 78.7162 7.06133 78.4735 6.772C78.2402 6.47333 78.1235 6.086 78.1235 5.61C78.1235 5.19 78.2402 4.82133 78.4735 4.504C78.7162 4.18667 79.0335 3.93933 79.4255 3.762C79.8268 3.58467 80.2608 3.496 80.7275 3.496C81.1755 3.496 81.6188 3.58 82.0575 3.748C82.5055 3.916 82.8695 4.17267 83.1495 4.518C83.2615 4.64867 83.3175 4.784 83.3175 4.924C83.3175 5.07333 83.2428 5.218 83.0935 5.358C83.0002 5.442 82.8835 5.484 82.7435 5.484C82.5755 5.484 82.4402 5.428 82.3375 5.316C82.1415 5.092 81.8988 4.91933 81.6095 4.798C81.3295 4.67667 81.0168 4.616 80.6715 4.616C80.3168 4.616 80.0135 4.69067 79.7615 4.84C79.5188 4.98 79.3975 5.22267 79.3975 5.568C79.4068 5.89467 79.5468 6.13733 79.8175 6.296C80.0975 6.45467 80.5222 6.60867 81.0915 6.758C81.5862 6.88867 81.9968 7.02867 82.3235 7.178C82.6502 7.32733 82.9255 7.55133 83.1495 7.85C83.3735 8.13933 83.4855 8.522 83.4855 8.998C83.4855 9.43667 83.3595 9.81933 83.1075 10.146C82.8555 10.4633 82.5242 10.7107 82.1135 10.888C81.7122 11.056 81.2828 11.14 80.8255 11.14C80.2375 11.14 79.6915 11.0373 79.1875 10.832C78.6928 10.6267 78.2728 10.3 77.9275 9.852ZM95.0342 3.566C95.2302 3.566 95.3889 3.63133 95.5102 3.762C95.6409 3.88333 95.7062 4.04667 95.7062 4.252V10.412C95.7062 11.168 95.5429 11.798 95.2162 12.302C94.8989 12.8153 94.4649 13.1933 93.9142 13.436C93.3635 13.6787 92.7429 13.8 92.0522 13.8C91.6789 13.8 91.2402 13.7347 90.7362 13.604C90.2415 13.4733 89.9242 13.338 89.7842 13.198C89.4949 13.0487 89.3502 12.862 89.3502 12.638C89.3502 12.582 89.3689 12.5073 89.4062 12.414C89.5089 12.1807 89.6815 12.064 89.9242 12.064C90.0455 12.064 90.1762 12.092 90.3162 12.148C91.0629 12.4373 91.6462 12.582 92.0662 12.582C92.8129 12.582 93.3822 12.4 93.7742 12.036C94.1755 11.6813 94.3762 11.1913 94.3762 10.566V9.81C94.1802 10.174 93.8489 10.4867 93.3822 10.748C92.9249 11.0093 92.4395 11.14 91.9262 11.14C91.2822 11.14 90.6942 10.9767 90.1622 10.65C89.6302 10.3233 89.2102 9.87067 88.9022 9.292C88.6035 8.704 88.4542 8.046 88.4542 7.318C88.4542 6.59 88.6035 5.93667 88.9022 5.358C89.2102 4.77 89.6255 4.31267 90.1482 3.986C90.6802 3.65933 91.2635 3.496 91.8982 3.496C92.4115 3.496 92.8875 3.61267 93.3262 3.846C93.7742 4.07933 94.1242 4.364 94.3762 4.7V4.252C94.3762 4.056 94.4369 3.89267 94.5582 3.762C94.6795 3.63133 94.8382 3.566 95.0342 3.566ZM92.0802 9.908C92.5375 9.908 92.9435 9.80067 93.2982 9.586C93.6529 9.362 93.9282 9.054 94.1242 8.662C94.3295 8.26067 94.4322 7.81267 94.4322 7.318C94.4322 6.82333 94.3295 6.38 94.1242 5.988C93.9282 5.596 93.6529 5.288 93.2982 5.064C92.9435 4.84 92.5375 4.728 92.0802 4.728C91.6322 4.728 91.2309 4.84 90.8762 5.064C90.5215 5.288 90.2415 5.60067 90.0362 6.002C89.8402 6.394 89.7422 6.83267 89.7422 7.318C89.7422 7.80333 89.8402 8.24667 90.0362 8.648C90.2415 9.04 90.5215 9.348 90.8762 9.572C91.2309 9.796 91.6322 9.908 92.0802 9.908ZM103.846 7.052C103.837 7.22 103.767 7.36467 103.636 7.486C103.505 7.598 103.351 7.654 103.174 7.654H98.2461C98.3114 8.33533 98.5681 8.88133 99.0161 9.292C99.4734 9.70267 100.029 9.908 100.682 9.908C101.13 9.908 101.494 9.84267 101.774 9.712C102.054 9.58133 102.301 9.41333 102.516 9.208C102.656 9.124 102.791 9.082 102.922 9.082C103.081 9.082 103.211 9.138 103.314 9.25C103.426 9.362 103.482 9.49267 103.482 9.642C103.482 9.838 103.389 10.0153 103.202 10.174C102.931 10.4447 102.572 10.6733 102.124 10.86C101.676 11.0467 101.219 11.14 100.752 11.14C99.9961 11.14 99.3288 10.9813 98.7501 10.664C98.1808 10.3467 97.7374 9.90333 97.4201 9.334C97.1121 8.76467 96.9581 8.12067 96.9581 7.402C96.9581 6.618 97.1168 5.932 97.4341 5.344C97.7608 4.74667 98.1854 4.28933 98.7081 3.972C99.2401 3.65467 99.8094 3.496 100.416 3.496C101.013 3.496 101.573 3.65 102.096 3.958C102.619 4.266 103.039 4.69067 103.356 5.232C103.673 5.77333 103.837 6.38 103.846 7.052ZM100.416 4.728C99.8934 4.728 99.4408 4.87733 99.0581 5.176C98.6754 5.46533 98.4234 5.918 98.3021 6.534H102.432V6.422C102.385 5.92733 102.161 5.52133 101.76 5.204C101.368 4.88667 100.92 4.728 100.416 4.728ZM100.374 3.146C100.299 3.146 100.22 3.11333 100.136 3.048C100.052 2.98267 100.015 2.894 100.024 2.782C100.024 2.70733 100.052 2.62333 100.108 2.53L100.934 1.144C101.009 1.01333 101.097 0.905999 101.2 0.821999C101.312 0.737999 101.438 0.695999 101.578 0.695999C101.783 0.695999 101.937 0.751999 102.04 0.863999C102.152 0.966666 102.203 1.10667 102.194 1.284C102.194 1.452 102.124 1.61533 101.984 1.774L100.934 2.922C100.785 3.07133 100.598 3.146 100.374 3.146ZM109.128 3.496C110.808 3.496 111.648 4.504 111.648 6.52V10.328C111.648 10.5147 111.583 10.6733 111.452 10.804C111.331 10.9347 111.172 11 110.976 11C110.79 11 110.631 10.9347 110.5 10.804C110.379 10.6733 110.318 10.5147 110.318 10.328V6.534C110.318 5.98333 110.192 5.54467 109.94 5.218C109.688 4.89133 109.278 4.728 108.708 4.728C108.335 4.728 107.994 4.812 107.686 4.98C107.388 5.13867 107.15 5.358 106.972 5.638C106.804 5.90867 106.72 6.20733 106.72 6.534V10.328C106.72 10.5147 106.655 10.6733 106.524 10.804C106.403 10.9347 106.244 11 106.048 11C105.852 11 105.694 10.9393 105.572 10.818C105.451 10.6873 105.39 10.524 105.39 10.328V4.336C105.39 4.14933 105.451 3.99067 105.572 3.86C105.703 3.72933 105.862 3.664 106.048 3.664C106.244 3.664 106.403 3.72933 106.524 3.86C106.655 3.99067 106.72 4.14933 106.72 4.336V4.826C106.963 4.45267 107.299 4.14 107.728 3.888C108.167 3.62667 108.634 3.496 109.128 3.496ZM120.075 7.052C120.065 7.22 119.995 7.36467 119.865 7.486C119.734 7.598 119.58 7.654 119.403 7.654H114.475C114.54 8.33533 114.797 8.88133 115.245 9.292C115.702 9.70267 116.257 9.908 116.911 9.908C117.359 9.908 117.723 9.84267 118.003 9.712C118.283 9.58133 118.53 9.41333 118.745 9.208C118.885 9.124 119.02 9.082 119.151 9.082C119.309 9.082 119.44 9.138 119.543 9.25C119.655 9.362 119.711 9.49267 119.711 9.642C119.711 9.838 119.617 10.0153 119.431 10.174C119.16 10.4447 118.801 10.6733 118.353 10.86C117.905 11.0467 117.447 11.14 116.981 11.14C116.225 11.14 115.557 10.9813 114.979 10.664C114.409 10.3467 113.966 9.90333 113.649 9.334C113.341 8.76467 113.187 8.12067 113.187 7.402C113.187 6.618 113.345 5.932 113.663 5.344C113.989 4.74667 114.414 4.28933 114.937 3.972C115.469 3.65467 116.038 3.496 116.645 3.496C117.242 3.496 117.802 3.65 118.325 3.958C118.847 4.266 119.267 4.69067 119.585 5.232C119.902 5.77333 120.065 6.38 120.075 7.052ZM116.645 4.728C116.122 4.728 115.669 4.87733 115.287 5.176C114.904 5.46533 114.652 5.918 114.531 6.534H118.661V6.422C118.614 5.92733 118.39 5.52133 117.989 5.204C117.597 4.88667 117.149 4.728 116.645 4.728ZM116.603 3.146C116.528 3.146 116.449 3.11333 116.365 3.048C116.281 2.98267 116.243 2.894 116.253 2.782C116.253 2.70733 116.281 2.62333 116.337 2.53L117.163 1.144C117.237 1.01333 117.326 0.905999 117.429 0.821999C117.541 0.737999 117.667 0.695999 117.807 0.695999C118.012 0.695999 118.166 0.751999 118.269 0.863999C118.381 0.966666 118.432 1.10667 118.423 1.284C118.423 1.452 118.353 1.61533 118.213 1.774L117.163 2.922C117.013 3.07133 116.827 3.146 116.603 3.146ZM125.273 3.496C125.516 3.496 125.726 3.56133 125.903 3.692C126.08 3.81333 126.169 3.96733 126.169 4.154C126.169 4.378 126.108 4.55067 125.987 4.672C125.875 4.784 125.735 4.84 125.567 4.84C125.483 4.84 125.357 4.812 125.189 4.756C124.993 4.69067 124.839 4.658 124.727 4.658C124.438 4.658 124.153 4.76067 123.873 4.966C123.602 5.162 123.378 5.43733 123.201 5.792C123.033 6.13733 122.949 6.52467 122.949 6.954V10.328C122.949 10.5147 122.884 10.6733 122.753 10.804C122.632 10.9347 122.473 11 122.277 11C122.081 11 121.922 10.9393 121.801 10.818C121.68 10.6873 121.619 10.524 121.619 10.328V4.336C121.619 4.14933 121.68 3.99067 121.801 3.86C121.932 3.72933 122.09 3.664 122.277 3.664C122.473 3.664 122.632 3.72933 122.753 3.86C122.884 3.99067 122.949 4.14933 122.949 4.336V5.05C123.154 4.59267 123.462 4.224 123.873 3.944C124.284 3.65467 124.75 3.50533 125.273 3.496ZM133.188 3.566C133.384 3.566 133.543 3.63133 133.664 3.762C133.795 3.88333 133.86 4.04667 133.86 4.252V10.328C133.86 10.5147 133.795 10.6733 133.664 10.804C133.543 10.9347 133.384 11 133.188 11C132.992 11 132.833 10.9393 132.712 10.818C132.591 10.6873 132.53 10.524 132.53 10.328V9.964C132.287 10.2907 131.956 10.5707 131.536 10.804C131.116 11.028 130.663 11.14 130.178 11.14C129.543 11.14 128.965 10.9767 128.442 10.65C127.929 10.3233 127.523 9.87067 127.224 9.292C126.935 8.704 126.79 8.046 126.79 7.318C126.79 6.59 126.935 5.93667 127.224 5.358C127.523 4.77 127.929 4.31267 128.442 3.986C128.955 3.65933 129.52 3.496 130.136 3.496C130.631 3.496 131.088 3.59867 131.508 3.804C131.937 4.00933 132.278 4.27067 132.53 4.588V4.252C132.53 4.056 132.591 3.89267 132.712 3.762C132.833 3.63133 132.992 3.566 133.188 3.566ZM130.332 9.908C130.771 9.908 131.158 9.796 131.494 9.572C131.839 9.348 132.105 9.04 132.292 8.648C132.488 8.256 132.586 7.81267 132.586 7.318C132.586 6.83267 132.488 6.394 132.292 6.002C132.105 5.61 131.839 5.302 131.494 5.078C131.158 4.84467 130.771 4.728 130.332 4.728C129.893 4.728 129.501 4.84 129.156 5.064C128.82 5.288 128.554 5.596 128.358 5.988C128.171 6.38 128.078 6.82333 128.078 7.318C128.078 7.81267 128.171 8.256 128.358 8.648C128.554 9.04 128.82 9.348 129.156 9.572C129.501 9.796 129.893 9.908 130.332 9.908ZM137.28 10.328C137.28 10.5147 137.214 10.6733 137.084 10.804C136.953 10.9347 136.794 11 136.608 11C136.421 11 136.262 10.9347 136.132 10.804C136.01 10.6733 135.95 10.5147 135.95 10.328V1.312C135.95 1.12533 136.015 0.966666 136.146 0.836C136.276 0.705333 136.435 0.64 136.622 0.64C136.808 0.64 136.962 0.705333 137.084 0.836C137.214 0.966666 137.28 1.12533 137.28 1.312V10.328ZM145.682 7.052C145.673 7.22 145.603 7.36467 145.472 7.486C145.341 7.598 145.187 7.654 145.01 7.654H140.082C140.147 8.33533 140.404 8.88133 140.852 9.292C141.309 9.70267 141.865 9.908 142.518 9.908C142.966 9.908 143.33 9.84267 143.61 9.712C143.89 9.58133 144.137 9.41333 144.352 9.208C144.492 9.124 144.627 9.082 144.758 9.082C144.917 9.082 145.047 9.138 145.15 9.25C145.262 9.362 145.318 9.49267 145.318 9.642C145.318 9.838 145.225 10.0153 145.038 10.174C144.767 10.4447 144.408 10.6733 143.96 10.86C143.512 11.0467 143.055 11.14 142.588 11.14C141.832 11.14 141.165 10.9813 140.586 10.664C140.017 10.3467 139.573 9.90333 139.256 9.334C138.948 8.76467 138.794 8.12067 138.794 7.402C138.794 6.618 138.953 5.932 139.27 5.344C139.597 4.74667 140.021 4.28933 140.544 3.972C141.076 3.65467 141.645 3.496 142.252 3.496C142.849 3.496 143.409 3.65 143.932 3.958C144.455 4.266 144.875 4.69067 145.192 5.232C145.509 5.77333 145.673 6.38 145.682 7.052ZM142.252 4.728C141.729 4.728 141.277 4.87733 140.894 5.176C140.511 5.46533 140.259 5.918 140.138 6.534H144.268V6.422C144.221 5.92733 143.997 5.52133 143.596 5.204C143.204 4.88667 142.756 4.728 142.252 4.728ZM146.806 9.852C146.722 9.72133 146.68 9.59533 146.68 9.474C146.68 9.28733 146.778 9.12867 146.974 8.998C147.068 8.93267 147.175 8.9 147.296 8.9C147.464 8.9 147.618 8.97 147.758 9.11C148.038 9.42733 148.337 9.66533 148.654 9.824C148.981 9.98267 149.368 10.062 149.816 10.062C150.171 10.0527 150.484 9.97333 150.754 9.824C151.025 9.66533 151.16 9.41333 151.16 9.068C151.16 8.75067 151.02 8.508 150.74 8.34C150.47 8.172 150.068 8.018 149.536 7.878C149.014 7.738 148.58 7.59333 148.234 7.444C147.889 7.28533 147.595 7.06133 147.352 6.772C147.119 6.47333 147.002 6.086 147.002 5.61C147.002 5.19 147.119 4.82133 147.352 4.504C147.595 4.18667 147.912 3.93933 148.304 3.762C148.706 3.58467 149.14 3.496 149.606 3.496C150.054 3.496 150.498 3.58 150.936 3.748C151.384 3.916 151.748 4.17267 152.028 4.518C152.14 4.64867 152.196 4.784 152.196 4.924C152.196 5.07333 152.122 5.218 151.972 5.358C151.879 5.442 151.762 5.484 151.622 5.484C151.454 5.484 151.319 5.428 151.216 5.316C151.02 5.092 150.778 4.91933 150.488 4.798C150.208 4.67667 149.896 4.616 149.55 4.616C149.196 4.616 148.892 4.69067 148.64 4.84C148.398 4.98 148.276 5.22267 148.276 5.568C148.286 5.89467 148.426 6.13733 148.696 6.296C148.976 6.45467 149.401 6.60867 149.97 6.758C150.465 6.88867 150.876 7.02867 151.202 7.178C151.529 7.32733 151.804 7.55133 152.028 7.85C152.252 8.13933 152.364 8.522 152.364 8.998C152.364 9.43667 152.238 9.81933 151.986 10.146C151.734 10.4633 151.403 10.7107 150.992 10.888C150.591 11.056 150.162 11.14 149.704 11.14C149.116 11.14 148.57 11.0373 148.066 10.832C147.572 10.6267 147.152 10.3 146.806 9.852Z" fill="#8F8DA6"/>
</svg>
