<svg width="272" height="12" viewBox="0 0 272 12" fill="none" xmlns="http://www.w3.org/2000/svg">
<path opacity="0.5" d="M4.082 1.2C4.57667 1.2 5.034 1.33533 5.454 1.606C5.874 1.86733 6.20533 2.22667 6.448 2.684C6.7 3.14133 6.826 3.64533 6.826 4.196C6.826 4.74667 6.7 5.25533 6.448 5.722C6.20533 6.18867 5.874 6.55733 5.454 6.828C5.034 7.09867 4.57667 7.234 4.082 7.234H1.45V10.328C1.45 10.5147 1.38933 10.6733 1.268 10.804C1.14667 10.9347 0.992667 11 0.806 11C0.61 11 0.451333 10.9393 0.33 10.818C0.218 10.6873 0.162 10.524 0.162 10.328V1.872C0.162 1.68533 0.227333 1.52667 0.358 1.396C0.488667 1.26533 0.647333 1.2 0.834 1.2H4.082ZM4.082 5.96C4.334 5.96 4.56733 5.88067 4.782 5.722C4.99667 5.554 5.16467 5.33467 5.286 5.064C5.41667 4.79333 5.482 4.504 5.482 4.196C5.482 3.72 5.342 3.31867 5.062 2.992C4.79133 2.656 4.46467 2.488 4.082 2.488H1.45V5.96H4.082ZM12.0425 3.496C12.2852 3.496 12.4952 3.56133 12.6725 3.692C12.8499 3.81333 12.9385 3.96733 12.9385 4.154C12.9385 4.378 12.8779 4.55067 12.7565 4.672C12.6445 4.784 12.5045 4.84 12.3365 4.84C12.2525 4.84 12.1265 4.812 11.9585 4.756C11.7625 4.69067 11.6085 4.658 11.4965 4.658C11.2072 4.658 10.9225 4.76067 10.6425 4.966C10.3719 5.162 10.1479 5.43733 9.97053 5.792C9.80253 6.13733 9.71853 6.52467 9.71853 6.954V10.328C9.71853 10.5147 9.6532 10.6733 9.52253 10.804C9.4012 10.9347 9.24253 11 9.04653 11C8.85053 11 8.69186 10.9393 8.57053 10.818C8.4492 10.6873 8.38853 10.524 8.38853 10.328V4.336C8.38853 4.14933 8.4492 3.99067 8.57053 3.86C8.7012 3.72933 8.85986 3.664 9.04653 3.664C9.24253 3.664 9.4012 3.72933 9.52253 3.86C9.6532 3.99067 9.71853 4.14933 9.71853 4.336V5.05C9.92386 4.59267 10.2319 4.224 10.6425 3.944C11.0532 3.65467 11.5199 3.50533 12.0425 3.496ZM20.8013 7.332C20.8013 8.06 20.6379 8.71333 20.3113 9.292C19.9846 9.87067 19.5366 10.3233 18.9673 10.65C18.4073 10.9767 17.7866 11.14 17.1053 11.14C16.4239 11.14 15.7986 10.9767 15.2293 10.65C14.6693 10.3233 14.2259 9.87067 13.8993 9.292C13.5726 8.71333 13.4093 8.06 13.4093 7.332C13.4093 6.604 13.5726 5.946 13.8993 5.358C14.2259 4.77 14.6693 4.31267 15.2293 3.986C15.7986 3.65933 16.4239 3.496 17.1053 3.496C17.7866 3.496 18.4073 3.65933 18.9673 3.986C19.5366 4.31267 19.9846 4.77 20.3113 5.358C20.6379 5.946 20.8013 6.604 20.8013 7.332ZM19.4713 7.332C19.4713 6.828 19.3639 6.38 19.1493 5.988C18.9439 5.58667 18.6593 5.27867 18.2953 5.064C17.9406 4.84 17.5439 4.728 17.1053 4.728C16.6666 4.728 16.2653 4.84 15.9013 5.064C15.5466 5.27867 15.2619 5.58667 15.0473 5.988C14.8419 6.38 14.7393 6.828 14.7393 7.332C14.7393 7.82667 14.8419 8.27 15.0473 8.662C15.2619 9.054 15.5466 9.362 15.9013 9.586C16.2653 9.80067 16.6666 9.908 17.1053 9.908C17.5439 9.908 17.9406 9.80067 18.2953 9.586C18.6593 9.362 18.9439 9.054 19.1493 8.662C19.3639 8.27 19.4713 7.82667 19.4713 7.332ZM25.4835 1.844C25.1755 1.844 24.9468 1.93733 24.7975 2.124C24.6575 2.31067 24.5875 2.53933 24.5875 2.81V3.79H25.9735C26.1602 3.79 26.3095 3.85067 26.4215 3.972C26.5428 4.084 26.6035 4.22867 26.6035 4.406C26.6035 4.58333 26.5428 4.728 26.4215 4.84C26.3095 4.952 26.1602 5.008 25.9735 5.008H24.5875V10.328C24.5875 10.5147 24.5222 10.6733 24.3915 10.804C24.2702 10.9347 24.1115 11 23.9155 11C23.7288 11 23.5702 10.9347 23.4395 10.804C23.3182 10.6733 23.2575 10.5147 23.2575 10.328V5.008H22.3895C22.2122 5.008 22.0628 4.952 21.9415 4.84C21.8202 4.728 21.7595 4.58333 21.7595 4.406C21.7595 4.22867 21.8202 4.084 21.9415 3.972C22.0628 3.85067 22.2122 3.79 22.3895 3.79H23.2575V2.81C23.2575 2.15667 23.4675 1.63867 23.8875 1.256C24.3075 0.863999 24.9002 0.668 25.6655 0.668C25.9828 0.668 26.2628 0.728666 26.5055 0.85C26.7482 0.961999 26.8695 1.13467 26.8695 1.368C26.8695 1.54533 26.8135 1.69467 26.7015 1.816C26.5988 1.928 26.4728 1.984 26.3235 1.984C26.2862 1.984 26.1835 1.96533 26.0155 1.928C25.8102 1.872 25.6328 1.844 25.4835 1.844ZM34.2426 7.052C34.2333 7.22 34.1633 7.36467 34.0326 7.486C33.9019 7.598 33.7479 7.654 33.5706 7.654H28.6426C28.7079 8.33533 28.9646 8.88133 29.4126 9.292C29.8699 9.70267 30.4253 9.908 31.0786 9.908C31.5266 9.908 31.8906 9.84267 32.1706 9.712C32.4506 9.58133 32.6979 9.41333 32.9126 9.208C33.0526 9.124 33.1879 9.082 33.3186 9.082C33.4773 9.082 33.6079 9.138 33.7106 9.25C33.8226 9.362 33.8786 9.49267 33.8786 9.642C33.8786 9.838 33.7853 10.0153 33.5986 10.174C33.3279 10.4447 32.9686 10.6733 32.5206 10.86C32.0726 11.0467 31.6153 11.14 31.1486 11.14C30.3926 11.14 29.7253 10.9813 29.1466 10.664C28.5773 10.3467 28.1339 9.90333 27.8166 9.334C27.5086 8.76467 27.3546 8.12067 27.3546 7.402C27.3546 6.618 27.5133 5.932 27.8306 5.344C28.1573 4.74667 28.5819 4.28933 29.1046 3.972C29.6366 3.65467 30.2059 3.496 30.8126 3.496C31.4099 3.496 31.9699 3.65 32.4926 3.958C33.0153 4.266 33.4353 4.69067 33.7526 5.232C34.0699 5.77333 34.2333 6.38 34.2426 7.052ZM30.8126 4.728C30.2899 4.728 29.8373 4.87733 29.4546 5.176C29.0719 5.46533 28.8199 5.918 28.6986 6.534H32.8286V6.422C32.7819 5.92733 32.5579 5.52133 32.1566 5.204C31.7646 4.88667 31.3166 4.728 30.8126 4.728ZM35.367 9.852C35.283 9.72133 35.241 9.59533 35.241 9.474C35.241 9.28733 35.339 9.12867 35.535 8.998C35.6283 8.93267 35.7356 8.9 35.857 8.9C36.025 8.9 36.179 8.97 36.319 9.11C36.599 9.42733 36.8976 9.66533 37.215 9.824C37.5416 9.98267 37.929 10.062 38.377 10.062C38.7316 10.0527 39.0443 9.97333 39.315 9.824C39.5856 9.66533 39.721 9.41333 39.721 9.068C39.721 8.75067 39.581 8.508 39.301 8.34C39.0303 8.172 38.629 8.018 38.097 7.878C37.5743 7.738 37.1403 7.59333 36.795 7.444C36.4496 7.28533 36.1556 7.06133 35.913 6.772C35.6796 6.47333 35.563 6.086 35.563 5.61C35.563 5.19 35.6796 4.82133 35.913 4.504C36.1556 4.18667 36.473 3.93933 36.865 3.762C37.2663 3.58467 37.7003 3.496 38.167 3.496C38.615 3.496 39.0583 3.58 39.497 3.748C39.945 3.916 40.309 4.17267 40.589 4.518C40.701 4.64867 40.757 4.784 40.757 4.924C40.757 5.07333 40.6823 5.218 40.533 5.358C40.4396 5.442 40.323 5.484 40.183 5.484C40.015 5.484 39.8796 5.428 39.777 5.316C39.581 5.092 39.3383 4.91933 39.049 4.798C38.769 4.67667 38.4563 4.616 38.111 4.616C37.7563 4.616 37.453 4.69067 37.201 4.84C36.9583 4.98 36.837 5.22267 36.837 5.568C36.8463 5.89467 36.9863 6.13733 37.257 6.296C37.537 6.45467 37.9616 6.60867 38.531 6.758C39.0256 6.88867 39.4363 7.02867 39.763 7.178C40.0896 7.32733 40.365 7.55133 40.589 7.85C40.813 8.13933 40.925 8.522 40.925 8.998C40.925 9.43667 40.799 9.81933 40.547 10.146C40.295 10.4633 39.9636 10.7107 39.553 10.888C39.1516 11.056 38.7223 11.14 38.265 11.14C37.677 11.14 37.131 11.0373 36.627 10.832C36.1323 10.6267 35.7123 10.3 35.367 9.852ZM42.0388 9.852C41.9548 9.72133 41.9128 9.59533 41.9128 9.474C41.9128 9.28733 42.0108 9.12867 42.2068 8.998C42.3002 8.93267 42.4075 8.9 42.5288 8.9C42.6968 8.9 42.8508 8.97 42.9908 9.11C43.2708 9.42733 43.5695 9.66533 43.8868 9.824C44.2135 9.98267 44.6008 10.062 45.0488 10.062C45.4035 10.0527 45.7162 9.97333 45.9868 9.824C46.2575 9.66533 46.3928 9.41333 46.3928 9.068C46.3928 8.75067 46.2528 8.508 45.9728 8.34C45.7022 8.172 45.3008 8.018 44.7688 7.878C44.2462 7.738 43.8122 7.59333 43.4668 7.444C43.1215 7.28533 42.8275 7.06133 42.5848 6.772C42.3515 6.47333 42.2348 6.086 42.2348 5.61C42.2348 5.19 42.3515 4.82133 42.5848 4.504C42.8275 4.18667 43.1448 3.93933 43.5368 3.762C43.9382 3.58467 44.3722 3.496 44.8388 3.496C45.2868 3.496 45.7302 3.58 46.1688 3.748C46.6168 3.916 46.9808 4.17267 47.2608 4.518C47.3728 4.64867 47.4288 4.784 47.4288 4.924C47.4288 5.07333 47.3542 5.218 47.2048 5.358C47.1115 5.442 46.9948 5.484 46.8548 5.484C46.6868 5.484 46.5515 5.428 46.4488 5.316C46.2528 5.092 46.0102 4.91933 45.7208 4.798C45.4408 4.67667 45.1282 4.616 44.7828 4.616C44.4282 4.616 44.1248 4.69067 43.8728 4.84C43.6302 4.98 43.5088 5.22267 43.5088 5.568C43.5182 5.89467 43.6582 6.13733 43.9288 6.296C44.2088 6.45467 44.6335 6.60867 45.2028 6.758C45.6975 6.88867 46.1082 7.02867 46.4348 7.178C46.7615 7.32733 47.0368 7.55133 47.2608 7.85C47.4848 8.13933 47.5968 8.522 47.5968 8.998C47.5968 9.43667 47.4708 9.81933 47.2188 10.146C46.9668 10.4633 46.6355 10.7107 46.2248 10.888C45.8235 11.056 45.3942 11.14 44.9368 11.14C44.3488 11.14 43.8028 11.0373 43.2988 10.832C42.8042 10.6267 42.3842 10.3 42.0388 9.852ZM50.3907 10.328C50.3907 10.5147 50.3254 10.6733 50.1947 10.804C50.0734 10.9347 49.9147 11 49.7187 11C49.5321 11 49.3734 10.9347 49.2427 10.804C49.1214 10.6733 49.0607 10.5147 49.0607 10.328V4.266C49.0607 4.07933 49.1214 3.92067 49.2427 3.79C49.3734 3.65933 49.5321 3.594 49.7187 3.594C49.9147 3.594 50.0734 3.65933 50.1947 3.79C50.3254 3.92067 50.3907 4.07933 50.3907 4.266V10.328ZM49.7187 2.67C49.4481 2.67 49.2521 2.62333 49.1307 2.53C49.0187 2.42733 48.9627 2.26867 48.9627 2.054V1.83C48.9627 1.606 49.0234 1.44733 49.1447 1.354C49.2754 1.26067 49.4714 1.214 49.7327 1.214C49.9941 1.214 50.1807 1.26533 50.2927 1.368C50.4141 1.46133 50.4747 1.61533 50.4747 1.83V2.054C50.4747 2.278 50.4141 2.43667 50.2927 2.53C50.1714 2.62333 49.9801 2.67 49.7187 2.67ZM59.2466 7.332C59.2466 8.06 59.0833 8.71333 58.7566 9.292C58.4299 9.87067 57.9819 10.3233 57.4126 10.65C56.8526 10.9767 56.2319 11.14 55.5506 11.14C54.8693 11.14 54.2439 10.9767 53.6746 10.65C53.1146 10.3233 52.6713 9.87067 52.3446 9.292C52.0179 8.71333 51.8546 8.06 51.8546 7.332C51.8546 6.604 52.0179 5.946 52.3446 5.358C52.6713 4.77 53.1146 4.31267 53.6746 3.986C54.2439 3.65933 54.8693 3.496 55.5506 3.496C56.2319 3.496 56.8526 3.65933 57.4126 3.986C57.9819 4.31267 58.4299 4.77 58.7566 5.358C59.0833 5.946 59.2466 6.604 59.2466 7.332ZM57.9166 7.332C57.9166 6.828 57.8093 6.38 57.5946 5.988C57.3893 5.58667 57.1046 5.27867 56.7406 5.064C56.3859 4.84 55.9893 4.728 55.5506 4.728C55.1119 4.728 54.7106 4.84 54.3466 5.064C53.9919 5.27867 53.7073 5.58667 53.4926 5.988C53.2873 6.38 53.1846 6.828 53.1846 7.332C53.1846 7.82667 53.2873 8.27 53.4926 8.662C53.7073 9.054 53.9919 9.362 54.3466 9.586C54.7106 9.80067 55.1119 9.908 55.5506 9.908C55.9893 9.908 56.3859 9.80067 56.7406 9.586C57.1046 9.362 57.3893 9.054 57.5946 8.662C57.8093 8.27 57.9166 7.82667 57.9166 7.332ZM64.5308 3.496C66.2108 3.496 67.0508 4.504 67.0508 6.52V10.328C67.0508 10.5147 66.9855 10.6733 66.8548 10.804C66.7335 10.9347 66.5748 11 66.3788 11C66.1922 11 66.0335 10.9347 65.9028 10.804C65.7815 10.6733 65.7208 10.5147 65.7208 10.328V6.534C65.7208 5.98333 65.5948 5.54467 65.3428 5.218C65.0908 4.89133 64.6802 4.728 64.1108 4.728C63.7375 4.728 63.3968 4.812 63.0888 4.98C62.7902 5.13867 62.5522 5.358 62.3748 5.638C62.2068 5.90867 62.1228 6.20733 62.1228 6.534V10.328C62.1228 10.5147 62.0575 10.6733 61.9268 10.804C61.8055 10.9347 61.6468 11 61.4508 11C61.2548 11 61.0962 10.9393 60.9748 10.818C60.8535 10.6873 60.7928 10.524 60.7928 10.328V4.336C60.7928 4.14933 60.8535 3.99067 60.9748 3.86C61.1055 3.72933 61.2642 3.664 61.4508 3.664C61.6468 3.664 61.8055 3.72933 61.9268 3.86C62.0575 3.99067 62.1228 4.14933 62.1228 4.336V4.826C62.3655 4.45267 62.7015 4.14 63.1308 3.888C63.5695 3.62667 64.0362 3.496 64.5308 3.496ZM68.617 9.852C68.533 9.72133 68.491 9.59533 68.491 9.474C68.491 9.28733 68.589 9.12867 68.785 8.998C68.8783 8.93267 68.9856 8.9 69.107 8.9C69.275 8.9 69.429 8.97 69.569 9.11C69.849 9.42733 70.1476 9.66533 70.465 9.824C70.7916 9.98267 71.179 10.062 71.627 10.062C71.9816 10.0527 72.2943 9.97333 72.565 9.824C72.8356 9.66533 72.971 9.41333 72.971 9.068C72.971 8.75067 72.831 8.508 72.551 8.34C72.2803 8.172 71.879 8.018 71.347 7.878C70.8243 7.738 70.3903 7.59333 70.045 7.444C69.6996 7.28533 69.4056 7.06133 69.163 6.772C68.9296 6.47333 68.813 6.086 68.813 5.61C68.813 5.19 68.9296 4.82133 69.163 4.504C69.4056 4.18667 69.723 3.93933 70.115 3.762C70.5163 3.58467 70.9503 3.496 71.417 3.496C71.865 3.496 72.3083 3.58 72.747 3.748C73.195 3.916 73.559 4.17267 73.839 4.518C73.951 4.64867 74.007 4.784 74.007 4.924C74.007 5.07333 73.9323 5.218 73.783 5.358C73.6896 5.442 73.573 5.484 73.433 5.484C73.265 5.484 73.1296 5.428 73.027 5.316C72.831 5.092 72.5883 4.91933 72.299 4.798C72.019 4.67667 71.7063 4.616 71.361 4.616C71.0063 4.616 70.703 4.69067 70.451 4.84C70.2083 4.98 70.087 5.22267 70.087 5.568C70.0963 5.89467 70.2363 6.13733 70.507 6.296C70.787 6.45467 71.2116 6.60867 71.781 6.758C72.2756 6.88867 72.6863 7.02867 73.013 7.178C73.3396 7.32733 73.615 7.55133 73.839 7.85C74.063 8.13933 74.175 8.522 74.175 8.998C74.175 9.43667 74.049 9.81933 73.797 10.146C73.545 10.4633 73.2136 10.7107 72.803 10.888C72.4016 11.056 71.9723 11.14 71.515 11.14C70.927 11.14 70.381 11.0373 69.877 10.832C69.3823 10.6267 68.9623 10.3 68.617 9.852ZM85.5417 3.566C85.7377 3.566 85.8963 3.63133 86.0177 3.762C86.1483 3.88333 86.2137 4.04667 86.2137 4.252V10.328C86.2137 10.5147 86.1483 10.6733 86.0177 10.804C85.8963 10.9347 85.7377 11 85.5417 11C85.3457 11 85.187 10.9393 85.0657 10.818C84.9443 10.6873 84.8837 10.524 84.8837 10.328V9.964C84.641 10.2907 84.3097 10.5707 83.8897 10.804C83.4697 11.028 83.017 11.14 82.5317 11.14C81.897 11.14 81.3183 10.9767 80.7957 10.65C80.2823 10.3233 79.8763 9.87067 79.5777 9.292C79.2883 8.704 79.1437 8.046 79.1437 7.318C79.1437 6.59 79.2883 5.93667 79.5777 5.358C79.8763 4.77 80.2823 4.31267 80.7957 3.986C81.309 3.65933 81.8737 3.496 82.4897 3.496C82.9843 3.496 83.4417 3.59867 83.8617 3.804C84.291 4.00933 84.6317 4.27067 84.8837 4.588V4.252C84.8837 4.056 84.9443 3.89267 85.0657 3.762C85.187 3.63133 85.3457 3.566 85.5417 3.566ZM82.6857 9.908C83.1243 9.908 83.5117 9.796 83.8477 9.572C84.193 9.348 84.459 9.04 84.6457 8.648C84.8417 8.256 84.9397 7.81267 84.9397 7.318C84.9397 6.83267 84.8417 6.394 84.6457 6.002C84.459 5.61 84.193 5.302 83.8477 5.078C83.5117 4.84467 83.1243 4.728 82.6857 4.728C82.247 4.728 81.855 4.84 81.5097 5.064C81.1737 5.288 80.9077 5.596 80.7117 5.988C80.525 6.38 80.4317 6.82333 80.4317 7.318C80.4317 7.81267 80.525 8.256 80.7117 8.648C80.9077 9.04 81.1737 9.348 81.5097 9.572C81.855 9.796 82.247 9.908 82.6857 9.908ZM82.7977 3.09C82.723 3.09 82.611 3.05267 82.4617 2.978L81.1877 2.11C80.9357 1.97 80.8097 1.77867 80.8097 1.536C80.8097 1.368 80.8703 1.23267 80.9917 1.13C81.1223 1.018 81.2623 0.962 81.4117 0.962C81.617 0.962 81.813 1.05533 81.9997 1.242L83.0917 2.376C83.1943 2.47867 83.2457 2.586 83.2457 2.698C83.2457 2.81933 83.2037 2.91733 83.1197 2.992C83.0357 3.05733 82.9283 3.09 82.7977 3.09ZM98.5141 7.052C98.5047 7.22 98.4347 7.36467 98.3041 7.486C98.1734 7.598 98.0194 7.654 97.8421 7.654H92.9141C92.9794 8.33533 93.2361 8.88133 93.6841 9.292C94.1414 9.70267 94.6967 9.908 95.3501 9.908C95.7981 9.908 96.1621 9.84267 96.4421 9.712C96.7221 9.58133 96.9694 9.41333 97.1841 9.208C97.3241 9.124 97.4594 9.082 97.5901 9.082C97.7487 9.082 97.8794 9.138 97.9821 9.25C98.0941 9.362 98.1501 9.49267 98.1501 9.642C98.1501 9.838 98.0567 10.0153 97.8701 10.174C97.5994 10.4447 97.2401 10.6733 96.7921 10.86C96.3441 11.0467 95.8867 11.14 95.4201 11.14C94.6641 11.14 93.9967 10.9813 93.4181 10.664C92.8487 10.3467 92.4054 9.90333 92.0881 9.334C91.7801 8.76467 91.6261 8.12067 91.6261 7.402C91.6261 6.618 91.7847 5.932 92.1021 5.344C92.4287 4.74667 92.8534 4.28933 93.3761 3.972C93.9081 3.65467 94.4774 3.496 95.0841 3.496C95.6814 3.496 96.2414 3.65 96.7641 3.958C97.2867 4.266 97.7067 4.69067 98.0241 5.232C98.3414 5.77333 98.5047 6.38 98.5141 7.052ZM95.0841 4.728C94.5614 4.728 94.1087 4.87733 93.7261 5.176C93.3434 5.46533 93.0914 5.918 92.9701 6.534H97.1001V6.422C97.0534 5.92733 96.8294 5.52133 96.4281 5.204C96.0361 4.88667 95.5881 4.728 95.0841 4.728ZM105.351 9.964C105.454 10.076 105.505 10.2067 105.505 10.356C105.505 10.5427 105.435 10.706 105.295 10.846C105.155 10.9767 105.001 11.042 104.833 11.042C104.619 11.042 104.437 10.944 104.287 10.748L102.411 8.382L100.563 10.748C100.498 10.8413 100.419 10.9113 100.325 10.958C100.232 11.0047 100.134 11.028 100.031 11.028C99.8728 11.028 99.7234 10.972 99.5834 10.86C99.4528 10.7387 99.3874 10.5987 99.3874 10.44C99.3874 10.272 99.4388 10.132 99.5414 10.02L101.641 7.402L99.4854 4.686C99.3921 4.56467 99.3454 4.434 99.3454 4.294C99.3454 4.10733 99.4108 3.94867 99.5414 3.818C99.6814 3.68733 99.8401 3.622 100.017 3.622C100.241 3.622 100.423 3.71533 100.563 3.902L102.481 6.324L104.287 3.916C104.427 3.72 104.605 3.622 104.819 3.622C104.997 3.622 105.146 3.68267 105.267 3.804C105.389 3.916 105.449 4.05133 105.449 4.21C105.449 4.38733 105.398 4.532 105.295 4.644L103.223 7.262L105.351 9.964ZM109.95 3.496C110.687 3.496 111.298 3.61267 111.784 3.846C112.278 4.07933 112.526 4.378 112.526 4.742C112.526 4.90067 112.474 5.04533 112.372 5.176C112.269 5.29733 112.138 5.358 111.98 5.358C111.858 5.358 111.76 5.33933 111.686 5.302C111.62 5.26467 111.527 5.204 111.406 5.12C111.35 5.064 111.261 4.99867 111.14 4.924C111.028 4.868 110.869 4.82133 110.664 4.784C110.458 4.74667 110.272 4.728 110.104 4.728C109.618 4.728 109.189 4.84 108.816 5.064C108.442 5.288 108.153 5.60067 107.948 6.002C107.742 6.394 107.64 6.83267 107.64 7.318C107.64 7.81267 107.738 8.256 107.934 8.648C108.139 9.04 108.424 9.348 108.788 9.572C109.152 9.796 109.567 9.908 110.034 9.908C110.519 9.908 110.911 9.83333 111.21 9.684C111.275 9.64667 111.364 9.586 111.476 9.502C111.569 9.42733 111.648 9.37133 111.714 9.334C111.788 9.29667 111.877 9.278 111.98 9.278C112.166 9.278 112.311 9.33867 112.414 9.46C112.526 9.572 112.582 9.72133 112.582 9.908C112.582 10.104 112.456 10.3 112.204 10.496C111.961 10.6827 111.63 10.8367 111.21 10.958C110.799 11.0793 110.356 11.14 109.88 11.14C109.17 11.14 108.545 10.9767 108.004 10.65C107.462 10.314 107.042 9.85667 106.744 9.278C106.454 8.69 106.31 8.03667 106.31 7.318C106.31 6.59933 106.464 5.95067 106.772 5.372C107.08 4.784 107.509 4.32667 108.06 4C108.61 3.664 109.24 3.496 109.95 3.496ZM120.389 7.052C120.38 7.22 120.31 7.36467 120.179 7.486C120.048 7.598 119.894 7.654 119.717 7.654H114.789C114.854 8.33533 115.111 8.88133 115.559 9.292C116.016 9.70267 116.572 9.908 117.225 9.908C117.673 9.908 118.037 9.84267 118.317 9.712C118.597 9.58133 118.844 9.41333 119.059 9.208C119.199 9.124 119.334 9.082 119.465 9.082C119.624 9.082 119.754 9.138 119.857 9.25C119.969 9.362 120.025 9.49267 120.025 9.642C120.025 9.838 119.932 10.0153 119.745 10.174C119.474 10.4447 119.115 10.6733 118.667 10.86C118.219 11.0467 117.762 11.14 117.295 11.14C116.539 11.14 115.872 10.9813 115.293 10.664C114.724 10.3467 114.28 9.90333 113.963 9.334C113.655 8.76467 113.501 8.12067 113.501 7.402C113.501 6.618 113.66 5.932 113.977 5.344C114.304 4.74667 114.728 4.28933 115.251 3.972C115.783 3.65467 116.352 3.496 116.959 3.496C117.556 3.496 118.116 3.65 118.639 3.958C119.162 4.266 119.582 4.69067 119.899 5.232C120.216 5.77333 120.38 6.38 120.389 7.052ZM116.959 4.728C116.436 4.728 115.984 4.87733 115.601 5.176C115.218 5.46533 114.966 5.918 114.845 6.534H118.975V6.422C118.928 5.92733 118.704 5.52133 118.303 5.204C117.911 4.88667 117.463 4.728 116.959 4.728ZM125.587 3.496C125.83 3.496 126.04 3.56133 126.217 3.692C126.395 3.81333 126.483 3.96733 126.483 4.154C126.483 4.378 126.423 4.55067 126.301 4.672C126.189 4.784 126.049 4.84 125.881 4.84C125.797 4.84 125.671 4.812 125.503 4.756C125.307 4.69067 125.153 4.658 125.041 4.658C124.752 4.658 124.467 4.76067 124.187 4.966C123.917 5.162 123.693 5.43733 123.515 5.792C123.347 6.13733 123.263 6.52467 123.263 6.954V10.328C123.263 10.5147 123.198 10.6733 123.067 10.804C122.946 10.9347 122.787 11 122.591 11C122.395 11 122.237 10.9393 122.115 10.818C121.994 10.6873 121.933 10.524 121.933 10.328V4.336C121.933 4.14933 121.994 3.99067 122.115 3.86C122.246 3.72933 122.405 3.664 122.591 3.664C122.787 3.664 122.946 3.72933 123.067 3.86C123.198 3.99067 123.263 4.14933 123.263 4.336V5.05C123.469 4.59267 123.777 4.224 124.187 3.944C124.598 3.65467 125.065 3.50533 125.587 3.496ZM130.594 3.496C131.332 3.496 131.943 3.61267 132.428 3.846C132.923 4.07933 133.17 4.378 133.17 4.742C133.17 4.90067 133.119 5.04533 133.016 5.176C132.914 5.29733 132.783 5.358 132.624 5.358C132.503 5.358 132.405 5.33933 132.33 5.302C132.265 5.26467 132.172 5.204 132.05 5.12C131.994 5.064 131.906 4.99867 131.784 4.924C131.672 4.868 131.514 4.82133 131.308 4.784C131.103 4.74667 130.916 4.728 130.748 4.728C130.263 4.728 129.834 4.84 129.46 5.064C129.087 5.288 128.798 5.60067 128.592 6.002C128.387 6.394 128.284 6.83267 128.284 7.318C128.284 7.81267 128.382 8.256 128.578 8.648C128.784 9.04 129.068 9.348 129.432 9.572C129.796 9.796 130.212 9.908 130.678 9.908C131.164 9.908 131.556 9.83333 131.854 9.684C131.92 9.64667 132.008 9.586 132.12 9.502C132.214 9.42733 132.293 9.37133 132.358 9.334C132.433 9.29667 132.522 9.278 132.624 9.278C132.811 9.278 132.956 9.33867 133.058 9.46C133.17 9.572 133.226 9.72133 133.226 9.908C133.226 10.104 133.1 10.3 132.848 10.496C132.606 10.6827 132.274 10.8367 131.854 10.958C131.444 11.0793 131 11.14 130.524 11.14C129.815 11.14 129.19 10.9767 128.648 10.65C128.107 10.314 127.687 9.85667 127.388 9.278C127.099 8.69 126.954 8.03667 126.954 7.318C126.954 6.59933 127.108 5.95067 127.416 5.372C127.724 4.784 128.154 4.32667 128.704 4C129.255 3.664 129.885 3.496 130.594 3.496ZM141.034 7.052C141.024 7.22 140.954 7.36467 140.824 7.486C140.693 7.598 140.539 7.654 140.362 7.654H135.434C135.499 8.33533 135.756 8.88133 136.204 9.292C136.661 9.70267 137.216 9.908 137.87 9.908C138.318 9.908 138.682 9.84267 138.962 9.712C139.242 9.58133 139.489 9.41333 139.704 9.208C139.844 9.124 139.979 9.082 140.11 9.082C140.268 9.082 140.399 9.138 140.502 9.25C140.614 9.362 140.67 9.49267 140.67 9.642C140.67 9.838 140.576 10.0153 140.39 10.174C140.119 10.4447 139.76 10.6733 139.312 10.86C138.864 11.0467 138.406 11.14 137.94 11.14C137.184 11.14 136.516 10.9813 135.938 10.664C135.368 10.3467 134.925 9.90333 134.608 9.334C134.3 8.76467 134.146 8.12067 134.146 7.402C134.146 6.618 134.304 5.932 134.622 5.344C134.948 4.74667 135.373 4.28933 135.896 3.972C136.428 3.65467 136.997 3.496 137.604 3.496C138.201 3.496 138.761 3.65 139.284 3.958C139.806 4.266 140.226 4.69067 140.544 5.232C140.861 5.77333 141.024 6.38 141.034 7.052ZM137.604 4.728C137.081 4.728 136.628 4.87733 136.246 5.176C135.863 5.46533 135.611 5.918 135.49 6.534H139.62V6.422C139.573 5.92733 139.349 5.52133 138.948 5.204C138.556 4.88667 138.108 4.728 137.604 4.728ZM146.232 3.496C146.475 3.496 146.685 3.56133 146.862 3.692C147.039 3.81333 147.128 3.96733 147.128 4.154C147.128 4.378 147.067 4.55067 146.946 4.672C146.834 4.784 146.694 4.84 146.526 4.84C146.442 4.84 146.316 4.812 146.148 4.756C145.952 4.69067 145.798 4.658 145.686 4.658C145.397 4.658 145.112 4.76067 144.832 4.966C144.561 5.162 144.337 5.43733 144.16 5.792C143.992 6.13733 143.908 6.52467 143.908 6.954V10.328C143.908 10.5147 143.843 10.6733 143.712 10.804C143.591 10.9347 143.432 11 143.236 11C143.04 11 142.881 10.9393 142.76 10.818C142.639 10.6873 142.578 10.524 142.578 10.328V4.336C142.578 4.14933 142.639 3.99067 142.76 3.86C142.891 3.72933 143.049 3.664 143.236 3.664C143.432 3.664 143.591 3.72933 143.712 3.86C143.843 3.99067 143.908 4.14933 143.908 4.336V5.05C144.113 4.59267 144.421 4.224 144.832 3.944C145.243 3.65467 145.709 3.50533 146.232 3.496ZM158.194 3.566C158.39 3.566 158.549 3.63133 158.67 3.762C158.801 3.88333 158.866 4.04667 158.866 4.252V10.328C158.866 10.5147 158.801 10.6733 158.67 10.804C158.549 10.9347 158.39 11 158.194 11C157.998 11 157.839 10.9393 157.718 10.818C157.597 10.6873 157.536 10.524 157.536 10.328V9.964C157.293 10.2907 156.962 10.5707 156.542 10.804C156.122 11.028 155.669 11.14 155.184 11.14C154.549 11.14 153.971 10.9767 153.448 10.65C152.935 10.3233 152.529 9.87067 152.23 9.292C151.941 8.704 151.796 8.046 151.796 7.318C151.796 6.59 151.941 5.93667 152.23 5.358C152.529 4.77 152.935 4.31267 153.448 3.986C153.961 3.65933 154.526 3.496 155.142 3.496C155.637 3.496 156.094 3.59867 156.514 3.804C156.943 4.00933 157.284 4.27067 157.536 4.588V4.252C157.536 4.056 157.597 3.89267 157.718 3.762C157.839 3.63133 157.998 3.566 158.194 3.566ZM155.338 9.908C155.777 9.908 156.164 9.796 156.5 9.572C156.845 9.348 157.111 9.04 157.298 8.648C157.494 8.256 157.592 7.81267 157.592 7.318C157.592 6.83267 157.494 6.394 157.298 6.002C157.111 5.61 156.845 5.302 156.5 5.078C156.164 4.84467 155.777 4.728 155.338 4.728C154.899 4.728 154.507 4.84 154.162 5.064C153.826 5.288 153.56 5.596 153.364 5.988C153.177 6.38 153.084 6.82333 153.084 7.318C153.084 7.81267 153.177 8.256 153.364 8.648C153.56 9.04 153.826 9.348 154.162 9.572C154.507 9.796 154.899 9.908 155.338 9.908ZM166.167 3.664C166.363 3.664 166.522 3.72933 166.643 3.86C166.774 3.99067 166.839 4.14933 166.839 4.336V8.06C166.839 9.03067 166.568 9.78667 166.027 10.328C165.495 10.86 164.739 11.126 163.759 11.126C162.788 11.126 162.037 10.86 161.505 10.328C160.973 9.78667 160.707 9.03067 160.707 8.06V4.336C160.707 4.14933 160.768 3.99067 160.889 3.86C161.02 3.72933 161.178 3.664 161.365 3.664C161.561 3.664 161.72 3.72933 161.841 3.86C161.972 3.99067 162.037 4.14933 162.037 4.336V8.06C162.037 9.28267 162.611 9.894 163.759 9.894C164.328 9.894 164.762 9.74 165.061 9.432C165.36 9.124 165.509 8.66667 165.509 8.06V4.336C165.509 4.14933 165.57 3.99067 165.691 3.86C165.822 3.72933 165.98 3.664 166.167 3.664ZM172.291 9.852C172.207 9.72133 172.165 9.59533 172.165 9.474C172.165 9.28733 172.263 9.12867 172.459 8.998C172.552 8.93267 172.659 8.9 172.781 8.9C172.949 8.9 173.103 8.97 173.243 9.11C173.523 9.42733 173.821 9.66533 174.139 9.824C174.465 9.98267 174.853 10.062 175.301 10.062C175.655 10.0527 175.968 9.97333 176.239 9.824C176.509 9.66533 176.645 9.41333 176.645 9.068C176.645 8.75067 176.505 8.508 176.225 8.34C175.954 8.172 175.553 8.018 175.021 7.878C174.498 7.738 174.064 7.59333 173.719 7.444C173.373 7.28533 173.079 7.06133 172.837 6.772C172.603 6.47333 172.487 6.086 172.487 5.61C172.487 5.19 172.603 4.82133 172.837 4.504C173.079 4.18667 173.397 3.93933 173.789 3.762C174.19 3.58467 174.624 3.496 175.091 3.496C175.539 3.496 175.982 3.58 176.421 3.748C176.869 3.916 177.233 4.17267 177.513 4.518C177.625 4.64867 177.681 4.784 177.681 4.924C177.681 5.07333 177.606 5.218 177.457 5.358C177.363 5.442 177.247 5.484 177.107 5.484C176.939 5.484 176.803 5.428 176.701 5.316C176.505 5.092 176.262 4.91933 175.973 4.798C175.693 4.67667 175.38 4.616 175.035 4.616C174.68 4.616 174.377 4.69067 174.125 4.84C173.882 4.98 173.761 5.22267 173.761 5.568C173.77 5.89467 173.91 6.13733 174.181 6.296C174.461 6.45467 174.885 6.60867 175.455 6.758C175.949 6.88867 176.36 7.02867 176.687 7.178C177.013 7.32733 177.289 7.55133 177.513 7.85C177.737 8.13933 177.849 8.522 177.849 8.998C177.849 9.43667 177.723 9.81933 177.471 10.146C177.219 10.4633 176.887 10.7107 176.477 10.888C176.075 11.056 175.646 11.14 175.189 11.14C174.601 11.14 174.055 11.0373 173.551 10.832C173.056 10.6267 172.636 10.3 172.291 9.852ZM185.823 7.052C185.813 7.22 185.743 7.36467 185.613 7.486C185.482 7.598 185.328 7.654 185.151 7.654H180.223C180.288 8.33533 180.545 8.88133 180.993 9.292C181.45 9.70267 182.005 9.908 182.659 9.908C183.107 9.908 183.471 9.84267 183.751 9.712C184.031 9.58133 184.278 9.41333 184.493 9.208C184.633 9.124 184.768 9.082 184.899 9.082C185.057 9.082 185.188 9.138 185.291 9.25C185.403 9.362 185.459 9.49267 185.459 9.642C185.459 9.838 185.365 10.0153 185.179 10.174C184.908 10.4447 184.549 10.6733 184.101 10.86C183.653 11.0467 183.195 11.14 182.729 11.14C181.973 11.14 181.305 10.9813 180.727 10.664C180.157 10.3467 179.714 9.90333 179.397 9.334C179.089 8.76467 178.935 8.12067 178.935 7.402C178.935 6.618 179.093 5.932 179.411 5.344C179.737 4.74667 180.162 4.28933 180.685 3.972C181.217 3.65467 181.786 3.496 182.393 3.496C182.99 3.496 183.55 3.65 184.073 3.958C184.595 4.266 185.015 4.69067 185.333 5.232C185.65 5.77333 185.813 6.38 185.823 7.052ZM182.393 4.728C181.87 4.728 181.417 4.87733 181.035 5.176C180.652 5.46533 180.4 5.918 180.279 6.534H184.409V6.422C184.362 5.92733 184.138 5.52133 183.737 5.204C183.345 4.88667 182.897 4.728 182.393 4.728ZM188.627 10.328C188.627 10.5147 188.562 10.6733 188.431 10.804C188.31 10.9347 188.151 11 187.955 11C187.768 11 187.61 10.9347 187.479 10.804C187.358 10.6733 187.297 10.5147 187.297 10.328V4.266C187.297 4.07933 187.358 3.92067 187.479 3.79C187.61 3.65933 187.768 3.594 187.955 3.594C188.151 3.594 188.31 3.65933 188.431 3.79C188.562 3.92067 188.627 4.07933 188.627 4.266V10.328ZM187.955 2.67C187.684 2.67 187.488 2.62333 187.367 2.53C187.255 2.42733 187.199 2.26867 187.199 2.054V1.83C187.199 1.606 187.26 1.44733 187.381 1.354C187.512 1.26067 187.708 1.214 187.969 1.214C188.23 1.214 188.417 1.26533 188.529 1.368C188.65 1.46133 188.711 1.61533 188.711 1.83V2.054C188.711 2.278 188.65 2.43667 188.529 2.53C188.408 2.62333 188.216 2.67 187.955 2.67ZM194.277 3.496C195.957 3.496 196.797 4.504 196.797 6.52V10.328C196.797 10.5147 196.732 10.6733 196.601 10.804C196.48 10.9347 196.321 11 196.125 11C195.938 11 195.78 10.9347 195.649 10.804C195.528 10.6733 195.467 10.5147 195.467 10.328V6.534C195.467 5.98333 195.341 5.54467 195.089 5.218C194.837 4.89133 194.426 4.728 193.857 4.728C193.484 4.728 193.143 4.812 192.835 4.98C192.536 5.13867 192.298 5.358 192.121 5.638C191.953 5.90867 191.869 6.20733 191.869 6.534V10.328C191.869 10.5147 191.804 10.6733 191.673 10.804C191.552 10.9347 191.393 11 191.197 11C191.001 11 190.842 10.9393 190.721 10.818C190.6 10.6873 190.539 10.524 190.539 10.328V4.336C190.539 4.14933 190.6 3.99067 190.721 3.86C190.852 3.72933 191.01 3.664 191.197 3.664C191.393 3.664 191.552 3.72933 191.673 3.86C191.804 3.99067 191.869 4.14933 191.869 4.336V4.826C192.112 4.45267 192.448 4.14 192.877 3.888C193.316 3.62667 193.782 3.496 194.277 3.496ZM208.616 0.64C208.812 0.64 208.971 0.705333 209.092 0.836C209.223 0.957333 209.288 1.116 209.288 1.312V10.328C209.288 10.5147 209.223 10.6733 209.092 10.804C208.971 10.9347 208.812 11 208.616 11C208.42 11 208.261 10.9393 208.14 10.818C208.019 10.6873 207.958 10.524 207.958 10.328V9.936C207.725 10.272 207.393 10.5567 206.964 10.79C206.544 11.0233 206.091 11.14 205.606 11.14C204.971 11.14 204.397 10.9767 203.884 10.65C203.371 10.3233 202.965 9.87067 202.666 9.292C202.367 8.704 202.218 8.046 202.218 7.318C202.218 6.59 202.363 5.93667 202.652 5.358C202.951 4.77 203.357 4.31267 203.87 3.986C204.383 3.65933 204.948 3.496 205.564 3.496C206.059 3.496 206.516 3.59867 206.936 3.804C207.356 4.00933 207.697 4.27533 207.958 4.602V1.312C207.958 1.116 208.019 0.957333 208.14 0.836C208.261 0.705333 208.42 0.64 208.616 0.64ZM205.76 9.908C206.199 9.908 206.586 9.796 206.922 9.572C207.267 9.348 207.533 9.04 207.72 8.648C207.916 8.256 208.014 7.81267 208.014 7.318C208.014 6.83267 207.916 6.394 207.72 6.002C207.533 5.60067 207.267 5.288 206.922 5.064C206.586 4.84 206.199 4.728 205.76 4.728C205.321 4.728 204.929 4.84 204.584 5.064C204.248 5.288 203.982 5.60067 203.786 6.002C203.599 6.394 203.506 6.83267 203.506 7.318C203.506 7.81267 203.599 8.256 203.786 8.648C203.982 9.04 204.248 9.348 204.584 9.572C204.929 9.796 205.321 9.908 205.76 9.908ZM216.944 3.664C217.14 3.664 217.299 3.72933 217.42 3.86C217.551 3.99067 217.616 4.14933 217.616 4.336V8.06C217.616 9.03067 217.346 9.78667 216.804 10.328C216.272 10.86 215.516 11.126 214.536 11.126C213.566 11.126 212.814 10.86 212.282 10.328C211.75 9.78667 211.484 9.03067 211.484 8.06V4.336C211.484 4.14933 211.545 3.99067 211.666 3.86C211.797 3.72933 211.956 3.664 212.142 3.664C212.338 3.664 212.497 3.72933 212.618 3.86C212.749 3.99067 212.814 4.14933 212.814 4.336V8.06C212.814 9.28267 213.388 9.894 214.536 9.894C215.106 9.894 215.54 9.74 215.838 9.432C216.137 9.124 216.286 8.66667 216.286 8.06V4.336C216.286 4.14933 216.347 3.99067 216.468 3.86C216.599 3.72933 216.758 3.664 216.944 3.664ZM226.68 3.496C227.417 3.496 228.029 3.61267 228.514 3.846C229.009 4.07933 229.256 4.378 229.256 4.742C229.256 4.90067 229.205 5.04533 229.102 5.176C228.999 5.29733 228.869 5.358 228.71 5.358C228.589 5.358 228.491 5.33933 228.416 5.302C228.351 5.26467 228.257 5.204 228.136 5.12C228.08 5.064 227.991 4.99867 227.87 4.924C227.758 4.868 227.599 4.82133 227.394 4.784C227.189 4.74667 227.002 4.728 226.834 4.728C226.349 4.728 225.919 4.84 225.546 5.064C225.173 5.288 224.883 5.60067 224.678 6.002C224.473 6.394 224.37 6.83267 224.37 7.318C224.37 7.81267 224.468 8.256 224.664 8.648C224.869 9.04 225.154 9.348 225.518 9.572C225.882 9.796 226.297 9.908 226.764 9.908C227.249 9.908 227.641 9.83333 227.94 9.684C228.005 9.64667 228.094 9.586 228.206 9.502C228.299 9.42733 228.379 9.37133 228.444 9.334C228.519 9.29667 228.607 9.278 228.71 9.278C228.897 9.278 229.041 9.33867 229.144 9.46C229.256 9.572 229.312 9.72133 229.312 9.908C229.312 10.104 229.186 10.3 228.934 10.496C228.691 10.6827 228.36 10.8367 227.94 10.958C227.529 11.0793 227.086 11.14 226.61 11.14C225.901 11.14 225.275 10.9767 224.734 10.65C224.193 10.314 223.773 9.85667 223.474 9.278C223.185 8.69 223.04 8.03667 223.04 7.318C223.04 6.59933 223.194 5.95067 223.502 5.372C223.81 4.784 224.239 4.32667 224.79 4C225.341 3.664 225.971 3.496 226.68 3.496ZM236.63 3.566C236.826 3.566 236.984 3.63133 237.106 3.762C237.236 3.88333 237.302 4.04667 237.302 4.252V10.328C237.302 10.5147 237.236 10.6733 237.106 10.804C236.984 10.9347 236.826 11 236.63 11C236.434 11 236.275 10.9393 236.154 10.818C236.032 10.6873 235.972 10.524 235.972 10.328V9.964C235.729 10.2907 235.398 10.5707 234.978 10.804C234.558 11.028 234.105 11.14 233.62 11.14C232.985 11.14 232.406 10.9767 231.884 10.65C231.37 10.3233 230.964 9.87067 230.666 9.292C230.376 8.704 230.232 8.046 230.232 7.318C230.232 6.59 230.376 5.93667 230.666 5.358C230.964 4.77 231.37 4.31267 231.884 3.986C232.397 3.65933 232.962 3.496 233.578 3.496C234.072 3.496 234.53 3.59867 234.95 3.804C235.379 4.00933 235.72 4.27067 235.972 4.588V4.252C235.972 4.056 236.032 3.89267 236.154 3.762C236.275 3.63133 236.434 3.566 236.63 3.566ZM233.774 9.908C234.212 9.908 234.6 9.796 234.936 9.572C235.281 9.348 235.547 9.04 235.734 8.648C235.93 8.256 236.028 7.81267 236.028 7.318C236.028 6.83267 235.93 6.394 235.734 6.002C235.547 5.61 235.281 5.302 234.936 5.078C234.6 4.84467 234.212 4.728 233.774 4.728C233.335 4.728 232.943 4.84 232.598 5.064C232.262 5.288 231.996 5.596 231.8 5.988C231.613 6.38 231.52 6.82333 231.52 7.318C231.52 7.81267 231.613 8.256 231.8 8.648C231.996 9.04 232.262 9.348 232.598 9.572C232.943 9.796 233.335 9.908 233.774 9.908ZM242.961 3.496C243.596 3.496 244.17 3.65933 244.683 3.986C245.196 4.31267 245.598 4.76533 245.887 5.344C246.186 5.92267 246.335 6.576 246.335 7.304C246.335 8.032 246.186 8.69 245.887 9.278C245.598 9.866 245.196 10.3233 244.683 10.65C244.17 10.9767 243.605 11.14 242.989 11.14C242.504 11.14 242.051 11.0327 241.631 10.818C241.211 10.6033 240.87 10.3373 240.609 10.02V10.426C240.609 10.6127 240.544 10.7713 240.413 10.902C240.292 11.0327 240.133 11.098 239.937 11.098C239.75 11.098 239.592 11.0373 239.461 10.916C239.34 10.7853 239.279 10.622 239.279 10.426V1.312C239.279 1.116 239.34 0.957333 239.461 0.836C239.582 0.705333 239.741 0.64 239.937 0.64C240.133 0.64 240.292 0.705333 240.413 0.836C240.544 0.966666 240.609 1.12533 240.609 1.312V4.728C240.833 4.392 241.16 4.10267 241.589 3.86C242.018 3.61733 242.476 3.496 242.961 3.496ZM242.807 9.908C243.236 9.908 243.624 9.796 243.969 9.572C244.314 9.33867 244.58 9.026 244.767 8.634C244.963 8.23267 245.061 7.78933 245.061 7.304C245.061 6.81867 244.963 6.38 244.767 5.988C244.58 5.596 244.314 5.288 243.969 5.064C243.624 4.84 243.236 4.728 242.807 4.728C242.368 4.728 241.976 4.84 241.631 5.064C241.286 5.288 241.015 5.596 240.819 5.988C240.632 6.37067 240.539 6.80933 240.539 7.304C240.539 7.79867 240.632 8.242 240.819 8.634C241.015 9.026 241.286 9.33867 241.631 9.572C241.976 9.796 242.368 9.908 242.807 9.908ZM249.139 10.328C249.139 10.5147 249.073 10.6733 248.943 10.804C248.821 10.9347 248.663 11 248.467 11C248.28 11 248.121 10.9347 247.991 10.804C247.869 10.6733 247.809 10.5147 247.809 10.328V4.266C247.809 4.07933 247.869 3.92067 247.991 3.79C248.121 3.65933 248.28 3.594 248.467 3.594C248.663 3.594 248.821 3.65933 248.943 3.79C249.073 3.92067 249.139 4.07933 249.139 4.266V10.328ZM248.467 2.67C248.196 2.67 248 2.62333 247.879 2.53C247.767 2.42733 247.711 2.26867 247.711 2.054V1.83C247.711 1.606 247.771 1.44733 247.893 1.354C248.023 1.26067 248.219 1.214 248.481 1.214C248.742 1.214 248.929 1.26533 249.041 1.368C249.162 1.46133 249.223 1.61533 249.223 1.83V2.054C249.223 2.278 249.162 2.43667 249.041 2.53C248.919 2.62333 248.728 2.67 248.467 2.67ZM254.789 3.496C256.469 3.496 257.309 4.504 257.309 6.52V10.328C257.309 10.5147 257.243 10.6733 257.113 10.804C256.991 10.9347 256.833 11 256.637 11C256.45 11 256.291 10.9347 256.161 10.804C256.039 10.6733 255.979 10.5147 255.979 10.328V6.534C255.979 5.98333 255.853 5.54467 255.601 5.218C255.349 4.89133 254.938 4.728 254.369 4.728C253.995 4.728 253.655 4.812 253.347 4.98C253.048 5.13867 252.81 5.358 252.633 5.638C252.465 5.90867 252.381 6.20733 252.381 6.534V10.328C252.381 10.5147 252.315 10.6733 252.185 10.804C252.063 10.9347 251.905 11 251.709 11C251.513 11 251.354 10.9393 251.233 10.818C251.111 10.6873 251.051 10.524 251.051 10.328V4.336C251.051 4.14933 251.111 3.99067 251.233 3.86C251.363 3.72933 251.522 3.664 251.709 3.664C251.905 3.664 252.063 3.72933 252.185 3.86C252.315 3.99067 252.381 4.14933 252.381 4.336V4.826C252.623 4.45267 252.959 4.14 253.389 3.888C253.827 3.62667 254.294 3.496 254.789 3.496ZM265.735 7.052C265.725 7.22 265.655 7.36467 265.525 7.486C265.394 7.598 265.24 7.654 265.063 7.654H260.135C260.2 8.33533 260.457 8.88133 260.905 9.292C261.362 9.70267 261.917 9.908 262.571 9.908C263.019 9.908 263.383 9.84267 263.663 9.712C263.943 9.58133 264.19 9.41333 264.405 9.208C264.545 9.124 264.68 9.082 264.811 9.082C264.969 9.082 265.1 9.138 265.203 9.25C265.315 9.362 265.371 9.49267 265.371 9.642C265.371 9.838 265.277 10.0153 265.091 10.174C264.82 10.4447 264.461 10.6733 264.013 10.86C263.565 11.0467 263.107 11.14 262.641 11.14C261.885 11.14 261.217 10.9813 260.639 10.664C260.069 10.3467 259.626 9.90333 259.309 9.334C259.001 8.76467 258.847 8.12067 258.847 7.402C258.847 6.618 259.005 5.932 259.323 5.344C259.649 4.74667 260.074 4.28933 260.597 3.972C261.129 3.65467 261.698 3.496 262.305 3.496C262.902 3.496 263.462 3.65 263.985 3.958C264.507 4.266 264.927 4.69067 265.245 5.232C265.562 5.77333 265.725 6.38 265.735 7.052ZM262.305 4.728C261.782 4.728 261.329 4.87733 260.947 5.176C260.564 5.46533 260.312 5.918 260.191 6.534H264.321V6.422C264.274 5.92733 264.05 5.52133 263.649 5.204C263.257 4.88667 262.809 4.728 262.305 4.728ZM269.267 4.966V9.138C269.267 9.60467 269.477 9.838 269.897 9.838C269.962 9.838 270.051 9.824 270.163 9.796C270.275 9.75867 270.364 9.74 270.429 9.74C270.55 9.74 270.653 9.79133 270.737 9.894C270.821 9.99667 270.863 10.1273 270.863 10.286C270.863 10.482 270.751 10.65 270.527 10.79C270.303 10.93 270.051 11 269.771 11C269.463 11 269.178 10.9673 268.917 10.902C268.665 10.8367 268.436 10.6733 268.231 10.412C268.035 10.1413 267.937 9.73533 267.937 9.194V4.966H267.125C266.948 4.966 266.798 4.91 266.677 4.798C266.565 4.67667 266.509 4.52733 266.509 4.35C266.509 4.17267 266.565 4.028 266.677 3.916C266.798 3.804 266.948 3.748 267.125 3.748H267.937V2.572C267.937 2.38533 267.998 2.22667 268.119 2.096C268.25 1.96533 268.413 1.9 268.609 1.9C268.796 1.9 268.95 1.96533 269.071 2.096C269.202 2.22667 269.267 2.38533 269.267 2.572V3.748H270.429C270.606 3.748 270.751 3.80867 270.863 3.93C270.984 4.042 271.045 4.18667 271.045 4.364C271.045 4.54133 270.984 4.686 270.863 4.798C270.751 4.91 270.606 4.966 270.429 4.966H269.267Z" fill="#3A3768"/>
</svg>
