<svg width="220" height="14" viewBox="0 0 220 14" fill="none" xmlns="http://www.w3.org/2000/svg">
<path d="M8.148 1.774C8.372 1.89533 8.484 2.082 8.484 2.334C8.484 2.502 8.428 2.656 8.316 2.796C8.204 2.94533 8.05 3.02 7.854 3.02C7.72333 3.02 7.59733 2.98733 7.476 2.922C6.89733 2.59533 6.272 2.432 5.6 2.432C4.9 2.432 4.27933 2.586 3.738 2.894C3.206 3.202 2.79067 3.636 2.492 4.196C2.19333 4.74667 2.044 5.38133 2.044 6.1C2.044 6.87467 2.198 7.542 2.506 8.102C2.814 8.662 3.23867 9.09133 3.78 9.39C4.32133 9.67933 4.928 9.824 5.6 9.824C6.29067 9.824 6.916 9.656 7.476 9.32C7.588 9.264 7.70933 9.236 7.84 9.236C8.04533 9.236 8.20867 9.31533 8.33 9.474C8.442 9.614 8.498 9.76333 8.498 9.922C8.498 10.034 8.46533 10.1413 8.4 10.244C8.344 10.3373 8.26467 10.412 8.162 10.468C7.798 10.6733 7.38733 10.8367 6.93 10.958C6.482 11.0793 6.03867 11.14 5.6 11.14C4.69467 11.14 3.85933 10.9393 3.094 10.538C2.338 10.1367 1.73133 9.55333 1.274 8.788C0.826 8.02267 0.602 7.12667 0.602 6.1C0.602 5.15733 0.816667 4.308 1.246 3.552C1.68467 2.78667 2.282 2.18933 3.038 1.76C3.80333 1.32133 4.65733 1.102 5.6 1.102C6.50533 1.102 7.35467 1.326 8.148 1.774ZM15.8717 3.566C16.0677 3.566 16.2264 3.63133 16.3477 3.762C16.4784 3.88333 16.5437 4.04667 16.5437 4.252V10.328C16.5437 10.5147 16.4784 10.6733 16.3477 10.804C16.2264 10.9347 16.0677 11 15.8717 11C15.6757 11 15.5171 10.9393 15.3957 10.818C15.2744 10.6873 15.2137 10.524 15.2137 10.328V9.964C14.9711 10.2907 14.6397 10.5707 14.2197 10.804C13.7997 11.028 13.3471 11.14 12.8617 11.14C12.2271 11.14 11.6484 10.9767 11.1257 10.65C10.6124 10.3233 10.2064 9.87067 9.90773 9.292C9.6184 8.704 9.47373 8.046 9.47373 7.318C9.47373 6.59 9.6184 5.93667 9.90773 5.358C10.2064 4.77 10.6124 4.31267 11.1257 3.986C11.6391 3.65933 12.2037 3.496 12.8197 3.496C13.3144 3.496 13.7717 3.59867 14.1917 3.804C14.6211 4.00933 14.9617 4.27067 15.2137 4.588V4.252C15.2137 4.056 15.2744 3.89267 15.3957 3.762C15.5171 3.63133 15.6757 3.566 15.8717 3.566ZM13.0157 9.908C13.4544 9.908 13.8417 9.796 14.1777 9.572C14.5231 9.348 14.7891 9.04 14.9757 8.648C15.1717 8.256 15.2697 7.81267 15.2697 7.318C15.2697 6.83267 15.1717 6.394 14.9757 6.002C14.7891 5.61 14.5231 5.302 14.1777 5.078C13.8417 4.84467 13.4544 4.728 13.0157 4.728C12.5771 4.728 12.1851 4.84 11.8397 5.064C11.5037 5.288 11.2377 5.596 11.0417 5.988C10.8551 6.38 10.7617 6.82333 10.7617 7.318C10.7617 7.81267 10.8551 8.256 11.0417 8.648C11.2377 9.04 11.5037 9.348 11.8397 9.572C12.1851 9.796 12.5771 9.908 13.0157 9.908ZM22.1753 3.496C22.418 3.496 22.628 3.56133 22.8053 3.692C22.9827 3.81333 23.0713 3.96733 23.0713 4.154C23.0713 4.378 23.0107 4.55067 22.8893 4.672C22.7773 4.784 22.6373 4.84 22.4693 4.84C22.3853 4.84 22.2593 4.812 22.0913 4.756C21.8953 4.69067 21.7413 4.658 21.6293 4.658C21.34 4.658 21.0553 4.76067 20.7753 4.966C20.5047 5.162 20.2807 5.43733 20.1033 5.792C19.9353 6.13733 19.8513 6.52467 19.8513 6.954V10.328C19.8513 10.5147 19.786 10.6733 19.6553 10.804C19.534 10.9347 19.3753 11 19.1793 11C18.9833 11 18.8247 10.9393 18.7033 10.818C18.582 10.6873 18.5213 10.524 18.5213 10.328V4.336C18.5213 4.14933 18.582 3.99067 18.7033 3.86C18.834 3.72933 18.9927 3.664 19.1793 3.664C19.3753 3.664 19.534 3.72933 19.6553 3.86C19.786 3.99067 19.8513 4.14933 19.8513 4.336V5.05C20.0567 4.59267 20.3647 4.224 20.7753 3.944C21.186 3.65467 21.6527 3.50533 22.1753 3.496ZM30.0905 3.566C30.2865 3.566 30.4452 3.63133 30.5665 3.762C30.6972 3.88333 30.7625 4.04667 30.7625 4.252V10.328C30.7625 10.5147 30.6972 10.6733 30.5665 10.804C30.4452 10.9347 30.2865 11 30.0905 11C29.8945 11 29.7358 10.9393 29.6145 10.818C29.4932 10.6873 29.4325 10.524 29.4325 10.328V9.964C29.1898 10.2907 28.8585 10.5707 28.4385 10.804C28.0185 11.028 27.5658 11.14 27.0805 11.14C26.4458 11.14 25.8672 10.9767 25.3445 10.65C24.8312 10.3233 24.4252 9.87067 24.1265 9.292C23.8372 8.704 23.6925 8.046 23.6925 7.318C23.6925 6.59 23.8372 5.93667 24.1265 5.358C24.4252 4.77 24.8312 4.31267 25.3445 3.986C25.8578 3.65933 26.4225 3.496 27.0385 3.496C27.5332 3.496 27.9905 3.59867 28.4105 3.804C28.8398 4.00933 29.1805 4.27067 29.4325 4.588V4.252C29.4325 4.056 29.4932 3.89267 29.6145 3.762C29.7358 3.63133 29.8945 3.566 30.0905 3.566ZM27.2345 9.908C27.6732 9.908 28.0605 9.796 28.3965 9.572C28.7418 9.348 29.0078 9.04 29.1945 8.648C29.3905 8.256 29.4885 7.81267 29.4885 7.318C29.4885 6.83267 29.3905 6.394 29.1945 6.002C29.0078 5.61 28.7418 5.302 28.3965 5.078C28.0605 4.84467 27.6732 4.728 27.2345 4.728C26.7958 4.728 26.4038 4.84 26.0585 5.064C25.7225 5.288 25.4565 5.596 25.2605 5.988C25.0738 6.38 24.9805 6.82333 24.9805 7.318C24.9805 7.81267 25.0738 8.256 25.2605 8.648C25.4565 9.04 25.7225 9.348 26.0585 9.572C26.4038 9.796 26.7958 9.908 27.2345 9.908ZM35.9321 3.496C36.6694 3.496 37.2808 3.61267 37.7661 3.846C38.2608 4.07933 38.5081 4.378 38.5081 4.742C38.5081 4.90067 38.4568 5.04533 38.3541 5.176C38.2514 5.29733 38.1208 5.358 37.9621 5.358C37.8408 5.358 37.7428 5.33933 37.6681 5.302C37.6028 5.26467 37.5094 5.204 37.3881 5.12C37.3321 5.064 37.2434 4.99867 37.1221 4.924C37.0101 4.868 36.8514 4.82133 36.6461 4.784C36.4408 4.74667 36.2541 4.728 36.0861 4.728C35.6008 4.728 35.1714 4.84 34.7981 5.064C34.4248 5.288 34.1354 5.60067 33.9301 6.002C33.7248 6.394 33.6221 6.83267 33.6221 7.318C33.6221 7.81267 33.7201 8.256 33.9161 8.648C34.1214 9.04 34.4061 9.348 34.7701 9.572C35.1341 9.796 35.5494 9.908 36.0161 9.908C36.5014 9.908 36.8934 9.83333 37.1921 9.684C37.2574 9.64667 37.3461 9.586 37.4581 9.502C37.5514 9.42733 37.6308 9.37133 37.6961 9.334C37.7708 9.29667 37.8594 9.278 37.9621 9.278C38.1488 9.278 38.2934 9.33867 38.3961 9.46C38.5081 9.572 38.5641 9.72133 38.5641 9.908C38.5641 10.104 38.4381 10.3 38.1861 10.496C37.9434 10.6827 37.6121 10.8367 37.1921 10.958C36.7814 11.0793 36.3381 11.14 35.8621 11.14C35.1528 11.14 34.5274 10.9767 33.9861 10.65C33.4448 10.314 33.0248 9.85667 32.7261 9.278C32.4368 8.69 32.2921 8.03667 32.2921 7.318C32.2921 6.59933 32.4461 5.95067 32.7541 5.372C33.0621 4.784 33.4914 4.32667 34.0421 4C34.5928 3.664 35.2228 3.496 35.9321 3.496ZM41.9195 4.966V9.138C41.9195 9.60467 42.1295 9.838 42.5495 9.838C42.6148 9.838 42.7035 9.824 42.8155 9.796C42.9275 9.75867 43.0162 9.74 43.0815 9.74C43.2028 9.74 43.3055 9.79133 43.3895 9.894C43.4735 9.99667 43.5155 10.1273 43.5155 10.286C43.5155 10.482 43.4035 10.65 43.1795 10.79C42.9555 10.93 42.7035 11 42.4235 11C42.1155 11 41.8308 10.9673 41.5695 10.902C41.3175 10.8367 41.0888 10.6733 40.8835 10.412C40.6875 10.1413 40.5895 9.73533 40.5895 9.194V4.966H39.7775C39.6002 4.966 39.4508 4.91 39.3295 4.798C39.2175 4.67667 39.1615 4.52733 39.1615 4.35C39.1615 4.17267 39.2175 4.028 39.3295 3.916C39.4508 3.804 39.6002 3.748 39.7775 3.748H40.5895V2.572C40.5895 2.38533 40.6502 2.22667 40.7715 2.096C40.9022 1.96533 41.0655 1.9 41.2615 1.9C41.4482 1.9 41.6022 1.96533 41.7235 2.096C41.8542 2.22667 41.9195 2.38533 41.9195 2.572V3.748H43.0815C43.2588 3.748 43.4035 3.80867 43.5155 3.93C43.6368 4.042 43.6975 4.18667 43.6975 4.364C43.6975 4.54133 43.6368 4.686 43.5155 4.798C43.4035 4.91 43.2588 4.966 43.0815 4.966H41.9195ZM51.6215 7.052C51.6122 7.22 51.5422 7.36467 51.4115 7.486C51.2808 7.598 51.1268 7.654 50.9495 7.654H46.0215C46.0868 8.33533 46.3435 8.88133 46.7915 9.292C47.2488 9.70267 47.8042 9.908 48.4575 9.908C48.9055 9.908 49.2695 9.84267 49.5495 9.712C49.8295 9.58133 50.0768 9.41333 50.2915 9.208C50.4315 9.124 50.5668 9.082 50.6975 9.082C50.8562 9.082 50.9868 9.138 51.0895 9.25C51.2015 9.362 51.2575 9.49267 51.2575 9.642C51.2575 9.838 51.1642 10.0153 50.9775 10.174C50.7068 10.4447 50.3475 10.6733 49.8995 10.86C49.4515 11.0467 48.9942 11.14 48.5275 11.14C47.7715 11.14 47.1042 10.9813 46.5255 10.664C45.9562 10.3467 45.5128 9.90333 45.1955 9.334C44.8875 8.76467 44.7335 8.12067 44.7335 7.402C44.7335 6.618 44.8922 5.932 45.2095 5.344C45.5362 4.74667 45.9608 4.28933 46.4835 3.972C47.0155 3.65467 47.5848 3.496 48.1915 3.496C48.7888 3.496 49.3488 3.65 49.8715 3.958C50.3942 4.266 50.8142 4.69067 51.1315 5.232C51.4488 5.77333 51.6122 6.38 51.6215 7.052ZM48.1915 4.728C47.6688 4.728 47.2162 4.87733 46.8335 5.176C46.4508 5.46533 46.1988 5.918 46.0775 6.534H50.2075V6.422C50.1608 5.92733 49.9368 5.52133 49.5355 5.204C49.1435 4.88667 48.6955 4.728 48.1915 4.728ZM48.1495 3.146C48.0748 3.146 47.9955 3.11333 47.9115 3.048C47.8275 2.98267 47.7902 2.894 47.7995 2.782C47.7995 2.70733 47.8275 2.62333 47.8835 2.53L48.7095 1.144C48.7842 1.01333 48.8728 0.905999 48.9755 0.821999C49.0875 0.737999 49.2135 0.695999 49.3535 0.695999C49.5588 0.695999 49.7128 0.751999 49.8155 0.863999C49.9275 0.966666 49.9788 1.10667 49.9695 1.284C49.9695 1.452 49.8995 1.61533 49.7595 1.774L48.7095 2.922C48.5602 3.07133 48.3735 3.146 48.1495 3.146ZM56.8199 3.496C57.0625 3.496 57.2725 3.56133 57.4499 3.692C57.6272 3.81333 57.7159 3.96733 57.7159 4.154C57.7159 4.378 57.6552 4.55067 57.5339 4.672C57.4219 4.784 57.2819 4.84 57.1139 4.84C57.0299 4.84 56.9039 4.812 56.7359 4.756C56.5399 4.69067 56.3859 4.658 56.2739 4.658C55.9845 4.658 55.6999 4.76067 55.4199 4.966C55.1492 5.162 54.9252 5.43733 54.7479 5.792C54.5799 6.13733 54.4959 6.52467 54.4959 6.954V10.328C54.4959 10.5147 54.4305 10.6733 54.2999 10.804C54.1785 10.9347 54.0199 11 53.8239 11C53.6279 11 53.4692 10.9393 53.3479 10.818C53.2265 10.6873 53.1659 10.524 53.1659 10.328V4.336C53.1659 4.14933 53.2265 3.99067 53.3479 3.86C53.4785 3.72933 53.6372 3.664 53.8239 3.664C54.0199 3.664 54.1785 3.72933 54.2999 3.86C54.4305 3.99067 54.4959 4.14933 54.4959 4.336V5.05C54.7012 4.59267 55.0092 4.224 55.4199 3.944C55.8305 3.65467 56.2972 3.50533 56.8199 3.496ZM60.2091 10.328C60.2091 10.5147 60.1437 10.6733 60.0131 10.804C59.8917 10.9347 59.7331 11 59.5371 11C59.3504 11 59.1917 10.9347 59.0611 10.804C58.9397 10.6733 58.8791 10.5147 58.8791 10.328V4.266C58.8791 4.07933 58.9397 3.92067 59.0611 3.79C59.1917 3.65933 59.3504 3.594 59.5371 3.594C59.7331 3.594 59.8917 3.65933 60.0131 3.79C60.1437 3.92067 60.2091 4.07933 60.2091 4.266V10.328ZM59.5371 2.67C59.2664 2.67 59.0704 2.62333 58.9491 2.53C58.8371 2.42733 58.7811 2.26867 58.7811 2.054V1.83C58.7811 1.606 58.8417 1.44733 58.9631 1.354C59.0937 1.26067 59.2897 1.214 59.5511 1.214C59.8124 1.214 59.9991 1.26533 60.1111 1.368C60.2324 1.46133 60.2931 1.61533 60.2931 1.83V2.054C60.2931 2.278 60.2324 2.43667 60.1111 2.53C59.9897 2.62333 59.7984 2.67 59.5371 2.67ZM61.701 9.852C61.617 9.72133 61.575 9.59533 61.575 9.474C61.575 9.28733 61.673 9.12867 61.869 8.998C61.9623 8.93267 62.0696 8.9 62.191 8.9C62.359 8.9 62.513 8.97 62.653 9.11C62.933 9.42733 63.2316 9.66533 63.549 9.824C63.8756 9.98267 64.263 10.062 64.711 10.062C65.0656 10.0527 65.3783 9.97333 65.649 9.824C65.9196 9.66533 66.055 9.41333 66.055 9.068C66.055 8.75067 65.915 8.508 65.635 8.34C65.3643 8.172 64.963 8.018 64.431 7.878C63.9083 7.738 63.4743 7.59333 63.129 7.444C62.7836 7.28533 62.4896 7.06133 62.247 6.772C62.0136 6.47333 61.897 6.086 61.897 5.61C61.897 5.19 62.0136 4.82133 62.247 4.504C62.4896 4.18667 62.807 3.93933 63.199 3.762C63.6003 3.58467 64.0343 3.496 64.501 3.496C64.949 3.496 65.3923 3.58 65.831 3.748C66.279 3.916 66.643 4.17267 66.923 4.518C67.035 4.64867 67.091 4.784 67.091 4.924C67.091 5.07333 67.0163 5.218 66.867 5.358C66.7736 5.442 66.657 5.484 66.517 5.484C66.349 5.484 66.2136 5.428 66.111 5.316C65.915 5.092 65.6723 4.91933 65.383 4.798C65.103 4.67667 64.7903 4.616 64.445 4.616C64.0903 4.616 63.787 4.69067 63.535 4.84C63.2923 4.98 63.171 5.22267 63.171 5.568C63.1803 5.89467 63.3203 6.13733 63.591 6.296C63.871 6.45467 64.2956 6.60867 64.865 6.758C65.3596 6.88867 65.7703 7.02867 66.097 7.178C66.4236 7.32733 66.699 7.55133 66.923 7.85C67.147 8.13933 67.259 8.522 67.259 8.998C67.259 9.43667 67.133 9.81933 66.881 10.146C66.629 10.4633 66.2976 10.7107 65.887 10.888C65.4856 11.056 65.0563 11.14 64.599 11.14C64.011 11.14 63.465 11.0373 62.961 10.832C62.4663 10.6267 62.0463 10.3 61.701 9.852ZM70.7808 4.966V9.138C70.7808 9.60467 70.9908 9.838 71.4108 9.838C71.4762 9.838 71.5648 9.824 71.6768 9.796C71.7888 9.75867 71.8775 9.74 71.9428 9.74C72.0642 9.74 72.1668 9.79133 72.2508 9.894C72.3348 9.99667 72.3768 10.1273 72.3768 10.286C72.3768 10.482 72.2648 10.65 72.0408 10.79C71.8168 10.93 71.5648 11 71.2848 11C70.9768 11 70.6922 10.9673 70.4308 10.902C70.1788 10.8367 69.9502 10.6733 69.7448 10.412C69.5488 10.1413 69.4508 9.73533 69.4508 9.194V4.966H68.6388C68.4615 4.966 68.3122 4.91 68.1908 4.798C68.0788 4.67667 68.0228 4.52733 68.0228 4.35C68.0228 4.17267 68.0788 4.028 68.1908 3.916C68.3122 3.804 68.4615 3.748 68.6388 3.748H69.4508V2.572C69.4508 2.38533 69.5115 2.22667 69.6328 2.096C69.7635 1.96533 69.9268 1.9 70.1228 1.9C70.3095 1.9 70.4635 1.96533 70.5848 2.096C70.7155 2.22667 70.7808 2.38533 70.7808 2.572V3.748H71.9428C72.1202 3.748 72.2648 3.80867 72.3768 3.93C72.4982 4.042 72.5588 4.18667 72.5588 4.364C72.5588 4.54133 72.4982 4.686 72.3768 4.798C72.2648 4.91 72.1202 4.966 71.9428 4.966H70.7808ZM75.3712 10.328C75.3712 10.5147 75.3059 10.6733 75.1752 10.804C75.0539 10.9347 74.8952 11 74.6992 11C74.5125 11 74.3539 10.9347 74.2232 10.804C74.1019 10.6733 74.0412 10.5147 74.0412 10.328V4.266C74.0412 4.07933 74.1019 3.92067 74.2232 3.79C74.3539 3.65933 74.5125 3.594 74.6992 3.594C74.8952 3.594 75.0539 3.65933 75.1752 3.79C75.3059 3.92067 75.3712 4.07933 75.3712 4.266V10.328ZM74.6992 2.67C74.4285 2.67 74.2325 2.62333 74.1112 2.53C73.9992 2.42733 73.9432 2.26867 73.9432 2.054V1.83C73.9432 1.606 74.0039 1.44733 74.1252 1.354C74.2559 1.26067 74.4519 1.214 74.7132 1.214C74.9745 1.214 75.1612 1.26533 75.2732 1.368C75.3945 1.46133 75.4552 1.61533 75.4552 1.83V2.054C75.4552 2.278 75.3945 2.43667 75.2732 2.53C75.1519 2.62333 74.9605 2.67 74.6992 2.67ZM83.2331 3.636C83.4291 3.636 83.5877 3.70133 83.7091 3.832C83.8397 3.95333 83.9051 4.11667 83.9051 4.322V13.128C83.9051 13.3147 83.8397 13.4733 83.7091 13.604C83.5877 13.7347 83.4291 13.8 83.2331 13.8C83.0371 13.8 82.8784 13.7347 82.7571 13.604C82.6357 13.4827 82.5751 13.324 82.5751 13.128V9.936C82.3417 10.272 82.0104 10.5567 81.5811 10.79C81.1611 11.0233 80.7084 11.14 80.2231 11.14C79.5884 11.14 79.0144 10.9767 78.5011 10.65C77.9877 10.3233 77.5817 9.87067 77.2831 9.292C76.9844 8.704 76.8351 8.046 76.8351 7.318C76.8351 6.59 76.9797 5.93667 77.2691 5.358C77.5677 4.77 77.9737 4.31267 78.4871 3.986C79.0004 3.65933 79.5651 3.496 80.1811 3.496C80.6757 3.496 81.1331 3.59867 81.5531 3.804C81.9731 4.00933 82.3137 4.27533 82.5751 4.602V4.322C82.5751 4.126 82.6357 3.96267 82.7571 3.832C82.8784 3.70133 83.0371 3.636 83.2331 3.636ZM80.3771 9.908C80.8157 9.908 81.2031 9.796 81.5391 9.572C81.8844 9.348 82.1504 9.04 82.3371 8.648C82.5331 8.256 82.6311 7.81267 82.6311 7.318C82.6311 6.83267 82.5331 6.394 82.3371 6.002C82.1504 5.60067 81.8844 5.288 81.5391 5.064C81.2031 4.84 80.8157 4.728 80.3771 4.728C79.9384 4.728 79.5464 4.84 79.2011 5.064C78.8651 5.288 78.5991 5.60067 78.4031 6.002C78.2164 6.394 78.1231 6.83267 78.1231 7.318C78.1231 7.81267 78.2164 8.256 78.4031 8.648C78.5991 9.04 78.8651 9.348 79.2011 9.572C79.5464 9.796 79.9384 9.908 80.3771 9.908ZM91.3427 3.664C91.5387 3.664 91.6973 3.72933 91.8187 3.86C91.9493 3.99067 92.0147 4.14933 92.0147 4.336V8.06C92.0147 9.03067 91.744 9.78667 91.2027 10.328C90.6707 10.86 89.9147 11.126 88.9347 11.126C87.964 11.126 87.2127 10.86 86.6807 10.328C86.1487 9.78667 85.8827 9.03067 85.8827 8.06V4.336C85.8827 4.14933 85.9433 3.99067 86.0647 3.86C86.1953 3.72933 86.354 3.664 86.5407 3.664C86.7367 3.664 86.8953 3.72933 87.0167 3.86C87.1473 3.99067 87.2127 4.14933 87.2127 4.336V8.06C87.2127 9.28267 87.7867 9.894 88.9347 9.894C89.504 9.894 89.938 9.74 90.2367 9.432C90.5353 9.124 90.6847 8.66667 90.6847 8.06V4.336C90.6847 4.14933 90.7453 3.99067 90.8667 3.86C90.9973 3.72933 91.156 3.664 91.3427 3.664ZM100.444 7.052C100.434 7.22 100.364 7.36467 100.234 7.486C100.103 7.598 99.9491 7.654 99.7718 7.654H94.8438C94.9091 8.33533 95.1658 8.88133 95.6138 9.292C96.0711 9.70267 96.6264 9.908 97.2798 9.908C97.7278 9.908 98.0918 9.84267 98.3718 9.712C98.6518 9.58133 98.8991 9.41333 99.1138 9.208C99.2538 9.124 99.3891 9.082 99.5198 9.082C99.6784 9.082 99.8091 9.138 99.9118 9.25C100.024 9.362 100.08 9.49267 100.08 9.642C100.08 9.838 99.9864 10.0153 99.7998 10.174C99.5291 10.4447 99.1698 10.6733 98.7218 10.86C98.2738 11.0467 97.8164 11.14 97.3498 11.14C96.5938 11.14 95.9264 10.9813 95.3478 10.664C94.7784 10.3467 94.3351 9.90333 94.0178 9.334C93.7098 8.76467 93.5558 8.12067 93.5558 7.402C93.5558 6.618 93.7144 5.932 94.0318 5.344C94.3584 4.74667 94.7831 4.28933 95.3058 3.972C95.8378 3.65467 96.4071 3.496 97.0138 3.496C97.6111 3.496 98.1711 3.65 98.6938 3.958C99.2164 4.266 99.6364 4.69067 99.9538 5.232C100.271 5.77333 100.434 6.38 100.444 7.052ZM97.0138 4.728C96.4911 4.728 96.0384 4.87733 95.6558 5.176C95.2731 5.46533 95.0211 5.918 94.8998 6.534H99.0298V6.422C98.9831 5.92733 98.7591 5.52133 98.3578 5.204C97.9658 4.88667 97.5178 4.728 97.0138 4.728ZM101.568 9.852C101.484 9.72133 101.442 9.59533 101.442 9.474C101.442 9.28733 101.54 9.12867 101.736 8.998C101.829 8.93267 101.937 8.9 102.058 8.9C102.226 8.9 102.38 8.97 102.52 9.11C102.8 9.42733 103.099 9.66533 103.416 9.824C103.743 9.98267 104.13 10.062 104.578 10.062C104.933 10.0527 105.245 9.97333 105.516 9.824C105.787 9.66533 105.922 9.41333 105.922 9.068C105.922 8.75067 105.782 8.508 105.502 8.34C105.231 8.172 104.83 8.018 104.298 7.878C103.775 7.738 103.341 7.59333 102.996 7.444C102.651 7.28533 102.357 7.06133 102.114 6.772C101.881 6.47333 101.764 6.086 101.764 5.61C101.764 5.19 101.881 4.82133 102.114 4.504C102.357 4.18667 102.674 3.93933 103.066 3.762C103.467 3.58467 103.901 3.496 104.368 3.496C104.816 3.496 105.259 3.58 105.698 3.748C106.146 3.916 106.51 4.17267 106.79 4.518C106.902 4.64867 106.958 4.784 106.958 4.924C106.958 5.07333 106.883 5.218 106.734 5.358C106.641 5.442 106.524 5.484 106.384 5.484C106.216 5.484 106.081 5.428 105.978 5.316C105.782 5.092 105.539 4.91933 105.25 4.798C104.97 4.67667 104.657 4.616 104.312 4.616C103.957 4.616 103.654 4.69067 103.402 4.84C103.159 4.98 103.038 5.22267 103.038 5.568C103.047 5.89467 103.187 6.13733 103.458 6.296C103.738 6.45467 104.163 6.60867 104.732 6.758C105.227 6.88867 105.637 7.02867 105.964 7.178C106.291 7.32733 106.566 7.55133 106.79 7.85C107.014 8.13933 107.126 8.522 107.126 8.998C107.126 9.43667 107 9.81933 106.748 10.146C106.496 10.4633 106.165 10.7107 105.754 10.888C105.353 11.056 104.923 11.14 104.466 11.14C103.878 11.14 103.332 11.0373 102.828 10.832C102.333 10.6267 101.913 10.3 101.568 9.852ZM118.493 0.64C118.689 0.64 118.847 0.705333 118.969 0.836C119.099 0.957333 119.165 1.116 119.165 1.312V10.328C119.165 10.5147 119.099 10.6733 118.969 10.804C118.847 10.9347 118.689 11 118.493 11C118.297 11 118.138 10.9393 118.017 10.818C117.895 10.6873 117.835 10.524 117.835 10.328V9.936C117.601 10.272 117.27 10.5567 116.841 10.79C116.421 11.0233 115.968 11.14 115.483 11.14C114.848 11.14 114.274 10.9767 113.761 10.65C113.247 10.3233 112.841 9.87067 112.543 9.292C112.244 8.704 112.095 8.046 112.095 7.318C112.095 6.59 112.239 5.93667 112.529 5.358C112.827 4.77 113.233 4.31267 113.747 3.986C114.26 3.65933 114.825 3.496 115.441 3.496C115.935 3.496 116.393 3.59867 116.813 3.804C117.233 4.00933 117.573 4.27533 117.835 4.602V1.312C117.835 1.116 117.895 0.957333 118.017 0.836C118.138 0.705333 118.297 0.64 118.493 0.64ZM115.637 9.908C116.075 9.908 116.463 9.796 116.799 9.572C117.144 9.348 117.41 9.04 117.597 8.648C117.793 8.256 117.891 7.81267 117.891 7.318C117.891 6.83267 117.793 6.394 117.597 6.002C117.41 5.60067 117.144 5.288 116.799 5.064C116.463 4.84 116.075 4.728 115.637 4.728C115.198 4.728 114.806 4.84 114.461 5.064C114.125 5.288 113.859 5.60067 113.663 6.002C113.476 6.394 113.383 6.83267 113.383 7.318C113.383 7.81267 113.476 8.256 113.663 8.648C113.859 9.04 114.125 9.348 114.461 9.572C114.806 9.796 115.198 9.908 115.637 9.908ZM127.582 7.052C127.573 7.22 127.503 7.36467 127.372 7.486C127.242 7.598 127.088 7.654 126.91 7.654H121.982C122.048 8.33533 122.304 8.88133 122.752 9.292C123.21 9.70267 123.765 9.908 124.418 9.908C124.866 9.908 125.23 9.84267 125.51 9.712C125.79 9.58133 126.038 9.41333 126.252 9.208C126.392 9.124 126.528 9.082 126.658 9.082C126.817 9.082 126.948 9.138 127.05 9.25C127.162 9.362 127.218 9.49267 127.218 9.642C127.218 9.838 127.125 10.0153 126.938 10.174C126.668 10.4447 126.308 10.6733 125.86 10.86C125.412 11.0467 124.955 11.14 124.488 11.14C123.732 11.14 123.065 10.9813 122.486 10.664C121.917 10.3467 121.474 9.90333 121.156 9.334C120.848 8.76467 120.694 8.12067 120.694 7.402C120.694 6.618 120.853 5.932 121.17 5.344C121.497 4.74667 121.922 4.28933 122.444 3.972C122.976 3.65467 123.546 3.496 124.152 3.496C124.75 3.496 125.31 3.65 125.832 3.958C126.355 4.266 126.775 4.69067 127.092 5.232C127.41 5.77333 127.573 6.38 127.582 7.052ZM124.152 4.728C123.63 4.728 123.177 4.87733 122.794 5.176C122.412 5.46533 122.16 5.918 122.038 6.534H126.168V6.422C126.122 5.92733 125.898 5.52133 125.496 5.204C125.104 4.88667 124.656 4.728 124.152 4.728ZM138.61 3.594C138.787 3.594 138.936 3.65467 139.058 3.776C139.179 3.888 139.24 4.02333 139.24 4.182C139.24 4.266 139.207 4.38267 139.142 4.532L136.482 10.58C136.426 10.7013 136.346 10.7993 136.244 10.874C136.141 10.9487 136.029 10.9907 135.908 11C135.758 11.0187 135.618 10.9907 135.488 10.916C135.366 10.8413 135.273 10.7293 135.208 10.58L132.548 4.532C132.501 4.392 132.478 4.27533 132.478 4.182C132.478 4.03267 132.538 3.89733 132.66 3.776C132.781 3.65467 132.94 3.594 133.136 3.594C133.276 3.594 133.402 3.63133 133.514 3.706C133.626 3.77133 133.714 3.874 133.78 4.014L135.894 8.928L138.008 4.014C138.138 3.734 138.339 3.594 138.61 3.594ZM147.555 7.332C147.555 8.06 147.392 8.71333 147.065 9.292C146.739 9.87067 146.291 10.3233 145.721 10.65C145.161 10.9767 144.541 11.14 143.859 11.14C143.178 11.14 142.553 10.9767 141.983 10.65C141.423 10.3233 140.98 9.87067 140.653 9.292C140.327 8.71333 140.163 8.06 140.163 7.332C140.163 6.604 140.327 5.946 140.653 5.358C140.98 4.77 141.423 4.31267 141.983 3.986C142.553 3.65933 143.178 3.496 143.859 3.496C144.541 3.496 145.161 3.65933 145.721 3.986C146.291 4.31267 146.739 4.77 147.065 5.358C147.392 5.946 147.555 6.604 147.555 7.332ZM146.225 7.332C146.225 6.828 146.118 6.38 145.903 5.988C145.698 5.58667 145.413 5.27867 145.049 5.064C144.695 4.84 144.298 4.728 143.859 4.728C143.421 4.728 143.019 4.84 142.655 5.064C142.301 5.27867 142.016 5.58667 141.801 5.988C141.596 6.38 141.493 6.828 141.493 7.332C141.493 7.82667 141.596 8.27 141.801 8.662C142.016 9.054 142.301 9.362 142.655 9.586C143.019 9.80067 143.421 9.908 143.859 9.908C144.298 9.908 144.695 9.80067 145.049 9.586C145.413 9.362 145.698 9.054 145.903 8.662C146.118 8.27 146.225 7.82667 146.225 7.332ZM151.089 4.966V9.138C151.089 9.60467 151.299 9.838 151.719 9.838C151.785 9.838 151.873 9.824 151.985 9.796C152.097 9.75867 152.186 9.74 152.251 9.74C152.373 9.74 152.475 9.79133 152.559 9.894C152.643 9.99667 152.685 10.1273 152.685 10.286C152.685 10.482 152.573 10.65 152.349 10.79C152.125 10.93 151.873 11 151.593 11C151.285 11 151.001 10.9673 150.739 10.902C150.487 10.8367 150.259 10.6733 150.053 10.412C149.857 10.1413 149.759 9.73533 149.759 9.194V4.966H148.947C148.77 4.966 148.621 4.91 148.499 4.798C148.387 4.67667 148.331 4.52733 148.331 4.35C148.331 4.17267 148.387 4.028 148.499 3.916C148.621 3.804 148.77 3.748 148.947 3.748H149.759V2.572C149.759 2.38533 149.82 2.22667 149.941 2.096C150.072 1.96533 150.235 1.9 150.431 1.9C150.618 1.9 150.772 1.96533 150.893 2.096C151.024 2.22667 151.089 2.38533 151.089 2.572V3.748H152.251C152.429 3.748 152.573 3.80867 152.685 3.93C152.807 4.042 152.867 4.18667 152.867 4.364C152.867 4.54133 152.807 4.686 152.685 4.798C152.573 4.91 152.429 4.966 152.251 4.966H151.089ZM158.074 3.496C158.316 3.496 158.526 3.56133 158.704 3.692C158.881 3.81333 158.97 3.96733 158.97 4.154C158.97 4.378 158.909 4.55067 158.788 4.672C158.676 4.784 158.536 4.84 158.368 4.84C158.284 4.84 158.158 4.812 157.99 4.756C157.794 4.69067 157.64 4.658 157.528 4.658C157.238 4.658 156.954 4.76067 156.674 4.966C156.403 5.162 156.179 5.43733 156.002 5.792C155.834 6.13733 155.75 6.52467 155.75 6.954V10.328C155.75 10.5147 155.684 10.6733 155.554 10.804C155.432 10.9347 155.274 11 155.078 11C154.882 11 154.723 10.9393 154.602 10.818C154.48 10.6873 154.42 10.524 154.42 10.328V4.336C154.42 4.14933 154.48 3.99067 154.602 3.86C154.732 3.72933 154.891 3.664 155.078 3.664C155.274 3.664 155.432 3.72933 155.554 3.86C155.684 3.99067 155.75 4.14933 155.75 4.336V5.05C155.955 4.59267 156.263 4.224 156.674 3.944C157.084 3.65467 157.551 3.50533 158.074 3.496ZM166.329 7.052C166.319 7.22 166.249 7.36467 166.119 7.486C165.988 7.598 165.834 7.654 165.657 7.654H160.729C160.794 8.33533 161.051 8.88133 161.499 9.292C161.956 9.70267 162.511 9.908 163.165 9.908C163.613 9.908 163.977 9.84267 164.257 9.712C164.537 9.58133 164.784 9.41333 164.999 9.208C165.139 9.124 165.274 9.082 165.405 9.082C165.563 9.082 165.694 9.138 165.797 9.25C165.909 9.362 165.965 9.49267 165.965 9.642C165.965 9.838 165.871 10.0153 165.685 10.174C165.414 10.4447 165.055 10.6733 164.607 10.86C164.159 11.0467 163.701 11.14 163.235 11.14C162.479 11.14 161.811 10.9813 161.233 10.664C160.663 10.3467 160.22 9.90333 159.903 9.334C159.595 8.76467 159.441 8.12067 159.441 7.402C159.441 6.618 159.599 5.932 159.917 5.344C160.243 4.74667 160.668 4.28933 161.191 3.972C161.723 3.65467 162.292 3.496 162.899 3.496C163.496 3.496 164.056 3.65 164.579 3.958C165.101 4.266 165.521 4.69067 165.839 5.232C166.156 5.77333 166.319 6.38 166.329 7.052ZM162.899 4.728C162.376 4.728 161.923 4.87733 161.541 5.176C161.158 5.46533 160.906 5.918 160.785 6.534H164.915V6.422C164.868 5.92733 164.644 5.52133 164.243 5.204C163.851 4.88667 163.403 4.728 162.899 4.728ZM174.948 3.496C175.685 3.496 176.296 3.61267 176.782 3.846C177.276 4.07933 177.524 4.378 177.524 4.742C177.524 4.90067 177.472 5.04533 177.37 5.176C177.267 5.29733 177.136 5.358 176.978 5.358C176.856 5.358 176.758 5.33933 176.684 5.302C176.618 5.26467 176.525 5.204 176.404 5.12C176.348 5.064 176.259 4.99867 176.138 4.924C176.026 4.868 175.867 4.82133 175.662 4.784C175.456 4.74667 175.27 4.728 175.102 4.728C174.616 4.728 174.187 4.84 173.814 5.064C173.44 5.288 173.151 5.60067 172.946 6.002C172.74 6.394 172.638 6.83267 172.638 7.318C172.638 7.81267 172.736 8.256 172.932 8.648C173.137 9.04 173.422 9.348 173.786 9.572C174.15 9.796 174.565 9.908 175.032 9.908C175.517 9.908 175.909 9.83333 176.208 9.684C176.273 9.64667 176.362 9.586 176.474 9.502C176.567 9.42733 176.646 9.37133 176.712 9.334C176.786 9.29667 176.875 9.278 176.978 9.278C177.164 9.278 177.309 9.33867 177.412 9.46C177.524 9.572 177.58 9.72133 177.58 9.908C177.58 10.104 177.454 10.3 177.202 10.496C176.959 10.6827 176.628 10.8367 176.208 10.958C175.797 11.0793 175.354 11.14 174.878 11.14C174.168 11.14 173.543 10.9767 173.002 10.65C172.46 10.314 172.04 9.85667 171.742 9.278C171.452 8.69 171.308 8.03667 171.308 7.318C171.308 6.59933 171.462 5.95067 171.77 5.372C172.078 4.784 172.507 4.32667 173.058 4C173.608 3.664 174.238 3.496 174.948 3.496ZM184.897 3.566C185.093 3.566 185.252 3.63133 185.373 3.762C185.504 3.88333 185.569 4.04667 185.569 4.252V10.328C185.569 10.5147 185.504 10.6733 185.373 10.804C185.252 10.9347 185.093 11 184.897 11C184.701 11 184.542 10.9393 184.421 10.818C184.3 10.6873 184.239 10.524 184.239 10.328V9.964C183.996 10.2907 183.665 10.5707 183.245 10.804C182.825 11.028 182.372 11.14 181.887 11.14C181.252 11.14 180.674 10.9767 180.151 10.65C179.638 10.3233 179.232 9.87067 178.933 9.292C178.644 8.704 178.499 8.046 178.499 7.318C178.499 6.59 178.644 5.93667 178.933 5.358C179.232 4.77 179.638 4.31267 180.151 3.986C180.664 3.65933 181.229 3.496 181.845 3.496C182.34 3.496 182.797 3.59867 183.217 3.804C183.646 4.00933 183.987 4.27067 184.239 4.588V4.252C184.239 4.056 184.3 3.89267 184.421 3.762C184.542 3.63133 184.701 3.566 184.897 3.566ZM182.041 9.908C182.48 9.908 182.867 9.796 183.203 9.572C183.548 9.348 183.814 9.04 184.001 8.648C184.197 8.256 184.295 7.81267 184.295 7.318C184.295 6.83267 184.197 6.394 184.001 6.002C183.814 5.61 183.548 5.302 183.203 5.078C182.867 4.84467 182.48 4.728 182.041 4.728C181.602 4.728 181.21 4.84 180.865 5.064C180.529 5.288 180.263 5.596 180.067 5.988C179.88 6.38 179.787 6.82333 179.787 7.318C179.787 7.81267 179.88 8.256 180.067 8.648C180.263 9.04 180.529 9.348 180.865 9.572C181.21 9.796 181.602 9.908 182.041 9.908ZM191.229 3.496C191.863 3.496 192.437 3.65933 192.951 3.986C193.464 4.31267 193.865 4.76533 194.155 5.344C194.453 5.92267 194.603 6.576 194.603 7.304C194.603 8.032 194.453 8.69 194.155 9.278C193.865 9.866 193.464 10.3233 192.951 10.65C192.437 10.9767 191.873 11.14 191.257 11.14C190.771 11.14 190.319 11.0327 189.899 10.818C189.479 10.6033 189.138 10.3373 188.877 10.02V10.426C188.877 10.6127 188.811 10.7713 188.681 10.902C188.559 11.0327 188.401 11.098 188.205 11.098C188.018 11.098 187.859 11.0373 187.729 10.916C187.607 10.7853 187.547 10.622 187.547 10.426V1.312C187.547 1.116 187.607 0.957333 187.729 0.836C187.85 0.705333 188.009 0.64 188.205 0.64C188.401 0.64 188.559 0.705333 188.681 0.836C188.811 0.966666 188.877 1.12533 188.877 1.312V4.728C189.101 4.392 189.427 4.10267 189.857 3.86C190.286 3.61733 190.743 3.496 191.229 3.496ZM191.075 9.908C191.504 9.908 191.891 9.796 192.237 9.572C192.582 9.33867 192.848 9.026 193.035 8.634C193.231 8.23267 193.329 7.78933 193.329 7.304C193.329 6.81867 193.231 6.38 193.035 5.988C192.848 5.596 192.582 5.288 192.237 5.064C191.891 4.84 191.504 4.728 191.075 4.728C190.636 4.728 190.244 4.84 189.899 5.064C189.553 5.288 189.283 5.596 189.087 5.988C188.9 6.37067 188.807 6.80933 188.807 7.304C188.807 7.79867 188.9 8.242 189.087 8.634C189.283 9.026 189.553 9.33867 189.899 9.572C190.244 9.796 190.636 9.908 191.075 9.908ZM197.406 10.328C197.406 10.5147 197.341 10.6733 197.21 10.804C197.089 10.9347 196.93 11 196.734 11C196.548 11 196.389 10.9347 196.258 10.804C196.137 10.6733 196.076 10.5147 196.076 10.328V4.266C196.076 4.07933 196.137 3.92067 196.258 3.79C196.389 3.65933 196.548 3.594 196.734 3.594C196.93 3.594 197.089 3.65933 197.21 3.79C197.341 3.92067 197.406 4.07933 197.406 4.266V10.328ZM196.734 2.67C196.464 2.67 196.268 2.62333 196.146 2.53C196.034 2.42733 195.978 2.26867 195.978 2.054V1.83C195.978 1.606 196.039 1.44733 196.16 1.354C196.291 1.26067 196.487 1.214 196.748 1.214C197.01 1.214 197.196 1.26533 197.308 1.368C197.43 1.46133 197.49 1.61533 197.49 1.83V2.054C197.49 2.278 197.43 2.43667 197.308 2.53C197.187 2.62333 196.996 2.67 196.734 2.67ZM203.056 3.496C204.736 3.496 205.576 4.504 205.576 6.52V10.328C205.576 10.5147 205.511 10.6733 205.38 10.804C205.259 10.9347 205.1 11 204.904 11C204.718 11 204.559 10.9347 204.428 10.804C204.307 10.6733 204.246 10.5147 204.246 10.328V6.534C204.246 5.98333 204.12 5.54467 203.868 5.218C203.616 4.89133 203.206 4.728 202.636 4.728C202.263 4.728 201.922 4.812 201.614 4.98C201.316 5.13867 201.078 5.358 200.9 5.638C200.732 5.90867 200.648 6.20733 200.648 6.534V10.328C200.648 10.5147 200.583 10.6733 200.452 10.804C200.331 10.9347 200.172 11 199.976 11C199.78 11 199.622 10.9393 199.5 10.818C199.379 10.6873 199.318 10.524 199.318 10.328V4.336C199.318 4.14933 199.379 3.99067 199.5 3.86C199.631 3.72933 199.79 3.664 199.976 3.664C200.172 3.664 200.331 3.72933 200.452 3.86C200.583 3.99067 200.648 4.14933 200.648 4.336V4.826C200.891 4.45267 201.227 4.14 201.656 3.888C202.095 3.62667 202.562 3.496 203.056 3.496ZM214.002 7.052C213.993 7.22 213.923 7.36467 213.792 7.486C213.662 7.598 213.508 7.654 213.33 7.654H208.402C208.468 8.33533 208.724 8.88133 209.172 9.292C209.63 9.70267 210.185 9.908 210.838 9.908C211.286 9.908 211.65 9.84267 211.93 9.712C212.21 9.58133 212.458 9.41333 212.672 9.208C212.812 9.124 212.948 9.082 213.078 9.082C213.237 9.082 213.368 9.138 213.47 9.25C213.582 9.362 213.638 9.49267 213.638 9.642C213.638 9.838 213.545 10.0153 213.358 10.174C213.088 10.4447 212.728 10.6733 212.28 10.86C211.832 11.0467 211.375 11.14 210.908 11.14C210.152 11.14 209.485 10.9813 208.906 10.664C208.337 10.3467 207.894 9.90333 207.576 9.334C207.268 8.76467 207.114 8.12067 207.114 7.402C207.114 6.618 207.273 5.932 207.59 5.344C207.917 4.74667 208.342 4.28933 208.864 3.972C209.396 3.65467 209.966 3.496 210.572 3.496C211.17 3.496 211.73 3.65 212.252 3.958C212.775 4.266 213.195 4.69067 213.512 5.232C213.83 5.77333 213.993 6.38 214.002 7.052ZM210.572 4.728C210.05 4.728 209.597 4.87733 209.214 5.176C208.832 5.46533 208.58 5.918 208.458 6.534H212.588V6.422C212.542 5.92733 212.318 5.52133 211.916 5.204C211.524 4.88667 211.076 4.728 210.572 4.728ZM217.535 4.966V9.138C217.535 9.60467 217.745 9.838 218.165 9.838C218.23 9.838 218.319 9.824 218.431 9.796C218.543 9.75867 218.631 9.74 218.697 9.74C218.818 9.74 218.921 9.79133 219.005 9.894C219.089 9.99667 219.131 10.1273 219.131 10.286C219.131 10.482 219.019 10.65 218.795 10.79C218.571 10.93 218.319 11 218.039 11C217.731 11 217.446 10.9673 217.185 10.902C216.933 10.8367 216.704 10.6733 216.499 10.412C216.303 10.1413 216.205 9.73533 216.205 9.194V4.966H215.393C215.215 4.966 215.066 4.91 214.945 4.798C214.833 4.67667 214.777 4.52733 214.777 4.35C214.777 4.17267 214.833 4.028 214.945 3.916C215.066 3.804 215.215 3.748 215.393 3.748H216.205V2.572C216.205 2.38533 216.265 2.22667 216.387 2.096C216.517 1.96533 216.681 1.9 216.877 1.9C217.063 1.9 217.217 1.96533 217.339 2.096C217.469 2.22667 217.535 2.38533 217.535 2.572V3.748H218.697C218.874 3.748 219.019 3.80867 219.131 3.93C219.252 4.042 219.313 4.18667 219.313 4.364C219.313 4.54133 219.252 4.686 219.131 4.798C219.019 4.91 218.874 4.966 218.697 4.966H217.535Z" fill="#8F8DA6"/>
</svg>
