<svg width="131" height="12" viewBox="0 0 131 12" fill="none" xmlns="http://www.w3.org/2000/svg">
<path d="M4.278 1.2C5.15533 1.2 5.90667 1.41933 6.532 1.858C7.15733 2.29667 7.62867 2.88933 7.946 3.636C8.26333 4.37333 8.422 5.19467 8.422 6.1C8.422 7.01467 8.26333 7.84533 7.946 8.592C7.62867 9.32933 7.15733 9.91733 6.532 10.356C5.90667 10.7853 5.15533 11 4.278 11H0.834C0.647333 11 0.488667 10.9347 0.358 10.804C0.227333 10.6733 0.162 10.5147 0.162 10.328V1.872C0.162 1.68533 0.227333 1.52667 0.358 1.396C0.488667 1.26533 0.647333 1.2 0.834 1.2H4.278ZM4.138 9.712C5.09 9.712 5.804 9.376 6.28 8.704C6.756 8.02267 6.994 7.15467 6.994 6.1C6.994 5.05467 6.75133 4.19133 6.266 3.51C5.79 2.82867 5.08067 2.488 4.138 2.488H1.548V9.712H4.138ZM16.5785 7.052C16.5692 7.22 16.4992 7.36467 16.3685 7.486C16.2379 7.598 16.0839 7.654 15.9065 7.654H10.9785C11.0439 8.33533 11.3005 8.88133 11.7485 9.292C12.2059 9.70267 12.7612 9.908 13.4145 9.908C13.8625 9.908 14.2265 9.84267 14.5065 9.712C14.7865 9.58133 15.0339 9.41333 15.2485 9.208C15.3885 9.124 15.5239 9.082 15.6545 9.082C15.8132 9.082 15.9439 9.138 16.0465 9.25C16.1585 9.362 16.2145 9.49267 16.2145 9.642C16.2145 9.838 16.1212 10.0153 15.9345 10.174C15.6639 10.4447 15.3045 10.6733 14.8565 10.86C14.4085 11.0467 13.9512 11.14 13.4845 11.14C12.7285 11.14 12.0612 10.9813 11.4825 10.664C10.9132 10.3467 10.4699 9.90333 10.1525 9.334C9.84453 8.76467 9.69053 8.12067 9.69053 7.402C9.69053 6.618 9.8492 5.932 10.1665 5.344C10.4932 4.74667 10.9179 4.28933 11.4405 3.972C11.9725 3.65467 12.5419 3.496 13.1485 3.496C13.7459 3.496 14.3059 3.65 14.8285 3.958C15.3512 4.266 15.7712 4.69067 16.0885 5.232C16.4059 5.77333 16.5692 6.38 16.5785 7.052ZM13.1485 4.728C12.6259 4.728 12.1732 4.87733 11.7905 5.176C11.4079 5.46533 11.1559 5.918 11.0345 6.534H15.1645V6.422C15.1179 5.92733 14.8939 5.52133 14.4925 5.204C14.1005 4.88667 13.6525 4.728 13.1485 4.728ZM13.1065 3.146C13.0319 3.146 12.9525 3.11333 12.8685 3.048C12.7845 2.98267 12.7472 2.894 12.7565 2.782C12.7565 2.70733 12.7845 2.62333 12.8405 2.53L13.6665 1.144C13.7412 1.01333 13.8299 0.905999 13.9325 0.821999C14.0445 0.737999 14.1705 0.695999 14.3105 0.695999C14.5159 0.695999 14.6699 0.751999 14.7725 0.863999C14.8845 0.966666 14.9359 1.10667 14.9265 1.284C14.9265 1.452 14.8565 1.61533 14.7165 1.774L13.6665 2.922C13.5172 3.07133 13.3305 3.146 13.1065 3.146ZM21.2589 1.844C20.9509 1.844 20.7222 1.93733 20.5729 2.124C20.4329 2.31067 20.3629 2.53933 20.3629 2.81V3.79H21.7489C21.9356 3.79 22.0849 3.85067 22.1969 3.972C22.3182 4.084 22.3789 4.22867 22.3789 4.406C22.3789 4.58333 22.3182 4.728 22.1969 4.84C22.0849 4.952 21.9356 5.008 21.7489 5.008H20.3629V10.328C20.3629 10.5147 20.2976 10.6733 20.1669 10.804C20.0456 10.9347 19.8869 11 19.6909 11C19.5042 11 19.3456 10.9347 19.2149 10.804C19.0936 10.6733 19.0329 10.5147 19.0329 10.328V5.008H18.1649C17.9876 5.008 17.8382 4.952 17.7169 4.84C17.5956 4.728 17.5349 4.58333 17.5349 4.406C17.5349 4.22867 17.5956 4.084 17.7169 3.972C17.8382 3.85067 17.9876 3.79 18.1649 3.79H19.0329V2.81C19.0329 2.15667 19.2429 1.63867 19.6629 1.256C20.0829 0.863999 20.6756 0.668 21.4409 0.668C21.7582 0.668 22.0382 0.728666 22.2809 0.85C22.5236 0.961999 22.6449 1.13467 22.6449 1.368C22.6449 1.54533 22.5889 1.69467 22.4769 1.816C22.3742 1.928 22.2482 1.984 22.0989 1.984C22.0616 1.984 21.9589 1.96533 21.7909 1.928C21.5856 1.872 21.4082 1.844 21.2589 1.844ZM24.8429 10.328C24.8429 10.5147 24.7776 10.6733 24.6469 10.804C24.5256 10.9347 24.3669 11 24.1709 11C23.9842 11 23.8256 10.9347 23.6949 10.804C23.5736 10.6733 23.5129 10.5147 23.5129 10.328V4.266C23.5129 4.07933 23.5736 3.92067 23.6949 3.79C23.8256 3.65933 23.9842 3.594 24.1709 3.594C24.3669 3.594 24.5256 3.65933 24.6469 3.79C24.7776 3.92067 24.8429 4.07933 24.8429 4.266V10.328ZM24.1709 2.67C23.9002 2.67 23.7042 2.62333 23.5829 2.53C23.4709 2.42733 23.4149 2.26867 23.4149 2.054V1.83C23.4149 1.606 23.4756 1.44733 23.5969 1.354C23.7276 1.26067 23.9236 1.214 24.1849 1.214C24.4462 1.214 24.6329 1.26533 24.7449 1.368C24.8662 1.46133 24.9269 1.61533 24.9269 1.83V2.054C24.9269 2.278 24.8662 2.43667 24.7449 2.53C24.6236 2.62333 24.4322 2.67 24.1709 2.67ZM30.5015 3.496C32.1815 3.496 33.0215 4.504 33.0215 6.52V10.328C33.0215 10.5147 32.9562 10.6733 32.8255 10.804C32.7042 10.9347 32.5455 11 32.3495 11C32.1629 11 32.0042 10.9347 31.8735 10.804C31.7522 10.6733 31.6915 10.5147 31.6915 10.328V6.534C31.6915 5.98333 31.5655 5.54467 31.3135 5.218C31.0615 4.89133 30.6509 4.728 30.0815 4.728C29.7082 4.728 29.3675 4.812 29.0595 4.98C28.7609 5.13867 28.5229 5.358 28.3455 5.638C28.1775 5.90867 28.0935 6.20733 28.0935 6.534V10.328C28.0935 10.5147 28.0282 10.6733 27.8975 10.804C27.7762 10.9347 27.6175 11 27.4215 11C27.2255 11 27.0669 10.9393 26.9455 10.818C26.8242 10.6873 26.7635 10.524 26.7635 10.328V4.336C26.7635 4.14933 26.8242 3.99067 26.9455 3.86C27.0762 3.72933 27.2349 3.664 27.4215 3.664C27.6175 3.664 27.7762 3.72933 27.8975 3.86C28.0282 3.99067 28.0935 4.14933 28.0935 4.336V4.826C28.3362 4.45267 28.6722 4.14 29.1015 3.888C29.5402 3.62667 30.0069 3.496 30.5015 3.496ZM36.2677 10.328C36.2677 10.5147 36.2023 10.6733 36.0717 10.804C35.9503 10.9347 35.7917 11 35.5957 11C35.409 11 35.2503 10.9347 35.1197 10.804C34.9983 10.6733 34.9377 10.5147 34.9377 10.328V4.266C34.9377 4.07933 34.9983 3.92067 35.1197 3.79C35.2503 3.65933 35.409 3.594 35.5957 3.594C35.7917 3.594 35.9503 3.65933 36.0717 3.79C36.2023 3.92067 36.2677 4.07933 36.2677 4.266V10.328ZM35.5957 2.67C35.325 2.67 35.129 2.62333 35.0077 2.53C34.8957 2.42733 34.8397 2.26867 34.8397 2.054V1.83C34.8397 1.606 34.9003 1.44733 35.0217 1.354C35.1523 1.26067 35.3483 1.214 35.6097 1.214C35.871 1.214 36.0577 1.26533 36.1697 1.368C36.291 1.46133 36.3517 1.61533 36.3517 1.83V2.054C36.3517 2.278 36.291 2.43667 36.1697 2.53C36.0483 2.62333 35.857 2.67 35.5957 2.67ZM37.7595 9.852C37.6755 9.72133 37.6335 9.59533 37.6335 9.474C37.6335 9.28733 37.7315 9.12867 37.9275 8.998C38.0209 8.93267 38.1282 8.9 38.2495 8.9C38.4175 8.9 38.5715 8.97 38.7115 9.11C38.9915 9.42733 39.2902 9.66533 39.6075 9.824C39.9342 9.98267 40.3215 10.062 40.7695 10.062C41.1242 10.0527 41.4369 9.97333 41.7075 9.824C41.9782 9.66533 42.1135 9.41333 42.1135 9.068C42.1135 8.75067 41.9735 8.508 41.6935 8.34C41.4229 8.172 41.0215 8.018 40.4895 7.878C39.9669 7.738 39.5329 7.59333 39.1875 7.444C38.8422 7.28533 38.5482 7.06133 38.3055 6.772C38.0722 6.47333 37.9555 6.086 37.9555 5.61C37.9555 5.19 38.0722 4.82133 38.3055 4.504C38.5482 4.18667 38.8655 3.93933 39.2575 3.762C39.6589 3.58467 40.0929 3.496 40.5595 3.496C41.0075 3.496 41.4509 3.58 41.8895 3.748C42.3375 3.916 42.7015 4.17267 42.9815 4.518C43.0935 4.64867 43.1495 4.784 43.1495 4.924C43.1495 5.07333 43.0749 5.218 42.9255 5.358C42.8322 5.442 42.7155 5.484 42.5755 5.484C42.4075 5.484 42.2722 5.428 42.1695 5.316C41.9735 5.092 41.7309 4.91933 41.4415 4.798C41.1615 4.67667 40.8489 4.616 40.5035 4.616C40.1489 4.616 39.8455 4.69067 39.5935 4.84C39.3509 4.98 39.2295 5.22267 39.2295 5.568C39.2389 5.89467 39.3789 6.13733 39.6495 6.296C39.9295 6.45467 40.3542 6.60867 40.9235 6.758C41.4182 6.88867 41.8289 7.02867 42.1555 7.178C42.4822 7.32733 42.7575 7.55133 42.9815 7.85C43.2055 8.13933 43.3175 8.522 43.3175 8.998C43.3175 9.43667 43.1915 9.81933 42.9395 10.146C42.6875 10.4633 42.3562 10.7107 41.9455 10.888C41.5442 11.056 41.1149 11.14 40.6575 11.14C40.0695 11.14 39.5235 11.0373 39.0195 10.832C38.5249 10.6267 38.1049 10.3 37.7595 9.852ZM44.4314 9.852C44.3474 9.72133 44.3054 9.59533 44.3054 9.474C44.3054 9.28733 44.4034 9.12867 44.5994 8.998C44.6928 8.93267 44.8001 8.9 44.9214 8.9C45.0894 8.9 45.2434 8.97 45.3834 9.11C45.6634 9.42733 45.9621 9.66533 46.2794 9.824C46.6061 9.98267 46.9934 10.062 47.4414 10.062C47.7961 10.0527 48.1088 9.97333 48.3794 9.824C48.6501 9.66533 48.7854 9.41333 48.7854 9.068C48.7854 8.75067 48.6454 8.508 48.3654 8.34C48.0948 8.172 47.6934 8.018 47.1614 7.878C46.6388 7.738 46.2048 7.59333 45.8594 7.444C45.5141 7.28533 45.2201 7.06133 44.9774 6.772C44.7441 6.47333 44.6274 6.086 44.6274 5.61C44.6274 5.19 44.7441 4.82133 44.9774 4.504C45.2201 4.18667 45.5374 3.93933 45.9294 3.762C46.3308 3.58467 46.7648 3.496 47.2314 3.496C47.6794 3.496 48.1228 3.58 48.5614 3.748C49.0094 3.916 49.3734 4.17267 49.6534 4.518C49.7654 4.64867 49.8214 4.784 49.8214 4.924C49.8214 5.07333 49.7468 5.218 49.5974 5.358C49.5041 5.442 49.3874 5.484 49.2474 5.484C49.0794 5.484 48.9441 5.428 48.8414 5.316C48.6454 5.092 48.4028 4.91933 48.1134 4.798C47.8334 4.67667 47.5208 4.616 47.1754 4.616C46.8208 4.616 46.5174 4.69067 46.2654 4.84C46.0228 4.98 45.9014 5.22267 45.9014 5.568C45.9108 5.89467 46.0508 6.13733 46.3214 6.296C46.6014 6.45467 47.0261 6.60867 47.5954 6.758C48.0901 6.88867 48.5008 7.02867 48.8274 7.178C49.1541 7.32733 49.4294 7.55133 49.6534 7.85C49.8774 8.13933 49.9894 8.522 49.9894 8.998C49.9894 9.43667 49.8634 9.81933 49.6114 10.146C49.3594 10.4633 49.0281 10.7107 48.6174 10.888C48.2161 11.056 47.7868 11.14 47.3294 11.14C46.7414 11.14 46.1954 11.0373 45.6914 10.832C45.1968 10.6267 44.7768 10.3 44.4314 9.852ZM57.9633 7.052C57.954 7.22 57.884 7.36467 57.7533 7.486C57.6226 7.598 57.4686 7.654 57.2913 7.654H52.3633C52.4286 8.33533 52.6853 8.88133 53.1333 9.292C53.5906 9.70267 54.146 9.908 54.7993 9.908C55.2473 9.908 55.6113 9.84267 55.8913 9.712C56.1713 9.58133 56.4186 9.41333 56.6333 9.208C56.7733 9.124 56.9086 9.082 57.0393 9.082C57.198 9.082 57.3286 9.138 57.4313 9.25C57.5433 9.362 57.5993 9.49267 57.5993 9.642C57.5993 9.838 57.506 10.0153 57.3193 10.174C57.0486 10.4447 56.6893 10.6733 56.2413 10.86C55.7933 11.0467 55.336 11.14 54.8693 11.14C54.1133 11.14 53.446 10.9813 52.8673 10.664C52.298 10.3467 51.8546 9.90333 51.5373 9.334C51.2293 8.76467 51.0753 8.12067 51.0753 7.402C51.0753 6.618 51.234 5.932 51.5513 5.344C51.878 4.74667 52.3026 4.28933 52.8253 3.972C53.3573 3.65467 53.9266 3.496 54.5333 3.496C55.1306 3.496 55.6906 3.65 56.2133 3.958C56.736 4.266 57.156 4.69067 57.4733 5.232C57.7906 5.77333 57.954 6.38 57.9633 7.052ZM54.5333 4.728C54.0106 4.728 53.558 4.87733 53.1753 5.176C52.7926 5.46533 52.5406 5.918 52.4193 6.534H56.5493V6.422C56.5026 5.92733 56.2786 5.52133 55.8773 5.204C55.4853 4.88667 55.0373 4.728 54.5333 4.728ZM64.1557 9.768C64.333 9.768 64.4823 9.82867 64.6037 9.95C64.725 10.062 64.7857 10.2067 64.7857 10.384C64.7857 10.5613 64.725 10.7107 64.6037 10.832C64.4823 10.944 64.333 11 64.1557 11H59.6337C59.4563 11 59.307 10.9347 59.1857 10.804C59.0737 10.6733 59.0177 10.538 59.0177 10.398C59.027 10.2767 59.0457 10.1787 59.0737 10.104C59.1017 10.02 59.153 9.92667 59.2277 9.824L62.8957 4.924H59.8577C59.6803 4.924 59.531 4.86333 59.4097 4.742C59.2883 4.62067 59.2277 4.47133 59.2277 4.294C59.2277 4.11667 59.2837 3.972 59.3957 3.86C59.517 3.748 59.671 3.692 59.8577 3.692H64.1557C64.333 3.692 64.4777 3.75733 64.5897 3.888C64.711 4.01867 64.767 4.17733 64.7577 4.364C64.7483 4.45733 64.7297 4.54133 64.7017 4.616C64.683 4.68133 64.6363 4.756 64.5617 4.84L60.8657 9.768H64.1557ZM75.7444 3.594C75.9217 3.594 76.0711 3.65467 76.1924 3.776C76.3137 3.888 76.3744 4.02333 76.3744 4.182C76.3744 4.266 76.3417 4.38267 76.2764 4.532L73.6164 10.58C73.5604 10.7013 73.4811 10.7993 73.3784 10.874C73.2757 10.9487 73.1637 10.9907 73.0424 11C72.8931 11.0187 72.7531 10.9907 72.6224 10.916C72.5011 10.8413 72.4077 10.7293 72.3424 10.58L69.6824 4.532C69.6357 4.392 69.6124 4.27533 69.6124 4.182C69.6124 4.03267 69.6731 3.89733 69.7944 3.776C69.9157 3.65467 70.0744 3.594 70.2704 3.594C70.4104 3.594 70.5364 3.63133 70.6484 3.706C70.7604 3.77133 70.8491 3.874 70.9144 4.014L73.0284 8.928L75.1424 4.014C75.2731 3.734 75.4737 3.594 75.7444 3.594ZM84.69 7.332C84.69 8.06 84.5266 8.71333 84.2 9.292C83.8733 9.87067 83.4253 10.3233 82.856 10.65C82.296 10.9767 81.6753 11.14 80.994 11.14C80.3126 11.14 79.6873 10.9767 79.118 10.65C78.558 10.3233 78.1146 9.87067 77.788 9.292C77.4613 8.71333 77.298 8.06 77.298 7.332C77.298 6.604 77.4613 5.946 77.788 5.358C78.1146 4.77 78.558 4.31267 79.118 3.986C79.6873 3.65933 80.3126 3.496 80.994 3.496C81.6753 3.496 82.296 3.65933 82.856 3.986C83.4253 4.31267 83.8733 4.77 84.2 5.358C84.5266 5.946 84.69 6.604 84.69 7.332ZM83.36 7.332C83.36 6.828 83.2526 6.38 83.038 5.988C82.8326 5.58667 82.548 5.27867 82.184 5.064C81.8293 4.84 81.4326 4.728 80.994 4.728C80.5553 4.728 80.154 4.84 79.79 5.064C79.4353 5.27867 79.1506 5.58667 78.936 5.988C78.7306 6.38 78.628 6.828 78.628 7.332C78.628 7.82667 78.7306 8.27 78.936 8.662C79.1506 9.054 79.4353 9.362 79.79 9.586C80.154 9.80067 80.5553 9.908 80.994 9.908C81.4326 9.908 81.8293 9.80067 82.184 9.586C82.548 9.362 82.8326 9.054 83.038 8.662C83.2526 8.27 83.36 7.82667 83.36 7.332ZM85.8162 9.852C85.7322 9.72133 85.6902 9.59533 85.6902 9.474C85.6902 9.28733 85.7882 9.12867 85.9842 8.998C86.0775 8.93267 86.1849 8.9 86.3062 8.9C86.4742 8.9 86.6282 8.97 86.7682 9.11C87.0482 9.42733 87.3469 9.66533 87.6642 9.824C87.9909 9.98267 88.3782 10.062 88.8262 10.062C89.1809 10.0527 89.4935 9.97333 89.7642 9.824C90.0349 9.66533 90.1702 9.41333 90.1702 9.068C90.1702 8.75067 90.0302 8.508 89.7502 8.34C89.4795 8.172 89.0782 8.018 88.5462 7.878C88.0235 7.738 87.5895 7.59333 87.2442 7.444C86.8989 7.28533 86.6049 7.06133 86.3622 6.772C86.1289 6.47333 86.0122 6.086 86.0122 5.61C86.0122 5.19 86.1289 4.82133 86.3622 4.504C86.6049 4.18667 86.9222 3.93933 87.3142 3.762C87.7155 3.58467 88.1495 3.496 88.6162 3.496C89.0642 3.496 89.5075 3.58 89.9462 3.748C90.3942 3.916 90.7582 4.17267 91.0382 4.518C91.1502 4.64867 91.2062 4.784 91.2062 4.924C91.2062 5.07333 91.1315 5.218 90.9822 5.358C90.8889 5.442 90.7722 5.484 90.6322 5.484C90.4642 5.484 90.3289 5.428 90.2262 5.316C90.0302 5.092 89.7875 4.91933 89.4982 4.798C89.2182 4.67667 88.9055 4.616 88.5602 4.616C88.2055 4.616 87.9022 4.69067 87.6502 4.84C87.4075 4.98 87.2862 5.22267 87.2862 5.568C87.2955 5.89467 87.4355 6.13733 87.7062 6.296C87.9862 6.45467 88.4109 6.60867 88.9802 6.758C89.4749 6.88867 89.8855 7.02867 90.2122 7.178C90.5389 7.32733 90.8142 7.55133 91.0382 7.85C91.2622 8.13933 91.3742 8.522 91.3742 8.998C91.3742 9.43667 91.2482 9.81933 90.9962 10.146C90.7442 10.4633 90.4129 10.7107 90.0022 10.888C89.6009 11.056 89.1715 11.14 88.7142 11.14C88.1262 11.14 87.5802 11.0373 87.0762 10.832C86.5815 10.6267 86.1615 10.3 85.8162 9.852ZM98.7789 4.966V9.138C98.7789 9.60467 98.9889 9.838 99.4089 9.838C99.4742 9.838 99.5629 9.824 99.6749 9.796C99.7869 9.75867 99.8755 9.74 99.9409 9.74C100.062 9.74 100.165 9.79133 100.249 9.894C100.333 9.99667 100.375 10.1273 100.375 10.286C100.375 10.482 100.263 10.65 100.039 10.79C99.8149 10.93 99.5629 11 99.2829 11C98.9749 11 98.6902 10.9673 98.4289 10.902C98.1769 10.8367 97.9482 10.6733 97.7429 10.412C97.5469 10.1413 97.4489 9.73533 97.4489 9.194V4.966H96.6369C96.4595 4.966 96.3102 4.91 96.1889 4.798C96.0769 4.67667 96.0209 4.52733 96.0209 4.35C96.0209 4.17267 96.0769 4.028 96.1889 3.916C96.3102 3.804 96.4595 3.748 96.6369 3.748H97.4489V2.572C97.4489 2.38533 97.5095 2.22667 97.6309 2.096C97.7615 1.96533 97.9249 1.9 98.1209 1.9C98.3075 1.9 98.4615 1.96533 98.5829 2.096C98.7135 2.22667 98.7789 2.38533 98.7789 2.572V3.748H99.9409C100.118 3.748 100.263 3.80867 100.375 3.93C100.496 4.042 100.557 4.18667 100.557 4.364C100.557 4.54133 100.496 4.686 100.375 4.798C100.263 4.91 100.118 4.966 99.9409 4.966H98.7789ZM108.059 3.566C108.255 3.566 108.414 3.63133 108.535 3.762C108.666 3.88333 108.731 4.04667 108.731 4.252V10.328C108.731 10.5147 108.666 10.6733 108.535 10.804C108.414 10.9347 108.255 11 108.059 11C107.863 11 107.705 10.9393 107.583 10.818C107.462 10.6873 107.401 10.524 107.401 10.328V9.964C107.159 10.2907 106.827 10.5707 106.407 10.804C105.987 11.028 105.535 11.14 105.049 11.14C104.415 11.14 103.836 10.9767 103.313 10.65C102.8 10.3233 102.394 9.87067 102.095 9.292C101.806 8.704 101.661 8.046 101.661 7.318C101.661 6.59 101.806 5.93667 102.095 5.358C102.394 4.77 102.8 4.31267 103.313 3.986C103.827 3.65933 104.391 3.496 105.007 3.496C105.502 3.496 105.959 3.59867 106.379 3.804C106.809 4.00933 107.149 4.27067 107.401 4.588V4.252C107.401 4.056 107.462 3.89267 107.583 3.762C107.705 3.63133 107.863 3.566 108.059 3.566ZM105.203 9.908C105.642 9.908 106.029 9.796 106.365 9.572C106.711 9.348 106.977 9.04 107.163 8.648C107.359 8.256 107.457 7.81267 107.457 7.318C107.457 6.83267 107.359 6.394 107.163 6.002C106.977 5.61 106.711 5.302 106.365 5.078C106.029 4.84467 105.642 4.728 105.203 4.728C104.765 4.728 104.373 4.84 104.027 5.064C103.691 5.288 103.425 5.596 103.229 5.988C103.043 6.38 102.949 6.82333 102.949 7.318C102.949 7.81267 103.043 8.256 103.229 8.648C103.425 9.04 103.691 9.348 104.027 9.572C104.373 9.796 104.765 9.908 105.203 9.908ZM114.363 3.496C114.606 3.496 114.816 3.56133 114.993 3.692C115.17 3.81333 115.259 3.96733 115.259 4.154C115.259 4.378 115.198 4.55067 115.077 4.672C114.965 4.784 114.825 4.84 114.657 4.84C114.573 4.84 114.447 4.812 114.279 4.756C114.083 4.69067 113.929 4.658 113.817 4.658C113.528 4.658 113.243 4.76067 112.963 4.966C112.692 5.162 112.468 5.43733 112.291 5.792C112.123 6.13733 112.039 6.52467 112.039 6.954V10.328C112.039 10.5147 111.974 10.6733 111.843 10.804C111.722 10.9347 111.563 11 111.367 11C111.171 11 111.012 10.9393 110.891 10.818C110.77 10.6873 110.709 10.524 110.709 10.328V4.336C110.709 4.14933 110.77 3.99067 110.891 3.86C111.022 3.72933 111.18 3.664 111.367 3.664C111.563 3.664 111.722 3.72933 111.843 3.86C111.974 3.99067 112.039 4.14933 112.039 4.336V5.05C112.244 4.59267 112.552 4.224 112.963 3.944C113.374 3.65467 113.84 3.50533 114.363 3.496ZM117.752 10.328C117.752 10.5147 117.687 10.6733 117.556 10.804C117.435 10.9347 117.276 11 117.08 11C116.893 11 116.735 10.9347 116.604 10.804C116.483 10.6733 116.422 10.5147 116.422 10.328V4.266C116.422 4.07933 116.483 3.92067 116.604 3.79C116.735 3.65933 116.893 3.594 117.08 3.594C117.276 3.594 117.435 3.65933 117.556 3.79C117.687 3.92067 117.752 4.07933 117.752 4.266V10.328ZM117.08 2.67C116.809 2.67 116.613 2.62333 116.492 2.53C116.38 2.42733 116.324 2.26867 116.324 2.054V1.83C116.324 1.606 116.385 1.44733 116.506 1.354C116.637 1.26067 116.833 1.214 117.094 1.214C117.355 1.214 117.542 1.26533 117.654 1.368C117.775 1.46133 117.836 1.61533 117.836 1.83V2.054C117.836 2.278 117.775 2.43667 117.654 2.53C117.533 2.62333 117.341 2.67 117.08 2.67ZM122.8 1.844C122.492 1.844 122.263 1.93733 122.114 2.124C121.974 2.31067 121.904 2.53933 121.904 2.81V3.79H123.29C123.477 3.79 123.626 3.85067 123.738 3.972C123.859 4.084 123.92 4.22867 123.92 4.406C123.92 4.58333 123.859 4.728 123.738 4.84C123.626 4.952 123.477 5.008 123.29 5.008H121.904V10.328C121.904 10.5147 121.839 10.6733 121.708 10.804C121.587 10.9347 121.428 11 121.232 11C121.045 11 120.887 10.9347 120.756 10.804C120.635 10.6733 120.574 10.5147 120.574 10.328V5.008H119.706C119.529 5.008 119.379 4.952 119.258 4.84C119.137 4.728 119.076 4.58333 119.076 4.406C119.076 4.22867 119.137 4.084 119.258 3.972C119.379 3.85067 119.529 3.79 119.706 3.79H120.574V2.81C120.574 2.15667 120.784 1.63867 121.204 1.256C121.624 0.863999 122.217 0.668 122.982 0.668C123.299 0.668 123.579 0.728666 123.822 0.85C124.065 0.961999 124.186 1.13467 124.186 1.368C124.186 1.54533 124.13 1.69467 124.018 1.816C123.915 1.928 123.789 1.984 123.64 1.984C123.603 1.984 123.5 1.96533 123.332 1.928C123.127 1.872 122.949 1.844 122.8 1.844ZM124.699 9.852C124.615 9.72133 124.573 9.59533 124.573 9.474C124.573 9.28733 124.671 9.12867 124.867 8.998C124.96 8.93267 125.068 8.9 125.189 8.9C125.357 8.9 125.511 8.97 125.651 9.11C125.931 9.42733 126.23 9.66533 126.547 9.824C126.874 9.98267 127.261 10.062 127.709 10.062C128.064 10.0527 128.376 9.97333 128.647 9.824C128.918 9.66533 129.053 9.41333 129.053 9.068C129.053 8.75067 128.913 8.508 128.633 8.34C128.362 8.172 127.961 8.018 127.429 7.878C126.906 7.738 126.472 7.59333 126.127 7.444C125.782 7.28533 125.488 7.06133 125.245 6.772C125.012 6.47333 124.895 6.086 124.895 5.61C124.895 5.19 125.012 4.82133 125.245 4.504C125.488 4.18667 125.805 3.93933 126.197 3.762C126.598 3.58467 127.032 3.496 127.499 3.496C127.947 3.496 128.39 3.58 128.829 3.748C129.277 3.916 129.641 4.17267 129.921 4.518C130.033 4.64867 130.089 4.784 130.089 4.924C130.089 5.07333 130.014 5.218 129.865 5.358C129.772 5.442 129.655 5.484 129.515 5.484C129.347 5.484 129.212 5.428 129.109 5.316C128.913 5.092 128.67 4.91933 128.381 4.798C128.101 4.67667 127.788 4.616 127.443 4.616C127.088 4.616 126.785 4.69067 126.533 4.84C126.29 4.98 126.169 5.22267 126.169 5.568C126.178 5.89467 126.318 6.13733 126.589 6.296C126.869 6.45467 127.294 6.60867 127.863 6.758C128.358 6.88867 128.768 7.02867 129.095 7.178C129.422 7.32733 129.697 7.55133 129.921 7.85C130.145 8.13933 130.257 8.522 130.257 8.998C130.257 9.43667 130.131 9.81933 129.879 10.146C129.627 10.4633 129.296 10.7107 128.885 10.888C128.484 11.056 128.054 11.14 127.597 11.14C127.009 11.14 126.463 11.0373 125.959 10.832C125.464 10.6267 125.044 10.3 124.699 9.852Z" fill="#8F8DA6"/>
</svg>
