<svg width="295" height="14" viewBox="0 0 295 14" fill="none" xmlns="http://www.w3.org/2000/svg">
<path d="M4.082 1.2C4.57667 1.2 5.034 1.33533 5.454 1.606C5.874 1.86733 6.20533 2.22667 6.448 2.684C6.7 3.14133 6.826 3.64533 6.826 4.196C6.826 4.74667 6.7 5.25533 6.448 5.722C6.20533 6.18867 5.874 6.55733 5.454 6.828C5.034 7.09867 4.57667 7.234 4.082 7.234H1.45V10.328C1.45 10.5147 1.38933 10.6733 1.268 10.804C1.14667 10.9347 0.992667 11 0.806 11C0.61 11 0.451333 10.9393 0.33 10.818C0.218 10.6873 0.162 10.524 0.162 10.328V1.872C0.162 1.68533 0.227333 1.52667 0.358 1.396C0.488667 1.26533 0.647333 1.2 0.834 1.2H4.082ZM4.082 5.96C4.334 5.96 4.56733 5.88067 4.782 5.722C4.99667 5.554 5.16467 5.33467 5.286 5.064C5.41667 4.79333 5.482 4.504 5.482 4.196C5.482 3.72 5.342 3.31867 5.062 2.992C4.79133 2.656 4.46467 2.488 4.082 2.488H1.45V5.96H4.082ZM14.6918 7.052C14.6825 7.22 14.6125 7.36467 14.4818 7.486C14.3511 7.598 14.1971 7.654 14.0198 7.654H9.09181C9.15715 8.33533 9.41381 8.88133 9.86181 9.292C10.3191 9.70267 10.8745 9.908 11.5278 9.908C11.9758 9.908 12.3398 9.84267 12.6198 9.712C12.8998 9.58133 13.1471 9.41333 13.3618 9.208C13.5018 9.124 13.6371 9.082 13.7678 9.082C13.9265 9.082 14.0571 9.138 14.1598 9.25C14.2718 9.362 14.3278 9.49267 14.3278 9.642C14.3278 9.838 14.2345 10.0153 14.0478 10.174C13.7771 10.4447 13.4178 10.6733 12.9698 10.86C12.5218 11.0467 12.0645 11.14 11.5978 11.14C10.8418 11.14 10.1745 10.9813 9.59581 10.664C9.02648 10.3467 8.58315 9.90333 8.26581 9.334C7.95781 8.76467 7.80381 8.12067 7.80381 7.402C7.80381 6.618 7.96248 5.932 8.27981 5.344C8.60648 4.74667 9.03115 4.28933 9.55381 3.972C10.0858 3.65467 10.6551 3.496 11.2618 3.496C11.8591 3.496 12.4191 3.65 12.9418 3.958C13.4645 4.266 13.8845 4.69067 14.2018 5.232C14.5191 5.77333 14.6825 6.38 14.6918 7.052ZM11.2618 4.728C10.7391 4.728 10.2865 4.87733 9.90381 5.176C9.52115 5.46533 9.26915 5.918 9.14781 6.534H13.2778V6.422C13.2311 5.92733 13.0071 5.52133 12.6058 5.204C12.2138 4.88667 11.7658 4.728 11.2618 4.728ZM19.8902 3.496C20.1329 3.496 20.3429 3.56133 20.5202 3.692C20.6975 3.81333 20.7862 3.96733 20.7862 4.154C20.7862 4.378 20.7255 4.55067 20.6042 4.672C20.4922 4.784 20.3522 4.84 20.1842 4.84C20.1002 4.84 19.9742 4.812 19.8062 4.756C19.6102 4.69067 19.4562 4.658 19.3442 4.658C19.0549 4.658 18.7702 4.76067 18.4902 4.966C18.2195 5.162 17.9955 5.43733 17.8182 5.792C17.6502 6.13733 17.5662 6.52467 17.5662 6.954V10.328C17.5662 10.5147 17.5009 10.6733 17.3702 10.804C17.2489 10.9347 17.0902 11 16.8942 11C16.6982 11 16.5395 10.9393 16.4182 10.818C16.2969 10.6873 16.2362 10.524 16.2362 10.328V4.336C16.2362 4.14933 16.2969 3.99067 16.4182 3.86C16.5489 3.72933 16.7075 3.664 16.8942 3.664C17.0902 3.664 17.2489 3.72933 17.3702 3.86C17.5009 3.99067 17.5662 4.14933 17.5662 4.336V5.05C17.7715 4.59267 18.0795 4.224 18.4902 3.944C18.9009 3.65467 19.3675 3.50533 19.8902 3.496ZM21.5994 9.852C21.5154 9.72133 21.4734 9.59533 21.4734 9.474C21.4734 9.28733 21.5714 9.12867 21.7674 8.998C21.8607 8.93267 21.9681 8.9 22.0894 8.9C22.2574 8.9 22.4114 8.97 22.5514 9.11C22.8314 9.42733 23.1301 9.66533 23.4474 9.824C23.7741 9.98267 24.1614 10.062 24.6094 10.062C24.9641 10.0527 25.2767 9.97333 25.5474 9.824C25.8181 9.66533 25.9534 9.41333 25.9534 9.068C25.9534 8.75067 25.8134 8.508 25.5334 8.34C25.2627 8.172 24.8614 8.018 24.3294 7.878C23.8067 7.738 23.3727 7.59333 23.0274 7.444C22.6821 7.28533 22.3881 7.06133 22.1454 6.772C21.9121 6.47333 21.7954 6.086 21.7954 5.61C21.7954 5.19 21.9121 4.82133 22.1454 4.504C22.3881 4.18667 22.7054 3.93933 23.0974 3.762C23.4987 3.58467 23.9327 3.496 24.3994 3.496C24.8474 3.496 25.2907 3.58 25.7294 3.748C26.1774 3.916 26.5414 4.17267 26.8214 4.518C26.9334 4.64867 26.9894 4.784 26.9894 4.924C26.9894 5.07333 26.9147 5.218 26.7654 5.358C26.6721 5.442 26.5554 5.484 26.4154 5.484C26.2474 5.484 26.1121 5.428 26.0094 5.316C25.8134 5.092 25.5707 4.91933 25.2814 4.798C25.0014 4.67667 24.6887 4.616 24.3434 4.616C23.9887 4.616 23.6854 4.69067 23.4334 4.84C23.1907 4.98 23.0694 5.22267 23.0694 5.568C23.0787 5.89467 23.2187 6.13733 23.4894 6.296C23.7694 6.45467 24.1941 6.60867 24.7634 6.758C25.2581 6.88867 25.6687 7.02867 25.9954 7.178C26.3221 7.32733 26.5974 7.55133 26.8214 7.85C27.0454 8.13933 27.1574 8.522 27.1574 8.998C27.1574 9.43667 27.0314 9.81933 26.7794 10.146C26.5274 10.4633 26.1961 10.7107 25.7854 10.888C25.3841 11.056 24.9547 11.14 24.4974 11.14C23.9094 11.14 23.3634 11.0373 22.8594 10.832C22.3647 10.6267 21.9447 10.3 21.5994 9.852ZM35.6353 7.332C35.6353 8.06 35.4719 8.71333 35.1453 9.292C34.8186 9.87067 34.3706 10.3233 33.8013 10.65C33.2413 10.9767 32.6206 11.14 31.9393 11.14C31.2579 11.14 30.6326 10.9767 30.0633 10.65C29.5033 10.3233 29.0599 9.87067 28.7333 9.292C28.4066 8.71333 28.2433 8.06 28.2433 7.332C28.2433 6.604 28.4066 5.946 28.7333 5.358C29.0599 4.77 29.5033 4.31267 30.0633 3.986C30.6326 3.65933 31.2579 3.496 31.9393 3.496C32.6206 3.496 33.2413 3.65933 33.8013 3.986C34.3706 4.31267 34.8186 4.77 35.1453 5.358C35.4719 5.946 35.6353 6.604 35.6353 7.332ZM34.3053 7.332C34.3053 6.828 34.1979 6.38 33.9833 5.988C33.7779 5.58667 33.4933 5.27867 33.1293 5.064C32.7746 4.84 32.3779 4.728 31.9393 4.728C31.5006 4.728 31.0993 4.84 30.7353 5.064C30.3806 5.27867 30.0959 5.58667 29.8813 5.988C29.6759 6.38 29.5733 6.828 29.5733 7.332C29.5733 7.82667 29.6759 8.27 29.8813 8.662C30.0959 9.054 30.3806 9.362 30.7353 9.586C31.0993 9.80067 31.5006 9.908 31.9393 9.908C32.3779 9.908 32.7746 9.80067 33.1293 9.586C33.4933 9.362 33.7779 9.054 33.9833 8.662C34.1979 8.27 34.3053 7.82667 34.3053 7.332ZM40.9195 3.496C42.5995 3.496 43.4395 4.504 43.4395 6.52V10.328C43.4395 10.5147 43.3742 10.6733 43.2435 10.804C43.1222 10.9347 42.9635 11 42.7675 11C42.5808 11 42.4222 10.9347 42.2915 10.804C42.1702 10.6733 42.1095 10.5147 42.1095 10.328V6.534C42.1095 5.98333 41.9835 5.54467 41.7315 5.218C41.4795 4.89133 41.0688 4.728 40.4995 4.728C40.1262 4.728 39.7855 4.812 39.4775 4.98C39.1788 5.13867 38.9408 5.358 38.7635 5.638C38.5955 5.90867 38.5115 6.20733 38.5115 6.534V10.328C38.5115 10.5147 38.4462 10.6733 38.3155 10.804C38.1942 10.9347 38.0355 11 37.8395 11C37.6435 11 37.4848 10.9393 37.3635 10.818C37.2422 10.6873 37.1815 10.524 37.1815 10.328V4.336C37.1815 4.14933 37.2422 3.99067 37.3635 3.86C37.4942 3.72933 37.6528 3.664 37.8395 3.664C38.0355 3.664 38.1942 3.72933 38.3155 3.86C38.4462 3.99067 38.5115 4.14933 38.5115 4.336V4.826C38.7542 4.45267 39.0902 4.14 39.5195 3.888C39.9582 3.62667 40.4248 3.496 40.9195 3.496ZM51.3756 3.566C51.5716 3.566 51.7303 3.63133 51.8516 3.762C51.9823 3.88333 52.0476 4.04667 52.0476 4.252V10.328C52.0476 10.5147 51.9823 10.6733 51.8516 10.804C51.7303 10.9347 51.5716 11 51.3756 11C51.1796 11 51.021 10.9393 50.8996 10.818C50.7783 10.6873 50.7176 10.524 50.7176 10.328V9.964C50.475 10.2907 50.1436 10.5707 49.7236 10.804C49.3036 11.028 48.851 11.14 48.3656 11.14C47.731 11.14 47.1523 10.9767 46.6296 10.65C46.1163 10.3233 45.7103 9.87067 45.4116 9.292C45.1223 8.704 44.9776 8.046 44.9776 7.318C44.9776 6.59 45.1223 5.93667 45.4116 5.358C45.7103 4.77 46.1163 4.31267 46.6296 3.986C47.143 3.65933 47.7076 3.496 48.3236 3.496C48.8183 3.496 49.2756 3.59867 49.6956 3.804C50.125 4.00933 50.4656 4.27067 50.7176 4.588V4.252C50.7176 4.056 50.7783 3.89267 50.8996 3.762C51.021 3.63133 51.1796 3.566 51.3756 3.566ZM48.5196 9.908C48.9583 9.908 49.3456 9.796 49.6816 9.572C50.027 9.348 50.293 9.04 50.4796 8.648C50.6756 8.256 50.7736 7.81267 50.7736 7.318C50.7736 6.83267 50.6756 6.394 50.4796 6.002C50.293 5.61 50.027 5.302 49.6816 5.078C49.3456 4.84467 48.9583 4.728 48.5196 4.728C48.081 4.728 47.689 4.84 47.3436 5.064C47.0076 5.288 46.7416 5.596 46.5456 5.988C46.359 6.38 46.2656 6.82333 46.2656 7.318C46.2656 7.81267 46.359 8.256 46.5456 8.648C46.7416 9.04 47.0076 9.348 47.3436 9.572C47.689 9.796 48.081 9.908 48.5196 9.908ZM55.2853 10.328C55.2853 10.5147 55.2199 10.6733 55.0892 10.804C54.9679 10.9347 54.8093 11 54.6133 11C54.4266 11 54.2679 10.9347 54.1373 10.804C54.0159 10.6733 53.9552 10.5147 53.9552 10.328V4.266C53.9552 4.07933 54.0159 3.92067 54.1373 3.79C54.2679 3.65933 54.4266 3.594 54.6133 3.594C54.8093 3.594 54.9679 3.65933 55.0892 3.79C55.2199 3.92067 55.2853 4.07933 55.2853 4.266V10.328ZM54.6133 2.67C54.3426 2.67 54.1466 2.62333 54.0253 2.53C53.9133 2.42733 53.8573 2.26867 53.8573 2.054V1.83C53.8573 1.606 53.9179 1.44733 54.0393 1.354C54.1699 1.26067 54.3659 1.214 54.6273 1.214C54.8886 1.214 55.0753 1.26533 55.1873 1.368C55.3086 1.46133 55.3693 1.61533 55.3693 1.83V2.054C55.3693 2.278 55.3086 2.43667 55.1873 2.53C55.0659 2.62333 54.8746 2.67 54.6133 2.67ZM58.6391 10.328C58.6391 10.5147 58.5738 10.6733 58.4431 10.804C58.3125 10.9347 58.1538 11 57.9671 11C57.7805 11 57.6218 10.9347 57.4911 10.804C57.3698 10.6733 57.3091 10.5147 57.3091 10.328V1.312C57.3091 1.12533 57.3745 0.966666 57.5051 0.836C57.6358 0.705333 57.7945 0.64 57.9811 0.64C58.1678 0.64 58.3218 0.705333 58.4431 0.836C58.5738 0.966666 58.6391 1.12533 58.6391 1.312V10.328ZM61.9981 10.328C61.9981 10.5147 61.9328 10.6733 61.8021 10.804C61.6808 10.9347 61.5221 11 61.3261 11C61.1395 11 60.9808 10.9347 60.8501 10.804C60.7288 10.6733 60.6681 10.5147 60.6681 10.328V4.266C60.6681 4.07933 60.7288 3.92067 60.8501 3.79C60.9808 3.65933 61.1395 3.594 61.3261 3.594C61.5221 3.594 61.6808 3.65933 61.8021 3.79C61.9328 3.92067 61.9981 4.07933 61.9981 4.266V10.328ZM61.3261 2.67C61.0555 2.67 60.8595 2.62333 60.7381 2.53C60.6261 2.42733 60.5701 2.26867 60.5701 2.054V1.83C60.5701 1.606 60.6308 1.44733 60.7521 1.354C60.8828 1.26067 61.0788 1.214 61.3401 1.214C61.6015 1.214 61.7881 1.26533 61.9001 1.368C62.0215 1.46133 62.0821 1.61533 62.0821 1.83V2.054C62.0821 2.278 62.0215 2.43667 61.9001 2.53C61.7788 2.62333 61.5875 2.67 61.3261 2.67ZM63.49 9.852C63.406 9.72133 63.364 9.59533 63.364 9.474C63.364 9.28733 63.462 9.12867 63.658 8.998C63.7513 8.93267 63.8587 8.9 63.98 8.9C64.148 8.9 64.302 8.97 64.442 9.11C64.722 9.42733 65.0207 9.66533 65.338 9.824C65.6647 9.98267 66.052 10.062 66.5 10.062C66.8547 10.0527 67.1673 9.97333 67.438 9.824C67.7087 9.66533 67.844 9.41333 67.844 9.068C67.844 8.75067 67.704 8.508 67.424 8.34C67.1533 8.172 66.752 8.018 66.22 7.878C65.6973 7.738 65.2633 7.59333 64.918 7.444C64.5727 7.28533 64.2787 7.06133 64.036 6.772C63.8027 6.47333 63.686 6.086 63.686 5.61C63.686 5.19 63.8027 4.82133 64.036 4.504C64.2787 4.18667 64.596 3.93933 64.988 3.762C65.3893 3.58467 65.8233 3.496 66.29 3.496C66.738 3.496 67.1813 3.58 67.62 3.748C68.068 3.916 68.432 4.17267 68.712 4.518C68.824 4.64867 68.88 4.784 68.88 4.924C68.88 5.07333 68.8053 5.218 68.656 5.358C68.5627 5.442 68.446 5.484 68.306 5.484C68.138 5.484 68.0027 5.428 67.9 5.316C67.704 5.092 67.4613 4.91933 67.172 4.798C66.892 4.67667 66.5793 4.616 66.234 4.616C65.8793 4.616 65.576 4.69067 65.324 4.84C65.0813 4.98 64.96 5.22267 64.96 5.568C64.9693 5.89467 65.1093 6.13733 65.38 6.296C65.66 6.45467 66.0847 6.60867 66.654 6.758C67.1487 6.88867 67.5593 7.02867 67.886 7.178C68.2127 7.32733 68.488 7.55133 68.712 7.85C68.936 8.13933 69.048 8.522 69.048 8.998C69.048 9.43667 68.922 9.81933 68.67 10.146C68.418 10.4633 68.0867 10.7107 67.676 10.888C67.2747 11.056 66.8453 11.14 66.388 11.14C65.8 11.14 65.254 11.0373 64.75 10.832C64.2553 10.6267 63.8353 10.3 63.49 9.852ZM77.0219 7.052C77.0126 7.22 76.9426 7.36467 76.8119 7.486C76.6812 7.598 76.5272 7.654 76.3499 7.654H71.4219C71.4872 8.33533 71.7439 8.88133 72.1919 9.292C72.6492 9.70267 73.2046 9.908 73.8579 9.908C74.3059 9.908 74.6699 9.84267 74.9499 9.712C75.2299 9.58133 75.4772 9.41333 75.6919 9.208C75.8319 9.124 75.9672 9.082 76.0979 9.082C76.2566 9.082 76.3872 9.138 76.4899 9.25C76.6019 9.362 76.6579 9.49267 76.6579 9.642C76.6579 9.838 76.5646 10.0153 76.3779 10.174C76.1072 10.4447 75.7479 10.6733 75.2999 10.86C74.8519 11.0467 74.3946 11.14 73.9279 11.14C73.1719 11.14 72.5046 10.9813 71.9259 10.664C71.3566 10.3467 70.9132 9.90333 70.5959 9.334C70.2879 8.76467 70.1339 8.12067 70.1339 7.402C70.1339 6.618 70.2926 5.932 70.6099 5.344C70.9366 4.74667 71.3612 4.28933 71.8839 3.972C72.4159 3.65467 72.9852 3.496 73.5919 3.496C74.1892 3.496 74.7492 3.65 75.2719 3.958C75.7946 4.266 76.2146 4.69067 76.5319 5.232C76.8492 5.77333 77.0126 6.38 77.0219 7.052ZM73.5919 4.728C73.0692 4.728 72.6166 4.87733 72.2339 5.176C71.8512 5.46533 71.5992 5.918 71.4779 6.534H75.6079V6.422C75.5612 5.92733 75.3372 5.52133 74.9359 5.204C74.5439 4.88667 74.0959 4.728 73.5919 4.728ZM83.2143 9.768C83.3916 9.768 83.5409 9.82867 83.6623 9.95C83.7836 10.062 83.8443 10.2067 83.8443 10.384C83.8443 10.5613 83.7836 10.7107 83.6623 10.832C83.5409 10.944 83.3916 11 83.2143 11H78.6923C78.5149 11 78.3656 10.9347 78.2443 10.804C78.1323 10.6733 78.0763 10.538 78.0763 10.398C78.0856 10.2767 78.1043 10.1787 78.1323 10.104C78.1603 10.02 78.2116 9.92667 78.2863 9.824L81.9543 4.924H78.9163C78.7389 4.924 78.5896 4.86333 78.4683 4.742C78.3469 4.62067 78.2863 4.47133 78.2863 4.294C78.2863 4.11667 78.3423 3.972 78.4543 3.86C78.5756 3.748 78.7296 3.692 78.9163 3.692H83.2143C83.3916 3.692 83.5363 3.75733 83.6483 3.888C83.7696 4.01867 83.8256 4.17733 83.8163 4.364C83.8069 4.45733 83.7883 4.54133 83.7603 4.616C83.7416 4.68133 83.6949 4.756 83.6203 4.84L79.9243 9.768H83.2143ZM90.645 10.328C90.645 10.5147 90.5797 10.6733 90.449 10.804C90.3183 10.9347 90.1597 11 89.973 11C89.7863 11 89.6277 10.9347 89.497 10.804C89.3757 10.6733 89.315 10.5147 89.315 10.328V1.312C89.315 1.12533 89.3803 0.966666 89.511 0.836C89.6417 0.705333 89.8003 0.64 89.987 0.64C90.1737 0.64 90.3277 0.705333 90.449 0.836C90.5797 0.966666 90.645 1.12533 90.645 1.312V10.328ZM98.694 3.566C98.89 3.566 99.0487 3.63133 99.17 3.762C99.3007 3.88333 99.366 4.04667 99.366 4.252V10.328C99.366 10.5147 99.3007 10.6733 99.17 10.804C99.0487 10.9347 98.89 11 98.694 11C98.498 11 98.3393 10.9393 98.218 10.818C98.0967 10.6873 98.036 10.524 98.036 10.328V9.964C97.7933 10.2907 97.462 10.5707 97.042 10.804C96.622 11.028 96.1693 11.14 95.684 11.14C95.0493 11.14 94.4707 10.9767 93.948 10.65C93.4347 10.3233 93.0287 9.87067 92.73 9.292C92.4407 8.704 92.296 8.046 92.296 7.318C92.296 6.59 92.4407 5.93667 92.73 5.358C93.0287 4.77 93.4347 4.31267 93.948 3.986C94.4613 3.65933 95.026 3.496 95.642 3.496C96.1367 3.496 96.594 3.59867 97.014 3.804C97.4433 4.00933 97.784 4.27067 98.036 4.588V4.252C98.036 4.056 98.0967 3.89267 98.218 3.762C98.3393 3.63133 98.498 3.566 98.694 3.566ZM95.838 9.908C96.2767 9.908 96.664 9.796 97 9.572C97.3453 9.348 97.6113 9.04 97.798 8.648C97.994 8.256 98.092 7.81267 98.092 7.318C98.092 6.83267 97.994 6.394 97.798 6.002C97.6113 5.61 97.3453 5.302 97 5.078C96.664 4.84467 96.2767 4.728 95.838 4.728C95.3993 4.728 95.0073 4.84 94.662 5.064C94.326 5.288 94.06 5.596 93.864 5.988C93.6773 6.38 93.584 6.82333 93.584 7.318C93.584 7.81267 93.6773 8.256 93.864 8.648C94.06 9.04 94.326 9.348 94.662 9.572C95.0073 9.796 95.3993 9.908 95.838 9.908ZM111.176 0.64C111.372 0.64 111.531 0.705333 111.652 0.836C111.783 0.957333 111.848 1.116 111.848 1.312V10.328C111.848 10.5147 111.783 10.6733 111.652 10.804C111.531 10.9347 111.372 11 111.176 11C110.98 11 110.822 10.9393 110.7 10.818C110.579 10.6873 110.518 10.524 110.518 10.328V9.936C110.285 10.272 109.954 10.5567 109.524 10.79C109.104 11.0233 108.652 11.14 108.166 11.14C107.532 11.14 106.958 10.9767 106.444 10.65C105.931 10.3233 105.525 9.87067 105.226 9.292C104.928 8.704 104.778 8.046 104.778 7.318C104.778 6.59 104.923 5.93667 105.212 5.358C105.511 4.77 105.917 4.31267 106.43 3.986C106.944 3.65933 107.508 3.496 108.124 3.496C108.619 3.496 109.076 3.59867 109.496 3.804C109.916 4.00933 110.257 4.27533 110.518 4.602V1.312C110.518 1.116 110.579 0.957333 110.7 0.836C110.822 0.705333 110.98 0.64 111.176 0.64ZM108.32 9.908C108.759 9.908 109.146 9.796 109.482 9.572C109.828 9.348 110.094 9.04 110.28 8.648C110.476 8.256 110.574 7.81267 110.574 7.318C110.574 6.83267 110.476 6.394 110.28 6.002C110.094 5.60067 109.828 5.288 109.482 5.064C109.146 4.84 108.759 4.728 108.32 4.728C107.882 4.728 107.49 4.84 107.144 5.064C106.808 5.288 106.542 5.60067 106.346 6.002C106.16 6.394 106.066 6.83267 106.066 7.318C106.066 7.81267 106.16 8.256 106.346 8.648C106.542 9.04 106.808 9.348 107.144 9.572C107.49 9.796 107.882 9.908 108.32 9.908ZM115.086 10.328C115.086 10.5147 115.021 10.6733 114.89 10.804C114.769 10.9347 114.61 11 114.414 11C114.227 11 114.069 10.9347 113.938 10.804C113.817 10.6733 113.756 10.5147 113.756 10.328V4.266C113.756 4.07933 113.817 3.92067 113.938 3.79C114.069 3.65933 114.227 3.594 114.414 3.594C114.61 3.594 114.769 3.65933 114.89 3.79C115.021 3.92067 115.086 4.07933 115.086 4.266V10.328ZM114.414 2.67C114.143 2.67 113.947 2.62333 113.826 2.53C113.714 2.42733 113.658 2.26867 113.658 2.054V1.83C113.658 1.606 113.719 1.44733 113.84 1.354C113.971 1.26067 114.167 1.214 114.428 1.214C114.689 1.214 114.876 1.26533 114.988 1.368C115.109 1.46133 115.17 1.61533 115.17 1.83V2.054C115.17 2.278 115.109 2.43667 114.988 2.53C114.867 2.62333 114.675 2.67 114.414 2.67ZM116.578 9.852C116.494 9.72133 116.452 9.59533 116.452 9.474C116.452 9.28733 116.55 9.12867 116.746 8.998C116.839 8.93267 116.947 8.9 117.068 8.9C117.236 8.9 117.39 8.97 117.53 9.11C117.81 9.42733 118.109 9.66533 118.426 9.824C118.753 9.98267 119.14 10.062 119.588 10.062C119.943 10.0527 120.255 9.97333 120.526 9.824C120.797 9.66533 120.932 9.41333 120.932 9.068C120.932 8.75067 120.792 8.508 120.512 8.34C120.241 8.172 119.84 8.018 119.308 7.878C118.785 7.738 118.351 7.59333 118.006 7.444C117.661 7.28533 117.367 7.06133 117.124 6.772C116.891 6.47333 116.774 6.086 116.774 5.61C116.774 5.19 116.891 4.82133 117.124 4.504C117.367 4.18667 117.684 3.93933 118.076 3.762C118.477 3.58467 118.911 3.496 119.378 3.496C119.826 3.496 120.269 3.58 120.708 3.748C121.156 3.916 121.52 4.17267 121.8 4.518C121.912 4.64867 121.968 4.784 121.968 4.924C121.968 5.07333 121.893 5.218 121.744 5.358C121.651 5.442 121.534 5.484 121.394 5.484C121.226 5.484 121.091 5.428 120.988 5.316C120.792 5.092 120.549 4.91933 120.26 4.798C119.98 4.67667 119.667 4.616 119.322 4.616C118.967 4.616 118.664 4.69067 118.412 4.84C118.169 4.98 118.048 5.22267 118.048 5.568C118.057 5.89467 118.197 6.13733 118.468 6.296C118.748 6.45467 119.173 6.60867 119.742 6.758C120.237 6.88867 120.647 7.02867 120.974 7.178C121.301 7.32733 121.576 7.55133 121.8 7.85C122.024 8.13933 122.136 8.522 122.136 8.998C122.136 9.43667 122.01 9.81933 121.758 10.146C121.506 10.4633 121.175 10.7107 120.764 10.888C120.363 11.056 119.933 11.14 119.476 11.14C118.888 11.14 118.342 11.0373 117.838 10.832C117.343 10.6267 116.923 10.3 116.578 9.852ZM127.352 3.538C127.986 3.538 128.56 3.70133 129.074 4.028C129.587 4.34533 129.988 4.79333 130.278 5.372C130.576 5.95067 130.726 6.604 130.726 7.332C130.726 8.06 130.576 8.71333 130.278 9.292C129.988 9.86133 129.587 10.3093 129.074 10.636C128.56 10.9627 127.996 11.126 127.38 11.126C126.894 11.126 126.442 11.0187 126.022 10.804C125.602 10.5893 125.261 10.328 125 10.02V13.128C125 13.3147 124.934 13.4733 124.804 13.604C124.682 13.7347 124.524 13.8 124.328 13.8C124.141 13.8 123.982 13.7347 123.852 13.604C123.73 13.4827 123.67 13.324 123.67 13.128V4.322C123.67 4.126 123.73 3.96267 123.852 3.832C123.973 3.70133 124.132 3.636 124.328 3.636C124.524 3.636 124.682 3.70133 124.804 3.832C124.934 3.96267 125 4.126 125 4.322V4.728C125.224 4.40133 125.55 4.12133 125.98 3.888C126.409 3.65467 126.866 3.538 127.352 3.538ZM127.198 9.894C127.627 9.894 128.014 9.782 128.36 9.558C128.705 9.334 128.971 9.03067 129.158 8.648C129.354 8.256 129.452 7.81733 129.452 7.332C129.452 6.84667 129.354 6.41267 129.158 6.03C128.971 5.638 128.705 5.33 128.36 5.106C128.014 4.882 127.627 4.77 127.198 4.77C126.759 4.77 126.367 4.882 126.022 5.106C125.676 5.32067 125.406 5.624 125.21 6.016C125.023 6.408 124.93 6.84667 124.93 7.332C124.93 7.81733 125.023 8.256 125.21 8.648C125.406 9.04 125.676 9.348 126.022 9.572C126.367 9.78667 126.759 9.894 127.198 9.894ZM139.213 7.332C139.213 8.06 139.05 8.71333 138.723 9.292C138.397 9.87067 137.949 10.3233 137.379 10.65C136.819 10.9767 136.199 11.14 135.517 11.14C134.836 11.14 134.211 10.9767 133.641 10.65C133.081 10.3233 132.638 9.87067 132.311 9.292C131.985 8.71333 131.821 8.06 131.821 7.332C131.821 6.604 131.985 5.946 132.311 5.358C132.638 4.77 133.081 4.31267 133.641 3.986C134.211 3.65933 134.836 3.496 135.517 3.496C136.199 3.496 136.819 3.65933 137.379 3.986C137.949 4.31267 138.397 4.77 138.723 5.358C139.05 5.946 139.213 6.604 139.213 7.332ZM137.883 7.332C137.883 6.828 137.776 6.38 137.561 5.988C137.356 5.58667 137.071 5.27867 136.707 5.064C136.353 4.84 135.956 4.728 135.517 4.728C135.079 4.728 134.677 4.84 134.313 5.064C133.959 5.27867 133.674 5.58667 133.459 5.988C133.254 6.38 133.151 6.828 133.151 7.332C133.151 7.82667 133.254 8.27 133.459 8.662C133.674 9.054 133.959 9.362 134.313 9.586C134.677 9.80067 135.079 9.908 135.517 9.908C135.956 9.908 136.353 9.80067 136.707 9.586C137.071 9.362 137.356 9.054 137.561 8.662C137.776 8.27 137.883 7.82667 137.883 7.332ZM144.498 3.496C146.178 3.496 147.018 4.504 147.018 6.52V10.328C147.018 10.5147 146.952 10.6733 146.822 10.804C146.7 10.9347 146.542 11 146.346 11C146.159 11 146 10.9347 145.87 10.804C145.748 10.6733 145.688 10.5147 145.688 10.328V6.534C145.688 5.98333 145.562 5.54467 145.31 5.218C145.058 4.89133 144.647 4.728 144.078 4.728C143.704 4.728 143.364 4.812 143.056 4.98C142.757 5.13867 142.519 5.358 142.342 5.638C142.174 5.90867 142.09 6.20733 142.09 6.534V10.328C142.09 10.5147 142.024 10.6733 141.894 10.804C141.772 10.9347 141.614 11 141.418 11C141.222 11 141.063 10.9393 140.942 10.818C140.82 10.6873 140.76 10.524 140.76 10.328V4.336C140.76 4.14933 140.82 3.99067 140.942 3.86C141.072 3.72933 141.231 3.664 141.418 3.664C141.614 3.664 141.772 3.72933 141.894 3.86C142.024 3.99067 142.09 4.14933 142.09 4.336V4.826C142.332 4.45267 142.668 4.14 143.098 3.888C143.536 3.62667 144.003 3.496 144.498 3.496ZM150.264 10.328C150.264 10.5147 150.198 10.6733 150.068 10.804C149.946 10.9347 149.788 11 149.592 11C149.405 11 149.246 10.9347 149.116 10.804C148.994 10.6733 148.934 10.5147 148.934 10.328V4.266C148.934 4.07933 148.994 3.92067 149.116 3.79C149.246 3.65933 149.405 3.594 149.592 3.594C149.788 3.594 149.946 3.65933 150.068 3.79C150.198 3.92067 150.264 4.07933 150.264 4.266V10.328ZM149.592 2.67C149.321 2.67 149.125 2.62333 149.004 2.53C148.892 2.42733 148.836 2.26867 148.836 2.054V1.83C148.836 1.606 148.896 1.44733 149.018 1.354C149.148 1.26067 149.344 1.214 149.606 1.214C149.867 1.214 150.054 1.26533 150.166 1.368C150.287 1.46133 150.348 1.61533 150.348 1.83V2.054C150.348 2.278 150.287 2.43667 150.166 2.53C150.044 2.62333 149.853 2.67 149.592 2.67ZM155.858 3.496C156.492 3.496 157.066 3.65933 157.58 3.986C158.093 4.31267 158.494 4.76533 158.784 5.344C159.082 5.92267 159.232 6.576 159.232 7.304C159.232 8.032 159.082 8.69 158.784 9.278C158.494 9.866 158.093 10.3233 157.58 10.65C157.066 10.9767 156.502 11.14 155.886 11.14C155.4 11.14 154.948 11.0327 154.528 10.818C154.108 10.6033 153.767 10.3373 153.506 10.02V10.426C153.506 10.6127 153.44 10.7713 153.31 10.902C153.188 11.0327 153.03 11.098 152.834 11.098C152.647 11.098 152.488 11.0373 152.358 10.916C152.236 10.7853 152.176 10.622 152.176 10.426V1.312C152.176 1.116 152.236 0.957333 152.358 0.836C152.479 0.705333 152.638 0.64 152.834 0.64C153.03 0.64 153.188 0.705333 153.31 0.836C153.44 0.966666 153.506 1.12533 153.506 1.312V4.728C153.73 4.392 154.056 4.10267 154.486 3.86C154.915 3.61733 155.372 3.496 155.858 3.496ZM155.704 9.908C156.133 9.908 156.52 9.796 156.866 9.572C157.211 9.33867 157.477 9.026 157.664 8.634C157.86 8.23267 157.958 7.78933 157.958 7.304C157.958 6.81867 157.86 6.38 157.664 5.988C157.477 5.596 157.211 5.288 156.866 5.064C156.52 4.84 156.133 4.728 155.704 4.728C155.265 4.728 154.873 4.84 154.528 5.064C154.182 5.288 153.912 5.596 153.716 5.988C153.529 6.37067 153.436 6.80933 153.436 7.304C153.436 7.79867 153.529 8.242 153.716 8.634C153.912 9.026 154.182 9.33867 154.528 9.572C154.873 9.796 155.265 9.908 155.704 9.908ZM162.035 10.328C162.035 10.5147 161.97 10.6733 161.839 10.804C161.718 10.9347 161.559 11 161.363 11C161.177 11 161.018 10.9347 160.887 10.804C160.766 10.6733 160.705 10.5147 160.705 10.328V4.266C160.705 4.07933 160.766 3.92067 160.887 3.79C161.018 3.65933 161.177 3.594 161.363 3.594C161.559 3.594 161.718 3.65933 161.839 3.79C161.97 3.92067 162.035 4.07933 162.035 4.266V10.328ZM161.363 2.67C161.093 2.67 160.897 2.62333 160.775 2.53C160.663 2.42733 160.607 2.26867 160.607 2.054V1.83C160.607 1.606 160.668 1.44733 160.789 1.354C160.92 1.26067 161.116 1.214 161.377 1.214C161.639 1.214 161.825 1.26533 161.937 1.368C162.059 1.46133 162.119 1.61533 162.119 1.83V2.054C162.119 2.278 162.059 2.43667 161.937 2.53C161.816 2.62333 161.625 2.67 161.363 2.67ZM165.389 10.328C165.389 10.5147 165.324 10.6733 165.193 10.804C165.062 10.9347 164.904 11 164.717 11C164.53 11 164.372 10.9347 164.241 10.804C164.12 10.6733 164.059 10.5147 164.059 10.328V1.312C164.059 1.12533 164.124 0.966666 164.255 0.836C164.386 0.705333 164.544 0.64 164.731 0.64C164.918 0.64 165.072 0.705333 165.193 0.836C165.324 0.966666 165.389 1.12533 165.389 1.312V10.328ZM168.748 10.328C168.748 10.5147 168.683 10.6733 168.552 10.804C168.431 10.9347 168.272 11 168.076 11C167.889 11 167.731 10.9347 167.6 10.804C167.479 10.6733 167.418 10.5147 167.418 10.328V4.266C167.418 4.07933 167.479 3.92067 167.6 3.79C167.731 3.65933 167.889 3.594 168.076 3.594C168.272 3.594 168.431 3.65933 168.552 3.79C168.683 3.92067 168.748 4.07933 168.748 4.266V10.328ZM168.076 2.67C167.805 2.67 167.609 2.62333 167.488 2.53C167.376 2.42733 167.32 2.26867 167.32 2.054V1.83C167.32 1.606 167.381 1.44733 167.502 1.354C167.633 1.26067 167.829 1.214 168.09 1.214C168.351 1.214 168.538 1.26533 168.65 1.368C168.771 1.46133 168.832 1.61533 168.832 1.83V2.054C168.832 2.278 168.771 2.43667 168.65 2.53C168.529 2.62333 168.337 2.67 168.076 2.67ZM172.648 4.966V9.138C172.648 9.60467 172.858 9.838 173.278 9.838C173.343 9.838 173.432 9.824 173.544 9.796C173.656 9.75867 173.745 9.74 173.81 9.74C173.931 9.74 174.034 9.79133 174.118 9.894C174.202 9.99667 174.244 10.1273 174.244 10.286C174.244 10.482 174.132 10.65 173.908 10.79C173.684 10.93 173.432 11 173.152 11C172.844 11 172.559 10.9673 172.298 10.902C172.046 10.8367 171.817 10.6733 171.612 10.412C171.416 10.1413 171.318 9.73533 171.318 9.194V4.966H170.506C170.329 4.966 170.179 4.91 170.058 4.798C169.946 4.67667 169.89 4.52733 169.89 4.35C169.89 4.17267 169.946 4.028 170.058 3.916C170.179 3.804 170.329 3.748 170.506 3.748H171.318V2.572C171.318 2.38533 171.379 2.22667 171.5 2.096C171.631 1.96533 171.794 1.9 171.99 1.9C172.177 1.9 172.331 1.96533 172.452 2.096C172.583 2.22667 172.648 2.38533 172.648 2.572V3.748H173.81C173.987 3.748 174.132 3.80867 174.244 3.93C174.365 4.042 174.426 4.18667 174.426 4.364C174.426 4.54133 174.365 4.686 174.244 4.798C174.132 4.91 173.987 4.966 173.81 4.966H172.648ZM182.35 7.052C182.341 7.22 182.271 7.36467 182.14 7.486C182.009 7.598 181.855 7.654 181.678 7.654H176.75C176.815 8.33533 177.072 8.88133 177.52 9.292C177.977 9.70267 178.533 9.908 179.186 9.908C179.634 9.908 179.998 9.84267 180.278 9.712C180.558 9.58133 180.805 9.41333 181.02 9.208C181.16 9.124 181.295 9.082 181.426 9.082C181.585 9.082 181.715 9.138 181.818 9.25C181.93 9.362 181.986 9.49267 181.986 9.642C181.986 9.838 181.893 10.0153 181.706 10.174C181.435 10.4447 181.076 10.6733 180.628 10.86C180.18 11.0467 179.723 11.14 179.256 11.14C178.5 11.14 177.833 10.9813 177.254 10.664C176.685 10.3467 176.241 9.90333 175.924 9.334C175.616 8.76467 175.462 8.12067 175.462 7.402C175.462 6.618 175.621 5.932 175.938 5.344C176.265 4.74667 176.689 4.28933 177.212 3.972C177.744 3.65467 178.313 3.496 178.92 3.496C179.517 3.496 180.077 3.65 180.6 3.958C181.123 4.266 181.543 4.69067 181.86 5.232C182.177 5.77333 182.341 6.38 182.35 7.052ZM178.92 4.728C178.397 4.728 177.945 4.87733 177.562 5.176C177.179 5.46533 176.927 5.918 176.806 6.534H180.936V6.422C180.889 5.92733 180.665 5.52133 180.264 5.204C179.872 4.88667 179.424 4.728 178.92 4.728ZM178.878 3.146C178.803 3.146 178.724 3.11333 178.64 3.048C178.556 2.98267 178.519 2.894 178.528 2.782C178.528 2.70733 178.556 2.62333 178.612 2.53L179.438 1.144C179.513 1.01333 179.601 0.905999 179.704 0.821999C179.816 0.737999 179.942 0.695999 180.082 0.695999C180.287 0.695999 180.441 0.751999 180.544 0.863999C180.656 0.966666 180.707 1.10667 180.698 1.284C180.698 1.452 180.628 1.61533 180.488 1.774L179.438 2.922C179.289 3.07133 179.102 3.146 178.878 3.146ZM193.727 0.64C193.923 0.64 194.082 0.705333 194.203 0.836C194.334 0.957333 194.399 1.116 194.399 1.312V10.328C194.399 10.5147 194.334 10.6733 194.203 10.804C194.082 10.9347 193.923 11 193.727 11C193.531 11 193.373 10.9393 193.251 10.818C193.13 10.6873 193.069 10.524 193.069 10.328V9.936C192.836 10.272 192.505 10.5567 192.075 10.79C191.655 11.0233 191.203 11.14 190.717 11.14C190.083 11.14 189.509 10.9767 188.995 10.65C188.482 10.3233 188.076 9.87067 187.777 9.292C187.479 8.704 187.329 8.046 187.329 7.318C187.329 6.59 187.474 5.93667 187.763 5.358C188.062 4.77 188.468 4.31267 188.981 3.986C189.495 3.65933 190.059 3.496 190.675 3.496C191.17 3.496 191.627 3.59867 192.047 3.804C192.467 4.00933 192.808 4.27533 193.069 4.602V1.312C193.069 1.116 193.13 0.957333 193.251 0.836C193.373 0.705333 193.531 0.64 193.727 0.64ZM190.871 9.908C191.31 9.908 191.697 9.796 192.033 9.572C192.379 9.348 192.645 9.04 192.831 8.648C193.027 8.256 193.125 7.81267 193.125 7.318C193.125 6.83267 193.027 6.394 192.831 6.002C192.645 5.60067 192.379 5.288 192.033 5.064C191.697 4.84 191.31 4.728 190.871 4.728C190.433 4.728 190.041 4.84 189.695 5.064C189.359 5.288 189.093 5.60067 188.897 6.002C188.711 6.394 188.617 6.83267 188.617 7.318C188.617 7.81267 188.711 8.256 188.897 8.648C189.093 9.04 189.359 9.348 189.695 9.572C190.041 9.796 190.433 9.908 190.871 9.908ZM202.817 7.052C202.807 7.22 202.737 7.36467 202.607 7.486C202.476 7.598 202.322 7.654 202.145 7.654H197.217C197.282 8.33533 197.539 8.88133 197.987 9.292C198.444 9.70267 198.999 9.908 199.653 9.908C200.101 9.908 200.465 9.84267 200.745 9.712C201.025 9.58133 201.272 9.41333 201.487 9.208C201.627 9.124 201.762 9.082 201.893 9.082C202.051 9.082 202.182 9.138 202.285 9.25C202.397 9.362 202.453 9.49267 202.453 9.642C202.453 9.838 202.359 10.0153 202.173 10.174C201.902 10.4447 201.543 10.6733 201.095 10.86C200.647 11.0467 200.189 11.14 199.723 11.14C198.967 11.14 198.299 10.9813 197.721 10.664C197.151 10.3467 196.708 9.90333 196.391 9.334C196.083 8.76467 195.929 8.12067 195.929 7.402C195.929 6.618 196.087 5.932 196.405 5.344C196.731 4.74667 197.156 4.28933 197.679 3.972C198.211 3.65467 198.78 3.496 199.387 3.496C199.984 3.496 200.544 3.65 201.067 3.958C201.589 4.266 202.009 4.69067 202.327 5.232C202.644 5.77333 202.807 6.38 202.817 7.052ZM199.387 4.728C198.864 4.728 198.411 4.87733 198.029 5.176C197.646 5.46533 197.394 5.918 197.273 6.534H201.403V6.422C201.356 5.92733 201.132 5.52133 200.731 5.204C200.339 4.88667 199.891 4.728 199.387 4.728ZM213.844 3.594C214.021 3.594 214.171 3.65467 214.292 3.776C214.413 3.888 214.474 4.02333 214.474 4.182C214.474 4.266 214.441 4.38267 214.376 4.532L211.716 10.58C211.66 10.7013 211.581 10.7993 211.478 10.874C211.375 10.9487 211.263 10.9907 211.142 11C210.993 11.0187 210.853 10.9907 210.722 10.916C210.601 10.8413 210.507 10.7293 210.442 10.58L207.782 4.532C207.735 4.392 207.712 4.27533 207.712 4.182C207.712 4.03267 207.773 3.89733 207.894 3.776C208.015 3.65467 208.174 3.594 208.37 3.594C208.51 3.594 208.636 3.63133 208.748 3.706C208.86 3.77133 208.949 3.874 209.014 4.014L211.128 8.928L213.242 4.014C213.373 3.734 213.573 3.594 213.844 3.594ZM222.79 7.332C222.79 8.06 222.626 8.71333 222.3 9.292C221.973 9.87067 221.525 10.3233 220.956 10.65C220.396 10.9767 219.775 11.14 219.094 11.14C218.412 11.14 217.787 10.9767 217.218 10.65C216.658 10.3233 216.214 9.87067 215.888 9.292C215.561 8.71333 215.398 8.06 215.398 7.332C215.398 6.604 215.561 5.946 215.888 5.358C216.214 4.77 216.658 4.31267 217.218 3.986C217.787 3.65933 218.412 3.496 219.094 3.496C219.775 3.496 220.396 3.65933 220.956 3.986C221.525 4.31267 221.973 4.77 222.3 5.358C222.626 5.946 222.79 6.604 222.79 7.332ZM221.46 7.332C221.46 6.828 221.352 6.38 221.138 5.988C220.932 5.58667 220.648 5.27867 220.284 5.064C219.929 4.84 219.532 4.728 219.094 4.728C218.655 4.728 218.254 4.84 217.89 5.064C217.535 5.27867 217.25 5.58667 217.036 5.988C216.83 6.38 216.728 6.828 216.728 7.332C216.728 7.82667 216.83 8.27 217.036 8.662C217.25 9.054 217.535 9.362 217.89 9.586C218.254 9.80067 218.655 9.908 219.094 9.908C219.532 9.908 219.929 9.80067 220.284 9.586C220.648 9.362 220.932 9.054 221.138 8.662C221.352 8.27 221.46 7.82667 221.46 7.332ZM226.324 4.966V9.138C226.324 9.60467 226.534 9.838 226.954 9.838C227.019 9.838 227.108 9.824 227.22 9.796C227.332 9.75867 227.42 9.74 227.486 9.74C227.607 9.74 227.71 9.79133 227.794 9.894C227.878 9.99667 227.92 10.1273 227.92 10.286C227.92 10.482 227.808 10.65 227.584 10.79C227.36 10.93 227.108 11 226.828 11C226.52 11 226.235 10.9673 225.974 10.902C225.722 10.8367 225.493 10.6733 225.288 10.412C225.092 10.1413 224.994 9.73533 224.994 9.194V4.966H224.182C224.004 4.966 223.855 4.91 223.734 4.798C223.622 4.67667 223.566 4.52733 223.566 4.35C223.566 4.17267 223.622 4.028 223.734 3.916C223.855 3.804 224.004 3.748 224.182 3.748H224.994V2.572C224.994 2.38533 225.054 2.22667 225.176 2.096C225.306 1.96533 225.47 1.9 225.666 1.9C225.852 1.9 226.006 1.96533 226.128 2.096C226.258 2.22667 226.324 2.38533 226.324 2.572V3.748H227.486C227.663 3.748 227.808 3.80867 227.92 3.93C228.041 4.042 228.102 4.18667 228.102 4.364C228.102 4.54133 228.041 4.686 227.92 4.798C227.808 4.91 227.663 4.966 227.486 4.966H226.324ZM233.308 3.496C233.551 3.496 233.761 3.56133 233.938 3.692C234.115 3.81333 234.204 3.96733 234.204 4.154C234.204 4.378 234.143 4.55067 234.022 4.672C233.91 4.784 233.77 4.84 233.602 4.84C233.518 4.84 233.392 4.812 233.224 4.756C233.028 4.69067 232.874 4.658 232.762 4.658C232.473 4.658 232.188 4.76067 231.908 4.966C231.637 5.162 231.413 5.43733 231.236 5.792C231.068 6.13733 230.984 6.52467 230.984 6.954V10.328C230.984 10.5147 230.919 10.6733 230.788 10.804C230.667 10.9347 230.508 11 230.312 11C230.116 11 229.957 10.9393 229.836 10.818C229.715 10.6873 229.654 10.524 229.654 10.328V4.336C229.654 4.14933 229.715 3.99067 229.836 3.86C229.967 3.72933 230.125 3.664 230.312 3.664C230.508 3.664 230.667 3.72933 230.788 3.86C230.919 3.99067 230.984 4.14933 230.984 4.336V5.05C231.189 4.59267 231.497 4.224 231.908 3.944C232.319 3.65467 232.785 3.50533 233.308 3.496ZM241.563 7.052C241.554 7.22 241.484 7.36467 241.353 7.486C241.222 7.598 241.068 7.654 240.891 7.654H235.963C236.028 8.33533 236.285 8.88133 236.733 9.292C237.19 9.70267 237.746 9.908 238.399 9.908C238.847 9.908 239.211 9.84267 239.491 9.712C239.771 9.58133 240.018 9.41333 240.233 9.208C240.373 9.124 240.508 9.082 240.639 9.082C240.798 9.082 240.928 9.138 241.031 9.25C241.143 9.362 241.199 9.49267 241.199 9.642C241.199 9.838 241.106 10.0153 240.919 10.174C240.648 10.4447 240.289 10.6733 239.841 10.86C239.393 11.0467 238.936 11.14 238.469 11.14C237.713 11.14 237.046 10.9813 236.467 10.664C235.898 10.3467 235.454 9.90333 235.137 9.334C234.829 8.76467 234.675 8.12067 234.675 7.402C234.675 6.618 234.834 5.932 235.151 5.344C235.478 4.74667 235.902 4.28933 236.425 3.972C236.957 3.65467 237.526 3.496 238.133 3.496C238.73 3.496 239.29 3.65 239.813 3.958C240.336 4.266 240.756 4.69067 241.073 5.232C241.39 5.77333 241.554 6.38 241.563 7.052ZM238.133 4.728C237.61 4.728 237.158 4.87733 236.775 5.176C236.392 5.46533 236.14 5.918 236.019 6.534H240.149V6.422C240.102 5.92733 239.878 5.52133 239.477 5.204C239.085 4.88667 238.637 4.728 238.133 4.728ZM250.182 3.496C250.919 3.496 251.531 3.61267 252.016 3.846C252.511 4.07933 252.758 4.378 252.758 4.742C252.758 4.90067 252.707 5.04533 252.604 5.176C252.501 5.29733 252.371 5.358 252.212 5.358C252.091 5.358 251.993 5.33933 251.918 5.302C251.853 5.26467 251.759 5.204 251.638 5.12C251.582 5.064 251.493 4.99867 251.372 4.924C251.26 4.868 251.101 4.82133 250.896 4.784C250.691 4.74667 250.504 4.728 250.336 4.728C249.851 4.728 249.421 4.84 249.048 5.064C248.675 5.288 248.385 5.60067 248.18 6.002C247.975 6.394 247.872 6.83267 247.872 7.318C247.872 7.81267 247.97 8.256 248.166 8.648C248.371 9.04 248.656 9.348 249.02 9.572C249.384 9.796 249.799 9.908 250.266 9.908C250.751 9.908 251.143 9.83333 251.442 9.684C251.507 9.64667 251.596 9.586 251.708 9.502C251.801 9.42733 251.881 9.37133 251.946 9.334C252.021 9.29667 252.109 9.278 252.212 9.278C252.399 9.278 252.543 9.33867 252.646 9.46C252.758 9.572 252.814 9.72133 252.814 9.908C252.814 10.104 252.688 10.3 252.436 10.496C252.193 10.6827 251.862 10.8367 251.442 10.958C251.031 11.0793 250.588 11.14 250.112 11.14C249.403 11.14 248.777 10.9767 248.236 10.65C247.695 10.314 247.275 9.85667 246.976 9.278C246.687 8.69 246.542 8.03667 246.542 7.318C246.542 6.59933 246.696 5.95067 247.004 5.372C247.312 4.784 247.741 4.32667 248.292 4C248.843 3.664 249.473 3.496 250.182 3.496ZM260.132 3.566C260.328 3.566 260.486 3.63133 260.608 3.762C260.738 3.88333 260.804 4.04667 260.804 4.252V10.328C260.804 10.5147 260.738 10.6733 260.608 10.804C260.486 10.9347 260.328 11 260.132 11C259.936 11 259.777 10.9393 259.656 10.818C259.534 10.6873 259.474 10.524 259.474 10.328V9.964C259.231 10.2907 258.9 10.5707 258.48 10.804C258.06 11.028 257.607 11.14 257.122 11.14C256.487 11.14 255.908 10.9767 255.386 10.65C254.872 10.3233 254.466 9.87067 254.168 9.292C253.878 8.704 253.734 8.046 253.734 7.318C253.734 6.59 253.878 5.93667 254.168 5.358C254.466 4.77 254.872 4.31267 255.386 3.986C255.899 3.65933 256.464 3.496 257.08 3.496C257.574 3.496 258.032 3.59867 258.452 3.804C258.881 4.00933 259.222 4.27067 259.474 4.588V4.252C259.474 4.056 259.534 3.89267 259.656 3.762C259.777 3.63133 259.936 3.566 260.132 3.566ZM257.276 9.908C257.714 9.908 258.102 9.796 258.438 9.572C258.783 9.348 259.049 9.04 259.236 8.648C259.432 8.256 259.53 7.81267 259.53 7.318C259.53 6.83267 259.432 6.394 259.236 6.002C259.049 5.61 258.783 5.302 258.438 5.078C258.102 4.84467 257.714 4.728 257.276 4.728C256.837 4.728 256.445 4.84 256.1 5.064C255.764 5.288 255.498 5.596 255.302 5.988C255.115 6.38 255.022 6.82333 255.022 7.318C255.022 7.81267 255.115 8.256 255.302 8.648C255.498 9.04 255.764 9.348 256.1 9.572C256.445 9.796 256.837 9.908 257.276 9.908ZM266.463 3.496C267.098 3.496 267.672 3.65933 268.185 3.986C268.698 4.31267 269.1 4.76533 269.389 5.344C269.688 5.92267 269.837 6.576 269.837 7.304C269.837 8.032 269.688 8.69 269.389 9.278C269.1 9.866 268.698 10.3233 268.185 10.65C267.672 10.9767 267.107 11.14 266.491 11.14C266.006 11.14 265.553 11.0327 265.133 10.818C264.713 10.6033 264.372 10.3373 264.111 10.02V10.426C264.111 10.6127 264.046 10.7713 263.915 10.902C263.794 11.0327 263.635 11.098 263.439 11.098C263.252 11.098 263.094 11.0373 262.963 10.916C262.842 10.7853 262.781 10.622 262.781 10.426V1.312C262.781 1.116 262.842 0.957333 262.963 0.836C263.084 0.705333 263.243 0.64 263.439 0.64C263.635 0.64 263.794 0.705333 263.915 0.836C264.046 0.966666 264.111 1.12533 264.111 1.312V4.728C264.335 4.392 264.662 4.10267 265.091 3.86C265.52 3.61733 265.978 3.496 266.463 3.496ZM266.309 9.908C266.738 9.908 267.126 9.796 267.471 9.572C267.816 9.33867 268.082 9.026 268.269 8.634C268.465 8.23267 268.563 7.78933 268.563 7.304C268.563 6.81867 268.465 6.38 268.269 5.988C268.082 5.596 267.816 5.288 267.471 5.064C267.126 4.84 266.738 4.728 266.309 4.728C265.87 4.728 265.478 4.84 265.133 5.064C264.788 5.288 264.517 5.596 264.321 5.988C264.134 6.37067 264.041 6.80933 264.041 7.304C264.041 7.79867 264.134 8.242 264.321 8.634C264.517 9.026 264.788 9.33867 265.133 9.572C265.478 9.796 265.87 9.908 266.309 9.908ZM272.641 10.328C272.641 10.5147 272.575 10.6733 272.445 10.804C272.323 10.9347 272.165 11 271.969 11C271.782 11 271.623 10.9347 271.493 10.804C271.371 10.6733 271.311 10.5147 271.311 10.328V4.266C271.311 4.07933 271.371 3.92067 271.493 3.79C271.623 3.65933 271.782 3.594 271.969 3.594C272.165 3.594 272.323 3.65933 272.445 3.79C272.575 3.92067 272.641 4.07933 272.641 4.266V10.328ZM271.969 2.67C271.698 2.67 271.502 2.62333 271.381 2.53C271.269 2.42733 271.213 2.26867 271.213 2.054V1.83C271.213 1.606 271.273 1.44733 271.395 1.354C271.525 1.26067 271.721 1.214 271.983 1.214C272.244 1.214 272.431 1.26533 272.543 1.368C272.664 1.46133 272.725 1.61533 272.725 1.83V2.054C272.725 2.278 272.664 2.43667 272.543 2.53C272.421 2.62333 272.23 2.67 271.969 2.67ZM278.291 3.496C279.971 3.496 280.811 4.504 280.811 6.52V10.328C280.811 10.5147 280.745 10.6733 280.615 10.804C280.493 10.9347 280.335 11 280.139 11C279.952 11 279.793 10.9347 279.663 10.804C279.541 10.6733 279.481 10.5147 279.481 10.328V6.534C279.481 5.98333 279.355 5.54467 279.103 5.218C278.851 4.89133 278.44 4.728 277.871 4.728C277.497 4.728 277.157 4.812 276.849 4.98C276.55 5.13867 276.312 5.358 276.135 5.638C275.967 5.90867 275.883 6.20733 275.883 6.534V10.328C275.883 10.5147 275.817 10.6733 275.687 10.804C275.565 10.9347 275.407 11 275.211 11C275.015 11 274.856 10.9393 274.735 10.818C274.613 10.6873 274.553 10.524 274.553 10.328V4.336C274.553 4.14933 274.613 3.99067 274.735 3.86C274.865 3.72933 275.024 3.664 275.211 3.664C275.407 3.664 275.565 3.72933 275.687 3.86C275.817 3.99067 275.883 4.14933 275.883 4.336V4.826C276.125 4.45267 276.461 4.14 276.891 3.888C277.329 3.62667 277.796 3.496 278.291 3.496ZM289.237 7.052C289.227 7.22 289.157 7.36467 289.027 7.486C288.896 7.598 288.742 7.654 288.565 7.654H283.637C283.702 8.33533 283.959 8.88133 284.407 9.292C284.864 9.70267 285.419 9.908 286.073 9.908C286.521 9.908 286.885 9.84267 287.165 9.712C287.445 9.58133 287.692 9.41333 287.907 9.208C288.047 9.124 288.182 9.082 288.313 9.082C288.471 9.082 288.602 9.138 288.705 9.25C288.817 9.362 288.873 9.49267 288.873 9.642C288.873 9.838 288.779 10.0153 288.593 10.174C288.322 10.4447 287.963 10.6733 287.515 10.86C287.067 11.0467 286.609 11.14 286.143 11.14C285.387 11.14 284.719 10.9813 284.141 10.664C283.571 10.3467 283.128 9.90333 282.811 9.334C282.503 8.76467 282.349 8.12067 282.349 7.402C282.349 6.618 282.507 5.932 282.825 5.344C283.151 4.74667 283.576 4.28933 284.099 3.972C284.631 3.65467 285.2 3.496 285.807 3.496C286.404 3.496 286.964 3.65 287.487 3.958C288.009 4.266 288.429 4.69067 288.747 5.232C289.064 5.77333 289.227 6.38 289.237 7.052ZM285.807 4.728C285.284 4.728 284.831 4.87733 284.449 5.176C284.066 5.46533 283.814 5.918 283.693 6.534H287.823V6.422C287.776 5.92733 287.552 5.52133 287.151 5.204C286.759 4.88667 286.311 4.728 285.807 4.728ZM292.769 4.966V9.138C292.769 9.60467 292.979 9.838 293.399 9.838C293.464 9.838 293.553 9.824 293.665 9.796C293.777 9.75867 293.866 9.74 293.931 9.74C294.052 9.74 294.155 9.79133 294.239 9.894C294.323 9.99667 294.365 10.1273 294.365 10.286C294.365 10.482 294.253 10.65 294.029 10.79C293.805 10.93 293.553 11 293.273 11C292.965 11 292.68 10.9673 292.419 10.902C292.167 10.8367 291.938 10.6733 291.733 10.412C291.537 10.1413 291.439 9.73533 291.439 9.194V4.966H290.627C290.45 4.966 290.3 4.91 290.179 4.798C290.067 4.67667 290.011 4.52733 290.011 4.35C290.011 4.17267 290.067 4.028 290.179 3.916C290.3 3.804 290.45 3.748 290.627 3.748H291.439V2.572C291.439 2.38533 291.5 2.22667 291.621 2.096C291.752 1.96533 291.915 1.9 292.111 1.9C292.298 1.9 292.452 1.96533 292.573 2.096C292.704 2.22667 292.769 2.38533 292.769 2.572V3.748H293.931C294.108 3.748 294.253 3.80867 294.365 3.93C294.486 4.042 294.547 4.18667 294.547 4.364C294.547 4.54133 294.486 4.686 294.365 4.798C294.253 4.91 294.108 4.966 293.931 4.966H292.769Z" fill="#8F8DA6"/>
</svg>
