<svg width="24" height="24" viewBox="0 0 24 24" fill="none" xmlns="http://www.w3.org/2000/svg">
<path opacity="0.3" fill-rule="evenodd" clip-rule="evenodd" d="M5.13337 2.03601C5.13337 2.03601 15.5507 7.8502 12.6334 15.0264C5.17644 13.8398 5.13337 2.03601 5.13337 2.03601Z" fill="#504F92"/>
<path opacity="0.3" fill-rule="evenodd" clip-rule="evenodd" d="M18.7416 2.03601C18.7416 2.03601 8.3243 7.8502 11.2416 15.0264C18.6986 13.8398 18.7416 2.03601 18.7416 2.03601Z" fill="#504F92"/>
<path opacity="0.3" fill-rule="evenodd" clip-rule="evenodd" d="M12 1C12 1 5.88542 11.2439 12 16C17.8646 11.2439 12 1 12 1Z" fill="#504F92"/>
<path d="M5.61816 14C5.61816 13.4477 6.06588 13 6.61816 13H17.3817C17.9339 13 18.3817 13.4477 18.3817 14V21C18.3817 22.1046 17.4862 23 16.3817 23H7.61817C6.5136 23 5.61816 22.1046 5.61816 21V14Z" fill="#5E20E5"/>
</svg>
