<svg width="24" height="24" viewBox="0 0 24 24" fill="none" xmlns="http://www.w3.org/2000/svg">
<path opacity="0.3" fill-rule="evenodd" clip-rule="evenodd" d="M5 4C3.89543 4 3 4.89543 3 6V18C3 19.1046 3.89543 20 5 20H7V12C7 9.23858 9.23858 7 12 7C14.7614 7 17 9.23858 17 12V20H19C20.1046 20 21 19.1046 21 18V6C21 4.89543 20.1046 4 19 4H5Z" fill="#504F92"/>
<path fill-rule="evenodd" clip-rule="evenodd" d="M12.972 11.7006C12.972 11.7006 12.729 14.1299 11.5143 14.3002C11.5143 14.3002 12.2432 11.4576 11.2714 10C11.2714 10 11.1684 11.5618 10.1272 13.436C9.6391 14.3145 9.08496 14.9067 9.08496 16.0735C9.08496 17.7394 10.7911 18.6003 12.003 18.6003C13.2149 18.6003 14.9155 18.0173 14.9155 15.9765C14.9155 14.7178 12.972 11.7006 12.972 11.7006Z" fill="#5E20E5"/>
</svg>
