<svg width="24" height="24" viewBox="0 0 24 24" fill="none" xmlns="http://www.w3.org/2000/svg">
<path fill-rule="evenodd" clip-rule="evenodd" d="M3.94615 8.10558C3.39801 8.17313 3.00842 8.67225 3.07597 9.22038C3.58728 13.3692 6.89887 16.5925 11.0004 17.0482V18H10.0004C8.89585 18 8.00042 18.8954 8.00042 20H12.0004H16.0004C16.0004 18.8954 15.105 18 14.0004 18H13.0004V17.0484C17.1476 16.5886 20.4828 13.3001 20.9411 9.09438C21.001 8.54534 20.6044 8.05176 20.0554 7.99193C19.5063 7.9321 19.0127 8.32868 18.9529 8.87772C18.5686 12.4043 15.5781 15.1035 12.0012 15.1035C8.46091 15.1035 5.49009 12.4578 5.06095 8.97575C4.9934 8.42761 4.49428 8.03802 3.94615 8.10558Z" fill="#3A3768"/>
<path opacity="0.3" fill-rule="evenodd" clip-rule="evenodd" d="M18 8C18 11.3137 15.3137 14 12 14C8.68629 14 6 11.3137 6 8C6 4.68629 8.68629 2 12 2C15.3137 2 18 4.68629 18 8ZM8.11553 7.1919C8.47708 7.16662 8.79068 7.43922 8.81596 7.80077C8.90328 9.0495 9.45599 9.98538 10.5074 10.6648C10.8118 10.8615 10.8991 11.2677 10.7024 11.5721C10.5057 11.8765 10.0994 11.9638 9.79502 11.7671C8.39667 10.8635 7.62279 9.55317 7.50665 7.89233C7.48137 7.53077 7.75397 7.21718 8.11553 7.1919Z" fill="#504F92"/>
</svg>
