<svg width="24" height="24" viewBox="0 0 24 24" fill="none" xmlns="http://www.w3.org/2000/svg">
<path opacity="0.3" fill-rule="evenodd" clip-rule="evenodd" d="M6.54213 21.5015C6.39919 22.035 6.71578 22.5833 7.24924 22.7262C7.78271 22.8692 8.33104 22.5526 8.47399 22.0191L10.0721 16.0547C10.2151 15.5213 9.8985 14.9729 9.36504 14.83C8.83157 14.687 8.28323 15.0036 8.14029 15.5371L6.54213 21.5015ZM17.4493 21.4711C17.5922 22.0046 17.2756 22.5529 16.7422 22.6959C16.2087 22.8388 15.6604 22.5222 15.5174 21.9888L14.2145 17.1263C14.0716 16.5929 14.3882 16.0445 14.9216 15.9016C15.4551 15.7586 16.0034 16.0752 16.1464 16.6087L17.4493 21.4711Z" fill="#504F92"/>
<path fill-rule="evenodd" clip-rule="evenodd" d="M8 1C6.89543 1 6 1.89543 6 3V12.5C6 12.7761 6.22386 13 6.5 13H17.5C17.7761 13 18 12.7761 18 12.5V3C18 1.89543 17.1046 1 16 1H8ZM5.5 14C4.67157 14 4 14.6716 4 15.5C4 16.3284 4.67157 17 5.5 17H18.5C19.3284 17 20 16.3284 20 15.5C20 14.6716 19.3284 14 18.5 14H5.5Z" fill="#3A3768"/>
</svg>
