<svg width="222" height="20" viewBox="0 0 222 20" fill="none" xmlns="http://www.w3.org/2000/svg">
<path d="M7.622 14.344C7.874 14.344 8.078 14.428 8.234 14.596C8.402 14.764 8.486 14.962 8.486 15.19C8.486 15.43 8.402 15.628 8.234 15.784C8.078 15.928 7.874 16 7.622 16H1.358C1.118 16 0.914 15.916 0.746 15.748C0.578 15.58 0.494 15.376 0.494 15.136V4.264C0.494 4.024 0.578 3.82 0.746 3.652C0.914 3.484 1.118 3.4 1.358 3.4H7.622C7.874 3.4 8.078 3.478 8.234 3.634C8.402 3.79 8.486 3.994 8.486 4.246C8.486 4.486 8.402 4.684 8.234 4.84C8.078 4.984 7.874 5.056 7.622 5.056H2.276V8.728H6.812C7.064 8.728 7.268 8.806 7.424 8.962C7.592 9.118 7.676 9.316 7.676 9.556C7.676 9.808 7.592 10.006 7.424 10.15C7.268 10.294 7.064 10.366 6.812 10.366H2.276V14.344H7.622ZM4.616 2.662C4.436 2.662 4.292 2.62 4.184 2.536C4.088 2.44 4.04 2.314 4.04 2.158C4.04 2.002 4.112 1.864 4.256 1.744L5.84 0.411999C6.092 0.207999 6.332 0.106 6.56 0.106C6.764 0.106 6.944 0.177999 7.1 0.321999C7.268 0.465999 7.352 0.639999 7.352 0.843999C7.352 0.999999 7.304 1.15 7.208 1.294C7.112 1.438 6.98 1.552 6.812 1.636L5.03 2.554C4.886 2.626 4.748 2.662 4.616 2.662ZM13.2996 8.242V13.606C13.2996 14.206 13.5696 14.506 14.1096 14.506C14.1936 14.506 14.3076 14.488 14.4516 14.452C14.5956 14.404 14.7096 14.38 14.7936 14.38C14.9496 14.38 15.0816 14.446 15.1896 14.578C15.2976 14.71 15.3516 14.878 15.3516 15.082C15.3516 15.334 15.2076 15.55 14.9196 15.73C14.6316 15.91 14.3076 16 13.9476 16C13.5516 16 13.1856 15.958 12.8496 15.874C12.5256 15.79 12.2316 15.58 11.9676 15.244C11.7156 14.896 11.5896 14.374 11.5896 13.678V8.242H10.5456C10.3176 8.242 10.1256 8.17 9.96962 8.026C9.82562 7.87 9.75362 7.678 9.75362 7.45C9.75362 7.222 9.82562 7.036 9.96962 6.892C10.1256 6.748 10.3176 6.676 10.5456 6.676H11.5896V5.164C11.5896 4.924 11.6676 4.72 11.8236 4.552C11.9916 4.384 12.2016 4.3 12.4536 4.3C12.6936 4.3 12.8916 4.384 13.0476 4.552C13.2156 4.72 13.2996 4.924 13.2996 5.164V6.676H14.7936C15.0216 6.676 15.2076 6.754 15.3516 6.91C15.5076 7.054 15.5856 7.24 15.5856 7.468C15.5856 7.696 15.5076 7.882 15.3516 8.026C15.2076 8.17 15.0216 8.242 14.7936 8.242H13.2996ZM25.4315 6.442C25.6835 6.442 25.8875 6.526 26.0435 6.694C26.2115 6.85 26.2955 7.06 26.2955 7.324V15.136C26.2955 15.376 26.2115 15.58 26.0435 15.748C25.8875 15.916 25.6835 16 25.4315 16C25.1795 16 24.9755 15.922 24.8195 15.766C24.6635 15.598 24.5855 15.388 24.5855 15.136V14.668C24.2735 15.088 23.8475 15.448 23.3075 15.748C22.7675 16.036 22.1855 16.18 21.5615 16.18C20.7455 16.18 20.0015 15.97 19.3295 15.55C18.6695 15.13 18.1475 14.548 17.7635 13.804C17.3915 13.048 17.2055 12.202 17.2055 11.266C17.2055 10.33 17.3915 9.49 17.7635 8.746C18.1475 7.99 18.6695 7.402 19.3295 6.982C19.9895 6.562 20.7155 6.352 21.5075 6.352C22.1435 6.352 22.7315 6.484 23.2715 6.748C23.8235 7.012 24.2615 7.348 24.5855 7.756V7.324C24.5855 7.072 24.6635 6.862 24.8195 6.694C24.9755 6.526 25.1795 6.442 25.4315 6.442ZM21.7595 14.596C22.3235 14.596 22.8215 14.452 23.2535 14.164C23.6975 13.876 24.0395 13.48 24.2795 12.976C24.5315 12.472 24.6575 11.902 24.6575 11.266C24.6575 10.642 24.5315 10.078 24.2795 9.574C24.0395 9.07 23.6975 8.674 23.2535 8.386C22.8215 8.086 22.3235 7.936 21.7595 7.936C21.1955 7.936 20.6915 8.08 20.2475 8.368C19.8155 8.656 19.4735 9.052 19.2215 9.556C18.9815 10.06 18.8615 10.63 18.8615 11.266C18.8615 11.902 18.9815 12.472 19.2215 12.976C19.4735 13.48 19.8155 13.876 20.2475 14.164C20.6915 14.452 21.1955 14.596 21.7595 14.596ZM33.7722 6.406C34.5882 6.406 35.3262 6.616 35.9862 7.036C36.6462 7.444 37.1622 8.02 37.5342 8.764C37.9182 9.508 38.1102 10.348 38.1102 11.284C38.1102 12.22 37.9182 13.06 37.5342 13.804C37.1622 14.536 36.6462 15.112 35.9862 15.532C35.3262 15.952 34.6002 16.162 33.8082 16.162C33.1842 16.162 32.6022 16.024 32.0622 15.748C31.5222 15.472 31.0842 15.136 30.7482 14.74V18.736C30.7482 18.976 30.6642 19.18 30.4962 19.348C30.3402 19.516 30.1362 19.6 29.8842 19.6C29.6442 19.6 29.4402 19.516 29.2722 19.348C29.1162 19.192 29.0382 18.988 29.0382 18.736V7.414C29.0382 7.162 29.1162 6.952 29.2722 6.784C29.4282 6.616 29.6322 6.532 29.8842 6.532C30.1362 6.532 30.3402 6.616 30.4962 6.784C30.6642 6.952 30.7482 7.162 30.7482 7.414V7.936C31.0362 7.516 31.4562 7.156 32.0082 6.856C32.5602 6.556 33.1482 6.406 33.7722 6.406ZM33.5742 14.578C34.1262 14.578 34.6242 14.434 35.0682 14.146C35.5122 13.858 35.8542 13.468 36.0942 12.976C36.3462 12.472 36.4722 11.908 36.4722 11.284C36.4722 10.66 36.3462 10.102 36.0942 9.61C35.8542 9.106 35.5122 8.71 35.0682 8.422C34.6242 8.134 34.1262 7.99 33.5742 7.99C33.0102 7.99 32.5062 8.134 32.0622 8.422C31.6182 8.698 31.2702 9.088 31.0182 9.592C30.7782 10.096 30.6582 10.66 30.6582 11.284C30.6582 11.908 30.7782 12.472 31.0182 12.976C31.2702 13.48 31.6182 13.876 32.0622 14.164C32.5062 14.44 33.0102 14.578 33.5742 14.578ZM48.5748 10.924C48.5628 11.14 48.4728 11.326 48.3048 11.482C48.1368 11.626 47.9388 11.698 47.7108 11.698H41.3748C41.4588 12.574 41.7888 13.276 42.3648 13.804C42.9528 14.332 43.6668 14.596 44.5068 14.596C45.0828 14.596 45.5508 14.512 45.9108 14.344C46.2708 14.176 46.5888 13.96 46.8648 13.696C47.0448 13.588 47.2188 13.534 47.3868 13.534C47.5908 13.534 47.7588 13.606 47.8908 13.75C48.0348 13.894 48.1068 14.062 48.1068 14.254C48.1068 14.506 47.9868 14.734 47.7468 14.938C47.3988 15.286 46.9368 15.58 46.3608 15.82C45.7848 16.06 45.1968 16.18 44.5968 16.18C43.6248 16.18 42.7668 15.976 42.0228 15.568C41.2908 15.16 40.7208 14.59 40.3128 13.858C39.9168 13.126 39.7188 12.298 39.7188 11.374C39.7188 10.366 39.9228 9.484 40.3308 8.728C40.7508 7.96 41.2968 7.372 41.9688 6.964C42.6528 6.556 43.3848 6.352 44.1648 6.352C44.9328 6.352 45.6528 6.55 46.3248 6.946C46.9968 7.342 47.5368 7.888 47.9448 8.584C48.3528 9.28 48.5628 10.06 48.5748 10.924ZM44.1648 7.936C43.4928 7.936 42.9108 8.128 42.4188 8.512C41.9268 8.884 41.6028 9.466 41.4468 10.258H46.7568V10.114C46.6968 9.478 46.4088 8.956 45.8928 8.548C45.3888 8.14 44.8128 7.936 44.1648 7.936ZM64.3226 10.816C64.5506 10.816 64.7426 10.894 64.8986 11.05C65.0546 11.194 65.1326 11.38 65.1326 11.608C65.1326 11.836 65.0546 12.022 64.8986 12.166C64.7426 12.31 64.5506 12.382 64.3226 12.382H63.3686V15.136C63.3686 15.376 63.2846 15.58 63.1166 15.748C62.9486 15.916 62.7446 16 62.5046 16C62.2646 16 62.0606 15.916 61.8926 15.748C61.7366 15.58 61.6586 15.376 61.6586 15.136V12.382H56.7266C56.5106 12.382 56.3126 12.298 56.1326 12.13C55.9646 11.962 55.8806 11.764 55.8806 11.536C55.8806 11.32 55.9466 11.128 56.0786 10.96L61.8206 3.742C61.9046 3.634 62.0066 3.55 62.1266 3.49C62.2586 3.43 62.3906 3.4 62.5226 3.4C62.7626 3.4 62.9606 3.484 63.1166 3.652C63.2846 3.82 63.3686 4.024 63.3686 4.264V10.816H64.3226ZM58.1486 10.816H61.6586V6.316L58.1486 10.816ZM73.7024 8.764C73.4144 8.764 73.1924 8.686 73.0364 8.53C72.8924 8.374 72.8204 8.146 72.8204 7.846V7.522C72.8204 7.222 72.8924 6.994 73.0364 6.838C73.1924 6.682 73.4144 6.604 73.7024 6.604H73.9004C74.1884 6.604 74.4044 6.682 74.5484 6.838C74.7044 6.994 74.7824 7.222 74.7824 7.522V7.846C74.7824 8.146 74.7044 8.374 74.5484 8.53C74.4044 8.686 74.1884 8.764 73.9004 8.764H73.7024ZM73.7024 16C73.4144 16 73.1924 15.922 73.0364 15.766C72.8924 15.598 72.8204 15.37 72.8204 15.082V14.74C72.8204 14.452 72.8924 14.23 73.0364 14.074C73.1924 13.906 73.4144 13.822 73.7024 13.822H73.9004C74.1884 13.822 74.4044 13.906 74.5484 14.074C74.7044 14.23 74.7824 14.452 74.7824 14.74V15.082C74.7824 15.37 74.7044 15.598 74.5484 15.766C74.4044 15.922 74.1884 16 73.9004 16H73.7024ZM90.998 3.4C91.25 3.4 91.454 3.478 91.61 3.634C91.778 3.778 91.862 3.976 91.862 4.228C91.862 4.48 91.778 4.678 91.61 4.822C91.454 4.966 91.25 5.038 90.998 5.038H87.794V15.136C87.794 15.376 87.704 15.58 87.524 15.748C87.356 15.916 87.14 16 86.876 16C86.612 16 86.39 15.916 86.21 15.748C86.042 15.58 85.958 15.376 85.958 15.136V5.038H82.772C82.52 5.038 82.31 4.966 82.142 4.822C81.986 4.666 81.908 4.462 81.908 4.21C81.908 3.97 81.986 3.778 82.142 3.634C82.31 3.478 82.52 3.4 82.772 3.4H90.998ZM99.7764 6.442C100.028 6.442 100.232 6.526 100.388 6.694C100.556 6.85 100.64 7.06 100.64 7.324V15.136C100.64 15.376 100.556 15.58 100.388 15.748C100.232 15.916 100.028 16 99.7764 16C99.5244 16 99.3204 15.922 99.1644 15.766C99.0084 15.598 98.9304 15.388 98.9304 15.136V14.668C98.6184 15.088 98.1924 15.448 97.6524 15.748C97.1124 16.036 96.5304 16.18 95.9064 16.18C95.0904 16.18 94.3464 15.97 93.6744 15.55C93.0144 15.13 92.4924 14.548 92.1084 13.804C91.7364 13.048 91.5504 12.202 91.5504 11.266C91.5504 10.33 91.7364 9.49 92.1084 8.746C92.4924 7.99 93.0144 7.402 93.6744 6.982C94.3344 6.562 95.0604 6.352 95.8524 6.352C96.4884 6.352 97.0764 6.484 97.6164 6.748C98.1684 7.012 98.6064 7.348 98.9304 7.756V7.324C98.9304 7.072 99.0084 6.862 99.1644 6.694C99.3204 6.526 99.5244 6.442 99.7764 6.442ZM96.1044 14.596C96.6684 14.596 97.1664 14.452 97.5984 14.164C98.0424 13.876 98.3844 13.48 98.6244 12.976C98.8764 12.472 99.0024 11.902 99.0024 11.266C99.0024 10.642 98.8764 10.078 98.6244 9.574C98.3844 9.07 98.0424 8.674 97.5984 8.386C97.1664 8.086 96.6684 7.936 96.1044 7.936C95.5404 7.936 95.0364 8.08 94.5924 8.368C94.1604 8.656 93.8184 9.052 93.5664 9.556C93.3264 10.06 93.2064 10.63 93.2064 11.266C93.2064 11.902 93.3264 12.472 93.5664 12.976C93.8184 13.48 94.1604 13.876 94.5924 14.164C95.0364 14.452 95.5404 14.596 96.1044 14.596ZM108.081 6.352C108.393 6.352 108.663 6.436 108.891 6.604C109.119 6.76 109.233 6.958 109.233 7.198C109.233 7.486 109.155 7.708 108.999 7.864C108.855 8.008 108.675 8.08 108.459 8.08C108.351 8.08 108.189 8.044 107.973 7.972C107.721 7.888 107.523 7.846 107.379 7.846C107.007 7.846 106.641 7.978 106.281 8.242C105.933 8.494 105.645 8.848 105.417 9.304C105.201 9.748 105.093 10.246 105.093 10.798V15.136C105.093 15.376 105.009 15.58 104.841 15.748C104.685 15.916 104.481 16 104.229 16C103.977 16 103.773 15.922 103.617 15.766C103.461 15.598 103.383 15.388 103.383 15.136V7.432C103.383 7.192 103.461 6.988 103.617 6.82C103.785 6.652 103.989 6.568 104.229 6.568C104.481 6.568 104.685 6.652 104.841 6.82C105.009 6.988 105.093 7.192 105.093 7.432V8.35C105.357 7.762 105.753 7.288 106.281 6.928C106.809 6.556 107.409 6.364 108.081 6.352ZM112.639 15.136C112.639 15.376 112.555 15.58 112.387 15.748C112.231 15.916 112.027 16 111.775 16C111.535 16 111.331 15.916 111.163 15.748C111.007 15.58 110.929 15.376 110.929 15.136V7.342C110.929 7.102 111.007 6.898 111.163 6.73C111.331 6.562 111.535 6.478 111.775 6.478C112.027 6.478 112.231 6.562 112.387 6.73C112.555 6.898 112.639 7.102 112.639 7.342V15.136ZM111.775 5.29C111.427 5.29 111.175 5.23 111.019 5.11C110.875 4.978 110.803 4.774 110.803 4.498V4.21C110.803 3.922 110.881 3.718 111.037 3.598C111.205 3.478 111.457 3.418 111.793 3.418C112.129 3.418 112.369 3.484 112.513 3.616C112.669 3.736 112.747 3.934 112.747 4.21V4.498C112.747 4.786 112.669 4.99 112.513 5.11C112.357 5.23 112.111 5.29 111.775 5.29ZM119.329 4.228C118.933 4.228 118.639 4.348 118.447 4.588C118.267 4.828 118.177 5.122 118.177 5.47V6.73H119.959C120.199 6.73 120.391 6.808 120.535 6.964C120.691 7.108 120.769 7.294 120.769 7.522C120.769 7.75 120.691 7.936 120.535 8.08C120.391 8.224 120.199 8.296 119.959 8.296H118.177V15.136C118.177 15.376 118.093 15.58 117.925 15.748C117.769 15.916 117.565 16 117.313 16C117.073 16 116.869 15.916 116.701 15.748C116.545 15.58 116.467 15.376 116.467 15.136V8.296H115.351C115.123 8.296 114.931 8.224 114.775 8.08C114.619 7.936 114.541 7.75 114.541 7.522C114.541 7.294 114.619 7.108 114.775 6.964C114.931 6.808 115.123 6.73 115.351 6.73H116.467V5.47C116.467 4.63 116.737 3.964 117.277 3.472C117.817 2.968 118.579 2.716 119.563 2.716C119.971 2.716 120.331 2.794 120.643 2.95C120.955 3.094 121.111 3.316 121.111 3.616C121.111 3.844 121.039 4.036 120.895 4.192C120.763 4.336 120.601 4.408 120.409 4.408C120.361 4.408 120.229 4.384 120.013 4.336C119.749 4.264 119.521 4.228 119.329 4.228ZM121.97 14.524C121.862 14.356 121.808 14.194 121.808 14.038C121.808 13.798 121.934 13.594 122.186 13.426C122.306 13.342 122.444 13.3 122.6 13.3C122.816 13.3 123.014 13.39 123.194 13.57C123.554 13.978 123.938 14.284 124.346 14.488C124.766 14.692 125.264 14.794 125.84 14.794C126.296 14.782 126.698 14.68 127.046 14.488C127.394 14.284 127.568 13.96 127.568 13.516C127.568 13.108 127.388 12.796 127.028 12.58C126.68 12.364 126.164 12.166 125.48 11.986C124.808 11.806 124.25 11.62 123.806 11.428C123.362 11.224 122.984 10.936 122.672 10.564C122.372 10.18 122.222 9.682 122.222 9.07C122.222 8.53 122.372 8.056 122.672 7.648C122.984 7.24 123.392 6.922 123.896 6.694C124.412 6.466 124.97 6.352 125.57 6.352C126.146 6.352 126.716 6.46 127.28 6.676C127.856 6.892 128.324 7.222 128.684 7.666C128.828 7.834 128.9 8.008 128.9 8.188C128.9 8.38 128.804 8.566 128.612 8.746C128.492 8.854 128.342 8.908 128.162 8.908C127.946 8.908 127.772 8.836 127.64 8.692C127.388 8.404 127.076 8.182 126.704 8.026C126.344 7.87 125.942 7.792 125.498 7.792C125.042 7.792 124.652 7.888 124.328 8.08C124.016 8.26 123.86 8.572 123.86 9.016C123.872 9.436 124.052 9.748 124.4 9.952C124.76 10.156 125.306 10.354 126.038 10.546C126.674 10.714 127.202 10.894 127.622 11.086C128.042 11.278 128.396 11.566 128.684 11.95C128.972 12.322 129.116 12.814 129.116 13.426C129.116 13.99 128.954 14.482 128.63 14.902C128.306 15.31 127.88 15.628 127.352 15.856C126.836 16.072 126.284 16.18 125.696 16.18C124.94 16.18 124.238 16.048 123.59 15.784C122.954 15.52 122.414 15.1 121.97 14.524ZM144.761 10.924C144.749 11.14 144.659 11.326 144.491 11.482C144.323 11.626 144.125 11.698 143.897 11.698H137.561C137.645 12.574 137.975 13.276 138.551 13.804C139.139 14.332 139.853 14.596 140.693 14.596C141.269 14.596 141.737 14.512 142.097 14.344C142.457 14.176 142.775 13.96 143.051 13.696C143.231 13.588 143.405 13.534 143.573 13.534C143.777 13.534 143.945 13.606 144.077 13.75C144.221 13.894 144.293 14.062 144.293 14.254C144.293 14.506 144.173 14.734 143.933 14.938C143.585 15.286 143.123 15.58 142.547 15.82C141.971 16.06 141.383 16.18 140.783 16.18C139.811 16.18 138.953 15.976 138.209 15.568C137.477 15.16 136.907 14.59 136.499 13.858C136.103 13.126 135.905 12.298 135.905 11.374C135.905 10.366 136.109 9.484 136.517 8.728C136.937 7.96 137.483 7.372 138.155 6.964C138.839 6.556 139.571 6.352 140.351 6.352C141.119 6.352 141.839 6.55 142.511 6.946C143.183 7.342 143.723 7.888 144.131 8.584C144.539 9.28 144.749 10.06 144.761 10.924ZM140.351 7.936C139.679 7.936 139.097 8.128 138.605 8.512C138.113 8.884 137.789 9.466 137.633 10.258H142.943V10.114C142.883 9.478 142.595 8.956 142.079 8.548C141.575 8.14 140.999 7.936 140.351 7.936ZM149.502 8.242V13.606C149.502 14.206 149.772 14.506 150.312 14.506C150.396 14.506 150.51 14.488 150.654 14.452C150.798 14.404 150.912 14.38 150.996 14.38C151.152 14.38 151.284 14.446 151.392 14.578C151.5 14.71 151.554 14.878 151.554 15.082C151.554 15.334 151.41 15.55 151.122 15.73C150.834 15.91 150.51 16 150.15 16C149.754 16 149.388 15.958 149.052 15.874C148.728 15.79 148.434 15.58 148.17 15.244C147.918 14.896 147.792 14.374 147.792 13.678V8.242H146.748C146.52 8.242 146.328 8.17 146.172 8.026C146.028 7.87 145.956 7.678 145.956 7.45C145.956 7.222 146.028 7.036 146.172 6.892C146.328 6.748 146.52 6.676 146.748 6.676H147.792V5.164C147.792 4.924 147.87 4.72 148.026 4.552C148.194 4.384 148.404 4.3 148.656 4.3C148.896 4.3 149.094 4.384 149.25 4.552C149.418 4.72 149.502 4.924 149.502 5.164V6.676H150.996C151.224 6.676 151.41 6.754 151.554 6.91C151.71 7.054 151.788 7.24 151.788 7.468C151.788 7.696 151.71 7.882 151.554 8.026C151.41 8.17 151.224 8.242 150.996 8.242H149.502ZM163.28 6.352C164.228 6.352 165.014 6.502 165.638 6.802C166.274 7.102 166.592 7.486 166.592 7.954C166.592 8.158 166.526 8.344 166.394 8.512C166.262 8.668 166.094 8.746 165.89 8.746C165.734 8.746 165.608 8.722 165.512 8.674C165.428 8.626 165.308 8.548 165.152 8.44C165.08 8.368 164.966 8.284 164.81 8.188C164.666 8.116 164.462 8.056 164.198 8.008C163.934 7.96 163.694 7.936 163.478 7.936C162.854 7.936 162.302 8.08 161.822 8.368C161.342 8.656 160.97 9.058 160.706 9.574C160.442 10.078 160.31 10.642 160.31 11.266C160.31 11.902 160.436 12.472 160.688 12.976C160.952 13.48 161.318 13.876 161.786 14.164C162.254 14.452 162.788 14.596 163.388 14.596C164.012 14.596 164.516 14.5 164.9 14.308C164.984 14.26 165.098 14.182 165.242 14.074C165.362 13.978 165.464 13.906 165.548 13.858C165.644 13.81 165.758 13.786 165.89 13.786C166.13 13.786 166.316 13.864 166.448 14.02C166.592 14.164 166.664 14.356 166.664 14.596C166.664 14.848 166.502 15.1 166.178 15.352C165.866 15.592 165.44 15.79 164.9 15.946C164.372 16.102 163.802 16.18 163.19 16.18C162.278 16.18 161.474 15.97 160.778 15.55C160.082 15.118 159.542 14.53 159.158 13.786C158.786 13.03 158.6 12.19 158.6 11.266C158.6 10.342 158.798 9.508 159.194 8.764C159.59 8.008 160.142 7.42 160.85 7C161.558 6.568 162.368 6.352 163.28 6.352ZM177.551 11.284C177.551 12.22 177.341 13.06 176.921 13.804C176.501 14.548 175.925 15.13 175.193 15.55C174.473 15.97 173.675 16.18 172.799 16.18C171.923 16.18 171.119 15.97 170.387 15.55C169.667 15.13 169.097 14.548 168.677 13.804C168.257 13.06 168.047 12.22 168.047 11.284C168.047 10.348 168.257 9.502 168.677 8.746C169.097 7.99 169.667 7.402 170.387 6.982C171.119 6.562 171.923 6.352 172.799 6.352C173.675 6.352 174.473 6.562 175.193 6.982C175.925 7.402 176.501 7.99 176.921 8.746C177.341 9.502 177.551 10.348 177.551 11.284ZM175.841 11.284C175.841 10.636 175.703 10.06 175.427 9.556C175.163 9.04 174.797 8.644 174.329 8.368C173.873 8.08 173.363 7.936 172.799 7.936C172.235 7.936 171.719 8.08 171.251 8.368C170.795 8.644 170.429 9.04 170.153 9.556C169.889 10.06 169.757 10.636 169.757 11.284C169.757 11.92 169.889 12.49 170.153 12.994C170.429 13.498 170.795 13.894 171.251 14.182C171.719 14.458 172.235 14.596 172.799 14.596C173.363 14.596 173.873 14.458 174.329 14.182C174.797 13.894 175.163 13.498 175.427 12.994C175.703 12.49 175.841 11.92 175.841 11.284ZM184.545 6.352C186.705 6.352 187.785 7.648 187.785 10.24V15.136C187.785 15.376 187.701 15.58 187.533 15.748C187.377 15.916 187.173 16 186.921 16C186.681 16 186.477 15.916 186.309 15.748C186.153 15.58 186.075 15.376 186.075 15.136V10.258C186.075 9.55 185.913 8.986 185.589 8.566C185.265 8.146 184.737 7.936 184.005 7.936C183.525 7.936 183.087 8.044 182.691 8.26C182.307 8.464 182.001 8.746 181.773 9.106C181.557 9.454 181.449 9.838 181.449 10.258V15.136C181.449 15.376 181.365 15.58 181.197 15.748C181.041 15.916 180.837 16 180.585 16C180.333 16 180.129 15.922 179.973 15.766C179.817 15.598 179.739 15.388 179.739 15.136V7.432C179.739 7.192 179.817 6.988 179.973 6.82C180.141 6.652 180.345 6.568 180.585 6.568C180.837 6.568 181.041 6.652 181.197 6.82C181.365 6.988 181.449 7.192 181.449 7.432V8.062C181.761 7.582 182.193 7.18 182.745 6.856C183.309 6.52 183.909 6.352 184.545 6.352ZM193.094 8.242V13.606C193.094 14.206 193.364 14.506 193.904 14.506C193.988 14.506 194.102 14.488 194.246 14.452C194.39 14.404 194.504 14.38 194.588 14.38C194.744 14.38 194.876 14.446 194.984 14.578C195.092 14.71 195.146 14.878 195.146 15.082C195.146 15.334 195.002 15.55 194.714 15.73C194.426 15.91 194.102 16 193.742 16C193.346 16 192.98 15.958 192.644 15.874C192.32 15.79 192.026 15.58 191.762 15.244C191.51 14.896 191.384 14.374 191.384 13.678V8.242H190.34C190.112 8.242 189.92 8.17 189.764 8.026C189.62 7.87 189.548 7.678 189.548 7.45C189.548 7.222 189.62 7.036 189.764 6.892C189.92 6.748 190.112 6.676 190.34 6.676H191.384V5.164C191.384 4.924 191.462 4.72 191.618 4.552C191.786 4.384 191.996 4.3 192.248 4.3C192.488 4.3 192.686 4.384 192.842 4.552C193.01 4.72 193.094 4.924 193.094 5.164V6.676H194.588C194.816 6.676 195.002 6.754 195.146 6.91C195.302 7.054 195.38 7.24 195.38 7.468C195.38 7.696 195.302 7.882 195.146 8.026C195.002 8.17 194.816 8.242 194.588 8.242H193.094ZM202.274 6.352C202.586 6.352 202.856 6.436 203.084 6.604C203.312 6.76 203.426 6.958 203.426 7.198C203.426 7.486 203.348 7.708 203.192 7.864C203.048 8.008 202.868 8.08 202.652 8.08C202.544 8.08 202.382 8.044 202.166 7.972C201.914 7.888 201.716 7.846 201.572 7.846C201.2 7.846 200.834 7.978 200.474 8.242C200.126 8.494 199.838 8.848 199.61 9.304C199.394 9.748 199.286 10.246 199.286 10.798V15.136C199.286 15.376 199.202 15.58 199.034 15.748C198.878 15.916 198.674 16 198.422 16C198.17 16 197.966 15.922 197.81 15.766C197.654 15.598 197.576 15.388 197.576 15.136V7.432C197.576 7.192 197.654 6.988 197.81 6.82C197.978 6.652 198.182 6.568 198.422 6.568C198.674 6.568 198.878 6.652 199.034 6.82C199.202 6.988 199.286 7.192 199.286 7.432V8.35C199.55 7.762 199.946 7.288 200.474 6.928C201.002 6.556 201.602 6.364 202.274 6.352ZM212.651 6.442C212.903 6.442 213.107 6.526 213.263 6.694C213.431 6.85 213.515 7.06 213.515 7.324V15.136C213.515 15.376 213.431 15.58 213.263 15.748C213.107 15.916 212.903 16 212.651 16C212.399 16 212.195 15.922 212.039 15.766C211.883 15.598 211.805 15.388 211.805 15.136V14.668C211.493 15.088 211.067 15.448 210.527 15.748C209.987 16.036 209.405 16.18 208.781 16.18C207.965 16.18 207.221 15.97 206.549 15.55C205.889 15.13 205.367 14.548 204.983 13.804C204.611 13.048 204.425 12.202 204.425 11.266C204.425 10.33 204.611 9.49 204.983 8.746C205.367 7.99 205.889 7.402 206.549 6.982C207.209 6.562 207.935 6.352 208.727 6.352C209.363 6.352 209.951 6.484 210.491 6.748C211.043 7.012 211.481 7.348 211.805 7.756V7.324C211.805 7.072 211.883 6.862 212.039 6.694C212.195 6.526 212.399 6.442 212.651 6.442ZM208.979 14.596C209.543 14.596 210.041 14.452 210.473 14.164C210.917 13.876 211.259 13.48 211.499 12.976C211.751 12.472 211.877 11.902 211.877 11.266C211.877 10.642 211.751 10.078 211.499 9.574C211.259 9.07 210.917 8.674 210.473 8.386C210.041 8.086 209.543 7.936 208.979 7.936C208.415 7.936 207.911 8.08 207.467 8.368C207.035 8.656 206.693 9.052 206.441 9.556C206.201 10.06 206.081 10.63 206.081 11.266C206.081 11.902 206.201 12.472 206.441 12.976C206.693 13.48 207.035 13.876 207.467 14.164C207.911 14.452 208.415 14.596 208.979 14.596ZM218.813 8.242V13.606C218.813 14.206 219.083 14.506 219.623 14.506C219.707 14.506 219.821 14.488 219.965 14.452C220.109 14.404 220.223 14.38 220.307 14.38C220.463 14.38 220.595 14.446 220.703 14.578C220.811 14.71 220.865 14.878 220.865 15.082C220.865 15.334 220.721 15.55 220.433 15.73C220.145 15.91 219.821 16 219.461 16C219.065 16 218.699 15.958 218.363 15.874C218.039 15.79 217.745 15.58 217.481 15.244C217.229 14.896 217.103 14.374 217.103 13.678V8.242H216.059C215.831 8.242 215.639 8.17 215.483 8.026C215.339 7.87 215.267 7.678 215.267 7.45C215.267 7.222 215.339 7.036 215.483 6.892C215.639 6.748 215.831 6.676 216.059 6.676H217.103V5.164C217.103 4.924 217.181 4.72 217.337 4.552C217.505 4.384 217.715 4.3 217.967 4.3C218.207 4.3 218.405 4.384 218.561 4.552C218.729 4.72 218.813 4.924 218.813 5.164V6.676H220.307C220.535 6.676 220.721 6.754 220.865 6.91C221.021 7.054 221.099 7.24 221.099 7.468C221.099 7.696 221.021 7.882 220.865 8.026C220.721 8.17 220.535 8.242 220.307 8.242H218.813Z" fill="#292984"/>
</svg>
