<svg width="221" height="20" viewBox="0 0 221 20" fill="none" xmlns="http://www.w3.org/2000/svg">
<path d="M7.622 14.344C7.874 14.344 8.078 14.428 8.234 14.596C8.402 14.764 8.486 14.962 8.486 15.19C8.486 15.43 8.402 15.628 8.234 15.784C8.078 15.928 7.874 16 7.622 16H1.358C1.118 16 0.914 15.916 0.746 15.748C0.578 15.58 0.494 15.376 0.494 15.136V4.264C0.494 4.024 0.578 3.82 0.746 3.652C0.914 3.484 1.118 3.4 1.358 3.4H7.622C7.874 3.4 8.078 3.478 8.234 3.634C8.402 3.79 8.486 3.994 8.486 4.246C8.486 4.486 8.402 4.684 8.234 4.84C8.078 4.984 7.874 5.056 7.622 5.056H2.276V8.728H6.812C7.064 8.728 7.268 8.806 7.424 8.962C7.592 9.118 7.676 9.316 7.676 9.556C7.676 9.808 7.592 10.006 7.424 10.15C7.268 10.294 7.064 10.366 6.812 10.366H2.276V14.344H7.622ZM4.616 2.662C4.436 2.662 4.292 2.62 4.184 2.536C4.088 2.44 4.04 2.314 4.04 2.158C4.04 2.002 4.112 1.864 4.256 1.744L5.84 0.411999C6.092 0.207999 6.332 0.106 6.56 0.106C6.764 0.106 6.944 0.177999 7.1 0.321999C7.268 0.465999 7.352 0.639999 7.352 0.843999C7.352 0.999999 7.304 1.15 7.208 1.294C7.112 1.438 6.98 1.552 6.812 1.636L5.03 2.554C4.886 2.626 4.748 2.662 4.616 2.662ZM13.2996 8.242V13.606C13.2996 14.206 13.5696 14.506 14.1096 14.506C14.1936 14.506 14.3076 14.488 14.4516 14.452C14.5956 14.404 14.7096 14.38 14.7936 14.38C14.9496 14.38 15.0816 14.446 15.1896 14.578C15.2976 14.71 15.3516 14.878 15.3516 15.082C15.3516 15.334 15.2076 15.55 14.9196 15.73C14.6316 15.91 14.3076 16 13.9476 16C13.5516 16 13.1856 15.958 12.8496 15.874C12.5256 15.79 12.2316 15.58 11.9676 15.244C11.7156 14.896 11.5896 14.374 11.5896 13.678V8.242H10.5456C10.3176 8.242 10.1256 8.17 9.96962 8.026C9.82562 7.87 9.75362 7.678 9.75362 7.45C9.75362 7.222 9.82562 7.036 9.96962 6.892C10.1256 6.748 10.3176 6.676 10.5456 6.676H11.5896V5.164C11.5896 4.924 11.6676 4.72 11.8236 4.552C11.9916 4.384 12.2016 4.3 12.4536 4.3C12.6936 4.3 12.8916 4.384 13.0476 4.552C13.2156 4.72 13.2996 4.924 13.2996 5.164V6.676H14.7936C15.0216 6.676 15.2076 6.754 15.3516 6.91C15.5076 7.054 15.5856 7.24 15.5856 7.468C15.5856 7.696 15.5076 7.882 15.3516 8.026C15.2076 8.17 15.0216 8.242 14.7936 8.242H13.2996ZM25.4315 6.442C25.6835 6.442 25.8875 6.526 26.0435 6.694C26.2115 6.85 26.2955 7.06 26.2955 7.324V15.136C26.2955 15.376 26.2115 15.58 26.0435 15.748C25.8875 15.916 25.6835 16 25.4315 16C25.1795 16 24.9755 15.922 24.8195 15.766C24.6635 15.598 24.5855 15.388 24.5855 15.136V14.668C24.2735 15.088 23.8475 15.448 23.3075 15.748C22.7675 16.036 22.1855 16.18 21.5615 16.18C20.7455 16.18 20.0015 15.97 19.3295 15.55C18.6695 15.13 18.1475 14.548 17.7635 13.804C17.3915 13.048 17.2055 12.202 17.2055 11.266C17.2055 10.33 17.3915 9.49 17.7635 8.746C18.1475 7.99 18.6695 7.402 19.3295 6.982C19.9895 6.562 20.7155 6.352 21.5075 6.352C22.1435 6.352 22.7315 6.484 23.2715 6.748C23.8235 7.012 24.2615 7.348 24.5855 7.756V7.324C24.5855 7.072 24.6635 6.862 24.8195 6.694C24.9755 6.526 25.1795 6.442 25.4315 6.442ZM21.7595 14.596C22.3235 14.596 22.8215 14.452 23.2535 14.164C23.6975 13.876 24.0395 13.48 24.2795 12.976C24.5315 12.472 24.6575 11.902 24.6575 11.266C24.6575 10.642 24.5315 10.078 24.2795 9.574C24.0395 9.07 23.6975 8.674 23.2535 8.386C22.8215 8.086 22.3235 7.936 21.7595 7.936C21.1955 7.936 20.6915 8.08 20.2475 8.368C19.8155 8.656 19.4735 9.052 19.2215 9.556C18.9815 10.06 18.8615 10.63 18.8615 11.266C18.8615 11.902 18.9815 12.472 19.2215 12.976C19.4735 13.48 19.8155 13.876 20.2475 14.164C20.6915 14.452 21.1955 14.596 21.7595 14.596ZM33.7722 6.406C34.5882 6.406 35.3262 6.616 35.9862 7.036C36.6462 7.444 37.1622 8.02 37.5342 8.764C37.9182 9.508 38.1102 10.348 38.1102 11.284C38.1102 12.22 37.9182 13.06 37.5342 13.804C37.1622 14.536 36.6462 15.112 35.9862 15.532C35.3262 15.952 34.6002 16.162 33.8082 16.162C33.1842 16.162 32.6022 16.024 32.0622 15.748C31.5222 15.472 31.0842 15.136 30.7482 14.74V18.736C30.7482 18.976 30.6642 19.18 30.4962 19.348C30.3402 19.516 30.1362 19.6 29.8842 19.6C29.6442 19.6 29.4402 19.516 29.2722 19.348C29.1162 19.192 29.0382 18.988 29.0382 18.736V7.414C29.0382 7.162 29.1162 6.952 29.2722 6.784C29.4282 6.616 29.6322 6.532 29.8842 6.532C30.1362 6.532 30.3402 6.616 30.4962 6.784C30.6642 6.952 30.7482 7.162 30.7482 7.414V7.936C31.0362 7.516 31.4562 7.156 32.0082 6.856C32.5602 6.556 33.1482 6.406 33.7722 6.406ZM33.5742 14.578C34.1262 14.578 34.6242 14.434 35.0682 14.146C35.5122 13.858 35.8542 13.468 36.0942 12.976C36.3462 12.472 36.4722 11.908 36.4722 11.284C36.4722 10.66 36.3462 10.102 36.0942 9.61C35.8542 9.106 35.5122 8.71 35.0682 8.422C34.6242 8.134 34.1262 7.99 33.5742 7.99C33.0102 7.99 32.5062 8.134 32.0622 8.422C31.6182 8.698 31.2702 9.088 31.0182 9.592C30.7782 10.096 30.6582 10.66 30.6582 11.284C30.6582 11.908 30.7782 12.472 31.0182 12.976C31.2702 13.48 31.6182 13.876 32.0622 14.164C32.5062 14.44 33.0102 14.578 33.5742 14.578ZM48.5748 10.924C48.5628 11.14 48.4728 11.326 48.3048 11.482C48.1368 11.626 47.9388 11.698 47.7108 11.698H41.3748C41.4588 12.574 41.7888 13.276 42.3648 13.804C42.9528 14.332 43.6668 14.596 44.5068 14.596C45.0828 14.596 45.5508 14.512 45.9108 14.344C46.2708 14.176 46.5888 13.96 46.8648 13.696C47.0448 13.588 47.2188 13.534 47.3868 13.534C47.5908 13.534 47.7588 13.606 47.8908 13.75C48.0348 13.894 48.1068 14.062 48.1068 14.254C48.1068 14.506 47.9868 14.734 47.7468 14.938C47.3988 15.286 46.9368 15.58 46.3608 15.82C45.7848 16.06 45.1968 16.18 44.5968 16.18C43.6248 16.18 42.7668 15.976 42.0228 15.568C41.2908 15.16 40.7208 14.59 40.3128 13.858C39.9168 13.126 39.7188 12.298 39.7188 11.374C39.7188 10.366 39.9228 9.484 40.3308 8.728C40.7508 7.96 41.2968 7.372 41.9688 6.964C42.6528 6.556 43.3848 6.352 44.1648 6.352C44.9328 6.352 45.6528 6.55 46.3248 6.946C46.9968 7.342 47.5368 7.888 47.9448 8.584C48.3528 9.28 48.5628 10.06 48.5748 10.924ZM44.1648 7.936C43.4928 7.936 42.9108 8.128 42.4188 8.512C41.9268 8.884 41.6028 9.466 41.4468 10.258H46.7568V10.114C46.6968 9.478 46.4088 8.956 45.8928 8.548C45.3888 8.14 44.8128 7.936 44.1648 7.936ZM63.0986 14.416C63.3266 14.416 63.5186 14.494 63.6746 14.65C63.8306 14.806 63.9086 14.998 63.9086 15.226C63.9086 15.454 63.8306 15.64 63.6746 15.784C63.5186 15.928 63.3266 16 63.0986 16H56.7086C56.4686 16 56.2706 15.928 56.1146 15.784C55.9586 15.628 55.8806 15.424 55.8806 15.172C55.8806 14.956 55.9646 14.752 56.1326 14.56L60.1466 10.204C61.2626 9.016 61.8206 7.966 61.8206 7.054C61.8206 6.406 61.6046 5.872 61.1726 5.452C60.7526 5.02 60.2126 4.804 59.5526 4.804C59.1086 4.804 58.6826 4.93 58.2746 5.182C57.8666 5.434 57.5366 5.794 57.2846 6.262C57.0926 6.514 56.8646 6.64 56.6006 6.64C56.3966 6.64 56.2046 6.562 56.0246 6.406C55.8446 6.25 55.7546 6.07 55.7546 5.866C55.7546 5.734 55.7966 5.596 55.8806 5.452C55.9766 5.308 56.1086 5.14 56.2766 4.948C56.6726 4.42 57.1766 4 57.7886 3.688C58.4006 3.376 59.0186 3.22 59.6426 3.22C60.4466 3.22 61.1426 3.382 61.7306 3.706C62.3186 4.03 62.7686 4.474 63.0806 5.038C63.4046 5.602 63.5666 6.25 63.5666 6.982C63.5666 8.362 62.8226 9.85 61.3346 11.446L58.6166 14.416H63.0986ZM71.9797 8.764C71.6917 8.764 71.4697 8.686 71.3137 8.53C71.1697 8.374 71.0977 8.146 71.0977 7.846V7.522C71.0977 7.222 71.1697 6.994 71.3137 6.838C71.4697 6.682 71.6917 6.604 71.9797 6.604H72.1777C72.4657 6.604 72.6817 6.682 72.8257 6.838C72.9817 6.994 73.0597 7.222 73.0597 7.522V7.846C73.0597 8.146 72.9817 8.374 72.8257 8.53C72.6817 8.686 72.4657 8.764 72.1777 8.764H71.9797ZM71.9797 16C71.6917 16 71.4697 15.922 71.3137 15.766C71.1697 15.598 71.0977 15.37 71.0977 15.082V14.74C71.0977 14.452 71.1697 14.23 71.3137 14.074C71.4697 13.906 71.6917 13.822 71.9797 13.822H72.1777C72.4657 13.822 72.6817 13.906 72.8257 14.074C72.9817 14.23 73.0597 14.452 73.0597 14.74V15.082C73.0597 15.37 72.9817 15.598 72.8257 15.766C72.6817 15.922 72.4657 16 72.1777 16H71.9797ZM90.0854 4.138C90.3734 4.294 90.5174 4.534 90.5174 4.858C90.5174 5.074 90.4454 5.272 90.3014 5.452C90.1574 5.644 89.9594 5.74 89.7074 5.74C89.5394 5.74 89.3774 5.698 89.2214 5.614C88.4774 5.194 87.6734 4.984 86.8094 4.984C85.9094 4.984 85.1114 5.182 84.4154 5.578C83.7314 5.974 83.1974 6.532 82.8134 7.252C82.4294 7.96 82.2374 8.776 82.2374 9.7C82.2374 10.696 82.4354 11.554 82.8314 12.274C83.2274 12.994 83.7734 13.546 84.4694 13.93C85.1654 14.302 85.9454 14.488 86.8094 14.488C87.6974 14.488 88.5014 14.272 89.2214 13.84C89.3654 13.768 89.5214 13.732 89.6894 13.732C89.9534 13.732 90.1634 13.834 90.3194 14.038C90.4634 14.218 90.5354 14.41 90.5354 14.614C90.5354 14.758 90.4934 14.896 90.4094 15.028C90.3374 15.148 90.2354 15.244 90.1034 15.316C89.6354 15.58 89.1074 15.79 88.5194 15.946C87.9434 16.102 87.3734 16.18 86.8094 16.18C85.6454 16.18 84.5714 15.922 83.5874 15.406C82.6154 14.89 81.8354 14.14 81.2474 13.156C80.6714 12.172 80.3834 11.02 80.3834 9.7C80.3834 8.488 80.6594 7.396 81.2114 6.424C81.7754 5.44 82.5434 4.672 83.5154 4.12C84.4994 3.556 85.5974 3.274 86.8094 3.274C87.9734 3.274 89.0654 3.562 90.0854 4.138ZM100.216 6.442C100.468 6.442 100.672 6.526 100.828 6.694C100.996 6.85 101.08 7.06 101.08 7.324V15.136C101.08 15.376 100.996 15.58 100.828 15.748C100.672 15.916 100.468 16 100.216 16C99.9639 16 99.7599 15.922 99.6039 15.766C99.4479 15.598 99.3699 15.388 99.3699 15.136V14.668C99.0579 15.088 98.6319 15.448 98.0919 15.748C97.5519 16.036 96.9699 16.18 96.3459 16.18C95.5299 16.18 94.7859 15.97 94.1139 15.55C93.4539 15.13 92.9319 14.548 92.5479 13.804C92.1759 13.048 91.9899 12.202 91.9899 11.266C91.9899 10.33 92.1759 9.49 92.5479 8.746C92.9319 7.99 93.4539 7.402 94.1139 6.982C94.7739 6.562 95.4999 6.352 96.2919 6.352C96.9279 6.352 97.5159 6.484 98.0559 6.748C98.6079 7.012 99.0459 7.348 99.3699 7.756V7.324C99.3699 7.072 99.4479 6.862 99.6039 6.694C99.7599 6.526 99.9639 6.442 100.216 6.442ZM96.5439 14.596C97.1079 14.596 97.6059 14.452 98.0379 14.164C98.4819 13.876 98.8239 13.48 99.0639 12.976C99.3159 12.472 99.4419 11.902 99.4419 11.266C99.4419 10.642 99.3159 10.078 99.0639 9.574C98.8239 9.07 98.4819 8.674 98.0379 8.386C97.6059 8.086 97.1079 7.936 96.5439 7.936C95.9799 7.936 95.4759 8.08 95.0319 8.368C94.5999 8.656 94.2579 9.052 94.0059 9.556C93.7659 10.06 93.6459 10.63 93.6459 11.266C93.6459 11.902 93.7659 12.472 94.0059 12.976C94.2579 13.48 94.5999 13.876 95.0319 14.164C95.4759 14.452 95.9799 14.596 96.5439 14.596ZM108.521 6.352C108.833 6.352 109.103 6.436 109.331 6.604C109.559 6.76 109.673 6.958 109.673 7.198C109.673 7.486 109.595 7.708 109.439 7.864C109.295 8.008 109.115 8.08 108.899 8.08C108.791 8.08 108.629 8.044 108.413 7.972C108.161 7.888 107.963 7.846 107.819 7.846C107.447 7.846 107.081 7.978 106.721 8.242C106.373 8.494 106.085 8.848 105.857 9.304C105.641 9.748 105.533 10.246 105.533 10.798V15.136C105.533 15.376 105.449 15.58 105.281 15.748C105.125 15.916 104.921 16 104.669 16C104.417 16 104.213 15.922 104.057 15.766C103.901 15.598 103.823 15.388 103.823 15.136V7.432C103.823 7.192 103.901 6.988 104.057 6.82C104.225 6.652 104.429 6.568 104.669 6.568C104.921 6.568 105.125 6.652 105.281 6.82C105.449 6.988 105.533 7.192 105.533 7.432V8.35C105.797 7.762 106.193 7.288 106.721 6.928C107.249 6.556 107.849 6.364 108.521 6.352ZM118.897 6.442C119.149 6.442 119.353 6.526 119.509 6.694C119.677 6.85 119.761 7.06 119.761 7.324V15.136C119.761 15.376 119.677 15.58 119.509 15.748C119.353 15.916 119.149 16 118.897 16C118.645 16 118.441 15.922 118.285 15.766C118.129 15.598 118.051 15.388 118.051 15.136V14.668C117.739 15.088 117.313 15.448 116.773 15.748C116.233 16.036 115.651 16.18 115.027 16.18C114.211 16.18 113.467 15.97 112.795 15.55C112.135 15.13 111.613 14.548 111.229 13.804C110.857 13.048 110.671 12.202 110.671 11.266C110.671 10.33 110.857 9.49 111.229 8.746C111.613 7.99 112.135 7.402 112.795 6.982C113.455 6.562 114.181 6.352 114.973 6.352C115.609 6.352 116.197 6.484 116.737 6.748C117.289 7.012 117.727 7.348 118.051 7.756V7.324C118.051 7.072 118.129 6.862 118.285 6.694C118.441 6.526 118.645 6.442 118.897 6.442ZM115.225 14.596C115.789 14.596 116.287 14.452 116.719 14.164C117.163 13.876 117.505 13.48 117.745 12.976C117.997 12.472 118.123 11.902 118.123 11.266C118.123 10.642 117.997 10.078 117.745 9.574C117.505 9.07 117.163 8.674 116.719 8.386C116.287 8.086 115.789 7.936 115.225 7.936C114.661 7.936 114.157 8.08 113.713 8.368C113.281 8.656 112.939 9.052 112.687 9.556C112.447 10.06 112.327 10.63 112.327 11.266C112.327 11.902 112.447 12.472 112.687 12.976C112.939 13.48 113.281 13.876 113.713 14.164C114.157 14.452 114.661 14.596 115.225 14.596ZM126.608 6.352C127.556 6.352 128.342 6.502 128.966 6.802C129.602 7.102 129.92 7.486 129.92 7.954C129.92 8.158 129.854 8.344 129.722 8.512C129.59 8.668 129.422 8.746 129.218 8.746C129.062 8.746 128.936 8.722 128.84 8.674C128.756 8.626 128.636 8.548 128.48 8.44C128.408 8.368 128.294 8.284 128.138 8.188C127.994 8.116 127.79 8.056 127.526 8.008C127.262 7.96 127.022 7.936 126.806 7.936C126.182 7.936 125.63 8.08 125.15 8.368C124.67 8.656 124.298 9.058 124.034 9.574C123.77 10.078 123.638 10.642 123.638 11.266C123.638 11.902 123.764 12.472 124.016 12.976C124.28 13.48 124.646 13.876 125.114 14.164C125.582 14.452 126.116 14.596 126.716 14.596C127.34 14.596 127.844 14.5 128.228 14.308C128.312 14.26 128.426 14.182 128.57 14.074C128.69 13.978 128.792 13.906 128.876 13.858C128.972 13.81 129.086 13.786 129.218 13.786C129.458 13.786 129.644 13.864 129.776 14.02C129.92 14.164 129.992 14.356 129.992 14.596C129.992 14.848 129.83 15.1 129.506 15.352C129.194 15.592 128.768 15.79 128.228 15.946C127.7 16.102 127.13 16.18 126.518 16.18C125.606 16.18 124.802 15.97 124.106 15.55C123.41 15.118 122.87 14.53 122.486 13.786C122.114 13.03 121.928 12.19 121.928 11.266C121.928 10.342 122.126 9.508 122.522 8.764C122.918 8.008 123.47 7.42 124.178 7C124.886 6.568 125.696 6.352 126.608 6.352ZM134.506 8.242V13.606C134.506 14.206 134.776 14.506 135.316 14.506C135.4 14.506 135.514 14.488 135.658 14.452C135.802 14.404 135.916 14.38 136 14.38C136.156 14.38 136.288 14.446 136.396 14.578C136.504 14.71 136.558 14.878 136.558 15.082C136.558 15.334 136.414 15.55 136.126 15.73C135.838 15.91 135.514 16 135.154 16C134.758 16 134.392 15.958 134.056 15.874C133.732 15.79 133.438 15.58 133.174 15.244C132.922 14.896 132.796 14.374 132.796 13.678V8.242H131.752C131.524 8.242 131.332 8.17 131.176 8.026C131.032 7.87 130.96 7.678 130.96 7.45C130.96 7.222 131.032 7.036 131.176 6.892C131.332 6.748 131.524 6.676 131.752 6.676H132.796V5.164C132.796 4.924 132.874 4.72 133.03 4.552C133.198 4.384 133.408 4.3 133.66 4.3C133.9 4.3 134.098 4.384 134.254 4.552C134.422 4.72 134.506 4.924 134.506 5.164V6.676H136C136.228 6.676 136.414 6.754 136.558 6.91C136.714 7.054 136.792 7.24 136.792 7.468C136.792 7.696 136.714 7.882 136.558 8.026C136.414 8.17 136.228 8.242 136 8.242H134.506ZM147.18 10.924C147.168 11.14 147.078 11.326 146.91 11.482C146.742 11.626 146.544 11.698 146.316 11.698H139.98C140.064 12.574 140.394 13.276 140.97 13.804C141.558 14.332 142.272 14.596 143.112 14.596C143.688 14.596 144.156 14.512 144.516 14.344C144.876 14.176 145.194 13.96 145.47 13.696C145.65 13.588 145.824 13.534 145.992 13.534C146.196 13.534 146.364 13.606 146.496 13.75C146.64 13.894 146.712 14.062 146.712 14.254C146.712 14.506 146.592 14.734 146.352 14.938C146.004 15.286 145.542 15.58 144.966 15.82C144.39 16.06 143.802 16.18 143.202 16.18C142.23 16.18 141.372 15.976 140.628 15.568C139.896 15.16 139.326 14.59 138.918 13.858C138.522 13.126 138.324 12.298 138.324 11.374C138.324 10.366 138.528 9.484 138.936 8.728C139.356 7.96 139.902 7.372 140.574 6.964C141.258 6.556 141.99 6.352 142.77 6.352C143.538 6.352 144.258 6.55 144.93 6.946C145.602 7.342 146.142 7.888 146.55 8.584C146.958 9.28 147.168 10.06 147.18 10.924ZM142.77 7.936C142.098 7.936 141.516 8.128 141.024 8.512C140.532 8.884 140.208 9.466 140.052 10.258H145.362V10.114C145.302 9.478 145.014 8.956 144.498 8.548C143.994 8.14 143.418 7.936 142.77 7.936ZM142.716 5.902C142.62 5.902 142.518 5.86 142.41 5.776C142.302 5.692 142.254 5.578 142.266 5.434C142.266 5.338 142.302 5.23 142.374 5.11L143.436 3.328C143.532 3.16 143.646 3.022 143.778 2.914C143.922 2.806 144.084 2.752 144.264 2.752C144.528 2.752 144.726 2.824 144.858 2.968C145.002 3.1 145.068 3.28 145.056 3.508C145.056 3.724 144.966 3.934 144.786 4.138L143.436 5.614C143.244 5.806 143.004 5.902 142.716 5.902ZM154.063 6.352C154.375 6.352 154.645 6.436 154.873 6.604C155.101 6.76 155.215 6.958 155.215 7.198C155.215 7.486 155.137 7.708 154.981 7.864C154.837 8.008 154.657 8.08 154.441 8.08C154.333 8.08 154.171 8.044 153.955 7.972C153.703 7.888 153.505 7.846 153.361 7.846C152.989 7.846 152.623 7.978 152.263 8.242C151.915 8.494 151.627 8.848 151.399 9.304C151.183 9.748 151.075 10.246 151.075 10.798V15.136C151.075 15.376 150.991 15.58 150.823 15.748C150.667 15.916 150.463 16 150.211 16C149.959 16 149.755 15.922 149.599 15.766C149.443 15.598 149.365 15.388 149.365 15.136V7.432C149.365 7.192 149.443 6.988 149.599 6.82C149.767 6.652 149.971 6.568 150.211 6.568C150.463 6.568 150.667 6.652 150.823 6.82C150.991 6.988 151.075 7.192 151.075 7.432V8.35C151.339 7.762 151.735 7.288 152.263 6.928C152.791 6.556 153.391 6.364 154.063 6.352ZM158.621 15.136C158.621 15.376 158.537 15.58 158.369 15.748C158.213 15.916 158.009 16 157.757 16C157.517 16 157.313 15.916 157.145 15.748C156.989 15.58 156.911 15.376 156.911 15.136V7.342C156.911 7.102 156.989 6.898 157.145 6.73C157.313 6.562 157.517 6.478 157.757 6.478C158.009 6.478 158.213 6.562 158.369 6.73C158.537 6.898 158.621 7.102 158.621 7.342V15.136ZM157.757 5.29C157.409 5.29 157.157 5.23 157.001 5.11C156.857 4.978 156.785 4.774 156.785 4.498V4.21C156.785 3.922 156.863 3.718 157.019 3.598C157.187 3.478 157.439 3.418 157.775 3.418C158.111 3.418 158.351 3.484 158.495 3.616C158.651 3.736 158.729 3.934 158.729 4.21V4.498C158.729 4.786 158.651 4.99 158.495 5.11C158.339 5.23 158.093 5.29 157.757 5.29ZM160.739 14.524C160.631 14.356 160.577 14.194 160.577 14.038C160.577 13.798 160.703 13.594 160.955 13.426C161.075 13.342 161.213 13.3 161.369 13.3C161.585 13.3 161.783 13.39 161.963 13.57C162.323 13.978 162.707 14.284 163.115 14.488C163.535 14.692 164.033 14.794 164.609 14.794C165.065 14.782 165.467 14.68 165.815 14.488C166.163 14.284 166.337 13.96 166.337 13.516C166.337 13.108 166.157 12.796 165.797 12.58C165.449 12.364 164.933 12.166 164.249 11.986C163.577 11.806 163.019 11.62 162.575 11.428C162.131 11.224 161.753 10.936 161.441 10.564C161.141 10.18 160.991 9.682 160.991 9.07C160.991 8.53 161.141 8.056 161.441 7.648C161.753 7.24 162.161 6.922 162.665 6.694C163.181 6.466 163.739 6.352 164.339 6.352C164.915 6.352 165.485 6.46 166.049 6.676C166.625 6.892 167.093 7.222 167.453 7.666C167.597 7.834 167.669 8.008 167.669 8.188C167.669 8.38 167.573 8.566 167.381 8.746C167.261 8.854 167.111 8.908 166.931 8.908C166.715 8.908 166.541 8.836 166.409 8.692C166.157 8.404 165.845 8.182 165.473 8.026C165.113 7.87 164.711 7.792 164.267 7.792C163.811 7.792 163.421 7.888 163.097 8.08C162.785 8.26 162.629 8.572 162.629 9.016C162.641 9.436 162.821 9.748 163.169 9.952C163.529 10.156 164.075 10.354 164.807 10.546C165.443 10.714 165.971 10.894 166.391 11.086C166.811 11.278 167.165 11.566 167.453 11.95C167.741 12.322 167.885 12.814 167.885 13.426C167.885 13.99 167.723 14.482 167.399 14.902C167.075 15.31 166.649 15.628 166.121 15.856C165.605 16.072 165.053 16.18 164.465 16.18C163.709 16.18 163.007 16.048 162.359 15.784C161.723 15.52 161.183 15.1 160.739 14.524ZM172.613 8.242V13.606C172.613 14.206 172.883 14.506 173.423 14.506C173.507 14.506 173.621 14.488 173.765 14.452C173.909 14.404 174.023 14.38 174.107 14.38C174.263 14.38 174.395 14.446 174.503 14.578C174.611 14.71 174.665 14.878 174.665 15.082C174.665 15.334 174.521 15.55 174.233 15.73C173.945 15.91 173.621 16 173.261 16C172.865 16 172.499 15.958 172.163 15.874C171.839 15.79 171.545 15.58 171.281 15.244C171.029 14.896 170.903 14.374 170.903 13.678V8.242H169.859C169.631 8.242 169.439 8.17 169.283 8.026C169.139 7.87 169.067 7.678 169.067 7.45C169.067 7.222 169.139 7.036 169.283 6.892C169.439 6.748 169.631 6.676 169.859 6.676H170.903V5.164C170.903 4.924 170.981 4.72 171.137 4.552C171.305 4.384 171.515 4.3 171.767 4.3C172.007 4.3 172.205 4.384 172.361 4.552C172.529 4.72 172.613 4.924 172.613 5.164V6.676H174.107C174.335 6.676 174.521 6.754 174.665 6.91C174.821 7.054 174.899 7.24 174.899 7.468C174.899 7.696 174.821 7.882 174.665 8.026C174.521 8.17 174.335 8.242 174.107 8.242H172.613ZM178.715 15.136C178.715 15.376 178.631 15.58 178.463 15.748C178.307 15.916 178.103 16 177.851 16C177.611 16 177.407 15.916 177.239 15.748C177.083 15.58 177.005 15.376 177.005 15.136V7.342C177.005 7.102 177.083 6.898 177.239 6.73C177.407 6.562 177.611 6.478 177.851 6.478C178.103 6.478 178.307 6.562 178.463 6.73C178.631 6.898 178.715 7.102 178.715 7.342V15.136ZM177.851 5.29C177.503 5.29 177.251 5.23 177.095 5.11C176.951 4.978 176.879 4.774 176.879 4.498V4.21C176.879 3.922 176.957 3.718 177.113 3.598C177.281 3.478 177.533 3.418 177.869 3.418C178.205 3.418 178.445 3.484 178.589 3.616C178.745 3.736 178.823 3.934 178.823 4.21V4.498C178.823 4.786 178.745 4.99 178.589 5.11C178.433 5.23 178.187 5.29 177.851 5.29ZM189.023 6.532C189.275 6.532 189.479 6.616 189.635 6.784C189.803 6.94 189.887 7.15 189.887 7.414V18.736C189.887 18.976 189.803 19.18 189.635 19.348C189.479 19.516 189.275 19.6 189.023 19.6C188.771 19.6 188.567 19.516 188.411 19.348C188.255 19.192 188.177 18.988 188.177 18.736V14.632C187.877 15.064 187.451 15.43 186.899 15.73C186.359 16.03 185.777 16.18 185.153 16.18C184.337 16.18 183.599 15.97 182.939 15.55C182.279 15.13 181.757 14.548 181.373 13.804C180.989 13.048 180.797 12.202 180.797 11.266C180.797 10.33 180.983 9.49 181.355 8.746C181.739 7.99 182.261 7.402 182.921 6.982C183.581 6.562 184.307 6.352 185.099 6.352C185.735 6.352 186.323 6.484 186.863 6.748C187.403 7.012 187.841 7.354 188.177 7.774V7.414C188.177 7.162 188.255 6.952 188.411 6.784C188.567 6.616 188.771 6.532 189.023 6.532ZM185.351 14.596C185.915 14.596 186.413 14.452 186.845 14.164C187.289 13.876 187.631 13.48 187.871 12.976C188.123 12.472 188.249 11.902 188.249 11.266C188.249 10.642 188.123 10.078 187.871 9.574C187.631 9.058 187.289 8.656 186.845 8.368C186.413 8.08 185.915 7.936 185.351 7.936C184.787 7.936 184.283 8.08 183.839 8.368C183.407 8.656 183.065 9.058 182.813 9.574C182.573 10.078 182.453 10.642 182.453 11.266C182.453 11.902 182.573 12.472 182.813 12.976C183.065 13.48 183.407 13.876 183.839 14.164C184.283 14.452 184.787 14.596 185.351 14.596ZM199.65 6.568C199.902 6.568 200.106 6.652 200.262 6.82C200.43 6.988 200.514 7.192 200.514 7.432V12.22C200.514 13.468 200.166 14.44 199.47 15.136C198.786 15.82 197.814 16.162 196.554 16.162C195.306 16.162 194.34 15.82 193.656 15.136C192.972 14.44 192.63 13.468 192.63 12.22V7.432C192.63 7.192 192.708 6.988 192.864 6.82C193.032 6.652 193.236 6.568 193.476 6.568C193.728 6.568 193.932 6.652 194.088 6.82C194.256 6.988 194.34 7.192 194.34 7.432V12.22C194.34 13.792 195.078 14.578 196.554 14.578C197.286 14.578 197.844 14.38 198.228 13.984C198.612 13.588 198.804 13 198.804 12.22V7.432C198.804 7.192 198.882 6.988 199.038 6.82C199.206 6.652 199.41 6.568 199.65 6.568ZM211.551 10.924C211.539 11.14 211.449 11.326 211.281 11.482C211.113 11.626 210.915 11.698 210.687 11.698H204.351C204.435 12.574 204.765 13.276 205.341 13.804C205.929 14.332 206.643 14.596 207.483 14.596C208.059 14.596 208.527 14.512 208.887 14.344C209.247 14.176 209.565 13.96 209.841 13.696C210.021 13.588 210.195 13.534 210.363 13.534C210.567 13.534 210.735 13.606 210.867 13.75C211.011 13.894 211.083 14.062 211.083 14.254C211.083 14.506 210.963 14.734 210.723 14.938C210.375 15.286 209.913 15.58 209.337 15.82C208.761 16.06 208.173 16.18 207.573 16.18C206.601 16.18 205.743 15.976 204.999 15.568C204.267 15.16 203.697 14.59 203.289 13.858C202.893 13.126 202.695 12.298 202.695 11.374C202.695 10.366 202.899 9.484 203.307 8.728C203.727 7.96 204.273 7.372 204.945 6.964C205.629 6.556 206.361 6.352 207.141 6.352C207.909 6.352 208.629 6.55 209.301 6.946C209.973 7.342 210.513 7.888 210.921 8.584C211.329 9.28 211.539 10.06 211.551 10.924ZM207.141 7.936C206.469 7.936 205.887 8.128 205.395 8.512C204.903 8.884 204.579 9.466 204.423 10.258H209.733V10.114C209.673 9.478 209.385 8.956 208.869 8.548C208.365 8.14 207.789 7.936 207.141 7.936ZM213.197 14.524C213.089 14.356 213.035 14.194 213.035 14.038C213.035 13.798 213.161 13.594 213.413 13.426C213.533 13.342 213.671 13.3 213.827 13.3C214.043 13.3 214.241 13.39 214.421 13.57C214.781 13.978 215.165 14.284 215.573 14.488C215.993 14.692 216.491 14.794 217.067 14.794C217.523 14.782 217.925 14.68 218.273 14.488C218.621 14.284 218.795 13.96 218.795 13.516C218.795 13.108 218.615 12.796 218.255 12.58C217.907 12.364 217.391 12.166 216.707 11.986C216.035 11.806 215.477 11.62 215.033 11.428C214.589 11.224 214.211 10.936 213.899 10.564C213.599 10.18 213.449 9.682 213.449 9.07C213.449 8.53 213.599 8.056 213.899 7.648C214.211 7.24 214.619 6.922 215.123 6.694C215.639 6.466 216.197 6.352 216.797 6.352C217.373 6.352 217.943 6.46 218.507 6.676C219.083 6.892 219.551 7.222 219.911 7.666C220.055 7.834 220.127 8.008 220.127 8.188C220.127 8.38 220.031 8.566 219.839 8.746C219.719 8.854 219.569 8.908 219.389 8.908C219.173 8.908 218.999 8.836 218.867 8.692C218.615 8.404 218.303 8.182 217.931 8.026C217.571 7.87 217.169 7.792 216.725 7.792C216.269 7.792 215.879 7.888 215.555 8.08C215.243 8.26 215.087 8.572 215.087 9.016C215.099 9.436 215.279 9.748 215.627 9.952C215.987 10.156 216.533 10.354 217.265 10.546C217.901 10.714 218.429 10.894 218.849 11.086C219.269 11.278 219.623 11.566 219.911 11.95C220.199 12.322 220.343 12.814 220.343 13.426C220.343 13.99 220.181 14.482 219.857 14.902C219.533 15.31 219.107 15.628 218.579 15.856C218.063 16.072 217.511 16.18 216.923 16.18C216.167 16.18 215.465 16.048 214.817 15.784C214.181 15.52 213.641 15.1 213.197 14.524Z" fill="#292984"/>
</svg>
