<svg width="218" height="20" viewBox="0 0 218 20" fill="none" xmlns="http://www.w3.org/2000/svg">
<path d="M7.622 14.344C7.874 14.344 8.078 14.428 8.234 14.596C8.402 14.764 8.486 14.962 8.486 15.19C8.486 15.43 8.402 15.628 8.234 15.784C8.078 15.928 7.874 16 7.622 16H1.358C1.118 16 0.914 15.916 0.746 15.748C0.578 15.58 0.494 15.376 0.494 15.136V4.264C0.494 4.024 0.578 3.82 0.746 3.652C0.914 3.484 1.118 3.4 1.358 3.4H7.622C7.874 3.4 8.078 3.478 8.234 3.634C8.402 3.79 8.486 3.994 8.486 4.246C8.486 4.486 8.402 4.684 8.234 4.84C8.078 4.984 7.874 5.056 7.622 5.056H2.276V8.728H6.812C7.064 8.728 7.268 8.806 7.424 8.962C7.592 9.118 7.676 9.316 7.676 9.556C7.676 9.808 7.592 10.006 7.424 10.15C7.268 10.294 7.064 10.366 6.812 10.366H2.276V14.344H7.622ZM4.616 2.662C4.436 2.662 4.292 2.62 4.184 2.536C4.088 2.44 4.04 2.314 4.04 2.158C4.04 2.002 4.112 1.864 4.256 1.744L5.84 0.411999C6.092 0.207999 6.332 0.106 6.56 0.106C6.764 0.106 6.944 0.177999 7.1 0.321999C7.268 0.465999 7.352 0.639999 7.352 0.843999C7.352 0.999999 7.304 1.15 7.208 1.294C7.112 1.438 6.98 1.552 6.812 1.636L5.03 2.554C4.886 2.626 4.748 2.662 4.616 2.662ZM13.2996 8.242V13.606C13.2996 14.206 13.5696 14.506 14.1096 14.506C14.1936 14.506 14.3076 14.488 14.4516 14.452C14.5956 14.404 14.7096 14.38 14.7936 14.38C14.9496 14.38 15.0816 14.446 15.1896 14.578C15.2976 14.71 15.3516 14.878 15.3516 15.082C15.3516 15.334 15.2076 15.55 14.9196 15.73C14.6316 15.91 14.3076 16 13.9476 16C13.5516 16 13.1856 15.958 12.8496 15.874C12.5256 15.79 12.2316 15.58 11.9676 15.244C11.7156 14.896 11.5896 14.374 11.5896 13.678V8.242H10.5456C10.3176 8.242 10.1256 8.17 9.96962 8.026C9.82562 7.87 9.75362 7.678 9.75362 7.45C9.75362 7.222 9.82562 7.036 9.96962 6.892C10.1256 6.748 10.3176 6.676 10.5456 6.676H11.5896V5.164C11.5896 4.924 11.6676 4.72 11.8236 4.552C11.9916 4.384 12.2016 4.3 12.4536 4.3C12.6936 4.3 12.8916 4.384 13.0476 4.552C13.2156 4.72 13.2996 4.924 13.2996 5.164V6.676H14.7936C15.0216 6.676 15.2076 6.754 15.3516 6.91C15.5076 7.054 15.5856 7.24 15.5856 7.468C15.5856 7.696 15.5076 7.882 15.3516 8.026C15.2076 8.17 15.0216 8.242 14.7936 8.242H13.2996ZM25.4315 6.442C25.6835 6.442 25.8875 6.526 26.0435 6.694C26.2115 6.85 26.2955 7.06 26.2955 7.324V15.136C26.2955 15.376 26.2115 15.58 26.0435 15.748C25.8875 15.916 25.6835 16 25.4315 16C25.1795 16 24.9755 15.922 24.8195 15.766C24.6635 15.598 24.5855 15.388 24.5855 15.136V14.668C24.2735 15.088 23.8475 15.448 23.3075 15.748C22.7675 16.036 22.1855 16.18 21.5615 16.18C20.7455 16.18 20.0015 15.97 19.3295 15.55C18.6695 15.13 18.1475 14.548 17.7635 13.804C17.3915 13.048 17.2055 12.202 17.2055 11.266C17.2055 10.33 17.3915 9.49 17.7635 8.746C18.1475 7.99 18.6695 7.402 19.3295 6.982C19.9895 6.562 20.7155 6.352 21.5075 6.352C22.1435 6.352 22.7315 6.484 23.2715 6.748C23.8235 7.012 24.2615 7.348 24.5855 7.756V7.324C24.5855 7.072 24.6635 6.862 24.8195 6.694C24.9755 6.526 25.1795 6.442 25.4315 6.442ZM21.7595 14.596C22.3235 14.596 22.8215 14.452 23.2535 14.164C23.6975 13.876 24.0395 13.48 24.2795 12.976C24.5315 12.472 24.6575 11.902 24.6575 11.266C24.6575 10.642 24.5315 10.078 24.2795 9.574C24.0395 9.07 23.6975 8.674 23.2535 8.386C22.8215 8.086 22.3235 7.936 21.7595 7.936C21.1955 7.936 20.6915 8.08 20.2475 8.368C19.8155 8.656 19.4735 9.052 19.2215 9.556C18.9815 10.06 18.8615 10.63 18.8615 11.266C18.8615 11.902 18.9815 12.472 19.2215 12.976C19.4735 13.48 19.8155 13.876 20.2475 14.164C20.6915 14.452 21.1955 14.596 21.7595 14.596ZM33.7722 6.406C34.5882 6.406 35.3262 6.616 35.9862 7.036C36.6462 7.444 37.1622 8.02 37.5342 8.764C37.9182 9.508 38.1102 10.348 38.1102 11.284C38.1102 12.22 37.9182 13.06 37.5342 13.804C37.1622 14.536 36.6462 15.112 35.9862 15.532C35.3262 15.952 34.6002 16.162 33.8082 16.162C33.1842 16.162 32.6022 16.024 32.0622 15.748C31.5222 15.472 31.0842 15.136 30.7482 14.74V18.736C30.7482 18.976 30.6642 19.18 30.4962 19.348C30.3402 19.516 30.1362 19.6 29.8842 19.6C29.6442 19.6 29.4402 19.516 29.2722 19.348C29.1162 19.192 29.0382 18.988 29.0382 18.736V7.414C29.0382 7.162 29.1162 6.952 29.2722 6.784C29.4282 6.616 29.6322 6.532 29.8842 6.532C30.1362 6.532 30.3402 6.616 30.4962 6.784C30.6642 6.952 30.7482 7.162 30.7482 7.414V7.936C31.0362 7.516 31.4562 7.156 32.0082 6.856C32.5602 6.556 33.1482 6.406 33.7722 6.406ZM33.5742 14.578C34.1262 14.578 34.6242 14.434 35.0682 14.146C35.5122 13.858 35.8542 13.468 36.0942 12.976C36.3462 12.472 36.4722 11.908 36.4722 11.284C36.4722 10.66 36.3462 10.102 36.0942 9.61C35.8542 9.106 35.5122 8.71 35.0682 8.422C34.6242 8.134 34.1262 7.99 33.5742 7.99C33.0102 7.99 32.5062 8.134 32.0622 8.422C31.6182 8.698 31.2702 9.088 31.0182 9.592C30.7782 10.096 30.6582 10.66 30.6582 11.284C30.6582 11.908 30.7782 12.472 31.0182 12.976C31.2702 13.48 31.6182 13.876 32.0622 14.164C32.5062 14.44 33.0102 14.578 33.5742 14.578ZM48.5748 10.924C48.5628 11.14 48.4728 11.326 48.3048 11.482C48.1368 11.626 47.9388 11.698 47.7108 11.698H41.3748C41.4588 12.574 41.7888 13.276 42.3648 13.804C42.9528 14.332 43.6668 14.596 44.5068 14.596C45.0828 14.596 45.5508 14.512 45.9108 14.344C46.2708 14.176 46.5888 13.96 46.8648 13.696C47.0448 13.588 47.2188 13.534 47.3868 13.534C47.5908 13.534 47.7588 13.606 47.8908 13.75C48.0348 13.894 48.1068 14.062 48.1068 14.254C48.1068 14.506 47.9868 14.734 47.7468 14.938C47.3988 15.286 46.9368 15.58 46.3608 15.82C45.7848 16.06 45.1968 16.18 44.5968 16.18C43.6248 16.18 42.7668 15.976 42.0228 15.568C41.2908 15.16 40.7208 14.59 40.3128 13.858C39.9168 13.126 39.7188 12.298 39.7188 11.374C39.7188 10.366 39.9228 9.484 40.3308 8.728C40.7508 7.96 41.2968 7.372 41.9688 6.964C42.6528 6.556 43.3848 6.352 44.1648 6.352C44.9328 6.352 45.6528 6.55 46.3248 6.946C46.9968 7.342 47.5368 7.888 47.9448 8.584C48.3528 9.28 48.5628 10.06 48.5748 10.924ZM44.1648 7.936C43.4928 7.936 42.9108 8.128 42.4188 8.512C41.9268 8.884 41.6028 9.466 41.4468 10.258H46.7568V10.114C46.6968 9.478 46.4088 8.956 45.8928 8.548C45.3888 8.14 44.8128 7.936 44.1648 7.936ZM59.6246 8.026C60.3086 8.026 60.9206 8.2 61.4606 8.548C62.0126 8.884 62.4446 9.346 62.7566 9.934C63.0686 10.522 63.2246 11.182 63.2246 11.914C63.2246 12.766 63.0266 13.516 62.6306 14.164C62.2346 14.812 61.6886 15.31 60.9926 15.658C60.2966 16.006 59.4986 16.18 58.5986 16.18C58.1186 16.18 57.6506 16.114 57.1946 15.982C56.7506 15.85 56.3666 15.658 56.0426 15.406C55.7186 15.226 55.5566 14.98 55.5566 14.668C55.5566 14.44 55.6346 14.23 55.7906 14.038C55.9586 13.846 56.1566 13.75 56.3846 13.75C56.6006 13.75 56.8166 13.828 57.0326 13.984C57.5246 14.44 58.1426 14.668 58.8866 14.668C59.3546 14.668 59.7866 14.56 60.1826 14.344C60.5906 14.128 60.9146 13.822 61.1546 13.426C61.3946 13.018 61.5146 12.55 61.5146 12.022C61.5146 11.242 61.2746 10.642 60.7946 10.222C60.3146 9.802 59.7386 9.592 59.0666 9.592C58.8746 9.592 58.5986 9.634 58.2386 9.718C57.9746 9.79 57.7766 9.826 57.6446 9.826C57.4286 9.826 57.2546 9.754 57.1226 9.61C56.9906 9.454 56.9246 9.262 56.9246 9.034C56.9246 8.902 56.9486 8.788 56.9966 8.692C57.0446 8.596 57.1226 8.482 57.2306 8.35L60.2906 4.984H56.1326C55.9046 4.984 55.7126 4.906 55.5566 4.75C55.4006 4.594 55.3226 4.402 55.3226 4.174C55.3226 3.946 55.4006 3.76 55.5566 3.616C55.7126 3.472 55.9046 3.4 56.1326 3.4H61.8746C62.1506 3.4 62.3666 3.484 62.5226 3.652C62.6786 3.82 62.7566 4.024 62.7566 4.264C62.7566 4.48 62.6426 4.702 62.4146 4.93L59.6246 8.026ZM71.4875 8.764C71.1995 8.764 70.9775 8.686 70.8215 8.53C70.6775 8.374 70.6055 8.146 70.6055 7.846V7.522C70.6055 7.222 70.6775 6.994 70.8215 6.838C70.9775 6.682 71.1995 6.604 71.4875 6.604H71.6855C71.9735 6.604 72.1895 6.682 72.3335 6.838C72.4895 6.994 72.5675 7.222 72.5675 7.522V7.846C72.5675 8.146 72.4895 8.374 72.3335 8.53C72.1895 8.686 71.9735 8.764 71.6855 8.764H71.4875ZM71.4875 16C71.1995 16 70.9775 15.922 70.8215 15.766C70.6775 15.598 70.6055 15.37 70.6055 15.082V14.74C70.6055 14.452 70.6775 14.23 70.8215 14.074C70.9775 13.906 71.1995 13.822 71.4875 13.822H71.6855C71.9735 13.822 72.1895 13.906 72.3335 14.074C72.4895 14.23 72.5675 14.452 72.5675 14.74V15.082C72.5675 15.37 72.4895 15.598 72.3335 15.766C72.1895 15.922 71.9735 16 71.6855 16H71.4875ZM91.5552 3.382C91.7952 3.394 91.9992 3.484 92.1672 3.652C92.3352 3.808 92.4192 4.006 92.4192 4.246V15.136C92.4192 15.376 92.3352 15.58 92.1672 15.748C92.0112 15.916 91.8012 16 91.5372 16C91.2732 16 91.0572 15.922 90.8892 15.766C90.7212 15.598 90.6372 15.388 90.6372 15.136V6.802L87.1452 12.094C87.0612 12.202 86.9532 12.292 86.8212 12.364C86.7012 12.436 86.5752 12.466 86.4432 12.454C86.3232 12.466 86.1972 12.436 86.0652 12.364C85.9452 12.292 85.8432 12.202 85.7592 12.094L82.2492 6.64V15.136C82.2492 15.388 82.1712 15.598 82.0152 15.766C81.8712 15.922 81.6732 16 81.4212 16C81.1812 16 80.9832 15.922 80.8272 15.766C80.6832 15.598 80.6112 15.388 80.6112 15.136V4.246C80.6112 4.018 80.6952 3.82 80.8632 3.652C81.0312 3.472 81.2412 3.382 81.4932 3.382C81.6372 3.382 81.7752 3.418 81.9072 3.49C82.0512 3.562 82.1652 3.658 82.2492 3.778L86.5152 10.24L90.8352 3.778C91.0272 3.514 91.2672 3.382 91.5552 3.382ZM103.676 10.924C103.664 11.14 103.574 11.326 103.406 11.482C103.238 11.626 103.04 11.698 102.812 11.698H96.476C96.56 12.574 96.89 13.276 97.466 13.804C98.054 14.332 98.768 14.596 99.608 14.596C100.184 14.596 100.652 14.512 101.012 14.344C101.372 14.176 101.69 13.96 101.966 13.696C102.146 13.588 102.32 13.534 102.488 13.534C102.692 13.534 102.86 13.606 102.992 13.75C103.136 13.894 103.208 14.062 103.208 14.254C103.208 14.506 103.088 14.734 102.848 14.938C102.5 15.286 102.038 15.58 101.462 15.82C100.886 16.06 100.298 16.18 99.698 16.18C98.726 16.18 97.868 15.976 97.124 15.568C96.392 15.16 95.822 14.59 95.414 13.858C95.018 13.126 94.82 12.298 94.82 11.374C94.82 10.366 95.024 9.484 95.432 8.728C95.852 7.96 96.398 7.372 97.07 6.964C97.754 6.556 98.486 6.352 99.266 6.352C100.034 6.352 100.754 6.55 101.426 6.946C102.098 7.342 102.638 7.888 103.046 8.584C103.454 9.28 103.664 10.06 103.676 10.924ZM99.266 7.936C98.594 7.936 98.012 8.128 97.52 8.512C97.028 8.884 96.704 9.466 96.548 10.258H101.858V10.114C101.798 9.478 101.51 8.956 100.994 8.548C100.49 8.14 99.914 7.936 99.266 7.936ZM108.418 8.242V13.606C108.418 14.206 108.688 14.506 109.228 14.506C109.312 14.506 109.426 14.488 109.57 14.452C109.714 14.404 109.828 14.38 109.912 14.38C110.068 14.38 110.2 14.446 110.308 14.578C110.416 14.71 110.47 14.878 110.47 15.082C110.47 15.334 110.326 15.55 110.038 15.73C109.75 15.91 109.426 16 109.066 16C108.67 16 108.304 15.958 107.968 15.874C107.644 15.79 107.35 15.58 107.086 15.244C106.834 14.896 106.708 14.374 106.708 13.678V8.242H105.664C105.436 8.242 105.244 8.17 105.088 8.026C104.944 7.87 104.872 7.678 104.872 7.45C104.872 7.222 104.944 7.036 105.088 6.892C105.244 6.748 105.436 6.676 105.664 6.676H106.708V5.164C106.708 4.924 106.786 4.72 106.942 4.552C107.11 4.384 107.32 4.3 107.572 4.3C107.812 4.3 108.01 4.384 108.166 4.552C108.334 4.72 108.418 4.924 108.418 5.164V6.676H109.912C110.14 6.676 110.326 6.754 110.47 6.91C110.626 7.054 110.704 7.24 110.704 7.468C110.704 7.696 110.626 7.882 110.47 8.026C110.326 8.17 110.14 8.242 109.912 8.242H108.418ZM115.455 8.242V13.606C115.455 14.206 115.725 14.506 116.265 14.506C116.349 14.506 116.463 14.488 116.607 14.452C116.751 14.404 116.865 14.38 116.949 14.38C117.105 14.38 117.237 14.446 117.345 14.578C117.453 14.71 117.507 14.878 117.507 15.082C117.507 15.334 117.363 15.55 117.075 15.73C116.787 15.91 116.463 16 116.103 16C115.707 16 115.341 15.958 115.005 15.874C114.681 15.79 114.387 15.58 114.123 15.244C113.871 14.896 113.745 14.374 113.745 13.678V8.242H112.701C112.473 8.242 112.281 8.17 112.125 8.026C111.981 7.87 111.909 7.678 111.909 7.45C111.909 7.222 111.981 7.036 112.125 6.892C112.281 6.748 112.473 6.676 112.701 6.676H113.745V5.164C113.745 4.924 113.823 4.72 113.979 4.552C114.147 4.384 114.357 4.3 114.609 4.3C114.849 4.3 115.047 4.384 115.203 4.552C115.371 4.72 115.455 4.924 115.455 5.164V6.676H116.949C117.177 6.676 117.363 6.754 117.507 6.91C117.663 7.054 117.741 7.24 117.741 7.468C117.741 7.696 117.663 7.882 117.507 8.026C117.363 8.17 117.177 8.242 116.949 8.242H115.455ZM124.635 6.352C124.947 6.352 125.217 6.436 125.445 6.604C125.673 6.76 125.787 6.958 125.787 7.198C125.787 7.486 125.709 7.708 125.553 7.864C125.409 8.008 125.229 8.08 125.013 8.08C124.905 8.08 124.743 8.044 124.527 7.972C124.275 7.888 124.077 7.846 123.933 7.846C123.561 7.846 123.195 7.978 122.835 8.242C122.487 8.494 122.199 8.848 121.971 9.304C121.755 9.748 121.647 10.246 121.647 10.798V15.136C121.647 15.376 121.563 15.58 121.395 15.748C121.239 15.916 121.035 16 120.783 16C120.531 16 120.327 15.922 120.171 15.766C120.015 15.598 119.937 15.388 119.937 15.136V7.432C119.937 7.192 120.015 6.988 120.171 6.82C120.339 6.652 120.543 6.568 120.783 6.568C121.035 6.568 121.239 6.652 121.395 6.82C121.563 6.988 121.647 7.192 121.647 7.432V8.35C121.911 7.762 122.307 7.288 122.835 6.928C123.363 6.556 123.963 6.364 124.635 6.352ZM135.449 10.924C135.437 11.14 135.347 11.326 135.179 11.482C135.011 11.626 134.813 11.698 134.585 11.698H128.249C128.333 12.574 128.663 13.276 129.239 13.804C129.827 14.332 130.541 14.596 131.381 14.596C131.957 14.596 132.425 14.512 132.785 14.344C133.145 14.176 133.463 13.96 133.739 13.696C133.919 13.588 134.093 13.534 134.261 13.534C134.465 13.534 134.633 13.606 134.765 13.75C134.909 13.894 134.981 14.062 134.981 14.254C134.981 14.506 134.861 14.734 134.621 14.938C134.273 15.286 133.811 15.58 133.235 15.82C132.659 16.06 132.071 16.18 131.471 16.18C130.499 16.18 129.641 15.976 128.897 15.568C128.165 15.16 127.595 14.59 127.187 13.858C126.791 13.126 126.593 12.298 126.593 11.374C126.593 10.366 126.797 9.484 127.205 8.728C127.625 7.96 128.171 7.372 128.843 6.964C129.527 6.556 130.259 6.352 131.039 6.352C131.807 6.352 132.527 6.55 133.199 6.946C133.871 7.342 134.411 7.888 134.819 8.584C135.227 9.28 135.437 10.06 135.449 10.924ZM131.039 7.936C130.367 7.936 129.785 8.128 129.293 8.512C128.801 8.884 128.477 9.466 128.321 10.258H133.631V10.114C133.571 9.478 133.283 8.956 132.767 8.548C132.263 8.14 131.687 7.936 131.039 7.936ZM151.106 10.924C151.094 11.14 151.004 11.326 150.836 11.482C150.668 11.626 150.47 11.698 150.242 11.698H143.906C143.99 12.574 144.32 13.276 144.896 13.804C145.484 14.332 146.198 14.596 147.038 14.596C147.614 14.596 148.082 14.512 148.442 14.344C148.802 14.176 149.12 13.96 149.396 13.696C149.576 13.588 149.75 13.534 149.918 13.534C150.122 13.534 150.29 13.606 150.422 13.75C150.566 13.894 150.638 14.062 150.638 14.254C150.638 14.506 150.518 14.734 150.278 14.938C149.93 15.286 149.468 15.58 148.892 15.82C148.316 16.06 147.728 16.18 147.128 16.18C146.156 16.18 145.298 15.976 144.554 15.568C143.822 15.16 143.252 14.59 142.844 13.858C142.448 13.126 142.25 12.298 142.25 11.374C142.25 10.366 142.454 9.484 142.862 8.728C143.282 7.96 143.828 7.372 144.5 6.964C145.184 6.556 145.916 6.352 146.696 6.352C147.464 6.352 148.184 6.55 148.856 6.946C149.528 7.342 150.068 7.888 150.476 8.584C150.884 9.28 151.094 10.06 151.106 10.924ZM146.696 7.936C146.024 7.936 145.442 8.128 144.95 8.512C144.458 8.884 144.134 9.466 143.978 10.258H149.288V10.114C149.228 9.478 148.94 8.956 148.424 8.548C147.92 8.14 147.344 7.936 146.696 7.936ZM158.098 6.352C160.258 6.352 161.338 7.648 161.338 10.24V15.136C161.338 15.376 161.254 15.58 161.086 15.748C160.93 15.916 160.726 16 160.474 16C160.234 16 160.03 15.916 159.862 15.748C159.706 15.58 159.628 15.376 159.628 15.136V10.258C159.628 9.55 159.466 8.986 159.142 8.566C158.818 8.146 158.29 7.936 157.558 7.936C157.078 7.936 156.64 8.044 156.244 8.26C155.86 8.464 155.554 8.746 155.326 9.106C155.11 9.454 155.002 9.838 155.002 10.258V15.136C155.002 15.376 154.918 15.58 154.75 15.748C154.594 15.916 154.39 16 154.138 16C153.886 16 153.682 15.922 153.526 15.766C153.37 15.598 153.292 15.388 153.292 15.136V7.432C153.292 7.192 153.37 6.988 153.526 6.82C153.694 6.652 153.898 6.568 154.138 6.568C154.39 6.568 154.594 6.652 154.75 6.82C154.918 6.988 155.002 7.192 155.002 7.432V8.062C155.314 7.582 155.746 7.18 156.298 6.856C156.862 6.52 157.462 6.352 158.098 6.352ZM168.744 14.524C168.636 14.356 168.582 14.194 168.582 14.038C168.582 13.798 168.708 13.594 168.96 13.426C169.08 13.342 169.218 13.3 169.374 13.3C169.59 13.3 169.788 13.39 169.968 13.57C170.328 13.978 170.712 14.284 171.12 14.488C171.54 14.692 172.038 14.794 172.614 14.794C173.07 14.782 173.472 14.68 173.82 14.488C174.168 14.284 174.342 13.96 174.342 13.516C174.342 13.108 174.162 12.796 173.802 12.58C173.454 12.364 172.938 12.166 172.254 11.986C171.582 11.806 171.024 11.62 170.58 11.428C170.136 11.224 169.758 10.936 169.446 10.564C169.146 10.18 168.996 9.682 168.996 9.07C168.996 8.53 169.146 8.056 169.446 7.648C169.758 7.24 170.166 6.922 170.67 6.694C171.186 6.466 171.744 6.352 172.344 6.352C172.92 6.352 173.49 6.46 174.054 6.676C174.63 6.892 175.098 7.222 175.458 7.666C175.602 7.834 175.674 8.008 175.674 8.188C175.674 8.38 175.578 8.566 175.386 8.746C175.266 8.854 175.116 8.908 174.936 8.908C174.72 8.908 174.546 8.836 174.414 8.692C174.162 8.404 173.85 8.182 173.478 8.026C173.118 7.87 172.716 7.792 172.272 7.792C171.816 7.792 171.426 7.888 171.102 8.08C170.79 8.26 170.634 8.572 170.634 9.016C170.646 9.436 170.826 9.748 171.174 9.952C171.534 10.156 172.08 10.354 172.812 10.546C173.448 10.714 173.976 10.894 174.396 11.086C174.816 11.278 175.17 11.566 175.458 11.95C175.746 12.322 175.89 12.814 175.89 13.426C175.89 13.99 175.728 14.482 175.404 14.902C175.08 15.31 174.654 15.628 174.126 15.856C173.61 16.072 173.058 16.18 172.47 16.18C171.714 16.18 171.012 16.048 170.364 15.784C169.728 15.52 169.188 15.1 168.744 14.524ZM182.166 6.352C183.114 6.352 183.9 6.502 184.524 6.802C185.16 7.102 185.478 7.486 185.478 7.954C185.478 8.158 185.412 8.344 185.28 8.512C185.148 8.668 184.98 8.746 184.776 8.746C184.62 8.746 184.494 8.722 184.398 8.674C184.314 8.626 184.194 8.548 184.038 8.44C183.966 8.368 183.852 8.284 183.696 8.188C183.552 8.116 183.348 8.056 183.084 8.008C182.82 7.96 182.58 7.936 182.364 7.936C181.74 7.936 181.188 8.08 180.708 8.368C180.228 8.656 179.856 9.058 179.592 9.574C179.328 10.078 179.196 10.642 179.196 11.266C179.196 11.902 179.322 12.472 179.574 12.976C179.838 13.48 180.204 13.876 180.672 14.164C181.14 14.452 181.674 14.596 182.274 14.596C182.898 14.596 183.402 14.5 183.786 14.308C183.87 14.26 183.984 14.182 184.128 14.074C184.248 13.978 184.35 13.906 184.434 13.858C184.53 13.81 184.644 13.786 184.776 13.786C185.016 13.786 185.202 13.864 185.334 14.02C185.478 14.164 185.55 14.356 185.55 14.596C185.55 14.848 185.388 15.1 185.064 15.352C184.752 15.592 184.326 15.79 183.786 15.946C183.258 16.102 182.688 16.18 182.076 16.18C181.164 16.18 180.36 15.97 179.664 15.55C178.968 15.118 178.428 14.53 178.044 13.786C177.672 13.03 177.486 12.19 177.486 11.266C177.486 10.342 177.684 9.508 178.08 8.764C178.476 8.008 179.028 7.42 179.736 7C180.444 6.568 181.254 6.352 182.166 6.352ZM195.788 10.924C195.776 11.14 195.686 11.326 195.518 11.482C195.35 11.626 195.152 11.698 194.924 11.698H188.588C188.672 12.574 189.002 13.276 189.578 13.804C190.166 14.332 190.88 14.596 191.72 14.596C192.296 14.596 192.764 14.512 193.124 14.344C193.484 14.176 193.802 13.96 194.078 13.696C194.258 13.588 194.432 13.534 194.6 13.534C194.804 13.534 194.972 13.606 195.104 13.75C195.248 13.894 195.32 14.062 195.32 14.254C195.32 14.506 195.2 14.734 194.96 14.938C194.612 15.286 194.15 15.58 193.574 15.82C192.998 16.06 192.41 16.18 191.81 16.18C190.838 16.18 189.98 15.976 189.236 15.568C188.504 15.16 187.934 14.59 187.526 13.858C187.13 13.126 186.932 12.298 186.932 11.374C186.932 10.366 187.136 9.484 187.544 8.728C187.964 7.96 188.51 7.372 189.182 6.964C189.866 6.556 190.598 6.352 191.378 6.352C192.146 6.352 192.866 6.55 193.538 6.946C194.21 7.342 194.75 7.888 195.158 8.584C195.566 9.28 195.776 10.06 195.788 10.924ZM191.378 7.936C190.706 7.936 190.124 8.128 189.632 8.512C189.14 8.884 188.816 9.466 188.66 10.258H193.97V10.114C193.91 9.478 193.622 8.956 193.106 8.548C192.602 8.14 192.026 7.936 191.378 7.936ZM191.414 5.83C191.318 5.83 191.174 5.782 190.982 5.686L189.344 4.57C189.02 4.39 188.858 4.144 188.858 3.832C188.858 3.616 188.936 3.442 189.092 3.31C189.26 3.166 189.44 3.094 189.632 3.094C189.896 3.094 190.148 3.214 190.388 3.454L191.792 4.912C191.924 5.044 191.99 5.182 191.99 5.326C191.99 5.482 191.936 5.608 191.828 5.704C191.72 5.788 191.582 5.83 191.414 5.83ZM202.78 6.352C204.94 6.352 206.02 7.648 206.02 10.24V15.136C206.02 15.376 205.936 15.58 205.768 15.748C205.612 15.916 205.408 16 205.156 16C204.916 16 204.712 15.916 204.544 15.748C204.388 15.58 204.31 15.376 204.31 15.136V10.258C204.31 9.55 204.148 8.986 203.824 8.566C203.5 8.146 202.972 7.936 202.24 7.936C201.76 7.936 201.322 8.044 200.926 8.26C200.542 8.464 200.236 8.746 200.008 9.106C199.792 9.454 199.684 9.838 199.684 10.258V15.136C199.684 15.376 199.6 15.58 199.432 15.748C199.276 15.916 199.072 16 198.82 16C198.568 16 198.364 15.922 198.208 15.766C198.052 15.598 197.974 15.388 197.974 15.136V7.432C197.974 7.192 198.052 6.988 198.208 6.82C198.376 6.652 198.58 6.568 198.82 6.568C199.072 6.568 199.276 6.652 199.432 6.82C199.6 6.988 199.684 7.192 199.684 7.432V8.062C199.996 7.582 200.428 7.18 200.98 6.856C201.544 6.52 202.144 6.352 202.78 6.352ZM217.053 10.924C217.041 11.14 216.951 11.326 216.783 11.482C216.615 11.626 216.417 11.698 216.189 11.698H209.853C209.937 12.574 210.267 13.276 210.843 13.804C211.431 14.332 212.145 14.596 212.985 14.596C213.561 14.596 214.029 14.512 214.389 14.344C214.749 14.176 215.067 13.96 215.343 13.696C215.523 13.588 215.697 13.534 215.865 13.534C216.069 13.534 216.237 13.606 216.369 13.75C216.513 13.894 216.585 14.062 216.585 14.254C216.585 14.506 216.465 14.734 216.225 14.938C215.877 15.286 215.415 15.58 214.839 15.82C214.263 16.06 213.675 16.18 213.075 16.18C212.103 16.18 211.245 15.976 210.501 15.568C209.769 15.16 209.199 14.59 208.791 13.858C208.395 13.126 208.197 12.298 208.197 11.374C208.197 10.366 208.401 9.484 208.809 8.728C209.229 7.96 209.775 7.372 210.447 6.964C211.131 6.556 211.863 6.352 212.643 6.352C213.411 6.352 214.131 6.55 214.803 6.946C215.475 7.342 216.015 7.888 216.423 8.584C216.831 9.28 217.041 10.06 217.053 10.924ZM212.643 7.936C211.971 7.936 211.389 8.128 210.897 8.512C210.405 8.884 210.081 9.466 209.925 10.258H215.235V10.114C215.175 9.478 214.887 8.956 214.371 8.548C213.867 8.14 213.291 7.936 212.643 7.936Z" fill="#292984"/>
</svg>
