<svg width="229" height="20" viewBox="0 0 229 20" fill="none" xmlns="http://www.w3.org/2000/svg">
<path d="M7.83079 14.344C8.08279 14.344 8.28679 14.428 8.44279 14.596C8.61079 14.764 8.69479 14.962 8.69479 15.19C8.69479 15.43 8.61079 15.628 8.44279 15.784C8.28679 15.928 8.08279 16 7.83079 16H1.56679C1.32679 16 1.12279 15.916 0.954786 15.748C0.786786 15.58 0.702786 15.376 0.702786 15.136V4.264C0.702786 4.024 0.786786 3.82 0.954786 3.652C1.12279 3.484 1.32679 3.4 1.56679 3.4H7.83079C8.08279 3.4 8.28679 3.478 8.44279 3.634C8.61079 3.79 8.69479 3.994 8.69479 4.246C8.69479 4.486 8.61079 4.684 8.44279 4.84C8.28679 4.984 8.08279 5.056 7.83079 5.056H2.48479V8.728H7.02079C7.27279 8.728 7.47679 8.806 7.63279 8.962C7.80079 9.118 7.88479 9.316 7.88479 9.556C7.88479 9.808 7.80079 10.006 7.63279 10.15C7.47679 10.294 7.27279 10.366 7.02079 10.366H2.48479V14.344H7.83079ZM4.82479 2.662C4.64479 2.662 4.50079 2.62 4.39279 2.536C4.29679 2.44 4.24879 2.314 4.24879 2.158C4.24879 2.002 4.32079 1.864 4.46479 1.744L6.04879 0.411999C6.30079 0.207999 6.54079 0.106 6.76879 0.106C6.97279 0.106 7.15279 0.177999 7.30879 0.321999C7.47679 0.465999 7.56079 0.639999 7.56079 0.843999C7.56079 0.999999 7.51279 1.15 7.41679 1.294C7.32079 1.438 7.18879 1.552 7.02079 1.636L5.23879 2.554C5.09479 2.626 4.95679 2.662 4.82479 2.662ZM13.5084 8.242V13.606C13.5084 14.206 13.7784 14.506 14.3184 14.506C14.4024 14.506 14.5164 14.488 14.6604 14.452C14.8044 14.404 14.9184 14.38 15.0024 14.38C15.1584 14.38 15.2904 14.446 15.3984 14.578C15.5064 14.71 15.5604 14.878 15.5604 15.082C15.5604 15.334 15.4164 15.55 15.1284 15.73C14.8404 15.91 14.5164 16 14.1564 16C13.7604 16 13.3944 15.958 13.0584 15.874C12.7344 15.79 12.4404 15.58 12.1764 15.244C11.9244 14.896 11.7984 14.374 11.7984 13.678V8.242H10.7544C10.5264 8.242 10.3344 8.17 10.1784 8.026C10.0344 7.87 9.96241 7.678 9.96241 7.45C9.96241 7.222 10.0344 7.036 10.1784 6.892C10.3344 6.748 10.5264 6.676 10.7544 6.676H11.7984V5.164C11.7984 4.924 11.8764 4.72 12.0324 4.552C12.2004 4.384 12.4104 4.3 12.6624 4.3C12.9024 4.3 13.1004 4.384 13.2564 4.552C13.4244 4.72 13.5084 4.924 13.5084 5.164V6.676H15.0024C15.2304 6.676 15.4164 6.754 15.5604 6.91C15.7164 7.054 15.7944 7.24 15.7944 7.468C15.7944 7.696 15.7164 7.882 15.5604 8.026C15.4164 8.17 15.2304 8.242 15.0024 8.242H13.5084ZM25.6403 6.442C25.8923 6.442 26.0963 6.526 26.2523 6.694C26.4203 6.85 26.5043 7.06 26.5043 7.324V15.136C26.5043 15.376 26.4203 15.58 26.2523 15.748C26.0963 15.916 25.8923 16 25.6403 16C25.3883 16 25.1843 15.922 25.0283 15.766C24.8723 15.598 24.7943 15.388 24.7943 15.136V14.668C24.4823 15.088 24.0563 15.448 23.5163 15.748C22.9763 16.036 22.3943 16.18 21.7703 16.18C20.9543 16.18 20.2103 15.97 19.5383 15.55C18.8783 15.13 18.3563 14.548 17.9723 13.804C17.6003 13.048 17.4143 12.202 17.4143 11.266C17.4143 10.33 17.6003 9.49 17.9723 8.746C18.3563 7.99 18.8783 7.402 19.5383 6.982C20.1983 6.562 20.9243 6.352 21.7163 6.352C22.3523 6.352 22.9403 6.484 23.4803 6.748C24.0323 7.012 24.4703 7.348 24.7943 7.756V7.324C24.7943 7.072 24.8723 6.862 25.0283 6.694C25.1843 6.526 25.3883 6.442 25.6403 6.442ZM21.9683 14.596C22.5323 14.596 23.0303 14.452 23.4623 14.164C23.9063 13.876 24.2483 13.48 24.4883 12.976C24.7403 12.472 24.8663 11.902 24.8663 11.266C24.8663 10.642 24.7403 10.078 24.4883 9.574C24.2483 9.07 23.9063 8.674 23.4623 8.386C23.0303 8.086 22.5323 7.936 21.9683 7.936C21.4043 7.936 20.9003 8.08 20.4563 8.368C20.0243 8.656 19.6823 9.052 19.4303 9.556C19.1903 10.06 19.0703 10.63 19.0703 11.266C19.0703 11.902 19.1903 12.472 19.4303 12.976C19.6823 13.48 20.0243 13.876 20.4563 14.164C20.9003 14.452 21.4043 14.596 21.9683 14.596ZM33.9809 6.406C34.7969 6.406 35.5349 6.616 36.1949 7.036C36.8549 7.444 37.3709 8.02 37.7429 8.764C38.1269 9.508 38.3189 10.348 38.3189 11.284C38.3189 12.22 38.1269 13.06 37.7429 13.804C37.3709 14.536 36.8549 15.112 36.1949 15.532C35.5349 15.952 34.8089 16.162 34.0169 16.162C33.3929 16.162 32.8109 16.024 32.2709 15.748C31.7309 15.472 31.2929 15.136 30.9569 14.74V18.736C30.9569 18.976 30.8729 19.18 30.7049 19.348C30.5489 19.516 30.3449 19.6 30.0929 19.6C29.8529 19.6 29.6489 19.516 29.4809 19.348C29.3249 19.192 29.2469 18.988 29.2469 18.736V7.414C29.2469 7.162 29.3249 6.952 29.4809 6.784C29.6369 6.616 29.8409 6.532 30.0929 6.532C30.3449 6.532 30.5489 6.616 30.7049 6.784C30.8729 6.952 30.9569 7.162 30.9569 7.414V7.936C31.2449 7.516 31.6649 7.156 32.2169 6.856C32.7689 6.556 33.3569 6.406 33.9809 6.406ZM33.7829 14.578C34.3349 14.578 34.8329 14.434 35.2769 14.146C35.7209 13.858 36.0629 13.468 36.3029 12.976C36.5549 12.472 36.6809 11.908 36.6809 11.284C36.6809 10.66 36.5549 10.102 36.3029 9.61C36.0629 9.106 35.7209 8.71 35.2769 8.422C34.8329 8.134 34.3349 7.99 33.7829 7.99C33.2189 7.99 32.7149 8.134 32.2709 8.422C31.8269 8.698 31.4789 9.088 31.2269 9.592C30.9869 10.096 30.8669 10.66 30.8669 11.284C30.8669 11.908 30.9869 12.472 31.2269 12.976C31.4789 13.48 31.8269 13.876 32.2709 14.164C32.7149 14.44 33.2189 14.578 33.7829 14.578ZM48.7836 10.924C48.7716 11.14 48.6816 11.326 48.5136 11.482C48.3456 11.626 48.1476 11.698 47.9196 11.698H41.5836C41.6676 12.574 41.9976 13.276 42.5736 13.804C43.1616 14.332 43.8756 14.596 44.7156 14.596C45.2916 14.596 45.7596 14.512 46.1196 14.344C46.4796 14.176 46.7976 13.96 47.0736 13.696C47.2536 13.588 47.4276 13.534 47.5956 13.534C47.7996 13.534 47.9676 13.606 48.0996 13.75C48.2436 13.894 48.3156 14.062 48.3156 14.254C48.3156 14.506 48.1956 14.734 47.9556 14.938C47.6076 15.286 47.1456 15.58 46.5696 15.82C45.9936 16.06 45.4056 16.18 44.8056 16.18C43.8336 16.18 42.9756 15.976 42.2316 15.568C41.4996 15.16 40.9296 14.59 40.5216 13.858C40.1256 13.126 39.9276 12.298 39.9276 11.374C39.9276 10.366 40.1316 9.484 40.5396 8.728C40.9596 7.96 41.5056 7.372 42.1776 6.964C42.8616 6.556 43.5936 6.352 44.3736 6.352C45.1416 6.352 45.8616 6.55 46.5336 6.946C47.2056 7.342 47.7456 7.888 48.1536 8.584C48.5616 9.28 48.7716 10.06 48.7836 10.924ZM44.3736 7.936C43.7016 7.936 43.1196 8.128 42.6276 8.512C42.1356 8.884 41.8116 9.466 41.6556 10.258H46.9656V10.114C46.9056 9.478 46.6176 8.956 46.1016 8.548C45.5976 8.14 45.0216 7.936 44.3736 7.936ZM58.8974 3.4C59.1374 3.412 59.3294 3.502 59.4734 3.67C59.6294 3.826 59.7074 4.024 59.7074 4.264V15.136C59.7074 15.376 59.6174 15.58 59.4374 15.748C59.2574 15.916 59.0354 16 58.7714 16C58.5074 16 58.2914 15.916 58.1234 15.748C57.9554 15.58 57.8714 15.376 57.8714 15.136V5.776L56.2874 6.73C56.1554 6.814 56.0054 6.856 55.8374 6.856C55.5974 6.856 55.3934 6.766 55.2254 6.586C55.0574 6.394 54.9734 6.19 54.9734 5.974C54.9734 5.83 55.0154 5.692 55.0994 5.56C55.1834 5.428 55.2914 5.32 55.4234 5.236L58.2674 3.526C58.4354 3.442 58.6454 3.4 58.8974 3.4ZM68.6201 8.764C68.3321 8.764 68.1101 8.686 67.9541 8.53C67.8101 8.374 67.7381 8.146 67.7381 7.846V7.522C67.7381 7.222 67.8101 6.994 67.9541 6.838C68.1101 6.682 68.3321 6.604 68.6201 6.604H68.8181C69.1061 6.604 69.3221 6.682 69.4661 6.838C69.6221 6.994 69.7001 7.222 69.7001 7.522V7.846C69.7001 8.146 69.6221 8.374 69.4661 8.53C69.3221 8.686 69.1061 8.764 68.8181 8.764H68.6201ZM68.6201 16C68.3321 16 68.1101 15.922 67.9541 15.766C67.8101 15.598 67.7381 15.37 67.7381 15.082V14.74C67.7381 14.452 67.8101 14.23 67.9541 14.074C68.1101 13.906 68.3321 13.822 68.6201 13.822H68.8181C69.1061 13.822 69.3221 13.906 69.4661 14.074C69.6221 14.23 69.7001 14.452 69.7001 14.74V15.082C69.7001 15.37 69.6221 15.598 69.4661 15.766C69.3221 15.922 69.1061 16 68.8181 16H68.6201ZM82.7838 3.4C83.4198 3.4 84.0078 3.574 84.5478 3.922C85.0878 4.258 85.5138 4.72 85.8258 5.308C86.1498 5.896 86.3118 6.544 86.3118 7.252C86.3118 7.96 86.1498 8.614 85.8258 9.214C85.5138 9.814 85.0878 10.288 84.5478 10.636C84.0078 10.984 83.4198 11.158 82.7838 11.158H79.3998V15.136C79.3998 15.376 79.3218 15.58 79.1658 15.748C79.0098 15.916 78.8118 16 78.5718 16C78.3198 16 78.1158 15.922 77.9598 15.766C77.8158 15.598 77.7438 15.388 77.7438 15.136V4.264C77.7438 4.024 77.8278 3.82 77.9958 3.652C78.1638 3.484 78.3678 3.4 78.6078 3.4H82.7838ZM82.7838 9.52C83.1078 9.52 83.4078 9.418 83.6838 9.214C83.9598 8.998 84.1758 8.716 84.3318 8.368C84.4998 8.02 84.5838 7.648 84.5838 7.252C84.5838 6.64 84.4038 6.124 84.0438 5.704C83.6958 5.272 83.2758 5.056 82.7838 5.056H79.3998V9.52H82.7838ZM93.2188 6.352C93.5308 6.352 93.8008 6.436 94.0288 6.604C94.2568 6.76 94.3708 6.958 94.3708 7.198C94.3708 7.486 94.2928 7.708 94.1368 7.864C93.9928 8.008 93.8128 8.08 93.5968 8.08C93.4888 8.08 93.3268 8.044 93.1108 7.972C92.8588 7.888 92.6608 7.846 92.5168 7.846C92.1448 7.846 91.7788 7.978 91.4188 8.242C91.0708 8.494 90.7828 8.848 90.5548 9.304C90.3388 9.748 90.2308 10.246 90.2308 10.798V15.136C90.2308 15.376 90.1468 15.58 89.9788 15.748C89.8228 15.916 89.6188 16 89.3668 16C89.1148 16 88.9108 15.922 88.7548 15.766C88.5988 15.598 88.5208 15.388 88.5208 15.136V7.432C88.5208 7.192 88.5988 6.988 88.7548 6.82C88.9228 6.652 89.1268 6.568 89.3668 6.568C89.6188 6.568 89.8228 6.652 89.9788 6.82C90.1468 6.988 90.2308 7.192 90.2308 7.432V8.35C90.4948 7.762 90.8908 7.288 91.4188 6.928C91.9468 6.556 92.5468 6.364 93.2188 6.352ZM104.68 11.284C104.68 12.22 104.47 13.06 104.05 13.804C103.63 14.548 103.054 15.13 102.322 15.55C101.602 15.97 100.804 16.18 99.928 16.18C99.052 16.18 98.248 15.97 97.516 15.55C96.796 15.13 96.226 14.548 95.806 13.804C95.386 13.06 95.176 12.22 95.176 11.284C95.176 10.348 95.386 9.502 95.806 8.746C96.226 7.99 96.796 7.402 97.516 6.982C98.248 6.562 99.052 6.352 99.928 6.352C100.804 6.352 101.602 6.562 102.322 6.982C103.054 7.402 103.63 7.99 104.05 8.746C104.47 9.502 104.68 10.348 104.68 11.284ZM102.97 11.284C102.97 10.636 102.832 10.06 102.556 9.556C102.292 9.04 101.926 8.644 101.458 8.368C101.002 8.08 100.492 7.936 99.928 7.936C99.364 7.936 98.848 8.08 98.38 8.368C97.924 8.644 97.558 9.04 97.282 9.556C97.018 10.06 96.886 10.636 96.886 11.284C96.886 11.92 97.018 12.49 97.282 12.994C97.558 13.498 97.924 13.894 98.38 14.182C98.848 14.458 99.364 14.596 99.928 14.596C100.492 14.596 101.002 14.458 101.458 14.182C101.926 13.894 102.292 13.498 102.556 12.994C102.832 12.49 102.97 11.92 102.97 11.284ZM110.9 4.228C110.504 4.228 110.21 4.348 110.018 4.588C109.838 4.828 109.748 5.122 109.748 5.47V6.73H111.53C111.77 6.73 111.962 6.808 112.106 6.964C112.262 7.108 112.34 7.294 112.34 7.522C112.34 7.75 112.262 7.936 112.106 8.08C111.962 8.224 111.77 8.296 111.53 8.296H109.748V15.136C109.748 15.376 109.664 15.58 109.496 15.748C109.34 15.916 109.136 16 108.884 16C108.644 16 108.44 15.916 108.272 15.748C108.116 15.58 108.038 15.376 108.038 15.136V8.296H106.922C106.694 8.296 106.502 8.224 106.346 8.08C106.19 7.936 106.112 7.75 106.112 7.522C106.112 7.294 106.19 7.108 106.346 6.964C106.502 6.808 106.694 6.73 106.922 6.73H108.038V5.47C108.038 4.63 108.308 3.964 108.848 3.472C109.388 2.968 110.15 2.716 111.134 2.716C111.542 2.716 111.902 2.794 112.214 2.95C112.526 3.094 112.682 3.316 112.682 3.616C112.682 3.844 112.61 4.036 112.466 4.192C112.334 4.336 112.172 4.408 111.98 4.408C111.932 4.408 111.8 4.384 111.584 4.336C111.32 4.264 111.092 4.228 110.9 4.228ZM122.362 10.924C122.35 11.14 122.26 11.326 122.092 11.482C121.924 11.626 121.726 11.698 121.498 11.698H115.162C115.246 12.574 115.576 13.276 116.152 13.804C116.74 14.332 117.454 14.596 118.294 14.596C118.87 14.596 119.338 14.512 119.698 14.344C120.058 14.176 120.376 13.96 120.652 13.696C120.832 13.588 121.006 13.534 121.174 13.534C121.378 13.534 121.546 13.606 121.678 13.75C121.822 13.894 121.894 14.062 121.894 14.254C121.894 14.506 121.774 14.734 121.534 14.938C121.186 15.286 120.724 15.58 120.148 15.82C119.572 16.06 118.984 16.18 118.384 16.18C117.412 16.18 116.554 15.976 115.81 15.568C115.078 15.16 114.508 14.59 114.1 13.858C113.704 13.126 113.506 12.298 113.506 11.374C113.506 10.366 113.71 9.484 114.118 8.728C114.538 7.96 115.084 7.372 115.756 6.964C116.44 6.556 117.172 6.352 117.952 6.352C118.72 6.352 119.44 6.55 120.112 6.946C120.784 7.342 121.324 7.888 121.732 8.584C122.14 9.28 122.35 10.06 122.362 10.924ZM117.952 7.936C117.28 7.936 116.698 8.128 116.206 8.512C115.714 8.884 115.39 9.466 115.234 10.258H120.544V10.114C120.484 9.478 120.196 8.956 119.68 8.548C119.176 8.14 118.6 7.936 117.952 7.936ZM124.007 14.524C123.899 14.356 123.845 14.194 123.845 14.038C123.845 13.798 123.971 13.594 124.223 13.426C124.343 13.342 124.481 13.3 124.637 13.3C124.853 13.3 125.051 13.39 125.231 13.57C125.591 13.978 125.975 14.284 126.383 14.488C126.803 14.692 127.301 14.794 127.877 14.794C128.333 14.782 128.735 14.68 129.083 14.488C129.431 14.284 129.605 13.96 129.605 13.516C129.605 13.108 129.425 12.796 129.065 12.58C128.717 12.364 128.201 12.166 127.517 11.986C126.845 11.806 126.287 11.62 125.843 11.428C125.399 11.224 125.021 10.936 124.709 10.564C124.409 10.18 124.259 9.682 124.259 9.07C124.259 8.53 124.409 8.056 124.709 7.648C125.021 7.24 125.429 6.922 125.933 6.694C126.449 6.466 127.007 6.352 127.607 6.352C128.183 6.352 128.753 6.46 129.317 6.676C129.893 6.892 130.361 7.222 130.721 7.666C130.865 7.834 130.937 8.008 130.937 8.188C130.937 8.38 130.841 8.566 130.649 8.746C130.529 8.854 130.379 8.908 130.199 8.908C129.983 8.908 129.809 8.836 129.677 8.692C129.425 8.404 129.113 8.182 128.741 8.026C128.381 7.87 127.979 7.792 127.535 7.792C127.079 7.792 126.689 7.888 126.365 8.08C126.053 8.26 125.897 8.572 125.897 9.016C125.909 9.436 126.089 9.748 126.437 9.952C126.797 10.156 127.343 10.354 128.075 10.546C128.711 10.714 129.239 10.894 129.659 11.086C130.079 11.278 130.433 11.566 130.721 11.95C131.009 12.322 131.153 12.814 131.153 13.426C131.153 13.99 130.991 14.482 130.667 14.902C130.343 15.31 129.917 15.628 129.389 15.856C128.873 16.072 128.321 16.18 127.733 16.18C126.977 16.18 126.275 16.048 125.627 15.784C124.991 15.52 124.451 15.1 124.007 14.524ZM132.785 14.524C132.677 14.356 132.623 14.194 132.623 14.038C132.623 13.798 132.749 13.594 133.001 13.426C133.121 13.342 133.259 13.3 133.415 13.3C133.631 13.3 133.829 13.39 134.009 13.57C134.369 13.978 134.753 14.284 135.161 14.488C135.581 14.692 136.079 14.794 136.655 14.794C137.111 14.782 137.513 14.68 137.861 14.488C138.209 14.284 138.383 13.96 138.383 13.516C138.383 13.108 138.203 12.796 137.843 12.58C137.495 12.364 136.979 12.166 136.295 11.986C135.623 11.806 135.065 11.62 134.621 11.428C134.177 11.224 133.799 10.936 133.487 10.564C133.187 10.18 133.037 9.682 133.037 9.07C133.037 8.53 133.187 8.056 133.487 7.648C133.799 7.24 134.207 6.922 134.711 6.694C135.227 6.466 135.785 6.352 136.385 6.352C136.961 6.352 137.531 6.46 138.095 6.676C138.671 6.892 139.139 7.222 139.499 7.666C139.643 7.834 139.715 8.008 139.715 8.188C139.715 8.38 139.619 8.566 139.427 8.746C139.307 8.854 139.157 8.908 138.977 8.908C138.761 8.908 138.587 8.836 138.455 8.692C138.203 8.404 137.891 8.182 137.519 8.026C137.159 7.87 136.757 7.792 136.313 7.792C135.857 7.792 135.467 7.888 135.143 8.08C134.831 8.26 134.675 8.572 134.675 9.016C134.687 9.436 134.867 9.748 135.215 9.952C135.575 10.156 136.121 10.354 136.853 10.546C137.489 10.714 138.017 10.894 138.437 11.086C138.857 11.278 139.211 11.566 139.499 11.95C139.787 12.322 139.931 12.814 139.931 13.426C139.931 13.99 139.769 14.482 139.445 14.902C139.121 15.31 138.695 15.628 138.167 15.856C137.651 16.072 137.099 16.18 136.511 16.18C135.755 16.18 135.053 16.048 134.405 15.784C133.769 15.52 133.229 15.1 132.785 14.524ZM143.724 15.136C143.724 15.376 143.64 15.58 143.472 15.748C143.316 15.916 143.112 16 142.86 16C142.62 16 142.416 15.916 142.248 15.748C142.092 15.58 142.014 15.376 142.014 15.136V7.342C142.014 7.102 142.092 6.898 142.248 6.73C142.416 6.562 142.62 6.478 142.86 6.478C143.112 6.478 143.316 6.562 143.472 6.73C143.64 6.898 143.724 7.102 143.724 7.342V15.136ZM142.86 5.29C142.512 5.29 142.26 5.23 142.104 5.11C141.96 4.978 141.888 4.774 141.888 4.498V4.21C141.888 3.922 141.966 3.718 142.122 3.598C142.29 3.478 142.542 3.418 142.878 3.418C143.214 3.418 143.454 3.484 143.598 3.616C143.754 3.736 143.832 3.934 143.832 4.21V4.498C143.832 4.786 143.754 4.99 143.598 5.11C143.442 5.23 143.196 5.29 142.86 5.29ZM155.31 11.284C155.31 12.22 155.1 13.06 154.68 13.804C154.26 14.548 153.684 15.13 152.952 15.55C152.232 15.97 151.434 16.18 150.558 16.18C149.682 16.18 148.878 15.97 148.146 15.55C147.426 15.13 146.856 14.548 146.436 13.804C146.016 13.06 145.806 12.22 145.806 11.284C145.806 10.348 146.016 9.502 146.436 8.746C146.856 7.99 147.426 7.402 148.146 6.982C148.878 6.562 149.682 6.352 150.558 6.352C151.434 6.352 152.232 6.562 152.952 6.982C153.684 7.402 154.26 7.99 154.68 8.746C155.1 9.502 155.31 10.348 155.31 11.284ZM153.6 11.284C153.6 10.636 153.462 10.06 153.186 9.556C152.922 9.04 152.556 8.644 152.088 8.368C151.632 8.08 151.122 7.936 150.558 7.936C149.994 7.936 149.478 8.08 149.01 8.368C148.554 8.644 148.188 9.04 147.912 9.556C147.648 10.06 147.516 10.636 147.516 11.284C147.516 11.92 147.648 12.49 147.912 12.994C148.188 13.498 148.554 13.894 149.01 14.182C149.478 14.458 149.994 14.596 150.558 14.596C151.122 14.596 151.632 14.458 152.088 14.182C152.556 13.894 152.922 13.498 153.186 12.994C153.462 12.49 153.6 11.92 153.6 11.284ZM162.304 6.352C164.464 6.352 165.544 7.648 165.544 10.24V15.136C165.544 15.376 165.46 15.58 165.292 15.748C165.136 15.916 164.932 16 164.68 16C164.44 16 164.236 15.916 164.068 15.748C163.912 15.58 163.834 15.376 163.834 15.136V10.258C163.834 9.55 163.672 8.986 163.348 8.566C163.024 8.146 162.496 7.936 161.764 7.936C161.284 7.936 160.846 8.044 160.45 8.26C160.066 8.464 159.76 8.746 159.532 9.106C159.316 9.454 159.208 9.838 159.208 10.258V15.136C159.208 15.376 159.124 15.58 158.956 15.748C158.8 15.916 158.596 16 158.344 16C158.092 16 157.888 15.922 157.732 15.766C157.576 15.598 157.498 15.388 157.498 15.136V7.432C157.498 7.192 157.576 6.988 157.732 6.82C157.9 6.652 158.104 6.568 158.344 6.568C158.596 6.568 158.8 6.652 158.956 6.82C159.124 6.988 159.208 7.192 159.208 7.432V8.062C159.52 7.582 159.952 7.18 160.504 6.856C161.068 6.52 161.668 6.352 162.304 6.352ZM167.757 14.524C167.649 14.356 167.595 14.194 167.595 14.038C167.595 13.798 167.721 13.594 167.973 13.426C168.093 13.342 168.231 13.3 168.387 13.3C168.603 13.3 168.801 13.39 168.981 13.57C169.341 13.978 169.725 14.284 170.133 14.488C170.553 14.692 171.051 14.794 171.627 14.794C172.083 14.782 172.485 14.68 172.833 14.488C173.181 14.284 173.355 13.96 173.355 13.516C173.355 13.108 173.175 12.796 172.815 12.58C172.467 12.364 171.951 12.166 171.267 11.986C170.595 11.806 170.037 11.62 169.593 11.428C169.149 11.224 168.771 10.936 168.459 10.564C168.159 10.18 168.009 9.682 168.009 9.07C168.009 8.53 168.159 8.056 168.459 7.648C168.771 7.24 169.179 6.922 169.683 6.694C170.199 6.466 170.757 6.352 171.357 6.352C171.933 6.352 172.503 6.46 173.067 6.676C173.643 6.892 174.111 7.222 174.471 7.666C174.615 7.834 174.687 8.008 174.687 8.188C174.687 8.38 174.591 8.566 174.399 8.746C174.279 8.854 174.129 8.908 173.949 8.908C173.733 8.908 173.559 8.836 173.427 8.692C173.175 8.404 172.863 8.182 172.491 8.026C172.131 7.87 171.729 7.792 171.285 7.792C170.829 7.792 170.439 7.888 170.115 8.08C169.803 8.26 169.647 8.572 169.647 9.016C169.659 9.436 169.839 9.748 170.187 9.952C170.547 10.156 171.093 10.354 171.825 10.546C172.461 10.714 172.989 10.894 173.409 11.086C173.829 11.278 174.183 11.566 174.471 11.95C174.759 12.322 174.903 12.814 174.903 13.426C174.903 13.99 174.741 14.482 174.417 14.902C174.093 15.31 173.667 15.628 173.139 15.856C172.623 16.072 172.071 16.18 171.483 16.18C170.727 16.18 170.025 16.048 169.377 15.784C168.741 15.52 168.201 15.1 167.757 14.524ZM186.372 6.352C187.32 6.352 188.106 6.502 188.73 6.802C189.366 7.102 189.684 7.486 189.684 7.954C189.684 8.158 189.618 8.344 189.486 8.512C189.354 8.668 189.186 8.746 188.982 8.746C188.826 8.746 188.7 8.722 188.604 8.674C188.52 8.626 188.4 8.548 188.244 8.44C188.172 8.368 188.058 8.284 187.902 8.188C187.758 8.116 187.554 8.056 187.29 8.008C187.026 7.96 186.786 7.936 186.57 7.936C185.946 7.936 185.394 8.08 184.914 8.368C184.434 8.656 184.062 9.058 183.798 9.574C183.534 10.078 183.402 10.642 183.402 11.266C183.402 11.902 183.528 12.472 183.78 12.976C184.044 13.48 184.41 13.876 184.878 14.164C185.346 14.452 185.88 14.596 186.48 14.596C187.104 14.596 187.608 14.5 187.992 14.308C188.076 14.26 188.19 14.182 188.334 14.074C188.454 13.978 188.556 13.906 188.64 13.858C188.736 13.81 188.85 13.786 188.982 13.786C189.222 13.786 189.408 13.864 189.54 14.02C189.684 14.164 189.756 14.356 189.756 14.596C189.756 14.848 189.594 15.1 189.27 15.352C188.958 15.592 188.532 15.79 187.992 15.946C187.464 16.102 186.894 16.18 186.282 16.18C185.37 16.18 184.566 15.97 183.87 15.55C183.174 15.118 182.634 14.53 182.25 13.786C181.878 13.03 181.692 12.19 181.692 11.266C181.692 10.342 181.89 9.508 182.286 8.764C182.682 8.008 183.234 7.42 183.942 7C184.65 6.568 185.46 6.352 186.372 6.352ZM193.334 15.136C193.334 15.376 193.25 15.58 193.082 15.748C192.926 15.916 192.722 16 192.47 16C192.23 16 192.026 15.916 191.858 15.748C191.702 15.58 191.624 15.376 191.624 15.136V7.342C191.624 7.102 191.702 6.898 191.858 6.73C192.026 6.562 192.23 6.478 192.47 6.478C192.722 6.478 192.926 6.562 193.082 6.73C193.25 6.898 193.334 7.102 193.334 7.342V15.136ZM192.47 5.29C192.122 5.29 191.87 5.23 191.714 5.11C191.57 4.978 191.498 4.774 191.498 4.498V4.21C191.498 3.922 191.576 3.718 191.732 3.598C191.9 3.478 192.152 3.418 192.488 3.418C192.824 3.418 193.064 3.484 193.208 3.616C193.364 3.736 193.442 3.934 193.442 4.21V4.498C193.442 4.786 193.364 4.99 193.208 5.11C193.052 5.23 192.806 5.29 192.47 5.29ZM200.726 6.352C201.542 6.352 202.28 6.562 202.94 6.982C203.6 7.402 204.116 7.984 204.488 8.728C204.872 9.472 205.064 10.312 205.064 11.248C205.064 12.184 204.872 13.03 204.488 13.786C204.116 14.542 203.6 15.13 202.94 15.55C202.28 15.97 201.554 16.18 200.762 16.18C200.138 16.18 199.556 16.042 199.016 15.766C198.476 15.49 198.038 15.148 197.702 14.74V15.262C197.702 15.502 197.618 15.706 197.45 15.874C197.294 16.042 197.09 16.126 196.838 16.126C196.598 16.126 196.394 16.048 196.226 15.892C196.07 15.724 195.992 15.514 195.992 15.262V3.544C195.992 3.292 196.07 3.088 196.226 2.932C196.382 2.764 196.586 2.68 196.838 2.68C197.09 2.68 197.294 2.764 197.45 2.932C197.618 3.1 197.702 3.304 197.702 3.544V7.936C197.99 7.504 198.41 7.132 198.962 6.82C199.514 6.508 200.102 6.352 200.726 6.352ZM200.528 14.596C201.08 14.596 201.578 14.452 202.022 14.164C202.466 13.864 202.808 13.462 203.048 12.958C203.3 12.442 203.426 11.872 203.426 11.248C203.426 10.624 203.3 10.06 203.048 9.556C202.808 9.052 202.466 8.656 202.022 8.368C201.578 8.08 201.08 7.936 200.528 7.936C199.964 7.936 199.46 8.08 199.016 8.368C198.572 8.656 198.224 9.052 197.972 9.556C197.732 10.048 197.612 10.612 197.612 11.248C197.612 11.884 197.732 12.454 197.972 12.958C198.224 13.462 198.572 13.864 199.016 14.164C199.46 14.452 199.964 14.596 200.528 14.596ZM209.103 15.136C209.103 15.376 209.019 15.58 208.851 15.748C208.683 15.916 208.479 16 208.239 16C207.999 16 207.795 15.916 207.627 15.748C207.471 15.58 207.393 15.376 207.393 15.136V3.544C207.393 3.304 207.477 3.1 207.645 2.932C207.813 2.764 208.017 2.68 208.257 2.68C208.497 2.68 208.695 2.764 208.851 2.932C209.019 3.1 209.103 3.304 209.103 3.544V15.136ZM220.105 10.924C220.093 11.14 220.003 11.326 219.835 11.482C219.667 11.626 219.469 11.698 219.241 11.698H212.905C212.989 12.574 213.319 13.276 213.895 13.804C214.483 14.332 215.197 14.596 216.037 14.596C216.613 14.596 217.081 14.512 217.441 14.344C217.801 14.176 218.119 13.96 218.395 13.696C218.575 13.588 218.749 13.534 218.917 13.534C219.121 13.534 219.289 13.606 219.421 13.75C219.565 13.894 219.637 14.062 219.637 14.254C219.637 14.506 219.517 14.734 219.277 14.938C218.929 15.286 218.467 15.58 217.891 15.82C217.315 16.06 216.727 16.18 216.127 16.18C215.155 16.18 214.297 15.976 213.553 15.568C212.821 15.16 212.251 14.59 211.843 13.858C211.447 13.126 211.249 12.298 211.249 11.374C211.249 10.366 211.453 9.484 211.861 8.728C212.281 7.96 212.827 7.372 213.499 6.964C214.183 6.556 214.915 6.352 215.695 6.352C216.463 6.352 217.183 6.55 217.855 6.946C218.527 7.342 219.067 7.888 219.475 8.584C219.883 9.28 220.093 10.06 220.105 10.924ZM215.695 7.936C215.023 7.936 214.441 8.128 213.949 8.512C213.457 8.884 213.133 9.466 212.977 10.258H218.287V10.114C218.227 9.478 217.939 8.956 217.423 8.548C216.919 8.14 216.343 7.936 215.695 7.936ZM221.751 14.524C221.643 14.356 221.589 14.194 221.589 14.038C221.589 13.798 221.715 13.594 221.967 13.426C222.087 13.342 222.225 13.3 222.381 13.3C222.597 13.3 222.795 13.39 222.975 13.57C223.335 13.978 223.719 14.284 224.127 14.488C224.547 14.692 225.045 14.794 225.621 14.794C226.077 14.782 226.479 14.68 226.827 14.488C227.175 14.284 227.349 13.96 227.349 13.516C227.349 13.108 227.169 12.796 226.809 12.58C226.461 12.364 225.945 12.166 225.261 11.986C224.589 11.806 224.031 11.62 223.587 11.428C223.143 11.224 222.765 10.936 222.453 10.564C222.153 10.18 222.003 9.682 222.003 9.07C222.003 8.53 222.153 8.056 222.453 7.648C222.765 7.24 223.173 6.922 223.677 6.694C224.193 6.466 224.751 6.352 225.351 6.352C225.927 6.352 226.497 6.46 227.061 6.676C227.637 6.892 228.105 7.222 228.465 7.666C228.609 7.834 228.681 8.008 228.681 8.188C228.681 8.38 228.585 8.566 228.393 8.746C228.273 8.854 228.123 8.908 227.943 8.908C227.727 8.908 227.553 8.836 227.421 8.692C227.169 8.404 226.857 8.182 226.485 8.026C226.125 7.87 225.723 7.792 225.279 7.792C224.823 7.792 224.433 7.888 224.109 8.08C223.797 8.26 223.641 8.572 223.641 9.016C223.653 9.436 223.833 9.748 224.181 9.952C224.541 10.156 225.087 10.354 225.819 10.546C226.455 10.714 226.983 10.894 227.403 11.086C227.823 11.278 228.177 11.566 228.465 11.95C228.753 12.322 228.897 12.814 228.897 13.426C228.897 13.99 228.735 14.482 228.411 14.902C228.087 15.31 227.661 15.628 227.133 15.856C226.617 16.072 226.065 16.18 225.477 16.18C224.721 16.18 224.019 16.048 223.371 15.784C222.735 15.52 222.195 15.1 221.751 14.524Z" fill="#292984"/>
</svg>
