<svg width="24" height="24" viewBox="0 0 24 24" fill="none" xmlns="http://www.w3.org/2000/svg">
<rect opacity="0.3" x="6" y="1" width="12" height="4" rx="1" fill="#504F92"/>
<path fill-rule="evenodd" clip-rule="evenodd" d="M6.06634 8C6.06634 6.89543 6.96177 6 8.06634 6H17.4336C17.7098 6 17.9336 6.22386 17.9336 6.5V13.3805C17.9773 13.7458 18 14.1196 18 14.5C18 18.6421 15.3137 22 12 22C8.68629 22 6 18.6421 6 14.5C6 13.8678 6.06257 13.2539 6.1804 12.6674C6.10654 12.4587 6.06634 12.234 6.06634 12V8ZM16 15C16 17.7614 14.2091 20 12 20C9.79086 20 8 17.7614 8 15C8 12.2386 9.79086 10 12 10C14.2091 10 16 12.2386 16 15Z" fill="#3A3768"/>
<path opacity="0.3" d="M10.5 14.5C10.5 14.2239 10.7239 14 11 14H13C13.2761 14 13.5 14.2239 13.5 14.5V15.5C13.5 16.3284 12.8284 17 12 17C11.1716 17 10.5 16.3284 10.5 15.5V14.5Z" fill="#504F92"/>
</svg>
